<?xml version="1.0" encoding="UTF-8" standalone="no"?>
<!DOCTYPE svg PUBLIC "-//W3C//DTD SVG 1.1//EN"
 "http://www.w3.org/Graphics/SVG/1.1/DTD/svg11.dtd">
<!-- Generated by graphviz version 2.38.0 (20140413.2041)
 -->
<!-- Title: dependency&#45;cruiser output Pages: 1 -->
<svg width="559pt" height="1331pt"
 viewBox="0.00 0.00 558.50 1331.02" xmlns="http://www.w3.org/2000/svg" xmlns:xlink="http://www.w3.org/1999/xlink">
<g id="graph0" class="graph" transform="scale(1 1) rotate(0) translate(4 1327.02)">
<title>dependency&#45;cruiser output</title>
<polygon fill="white" stroke="none" points="-4,4 -4,-1327.02 554.5,-1327.02 554.5,4 -4,4"/>
<g id="clust1" class="cluster"><title>cluster_node_modules</title>
<path fill="#ffffff" stroke="black" stroke-width="2" d="M462,-165.017C462,-165.017 531,-165.017 531,-165.017 537,-165.017 543,-171.017 543,-177.017 543,-177.017 543,-239.017 543,-239.017 543,-245.017 537,-251.017 531,-251.017 531,-251.017 462,-251.017 462,-251.017 456,-251.017 450,-245.017 450,-239.017 450,-239.017 450,-177.017 450,-177.017 450,-171.017 456,-165.017 462,-165.017"/>
<text text-anchor="middle" x="496.5" y="-239.817" font-family="Helvetica,sans-Serif" font-weight="bold" font-size="9.00">node_modules</text>
</g>
<g id="clust2" class="cluster"><title>cluster_node_modules/lodash</title>
<path fill="#ffffff" stroke="black" stroke-width="2" d="M471,-173.017C471,-173.017 522,-173.017 522,-173.017 528,-173.017 534,-179.017 534,-185.017 534,-185.017 534,-213.017 534,-213.017 534,-219.017 528,-225.017 522,-225.017 522,-225.017 471,-225.017 471,-225.017 465,-225.017 459,-219.017 459,-213.017 459,-213.017 459,-185.017 459,-185.017 459,-179.017 465,-173.017 471,-173.017"/>
<text text-anchor="middle" x="496.5" y="-213.817" font-family="Helvetica,sans-Serif" font-weight="bold" font-size="9.00">lodash</text>
</g>
<g id="clust3" class="cluster"><title>cluster_src</title>
<path fill="#ffffff" stroke="black" stroke-width="2" d="M20,-259.017C20,-259.017 530.5,-259.017 530.5,-259.017 536.5,-259.017 542.5,-265.017 542.5,-271.017 542.5,-271.017 542.5,-1303.02 542.5,-1303.02 542.5,-1309.02 536.5,-1315.02 530.5,-1315.02 530.5,-1315.02 20,-1315.02 20,-1315.02 14,-1315.02 8,-1309.02 8,-1303.02 8,-1303.02 8,-271.017 8,-271.017 8,-265.017 14,-259.017 20,-259.017"/>
<text text-anchor="middle" x="275.25" y="-1303.82" font-family="Helvetica,sans-Serif" font-weight="bold" font-size="9.00">src</text>
</g>
<g id="clust4" class="cluster"><title>cluster_src/SiCard</title>
<path fill="#ffffff" stroke="black" stroke-width="2" d="M28,-267.017C28,-267.017 422.5,-267.017 422.5,-267.017 428.5,-267.017 434.5,-273.017 434.5,-279.017 434.5,-279.017 434.5,-961.017 434.5,-961.017 434.5,-967.017 428.5,-973.017 422.5,-973.017 422.5,-973.017 28,-973.017 28,-973.017 22,-973.017 16,-967.017 16,-961.017 16,-961.017 16,-279.017 16,-279.017 16,-273.017 22,-267.017 28,-267.017"/>
<text text-anchor="middle" x="225.25" y="-961.817" font-family="Helvetica,sans-Serif" font-weight="bold" font-size="9.00">SiCard</text>
</g>
<g id="clust5" class="cluster"><title>cluster_src/SiCard/types</title>
<path fill="#ffffff" stroke="black" stroke-width="2" d="M36,-435.017C36,-435.017 414.5,-435.017 414.5,-435.017 420.5,-435.017 426.5,-441.017 426.5,-447.017 426.5,-447.017 426.5,-895.017 426.5,-895.017 426.5,-901.017 420.5,-907.017 414.5,-907.017 414.5,-907.017 36,-907.017 36,-907.017 30,-907.017 24,-901.017 24,-895.017 24,-895.017 24,-447.017 24,-447.017 24,-441.017 30,-435.017 36,-435.017"/>
<text text-anchor="middle" x="225.25" y="-895.817" font-family="Helvetica,sans-Serif" font-weight="bold" font-size="9.00">types</text>
</g>
<g id="clust6" class="cluster"><title>cluster_src/simulation</title>
<path fill="#ffffff" stroke="black" stroke-width="2" d="M270,-1049.02C270,-1049.02 430,-1049.02 430,-1049.02 436,-1049.02 442,-1055.02 442,-1061.02 442,-1061.02 442,-1277.02 442,-1277.02 442,-1283.02 436,-1289.02 430,-1289.02 430,-1289.02 270,-1289.02 270,-1289.02 264,-1289.02 258,-1283.02 258,-1277.02 258,-1277.02 258,-1061.02 258,-1061.02 258,-1055.02 264,-1049.02 270,-1049.02"/>
<text text-anchor="middle" x="350" y="-1277.82" font-family="Helvetica,sans-Serif" font-weight="bold" font-size="9.00">simulation</text>
</g>
<g id="clust7" class="cluster"><title>cluster_src/simulation/SiCardSimulator</title>
<path fill="#ffffff" stroke="black" stroke-width="2" d="M278,-1057.02C278,-1057.02 422,-1057.02 422,-1057.02 428,-1057.02 434,-1063.02 434,-1069.02 434,-1069.02 434,-1251.02 434,-1251.02 434,-1257.02 428,-1263.02 422,-1263.02 422,-1263.02 278,-1263.02 278,-1263.02 272,-1263.02 266,-1257.02 266,-1251.02 266,-1251.02 266,-1069.02 266,-1069.02 266,-1063.02 272,-1057.02 278,-1057.02"/>
<text text-anchor="middle" x="350" y="-1251.82" font-family="Helvetica,sans-Serif" font-weight="bold" font-size="9.00">SiCardSimulator</text>
</g>
<g id="clust8" class="cluster"><title>cluster_src/simulation/SiCardSimulator/types</title>
<path fill="#ffffff" stroke="black" stroke-width="2" d="M286,-1065.02C286,-1065.02 414,-1065.02 414,-1065.02 420,-1065.02 426,-1071.02 426,-1077.02 426,-1077.02 426,-1225.02 426,-1225.02 426,-1231.02 420,-1237.02 414,-1237.02 414,-1237.02 286,-1237.02 286,-1237.02 280,-1237.02 274,-1231.02 274,-1225.02 274,-1225.02 274,-1077.02 274,-1077.02 274,-1071.02 280,-1065.02 286,-1065.02"/>
<text text-anchor="middle" x="350" y="-1225.82" font-family="Helvetica,sans-Serif" font-weight="bold" font-size="9.00">types</text>
</g>
<g id="clust9" class="cluster"><title>cluster_src/storage</title>
<path fill="#ffffff" stroke="black" stroke-width="2" d="M473.5,-338.017C473.5,-338.017 519.5,-338.017 519.5,-338.017 525.5,-338.017 531.5,-344.017 531.5,-350.017 531.5,-350.017 531.5,-378.017 531.5,-378.017 531.5,-384.017 525.5,-390.017 519.5,-390.017 519.5,-390.017 473.5,-390.017 473.5,-390.017 467.5,-390.017 461.5,-384.017 461.5,-378.017 461.5,-378.017 461.5,-350.017 461.5,-350.017 461.5,-344.017 467.5,-338.017 473.5,-338.017"/>
<text text-anchor="middle" x="496.5" y="-378.817" font-family="Helvetica,sans-Serif" font-weight="bold" font-size="9.00">storage</text>
</g>
<g id="clust10" class="cluster"><title>cluster_src/utils</title>
<path fill="#ffffff" stroke="black" stroke-width="2" d="M473.5,-399.017C473.5,-399.017 519.5,-399.017 519.5,-399.017 525.5,-399.017 531.5,-405.017 531.5,-411.017 531.5,-411.017 531.5,-439.017 531.5,-439.017 531.5,-445.017 525.5,-451.017 519.5,-451.017 519.5,-451.017 473.5,-451.017 473.5,-451.017 467.5,-451.017 461.5,-445.017 461.5,-439.017 461.5,-439.017 461.5,-411.017 461.5,-411.017 461.5,-405.017 467.5,-399.017 473.5,-399.017"/>
<text text-anchor="middle" x="496.5" y="-439.817" font-family="Helvetica,sans-Serif" font-weight="bold" font-size="9.00">utils</text>
</g>
<!-- node_modules/lodash/lodash.js -->
<g id="node1" class="node"><title>node_modules/lodash/lodash.js</title>
<g id="a_node1"><a xlink:href="node_modules/lodash/lodash.js" xlink:title="lodash.js">
<polygon fill="#c40b0a" fill-opacity="0.101961" stroke="black" points="526,-199.017 524.5,-201.017 514,-201.017 512.5,-199.017 467,-199.017 467,-181.017 526,-181.017 526,-199.017"/>
<text text-anchor="middle" x="496.5" y="-187.817" font-family="Helvetica,sans-Serif" font-size="9.00" fill="#c40b0a">lodash.js</text>
</a>
</g>
</g>
<!-- src/SiCard/BaseSiCard.js -->
<g id="node2" class="node"><title>src/SiCard/BaseSiCard.js</title>
<g id="a_node2"><a xlink:href="src/SiCard/BaseSiCard.js" xlink:title="BaseSiCard.js">
<path fill="#ffffcc" stroke="black" d="M384,-427.017C384,-427.017 316,-427.017 316,-427.017 313,-427.017 310,-424.017 310,-421.017 310,-421.017 310,-415.017 310,-415.017 310,-412.017 313,-409.017 316,-409.017 316,-409.017 384,-409.017 384,-409.017 387,-409.017 390,-412.017 390,-415.017 390,-415.017 390,-421.017 390,-421.017 390,-424.017 387,-427.017 384,-427.017"/>
<text text-anchor="middle" x="350" y="-415.817" font-family="Helvetica,sans-Serif" font-size="9.00">BaseSiCard.js</text>
</a>
</g>
</g>
<!-- src/SiCard/BaseSiCard.js&#45;&gt;node_modules/lodash/lodash.js -->
<g id="edge4" class="edge"><title>src/SiCard/BaseSiCard.js&#45;&gt;node_modules/lodash/lodash.js</title>
<path fill="none" stroke="#000000" stroke-width="2" stroke-opacity="0.200000" d="M361.213,-408.767C379.425,-391.839 417.858,-354.099 442,-316.017 464.39,-280.698 481.276,-234.404 489.647,-208.908"/>
<polygon fill="#000000" fill-opacity="0.200000" stroke="#000000" stroke-width="2" stroke-opacity="0.200000" points="493.084,-209.649 492.794,-199.059 486.416,-207.519 493.084,-209.649"/>
</g>
<!-- src/constants.ts -->
<g id="node34" class="node"><title>src/constants.ts</title>
<g id="a_node34"><a xlink:href="src/constants.ts" xlink:title="constants.ts">
<path fill="#ddfeff" stroke="black" d="M528.5,-947.017C528.5,-947.017 464.5,-947.017 464.5,-947.017 461.5,-947.017 458.5,-944.017 458.5,-941.017 458.5,-941.017 458.5,-935.017 458.5,-935.017 458.5,-932.017 461.5,-929.017 464.5,-929.017 464.5,-929.017 528.5,-929.017 528.5,-929.017 531.5,-929.017 534.5,-932.017 534.5,-935.017 534.5,-935.017 534.5,-941.017 534.5,-941.017 534.5,-944.017 531.5,-947.017 528.5,-947.017"/>
<text text-anchor="middle" x="496.5" y="-935.817" font-family="Helvetica,sans-Serif" font-size="9.00">constants.ts</text>
</a>
</g>
</g>
<!-- src/SiCard/BaseSiCard.js&#45;&gt;src/constants.ts -->
<g id="edge1" class="edge"><title>src/SiCard/BaseSiCard.js&#45;&gt;src/constants.ts</title>
<path fill="none" stroke="#000000" stroke-width="2" stroke-opacity="0.200000" d="M390.015,-413.495C408.52,-413.659 429.309,-417.634 442,-432.017 452.554,-443.977 448.148,-703.174 450,-719.017 458.743,-793.819 480.352,-880.972 490.316,-918.833"/>
<polygon fill="#000000" fill-opacity="0.200000" stroke="#000000" stroke-width="2" stroke-opacity="0.200000" points="487.05,-920.17 493.007,-928.932 493.814,-918.368 487.05,-920.17"/>
</g>
<!-- src/siProtocol.ts -->
<g id="node35" class="node"><title>src/siProtocol.ts</title>
<g id="a_node35"><a xlink:href="src/siProtocol.ts" xlink:title="siProtocol.ts">
<path fill="#ddfeff" stroke="black" d="M528,-713.017C528,-713.017 465,-713.017 465,-713.017 462,-713.017 459,-710.017 459,-707.017 459,-707.017 459,-701.017 459,-701.017 459,-698.017 462,-695.017 465,-695.017 465,-695.017 528,-695.017 528,-695.017 531,-695.017 534,-698.017 534,-701.017 534,-701.017 534,-707.017 534,-707.017 534,-710.017 531,-713.017 528,-713.017"/>
<text text-anchor="middle" x="496.5" y="-701.817" font-family="Helvetica,sans-Serif" font-size="9.00">siProtocol.ts</text>
</a>
</g>
</g>
<!-- src/SiCard/BaseSiCard.js&#45;&gt;src/siProtocol.ts -->
<g id="edge2" class="edge"><title>src/SiCard/BaseSiCard.js&#45;&gt;src/siProtocol.ts</title>
<path fill="none" stroke="#000000" stroke-width="2" stroke-opacity="0.200000" d="M390.414,-414.466C408.336,-415.033 428.504,-419.07 442,-432.017 451.279,-440.918 482.354,-624.541 492.364,-684.943"/>
<polygon fill="#000000" fill-opacity="0.200000" stroke="#000000" stroke-width="2" stroke-opacity="0.200000" points="488.943,-685.71 494.026,-695.006 495.85,-684.57 488.943,-685.71"/>
</g>
<!-- src/utils/index.ts -->
<g id="node43" class="node"><title>src/utils/index.ts</title>
<g id="a_node43"><a xlink:href="src/utils/index.ts" xlink:title="index.ts">
<path fill="#ddfeff" stroke="black" d="M517.5,-425.017C517.5,-425.017 475.5,-425.017 475.5,-425.017 472.5,-425.017 469.5,-422.017 469.5,-419.017 469.5,-419.017 469.5,-413.017 469.5,-413.017 469.5,-410.017 472.5,-407.017 475.5,-407.017 475.5,-407.017 517.5,-407.017 517.5,-407.017 520.5,-407.017 523.5,-410.017 523.5,-413.017 523.5,-413.017 523.5,-419.017 523.5,-419.017 523.5,-422.017 520.5,-425.017 517.5,-425.017"/>
<text text-anchor="middle" x="496.5" y="-413.817" font-family="Helvetica,sans-Serif" font-size="9.00">index.ts</text>
</a>
</g>
</g>
<!-- src/SiCard/BaseSiCard.js&#45;&gt;src/utils/index.ts -->
<g id="edge3" class="edge"><title>src/SiCard/BaseSiCard.js&#45;&gt;src/utils/index.ts</title>
<path fill="none" stroke="#000000" stroke-width="2" stroke-opacity="0.200000" d="M390.104,-417.476C411.554,-417.179 437.982,-416.813 459.007,-416.522"/>
<polygon fill="#000000" fill-opacity="0.200000" stroke="#000000" stroke-width="2" stroke-opacity="0.200000" points="459.201,-420.02 469.151,-416.382 459.104,-413.02 459.201,-420.02"/>
</g>
<!-- src/SiCard/BaseSiCard.test.js -->
<g id="node3" class="node"><title>src/SiCard/BaseSiCard.test.js</title>
<g id="a_node3"><a xlink:href="src/SiCard/BaseSiCard.test.js" xlink:title="BaseSiCard.test.js">
<path fill="#ffffcc" stroke="black" d="M238,-947.017C238,-947.017 148,-947.017 148,-947.017 145,-947.017 142,-944.017 142,-941.017 142,-941.017 142,-935.017 142,-935.017 142,-932.017 145,-929.017 148,-929.017 148,-929.017 238,-929.017 238,-929.017 241,-929.017 244,-932.017 244,-935.017 244,-935.017 244,-941.017 244,-941.017 244,-944.017 241,-947.017 238,-947.017"/>
<text text-anchor="middle" x="193" y="-935.817" font-family="Helvetica,sans-Serif" font-size="9.00">BaseSiCard.test.js</text>
</a>
</g>
</g>
<!-- src/SiCard/BaseSiCard.test.js&#45;&gt;src/SiCard/BaseSiCard.js -->
<g id="edge9" class="edge"><title>src/SiCard/BaseSiCard.test.js&#45;&gt;src/SiCard/BaseSiCard.js</title>
<path fill="none" stroke="#000000" stroke-width="2" stroke-opacity="0.200000" d="M239.839,-929.013C243.757,-926.658 247.263,-923.708 250,-920.017 266.151,-898.237 240.177,-452.451 258,-432.017 268.343,-420.159 284.187,-415.351 299.772,-413.923"/>
<polygon fill="#000000" fill-opacity="0.200000" stroke="#000000" stroke-width="2" stroke-opacity="0.200000" points="300.096,-417.412 309.915,-413.433 299.758,-410.42 300.096,-417.412"/>
</g>
<!-- src/SiCard/BaseSiCard.test.js&#45;&gt;src/constants.ts -->
<g id="edge5" class="edge"><title>src/SiCard/BaseSiCard.test.js&#45;&gt;src/constants.ts</title>
<path fill="none" stroke="#000000" stroke-width="2" stroke-opacity="0.200000" d="M244.125,-938.017C300.756,-938.017 392.254,-938.017 447.846,-938.017"/>
<polygon fill="#000000" fill-opacity="0.200000" stroke="#000000" stroke-width="2" stroke-opacity="0.200000" points="448.128,-941.517 458.128,-938.017 448.128,-934.517 448.128,-941.517"/>
</g>
<!-- src/SiCard/BaseSiCard.test.js&#45;&gt;src/siProtocol.ts -->
<g id="edge6" class="edge"><title>src/SiCard/BaseSiCard.test.js&#45;&gt;src/siProtocol.ts</title>
<path fill="none" stroke="#000000" stroke-width="2" stroke-opacity="0.200000" d="M244.123,-935.373C312.262,-931.326 427.374,-922.705 442,-910.017 470.364,-885.411 487.412,-770.033 493.234,-723.523"/>
<polygon fill="#000000" fill-opacity="0.200000" stroke="#000000" stroke-width="2" stroke-opacity="0.200000" points="496.718,-723.86 494.445,-713.512 489.769,-723.019 496.718,-723.86"/>
</g>
<!-- src/storage/index.ts -->
<g id="node41" class="node"><title>src/storage/index.ts</title>
<g id="a_node41"><a xlink:href="src/storage/index.ts" xlink:title="index.ts">
<path fill="#ddfeff" stroke="black" d="M517.5,-364.017C517.5,-364.017 475.5,-364.017 475.5,-364.017 472.5,-364.017 469.5,-361.017 469.5,-358.017 469.5,-358.017 469.5,-352.017 469.5,-352.017 469.5,-349.017 472.5,-346.017 475.5,-346.017 475.5,-346.017 517.5,-346.017 517.5,-346.017 520.5,-346.017 523.5,-349.017 523.5,-352.017 523.5,-352.017 523.5,-358.017 523.5,-358.017 523.5,-361.017 520.5,-364.017 517.5,-364.017"/>
<text text-anchor="middle" x="496.5" y="-352.817" font-family="Helvetica,sans-Serif" font-size="9.00">index.ts</text>
</a>
</g>
</g>
<!-- src/SiCard/BaseSiCard.test.js&#45;&gt;src/storage/index.ts -->
<g id="edge7" class="edge"><title>src/SiCard/BaseSiCard.test.js&#45;&gt;src/storage/index.ts</title>
<path fill="none" stroke="#000000" stroke-width="2" stroke-opacity="0.200000" d="M226.358,-928.96C235.565,-924.738 244.56,-918.666 250,-910.017 264.999,-886.171 239.641,-424.383 258,-403.017 285.023,-371.567 401.697,-381.764 442,-372.017 447.826,-370.608 453.94,-368.895 459.868,-367.105"/>
<polygon fill="#000000" fill-opacity="0.200000" stroke="#000000" stroke-width="2" stroke-opacity="0.200000" points="461.088,-370.391 469.585,-364.061 458.996,-363.711 461.088,-370.391"/>
</g>
<!-- src/testUtils.ts -->
<g id="node42" class="node"><title>src/testUtils.ts</title>
<g id="a_node42"><a xlink:href="src/testUtils.ts" xlink:title="testUtils.ts">
<path fill="#ddfeff" stroke="black" d="M378,-999.017C378,-999.017 322,-999.017 322,-999.017 319,-999.017 316,-996.017 316,-993.017 316,-993.017 316,-987.017 316,-987.017 316,-984.017 319,-981.017 322,-981.017 322,-981.017 378,-981.017 378,-981.017 381,-981.017 384,-984.017 384,-987.017 384,-987.017 384,-993.017 384,-993.017 384,-996.017 381,-999.017 378,-999.017"/>
<text text-anchor="middle" x="350" y="-987.817" font-family="Helvetica,sans-Serif" font-size="9.00">testUtils.ts</text>
</a>
</g>
</g>
<!-- src/SiCard/BaseSiCard.test.js&#45;&gt;src/testUtils.ts -->
<g id="edge8" class="edge"><title>src/SiCard/BaseSiCard.test.js&#45;&gt;src/testUtils.ts</title>
<path fill="none" stroke="#000000" stroke-width="2" stroke-opacity="0.200000" d="M244.02,-946.539C246.155,-947.841 248.165,-949.326 250,-951.017 258.579,-958.923 249.129,-968.44 258,-976.017 270.984,-987.107 288.979,-991.379 305.54,-992.593"/>
<polygon fill="#000000" fill-opacity="0.200000" stroke="#000000" stroke-width="2" stroke-opacity="0.200000" points="305.481,-996.093 315.61,-992.986 305.754,-989.098 305.481,-996.093"/>
</g>
<!-- src/SiCard/index.js -->
<g id="node4" class="node"><title>src/SiCard/index.js</title>
<g id="a_node4"><a xlink:href="src/SiCard/index.js" xlink:title="index.js">
<path fill="#ffffcc" stroke="black" d="M98.5,-933.017C98.5,-933.017 56.5,-933.017 56.5,-933.017 53.5,-933.017 50.5,-930.017 50.5,-927.017 50.5,-927.017 50.5,-921.017 50.5,-921.017 50.5,-918.017 53.5,-915.017 56.5,-915.017 56.5,-915.017 98.5,-915.017 98.5,-915.017 101.5,-915.017 104.5,-918.017 104.5,-921.017 104.5,-921.017 104.5,-927.017 104.5,-927.017 104.5,-930.017 101.5,-933.017 98.5,-933.017"/>
<text text-anchor="middle" x="77.5" y="-921.817" font-family="Helvetica,sans-Serif" font-size="9.00">index.js</text>
</a>
</g>
</g>
<!-- src/SiCard/index.js&#45;&gt;src/SiCard/BaseSiCard.js -->
<g id="edge10" class="edge"><title>src/SiCard/index.js&#45;&gt;src/SiCard/BaseSiCard.js</title>
<path fill="none" stroke="#000000" stroke-width="2" stroke-opacity="0.200000" d="M104.743,-922.792C151.569,-920.48 245.11,-915.234 250,-910.017 268.163,-890.639 240.538,-452.029 258,-432.017 268.345,-420.161 284.189,-415.353 299.774,-413.925"/>
<polygon fill="#000000" fill-opacity="0.200000" stroke="#000000" stroke-width="2" stroke-opacity="0.200000" points="300.098,-417.414 309.917,-413.435 299.76,-410.422 300.098,-417.414"/>
</g>
<!-- src/SiCard/types/index.js -->
<g id="node27" class="node"><title>src/SiCard/types/index.js</title>
<g id="a_node27"><a xlink:href="src/SiCard/types/index.js" xlink:title="index.js">
<path fill="#ffffcc" stroke="black" d="M214,-461.017C214,-461.017 172,-461.017 172,-461.017 169,-461.017 166,-458.017 166,-455.017 166,-455.017 166,-449.017 166,-449.017 166,-446.017 169,-443.017 172,-443.017 172,-443.017 214,-443.017 214,-443.017 217,-443.017 220,-446.017 220,-449.017 220,-449.017 220,-455.017 220,-455.017 220,-458.017 217,-461.017 214,-461.017"/>
<text text-anchor="middle" x="193" y="-449.817" font-family="Helvetica,sans-Serif" font-size="9.00">index.js</text>
</a>
</g>
</g>
<!-- src/SiCard/index.js&#45;&gt;src/SiCard/types/index.js -->
<g id="edge11" class="edge"><title>src/SiCard/index.js&#45;&gt;src/SiCard/types/index.js</title>
<path fill="none" stroke="#000000" stroke-width="2" stroke-opacity="0.200000" d="M104.82,-921.324C111.797,-919.286 118.602,-915.83 123,-910.017 152.71,-870.746 105.451,-505.639 136,-467.017 141.005,-460.689 148.366,-456.854 156.117,-454.57"/>
<polygon fill="#000000" fill-opacity="0.200000" stroke="#000000" stroke-width="2" stroke-opacity="0.200000" points="156.959,-457.968 165.995,-452.436 155.481,-451.126 156.959,-457.968"/>
</g>
<!-- src/SiCard/types/FCard.js -->
<g id="node5" class="node"><title>src/SiCard/types/FCard.js</title>
<g id="a_node5"><a xlink:href="src/SiCard/types/FCard.js" xlink:title="FCard.js">
<path fill="#ffffcc" stroke="black" d="M214,-491.017C214,-491.017 172,-491.017 172,-491.017 169,-491.017 166,-488.017 166,-485.017 166,-485.017 166,-479.017 166,-479.017 166,-476.017 169,-473.017 172,-473.017 172,-473.017 214,-473.017 214,-473.017 217,-473.017 220,-476.017 220,-479.017 220,-479.017 220,-485.017 220,-485.017 220,-488.017 217,-491.017 214,-491.017"/>
<text text-anchor="middle" x="193" y="-479.817" font-family="Helvetica,sans-Serif" font-size="9.00">FCard.js</text>
</a>
</g>
</g>
<!-- src/SiCard/types/FCard.js&#45;&gt;src/SiCard/BaseSiCard.js -->
<g id="edge12" class="edge"><title>src/SiCard/types/FCard.js&#45;&gt;src/SiCard/BaseSiCard.js</title>
<path fill="none" stroke="#000000" stroke-width="2" stroke-opacity="0.200000" d="M220.084,-480.774C230.69,-478.95 242.248,-475.062 250,-467.017 261.072,-455.527 246.318,-442.886 258,-432.017 269.125,-421.666 284.536,-417.072 299.515,-415.387"/>
<polygon fill="#000000" fill-opacity="0.200000" stroke="#000000" stroke-width="2" stroke-opacity="0.200000" points="300.036,-418.859 309.759,-414.65 299.534,-411.877 300.036,-418.859"/>
</g>
<!-- src/SiCard/types/FCard.test.js -->
<g id="node6" class="node"><title>src/SiCard/types/FCard.test.js</title>
<g id="a_node6"><a xlink:href="src/SiCard/types/FCard.test.js" xlink:title="FCard.test.js">
<path fill="#ffffcc" stroke="black" d="M109.5,-521.017C109.5,-521.017 45.5,-521.017 45.5,-521.017 42.5,-521.017 39.5,-518.017 39.5,-515.017 39.5,-515.017 39.5,-509.017 39.5,-509.017 39.5,-506.017 42.5,-503.017 45.5,-503.017 45.5,-503.017 109.5,-503.017 109.5,-503.017 112.5,-503.017 115.5,-506.017 115.5,-509.017 115.5,-509.017 115.5,-515.017 115.5,-515.017 115.5,-518.017 112.5,-521.017 109.5,-521.017"/>
<text text-anchor="middle" x="77.5" y="-509.817" font-family="Helvetica,sans-Serif" font-size="9.00">FCard.test.js</text>
</a>
</g>
</g>
<!-- src/SiCard/types/FCard.test.js&#45;&gt;src/SiCard/BaseSiCard.js -->
<g id="edge13" class="edge"><title>src/SiCard/types/FCard.test.js&#45;&gt;src/SiCard/BaseSiCard.js</title>
<path fill="none" stroke="#000000" stroke-width="2" stroke-opacity="0.200000" d="M115.819,-503.511C118.547,-501.736 121.005,-499.597 123,-497.017 147.941,-464.767 106.168,-341.805 136,-314.017 154.537,-296.75 226.716,-304.035 250,-314.017 290.857,-331.533 322.832,-375.111 338.473,-399.943"/>
<polygon fill="#000000" fill-opacity="0.200000" stroke="#000000" stroke-width="2" stroke-opacity="0.200000" points="335.634,-402.01 343.821,-408.735 341.615,-398.373 335.634,-402.01"/>
</g>
<!-- src/SiCard/types/FCard.test.js&#45;&gt;src/SiCard/types/FCard.js -->
<g id="edge14" class="edge"><title>src/SiCard/types/FCard.test.js&#45;&gt;src/SiCard/types/FCard.js</title>
<path fill="none" stroke="#000000" stroke-width="2" stroke-opacity="0.200000" d="M112.554,-503.016C126.32,-499.377 142.22,-495.175 156.162,-491.489"/>
<polygon fill="#000000" fill-opacity="0.200000" stroke="#000000" stroke-width="2" stroke-opacity="0.200000" points="157.136,-494.852 165.91,-488.913 155.347,-488.085 157.136,-494.852"/>
</g>
<!-- src/SiCard/types/ModernSiCard.js -->
<g id="node7" class="node"><title>src/SiCard/types/ModernSiCard.js</title>
<g id="a_node7"><a xlink:href="src/SiCard/types/ModernSiCard.js" xlink:title="ModernSiCard.js">
<path fill="#ffffcc" stroke="black" d="M390,-626.017C390,-626.017 310,-626.017 310,-626.017 307,-626.017 304,-623.017 304,-620.017 304,-620.017 304,-614.017 304,-614.017 304,-611.017 307,-608.017 310,-608.017 310,-608.017 390,-608.017 390,-608.017 393,-608.017 396,-611.017 396,-614.017 396,-614.017 396,-620.017 396,-620.017 396,-623.017 393,-626.017 390,-626.017"/>
<text text-anchor="middle" x="350" y="-614.817" font-family="Helvetica,sans-Serif" font-size="9.00">ModernSiCard.js</text>
</a>
</g>
</g>
<!-- src/SiCard/types/ModernSiCard.js&#45;&gt;node_modules/lodash/lodash.js -->
<g id="edge19" class="edge"><title>src/SiCard/types/ModernSiCard.js&#45;&gt;node_modules/lodash/lodash.js</title>
<path fill="none" stroke="#000000" stroke-width="2" stroke-opacity="0.200000" d="M396.033,-621.871C412.857,-621.109 430.621,-616.749 442,-604.017 451.963,-592.869 447.516,-349.76 450,-335.017 457.855,-288.391 477.01,-235.987 487.795,-208.744"/>
<polygon fill="#000000" fill-opacity="0.200000" stroke="#000000" stroke-width="2" stroke-opacity="0.200000" points="491.11,-209.881 491.601,-199.297 484.617,-207.264 491.11,-209.881"/>
</g>
<!-- src/SiCard/types/ModernSiCard.js&#45;&gt;src/SiCard/BaseSiCard.js -->
<g id="edge18" class="edge"><title>src/SiCard/types/ModernSiCard.js&#45;&gt;src/SiCard/BaseSiCard.js</title>
<path fill="none" stroke="#000000" stroke-width="2" stroke-opacity="0.200000" d="M350,-607.756C350,-551.025 350,-494.294 350,-437.564"/>
<polygon fill="#000000" fill-opacity="0.200000" stroke="#000000" stroke-width="2" stroke-opacity="0.200000" points="353.5,-437.345 350,-427.345 346.5,-437.345 353.5,-437.345"/>
</g>
<!-- src/SiCard/types/ModernSiCard.js&#45;&gt;src/constants.ts -->
<g id="edge15" class="edge"><title>src/SiCard/types/ModernSiCard.js&#45;&gt;src/constants.ts</title>
<path fill="none" stroke="#000000" stroke-width="2" stroke-opacity="0.200000" d="M396.308,-624.782C413.172,-629.976 430.892,-638.626 442,-653.017 451.027,-664.712 447.606,-704.438 450,-719.017 462.202,-793.333 482.029,-880.736 490.925,-918.747"/>
<polygon fill="#000000" fill-opacity="0.200000" stroke="#000000" stroke-width="2" stroke-opacity="0.200000" points="487.615,-919.958 493.315,-928.889 494.428,-918.353 487.615,-919.958"/>
</g>
<!-- src/SiCard/types/ModernSiCard.js&#45;&gt;src/siProtocol.ts -->
<g id="edge16" class="edge"><title>src/SiCard/types/ModernSiCard.js&#45;&gt;src/siProtocol.ts</title>
<path fill="none" stroke="#000000" stroke-width="2" stroke-opacity="0.200000" d="M382.335,-626.086C400.575,-632.158 423.537,-641.206 442,-653.017 456.816,-662.495 471.103,-676.443 481.18,-687.358"/>
<polygon fill="#000000" fill-opacity="0.200000" stroke="#000000" stroke-width="2" stroke-opacity="0.200000" points="478.73,-689.868 488.005,-694.989 483.948,-685.202 478.73,-689.868"/>
</g>
<!-- src/SiCard/types/ModernSiCard.js&#45;&gt;src/storage/index.ts -->
<g id="edge17" class="edge"><title>src/SiCard/types/ModernSiCard.js&#45;&gt;src/storage/index.ts</title>
<path fill="none" stroke="#000000" stroke-width="2" stroke-opacity="0.200000" d="M396.448,-621.798C413.124,-620.969 430.673,-616.581 442,-604.017 457.487,-586.839 440.193,-416.963 450,-396.017 454.802,-385.761 463.483,-376.943 471.985,-370.14"/>
<polygon fill="#000000" fill-opacity="0.200000" stroke="#000000" stroke-width="2" stroke-opacity="0.200000" points="474.302,-372.781 480.277,-364.032 470.15,-367.145 474.302,-372.781"/>
</g>
<!-- src/SiCard/types/ModernSiCard.test.js -->
<g id="node8" class="node"><title>src/SiCard/types/ModernSiCard.test.js</title>
<g id="a_node8"><a xlink:href="src/SiCard/types/ModernSiCard.test.js" xlink:title="ModernSiCard.test.js">
<path fill="#ffffcc" stroke="black" d="M244,-881.017C244,-881.017 142,-881.017 142,-881.017 139,-881.017 136,-878.017 136,-875.017 136,-875.017 136,-869.017 136,-869.017 136,-866.017 139,-863.017 142,-863.017 142,-863.017 244,-863.017 244,-863.017 247,-863.017 250,-866.017 250,-869.017 250,-869.017 250,-875.017 250,-875.017 250,-878.017 247,-881.017 244,-881.017"/>
<text text-anchor="middle" x="193" y="-869.817" font-family="Helvetica,sans-Serif" font-size="9.00">ModernSiCard.test.js</text>
</a>
</g>
</g>
<!-- src/SiCard/types/ModernSiCard.test.js&#45;&gt;node_modules/lodash/lodash.js -->
<g id="edge26" class="edge"><title>src/SiCard/types/ModernSiCard.test.js&#45;&gt;node_modules/lodash/lodash.js</title>
<path fill="none" stroke="#000000" stroke-width="2" stroke-opacity="0.200000" d="M244.015,-862.806C246.245,-861.156 248.268,-859.24 250,-857.017 268.442,-833.35 238.157,-339.522 258,-317.017 312.621,-255.068 374.401,-338.467 442,-291.017 470.041,-271.334 484.594,-232.259 491.097,-208.903"/>
<polygon fill="#000000" fill-opacity="0.200000" stroke="#000000" stroke-width="2" stroke-opacity="0.200000" points="494.51,-209.684 493.603,-199.128 487.729,-207.946 494.51,-209.684"/>
</g>
<!-- src/SiCard/types/ModernSiCard.test.js&#45;&gt;src/SiCard/types/ModernSiCard.js -->
<g id="edge24" class="edge"><title>src/SiCard/types/ModernSiCard.test.js&#45;&gt;src/SiCard/types/ModernSiCard.js</title>
<path fill="none" stroke="#000000" stroke-width="2" stroke-opacity="0.200000" d="M243.951,-862.755C246.197,-861.118 248.241,-859.219 250,-857.017 264.16,-839.295 244.882,-671.523 258,-653.017 266.622,-640.854 280.025,-632.8 293.918,-627.466"/>
<polygon fill="#000000" fill-opacity="0.200000" stroke="#000000" stroke-width="2" stroke-opacity="0.200000" points="295.219,-630.721 303.562,-624.191 292.968,-624.093 295.219,-630.721"/>
</g>
<!-- src/SiCard/types/modernSiCardExamples.js -->
<g id="node29" class="node"><title>src/SiCard/types/modernSiCardExamples.js</title>
<g id="a_node29"><a xlink:href="src/SiCard/types/modernSiCardExamples.js" xlink:title="modernSiCardExamples.js">
<path fill="#ffffcc" stroke="black" d="M412.5,-677.017C412.5,-677.017 287.5,-677.017 287.5,-677.017 284.5,-677.017 281.5,-674.017 281.5,-671.017 281.5,-671.017 281.5,-665.017 281.5,-665.017 281.5,-662.017 284.5,-659.017 287.5,-659.017 287.5,-659.017 412.5,-659.017 412.5,-659.017 415.5,-659.017 418.5,-662.017 418.5,-665.017 418.5,-665.017 418.5,-671.017 418.5,-671.017 418.5,-674.017 415.5,-677.017 412.5,-677.017"/>
<text text-anchor="middle" x="350" y="-665.817" font-family="Helvetica,sans-Serif" font-size="9.00">modernSiCardExamples.js</text>
</a>
</g>
</g>
<!-- src/SiCard/types/ModernSiCard.test.js&#45;&gt;src/SiCard/types/modernSiCardExamples.js -->
<g id="edge25" class="edge"><title>src/SiCard/types/ModernSiCard.test.js&#45;&gt;src/SiCard/types/modernSiCardExamples.js</title>
<path fill="none" stroke="#000000" stroke-width="2" stroke-opacity="0.200000" d="M243.934,-862.742C246.184,-861.108 248.234,-859.213 250,-857.017 262.267,-841.762 244.841,-695.51 258,-681.017 261.889,-676.734 266.501,-673.403 271.553,-670.841"/>
<polygon fill="#000000" fill-opacity="0.200000" stroke="#000000" stroke-width="2" stroke-opacity="0.200000" points="273.089,-673.995 281.063,-667.019 270.479,-667.5 273.089,-673.995"/>
</g>
<!-- src/SiCard/types/ModernSiCard.test.js&#45;&gt;src/constants.ts -->
<g id="edge20" class="edge"><title>src/SiCard/types/ModernSiCard.test.js&#45;&gt;src/constants.ts</title>
<path fill="none" stroke="#000000" stroke-width="2" stroke-opacity="0.200000" d="M250.139,-876.742C312.14,-882.443 407.736,-892.8 442,-905.017 453.84,-909.238 465.857,-916.342 475.494,-922.88"/>
<polygon fill="#000000" fill-opacity="0.200000" stroke="#000000" stroke-width="2" stroke-opacity="0.200000" points="473.741,-925.927 483.921,-928.861 477.793,-920.219 473.741,-925.927"/>
</g>
<!-- src/simulation/SiCardSimulator/types/ModernSiCardSimulator.js -->
<g id="node36" class="node"><title>src/simulation/SiCardSimulator/types/ModernSiCardSimulator.js</title>
<g id="a_node36"><a xlink:href="src/simulation/SiCardSimulator/types/ModernSiCardSimulator.js" xlink:title="ModernSiCardSimulator.js">
<path fill="#ffffcc" stroke="black" d="M412,-1091.02C412,-1091.02 288,-1091.02 288,-1091.02 285,-1091.02 282,-1088.02 282,-1085.02 282,-1085.02 282,-1079.02 282,-1079.02 282,-1076.02 285,-1073.02 288,-1073.02 288,-1073.02 412,-1073.02 412,-1073.02 415,-1073.02 418,-1076.02 418,-1079.02 418,-1079.02 418,-1085.02 418,-1085.02 418,-1088.02 415,-1091.02 412,-1091.02"/>
<text text-anchor="middle" x="350" y="-1079.82" font-family="Helvetica,sans-Serif" font-size="9.00">ModernSiCardSimulator.js</text>
</a>
</g>
</g>
<!-- src/SiCard/types/ModernSiCard.test.js&#45;&gt;src/simulation/SiCardSimulator/types/ModernSiCardSimulator.js -->
<g id="edge21" class="edge"><title>src/SiCard/types/ModernSiCard.test.js&#45;&gt;src/simulation/SiCardSimulator/types/ModernSiCardSimulator.js</title>
<path fill="none" stroke="#000000" stroke-width="2" stroke-opacity="0.200000" d="M246.232,-881.25C247.589,-882.383 248.852,-883.635 250,-885.017 263.074,-900.759 244.259,-1053.85 258,-1069.02 262.119,-1073.56 267.052,-1077.04 272.463,-1079.66"/>
<polygon fill="#000000" fill-opacity="0.200000" stroke="#000000" stroke-width="2" stroke-opacity="0.200000" points="271.37,-1082.99 281.96,-1083.3 273.878,-1076.45 271.37,-1082.99"/>
</g>
<!-- src/SiCard/types/ModernSiCard.test.js&#45;&gt;src/testUtils.ts -->
<g id="edge22" class="edge"><title>src/SiCard/types/ModernSiCard.test.js&#45;&gt;src/testUtils.ts</title>
<path fill="none" stroke="#000000" stroke-width="2" stroke-opacity="0.200000" d="M245.035,-881.178C246.793,-882.322 248.459,-883.597 250,-885.017 258.579,-892.923 251.61,-900.256 258,-910.017 275.866,-937.305 305.473,-960.886 326.044,-975.239"/>
<polygon fill="#000000" fill-opacity="0.200000" stroke="#000000" stroke-width="2" stroke-opacity="0.200000" points="324.276,-978.269 334.516,-980.987 328.206,-972.476 324.276,-978.269"/>
</g>
<!-- src/SiCard/types/ModernSiCard.test.js&#45;&gt;src/utils/index.ts -->
<g id="edge23" class="edge"><title>src/SiCard/types/ModernSiCard.test.js&#45;&gt;src/utils/index.ts</title>
<path fill="none" stroke="#000000" stroke-width="2" stroke-opacity="0.200000" d="M244.008,-862.8C246.239,-861.152 248.265,-859.237 250,-857.017 265.601,-837.052 239.927,-418.775 258,-401.017 316.331,-343.701 360.985,-389.874 442,-401.017 447.674,-401.797 453.594,-403.023 459.341,-404.444"/>
<polygon fill="#000000" fill-opacity="0.200000" stroke="#000000" stroke-width="2" stroke-opacity="0.200000" points="458.84,-407.935 469.407,-407.162 460.665,-401.177 458.84,-407.935"/>
</g>
<!-- src/SiCard/types/PCard.js -->
<g id="node9" class="node"><title>src/SiCard/types/PCard.js</title>
<g id="a_node9"><a xlink:href="src/SiCard/types/PCard.js" xlink:title="PCard.js">
<path fill="#ffffcc" stroke="black" d="M214.5,-521.017C214.5,-521.017 171.5,-521.017 171.5,-521.017 168.5,-521.017 165.5,-518.017 165.5,-515.017 165.5,-515.017 165.5,-509.017 165.5,-509.017 165.5,-506.017 168.5,-503.017 171.5,-503.017 171.5,-503.017 214.5,-503.017 214.5,-503.017 217.5,-503.017 220.5,-506.017 220.5,-509.017 220.5,-509.017 220.5,-515.017 220.5,-515.017 220.5,-518.017 217.5,-521.017 214.5,-521.017"/>
<text text-anchor="middle" x="193" y="-509.817" font-family="Helvetica,sans-Serif" font-size="9.00">PCard.js</text>
</a>
</g>
</g>
<!-- src/SiCard/types/PCard.js&#45;&gt;src/SiCard/BaseSiCard.js -->
<g id="edge27" class="edge"><title>src/SiCard/types/PCard.js&#45;&gt;src/SiCard/BaseSiCard.js</title>
<path fill="none" stroke="#000000" stroke-width="2" stroke-opacity="0.200000" d="M220.778,-511.097C231.374,-509.316 242.735,-505.371 250,-497.017 269.1,-475.053 237.731,-452.907 258,-432.017 268.672,-421.018 284.114,-416.294 299.256,-414.687"/>
<polygon fill="#000000" fill-opacity="0.200000" stroke="#000000" stroke-width="2" stroke-opacity="0.200000" points="299.869,-418.156 309.629,-414.034 299.429,-411.17 299.869,-418.156"/>
</g>
<!-- src/SiCard/types/PCard.test.js -->
<g id="node10" class="node"><title>src/SiCard/types/PCard.test.js</title>
<g id="a_node10"><a xlink:href="src/SiCard/types/PCard.test.js" xlink:title="PCard.test.js">
<path fill="#ffffcc" stroke="black" d="M110,-551.017C110,-551.017 45,-551.017 45,-551.017 42,-551.017 39,-548.017 39,-545.017 39,-545.017 39,-539.017 39,-539.017 39,-536.017 42,-533.017 45,-533.017 45,-533.017 110,-533.017 110,-533.017 113,-533.017 116,-536.017 116,-539.017 116,-539.017 116,-545.017 116,-545.017 116,-548.017 113,-551.017 110,-551.017"/>
<text text-anchor="middle" x="77.5" y="-539.817" font-family="Helvetica,sans-Serif" font-size="9.00">PCard.test.js</text>
</a>
</g>
</g>
<!-- src/SiCard/types/PCard.test.js&#45;&gt;src/SiCard/BaseSiCard.js -->
<g id="edge28" class="edge"><title>src/SiCard/types/PCard.test.js&#45;&gt;src/SiCard/BaseSiCard.js</title>
<path fill="none" stroke="#000000" stroke-width="2" stroke-opacity="0.200000" d="M116.242,-533.253C118.803,-531.53 121.112,-529.473 123,-527.017 150.012,-491.884 103.658,-358.315 136,-328.017 154.488,-310.697 226.371,-318.882 250,-328.017 287.703,-342.593 319.894,-378.941 336.645,-400.725"/>
<polygon fill="#000000" fill-opacity="0.200000" stroke="#000000" stroke-width="2" stroke-opacity="0.200000" points="333.883,-402.876 342.663,-408.805 339.497,-398.694 333.883,-402.876"/>
</g>
<!-- src/SiCard/types/PCard.test.js&#45;&gt;src/SiCard/types/PCard.js -->
<g id="edge29" class="edge"><title>src/SiCard/types/PCard.test.js&#45;&gt;src/SiCard/types/PCard.js</title>
<path fill="none" stroke="#000000" stroke-width="2" stroke-opacity="0.200000" d="M112.554,-533.016C125.978,-529.468 141.432,-525.383 155.12,-521.765"/>
<polygon fill="#000000" fill-opacity="0.200000" stroke="#000000" stroke-width="2" stroke-opacity="0.200000" points="156.407,-525.045 165.181,-519.106 154.618,-518.277 156.407,-525.045"/>
</g>
<!-- src/SiCard/types/SIAC.js -->
<g id="node11" class="node"><title>src/SiCard/types/SIAC.js</title>
<g id="a_node11"><a xlink:href="src/SiCard/types/SIAC.js" xlink:title="SIAC.js">
<path fill="#ffffcc" stroke="black" d="M214,-611.017C214,-611.017 172,-611.017 172,-611.017 169,-611.017 166,-608.017 166,-605.017 166,-605.017 166,-599.017 166,-599.017 166,-596.017 169,-593.017 172,-593.017 172,-593.017 214,-593.017 214,-593.017 217,-593.017 220,-596.017 220,-599.017 220,-599.017 220,-605.017 220,-605.017 220,-608.017 217,-611.017 214,-611.017"/>
<text text-anchor="middle" x="193" y="-599.817" font-family="Helvetica,sans-Serif" font-size="9.00">SIAC.js</text>
</a>
</g>
</g>
<!-- src/SiCard/types/SIAC.js&#45;&gt;src/SiCard/BaseSiCard.js -->
<g id="edge30" class="edge"><title>src/SiCard/types/SIAC.js&#45;&gt;src/SiCard/BaseSiCard.js</title>
<path fill="none" stroke="#000000" stroke-width="2" stroke-opacity="0.200000" d="M220.202,-601.481C231.096,-599.817 242.846,-595.858 250,-587.017 271.696,-560.205 234.875,-457.606 258,-432.017 268.462,-420.44 284.177,-415.657 299.618,-414.169"/>
<polygon fill="#000000" fill-opacity="0.200000" stroke="#000000" stroke-width="2" stroke-opacity="0.200000" points="299.869,-417.66 309.667,-413.629 299.493,-410.671 299.869,-417.66"/>
</g>
<!-- src/SiCard/types/SIAC.js&#45;&gt;src/SiCard/types/ModernSiCard.js -->
<g id="edge31" class="edge"><title>src/SiCard/types/SIAC.js&#45;&gt;src/SiCard/types/ModernSiCard.js</title>
<path fill="none" stroke="#000000" stroke-width="2" stroke-opacity="0.200000" d="M220.294,-604.561C240.335,-606.501 268.644,-609.241 293.612,-611.657"/>
<polygon fill="#000000" fill-opacity="0.200000" stroke="#000000" stroke-width="2" stroke-opacity="0.200000" points="293.421,-615.155 303.712,-612.634 294.095,-608.187 293.421,-615.155"/>
</g>
<!-- src/SiCard/types/SIAC.test.js -->
<g id="node12" class="node"><title>src/SiCard/types/SIAC.test.js</title>
<g id="a_node12"><a xlink:href="src/SiCard/types/SIAC.test.js" xlink:title="SIAC.test.js">
<path fill="#ffffcc" stroke="black" d="M106,-611.017C106,-611.017 49,-611.017 49,-611.017 46,-611.017 43,-608.017 43,-605.017 43,-605.017 43,-599.017 43,-599.017 43,-596.017 46,-593.017 49,-593.017 49,-593.017 106,-593.017 106,-593.017 109,-593.017 112,-596.017 112,-599.017 112,-599.017 112,-605.017 112,-605.017 112,-608.017 109,-611.017 106,-611.017"/>
<text text-anchor="middle" x="77.5" y="-599.817" font-family="Helvetica,sans-Serif" font-size="9.00">SIAC.test.js</text>
</a>
</g>
</g>
<!-- src/SiCard/types/SIAC.test.js&#45;&gt;node_modules/lodash/lodash.js -->
<g id="edge35" class="edge"><title>src/SiCard/types/SIAC.test.js&#45;&gt;node_modules/lodash/lodash.js</title>
<path fill="none" stroke="#000000" stroke-width="2" stroke-opacity="0.200000" d="M112.138,-595.802C116.368,-593.669 120.189,-590.819 123,-587.017 138.627,-565.878 117.158,-132.348 136,-114.017 184.739,-66.5987 381.644,-82.6936 442,-114.017 465.094,-126.002 480.321,-153.042 488.429,-171.416"/>
<polygon fill="#000000" fill-opacity="0.200000" stroke="#000000" stroke-width="2" stroke-opacity="0.200000" points="485.256,-172.901 492.297,-180.818 491.729,-170.238 485.256,-172.901"/>
</g>
<!-- src/SiCard/types/SIAC.test.js&#45;&gt;src/SiCard/BaseSiCard.js -->
<g id="edge33" class="edge"><title>src/SiCard/types/SIAC.test.js&#45;&gt;src/SiCard/BaseSiCard.js</title>
<path fill="none" stroke="#000000" stroke-width="2" stroke-opacity="0.200000" d="M112.04,-595.729C116.284,-593.606 120.135,-590.779 123,-587.017 138.577,-566.566 117.318,-373.677 136,-356.017 154.41,-338.614 225.652,-349.022 250,-356.017 281.439,-365.049 312.562,-387.312 331.287,-402.548"/>
<polygon fill="#000000" fill-opacity="0.200000" stroke="#000000" stroke-width="2" stroke-opacity="0.200000" points="329.059,-405.248 338.974,-408.981 333.551,-399.879 329.059,-405.248"/>
</g>
<!-- src/SiCard/types/SIAC.test.js&#45;&gt;src/SiCard/types/SIAC.js -->
<g id="edge34" class="edge"><title>src/SiCard/types/SIAC.test.js&#45;&gt;src/SiCard/types/SIAC.js</title>
<path fill="none" stroke="#000000" stroke-width="2" stroke-opacity="0.200000" d="M112.246,-602.017C125.889,-602.017 141.667,-602.017 155.57,-602.017"/>
<polygon fill="#000000" fill-opacity="0.200000" stroke="#000000" stroke-width="2" stroke-opacity="0.200000" points="155.77,-605.517 165.77,-602.017 155.77,-598.517 155.77,-605.517"/>
</g>
<!-- src/SiCard/types/SIAC.test.js&#45;&gt;src/constants.ts -->
<g id="edge32" class="edge"><title>src/SiCard/types/SIAC.test.js&#45;&gt;src/constants.ts</title>
<path fill="none" stroke="#000000" stroke-width="2" stroke-opacity="0.200000" d="M112.104,-608.257C116.338,-610.387 120.17,-613.228 123,-617.017 146.09,-647.928 108.212,-937.25 136,-964.017 150.307,-977.798 372.764,-971.655 442,-958.017 450.14,-956.413 458.675,-953.721 466.476,-950.824"/>
<polygon fill="#000000" fill-opacity="0.200000" stroke="#000000" stroke-width="2" stroke-opacity="0.200000" points="467.865,-954.039 475.881,-947.11 465.294,-947.528 467.865,-954.039"/>
</g>
<!-- src/SiCard/types/SiCard10.js -->
<g id="node13" class="node"><title>src/SiCard/types/SiCard10.js</title>
<g id="a_node13"><a xlink:href="src/SiCard/types/SiCard10.js" xlink:title="SiCard10.js">
<path fill="#ffffcc" stroke="black" d="M221.5,-581.017C221.5,-581.017 164.5,-581.017 164.5,-581.017 161.5,-581.017 158.5,-578.017 158.5,-575.017 158.5,-575.017 158.5,-569.017 158.5,-569.017 158.5,-566.017 161.5,-563.017 164.5,-563.017 164.5,-563.017 221.5,-563.017 221.5,-563.017 224.5,-563.017 227.5,-566.017 227.5,-569.017 227.5,-569.017 227.5,-575.017 227.5,-575.017 227.5,-578.017 224.5,-581.017 221.5,-581.017"/>
<text text-anchor="middle" x="193" y="-569.817" font-family="Helvetica,sans-Serif" font-size="9.00">SiCard10.js</text>
</a>
</g>
</g>
<!-- src/SiCard/types/SiCard10.js&#45;&gt;src/SiCard/BaseSiCard.js -->
<g id="edge36" class="edge"><title>src/SiCard/types/SiCard10.js&#45;&gt;src/SiCard/BaseSiCard.js</title>
<path fill="none" stroke="#000000" stroke-width="2" stroke-opacity="0.200000" d="M227.737,-569.892C236.204,-567.692 244.45,-563.79 250,-557.017 267.642,-535.488 239.21,-452.553 258,-432.017 268.533,-420.505 284.265,-415.737 299.699,-414.243"/>
<polygon fill="#000000" fill-opacity="0.200000" stroke="#000000" stroke-width="2" stroke-opacity="0.200000" points="299.946,-417.735 309.741,-413.697 299.566,-410.745 299.946,-417.735"/>
</g>
<!-- src/SiCard/types/SiCard10.js&#45;&gt;src/SiCard/types/ModernSiCard.js -->
<g id="edge37" class="edge"><title>src/SiCard/types/SiCard10.js&#45;&gt;src/SiCard/types/ModernSiCard.js</title>
<path fill="none" stroke="#000000" stroke-width="2" stroke-opacity="0.200000" d="M227.668,-576.049C235.647,-578.282 243.668,-581.723 250,-587.017 256.406,-592.373 251.284,-599.054 258,-604.017 268.229,-611.576 280.908,-615.688 293.521,-617.768"/>
<polygon fill="#000000" fill-opacity="0.200000" stroke="#000000" stroke-width="2" stroke-opacity="0.200000" points="293.216,-621.257 303.573,-619.026 294.086,-614.311 293.216,-621.257"/>
</g>
<!-- src/SiCard/types/SiCard10.test.js -->
<g id="node14" class="node"><title>src/SiCard/types/SiCard10.test.js</title>
<g id="a_node14"><a xlink:href="src/SiCard/types/SiCard10.test.js" xlink:title="SiCard10.test.js">
<path fill="#ffffcc" stroke="black" d="M117,-581.017C117,-581.017 38,-581.017 38,-581.017 35,-581.017 32,-578.017 32,-575.017 32,-575.017 32,-569.017 32,-569.017 32,-566.017 35,-563.017 38,-563.017 38,-563.017 117,-563.017 117,-563.017 120,-563.017 123,-566.017 123,-569.017 123,-569.017 123,-575.017 123,-575.017 123,-578.017 120,-581.017 117,-581.017"/>
<text text-anchor="middle" x="77.5" y="-569.817" font-family="Helvetica,sans-Serif" font-size="9.00">SiCard10.test.js</text>
</a>
</g>
</g>
<!-- src/SiCard/types/SiCard10.test.js&#45;&gt;node_modules/lodash/lodash.js -->
<g id="edge41" class="edge"><title>src/SiCard/types/SiCard10.test.js&#45;&gt;node_modules/lodash/lodash.js</title>
<path fill="none" stroke="#000000" stroke-width="2" stroke-opacity="0.200000" d="M117.136,-562.769C119.357,-561.147 121.352,-559.246 123,-557.017 138.497,-536.058 117.315,-106.191 136,-88.0169 184.745,-40.6044 383.811,-52.8304 442,-88.0169 471.826,-106.052 485.838,-146.815 491.744,-170.994"/>
<polygon fill="#000000" fill-opacity="0.200000" stroke="#000000" stroke-width="2" stroke-opacity="0.200000" points="488.336,-171.789 493.915,-180.796 495.17,-170.275 488.336,-171.789"/>
</g>
<!-- src/SiCard/types/SiCard10.test.js&#45;&gt;src/SiCard/BaseSiCard.js -->
<g id="edge39" class="edge"><title>src/SiCard/types/SiCard10.test.js&#45;&gt;src/SiCard/BaseSiCard.js</title>
<path fill="none" stroke="#000000" stroke-width="2" stroke-opacity="0.200000" d="M116.656,-562.988C119.055,-561.32 121.217,-559.348 123,-557.017 152.083,-519 101.148,-374.825 136,-342.017 154.446,-324.653 226.012,-333.871 250,-342.017 284.494,-353.73 316.379,-382.836 334.205,-401.439"/>
<polygon fill="#000000" fill-opacity="0.200000" stroke="#000000" stroke-width="2" stroke-opacity="0.200000" points="331.786,-403.977 341.159,-408.917 336.912,-399.21 331.786,-403.977"/>
</g>
<!-- src/SiCard/types/SiCard10.test.js&#45;&gt;src/SiCard/types/SiCard10.js -->
<g id="edge40" class="edge"><title>src/SiCard/types/SiCard10.test.js&#45;&gt;src/SiCard/types/SiCard10.js</title>
<path fill="none" stroke="#000000" stroke-width="2" stroke-opacity="0.200000" d="M123.032,-572.017C131.329,-572.017 139.992,-572.017 148.264,-572.017"/>
<polygon fill="#000000" fill-opacity="0.200000" stroke="#000000" stroke-width="2" stroke-opacity="0.200000" points="148.478,-575.517 158.478,-572.017 148.478,-568.517 148.478,-575.517"/>
</g>
<!-- src/SiCard/types/SiCard10.test.js&#45;&gt;src/constants.ts -->
<g id="edge38" class="edge"><title>src/SiCard/types/SiCard10.test.js&#45;&gt;src/constants.ts</title>
<path fill="none" stroke="#000000" stroke-width="2" stroke-opacity="0.200000" d="M117.117,-581.279C119.342,-582.898 121.344,-584.794 123,-587.017 147.45,-619.822 106.563,-926.601 136,-955.017 141.633,-960.454 404.82,-953.387 442,-949.017 444.06,-948.775 446.159,-948.494 448.274,-948.182"/>
<polygon fill="#000000" fill-opacity="0.200000" stroke="#000000" stroke-width="2" stroke-opacity="0.200000" points="448.924,-951.622 458.217,-946.533 447.779,-944.716 448.924,-951.622"/>
</g>
<!-- src/SiCard/types/SiCard11.js -->
<g id="node15" class="node"><title>src/SiCard/types/SiCard11.js</title>
<g id="a_node15"><a xlink:href="src/SiCard/types/SiCard11.js" xlink:title="SiCard11.js">
<path fill="#ffffcc" stroke="black" d="M221.5,-641.017C221.5,-641.017 164.5,-641.017 164.5,-641.017 161.5,-641.017 158.5,-638.017 158.5,-635.017 158.5,-635.017 158.5,-629.017 158.5,-629.017 158.5,-626.017 161.5,-623.017 164.5,-623.017 164.5,-623.017 221.5,-623.017 221.5,-623.017 224.5,-623.017 227.5,-626.017 227.5,-629.017 227.5,-629.017 227.5,-635.017 227.5,-635.017 227.5,-638.017 224.5,-641.017 221.5,-641.017"/>
<text text-anchor="middle" x="193" y="-629.817" font-family="Helvetica,sans-Serif" font-size="9.00">SiCard11.js</text>
</a>
</g>
</g>
<!-- src/SiCard/types/SiCard11.js&#45;&gt;src/SiCard/BaseSiCard.js -->
<g id="edge42" class="edge"><title>src/SiCard/types/SiCard11.js&#45;&gt;src/SiCard/BaseSiCard.js</title>
<path fill="none" stroke="#000000" stroke-width="2" stroke-opacity="0.200000" d="M227.537,-630.041C236.108,-627.857 244.457,-623.925 250,-617.017 262.876,-600.969 244.269,-447.339 258,-432.017 268.413,-420.397 284.117,-415.603 299.562,-414.119"/>
<polygon fill="#000000" fill-opacity="0.200000" stroke="#000000" stroke-width="2" stroke-opacity="0.200000" points="299.816,-417.61 309.616,-413.583 299.444,-410.62 299.816,-417.61"/>
</g>
<!-- src/SiCard/types/SiCard11.js&#45;&gt;src/SiCard/types/ModernSiCard.js -->
<g id="edge43" class="edge"><title>src/SiCard/types/SiCard11.js&#45;&gt;src/SiCard/types/ModernSiCard.js</title>
<path fill="none" stroke="#000000" stroke-width="2" stroke-opacity="0.200000" d="M227.633,-628.762C247.013,-626.887 271.85,-624.483 294.001,-622.339"/>
<polygon fill="#000000" fill-opacity="0.200000" stroke="#000000" stroke-width="2" stroke-opacity="0.200000" points="294.345,-625.823 303.961,-621.375 293.67,-618.855 294.345,-625.823"/>
</g>
<!-- src/SiCard/types/SiCard11.test.js -->
<g id="node16" class="node"><title>src/SiCard/types/SiCard11.test.js</title>
<g id="a_node16"><a xlink:href="src/SiCard/types/SiCard11.test.js" xlink:title="SiCard11.test.js">
<path fill="#ffffcc" stroke="black" d="M117,-671.017C117,-671.017 38,-671.017 38,-671.017 35,-671.017 32,-668.017 32,-665.017 32,-665.017 32,-659.017 32,-659.017 32,-656.017 35,-653.017 38,-653.017 38,-653.017 117,-653.017 117,-653.017 120,-653.017 123,-656.017 123,-659.017 123,-659.017 123,-665.017 123,-665.017 123,-668.017 120,-671.017 117,-671.017"/>
<text text-anchor="middle" x="77.5" y="-659.817" font-family="Helvetica,sans-Serif" font-size="9.00">SiCard11.test.js</text>
</a>
</g>
</g>
<!-- src/SiCard/types/SiCard11.test.js&#45;&gt;node_modules/lodash/lodash.js -->
<g id="edge47" class="edge"><title>src/SiCard/types/SiCard11.test.js&#45;&gt;node_modules/lodash/lodash.js</title>
<path fill="none" stroke="#000000" stroke-width="2" stroke-opacity="0.200000" d="M117.141,-652.773C119.361,-651.15 121.354,-649.247 123,-647.017 139.728,-624.344 115.823,-159.683 136,-140.017 184.696,-92.5539 378.745,-115.06 442,-140.017 458.586,-146.561 473.056,-160.942 482.751,-172.608"/>
<polygon fill="#000000" fill-opacity="0.200000" stroke="#000000" stroke-width="2" stroke-opacity="0.200000" points="480.267,-175.113 489.189,-180.826 485.777,-170.796 480.267,-175.113"/>
</g>
<!-- src/SiCard/types/SiCard11.test.js&#45;&gt;src/SiCard/BaseSiCard.js -->
<g id="edge45" class="edge"><title>src/SiCard/types/SiCard11.test.js&#45;&gt;src/SiCard/BaseSiCard.js</title>
<path fill="none" stroke="#000000" stroke-width="2" stroke-opacity="0.200000" d="M116.685,-653.01C119.077,-651.337 121.23,-649.358 123,-647.017 140.649,-623.682 114.807,-404.188 136,-384.017 154.35,-366.551 225.012,-379.846 250,-384.017 274.117,-388.043 300.23,-397.229 319.579,-405.038"/>
<polygon fill="#000000" fill-opacity="0.200000" stroke="#000000" stroke-width="2" stroke-opacity="0.200000" points="318.457,-408.362 329.035,-408.962 321.14,-401.897 318.457,-408.362"/>
</g>
<!-- src/SiCard/types/SiCard11.test.js&#45;&gt;src/SiCard/types/SiCard11.js -->
<g id="edge46" class="edge"><title>src/SiCard/types/SiCard11.test.js&#45;&gt;src/SiCard/types/SiCard11.js</title>
<path fill="none" stroke="#000000" stroke-width="2" stroke-opacity="0.200000" d="M112.554,-653.016C123.879,-650.023 136.647,-646.648 148.582,-643.493"/>
<polygon fill="#000000" fill-opacity="0.200000" stroke="#000000" stroke-width="2" stroke-opacity="0.200000" points="149.588,-646.847 158.361,-640.908 147.799,-640.08 149.588,-646.847"/>
</g>
<!-- src/SiCard/types/SiCard11.test.js&#45;&gt;src/constants.ts -->
<g id="edge44" class="edge"><title>src/SiCard/types/SiCard11.test.js&#45;&gt;src/constants.ts</title>
<path fill="none" stroke="#000000" stroke-width="2" stroke-opacity="0.200000" d="M117.097,-671.294C119.327,-672.909 121.335,-674.801 123,-677.017 143.11,-703.779 114.484,-952.372 136,-978.017 171.694,-1020.56 202.795,-998.981 258,-1005.02 298.647,-1009.46 405.155,-1022.75 442,-1005.02 462.883,-994.968 478.153,-972.362 486.913,-956.188"/>
<polygon fill="#000000" fill-opacity="0.200000" stroke="#000000" stroke-width="2" stroke-opacity="0.200000" points="490.112,-957.62 491.519,-947.119 483.87,-954.451 490.112,-957.62"/>
</g>
<!-- src/SiCard/types/SiCard5.js -->
<g id="node17" class="node"><title>src/SiCard/types/SiCard5.js</title>
<g id="a_node17"><a xlink:href="src/SiCard/types/SiCard5.js" xlink:title="SiCard5.js">
<path fill="#ffffcc" stroke="black" d="M218.5,-821.017C218.5,-821.017 167.5,-821.017 167.5,-821.017 164.5,-821.017 161.5,-818.017 161.5,-815.017 161.5,-815.017 161.5,-809.017 161.5,-809.017 161.5,-806.017 164.5,-803.017 167.5,-803.017 167.5,-803.017 218.5,-803.017 218.5,-803.017 221.5,-803.017 224.5,-806.017 224.5,-809.017 224.5,-809.017 224.5,-815.017 224.5,-815.017 224.5,-818.017 221.5,-821.017 218.5,-821.017"/>
<text text-anchor="middle" x="193" y="-809.817" font-family="Helvetica,sans-Serif" font-size="9.00">SiCard5.js</text>
</a>
</g>
</g>
<!-- src/SiCard/types/SiCard5.js&#45;&gt;node_modules/lodash/lodash.js -->
<g id="edge52" class="edge"><title>src/SiCard/types/SiCard5.js&#45;&gt;node_modules/lodash/lodash.js</title>
<path fill="none" stroke="#000000" stroke-width="2" stroke-opacity="0.200000" d="M224.73,-810.816C234.304,-808.815 243.933,-804.794 250,-797.017 267.123,-775.069 239.857,-317.129 258,-296.017 312.052,-233.122 371.695,-309.001 442,-265.017 463.536,-251.544 478.943,-225.919 487.536,-208.408"/>
<polygon fill="#000000" fill-opacity="0.200000" stroke="#000000" stroke-width="2" stroke-opacity="0.200000" points="490.779,-209.733 491.803,-199.188 484.426,-206.793 490.779,-209.733"/>
</g>
<!-- src/SiCard/types/SiCard5.js&#45;&gt;src/SiCard/BaseSiCard.js -->
<g id="edge51" class="edge"><title>src/SiCard/types/SiCard5.js&#45;&gt;src/SiCard/BaseSiCard.js</title>
<path fill="none" stroke="#000000" stroke-width="2" stroke-opacity="0.200000" d="M224.704,-810.795C234.276,-808.792 243.91,-804.776 250,-797.017 262.524,-781.062 244.625,-447.265 258,-432.017 268.376,-420.188 284.227,-415.386 299.809,-413.956"/>
<polygon fill="#000000" fill-opacity="0.200000" stroke="#000000" stroke-width="2" stroke-opacity="0.200000" points="300.131,-417.444 309.949,-413.463 299.791,-410.453 300.131,-417.444"/>
</g>
<!-- src/SiCard/types/SiCard5.js&#45;&gt;src/constants.ts -->
<g id="edge48" class="edge"><title>src/SiCard/types/SiCard5.js&#45;&gt;src/constants.ts</title>
<path fill="none" stroke="#000000" stroke-width="2" stroke-opacity="0.200000" d="M224.538,-816.507C233.245,-818.736 242.417,-822.061 250,-827.017 254.764,-830.131 253.171,-834.005 258,-837.017 329.09,-881.355 369.75,-835.595 442,-878.017 459.601,-888.352 474.553,-906.46 484.137,-920.088"/>
<polygon fill="#000000" fill-opacity="0.200000" stroke="#000000" stroke-width="2" stroke-opacity="0.200000" points="481.406,-922.299 489.882,-928.656 487.22,-918.401 481.406,-922.299"/>
</g>
<!-- src/SiCard/types/SiCard5.js&#45;&gt;src/siProtocol.ts -->
<g id="edge49" class="edge"><title>src/SiCard/types/SiCard5.js&#45;&gt;src/siProtocol.ts</title>
<path fill="none" stroke="#000000" stroke-width="2" stroke-opacity="0.200000" d="M224.819,-804.052C272.376,-791.324 366.093,-764.495 442,-732.017 451.485,-727.959 461.583,-722.883 470.421,-718.172"/>
<polygon fill="#000000" fill-opacity="0.200000" stroke="#000000" stroke-width="2" stroke-opacity="0.200000" points="472.32,-721.124 479.429,-713.268 468.973,-714.976 472.32,-721.124"/>
</g>
<!-- src/SiCard/types/SiCard5.js&#45;&gt;src/storage/index.ts -->
<g id="edge50" class="edge"><title>src/SiCard/types/SiCard5.js&#45;&gt;src/storage/index.ts</title>
<path fill="none" stroke="#000000" stroke-width="2" stroke-opacity="0.200000" d="M224.717,-810.806C234.29,-808.804 243.922,-804.785 250,-797.017 264.519,-778.462 241.638,-389.969 258,-373.017 272.219,-358.285 421.63,-365.089 442,-363.017 447.606,-362.447 453.523,-361.704 459.297,-360.902"/>
<polygon fill="#000000" fill-opacity="0.200000" stroke="#000000" stroke-width="2" stroke-opacity="0.200000" points="460.052,-364.329 469.439,-359.417 459.037,-357.403 460.052,-364.329"/>
</g>
<!-- src/SiCard/types/SiCard5.test.js -->
<g id="node18" class="node"><title>src/SiCard/types/SiCard5.test.js</title>
<g id="a_node18"><a xlink:href="src/SiCard/types/SiCard5.test.js" xlink:title="SiCard5.test.js">
<path fill="#ffffcc" stroke="black" d="M114,-866.017C114,-866.017 41,-866.017 41,-866.017 38,-866.017 35,-863.017 35,-860.017 35,-860.017 35,-854.017 35,-854.017 35,-851.017 38,-848.017 41,-848.017 41,-848.017 114,-848.017 114,-848.017 117,-848.017 120,-851.017 120,-854.017 120,-854.017 120,-860.017 120,-860.017 120,-863.017 117,-866.017 114,-866.017"/>
<text text-anchor="middle" x="77.5" y="-854.817" font-family="Helvetica,sans-Serif" font-size="9.00">SiCard5.test.js</text>
</a>
</g>
</g>
<!-- src/SiCard/types/SiCard5.test.js&#45;&gt;src/SiCard/BaseSiCard.js -->
<g id="edge56" class="edge"><title>src/SiCard/types/SiCard5.test.js&#45;&gt;src/SiCard/BaseSiCard.js</title>
<path fill="none" stroke="#000000" stroke-width="2" stroke-opacity="0.200000" d="M88.1051,-847.91C98.8808,-836.993 115.793,-817.578 123,-797.017 136.239,-759.244 108.455,-466.058 136,-437.017 138.798,-434.067 237.578,-426.252 299.621,-421.615"/>
<polygon fill="#000000" fill-opacity="0.200000" stroke="#000000" stroke-width="2" stroke-opacity="0.200000" points="299.905,-425.104 309.618,-420.872 299.386,-418.123 299.905,-425.104"/>
</g>
<!-- src/SiCard/types/SiCard5.test.js&#45;&gt;src/SiCard/types/SiCard5.js -->
<g id="edge57" class="edge"><title>src/SiCard/types/SiCard5.test.js&#45;&gt;src/SiCard/types/SiCard5.js</title>
<path fill="none" stroke="#000000" stroke-width="2" stroke-opacity="0.200000" d="M93.6883,-847.919C105.039,-841.414 121.101,-832.818 136,-827.017 140.915,-825.103 146.165,-823.344 151.406,-821.757"/>
<polygon fill="#000000" fill-opacity="0.200000" stroke="#000000" stroke-width="2" stroke-opacity="0.200000" points="152.722,-825.022 161.384,-818.921 150.808,-818.288 152.722,-825.022"/>
</g>
<!-- src/SiCard/types/siCard5Examples.js -->
<g id="node30" class="node"><title>src/SiCard/types/siCard5Examples.js</title>
<g id="a_node30"><a xlink:href="src/SiCard/types/siCard5Examples.js" xlink:title="siCard5Examples.js">
<path fill="#ffffcc" stroke="black" d="M240.5,-851.017C240.5,-851.017 145.5,-851.017 145.5,-851.017 142.5,-851.017 139.5,-848.017 139.5,-845.017 139.5,-845.017 139.5,-839.017 139.5,-839.017 139.5,-836.017 142.5,-833.017 145.5,-833.017 145.5,-833.017 240.5,-833.017 240.5,-833.017 243.5,-833.017 246.5,-836.017 246.5,-839.017 246.5,-839.017 246.5,-845.017 246.5,-845.017 246.5,-848.017 243.5,-851.017 240.5,-851.017"/>
<text text-anchor="middle" x="193" y="-839.817" font-family="Helvetica,sans-Serif" font-size="9.00">siCard5Examples.js</text>
</a>
</g>
</g>
<!-- src/SiCard/types/SiCard5.test.js&#45;&gt;src/SiCard/types/siCard5Examples.js -->
<g id="edge58" class="edge"><title>src/SiCard/types/SiCard5.test.js&#45;&gt;src/SiCard/types/siCard5Examples.js</title>
<path fill="none" stroke="#000000" stroke-width="2" stroke-opacity="0.200000" d="M120.119,-851.517C123.025,-851.133 125.989,-850.741 128.975,-850.346"/>
<polygon fill="#000000" fill-opacity="0.200000" stroke="#000000" stroke-width="2" stroke-opacity="0.200000" points="129.717,-853.779 139.173,-848.998 128.8,-846.839 129.717,-853.779"/>
</g>
<!-- src/SiCard/types/SiCard5.test.js&#45;&gt;src/constants.ts -->
<g id="edge53" class="edge"><title>src/SiCard/types/SiCard5.test.js&#45;&gt;src/constants.ts</title>
<path fill="none" stroke="#000000" stroke-width="2" stroke-opacity="0.200000" d="M119.29,-866.286C120.643,-867.398 121.891,-868.637 123,-870.017 149.793,-903.347 104.756,-1032.82 136,-1062.02 157.792,-1082.38 428.575,-1039.29 442,-1030.02 467.618,-1012.32 482.692,-978.051 490.003,-956.701"/>
<polygon fill="#000000" fill-opacity="0.200000" stroke="#000000" stroke-width="2" stroke-opacity="0.200000" points="493.352,-957.718 493.057,-947.127 486.683,-955.591 493.352,-957.718"/>
</g>
<!-- src/simulation/SiCardSimulator/types/SiCard5Simulator.js -->
<g id="node37" class="node"><title>src/simulation/SiCardSimulator/types/SiCard5Simulator.js</title>
<g id="a_node37"><a xlink:href="src/simulation/SiCardSimulator/types/SiCard5Simulator.js" xlink:title="SiCard5Simulator.js">
<path fill="#ffffcc" stroke="black" d="M397.5,-1211.02C397.5,-1211.02 302.5,-1211.02 302.5,-1211.02 299.5,-1211.02 296.5,-1208.02 296.5,-1205.02 296.5,-1205.02 296.5,-1199.02 296.5,-1199.02 296.5,-1196.02 299.5,-1193.02 302.5,-1193.02 302.5,-1193.02 397.5,-1193.02 397.5,-1193.02 400.5,-1193.02 403.5,-1196.02 403.5,-1199.02 403.5,-1199.02 403.5,-1205.02 403.5,-1205.02 403.5,-1208.02 400.5,-1211.02 397.5,-1211.02"/>
<text text-anchor="middle" x="350" y="-1199.82" font-family="Helvetica,sans-Serif" font-size="9.00">SiCard5Simulator.js</text>
</a>
</g>
</g>
<!-- src/SiCard/types/SiCard5.test.js&#45;&gt;src/simulation/SiCardSimulator/types/SiCard5Simulator.js -->
<g id="edge54" class="edge"><title>src/SiCard/types/SiCard5.test.js&#45;&gt;src/simulation/SiCardSimulator/types/SiCard5Simulator.js</title>
<path fill="none" stroke="#000000" stroke-width="2" stroke-opacity="0.200000" d="M119.326,-866.258C120.669,-867.377 121.905,-868.625 123,-870.017 160.976,-918.266 98.996,-1097.02 136,-1146.02 170.206,-1191.31 236.359,-1202.91 285.91,-1204.65"/>
<polygon fill="#000000" fill-opacity="0.200000" stroke="#000000" stroke-width="2" stroke-opacity="0.200000" points="286.137,-1208.16 296.214,-1204.89 286.295,-1201.16 286.137,-1208.16"/>
</g>
<!-- src/SiCard/types/SiCard5.test.js&#45;&gt;src/testUtils.ts -->
<g id="edge55" class="edge"><title>src/SiCard/types/SiCard5.test.js&#45;&gt;src/testUtils.ts</title>
<path fill="none" stroke="#000000" stroke-width="2" stroke-opacity="0.200000" d="M118.867,-866.028C120.378,-867.204 121.769,-868.528 123,-870.017 142.347,-893.414 113.534,-985.596 136,-1006.02 187.131,-1052.49 276.669,-1022.84 321.619,-1003.25"/>
<polygon fill="#000000" fill-opacity="0.200000" stroke="#000000" stroke-width="2" stroke-opacity="0.200000" points="323.078,-1006.44 330.761,-999.14 320.205,-1000.05 323.078,-1006.44"/>
</g>
<!-- src/SiCard/types/SiCard6.js -->
<g id="node19" class="node"><title>src/SiCard/types/SiCard6.js</title>
<g id="a_node19"><a xlink:href="src/SiCard/types/SiCard6.js" xlink:title="SiCard6.js">
<path fill="#ffffcc" stroke="black" d="M218.5,-761.017C218.5,-761.017 167.5,-761.017 167.5,-761.017 164.5,-761.017 161.5,-758.017 161.5,-755.017 161.5,-755.017 161.5,-749.017 161.5,-749.017 161.5,-746.017 164.5,-743.017 167.5,-743.017 167.5,-743.017 218.5,-743.017 218.5,-743.017 221.5,-743.017 224.5,-746.017 224.5,-749.017 224.5,-749.017 224.5,-755.017 224.5,-755.017 224.5,-758.017 221.5,-761.017 218.5,-761.017"/>
<text text-anchor="middle" x="193" y="-749.817" font-family="Helvetica,sans-Serif" font-size="9.00">SiCard6.js</text>
</a>
</g>
</g>
<!-- src/SiCard/types/SiCard6.js&#45;&gt;node_modules/lodash/lodash.js -->
<g id="edge63" class="edge"><title>src/SiCard/types/SiCard6.js&#45;&gt;node_modules/lodash/lodash.js</title>
<path fill="none" stroke="#000000" stroke-width="2" stroke-opacity="0.200000" d="M224.725,-750.812C234.299,-748.81 243.928,-744.79 250,-737.017 265.973,-716.567 241.076,-289.686 258,-270.017 312.089,-207.153 367.478,-275.403 442,-239.017 457.513,-231.442 471.751,-217.933 481.632,-207.014"/>
<polygon fill="#000000" fill-opacity="0.200000" stroke="#000000" stroke-width="2" stroke-opacity="0.200000" points="484.398,-209.166 488.288,-199.312 479.101,-204.59 484.398,-209.166"/>
</g>
<!-- src/SiCard/types/SiCard6.js&#45;&gt;src/SiCard/BaseSiCard.js -->
<g id="edge62" class="edge"><title>src/SiCard/types/SiCard6.js&#45;&gt;src/SiCard/BaseSiCard.js</title>
<path fill="none" stroke="#000000" stroke-width="2" stroke-opacity="0.200000" d="M224.685,-750.78C234.255,-748.776 243.893,-744.763 250,-737.017 270.989,-710.396 235.591,-457.455 258,-432.017 268.401,-420.21 284.258,-415.413 299.838,-413.981"/>
<polygon fill="#000000" fill-opacity="0.200000" stroke="#000000" stroke-width="2" stroke-opacity="0.200000" points="300.158,-417.47 309.975,-413.486 299.816,-410.478 300.158,-417.47"/>
</g>
<!-- src/SiCard/types/SiCard6.js&#45;&gt;src/constants.ts -->
<g id="edge59" class="edge"><title>src/SiCard/types/SiCard6.js&#45;&gt;src/constants.ts</title>
<path fill="none" stroke="#000000" stroke-width="2" stroke-opacity="0.200000" d="M224.744,-755.244C275.589,-762.054 377.929,-782.176 442,-838.017 467.257,-860.029 482.574,-896.959 490.007,-919.25"/>
<polygon fill="#000000" fill-opacity="0.200000" stroke="#000000" stroke-width="2" stroke-opacity="0.200000" points="486.698,-920.395 493.032,-928.888 493.377,-918.299 486.698,-920.395"/>
</g>
<!-- src/SiCard/types/SiCard6.js&#45;&gt;src/siProtocol.ts -->
<g id="edge60" class="edge"><title>src/SiCard/types/SiCard6.js&#45;&gt;src/siProtocol.ts</title>
<path fill="none" stroke="#000000" stroke-width="2" stroke-opacity="0.200000" d="M224.569,-747.15C277.465,-738.729 386.381,-721.389 448.807,-711.451"/>
<polygon fill="#000000" fill-opacity="0.200000" stroke="#000000" stroke-width="2" stroke-opacity="0.200000" points="449.458,-714.891 458.783,-709.862 448.357,-707.978 449.458,-714.891"/>
</g>
<!-- src/SiCard/types/SiCard6.js&#45;&gt;src/storage/index.ts -->
<g id="edge61" class="edge"><title>src/SiCard/types/SiCard6.js&#45;&gt;src/storage/index.ts</title>
<path fill="none" stroke="#000000" stroke-width="2" stroke-opacity="0.200000" d="M224.706,-750.797C234.278,-748.794 243.911,-744.777 250,-737.017 262.794,-720.71 243.465,-378.793 258,-364.017 271.745,-350.044 395.922,-351.855 459.03,-353.717"/>
<polygon fill="#000000" fill-opacity="0.200000" stroke="#000000" stroke-width="2" stroke-opacity="0.200000" points="459.232,-357.225 469.336,-354.038 459.45,-350.228 459.232,-357.225"/>
</g>
<!-- src/SiCard/types/SiCard6.test.js -->
<g id="node20" class="node"><title>src/SiCard/types/SiCard6.test.js</title>
<g id="a_node20"><a xlink:href="src/SiCard/types/SiCard6.test.js" xlink:title="SiCard6.test.js">
<path fill="#ffffcc" stroke="black" d="M114,-791.017C114,-791.017 41,-791.017 41,-791.017 38,-791.017 35,-788.017 35,-785.017 35,-785.017 35,-779.017 35,-779.017 35,-776.017 38,-773.017 41,-773.017 41,-773.017 114,-773.017 114,-773.017 117,-773.017 120,-776.017 120,-779.017 120,-779.017 120,-785.017 120,-785.017 120,-788.017 117,-791.017 114,-791.017"/>
<text text-anchor="middle" x="77.5" y="-779.817" font-family="Helvetica,sans-Serif" font-size="9.00">SiCard6.test.js</text>
</a>
</g>
</g>
<!-- src/SiCard/types/SiCard6.test.js&#45;&gt;node_modules/lodash/lodash.js -->
<g id="edge70" class="edge"><title>src/SiCard/types/SiCard6.test.js&#45;&gt;node_modules/lodash/lodash.js</title>
<path fill="none" stroke="#000000" stroke-width="2" stroke-opacity="0.200000" d="M92.1674,-772.732C102.738,-764.675 116.613,-751.971 123,-737.017 143.65,-688.667 109.984,-309.705 136,-264.017 198.088,-154.981 377.354,-169.9 456.804,-182.597"/>
<polygon fill="#000000" fill-opacity="0.200000" stroke="#000000" stroke-width="2" stroke-opacity="0.200000" points="456.442,-186.085 466.883,-184.282 457.597,-179.18 456.442,-186.085"/>
</g>
<!-- src/SiCard/types/SiCard6.test.js&#45;&gt;src/SiCard/BaseSiCard.js -->
<g id="edge67" class="edge"><title>src/SiCard/types/SiCard6.test.js&#45;&gt;src/SiCard/BaseSiCard.js</title>
<path fill="none" stroke="#000000" stroke-width="2" stroke-opacity="0.200000" d="M92.1104,-772.708C102.648,-764.636 116.506,-751.925 123,-737.017 136.811,-705.309 111.492,-450.421 136,-426.017 147.317,-414.748 240.233,-415.039 299.549,-416.424"/>
<polygon fill="#000000" fill-opacity="0.200000" stroke="#000000" stroke-width="2" stroke-opacity="0.200000" points="299.76,-419.931 309.845,-416.683 299.936,-412.933 299.76,-419.931"/>
</g>
<!-- src/SiCard/types/SiCard6.test.js&#45;&gt;src/SiCard/types/SiCard6.js -->
<g id="edge68" class="edge"><title>src/SiCard/types/SiCard6.test.js&#45;&gt;src/SiCard/types/SiCard6.js</title>
<path fill="none" stroke="#000000" stroke-width="2" stroke-opacity="0.200000" d="M112.554,-773.016C124.816,-769.775 138.772,-766.086 151.528,-762.714"/>
<polygon fill="#000000" fill-opacity="0.200000" stroke="#000000" stroke-width="2" stroke-opacity="0.200000" points="152.673,-766.032 161.446,-760.093 150.884,-759.264 152.673,-766.032"/>
</g>
<!-- src/SiCard/types/siCard6Examples.js -->
<g id="node31" class="node"><title>src/SiCard/types/siCard6Examples.js</title>
<g id="a_node31"><a xlink:href="src/SiCard/types/siCard6Examples.js" xlink:title="siCard6Examples.js">
<path fill="#ffffcc" stroke="black" d="M240.5,-791.017C240.5,-791.017 145.5,-791.017 145.5,-791.017 142.5,-791.017 139.5,-788.017 139.5,-785.017 139.5,-785.017 139.5,-779.017 139.5,-779.017 139.5,-776.017 142.5,-773.017 145.5,-773.017 145.5,-773.017 240.5,-773.017 240.5,-773.017 243.5,-773.017 246.5,-776.017 246.5,-779.017 246.5,-779.017 246.5,-785.017 246.5,-785.017 246.5,-788.017 243.5,-791.017 240.5,-791.017"/>
<text text-anchor="middle" x="193" y="-779.817" font-family="Helvetica,sans-Serif" font-size="9.00">siCard6Examples.js</text>
</a>
</g>
</g>
<!-- src/SiCard/types/SiCard6.test.js&#45;&gt;src/SiCard/types/siCard6Examples.js -->
<g id="edge69" class="edge"><title>src/SiCard/types/SiCard6.test.js&#45;&gt;src/SiCard/types/siCard6Examples.js</title>
<path fill="none" stroke="#000000" stroke-width="2" stroke-opacity="0.200000" d="M120.119,-782.017C123.025,-782.017 125.989,-782.017 128.975,-782.017"/>
<polygon fill="#000000" fill-opacity="0.200000" stroke="#000000" stroke-width="2" stroke-opacity="0.200000" points="129.173,-785.517 139.173,-782.017 129.172,-778.517 129.173,-785.517"/>
</g>
<!-- src/SiCard/types/SiCard6.test.js&#45;&gt;src/constants.ts -->
<g id="edge64" class="edge"><title>src/SiCard/types/SiCard6.test.js&#45;&gt;src/constants.ts</title>
<path fill="none" stroke="#000000" stroke-width="2" stroke-opacity="0.200000" d="M87.9224,-791.19C98.5265,-802.17 115.278,-821.643 123,-842.017 134.858,-873.303 113.65,-967.118 136,-992.017 158.781,-1017.4 411.825,-1031.91 442,-1016.02 465.659,-1003.56 480.867,-975.386 488.802,-956.535"/>
<polygon fill="#000000" fill-opacity="0.200000" stroke="#000000" stroke-width="2" stroke-opacity="0.200000" points="492.078,-957.768 492.469,-947.18 485.561,-955.213 492.078,-957.768"/>
</g>
<!-- src/simulation/SiCardSimulator/types/SiCard6Simulator.js -->
<g id="node38" class="node"><title>src/simulation/SiCardSimulator/types/SiCard6Simulator.js</title>
<g id="a_node38"><a xlink:href="src/simulation/SiCardSimulator/types/SiCard6Simulator.js" xlink:title="SiCard6Simulator.js">
<path fill="#ffffcc" stroke="black" d="M397.5,-1181.02C397.5,-1181.02 302.5,-1181.02 302.5,-1181.02 299.5,-1181.02 296.5,-1178.02 296.5,-1175.02 296.5,-1175.02 296.5,-1169.02 296.5,-1169.02 296.5,-1166.02 299.5,-1163.02 302.5,-1163.02 302.5,-1163.02 397.5,-1163.02 397.5,-1163.02 400.5,-1163.02 403.5,-1166.02 403.5,-1169.02 403.5,-1169.02 403.5,-1175.02 403.5,-1175.02 403.5,-1178.02 400.5,-1181.02 397.5,-1181.02"/>
<text text-anchor="middle" x="350" y="-1169.82" font-family="Helvetica,sans-Serif" font-size="9.00">SiCard6Simulator.js</text>
</a>
</g>
</g>
<!-- src/SiCard/types/SiCard6.test.js&#45;&gt;src/simulation/SiCardSimulator/types/SiCard6Simulator.js -->
<g id="edge65" class="edge"><title>src/SiCard/types/SiCard6.test.js&#45;&gt;src/simulation/SiCardSimulator/types/SiCard6Simulator.js</title>
<path fill="none" stroke="#000000" stroke-width="2" stroke-opacity="0.200000" d="M88.0264,-791.151C98.7283,-802.095 115.571,-821.535 123,-842.017 140.076,-889.099 111.104,-1023.56 136,-1067.02 166.27,-1119.85 208.449,-1098.5 250,-1143.02 254.89,-1148.26 252.116,-1152.93 258,-1157.02 266.381,-1162.84 276.231,-1166.7 286.299,-1169.2"/>
<polygon fill="#000000" fill-opacity="0.200000" stroke="#000000" stroke-width="2" stroke-opacity="0.200000" points="285.893,-1172.69 296.393,-1171.28 287.303,-1165.84 285.893,-1172.69"/>
</g>
<!-- src/SiCard/types/SiCard6.test.js&#45;&gt;src/testUtils.ts -->
<g id="edge66" class="edge"><title>src/SiCard/types/SiCard6.test.js&#45;&gt;src/testUtils.ts</title>
<path fill="none" stroke="#000000" stroke-width="2" stroke-opacity="0.200000" d="M87.8905,-791.202C98.4646,-802.194 115.188,-821.678 123,-842.017 133.886,-870.358 114.118,-956.972 136,-978.017 159.386,-1000.51 250.533,-997.834 305.734,-993.906"/>
<polygon fill="#000000" fill-opacity="0.200000" stroke="#000000" stroke-width="2" stroke-opacity="0.200000" points="306.223,-997.379 315.932,-993.137 305.697,-990.399 306.223,-997.379"/>
</g>
<!-- src/SiCard/types/SiCard8.js -->
<g id="node21" class="node"><title>src/SiCard/types/SiCard8.js</title>
<g id="a_node21"><a xlink:href="src/SiCard/types/SiCard8.js" xlink:title="SiCard8.js">
<path fill="#ffffcc" stroke="black" d="M218.5,-551.017C218.5,-551.017 167.5,-551.017 167.5,-551.017 164.5,-551.017 161.5,-548.017 161.5,-545.017 161.5,-545.017 161.5,-539.017 161.5,-539.017 161.5,-536.017 164.5,-533.017 167.5,-533.017 167.5,-533.017 218.5,-533.017 218.5,-533.017 221.5,-533.017 224.5,-536.017 224.5,-539.017 224.5,-539.017 224.5,-545.017 224.5,-545.017 224.5,-548.017 221.5,-551.017 218.5,-551.017"/>
<text text-anchor="middle" x="193" y="-539.817" font-family="Helvetica,sans-Serif" font-size="9.00">SiCard8.js</text>
</a>
</g>
</g>
<!-- src/SiCard/types/SiCard8.js&#45;&gt;node_modules/lodash/lodash.js -->
<g id="edge75" class="edge"><title>src/SiCard/types/SiCard8.js&#45;&gt;node_modules/lodash/lodash.js</title>
<path fill="none" stroke="#000000" stroke-width="2" stroke-opacity="0.200000" d="M224.686,-540.781C234.257,-538.777 243.894,-534.764 250,-527.017 260.63,-513.53 246.425,-230.702 258,-218.017 283.872,-189.663 396.265,-187.661 456.702,-188.735"/>
<polygon fill="#000000" fill-opacity="0.200000" stroke="#000000" stroke-width="2" stroke-opacity="0.200000" points="456.923,-192.241 466.996,-188.957 457.074,-185.242 456.923,-192.241"/>
</g>
<!-- src/SiCard/types/SiCard8.js&#45;&gt;src/SiCard/BaseSiCard.js -->
<g id="edge73" class="edge"><title>src/SiCard/types/SiCard8.js&#45;&gt;src/SiCard/BaseSiCard.js</title>
<path fill="none" stroke="#000000" stroke-width="2" stroke-opacity="0.200000" d="M224.724,-540.512C234.179,-538.473 243.736,-534.506 250,-527.017 263.592,-510.766 243.542,-447.503 258,-432.017 268.648,-420.611 284.408,-415.868 299.832,-414.365"/>
<polygon fill="#000000" fill-opacity="0.200000" stroke="#000000" stroke-width="2" stroke-opacity="0.200000" points="300.072,-417.858 309.862,-413.808 299.683,-410.868 300.072,-417.858"/>
</g>
<!-- src/SiCard/types/SiCard8.js&#45;&gt;src/SiCard/types/ModernSiCard.js -->
<g id="edge74" class="edge"><title>src/SiCard/types/SiCard8.js&#45;&gt;src/SiCard/types/ModernSiCard.js</title>
<path fill="none" stroke="#000000" stroke-width="2" stroke-opacity="0.200000" d="M224.656,-543.9C233.991,-545.979 243.493,-549.874 250,-557.017 264.27,-572.681 242.818,-589.235 258,-604.017 267.567,-613.332 280.602,-617.947 293.815,-619.939"/>
<polygon fill="#000000" fill-opacity="0.200000" stroke="#000000" stroke-width="2" stroke-opacity="0.200000" points="293.592,-623.434 303.9,-620.985 294.314,-616.472 293.592,-623.434"/>
</g>
<!-- src/SiCard/types/SiCard8.js&#45;&gt;src/siProtocol.ts -->
<g id="edge71" class="edge"><title>src/SiCard/types/SiCard8.js&#45;&gt;src/siProtocol.ts</title>
<path fill="none" stroke="#000000" stroke-width="2" stroke-opacity="0.200000" d="M224.521,-543.385C234.079,-545.399 243.75,-549.386 250,-557.017 267.778,-578.722 238.178,-663.161 258,-683.017 272.475,-697.516 421.65,-692.648 442,-695.017 444.204,-695.274 446.456,-695.559 448.728,-695.866"/>
<polygon fill="#000000" fill-opacity="0.200000" stroke="#000000" stroke-width="2" stroke-opacity="0.200000" points="448.331,-699.345 458.732,-697.327 449.343,-692.419 448.331,-699.345"/>
</g>
<!-- src/SiCard/types/SiCard8.js&#45;&gt;src/storage/index.ts -->
<g id="edge72" class="edge"><title>src/SiCard/types/SiCard8.js&#45;&gt;src/storage/index.ts</title>
<path fill="none" stroke="#000000" stroke-width="2" stroke-opacity="0.200000" d="M224.616,-540.725C234.181,-538.717 243.833,-534.715 250,-527.017 263.281,-510.44 242.669,-350.719 258,-336.017 315.118,-281.241 419.511,-318.95 468.616,-341.501"/>
<polygon fill="#000000" fill-opacity="0.200000" stroke="#000000" stroke-width="2" stroke-opacity="0.200000" points="467.408,-344.801 477.945,-345.911 470.4,-338.473 467.408,-344.801"/>
</g>
<!-- src/SiCard/types/SiCard8.test.js -->
<g id="node22" class="node"><title>src/SiCard/types/SiCard8.test.js</title>
<g id="a_node22"><a xlink:href="src/SiCard/types/SiCard8.test.js" xlink:title="SiCard8.test.js">
<path fill="#ffffcc" stroke="black" d="M114,-701.017C114,-701.017 41,-701.017 41,-701.017 38,-701.017 35,-698.017 35,-695.017 35,-695.017 35,-689.017 35,-689.017 35,-686.017 38,-683.017 41,-683.017 41,-683.017 114,-683.017 114,-683.017 117,-683.017 120,-686.017 120,-689.017 120,-689.017 120,-695.017 120,-695.017 120,-698.017 117,-701.017 114,-701.017"/>
<text text-anchor="middle" x="77.5" y="-689.817" font-family="Helvetica,sans-Serif" font-size="9.00">SiCard8.test.js</text>
</a>
</g>
</g>
<!-- src/SiCard/types/SiCard8.test.js&#45;&gt;node_modules/lodash/lodash.js -->
<g id="edge80" class="edge"><title>src/SiCard/types/SiCard8.test.js&#45;&gt;node_modules/lodash/lodash.js</title>
<path fill="none" stroke="#000000" stroke-width="2" stroke-opacity="0.200000" d="M117.141,-682.773C119.361,-681.15 121.354,-679.248 123,-677.017 139.858,-654.164 115.666,-185.84 136,-166.017 184.691,-118.549 375.506,-151.785 442,-166.017 451.796,-168.113 461.966,-172.144 470.775,-176.313"/>
<polygon fill="#000000" fill-opacity="0.200000" stroke="#000000" stroke-width="2" stroke-opacity="0.200000" points="469.211,-179.444 479.718,-180.805 472.353,-173.189 469.211,-179.444"/>
</g>
<!-- src/SiCard/types/SiCard8.test.js&#45;&gt;src/SiCard/BaseSiCard.js -->
<g id="edge77" class="edge"><title>src/SiCard/types/SiCard8.test.js&#45;&gt;src/SiCard/BaseSiCard.js</title>
<path fill="none" stroke="#000000" stroke-width="2" stroke-opacity="0.200000" d="M116.692,-683.015C119.083,-681.341 121.233,-679.36 123,-677.017 141.685,-652.239 113.551,-419.444 136,-398.017 159.523,-375.565 250.517,-393.184 305.679,-406.561"/>
<polygon fill="#000000" fill-opacity="0.200000" stroke="#000000" stroke-width="2" stroke-opacity="0.200000" points="304.989,-409.996 315.537,-408.999 306.67,-403.201 304.989,-409.996"/>
</g>
<!-- src/SiCard/types/SiCard8.test.js&#45;&gt;src/SiCard/types/SiCard8.js -->
<g id="edge78" class="edge"><title>src/SiCard/types/SiCard8.test.js&#45;&gt;src/SiCard/types/SiCard8.js</title>
<path fill="none" stroke="#000000" stroke-width="2" stroke-opacity="0.200000" d="M116.535,-682.893C118.961,-681.246 121.162,-679.305 123,-677.017 156.598,-635.196 101.093,-597.752 136,-557.017 140.169,-552.152 145.727,-548.779 151.726,-546.457"/>
<polygon fill="#000000" fill-opacity="0.200000" stroke="#000000" stroke-width="2" stroke-opacity="0.200000" points="152.778,-549.795 161.379,-543.609 150.797,-543.081 152.778,-549.795"/>
</g>
<!-- src/SiCard/types/siCard8Examples.js -->
<g id="node32" class="node"><title>src/SiCard/types/siCard8Examples.js</title>
<g id="a_node32"><a xlink:href="src/SiCard/types/siCard8Examples.js" xlink:title="siCard8Examples.js">
<path fill="#ffffcc" stroke="black" d="M240.5,-671.017C240.5,-671.017 145.5,-671.017 145.5,-671.017 142.5,-671.017 139.5,-668.017 139.5,-665.017 139.5,-665.017 139.5,-659.017 139.5,-659.017 139.5,-656.017 142.5,-653.017 145.5,-653.017 145.5,-653.017 240.5,-653.017 240.5,-653.017 243.5,-653.017 246.5,-656.017 246.5,-659.017 246.5,-659.017 246.5,-665.017 246.5,-665.017 246.5,-668.017 243.5,-671.017 240.5,-671.017"/>
<text text-anchor="middle" x="193" y="-659.817" font-family="Helvetica,sans-Serif" font-size="9.00">siCard8Examples.js</text>
</a>
</g>
</g>
<!-- src/SiCard/types/SiCard8.test.js&#45;&gt;src/SiCard/types/siCard8Examples.js -->
<g id="edge79" class="edge"><title>src/SiCard/types/SiCard8.test.js&#45;&gt;src/SiCard/types/siCard8Examples.js</title>
<path fill="none" stroke="#000000" stroke-width="2" stroke-opacity="0.200000" d="M112.554,-683.016C123.563,-680.106 135.938,-676.835 147.584,-673.757"/>
<polygon fill="#000000" fill-opacity="0.200000" stroke="#000000" stroke-width="2" stroke-opacity="0.200000" points="148.804,-677.054 157.578,-671.115 147.016,-670.287 148.804,-677.054"/>
</g>
<!-- src/simulation/SiCardSimulator/types/SiCard8Simulator.js -->
<g id="node39" class="node"><title>src/simulation/SiCardSimulator/types/SiCard8Simulator.js</title>
<g id="a_node39"><a xlink:href="src/simulation/SiCardSimulator/types/SiCard8Simulator.js" xlink:title="SiCard8Simulator.js">
<path fill="#ffffcc" stroke="black" d="M397.5,-1121.02C397.5,-1121.02 302.5,-1121.02 302.5,-1121.02 299.5,-1121.02 296.5,-1118.02 296.5,-1115.02 296.5,-1115.02 296.5,-1109.02 296.5,-1109.02 296.5,-1106.02 299.5,-1103.02 302.5,-1103.02 302.5,-1103.02 397.5,-1103.02 397.5,-1103.02 400.5,-1103.02 403.5,-1106.02 403.5,-1109.02 403.5,-1109.02 403.5,-1115.02 403.5,-1115.02 403.5,-1118.02 400.5,-1121.02 397.5,-1121.02"/>
<text text-anchor="middle" x="350" y="-1109.82" font-family="Helvetica,sans-Serif" font-size="9.00">SiCard8Simulator.js</text>
</a>
</g>
</g>
<!-- src/SiCard/types/SiCard8.test.js&#45;&gt;src/simulation/SiCardSimulator/types/SiCard8Simulator.js -->
<g id="edge76" class="edge"><title>src/SiCard/types/SiCard8.test.js&#45;&gt;src/simulation/SiCardSimulator/types/SiCard8Simulator.js</title>
<path fill="none" stroke="#000000" stroke-width="2" stroke-opacity="0.200000" d="M117.103,-701.29C119.331,-702.906 121.337,-704.799 123,-707.017 144.211,-735.312 112.144,-998.912 136,-1025.02 170.474,-1062.74 213.709,-1004.04 250,-1040.02 268.167,-1058.03 240.129,-1078.71 258,-1097.02 265.622,-1104.82 275.634,-1109.54 286.223,-1112.25"/>
<polygon fill="#000000" fill-opacity="0.200000" stroke="#000000" stroke-width="2" stroke-opacity="0.200000" points="285.567,-1115.69 296.058,-1114.21 286.936,-1108.82 285.567,-1115.69"/>
</g>
<!-- src/SiCard/types/SiCard9.js -->
<g id="node23" class="node"><title>src/SiCard/types/SiCard9.js</title>
<g id="a_node23"><a xlink:href="src/SiCard/types/SiCard9.js" xlink:title="SiCard9.js">
<path fill="#ffffcc" stroke="black" d="M218.5,-701.017C218.5,-701.017 167.5,-701.017 167.5,-701.017 164.5,-701.017 161.5,-698.017 161.5,-695.017 161.5,-695.017 161.5,-689.017 161.5,-689.017 161.5,-686.017 164.5,-683.017 167.5,-683.017 167.5,-683.017 218.5,-683.017 218.5,-683.017 221.5,-683.017 224.5,-686.017 224.5,-689.017 224.5,-689.017 224.5,-695.017 224.5,-695.017 224.5,-698.017 221.5,-701.017 218.5,-701.017"/>
<text text-anchor="middle" x="193" y="-689.817" font-family="Helvetica,sans-Serif" font-size="9.00">SiCard9.js</text>
</a>
</g>
</g>
<!-- src/SiCard/types/SiCard9.js&#45;&gt;node_modules/lodash/lodash.js -->
<g id="edge85" class="edge"><title>src/SiCard/types/SiCard9.js&#45;&gt;node_modules/lodash/lodash.js</title>
<path fill="none" stroke="#000000" stroke-width="2" stroke-opacity="0.200000" d="M224.719,-690.807C234.292,-688.805 243.923,-684.786 250,-677.017 264.823,-658.066 242.247,-262.203 258,-244.017 285.125,-212.702 402.321,-225.929 442,-214.017 451.068,-211.295 460.608,-207.383 469.08,-203.505"/>
<polygon fill="#000000" fill-opacity="0.200000" stroke="#000000" stroke-width="2" stroke-opacity="0.200000" points="470.585,-206.665 478.11,-199.207 467.576,-200.345 470.585,-206.665"/>
</g>
<!-- src/SiCard/types/SiCard9.js&#45;&gt;src/SiCard/BaseSiCard.js -->
<g id="edge83" class="edge"><title>src/SiCard/types/SiCard9.js&#45;&gt;src/SiCard/BaseSiCard.js</title>
<path fill="none" stroke="#000000" stroke-width="2" stroke-opacity="0.200000" d="M224.656,-690.757C234.224,-688.752 243.868,-684.743 250,-677.017 266.932,-655.683 239.93,-452.396 258,-432.017 268.352,-420.342 284.041,-415.535 299.491,-414.056"/>
<polygon fill="#000000" fill-opacity="0.200000" stroke="#000000" stroke-width="2" stroke-opacity="0.200000" points="299.749,-417.547 309.551,-413.526 299.381,-410.557 299.749,-417.547"/>
</g>
<!-- src/SiCard/types/SiCard9.js&#45;&gt;src/SiCard/types/ModernSiCard.js -->
<g id="edge84" class="edge"><title>src/SiCard/types/SiCard9.js&#45;&gt;src/SiCard/types/ModernSiCard.js</title>
<path fill="none" stroke="#000000" stroke-width="2" stroke-opacity="0.200000" d="M224.619,-689.391C233.732,-687.248 243.112,-683.503 250,-677.017 258.186,-669.309 250.271,-661.183 258,-653.017 267.962,-642.492 281.388,-634.984 294.864,-629.651"/>
<polygon fill="#000000" fill-opacity="0.200000" stroke="#000000" stroke-width="2" stroke-opacity="0.200000" points="296.408,-632.815 304.636,-626.14 294.041,-626.227 296.408,-632.815"/>
</g>
<!-- src/SiCard/types/SiCard9.js&#45;&gt;src/siProtocol.ts -->
<g id="edge81" class="edge"><title>src/SiCard/types/SiCard9.js&#45;&gt;src/siProtocol.ts</title>
<path fill="none" stroke="#000000" stroke-width="2" stroke-opacity="0.200000" d="M224.569,-693.234C277.356,-695.335 385.932,-699.656 448.421,-702.143"/>
<polygon fill="#000000" fill-opacity="0.200000" stroke="#000000" stroke-width="2" stroke-opacity="0.200000" points="448.652,-705.655 458.783,-702.556 448.931,-698.661 448.652,-705.655"/>
</g>
<!-- src/SiCard/types/SiCard9.js&#45;&gt;src/storage/index.ts -->
<g id="edge82" class="edge"><title>src/SiCard/types/SiCard9.js&#45;&gt;src/storage/index.ts</title>
<path fill="none" stroke="#000000" stroke-width="2" stroke-opacity="0.200000" d="M224.692,-690.786C234.264,-688.783 243.9,-684.768 250,-677.017 261.239,-662.737 244.994,-362.708 258,-350.017 285.636,-323.049 399.917,-338.209 459.299,-348.295"/>
<polygon fill="#000000" fill-opacity="0.200000" stroke="#000000" stroke-width="2" stroke-opacity="0.200000" points="458.919,-351.781 469.371,-350.047 460.119,-344.885 458.919,-351.781"/>
</g>
<!-- src/SiCard/types/SiCard9.test.js -->
<g id="node24" class="node"><title>src/SiCard/types/SiCard9.test.js</title>
<g id="a_node24"><a xlink:href="src/SiCard/types/SiCard9.test.js" xlink:title="SiCard9.test.js">
<path fill="#ffffcc" stroke="black" d="M114,-731.017C114,-731.017 41,-731.017 41,-731.017 38,-731.017 35,-728.017 35,-725.017 35,-725.017 35,-719.017 35,-719.017 35,-716.017 38,-713.017 41,-713.017 41,-713.017 114,-713.017 114,-713.017 117,-713.017 120,-716.017 120,-719.017 120,-719.017 120,-725.017 120,-725.017 120,-728.017 117,-731.017 114,-731.017"/>
<text text-anchor="middle" x="77.5" y="-719.817" font-family="Helvetica,sans-Serif" font-size="9.00">SiCard9.test.js</text>
</a>
</g>
</g>
<!-- src/SiCard/types/SiCard9.test.js&#45;&gt;src/SiCard/BaseSiCard.js -->
<g id="edge87" class="edge"><title>src/SiCard/types/SiCard9.test.js&#45;&gt;src/SiCard/BaseSiCard.js</title>
<path fill="none" stroke="#000000" stroke-width="2" stroke-opacity="0.200000" d="M117.095,-712.738C119.325,-711.124 121.334,-709.232 123,-707.017 142.721,-680.796 112.295,-434.7 136,-412.017 158.583,-390.407 244.16,-399.94 299.728,-408.918"/>
<polygon fill="#000000" fill-opacity="0.200000" stroke="#000000" stroke-width="2" stroke-opacity="0.200000" points="299.294,-412.394 309.733,-410.58 300.441,-405.489 299.294,-412.394"/>
</g>
<!-- src/SiCard/types/SiCard9.test.js&#45;&gt;src/SiCard/types/SiCard9.js -->
<g id="edge88" class="edge"><title>src/SiCard/types/SiCard9.test.js&#45;&gt;src/SiCard/types/SiCard9.js</title>
<path fill="none" stroke="#000000" stroke-width="2" stroke-opacity="0.200000" d="M112.554,-713.016C124.816,-709.775 138.772,-706.086 151.528,-702.714"/>
<polygon fill="#000000" fill-opacity="0.200000" stroke="#000000" stroke-width="2" stroke-opacity="0.200000" points="152.673,-706.032 161.446,-700.093 150.884,-699.264 152.673,-706.032"/>
</g>
<!-- src/SiCard/types/siCard9Examples.js -->
<g id="node33" class="node"><title>src/SiCard/types/siCard9Examples.js</title>
<g id="a_node33"><a xlink:href="src/SiCard/types/siCard9Examples.js" xlink:title="siCard9Examples.js">
<path fill="#ffffcc" stroke="black" d="M240.5,-731.017C240.5,-731.017 145.5,-731.017 145.5,-731.017 142.5,-731.017 139.5,-728.017 139.5,-725.017 139.5,-725.017 139.5,-719.017 139.5,-719.017 139.5,-716.017 142.5,-713.017 145.5,-713.017 145.5,-713.017 240.5,-713.017 240.5,-713.017 243.5,-713.017 246.5,-716.017 246.5,-719.017 246.5,-719.017 246.5,-725.017 246.5,-725.017 246.5,-728.017 243.5,-731.017 240.5,-731.017"/>
<text text-anchor="middle" x="193" y="-719.817" font-family="Helvetica,sans-Serif" font-size="9.00">siCard9Examples.js</text>
</a>
</g>
</g>
<!-- src/SiCard/types/SiCard9.test.js&#45;&gt;src/SiCard/types/siCard9Examples.js -->
<g id="edge89" class="edge"><title>src/SiCard/types/SiCard9.test.js&#45;&gt;src/SiCard/types/siCard9Examples.js</title>
<path fill="none" stroke="#000000" stroke-width="2" stroke-opacity="0.200000" d="M120.119,-722.017C123.025,-722.017 125.989,-722.017 128.975,-722.017"/>
<polygon fill="#000000" fill-opacity="0.200000" stroke="#000000" stroke-width="2" stroke-opacity="0.200000" points="129.173,-725.517 139.173,-722.017 129.172,-718.517 129.173,-725.517"/>
</g>
<!-- src/simulation/SiCardSimulator/types/SiCard9Simulator.js -->
<g id="node40" class="node"><title>src/simulation/SiCardSimulator/types/SiCard9Simulator.js</title>
<g id="a_node40"><a xlink:href="src/simulation/SiCardSimulator/types/SiCard9Simulator.js" xlink:title="SiCard9Simulator.js">
<path fill="#ffffcc" stroke="black" d="M397.5,-1151.02C397.5,-1151.02 302.5,-1151.02 302.5,-1151.02 299.5,-1151.02 296.5,-1148.02 296.5,-1145.02 296.5,-1145.02 296.5,-1139.02 296.5,-1139.02 296.5,-1136.02 299.5,-1133.02 302.5,-1133.02 302.5,-1133.02 397.5,-1133.02 397.5,-1133.02 400.5,-1133.02 403.5,-1136.02 403.5,-1139.02 403.5,-1139.02 403.5,-1145.02 403.5,-1145.02 403.5,-1148.02 400.5,-1151.02 397.5,-1151.02"/>
<text text-anchor="middle" x="350" y="-1139.82" font-family="Helvetica,sans-Serif" font-size="9.00">SiCard9Simulator.js</text>
</a>
</g>
</g>
<!-- src/SiCard/types/SiCard9.test.js&#45;&gt;src/simulation/SiCardSimulator/types/SiCard9Simulator.js -->
<g id="edge86" class="edge"><title>src/SiCard/types/SiCard9.test.js&#45;&gt;src/simulation/SiCardSimulator/types/SiCard9Simulator.js</title>
<path fill="none" stroke="#000000" stroke-width="2" stroke-opacity="0.200000" d="M92.0852,-731.337C102.608,-739.415 116.459,-752.129 123,-767.017 135.081,-794.515 116.808,-1013.91 136,-1037.02 169.271,-1077.07 215.189,-1025.3 250,-1064.02 268.87,-1085.01 238.415,-1106.69 258,-1127.02 265.656,-1134.96 275.783,-1139.72 286.497,-1142.42"/>
<polygon fill="#000000" fill-opacity="0.200000" stroke="#000000" stroke-width="2" stroke-opacity="0.200000" points="285.961,-1145.88 296.447,-1144.36 287.303,-1139.01 285.961,-1145.88"/>
</g>
<!-- src/SiCard/types/TCard.js -->
<g id="node25" class="node"><title>src/SiCard/types/TCard.js</title>
<g id="a_node25"><a xlink:href="src/SiCard/types/TCard.js" xlink:title="TCard.js">
<path fill="#ffffcc" stroke="black" d="M98.5,-491.017C98.5,-491.017 56.5,-491.017 56.5,-491.017 53.5,-491.017 50.5,-488.017 50.5,-485.017 50.5,-485.017 50.5,-479.017 50.5,-479.017 50.5,-476.017 53.5,-473.017 56.5,-473.017 56.5,-473.017 98.5,-473.017 98.5,-473.017 101.5,-473.017 104.5,-476.017 104.5,-479.017 104.5,-479.017 104.5,-485.017 104.5,-485.017 104.5,-488.017 101.5,-491.017 98.5,-491.017"/>
<text text-anchor="middle" x="77.5" y="-479.817" font-family="Helvetica,sans-Serif" font-size="9.00">TCard.js</text>
</a>
</g>
</g>
<!-- src/SiCard/types/TCard.js&#45;&gt;src/SiCard/BaseSiCard.js -->
<g id="edge90" class="edge"><title>src/SiCard/types/TCard.js&#45;&gt;src/SiCard/BaseSiCard.js</title>
<path fill="none" stroke="#000000" stroke-width="2" stroke-opacity="0.200000" d="M104.68,-478.577C111.653,-476.378 118.491,-472.806 123,-467.017 145.872,-437.649 108.677,-325.296 136,-300.017 154.596,-282.813 227.041,-289.31 250,-300.017 294.464,-320.753 326.044,-372.374 340.37,-399.961"/>
<polygon fill="#000000" fill-opacity="0.200000" stroke="#000000" stroke-width="2" stroke-opacity="0.200000" points="337.255,-401.558 344.859,-408.936 343.516,-398.426 337.255,-401.558"/>
</g>
<!-- src/SiCard/types/TCard.test.js -->
<g id="node26" class="node"><title>src/SiCard/types/TCard.test.js</title>
<g id="a_node26"><a xlink:href="src/SiCard/types/TCard.test.js" xlink:title="TCard.test.js">
<path fill="#ffffcc" stroke="black" d="M109,-641.017C109,-641.017 46,-641.017 46,-641.017 43,-641.017 40,-638.017 40,-635.017 40,-635.017 40,-629.017 40,-629.017 40,-626.017 43,-623.017 46,-623.017 46,-623.017 109,-623.017 109,-623.017 112,-623.017 115,-626.017 115,-629.017 115,-629.017 115,-635.017 115,-635.017 115,-638.017 112,-641.017 109,-641.017"/>
<text text-anchor="middle" x="77.5" y="-629.817" font-family="Helvetica,sans-Serif" font-size="9.00">TCard.test.js</text>
</a>
</g>
</g>
<!-- src/SiCard/types/TCard.test.js&#45;&gt;src/SiCard/BaseSiCard.js -->
<g id="edge91" class="edge"><title>src/SiCard/types/TCard.test.js&#45;&gt;src/SiCard/BaseSiCard.js</title>
<path fill="none" stroke="#000000" stroke-width="2" stroke-opacity="0.200000" d="M115.047,-624.073C118.094,-622.193 120.832,-619.875 123,-617.017 139.613,-595.124 116.063,-388.932 136,-370.017 154.378,-352.581 225.309,-364.347 250,-370.017 277.998,-376.446 307.266,-391.887 326.65,-403.533"/>
<polygon fill="#000000" fill-opacity="0.200000" stroke="#000000" stroke-width="2" stroke-opacity="0.200000" points="324.976,-406.612 335.323,-408.889 328.654,-400.656 324.976,-406.612"/>
</g>
<!-- src/SiCard/types/TCard.test.js&#45;&gt;src/SiCard/types/SIAC.js -->
<g id="edge92" class="edge"><title>src/SiCard/types/TCard.test.js&#45;&gt;src/SiCard/types/SIAC.js</title>
<path fill="none" stroke="#000000" stroke-width="2" stroke-opacity="0.200000" d="M112.554,-623.016C126.32,-619.377 142.22,-615.175 156.162,-611.489"/>
<polygon fill="#000000" fill-opacity="0.200000" stroke="#000000" stroke-width="2" stroke-opacity="0.200000" points="157.136,-614.852 165.91,-608.913 155.347,-608.085 157.136,-614.852"/>
</g>
<!-- src/SiCard/types/index.test.js -->
<g id="node28" class="node"><title>src/SiCard/types/index.test.js</title>
<g id="a_node28"><a xlink:href="src/SiCard/types/index.test.js" xlink:title="index.test.js">
<path fill="#ffffcc" stroke="black" d="M108.5,-461.017C108.5,-461.017 46.5,-461.017 46.5,-461.017 43.5,-461.017 40.5,-458.017 40.5,-455.017 40.5,-455.017 40.5,-449.017 40.5,-449.017 40.5,-446.017 43.5,-443.017 46.5,-443.017 46.5,-443.017 108.5,-443.017 108.5,-443.017 111.5,-443.017 114.5,-446.017 114.5,-449.017 114.5,-449.017 114.5,-455.017 114.5,-455.017 114.5,-458.017 111.5,-461.017 108.5,-461.017"/>
<text text-anchor="middle" x="77.5" y="-449.817" font-family="Helvetica,sans-Serif" font-size="9.00">index.test.js</text>
</a>
</g>
</g>
<!-- src/SiCard/types/index.test.js&#45;&gt;node_modules/lodash/lodash.js -->
<g id="edge95" class="edge"><title>src/SiCard/types/index.test.js&#45;&gt;node_modules/lodash/lodash.js</title>
<path fill="none" stroke="#000000" stroke-width="2" stroke-opacity="0.200000" d="M78.3207,-442.713C77.4904,-388.46 76.296,-113.564 136,-62.0169 238.941,26.86 328.799,13.3596 442,-62.0169 478.635,-86.4111 490.229,-141.202 493.864,-170.563"/>
<polygon fill="#000000" fill-opacity="0.200000" stroke="#000000" stroke-width="2" stroke-opacity="0.200000" points="490.411,-171.198 494.931,-180.781 497.374,-170.471 490.411,-171.198"/>
</g>
<!-- src/SiCard/types/index.test.js&#45;&gt;src/SiCard/BaseSiCard.js -->
<g id="edge93" class="edge"><title>src/SiCard/types/index.test.js&#45;&gt;src/SiCard/BaseSiCard.js</title>
<path fill="none" stroke="#000000" stroke-width="2" stroke-opacity="0.200000" d="M78.3424,-442.729C78.4154,-413.591 83.0774,-323.693 136,-286.017 177.276,-256.633 204.682,-263.358 250,-286.017 297.901,-309.968 328.639,-369.337 341.734,-399.618"/>
<polygon fill="#000000" fill-opacity="0.200000" stroke="#000000" stroke-width="2" stroke-opacity="0.200000" points="338.565,-401.114 345.629,-409.01 345.031,-398.432 338.565,-401.114"/>
</g>
<!-- src/SiCard/types/index.test.js&#45;&gt;src/SiCard/types/index.js -->
<g id="edge94" class="edge"><title>src/SiCard/types/index.test.js&#45;&gt;src/SiCard/types/index.js</title>
<path fill="none" stroke="#000000" stroke-width="2" stroke-opacity="0.200000" d="M114.724,-452.017C127.829,-452.017 142.622,-452.017 155.731,-452.017"/>
<polygon fill="#000000" fill-opacity="0.200000" stroke="#000000" stroke-width="2" stroke-opacity="0.200000" points="155.818,-455.517 165.818,-452.017 155.818,-448.517 155.818,-455.517"/>
</g>
</g>
</svg>
