<?xml version="1.0" encoding="UTF-8" standalone="no"?>
<!DOCTYPE svg PUBLIC "-//W3C//DTD SVG 1.1//EN"
 "http://www.w3.org/Graphics/SVG/1.1/DTD/svg11.dtd">
<!-- Generated by graphviz version 2.43.0 (0)
 -->
<!-- Title: dependency&#45;cruiser output Pages: 1 -->
<svg width="378pt" height="730pt"
 viewBox="0.00 0.00 378.00 730.00" xmlns="http://www.w3.org/2000/svg" xmlns:xlink="http://www.w3.org/1999/xlink">
<g id="graph0" class="graph" transform="scale(1 1) rotate(0) translate(4 726)">
<title>dependency&#45;cruiser output</title>
<polygon fill="white" stroke="transparent" points="-4,4 -4,-726 374,-726 374,4 -4,4"/>
<g id="clust1" class="cluster">
<title>cluster_node_modules</title>
<path fill="#ffffff" stroke="black" stroke-width="2" d="M216.5,-8C216.5,-8 315.5,-8 315.5,-8 321.5,-8 327.5,-14 327.5,-20 327.5,-20 327.5,-304 327.5,-304 327.5,-310 321.5,-316 315.5,-316 315.5,-316 216.5,-316 216.5,-316 210.5,-316 204.5,-310 204.5,-304 204.5,-304 204.5,-20 204.5,-20 204.5,-14 210.5,-8 216.5,-8"/>
<text text-anchor="middle" x="266" y="-304.8" font-family="Helvetica,sans-Serif" font-weight="bold" font-size="9.00">node_modules</text>
</g>
<g id="clust2" class="cluster">
<title>cluster_node_modules/@jest</title>
<path fill="#ffffff" stroke="black" stroke-width="2" d="M227,-170C227,-170 305,-170 305,-170 311,-170 317,-176 317,-182 317,-182 317,-278 317,-278 317,-284 311,-290 305,-290 305,-290 227,-290 227,-290 221,-290 215,-284 215,-278 215,-278 215,-182 215,-182 215,-176 221,-170 227,-170"/>
<text text-anchor="middle" x="266" y="-278.8" font-family="Helvetica,sans-Serif" font-weight="bold" font-size="9.00">@jest</text>
</g>
<g id="clust3" class="cluster">
<title>cluster_node_modules/@jest/globals</title>
<path fill="#ffffff" stroke="black" stroke-width="2" d="M235,-178C235,-178 297,-178 297,-178 303,-178 309,-184 309,-190 309,-190 309,-252 309,-252 309,-258 303,-264 297,-264 297,-264 235,-264 235,-264 229,-264 223,-258 223,-252 223,-252 223,-190 223,-190 223,-184 229,-178 235,-178"/>
<text text-anchor="middle" x="266" y="-252.8" font-family="Helvetica,sans-Serif" font-weight="bold" font-size="9.00">globals</text>
</g>
<g id="clust4" class="cluster">
<title>cluster_node_modules/@jest/globals/build</title>
<path fill="#ffffff" stroke="black" stroke-width="2" d="M243,-186C243,-186 289,-186 289,-186 295,-186 301,-192 301,-198 301,-198 301,-226 301,-226 301,-232 295,-238 289,-238 289,-238 243,-238 243,-238 237,-238 231,-232 231,-226 231,-226 231,-198 231,-198 231,-192 237,-186 243,-186"/>
<text text-anchor="middle" x="266" y="-226.8" font-family="Helvetica,sans-Serif" font-weight="bold" font-size="9.00">build</text>
</g>
<g id="clust5" class="cluster">
<title>cluster_node_modules/immutable</title>
<path fill="#ffffff" stroke="black" stroke-width="2" d="M224.5,-76C224.5,-76 307.5,-76 307.5,-76 313.5,-76 319.5,-82 319.5,-88 319.5,-88 319.5,-150 319.5,-150 319.5,-156 313.5,-162 307.5,-162 307.5,-162 224.5,-162 224.5,-162 218.5,-162 212.5,-156 212.5,-150 212.5,-150 212.5,-88 212.5,-88 212.5,-82 218.5,-76 224.5,-76"/>
<text text-anchor="middle" x="266" y="-150.8" font-family="Helvetica,sans-Serif" font-weight="bold" font-size="9.00">immutable</text>
</g>
<g id="clust6" class="cluster">
<title>cluster_node_modules/immutable/dist</title>
<path fill="#ffffff" stroke="black" stroke-width="2" d="M232.5,-84C232.5,-84 299.5,-84 299.5,-84 305.5,-84 311.5,-90 311.5,-96 311.5,-96 311.5,-124 311.5,-124 311.5,-130 305.5,-136 299.5,-136 299.5,-136 232.5,-136 232.5,-136 226.5,-136 220.5,-130 220.5,-124 220.5,-124 220.5,-96 220.5,-96 220.5,-90 226.5,-84 232.5,-84"/>
<text text-anchor="middle" x="266" y="-124.8" font-family="Helvetica,sans-Serif" font-weight="bold" font-size="9.00">dist</text>
</g>
<g id="clust7" class="cluster">
<title>cluster_node_modules/lodash</title>
<path fill="#ffffff" stroke="black" stroke-width="2" d="M242,-16C242,-16 290,-16 290,-16 296,-16 302,-22 302,-28 302,-28 302,-56 302,-56 302,-62 296,-68 290,-68 290,-68 242,-68 242,-68 236,-68 230,-62 230,-56 230,-56 230,-28 230,-28 230,-22 236,-16 242,-16"/>
<text text-anchor="middle" x="266" y="-56.8" font-family="Helvetica,sans-Serif" font-weight="bold" font-size="9.00">lodash</text>
</g>
<g id="clust8" class="cluster">
<title>cluster_packages</title>
<path fill="#ffffff" stroke="black" stroke-width="2" d="M20,-324C20,-324 350,-324 350,-324 356,-324 362,-330 362,-336 362,-336 362,-702 362,-702 362,-708 356,-714 350,-714 350,-714 20,-714 20,-714 14,-714 8,-708 8,-702 8,-702 8,-336 8,-336 8,-330 14,-324 20,-324"/>
<text text-anchor="middle" x="185" y="-702.8" font-family="Helvetica,sans-Serif" font-weight="bold" font-size="9.00">packages</text>
</g>
<g id="clust9" class="cluster">
<title>cluster_packages/sportident</title>
<path fill="#ffffff" stroke="black" stroke-width="2" d="M28,-332C28,-332 342,-332 342,-332 348,-332 354,-338 354,-344 354,-344 354,-676 354,-676 354,-682 348,-688 342,-688 342,-688 28,-688 28,-688 22,-688 16,-682 16,-676 16,-676 16,-344 16,-344 16,-338 22,-332 28,-332"/>
<text text-anchor="middle" x="185" y="-676.8" font-family="Helvetica,sans-Serif" font-weight="bold" font-size="9.00">sportident</text>
</g>
<g id="clust10" class="cluster">
<title>cluster_packages/sportident/src</title>
<path fill="#ffffff" stroke="black" stroke-width="2" d="M36,-340C36,-340 334,-340 334,-340 340,-340 346,-346 346,-352 346,-352 346,-650 346,-650 346,-656 340,-662 334,-662 334,-662 36,-662 36,-662 30,-662 24,-656 24,-650 24,-650 24,-352 24,-352 24,-346 30,-340 36,-340"/>
<text text-anchor="middle" x="185" y="-650.8" font-family="Helvetica,sans-Serif" font-weight="bold" font-size="9.00">src</text>
</g>
<g id="clust11" class="cluster">
<title>cluster_packages/sportident/src/utils</title>
<path fill="#ffffff" stroke="black" stroke-width="2" d="M44,-348C44,-348 326,-348 326,-348 332,-348 338,-354 338,-360 338,-360 338,-598 338,-598 338,-604 332,-610 326,-610 326,-610 44,-610 44,-610 38,-610 32,-604 32,-598 32,-598 32,-360 32,-360 32,-354 38,-348 44,-348"/>
<text text-anchor="middle" x="185" y="-598.8" font-family="Helvetica,sans-Serif" font-weight="bold" font-size="9.00">utils</text>
</g>
<!-- node_modules/@jest/globals/build/index.js -->
<g id="node1" class="node">
<title>node_modules/@jest/globals/build/index.js</title>
<g id="a_node1"><a xlink:href="node_modules/@jest/globals/build/index.js" xlink:title="index.js">
<polygon fill="#c40b0a" fill-opacity="0.101961" stroke="black" points="293,-212 291.5,-214 281,-214 279.5,-212 239,-212 239,-194 293,-194 293,-212"/>
<text text-anchor="start" x="248.5" y="-200.8" font-family="Helvetica,sans-Serif" font-size="9.00" fill="#c40b0a">index.js</text>
</a>
</g>
</g>
<!-- node_modules/immutable/dist/immutable.js -->
<g id="node2" class="node">
<title>node_modules/immutable/dist/immutable.js</title>
<g id="a_node2"><a xlink:href="node_modules/immutable/dist/immutable.js" xlink:title="immutable.js">
<polygon fill="#c40b0a" fill-opacity="0.101961" stroke="black" points="303.5,-110 302,-112 291.5,-112 290,-110 228.5,-110 228.5,-92 303.5,-92 303.5,-110"/>
<text text-anchor="start" x="236.5" y="-98.8" font-family="Helvetica,sans-Serif" font-size="9.00" fill="#c40b0a">immutable.js</text>
</a>
</g>
</g>
<!-- node_modules/lodash/lodash.js -->
<g id="node3" class="node">
<title>node_modules/lodash/lodash.js</title>
<g id="a_node3"><a xlink:href="node_modules/lodash/lodash.js" xlink:title="lodash.js">
<polygon fill="#c40b0a" fill-opacity="0.101961" stroke="black" points="294,-42 292.5,-44 282,-44 280.5,-42 238,-42 238,-24 294,-24 294,-42"/>
<text text-anchor="start" x="246" y="-30.8" font-family="Helvetica,sans-Serif" font-size="9.00" fill="#c40b0a">lodash.js</text>
</a>
</g>
</g>
<!-- packages/sportident/src/testUtils.ts -->
<g id="node4" class="node">
<title>packages/sportident/src/testUtils.ts</title>
<g id="a_node4"><a xlink:href="packages/sportident/src/testUtils.ts" xlink:title="testUtils.ts">
<path fill="#ddfeff" stroke="black" d="M292.5,-636C292.5,-636 239.5,-636 239.5,-636 236.5,-636 233.5,-633 233.5,-630 233.5,-630 233.5,-624 233.5,-624 233.5,-621 236.5,-618 239.5,-618 239.5,-618 292.5,-618 292.5,-618 295.5,-618 298.5,-621 298.5,-624 298.5,-624 298.5,-630 298.5,-630 298.5,-633 295.5,-636 292.5,-636"/>
<text text-anchor="start" x="241.5" y="-624.8" font-family="Helvetica,sans-Serif" font-size="9.00">testUtils.ts</text>
</a>
</g>
</g>
<!-- packages/sportident/src/utils/NumberRange.test.ts -->
<g id="node5" class="node">
<title>packages/sportident/src/utils/NumberRange.test.ts</title>
<g id="a_node5"><a xlink:href="packages/sportident/src/utils/NumberRange.test.ts" xlink:title="NumberRange.test.ts">
<path fill="#ddfeff" stroke="black" d="M165,-464C165,-464 64,-464 64,-464 61,-464 58,-461 58,-458 58,-458 58,-452 58,-452 58,-449 61,-446 64,-446 64,-446 165,-446 165,-446 168,-446 171,-449 171,-452 171,-452 171,-458 171,-458 171,-461 168,-464 165,-464"/>
<text text-anchor="start" x="66" y="-452.8" font-family="Helvetica,sans-Serif" font-size="9.00">NumberRange.test.ts</text>
</a>
</g>
</g>
<!-- packages/sportident/src/utils/NumberRange.test.ts&#45;&gt;node_modules/@jest/globals/build/index.js -->
<g id="edge2" class="edge">
<title>packages/sportident/src/utils/NumberRange.test.ts&#45;&gt;node_modules/@jest/globals/build/index.js</title>
<path fill="none" stroke="#000000" stroke-opacity="0.200000" d="M171.22,-451.45C177.92,-448.9 184.1,-445.23 189,-440 203.57,-424.45 196.18,-365.5 202,-345 215.78,-296.48 243.05,-243.07 256.74,-217.81"/>
<polygon fill="#000000" fill-opacity="0.200000" stroke="#000000" stroke-opacity="0.200000" points="258.72,-218.57 259.76,-212.29 255.04,-216.55 258.72,-218.57"/>
</g>
<!-- packages/sportident/src/utils/NumberRange.ts -->
<g id="node6" class="node">
<title>packages/sportident/src/utils/NumberRange.ts</title>
<g id="a_node6"><a xlink:href="packages/sportident/src/utils/NumberRange.ts" xlink:title="NumberRange.ts">
<path fill="#ddfeff" stroke="black" d="M306.5,-464C306.5,-464 225.5,-464 225.5,-464 222.5,-464 219.5,-461 219.5,-458 219.5,-458 219.5,-452 219.5,-452 219.5,-449 222.5,-446 225.5,-446 225.5,-446 306.5,-446 306.5,-446 309.5,-446 312.5,-449 312.5,-452 312.5,-452 312.5,-458 312.5,-458 312.5,-461 309.5,-464 306.5,-464"/>
<text text-anchor="start" x="227.5" y="-452.8" font-family="Helvetica,sans-Serif" font-size="9.00">NumberRange.ts</text>
</a>
</g>
</g>
<!-- packages/sportident/src/utils/NumberRange.test.ts&#45;&gt;packages/sportident/src/utils/NumberRange.ts -->
<g id="edge1" class="edge">
<title>packages/sportident/src/utils/NumberRange.test.ts&#45;&gt;packages/sportident/src/utils/NumberRange.ts</title>
<path fill="none" stroke="#000000" stroke-width="2" stroke-opacity="0.200000" d="M171.17,-455C184.85,-455 199.44,-455 212.94,-455"/>
<polygon fill="#000000" fill-opacity="0.200000" stroke="#000000" stroke-width="2" stroke-opacity="0.200000" points="213.06,-457.1 219.06,-455 213.06,-452.9 213.06,-457.1"/>
</g>
<!-- packages/sportident/src/utils/NumberRangeRegistry.test.ts -->
<g id="node7" class="node">
<title>packages/sportident/src/utils/NumberRangeRegistry.test.ts</title>
<g id="a_node7"><a xlink:href="packages/sportident/src/utils/NumberRangeRegistry.test.ts" xlink:title="NumberRangeRegistry.test.ts">
<path fill="#ddfeff" stroke="black" d="M183,-494C183,-494 46,-494 46,-494 43,-494 40,-491 40,-488 40,-488 40,-482 40,-482 40,-479 43,-476 46,-476 46,-476 183,-476 183,-476 186,-476 189,-479 189,-482 189,-482 189,-488 189,-488 189,-491 186,-494 183,-494"/>
<text text-anchor="start" x="48" y="-482.8" font-family="Helvetica,sans-Serif" font-size="9.00">NumberRangeRegistry.test.ts</text>
</a>
</g>
</g>
<!-- packages/sportident/src/utils/NumberRangeRegistry.test.ts&#45;&gt;node_modules/@jest/globals/build/index.js -->
<g id="edge5" class="edge">
<title>packages/sportident/src/utils/NumberRangeRegistry.test.ts&#45;&gt;node_modules/@jest/globals/build/index.js</title>
<path fill="none" stroke="#000000" stroke-opacity="0.200000" d="M182.33,-475.86C184.74,-474.16 186.99,-472.22 189,-470 207.76,-449.31 194.8,-371.98 202,-345 215,-296.27 242.62,-242.96 256.57,-217.76"/>
<polygon fill="#000000" fill-opacity="0.200000" stroke="#000000" stroke-opacity="0.200000" points="258.55,-218.52 259.65,-212.26 254.89,-216.47 258.55,-218.52"/>
</g>
<!-- packages/sportident/src/utils/NumberRangeRegistry.test.ts&#45;&gt;packages/sportident/src/utils/NumberRange.ts -->
<g id="edge3" class="edge">
<title>packages/sportident/src/utils/NumberRangeRegistry.test.ts&#45;&gt;packages/sportident/src/utils/NumberRange.ts</title>
<path fill="none" stroke="#000000" stroke-width="2" stroke-opacity="0.200000" d="M160.35,-476C177.13,-472.63 196.31,-468.78 213.63,-465.31"/>
<polygon fill="#000000" fill-opacity="0.200000" stroke="#000000" stroke-width="2" stroke-opacity="0.200000" points="214.45,-467.29 219.92,-464.05 213.62,-463.17 214.45,-467.29"/>
</g>
<!-- packages/sportident/src/utils/NumberRangeRegistry.ts -->
<g id="node8" class="node">
<title>packages/sportident/src/utils/NumberRangeRegistry.ts</title>
<g id="a_node8"><a xlink:href="packages/sportident/src/utils/NumberRangeRegistry.ts" xlink:title="NumberRangeRegistry.ts">
<path fill="#ddfeff" stroke="black" d="M324,-494C324,-494 208,-494 208,-494 205,-494 202,-491 202,-488 202,-488 202,-482 202,-482 202,-479 205,-476 208,-476 208,-476 324,-476 324,-476 327,-476 330,-479 330,-482 330,-482 330,-488 330,-488 330,-491 327,-494 324,-494"/>
<text text-anchor="start" x="210" y="-482.8" font-family="Helvetica,sans-Serif" font-size="9.00">NumberRangeRegistry.ts</text>
</a>
</g>
</g>
<!-- packages/sportident/src/utils/NumberRangeRegistry.test.ts&#45;&gt;packages/sportident/src/utils/NumberRangeRegistry.ts -->
<g id="edge4" class="edge">
<title>packages/sportident/src/utils/NumberRangeRegistry.test.ts&#45;&gt;packages/sportident/src/utils/NumberRangeRegistry.ts</title>
<path fill="none" stroke="#000000" stroke-width="2" stroke-opacity="0.200000" d="M189.37,-485C191.43,-485 193.49,-485 195.55,-485"/>
<polygon fill="#000000" fill-opacity="0.200000" stroke="#000000" stroke-width="2" stroke-opacity="0.200000" points="195.69,-487.1 201.69,-485 195.69,-482.9 195.69,-487.1"/>
</g>
<!-- packages/sportident/src/utils/bytes.test.ts -->
<g id="node9" class="node">
<title>packages/sportident/src/utils/bytes.test.ts</title>
<g id="a_node9"><a xlink:href="packages/sportident/src/utils/bytes.test.ts" xlink:title="bytes.test.ts">
<path fill="#ddfeff" stroke="black" d="M145,-434C145,-434 84,-434 84,-434 81,-434 78,-431 78,-428 78,-428 78,-422 78,-422 78,-419 81,-416 84,-416 84,-416 145,-416 145,-416 148,-416 151,-419 151,-422 151,-422 151,-428 151,-428 151,-431 148,-434 145,-434"/>
<text text-anchor="start" x="86" y="-422.8" font-family="Helvetica,sans-Serif" font-size="9.00">bytes.test.ts</text>
</a>
</g>
</g>
<!-- packages/sportident/src/utils/bytes.test.ts&#45;&gt;node_modules/@jest/globals/build/index.js -->
<g id="edge7" class="edge">
<title>packages/sportident/src/utils/bytes.test.ts&#45;&gt;node_modules/@jest/globals/build/index.js</title>
<path fill="none" stroke="#000000" stroke-opacity="0.200000" d="M151.22,-425.7C164.71,-424.11 179.17,-419.87 189,-410 209.79,-389.13 193.08,-373.08 202,-345 217.34,-296.69 244.11,-242.78 257.26,-217.53"/>
<polygon fill="#000000" fill-opacity="0.200000" stroke="#000000" stroke-opacity="0.200000" points="259.22,-218.32 260.15,-212.03 255.5,-216.37 259.22,-218.32"/>
</g>
<!-- packages/sportident/src/utils/bytes.ts -->
<g id="node10" class="node">
<title>packages/sportident/src/utils/bytes.ts</title>
<g id="a_node10"><a xlink:href="packages/sportident/src/utils/bytes.ts" xlink:title="bytes.ts">
<path fill="#ddfeff" stroke="black" d="M287,-434C287,-434 245,-434 245,-434 242,-434 239,-431 239,-428 239,-428 239,-422 239,-422 239,-419 242,-416 245,-416 245,-416 287,-416 287,-416 290,-416 293,-419 293,-422 293,-422 293,-428 293,-428 293,-431 290,-434 287,-434"/>
<text text-anchor="start" x="247.5" y="-422.8" font-family="Helvetica,sans-Serif" font-size="9.00">bytes.ts</text>
</a>
</g>
</g>
<!-- packages/sportident/src/utils/bytes.test.ts&#45;&gt;packages/sportident/src/utils/bytes.ts -->
<g id="edge6" class="edge">
<title>packages/sportident/src/utils/bytes.test.ts&#45;&gt;packages/sportident/src/utils/bytes.ts</title>
<path fill="none" stroke="#000000" stroke-width="2" stroke-opacity="0.200000" d="M151.31,-425C176.05,-425 208.69,-425 232.64,-425"/>
<polygon fill="#000000" fill-opacity="0.200000" stroke="#000000" stroke-width="2" stroke-opacity="0.200000" points="232.85,-427.1 238.85,-425 232.85,-422.9 232.85,-427.1"/>
</g>
<!-- packages/sportident/src/utils/errors.test.ts -->
<g id="node11" class="node">
<title>packages/sportident/src/utils/errors.test.ts</title>
<g id="a_node11"><a xlink:href="packages/sportident/src/utils/errors.test.ts" xlink:title="errors.test.ts">
<path fill="#ddfeff" stroke="black" d="M145.5,-404C145.5,-404 83.5,-404 83.5,-404 80.5,-404 77.5,-401 77.5,-398 77.5,-398 77.5,-392 77.5,-392 77.5,-389 80.5,-386 83.5,-386 83.5,-386 145.5,-386 145.5,-386 148.5,-386 151.5,-389 151.5,-392 151.5,-392 151.5,-398 151.5,-398 151.5,-401 148.5,-404 145.5,-404"/>
<text text-anchor="start" x="85.5" y="-392.8" font-family="Helvetica,sans-Serif" font-size="9.00">errors.test.ts</text>
</a>
</g>
</g>
<!-- packages/sportident/src/utils/errors.test.ts&#45;&gt;node_modules/@jest/globals/build/index.js -->
<g id="edge9" class="edge">
<title>packages/sportident/src/utils/errors.test.ts&#45;&gt;node_modules/@jest/globals/build/index.js</title>
<path fill="none" stroke="#000000" stroke-opacity="0.200000" d="M151.59,-394.73C164.65,-392.94 178.71,-388.81 189,-380 201.6,-369.21 195.74,-360.37 202,-345 221.11,-298.05 246.11,-243.51 258.06,-217.82"/>
<polygon fill="#000000" fill-opacity="0.200000" stroke="#000000" stroke-opacity="0.200000" points="260.04,-218.54 260.67,-212.22 256.23,-216.77 260.04,-218.54"/>
</g>
<!-- packages/sportident/src/utils/errors.ts -->
<g id="node12" class="node">
<title>packages/sportident/src/utils/errors.ts</title>
<g id="a_node12"><a xlink:href="packages/sportident/src/utils/errors.ts" xlink:title="errors.ts">
<path fill="#ddfeff" stroke="black" d="M287,-404C287,-404 245,-404 245,-404 242,-404 239,-401 239,-398 239,-398 239,-392 239,-392 239,-389 242,-386 245,-386 245,-386 287,-386 287,-386 290,-386 293,-389 293,-392 293,-392 293,-398 293,-398 293,-401 290,-404 287,-404"/>
<text text-anchor="start" x="247" y="-392.8" font-family="Helvetica,sans-Serif" font-size="9.00">errors.ts</text>
</a>
</g>
</g>
<!-- packages/sportident/src/utils/errors.test.ts&#45;&gt;packages/sportident/src/utils/errors.ts -->
<g id="edge8" class="edge">
<title>packages/sportident/src/utils/errors.test.ts&#45;&gt;packages/sportident/src/utils/errors.ts</title>
<path fill="none" stroke="#000000" stroke-width="2" stroke-opacity="0.200000" d="M151.69,-395C176.44,-395 208.96,-395 232.81,-395"/>
<polygon fill="#000000" fill-opacity="0.200000" stroke="#000000" stroke-width="2" stroke-opacity="0.200000" points="232.98,-397.1 238.98,-395 232.98,-392.9 232.98,-397.1"/>
</g>
<!-- packages/sportident/src/utils/events.test.ts -->
<g id="node13" class="node">
<title>packages/sportident/src/utils/events.test.ts</title>
<g id="a_node13"><a xlink:href="packages/sportident/src/utils/events.test.ts" xlink:title="events.test.ts">
<path fill="#ddfeff" stroke="black" d="M147.5,-584C147.5,-584 81.5,-584 81.5,-584 78.5,-584 75.5,-581 75.5,-578 75.5,-578 75.5,-572 75.5,-572 75.5,-569 78.5,-566 81.5,-566 81.5,-566 147.5,-566 147.5,-566 150.5,-566 153.5,-569 153.5,-572 153.5,-572 153.5,-578 153.5,-578 153.5,-581 150.5,-584 147.5,-584"/>
<text text-anchor="start" x="83.5" y="-572.8" font-family="Helvetica,sans-Serif" font-size="9.00">events.test.ts</text>
</a>
</g>
</g>
<!-- packages/sportident/src/utils/events.test.ts&#45;&gt;node_modules/@jest/globals/build/index.js -->
<g id="edge13" class="edge">
<title>packages/sportident/src/utils/events.test.ts&#45;&gt;node_modules/@jest/globals/build/index.js</title>
<path fill="none" stroke="#000000" stroke-opacity="0.200000" d="M153.84,-576.14C166.85,-574.45 180.29,-570.03 189,-560 204.69,-541.93 196.33,-368.25 202,-345 213.94,-296 242.05,-242.81 256.34,-217.7"/>
<polygon fill="#000000" fill-opacity="0.200000" stroke="#000000" stroke-opacity="0.200000" points="258.32,-218.47 259.49,-212.22 254.68,-216.38 258.32,-218.47"/>
</g>
<!-- packages/sportident/src/utils/events.test.ts&#45;&gt;packages/sportident/src/testUtils.ts -->
<g id="edge10" class="edge">
<title>packages/sportident/src/utils/events.test.ts&#45;&gt;packages/sportident/src/testUtils.ts</title>
<path fill="none" stroke="#000000" stroke-width="2" stroke-opacity="0.200000" d="M133.32,-584.06C150.54,-592.51 177.53,-604.99 202,-613 209.98,-615.61 218.68,-617.89 227,-619.81"/>
<polygon fill="#000000" fill-opacity="0.200000" stroke="#000000" stroke-width="2" stroke-opacity="0.200000" points="226.96,-621.96 233.27,-621.21 227.87,-617.86 226.96,-621.96"/>
</g>
<!-- packages/sportident/src/utils/events.ts -->
<g id="node14" class="node">
<title>packages/sportident/src/utils/events.ts</title>
<g id="a_node14"><a xlink:href="packages/sportident/src/utils/events.ts" xlink:title="events.ts">
<path fill="#ddfeff" stroke="black" d="M289,-584C289,-584 243,-584 243,-584 240,-584 237,-581 237,-578 237,-578 237,-572 237,-572 237,-569 240,-566 243,-566 243,-566 289,-566 289,-566 292,-566 295,-569 295,-572 295,-572 295,-578 295,-578 295,-581 292,-584 289,-584"/>
<text text-anchor="start" x="245" y="-572.8" font-family="Helvetica,sans-Serif" font-size="9.00">events.ts</text>
</a>
</g>
</g>
<!-- packages/sportident/src/utils/events.test.ts&#45;&gt;packages/sportident/src/utils/events.ts -->
<g id="edge11" class="edge">
<title>packages/sportident/src/utils/events.test.ts&#45;&gt;packages/sportident/src/utils/events.ts</title>
<path fill="none" stroke="#000000" stroke-width="2" stroke-opacity="0.200000" d="M153.61,-575C177.33,-575 207.6,-575 230.59,-575"/>
<polygon fill="#000000" fill-opacity="0.200000" stroke="#000000" stroke-width="2" stroke-opacity="0.200000" points="230.87,-577.1 236.87,-575 230.87,-572.9 230.87,-577.1"/>
</g>
<!-- packages/sportident/src/utils/mixins.ts -->
<g id="node15" class="node">
<title>packages/sportident/src/utils/mixins.ts</title>
<g id="a_node15"><a xlink:href="packages/sportident/src/utils/mixins.ts" xlink:title="mixins.ts">
<path fill="#ddfeff" stroke="black" d="M288.5,-554C288.5,-554 243.5,-554 243.5,-554 240.5,-554 237.5,-551 237.5,-548 237.5,-548 237.5,-542 237.5,-542 237.5,-539 240.5,-536 243.5,-536 243.5,-536 288.5,-536 288.5,-536 291.5,-536 294.5,-539 294.5,-542 294.5,-542 294.5,-548 294.5,-548 294.5,-551 291.5,-554 288.5,-554"/>
<text text-anchor="start" x="245.5" y="-542.8" font-family="Helvetica,sans-Serif" font-size="9.00">mixins.ts</text>
</a>
</g>
</g>
<!-- packages/sportident/src/utils/events.test.ts&#45;&gt;packages/sportident/src/utils/mixins.ts -->
<g id="edge12" class="edge">
<title>packages/sportident/src/utils/events.test.ts&#45;&gt;packages/sportident/src/utils/mixins.ts</title>
<path fill="none" stroke="#000000" stroke-width="2" stroke-opacity="0.200000" d="M153.61,-567.35C177.59,-562.54 208.26,-556.39 231.34,-551.75"/>
<polygon fill="#000000" fill-opacity="0.200000" stroke="#000000" stroke-width="2" stroke-opacity="0.200000" points="231.87,-553.79 237.34,-550.55 231.05,-549.67 231.87,-553.79"/>
</g>
<!-- packages/sportident/src/utils/general.test.ts -->
<g id="node16" class="node">
<title>packages/sportident/src/utils/general.test.ts</title>
<g id="a_node16"><a xlink:href="packages/sportident/src/utils/general.test.ts" xlink:title="general.test.ts">
<path fill="#ddfeff" stroke="black" d="M149.5,-374C149.5,-374 79.5,-374 79.5,-374 76.5,-374 73.5,-371 73.5,-368 73.5,-368 73.5,-362 73.5,-362 73.5,-359 76.5,-356 79.5,-356 79.5,-356 149.5,-356 149.5,-356 152.5,-356 155.5,-359 155.5,-362 155.5,-362 155.5,-368 155.5,-368 155.5,-371 152.5,-374 149.5,-374"/>
<text text-anchor="start" x="81.5" y="-362.8" font-family="Helvetica,sans-Serif" font-size="9.00">general.test.ts</text>
</a>
</g>
</g>
<!-- packages/sportident/src/utils/general.test.ts&#45;&gt;node_modules/@jest/globals/build/index.js -->
<g id="edge16" class="edge">
<title>packages/sportident/src/utils/general.test.ts&#45;&gt;node_modules/@jest/globals/build/index.js</title>
<path fill="none" stroke="#000000" stroke-opacity="0.200000" d="M123.97,-355.83C148.94,-328.76 222.44,-249.12 252.23,-216.83"/>
<polygon fill="#000000" fill-opacity="0.200000" stroke="#000000" stroke-opacity="0.200000" points="254.1,-217.91 256.63,-212.07 251.01,-215.06 254.1,-217.91"/>
</g>
<!-- packages/sportident/src/utils/general.test.ts&#45;&gt;node_modules/immutable/dist/immutable.js -->
<g id="edge17" class="edge">
<title>packages/sportident/src/utils/general.test.ts&#45;&gt;node_modules/immutable/dist/immutable.js</title>
<path fill="none" stroke="#000000" stroke-opacity="0.200000" d="M119.01,-355.94C129.69,-328.77 163.46,-245.95 202,-183 217.5,-157.69 239.25,-130.87 252.72,-115.05"/>
<polygon fill="#000000" fill-opacity="0.200000" stroke="#000000" stroke-opacity="0.200000" points="254.63,-116.05 256.95,-110.13 251.44,-113.31 254.63,-116.05"/>
</g>
<!-- packages/sportident/src/utils/general.test.ts&#45;&gt;node_modules/lodash/lodash.js -->
<g id="edge18" class="edge">
<title>packages/sportident/src/utils/general.test.ts&#45;&gt;node_modules/lodash/lodash.js</title>
<path fill="none" stroke="#000000" stroke-opacity="0.200000" d="M116.26,-355.77C119.75,-318.22 136.96,-174.51 202,-81 212.4,-66.05 228.89,-53.72 242.4,-45.31"/>
<polygon fill="#000000" fill-opacity="0.200000" stroke="#000000" stroke-opacity="0.200000" points="243.55,-47.07 247.6,-42.16 241.38,-43.47 243.55,-47.07"/>
</g>
<!-- packages/sportident/src/utils/general.test.ts&#45;&gt;packages/sportident/src/testUtils.ts -->
<g id="edge14" class="edge">
<title>packages/sportident/src/utils/general.test.ts&#45;&gt;packages/sportident/src/testUtils.ts</title>
<path fill="none" stroke="#000000" stroke-width="2" stroke-opacity="0.200000" d="M155.78,-364.11C168.19,-365.97 180.74,-370.44 189,-380 222.91,-419.24 168.44,-573.47 202,-613 208.37,-620.5 217.77,-624.5 227.39,-626.52"/>
<polygon fill="#000000" fill-opacity="0.200000" stroke="#000000" stroke-width="2" stroke-opacity="0.200000" points="227.11,-628.6 233.38,-627.54 227.81,-624.46 227.11,-628.6"/>
</g>
<!-- packages/sportident/src/utils/general.ts -->
<g id="node17" class="node">
<title>packages/sportident/src/utils/general.ts</title>
<g id="a_node17"><a xlink:href="packages/sportident/src/utils/general.ts" xlink:title="general.ts">
<path fill="#ddfeff" stroke="black" d="M291,-374C291,-374 241,-374 241,-374 238,-374 235,-371 235,-368 235,-368 235,-362 235,-362 235,-359 238,-356 241,-356 241,-356 291,-356 291,-356 294,-356 297,-359 297,-362 297,-362 297,-368 297,-368 297,-371 294,-374 291,-374"/>
<text text-anchor="start" x="243" y="-362.8" font-family="Helvetica,sans-Serif" font-size="9.00">general.ts</text>
</a>
</g>
</g>
<!-- packages/sportident/src/utils/general.test.ts&#45;&gt;packages/sportident/src/utils/general.ts -->
<g id="edge15" class="edge">
<title>packages/sportident/src/utils/general.test.ts&#45;&gt;packages/sportident/src/utils/general.ts</title>
<path fill="none" stroke="#000000" stroke-width="2" stroke-opacity="0.200000" d="M155.56,-365C178.33,-365 206.62,-365 228.73,-365"/>
<polygon fill="#000000" fill-opacity="0.200000" stroke="#000000" stroke-width="2" stroke-opacity="0.200000" points="228.79,-367.1 234.79,-365 228.79,-362.9 228.79,-367.1"/>
</g>
<!-- packages/sportident/src/utils/index.ts -->
<g id="node18" class="node">
<title>packages/sportident/src/utils/index.ts</title>
<g id="a_node18"><a xlink:href="packages/sportident/src/utils/index.ts" xlink:title="index.ts">
<path fill="#ddfeff" stroke="black" d="M135.5,-554C135.5,-554 93.5,-554 93.5,-554 90.5,-554 87.5,-551 87.5,-548 87.5,-548 87.5,-542 87.5,-542 87.5,-539 90.5,-536 93.5,-536 93.5,-536 135.5,-536 135.5,-536 138.5,-536 141.5,-539 141.5,-542 141.5,-542 141.5,-548 141.5,-548 141.5,-551 138.5,-554 135.5,-554"/>
<text text-anchor="start" x="96" y="-542.8" font-family="Helvetica,sans-Serif" font-size="9.00">index.ts</text>
</a>
</g>
</g>
<!-- packages/sportident/src/utils/index.ts&#45;&gt;packages/sportident/src/utils/NumberRange.ts -->
<g id="edge24" class="edge">
<title>packages/sportident/src/utils/index.ts&#45;&gt;packages/sportident/src/utils/NumberRange.ts</title>
<path fill="none" stroke="#000000" stroke-width="2" stroke-opacity="0.200000" d="M141.56,-546.37C157.32,-545.75 176.68,-542.17 189,-530 208.41,-510.82 182.9,-489.49 202,-470 205.37,-466.56 209.39,-463.84 213.73,-461.72"/>
<polygon fill="#000000" fill-opacity="0.200000" stroke="#000000" stroke-width="2" stroke-opacity="0.200000" points="214.68,-463.6 219.38,-459.32 213.04,-459.73 214.68,-463.6"/>
</g>
<!-- packages/sportident/src/utils/index.ts&#45;&gt;packages/sportident/src/utils/NumberRangeRegistry.ts -->
<g id="edge25" class="edge">
<title>packages/sportident/src/utils/index.ts&#45;&gt;packages/sportident/src/utils/NumberRangeRegistry.ts</title>
<path fill="none" stroke="#000000" stroke-width="2" stroke-opacity="0.200000" d="M141.83,-545.43C157.1,-544.37 175.85,-540.67 189,-530 200.28,-520.84 190.87,-509.34 202,-500 203.21,-498.99 204.47,-498.04 205.78,-497.16"/>
<polygon fill="#000000" fill-opacity="0.200000" stroke="#000000" stroke-width="2" stroke-opacity="0.200000" points="206.94,-498.91 211.04,-494.05 204.81,-495.29 206.94,-498.91"/>
</g>
<!-- packages/sportident/src/utils/index.ts&#45;&gt;packages/sportident/src/utils/bytes.ts -->
<g id="edge19" class="edge">
<title>packages/sportident/src/utils/index.ts&#45;&gt;packages/sportident/src/utils/bytes.ts</title>
<path fill="none" stroke="#000000" stroke-width="2" stroke-opacity="0.200000" d="M141.51,-546.67C157.45,-546.21 177.02,-542.69 189,-530 216.74,-500.61 174.74,-469.84 202,-440 209.81,-431.46 221.52,-427.36 232.74,-425.51"/>
<polygon fill="#000000" fill-opacity="0.200000" stroke="#000000" stroke-width="2" stroke-opacity="0.200000" points="233.22,-427.57 238.89,-424.7 232.67,-423.4 233.22,-427.57"/>
</g>
<!-- packages/sportident/src/utils/index.ts&#45;&gt;packages/sportident/src/utils/errors.ts -->
<g id="edge20" class="edge">
<title>packages/sportident/src/utils/index.ts&#45;&gt;packages/sportident/src/utils/errors.ts</title>
<path fill="none" stroke="#000000" stroke-width="2" stroke-opacity="0.200000" d="M141.66,-546.82C157.66,-546.41 177.25,-542.9 189,-530 225.12,-490.34 166.53,-450.24 202,-410 209.65,-401.32 221.34,-397.19 232.57,-395.36"/>
<polygon fill="#000000" fill-opacity="0.200000" stroke="#000000" stroke-width="2" stroke-opacity="0.200000" points="233.06,-397.42 238.74,-394.57 232.52,-393.25 233.06,-397.42"/>
</g>
<!-- packages/sportident/src/utils/index.ts&#45;&gt;packages/sportident/src/utils/events.ts -->
<g id="edge21" class="edge">
<title>packages/sportident/src/utils/index.ts&#45;&gt;packages/sportident/src/utils/events.ts</title>
<path fill="none" stroke="#000000" stroke-width="2" stroke-opacity="0.200000" d="M141.54,-550.23C166.35,-555.2 203.84,-562.73 231,-568.18"/>
<polygon fill="#000000" fill-opacity="0.200000" stroke="#000000" stroke-width="2" stroke-opacity="0.200000" points="230.68,-570.25 236.97,-569.38 231.5,-566.14 230.68,-570.25"/>
</g>
<!-- packages/sportident/src/utils/index.ts&#45;&gt;packages/sportident/src/utils/mixins.ts -->
<g id="edge23" class="edge">
<title>packages/sportident/src/utils/index.ts&#45;&gt;packages/sportident/src/utils/mixins.ts</title>
<path fill="none" stroke="#000000" stroke-width="2" stroke-opacity="0.200000" d="M141.54,-545C166.4,-545 204,-545 231.17,-545"/>
<polygon fill="#000000" fill-opacity="0.200000" stroke="#000000" stroke-width="2" stroke-opacity="0.200000" points="231.49,-547.1 237.49,-545 231.49,-542.9 231.49,-547.1"/>
</g>
<!-- packages/sportident/src/utils/index.ts&#45;&gt;packages/sportident/src/utils/general.ts -->
<g id="edge22" class="edge">
<title>packages/sportident/src/utils/index.ts&#45;&gt;packages/sportident/src/utils/general.ts</title>
<path fill="none" stroke="#000000" stroke-width="2" stroke-opacity="0.200000" d="M141.76,-546.9C157.79,-546.53 177.39,-543.03 189,-530 211.26,-505.02 180.15,-405.34 202,-380 208.75,-372.17 218.78,-368.03 228.86,-365.94"/>
<polygon fill="#000000" fill-opacity="0.200000" stroke="#000000" stroke-width="2" stroke-opacity="0.200000" points="229.22,-368.01 234.78,-364.93 228.51,-363.87 229.22,-368.01"/>
</g>
<!-- packages/sportident/src/utils/typed.ts -->
<g id="node19" class="node">
<title>packages/sportident/src/utils/typed.ts</title>
<g id="a_node19"><a xlink:href="packages/sportident/src/utils/typed.ts" xlink:title="typed.ts">
<path fill="#ddfeff" stroke="black" d="M287,-524C287,-524 245,-524 245,-524 242,-524 239,-521 239,-518 239,-518 239,-512 239,-512 239,-509 242,-506 245,-506 245,-506 287,-506 287,-506 290,-506 293,-509 293,-512 293,-512 293,-518 293,-518 293,-521 290,-524 287,-524"/>
<text text-anchor="start" x="247" y="-512.8" font-family="Helvetica,sans-Serif" font-size="9.00">typed.ts</text>
</a>
</g>
</g>
<!-- packages/sportident/src/utils/index.ts&#45;&gt;packages/sportident/src/utils/typed.ts -->
<g id="edge26" class="edge">
<title>packages/sportident/src/utils/index.ts&#45;&gt;packages/sportident/src/utils/typed.ts</title>
<path fill="none" stroke="#000000" stroke-width="2" stroke-opacity="0.200000" d="M141.54,-539.77C166.9,-534.69 205.49,-526.94 232.77,-521.47"/>
<polygon fill="#000000" fill-opacity="0.200000" stroke="#000000" stroke-width="2" stroke-opacity="0.200000" points="233.29,-523.51 238.76,-520.27 232.46,-519.39 233.29,-523.51"/>
</g>
<!-- packages/sportident/src/utils/mixins.test.ts -->
<g id="node20" class="node">
<title>packages/sportident/src/utils/mixins.test.ts</title>
<g id="a_node20"><a xlink:href="packages/sportident/src/utils/mixins.test.ts" xlink:title="mixins.test.ts">
<path fill="#ddfeff" stroke="black" d="M147,-524C147,-524 82,-524 82,-524 79,-524 76,-521 76,-518 76,-518 76,-512 76,-512 76,-509 79,-506 82,-506 82,-506 147,-506 147,-506 150,-506 153,-509 153,-512 153,-512 153,-518 153,-518 153,-521 150,-524 147,-524"/>
<text text-anchor="start" x="84" y="-512.8" font-family="Helvetica,sans-Serif" font-size="9.00">mixins.test.ts</text>
</a>
</g>
</g>
<!-- packages/sportident/src/utils/mixins.test.ts&#45;&gt;node_modules/@jest/globals/build/index.js -->
<g id="edge28" class="edge">
<title>packages/sportident/src/utils/mixins.test.ts&#45;&gt;node_modules/@jest/globals/build/index.js</title>
<path fill="none" stroke="#000000" stroke-opacity="0.200000" d="M153.33,-516.07C166.45,-514.41 180.09,-510.03 189,-500 211.96,-474.16 193.43,-378.49 202,-345 214.51,-296.14 242.36,-242.89 256.46,-217.74"/>
<polygon fill="#000000" fill-opacity="0.200000" stroke="#000000" stroke-opacity="0.200000" points="258.45,-218.5 259.58,-212.24 254.79,-216.43 258.45,-218.5"/>
</g>
<!-- packages/sportident/src/utils/mixins.test.ts&#45;&gt;packages/sportident/src/utils/mixins.ts -->
<g id="edge27" class="edge">
<title>packages/sportident/src/utils/mixins.test.ts&#45;&gt;packages/sportident/src/utils/mixins.ts</title>
<path fill="none" stroke="#000000" stroke-width="2" stroke-opacity="0.200000" d="M153.23,-522.57C177.21,-527.38 207.99,-533.56 231.17,-538.21"/>
<polygon fill="#000000" fill-opacity="0.200000" stroke="#000000" stroke-width="2" stroke-opacity="0.200000" points="230.9,-540.3 237.2,-539.42 231.73,-536.18 230.9,-540.3"/>
</g>
</g>
</svg>
