<?xml version="1.0" encoding="UTF-8" standalone="no"?>
<!DOCTYPE svg PUBLIC "-//W3C//DTD SVG 1.1//EN"
 "http://www.w3.org/Graphics/SVG/1.1/DTD/svg11.dtd">
<!-- Generated by graphviz version 2.38.0 (20140413.2041)
 -->
<!-- Title: dependency&#45;cruiser output Pages: 1 -->
<svg width="487pt" height="969pt"
 viewBox="0.00 0.00 487.00 968.96" xmlns="http://www.w3.org/2000/svg" xmlns:xlink="http://www.w3.org/1999/xlink">
<g id="graph0" class="graph" transform="scale(1 1) rotate(0) translate(4 964.963)">
<title>dependency&#45;cruiser output</title>
<polygon fill="white" stroke="none" points="-4,4 -4,-964.963 483,-964.963 483,4 -4,4"/>
<g id="clust1" class="cluster"><title>cluster_node_modules</title>
<path fill="#ffffff" stroke="black" stroke-width="2" d="M391,-94.9633C391,-94.9633 460,-94.9633 460,-94.9633 466,-94.9633 472,-100.963 472,-106.963 472,-106.963 472,-168.963 472,-168.963 472,-174.963 466,-180.963 460,-180.963 460,-180.963 391,-180.963 391,-180.963 385,-180.963 379,-174.963 379,-168.963 379,-168.963 379,-106.963 379,-106.963 379,-100.963 385,-94.9633 391,-94.9633"/>
<text text-anchor="middle" x="425.5" y="-169.763" font-family="Helvetica,sans-Serif" font-weight="bold" font-size="9.00">node_modules</text>
</g>
<g id="clust2" class="cluster"><title>cluster_node_modules/lodash</title>
<path fill="#ffffff" stroke="black" stroke-width="2" d="M400,-102.963C400,-102.963 451,-102.963 451,-102.963 457,-102.963 463,-108.963 463,-114.963 463,-114.963 463,-142.963 463,-142.963 463,-148.963 457,-154.963 451,-154.963 451,-154.963 400,-154.963 400,-154.963 394,-154.963 388,-148.963 388,-142.963 388,-142.963 388,-114.963 388,-114.963 388,-108.963 394,-102.963 400,-102.963"/>
<text text-anchor="middle" x="425.5" y="-143.763" font-family="Helvetica,sans-Serif" font-weight="bold" font-size="9.00">lodash</text>
</g>
<g id="clust3" class="cluster"><title>cluster_src</title>
<path fill="#ffffff" stroke="black" stroke-width="2" d="M20,-188.963C20,-188.963 458.5,-188.963 458.5,-188.963 464.5,-188.963 470.5,-194.963 470.5,-200.963 470.5,-200.963 470.5,-940.963 470.5,-940.963 470.5,-946.963 464.5,-952.963 458.5,-952.963 458.5,-952.963 20,-952.963 20,-952.963 14,-952.963 8,-946.963 8,-940.963 8,-940.963 8,-200.963 8,-200.963 8,-194.963 14,-188.963 20,-188.963"/>
<text text-anchor="middle" x="239.25" y="-941.763" font-family="Helvetica,sans-Serif" font-weight="bold" font-size="9.00">src</text>
</g>
<g id="clust4" class="cluster"><title>cluster_src/SiCard</title>
<path fill="#ffffff" stroke="black" stroke-width="2" d="M28,-216.963C28,-216.963 359,-216.963 359,-216.963 365,-216.963 371,-222.963 371,-228.963 371,-228.963 371,-790.963 371,-790.963 371,-796.963 365,-802.963 359,-802.963 359,-802.963 28,-802.963 28,-802.963 22,-802.963 16,-796.963 16,-790.963 16,-790.963 16,-228.963 16,-228.963 16,-222.963 22,-216.963 28,-216.963"/>
<text text-anchor="middle" x="193.5" y="-791.763" font-family="Helvetica,sans-Serif" font-weight="bold" font-size="9.00">SiCard</text>
</g>
<g id="clust5" class="cluster"><title>cluster_src/SiCard/types</title>
<path fill="#ffffff" stroke="black" stroke-width="2" d="M36,-354.963C36,-354.963 351,-354.963 351,-354.963 357,-354.963 363,-360.963 363,-366.963 363,-366.963 363,-724.963 363,-724.963 363,-730.963 357,-736.963 351,-736.963 351,-736.963 36,-736.963 36,-736.963 30,-736.963 24,-730.963 24,-724.963 24,-724.963 24,-366.963 24,-366.963 24,-360.963 30,-354.963 36,-354.963"/>
<text text-anchor="middle" x="193.5" y="-725.763" font-family="Helvetica,sans-Serif" font-weight="bold" font-size="9.00">types</text>
</g>
<g id="clust6" class="cluster"><title>cluster_src/utils</title>
<path fill="#ffffff" stroke="black" stroke-width="2" d="M402.5,-270.963C402.5,-270.963 448.5,-270.963 448.5,-270.963 454.5,-270.963 460.5,-276.963 460.5,-282.963 460.5,-282.963 460.5,-310.963 460.5,-310.963 460.5,-316.963 454.5,-322.963 448.5,-322.963 448.5,-322.963 402.5,-322.963 402.5,-322.963 396.5,-322.963 390.5,-316.963 390.5,-310.963 390.5,-310.963 390.5,-282.963 390.5,-282.963 390.5,-276.963 396.5,-270.963 402.5,-270.963"/>
<text text-anchor="middle" x="425.5" y="-311.763" font-family="Helvetica,sans-Serif" font-weight="bold" font-size="9.00">utils</text>
</g>
<!-- node_modules/lodash/lodash.js -->
<g id="node1" class="node"><title>node_modules/lodash/lodash.js</title>
<g id="a_node1"><a xlink:href="node_modules/lodash/lodash.js" xlink:title="lodash.js">
<polygon fill="#c40b0a" fill-opacity="0.101961" stroke="black" points="455,-128.963 453.5,-130.963 443,-130.963 441.5,-128.963 396,-128.963 396,-110.963 455,-110.963 455,-128.963"/>
<text text-anchor="middle" x="425.5" y="-117.763" font-family="Helvetica,sans-Serif" font-size="9.00" fill="#c40b0a">lodash.js</text>
</a>
</g>
</g>
<!-- src/SiCard/BaseSiCard.js -->
<g id="node2" class="node"><title>src/SiCard/BaseSiCard.js</title>
<g id="a_node2"><a xlink:href="src/SiCard/BaseSiCard.js" xlink:title="BaseSiCard.js">
<path fill="#ffffcc" stroke="black" d="M343,-346.963C343,-346.963 275,-346.963 275,-346.963 272,-346.963 269,-343.963 269,-340.963 269,-340.963 269,-334.963 269,-334.963 269,-331.963 272,-328.963 275,-328.963 275,-328.963 343,-328.963 343,-328.963 346,-328.963 349,-331.963 349,-334.963 349,-334.963 349,-340.963 349,-340.963 349,-343.963 346,-346.963 343,-346.963"/>
<text text-anchor="middle" x="309" y="-335.763" font-family="Helvetica,sans-Serif" font-size="9.00">BaseSiCard.js</text>
</a>
</g>
</g>
<!-- src/SiCard/BaseSiCard.js&#45;&gt;node_modules/lodash/lodash.js -->
<g id="edge4" class="edge"><title>src/SiCard/BaseSiCard.js&#45;&gt;node_modules/lodash/lodash.js</title>
<path fill="none" stroke="#000000" stroke-width="2" stroke-opacity="0.466667" d="M314.749,-328.94C325.018,-309.429 350.052,-261.849 371,-221.963 386.43,-192.583 404.339,-158.428 415.027,-138.037"/>
<polygon fill="#000000" fill-opacity="0.466667" stroke="#000000" stroke-width="2" stroke-opacity="0.466667" points="418.237,-139.452 419.78,-128.97 412.037,-136.203 418.237,-139.452"/>
</g>
<!-- src/constants.js -->
<g id="node29" class="node"><title>src/constants.js</title>
<g id="a_node29"><a xlink:href="src/constants.js" xlink:title="constants.js">
<path fill="#ffffcc" stroke="black" d="M456.5,-864.963C456.5,-864.963 394.5,-864.963 394.5,-864.963 391.5,-864.963 388.5,-861.963 388.5,-858.963 388.5,-858.963 388.5,-852.963 388.5,-852.963 388.5,-849.963 391.5,-846.963 394.5,-846.963 394.5,-846.963 456.5,-846.963 456.5,-846.963 459.5,-846.963 462.5,-849.963 462.5,-852.963 462.5,-852.963 462.5,-858.963 462.5,-858.963 462.5,-861.963 459.5,-864.963 456.5,-864.963"/>
<text text-anchor="middle" x="425.5" y="-853.763" font-family="Helvetica,sans-Serif" font-size="9.00">constants.js</text>
</a>
</g>
</g>
<!-- src/SiCard/BaseSiCard.js&#45;&gt;src/constants.js -->
<g id="edge1" class="edge"><title>src/SiCard/BaseSiCard.js&#45;&gt;src/constants.js</title>
<path fill="none" stroke="#000000" stroke-width="2" stroke-opacity="0.466667" d="M349.312,-339.3C357.626,-341.483 365.529,-345.349 371,-351.963 378.689,-361.26 377.831,-556.956 379,-568.963 388.868,-670.335 411.47,-790.315 420.584,-836.505"/>
<polygon fill="#000000" fill-opacity="0.466667" stroke="#000000" stroke-width="2" stroke-opacity="0.466667" points="417.209,-837.478 422.594,-846.602 424.074,-836.111 417.209,-837.478"/>
</g>
<!-- src/siProtocol.js -->
<g id="node30" class="node"><title>src/siProtocol.js</title>
<g id="a_node30"><a xlink:href="src/siProtocol.js" xlink:title="siProtocol.js">
<path fill="#ffffcc" stroke="black" d="M456.5,-562.963C456.5,-562.963 394.5,-562.963 394.5,-562.963 391.5,-562.963 388.5,-559.963 388.5,-556.963 388.5,-556.963 388.5,-550.963 388.5,-550.963 388.5,-547.963 391.5,-544.963 394.5,-544.963 394.5,-544.963 456.5,-544.963 456.5,-544.963 459.5,-544.963 462.5,-547.963 462.5,-550.963 462.5,-550.963 462.5,-556.963 462.5,-556.963 462.5,-559.963 459.5,-562.963 456.5,-562.963"/>
<text text-anchor="middle" x="425.5" y="-551.763" font-family="Helvetica,sans-Serif" font-size="9.00">siProtocol.js</text>
</a>
</g>
</g>
<!-- src/SiCard/BaseSiCard.js&#45;&gt;src/siProtocol.js -->
<g id="edge2" class="edge"><title>src/SiCard/BaseSiCard.js&#45;&gt;src/siProtocol.js</title>
<path fill="none" stroke="#000000" stroke-width="2" stroke-opacity="0.466667" d="M349.26,-340.479C357.277,-342.656 365.064,-346.222 371,-351.963 397.443,-377.54 415.567,-489.374 421.956,-534.74"/>
<polygon fill="#000000" fill-opacity="0.466667" stroke="#000000" stroke-width="2" stroke-opacity="0.466667" points="418.502,-535.316 423.325,-544.749 425.437,-534.367 418.502,-535.316"/>
</g>
<!-- src/utils/index.js -->
<g id="node32" class="node"><title>src/utils/index.js</title>
<g id="a_node32"><a xlink:href="src/utils/index.js" xlink:title="index.js">
<path fill="#ffffcc" stroke="black" d="M446.5,-296.963C446.5,-296.963 404.5,-296.963 404.5,-296.963 401.5,-296.963 398.5,-293.963 398.5,-290.963 398.5,-290.963 398.5,-284.963 398.5,-284.963 398.5,-281.963 401.5,-278.963 404.5,-278.963 404.5,-278.963 446.5,-278.963 446.5,-278.963 449.5,-278.963 452.5,-281.963 452.5,-284.963 452.5,-284.963 452.5,-290.963 452.5,-290.963 452.5,-293.963 449.5,-296.963 446.5,-296.963"/>
<text text-anchor="middle" x="425.5" y="-285.763" font-family="Helvetica,sans-Serif" font-size="9.00">index.js</text>
</a>
</g>
</g>
<!-- src/SiCard/BaseSiCard.js&#45;&gt;src/utils/index.js -->
<g id="edge3" class="edge"><title>src/SiCard/BaseSiCard.js&#45;&gt;src/utils/index.js</title>
<path fill="none" stroke="#000000" stroke-width="2" stroke-opacity="0.466667" d="M349.103,-331.971C357.035,-329.314 364.827,-325.483 371,-319.963 377.83,-313.856 372.144,-307.041 379,-300.963 381.874,-298.416 385.216,-296.365 388.758,-294.715"/>
<polygon fill="#000000" fill-opacity="0.466667" stroke="#000000" stroke-width="2" stroke-opacity="0.466667" points="390.212,-297.911 398.423,-291.215 387.828,-291.329 390.212,-297.911"/>
</g>
<!-- src/SiCard/BaseSiCard.test.js -->
<g id="node3" class="node"><title>src/SiCard/BaseSiCard.test.js</title>
<g id="a_node3"><a xlink:href="src/SiCard/BaseSiCard.test.js" xlink:title="BaseSiCard.test.js">
<path fill="#ffffcc" stroke="black" d="M238,-776.963C238,-776.963 148,-776.963 148,-776.963 145,-776.963 142,-773.963 142,-770.963 142,-770.963 142,-764.963 142,-764.963 142,-761.963 145,-758.963 148,-758.963 148,-758.963 238,-758.963 238,-758.963 241,-758.963 244,-761.963 244,-764.963 244,-764.963 244,-770.963 244,-770.963 244,-773.963 241,-776.963 238,-776.963"/>
<text text-anchor="middle" x="193" y="-765.763" font-family="Helvetica,sans-Serif" font-size="9.00">BaseSiCard.test.js</text>
</a>
</g>
</g>
<!-- src/SiCard/BaseSiCard.test.js&#45;&gt;src/SiCard/BaseSiCard.js -->
<g id="edge8" class="edge"><title>src/SiCard/BaseSiCard.test.js&#45;&gt;src/SiCard/BaseSiCard.js</title>
<path fill="none" stroke="#000000" stroke-width="2" stroke-opacity="0.466667" d="M239.778,-758.913C243.708,-756.567 247.233,-753.632 250,-749.963 275.187,-716.571 240.415,-422.106 264.229,-355.477"/>
<polygon fill="#000000" fill-opacity="0.466667" stroke="#000000" stroke-width="2" stroke-opacity="0.466667" points="267.492,-356.786 268.973,-346.295 261.273,-353.573 267.492,-356.786"/>
</g>
<!-- src/SiCard/BaseSiCard.test.js&#45;&gt;src/constants.js -->
<g id="edge5" class="edge"><title>src/SiCard/BaseSiCard.test.js&#45;&gt;src/constants.js</title>
<path fill="none" stroke="#000000" stroke-width="2" stroke-opacity="0.466667" d="M244.01,-776.077C246.176,-777.482 248.193,-779.1 250,-780.963 270.51,-802.113 240.805,-826.59 263,-845.963 279.584,-860.439 336.388,-860.939 377.953,-859.149"/>
<polygon fill="#000000" fill-opacity="0.466667" stroke="#000000" stroke-width="2" stroke-opacity="0.466667" points="378.34,-862.635 388.158,-858.652 378,-855.643 378.34,-862.635"/>
</g>
<!-- src/SiCard/BaseSiCard.test.js&#45;&gt;src/siProtocol.js -->
<g id="edge6" class="edge"><title>src/SiCard/BaseSiCard.test.js&#45;&gt;src/siProtocol.js</title>
<path fill="none" stroke="#000000" stroke-width="2" stroke-opacity="0.466667" d="M244.175,-776.323C246.269,-777.668 248.228,-779.206 250,-780.963 267.526,-798.348 243.609,-819.687 263,-834.963 281.852,-849.816 352.51,-850.265 371,-834.963 411.446,-801.491 421.576,-631.63 423.878,-573.503"/>
<polygon fill="#000000" fill-opacity="0.466667" stroke="#000000" stroke-width="2" stroke-opacity="0.466667" points="427.388,-573.281 424.249,-563.162 420.392,-573.03 427.388,-573.281"/>
</g>
<!-- src/testUtils.js -->
<g id="node31" class="node"><title>src/testUtils.js</title>
<g id="a_node31"><a xlink:href="src/testUtils.js" xlink:title="testUtils.js">
<path fill="#ffffcc" stroke="black" d="M336,-828.963C336,-828.963 282,-828.963 282,-828.963 279,-828.963 276,-825.963 276,-822.963 276,-822.963 276,-816.963 276,-816.963 276,-813.963 279,-810.963 282,-810.963 282,-810.963 336,-810.963 336,-810.963 339,-810.963 342,-813.963 342,-816.963 342,-816.963 342,-822.963 342,-822.963 342,-825.963 339,-828.963 336,-828.963"/>
<text text-anchor="middle" x="309" y="-817.763" font-family="Helvetica,sans-Serif" font-size="9.00">testUtils.js</text>
</a>
</g>
</g>
<!-- src/SiCard/BaseSiCard.test.js&#45;&gt;src/testUtils.js -->
<g id="edge7" class="edge"><title>src/SiCard/BaseSiCard.test.js&#45;&gt;src/testUtils.js</title>
<path fill="none" stroke="#000000" stroke-width="2" stroke-opacity="0.466667" d="M239.393,-776.995C243.036,-778.173 246.613,-779.491 250,-780.963 264.049,-787.07 278.348,-796.639 289.233,-804.77"/>
<polygon fill="#000000" fill-opacity="0.466667" stroke="#000000" stroke-width="2" stroke-opacity="0.466667" points="287.105,-807.549 297.16,-810.889 291.382,-802.008 287.105,-807.549"/>
</g>
<!-- src/SiCard/index.js -->
<g id="node4" class="node"><title>src/SiCard/index.js</title>
<g id="a_node4"><a xlink:href="src/SiCard/index.js" xlink:title="index.js">
<path fill="#ffffcc" stroke="black" d="M98.5,-762.963C98.5,-762.963 56.5,-762.963 56.5,-762.963 53.5,-762.963 50.5,-759.963 50.5,-756.963 50.5,-756.963 50.5,-750.963 50.5,-750.963 50.5,-747.963 53.5,-744.963 56.5,-744.963 56.5,-744.963 98.5,-744.963 98.5,-744.963 101.5,-744.963 104.5,-747.963 104.5,-750.963 104.5,-750.963 104.5,-756.963 104.5,-756.963 104.5,-759.963 101.5,-762.963 98.5,-762.963"/>
<text text-anchor="middle" x="77.5" y="-751.763" font-family="Helvetica,sans-Serif" font-size="9.00">index.js</text>
</a>
</g>
</g>
<!-- src/SiCard/index.js&#45;&gt;src/SiCard/BaseSiCard.js -->
<g id="edge9" class="edge"><title>src/SiCard/index.js&#45;&gt;src/SiCard/BaseSiCard.js</title>
<path fill="none" stroke="#000000" stroke-width="2" stroke-opacity="0.466667" d="M104.735,-752.731C151.547,-750.406 245.066,-745.14 250,-739.963 278.134,-710.447 241.325,-420.667 264.354,-355.295"/>
<polygon fill="#000000" fill-opacity="0.466667" stroke="#000000" stroke-width="2" stroke-opacity="0.466667" points="267.52,-356.791 268.975,-346.297 261.293,-353.593 267.52,-356.791"/>
</g>
<!-- src/SiCard/types/index.js -->
<g id="node27" class="node"><title>src/SiCard/types/index.js</title>
<g id="a_node27"><a xlink:href="src/SiCard/types/index.js" xlink:title="index.js">
<path fill="#ffffcc" stroke="black" d="M214,-710.963C214,-710.963 172,-710.963 172,-710.963 169,-710.963 166,-707.963 166,-704.963 166,-704.963 166,-698.963 166,-698.963 166,-695.963 169,-692.963 172,-692.963 172,-692.963 214,-692.963 214,-692.963 217,-692.963 220,-695.963 220,-698.963 220,-698.963 220,-704.963 220,-704.963 220,-707.963 217,-710.963 214,-710.963"/>
<text text-anchor="middle" x="193" y="-699.763" font-family="Helvetica,sans-Serif" font-size="9.00">index.js</text>
</a>
</g>
</g>
<!-- src/SiCard/index.js&#45;&gt;src/SiCard/types/index.js -->
<g id="edge10" class="edge"><title>src/SiCard/index.js&#45;&gt;src/SiCard/types/index.js</title>
<path fill="none" stroke="#000000" stroke-width="2" stroke-opacity="0.466667" d="M104.713,-749.418C111.205,-747.346 117.788,-744.336 123,-739.963 132.594,-731.914 126.104,-722.639 136,-714.963 141.67,-710.566 148.571,-707.613 155.566,-705.64"/>
<polygon fill="#000000" fill-opacity="0.466667" stroke="#000000" stroke-width="2" stroke-opacity="0.466667" points="156.735,-708.967 165.747,-703.397 155.228,-702.131 156.735,-708.967"/>
</g>
<!-- src/SiCard/types/FCard.js -->
<g id="node5" class="node"><title>src/SiCard/types/FCard.js</title>
<g id="a_node5"><a xlink:href="src/SiCard/types/FCard.js" xlink:title="FCard.js">
<path fill="#ffffcc" stroke="black" d="M214,-500.963C214,-500.963 172,-500.963 172,-500.963 169,-500.963 166,-497.963 166,-494.963 166,-494.963 166,-488.963 166,-488.963 166,-485.963 169,-482.963 172,-482.963 172,-482.963 214,-482.963 214,-482.963 217,-482.963 220,-485.963 220,-488.963 220,-488.963 220,-494.963 220,-494.963 220,-497.963 217,-500.963 214,-500.963"/>
<text text-anchor="middle" x="193" y="-489.763" font-family="Helvetica,sans-Serif" font-size="9.00">FCard.js</text>
</a>
</g>
</g>
<!-- src/SiCard/types/FCard.js&#45;&gt;src/SiCard/BaseSiCard.js -->
<g id="edge11" class="edge"><title>src/SiCard/types/FCard.js&#45;&gt;src/SiCard/BaseSiCard.js</title>
<path fill="none" stroke="#000000" stroke-width="2" stroke-opacity="0.466667" d="M220.277,-491.204C231.05,-489.482 242.683,-485.539 250,-476.963 284.2,-436.879 233.941,-399.632 262.679,-354.858"/>
<polygon fill="#000000" fill-opacity="0.466667" stroke="#000000" stroke-width="2" stroke-opacity="0.466667" points="265.581,-356.821 268.745,-346.71 259.966,-352.641 265.581,-356.821"/>
</g>
<!-- src/SiCard/types/FCard.test.js -->
<g id="node6" class="node"><title>src/SiCard/types/FCard.test.js</title>
<g id="a_node6"><a xlink:href="src/SiCard/types/FCard.test.js" xlink:title="FCard.test.js">
<path fill="#ffffcc" stroke="black" d="M109.5,-470.963C109.5,-470.963 45.5,-470.963 45.5,-470.963 42.5,-470.963 39.5,-467.963 39.5,-464.963 39.5,-464.963 39.5,-458.963 39.5,-458.963 39.5,-455.963 42.5,-452.963 45.5,-452.963 45.5,-452.963 109.5,-452.963 109.5,-452.963 112.5,-452.963 115.5,-455.963 115.5,-458.963 115.5,-458.963 115.5,-464.963 115.5,-464.963 115.5,-467.963 112.5,-470.963 109.5,-470.963"/>
<text text-anchor="middle" x="77.5" y="-459.763" font-family="Helvetica,sans-Serif" font-size="9.00">FCard.test.js</text>
</a>
</g>
</g>
<!-- src/SiCard/types/FCard.test.js&#45;&gt;src/SiCard/BaseSiCard.js -->
<g id="edge12" class="edge"><title>src/SiCard/types/FCard.test.js&#45;&gt;src/SiCard/BaseSiCard.js</title>
<path fill="none" stroke="#000000" stroke-width="2" stroke-opacity="0.466667" d="M115.803,-453.444C118.534,-451.673 120.997,-449.537 123,-446.963 146.13,-417.235 108.363,-303.556 136,-277.963 154.588,-260.751 226.678,-268.071 250,-277.963 270.132,-286.503 286.686,-305.83 296.884,-320.256"/>
<polygon fill="#000000" fill-opacity="0.466667" stroke="#000000" stroke-width="2" stroke-opacity="0.466667" points="294.173,-322.498 302.641,-328.865 299.992,-318.607 294.173,-322.498"/>
</g>
<!-- src/SiCard/types/FCard.test.js&#45;&gt;src/SiCard/types/FCard.js -->
<g id="edge13" class="edge"><title>src/SiCard/types/FCard.test.js&#45;&gt;src/SiCard/types/FCard.js</title>
<path fill="none" stroke="#000000" stroke-width="2" stroke-opacity="0.466667" d="M112.554,-470.964C126.32,-474.603 142.22,-478.806 156.162,-482.491"/>
<polygon fill="#000000" fill-opacity="0.466667" stroke="#000000" stroke-width="2" stroke-opacity="0.466667" points="155.347,-485.895 165.91,-485.067 157.136,-479.128 155.347,-485.895"/>
</g>
<!-- src/SiCard/types/ModernSiCard.js -->
<g id="node7" class="node"><title>src/SiCard/types/ModernSiCard.js</title>
<g id="a_node7"><a xlink:href="src/SiCard/types/ModernSiCard.js" xlink:title="ModernSiCard.js">
<path fill="#ffffcc" stroke="black" d="M349,-498.963C349,-498.963 269,-498.963 269,-498.963 266,-498.963 263,-495.963 263,-492.963 263,-492.963 263,-486.963 263,-486.963 263,-483.963 266,-480.963 269,-480.963 269,-480.963 349,-480.963 349,-480.963 352,-480.963 355,-483.963 355,-486.963 355,-486.963 355,-492.963 355,-492.963 355,-495.963 352,-498.963 349,-498.963"/>
<text text-anchor="middle" x="309" y="-487.763" font-family="Helvetica,sans-Serif" font-size="9.00">ModernSiCard.js</text>
</a>
</g>
</g>
<!-- src/SiCard/types/ModernSiCard.js&#45;&gt;node_modules/lodash/lodash.js -->
<g id="edge18" class="edge"><title>src/SiCard/types/ModernSiCard.js&#45;&gt;node_modules/lodash/lodash.js</title>
<path fill="none" stroke="#000000" stroke-width="2" stroke-opacity="0.466667" d="M355.162,-487.513C361.244,-485.289 366.817,-481.934 371,-476.963 378.481,-468.073 377.054,-279.419 379,-267.963 387.107,-220.235 406.326,-166.415 417.01,-138.694"/>
<polygon fill="#000000" fill-opacity="0.466667" stroke="#000000" stroke-width="2" stroke-opacity="0.466667" points="420.376,-139.698 420.767,-129.11 413.859,-137.142 420.376,-139.698"/>
</g>
<!-- src/SiCard/types/ModernSiCard.js&#45;&gt;src/SiCard/BaseSiCard.js -->
<g id="edge17" class="edge"><title>src/SiCard/types/ModernSiCard.js&#45;&gt;src/SiCard/BaseSiCard.js</title>
<path fill="none" stroke="#000000" stroke-width="2" stroke-opacity="0.466667" d="M309,-480.76C309,-439.621 309,-398.482 309,-357.342"/>
<polygon fill="#000000" fill-opacity="0.466667" stroke="#000000" stroke-width="2" stroke-opacity="0.466667" points="312.5,-357.166 309,-347.166 305.5,-357.166 312.5,-357.166"/>
</g>
<!-- src/SiCard/types/ModernSiCard.js&#45;&gt;src/constants.js -->
<g id="edge14" class="edge"><title>src/SiCard/types/ModernSiCard.js&#45;&gt;src/constants.js</title>
<path fill="none" stroke="#000000" stroke-width="2" stroke-opacity="0.466667" d="M355.114,-492.834C361.125,-495.017 366.689,-498.249 371,-502.963 380.97,-513.866 376.954,-554.332 379,-568.963 393.104,-669.833 413.261,-790.102 421.151,-836.437"/>
<polygon fill="#000000" fill-opacity="0.466667" stroke="#000000" stroke-width="2" stroke-opacity="0.466667" points="417.748,-837.3 422.882,-846.568 424.648,-836.121 417.748,-837.3"/>
</g>
<!-- src/SiCard/types/ModernSiCard.js&#45;&gt;src/siProtocol.js -->
<g id="edge15" class="edge"><title>src/SiCard/types/ModernSiCard.js&#45;&gt;src/siProtocol.js</title>
<path fill="none" stroke="#000000" stroke-width="2" stroke-opacity="0.466667" d="M355.307,-496.661C360.758,-498.318 366.116,-500.385 371,-502.963 386.735,-511.27 401.119,-525.54 411.001,-536.876"/>
<polygon fill="#000000" fill-opacity="0.466667" stroke="#000000" stroke-width="2" stroke-opacity="0.466667" points="408.536,-539.385 417.627,-544.826 413.913,-534.904 408.536,-539.385"/>
</g>
<!-- src/SiCard/types/ModernSiCard.js&#45;&gt;src/utils/index.js -->
<g id="edge16" class="edge"><title>src/SiCard/types/ModernSiCard.js&#45;&gt;src/utils/index.js</title>
<path fill="none" stroke="#000000" stroke-width="2" stroke-opacity="0.466667" d="M355.131,-487.486C361.217,-485.266 366.799,-481.919 371,-476.963 383.658,-462.03 366.86,-316.32 379,-300.963 381.563,-297.721 384.877,-295.251 388.546,-293.375"/>
<polygon fill="#000000" fill-opacity="0.466667" stroke="#000000" stroke-width="2" stroke-opacity="0.466667" points="389.999,-296.57 398.176,-289.833 387.583,-290 389.999,-296.57"/>
</g>
<!-- src/SiCard/types/ModernSiCard.test.js -->
<g id="node8" class="node"><title>src/SiCard/types/ModernSiCard.test.js</title>
<g id="a_node8"><a xlink:href="src/SiCard/types/ModernSiCard.test.js" xlink:title="ModernSiCard.test.js">
<path fill="#ffffcc" stroke="black" d="M244,-410.963C244,-410.963 142,-410.963 142,-410.963 139,-410.963 136,-407.963 136,-404.963 136,-404.963 136,-398.963 136,-398.963 136,-395.963 139,-392.963 142,-392.963 142,-392.963 244,-392.963 244,-392.963 247,-392.963 250,-395.963 250,-398.963 250,-398.963 250,-404.963 250,-404.963 250,-407.963 247,-410.963 244,-410.963"/>
<text text-anchor="middle" x="193" y="-399.763" font-family="Helvetica,sans-Serif" font-size="9.00">ModernSiCard.test.js</text>
</a>
</g>
</g>
<!-- src/SiCard/types/ModernSiCard.test.js&#45;&gt;node_modules/lodash/lodash.js -->
<g id="edge22" class="edge"><title>src/SiCard/types/ModernSiCard.test.js&#45;&gt;node_modules/lodash/lodash.js</title>
<path fill="none" stroke="#000000" stroke-width="2" stroke-opacity="0.466667" d="M194.815,-392.854C198.952,-348.867 219.17,-159.128 263,-123.963 297.247,-96.4874 350.001,-101.119 385.822,-108.865"/>
<polygon fill="#000000" fill-opacity="0.466667" stroke="#000000" stroke-width="2" stroke-opacity="0.466667" points="385.366,-112.353 395.9,-111.222 386.96,-105.537 385.366,-112.353"/>
</g>
<!-- src/SiCard/types/ModernSiCard.test.js&#45;&gt;src/SiCard/types/ModernSiCard.js -->
<g id="edge21" class="edge"><title>src/SiCard/types/ModernSiCard.test.js&#45;&gt;src/SiCard/types/ModernSiCard.js</title>
<path fill="none" stroke="#000000" stroke-width="2" stroke-opacity="0.466667" d="M242.748,-411.122C245.395,-412.773 247.848,-414.704 250,-416.963 266.69,-434.48 249.356,-452.432 261.267,-472.849"/>
<polygon fill="#000000" fill-opacity="0.466667" stroke="#000000" stroke-width="2" stroke-opacity="0.466667" points="258.518,-475.015 267.395,-480.798 264.062,-470.742 258.518,-475.015"/>
</g>
<!-- src/SiCard/types/ModernSiCard.test.js&#45;&gt;src/constants.js -->
<g id="edge19" class="edge"><title>src/SiCard/types/ModernSiCard.test.js&#45;&gt;src/constants.js</title>
<path fill="none" stroke="#000000" stroke-width="2" stroke-opacity="0.466667" d="M243.176,-411.123C245.684,-412.777 247.991,-414.709 250,-416.963 276.302,-446.48 235.177,-476.876 263,-504.963 297.196,-539.484 336.595,-487.651 371,-521.963 371.709,-522.671 410.127,-765.141 421.414,-836.456"/>
<polygon fill="#000000" fill-opacity="0.466667" stroke="#000000" stroke-width="2" stroke-opacity="0.466667" points="418.016,-837.374 423.036,-846.704 424.93,-836.28 418.016,-837.374"/>
</g>
<!-- src/SiCard/types/ModernSiCard.test.js&#45;&gt;src/utils/index.js -->
<g id="edge20" class="edge"><title>src/SiCard/types/ModernSiCard.test.js&#45;&gt;src/utils/index.js</title>
<path fill="none" stroke="#000000" stroke-width="2" stroke-opacity="0.466667" d="M195.515,-392.72C200.197,-367.553 216.994,-297.827 263,-269.963 304.181,-245.022 362.225,-261.332 396.35,-274.979"/>
<polygon fill="#000000" fill-opacity="0.466667" stroke="#000000" stroke-width="2" stroke-opacity="0.466667" points="395.141,-278.268 405.717,-278.901 397.844,-271.811 395.141,-278.268"/>
</g>
<!-- src/SiCard/types/PCard.js -->
<g id="node9" class="node"><title>src/SiCard/types/PCard.js</title>
<g id="a_node9"><a xlink:href="src/SiCard/types/PCard.js" xlink:title="PCard.js">
<path fill="#ffffcc" stroke="black" d="M214.5,-440.963C214.5,-440.963 171.5,-440.963 171.5,-440.963 168.5,-440.963 165.5,-437.963 165.5,-434.963 165.5,-434.963 165.5,-428.963 165.5,-428.963 165.5,-425.963 168.5,-422.963 171.5,-422.963 171.5,-422.963 214.5,-422.963 214.5,-422.963 217.5,-422.963 220.5,-425.963 220.5,-428.963 220.5,-428.963 220.5,-434.963 220.5,-434.963 220.5,-437.963 217.5,-440.963 214.5,-440.963"/>
<text text-anchor="middle" x="193" y="-429.763" font-family="Helvetica,sans-Serif" font-size="9.00">PCard.js</text>
</a>
</g>
</g>
<!-- src/SiCard/types/PCard.js&#45;&gt;src/SiCard/BaseSiCard.js -->
<g id="edge23" class="edge"><title>src/SiCard/types/PCard.js&#45;&gt;src/SiCard/BaseSiCard.js</title>
<path fill="none" stroke="#000000" stroke-width="2" stroke-opacity="0.466667" d="M220.766,-430.722C231.23,-428.874 242.496,-424.966 250,-416.963 268.105,-397.655 248.254,-378.242 262.657,-354.948"/>
<polygon fill="#000000" fill-opacity="0.466667" stroke="#000000" stroke-width="2" stroke-opacity="0.466667" points="265.553,-356.926 268.959,-346.894 260.04,-352.613 265.553,-356.926"/>
</g>
<!-- src/SiCard/types/PCard.test.js -->
<g id="node10" class="node"><title>src/SiCard/types/PCard.test.js</title>
<g id="a_node10"><a xlink:href="src/SiCard/types/PCard.test.js" xlink:title="PCard.test.js">
<path fill="#ffffcc" stroke="black" d="M110,-410.963C110,-410.963 45,-410.963 45,-410.963 42,-410.963 39,-407.963 39,-404.963 39,-404.963 39,-398.963 39,-398.963 39,-395.963 42,-392.963 45,-392.963 45,-392.963 110,-392.963 110,-392.963 113,-392.963 116,-395.963 116,-398.963 116,-398.963 116,-404.963 116,-404.963 116,-407.963 113,-410.963 110,-410.963"/>
<text text-anchor="middle" x="77.5" y="-399.763" font-family="Helvetica,sans-Serif" font-size="9.00">PCard.test.js</text>
</a>
</g>
</g>
<!-- src/SiCard/types/PCard.test.js&#45;&gt;src/SiCard/BaseSiCard.js -->
<g id="edge24" class="edge"><title>src/SiCard/types/PCard.test.js&#45;&gt;src/SiCard/BaseSiCard.js</title>
<path fill="none" stroke="#000000" stroke-width="2" stroke-opacity="0.466667" d="M116.164,-393.139C118.742,-391.429 121.076,-389.391 123,-386.963 141.994,-362.996 113.377,-270.541 136,-249.963 154.74,-232.917 227.696,-237.951 250,-249.963 277.149,-264.585 293.689,-298.092 301.822,-319.283"/>
<polygon fill="#000000" fill-opacity="0.466667" stroke="#000000" stroke-width="2" stroke-opacity="0.466667" points="298.57,-320.583 305.235,-328.819 305.16,-318.224 298.57,-320.583"/>
</g>
<!-- src/SiCard/types/PCard.test.js&#45;&gt;src/SiCard/types/PCard.js -->
<g id="edge25" class="edge"><title>src/SiCard/types/PCard.test.js&#45;&gt;src/SiCard/types/PCard.js</title>
<path fill="none" stroke="#000000" stroke-width="2" stroke-opacity="0.466667" d="M112.554,-410.964C125.978,-414.513 141.432,-418.597 155.12,-422.215"/>
<polygon fill="#000000" fill-opacity="0.466667" stroke="#000000" stroke-width="2" stroke-opacity="0.466667" points="154.618,-425.703 165.181,-424.875 156.407,-418.935 154.618,-425.703"/>
</g>
<!-- src/SiCard/types/SIAC.js -->
<g id="node11" class="node"><title>src/SiCard/types/SIAC.js</title>
<g id="a_node11"><a xlink:href="src/SiCard/types/SIAC.js" xlink:title="SIAC.js">
<path fill="#ffffcc" stroke="black" d="M214,-620.963C214,-620.963 172,-620.963 172,-620.963 169,-620.963 166,-617.963 166,-614.963 166,-614.963 166,-608.963 166,-608.963 166,-605.963 169,-602.963 172,-602.963 172,-602.963 214,-602.963 214,-602.963 217,-602.963 220,-605.963 220,-608.963 220,-608.963 220,-614.963 220,-614.963 220,-617.963 217,-620.963 214,-620.963"/>
<text text-anchor="middle" x="193" y="-609.763" font-family="Helvetica,sans-Serif" font-size="9.00">SIAC.js</text>
</a>
</g>
</g>
<!-- src/SiCard/types/SIAC.js&#45;&gt;src/SiCard/BaseSiCard.js -->
<g id="edge26" class="edge"><title>src/SiCard/types/SIAC.js&#45;&gt;src/SiCard/BaseSiCard.js</title>
<path fill="none" stroke="#000000" stroke-width="2" stroke-opacity="0.466667" d="M220.196,-611.422C231.089,-609.758 242.839,-605.799 250,-596.963 282.517,-556.839 235.057,-411.505 263.197,-355.164"/>
<polygon fill="#000000" fill-opacity="0.466667" stroke="#000000" stroke-width="2" stroke-opacity="0.466667" points="266.219,-356.933 268.626,-346.615 260.31,-353.18 266.219,-356.933"/>
</g>
<!-- src/SiCard/types/SIAC.js&#45;&gt;src/SiCard/types/ModernSiCard.js -->
<g id="edge27" class="edge"><title>src/SiCard/types/SIAC.js&#45;&gt;src/SiCard/types/ModernSiCard.js</title>
<path fill="none" stroke="#000000" stroke-width="2" stroke-opacity="0.466667" d="M220.141,-611.086C230.888,-609.341 242.539,-605.414 250,-596.963 275.732,-567.816 241.61,-539.623 261.085,-507.313"/>
<polygon fill="#000000" fill-opacity="0.466667" stroke="#000000" stroke-width="2" stroke-opacity="0.466667" points="264.102,-509.12 267.26,-499.006 258.485,-504.943 264.102,-509.12"/>
</g>
<!-- src/SiCard/types/SIAC.test.js -->
<g id="node12" class="node"><title>src/SiCard/types/SIAC.test.js</title>
<g id="a_node12"><a xlink:href="src/SiCard/types/SIAC.test.js" xlink:title="SIAC.test.js">
<path fill="#ffffcc" stroke="black" d="M106,-590.963C106,-590.963 49,-590.963 49,-590.963 46,-590.963 43,-587.963 43,-584.963 43,-584.963 43,-578.963 43,-578.963 43,-575.963 46,-572.963 49,-572.963 49,-572.963 106,-572.963 106,-572.963 109,-572.963 112,-575.963 112,-578.963 112,-578.963 112,-584.963 112,-584.963 112,-587.963 109,-590.963 106,-590.963"/>
<text text-anchor="middle" x="77.5" y="-579.763" font-family="Helvetica,sans-Serif" font-size="9.00">SIAC.test.js</text>
</a>
</g>
</g>
<!-- src/SiCard/types/SIAC.test.js&#45;&gt;node_modules/lodash/lodash.js -->
<g id="edge31" class="edge"><title>src/SiCard/types/SIAC.test.js&#45;&gt;node_modules/lodash/lodash.js</title>
<path fill="none" stroke="#000000" stroke-width="2" stroke-opacity="0.466667" d="M112.147,-575.755C116.375,-573.621 120.194,-570.769 123,-566.963 140.182,-543.659 115.273,-66.1795 136,-45.9633 210.769,26.9631 277.995,1.56234 371,-45.9633 393.539,-57.481 408.775,-83.4168 417.049,-101.306"/>
<polygon fill="#000000" fill-opacity="0.466667" stroke="#000000" stroke-width="2" stroke-opacity="0.466667" points="413.944,-102.944 421.119,-110.739 420.371,-100.17 413.944,-102.944"/>
</g>
<!-- src/SiCard/types/SIAC.test.js&#45;&gt;src/SiCard/BaseSiCard.js -->
<g id="edge29" class="edge"><title>src/SiCard/types/SIAC.test.js&#45;&gt;src/SiCard/BaseSiCard.js</title>
<path fill="none" stroke="#000000" stroke-width="2" stroke-opacity="0.466667" d="M112.042,-575.676C116.285,-573.553 120.136,-570.726 123,-566.963 138.707,-546.333 117.162,-351.78 136,-333.963 153.063,-317.826 214.062,-323.023 258.583,-329.434"/>
<polygon fill="#000000" fill-opacity="0.466667" stroke="#000000" stroke-width="2" stroke-opacity="0.466667" points="258.25,-332.923 268.658,-330.944 259.288,-326 258.25,-332.923"/>
</g>
<!-- src/SiCard/types/SIAC.test.js&#45;&gt;src/SiCard/types/SIAC.js -->
<g id="edge30" class="edge"><title>src/SiCard/types/SIAC.test.js&#45;&gt;src/SiCard/types/SIAC.js</title>
<path fill="none" stroke="#000000" stroke-width="2" stroke-opacity="0.466667" d="M112.246,-590.883C126.023,-594.524 141.977,-598.741 155.979,-602.442"/>
<polygon fill="#000000" fill-opacity="0.466667" stroke="#000000" stroke-width="2" stroke-opacity="0.466667" points="155.208,-605.859 165.77,-605.03 156.997,-599.091 155.208,-605.859"/>
</g>
<!-- src/SiCard/types/SIAC.test.js&#45;&gt;src/constants.js -->
<g id="edge28" class="edge"><title>src/SiCard/types/SIAC.test.js&#45;&gt;src/constants.js</title>
<path fill="none" stroke="#000000" stroke-width="2" stroke-opacity="0.466667" d="M112.08,-588.222C116.317,-590.349 120.157,-593.185 123,-596.963 142.462,-622.824 112.609,-865.594 136,-887.963 154.871,-906.01 345.832,-894.916 371,-887.963 383.175,-884.6 395.367,-877.653 405.032,-871.089"/>
<polygon fill="#000000" fill-opacity="0.466667" stroke="#000000" stroke-width="2" stroke-opacity="0.466667" points="407.365,-873.722 413.44,-865.042 403.278,-868.039 407.365,-873.722"/>
</g>
<!-- src/SiCard/types/SiCard10.js -->
<g id="node13" class="node"><title>src/SiCard/types/SiCard10.js</title>
<g id="a_node13"><a xlink:href="src/SiCard/types/SiCard10.js" xlink:title="SiCard10.js">
<path fill="#ffffcc" stroke="black" d="M221.5,-650.963C221.5,-650.963 164.5,-650.963 164.5,-650.963 161.5,-650.963 158.5,-647.963 158.5,-644.963 158.5,-644.963 158.5,-638.963 158.5,-638.963 158.5,-635.963 161.5,-632.963 164.5,-632.963 164.5,-632.963 221.5,-632.963 221.5,-632.963 224.5,-632.963 227.5,-635.963 227.5,-638.963 227.5,-638.963 227.5,-644.963 227.5,-644.963 227.5,-647.963 224.5,-650.963 221.5,-650.963"/>
<text text-anchor="middle" x="193" y="-639.763" font-family="Helvetica,sans-Serif" font-size="9.00">SiCard10.js</text>
</a>
</g>
</g>
<!-- src/SiCard/types/SiCard10.js&#45;&gt;src/SiCard/BaseSiCard.js -->
<g id="edge32" class="edge"><title>src/SiCard/types/SiCard10.js&#45;&gt;src/SiCard/BaseSiCard.js</title>
<path fill="none" stroke="#000000" stroke-width="2" stroke-opacity="0.466667" d="M227.519,-639.973C236.09,-637.789 244.443,-633.861 250,-626.963 286.507,-581.647 231.469,-417.525 263.041,-355.345"/>
<polygon fill="#000000" fill-opacity="0.466667" stroke="#000000" stroke-width="2" stroke-opacity="0.466667" points="266.189,-356.918 268.612,-346.604 260.286,-353.156 266.189,-356.918"/>
</g>
<!-- src/SiCard/types/SiCard10.js&#45;&gt;src/SiCard/types/ModernSiCard.js -->
<g id="edge33" class="edge"><title>src/SiCard/types/SiCard10.js&#45;&gt;src/SiCard/types/ModernSiCard.js</title>
<path fill="none" stroke="#000000" stroke-width="2" stroke-opacity="0.466667" d="M227.559,-639.689C236.025,-637.488 244.314,-633.622 250,-626.963 283.876,-587.293 233.966,-550.076 260.865,-507.306"/>
<polygon fill="#000000" fill-opacity="0.466667" stroke="#000000" stroke-width="2" stroke-opacity="0.466667" points="263.687,-509.375 266.818,-499.253 258.059,-505.213 263.687,-509.375"/>
</g>
<!-- src/SiCard/types/SiCard10.test.js -->
<g id="node14" class="node"><title>src/SiCard/types/SiCard10.test.js</title>
<g id="a_node14"><a xlink:href="src/SiCard/types/SiCard10.test.js" xlink:title="SiCard10.test.js">
<path fill="#ffffcc" stroke="black" d="M117,-650.963C117,-650.963 38,-650.963 38,-650.963 35,-650.963 32,-647.963 32,-644.963 32,-644.963 32,-638.963 32,-638.963 32,-635.963 35,-632.963 38,-632.963 38,-632.963 117,-632.963 117,-632.963 120,-632.963 123,-635.963 123,-638.963 123,-638.963 123,-644.963 123,-644.963 123,-647.963 120,-650.963 117,-650.963"/>
<text text-anchor="middle" x="77.5" y="-639.763" font-family="Helvetica,sans-Serif" font-size="9.00">SiCard10.test.js</text>
</a>
</g>
</g>
<!-- src/SiCard/types/SiCard10.test.js&#45;&gt;node_modules/lodash/lodash.js -->
<g id="edge37" class="edge"><title>src/SiCard/types/SiCard10.test.js&#45;&gt;node_modules/lodash/lodash.js</title>
<path fill="none" stroke="#000000" stroke-width="2" stroke-opacity="0.466667" d="M117.146,-632.723C119.365,-631.1 121.357,-629.196 123,-626.963 141.283,-602.125 113.938,-93.5149 136,-71.9633 173.357,-35.4715 322.23,-53.2918 371,-71.9633 387.159,-78.1496 401.508,-91.7158 411.268,-102.853"/>
<polygon fill="#000000" fill-opacity="0.466667" stroke="#000000" stroke-width="2" stroke-opacity="0.466667" points="408.718,-105.261 417.791,-110.733 414.111,-100.798 408.718,-105.261"/>
</g>
<!-- src/SiCard/types/SiCard10.test.js&#45;&gt;src/SiCard/BaseSiCard.js -->
<g id="edge35" class="edge"><title>src/SiCard/types/SiCard10.test.js&#45;&gt;src/SiCard/BaseSiCard.js</title>
<path fill="none" stroke="#000000" stroke-width="2" stroke-opacity="0.466667" d="M116.686,-632.957C119.078,-631.284 121.23,-629.305 123,-626.963 140.779,-603.448 116.024,-383.644 136,-361.963 153.314,-343.172 224.707,-350.589 250,-346.963 252.837,-346.557 255.751,-346.131 258.69,-345.695"/>
<polygon fill="#000000" fill-opacity="0.466667" stroke="#000000" stroke-width="2" stroke-opacity="0.466667" points="259.34,-349.136 268.708,-344.186 258.298,-342.214 259.34,-349.136"/>
</g>
<!-- src/SiCard/types/SiCard10.test.js&#45;&gt;src/SiCard/types/SiCard10.js -->
<g id="edge36" class="edge"><title>src/SiCard/types/SiCard10.test.js&#45;&gt;src/SiCard/types/SiCard10.js</title>
<path fill="none" stroke="#000000" stroke-width="2" stroke-opacity="0.466667" d="M123.032,-641.963C131.329,-641.963 139.992,-641.963 148.264,-641.963"/>
<polygon fill="#000000" fill-opacity="0.466667" stroke="#000000" stroke-width="2" stroke-opacity="0.466667" points="148.478,-645.463 158.478,-641.963 148.478,-638.463 148.478,-645.463"/>
</g>
<!-- src/SiCard/types/SiCard10.test.js&#45;&gt;src/constants.js -->
<g id="edge34" class="edge"><title>src/SiCard/types/SiCard10.test.js&#45;&gt;src/constants.js</title>
<path fill="none" stroke="#000000" stroke-width="2" stroke-opacity="0.466667" d="M116.676,-650.978C119.07,-652.649 121.225,-654.626 123,-656.963 139.483,-678.676 116.22,-883.205 136,-901.963 154.946,-919.931 346.518,-911.041 371,-901.963 386.742,-896.126 400.963,-883.353 410.78,-872.745"/>
<polygon fill="#000000" fill-opacity="0.466667" stroke="#000000" stroke-width="2" stroke-opacity="0.466667" points="413.427,-875.035 417.38,-865.205 408.16,-870.424 413.427,-875.035"/>
</g>
<!-- src/SiCard/types/SiCard11.js -->
<g id="node15" class="node"><title>src/SiCard/types/SiCard11.js</title>
<g id="a_node15"><a xlink:href="src/SiCard/types/SiCard11.js" xlink:title="SiCard11.js">
<path fill="#ffffcc" stroke="black" d="M221.5,-680.963C221.5,-680.963 164.5,-680.963 164.5,-680.963 161.5,-680.963 158.5,-677.963 158.5,-674.963 158.5,-674.963 158.5,-668.963 158.5,-668.963 158.5,-665.963 161.5,-662.963 164.5,-662.963 164.5,-662.963 221.5,-662.963 221.5,-662.963 224.5,-662.963 227.5,-665.963 227.5,-668.963 227.5,-668.963 227.5,-674.963 227.5,-674.963 227.5,-677.963 224.5,-680.963 221.5,-680.963"/>
<text text-anchor="middle" x="193" y="-669.763" font-family="Helvetica,sans-Serif" font-size="9.00">SiCard11.js</text>
</a>
</g>
</g>
<!-- src/SiCard/types/SiCard11.js&#45;&gt;src/SiCard/BaseSiCard.js -->
<g id="edge38" class="edge"><title>src/SiCard/types/SiCard11.js&#45;&gt;src/SiCard/BaseSiCard.js</title>
<path fill="none" stroke="#000000" stroke-width="2" stroke-opacity="0.466667" d="M227.539,-669.99C236.111,-667.805 244.459,-663.874 250,-656.963 269.809,-632.257 245.932,-411.275 264.386,-355.564"/>
<polygon fill="#000000" fill-opacity="0.466667" stroke="#000000" stroke-width="2" stroke-opacity="0.466667" points="267.668,-356.825 268.998,-346.314 261.404,-353.702 267.668,-356.825"/>
</g>
<!-- src/SiCard/types/SiCard11.js&#45;&gt;src/SiCard/types/ModernSiCard.js -->
<g id="edge39" class="edge"><title>src/SiCard/types/SiCard11.js&#45;&gt;src/SiCard/types/ModernSiCard.js</title>
<path fill="none" stroke="#000000" stroke-width="2" stroke-opacity="0.466667" d="M227.647,-669.764C236.114,-667.563 244.381,-663.68 250,-656.963 270.229,-632.782 245.921,-545.603 261.571,-508.029"/>
<polygon fill="#000000" fill-opacity="0.466667" stroke="#000000" stroke-width="2" stroke-opacity="0.466667" points="264.7,-509.612 266.784,-499.224 258.677,-506.046 264.7,-509.612"/>
</g>
<!-- src/SiCard/types/SiCard11.test.js -->
<g id="node16" class="node"><title>src/SiCard/types/SiCard11.test.js</title>
<g id="a_node16"><a xlink:href="src/SiCard/types/SiCard11.test.js" xlink:title="SiCard11.test.js">
<path fill="#ffffcc" stroke="black" d="M117,-680.963C117,-680.963 38,-680.963 38,-680.963 35,-680.963 32,-677.963 32,-674.963 32,-674.963 32,-668.963 32,-668.963 32,-665.963 35,-662.963 38,-662.963 38,-662.963 117,-662.963 117,-662.963 120,-662.963 123,-665.963 123,-668.963 123,-668.963 123,-674.963 123,-674.963 123,-677.963 120,-680.963 117,-680.963"/>
<text text-anchor="middle" x="77.5" y="-669.763" font-family="Helvetica,sans-Serif" font-size="9.00">SiCard11.test.js</text>
</a>
</g>
</g>
<!-- src/SiCard/types/SiCard11.test.js&#45;&gt;node_modules/lodash/lodash.js -->
<g id="edge43" class="edge"><title>src/SiCard/types/SiCard11.test.js&#45;&gt;node_modules/lodash/lodash.js</title>
<path fill="none" stroke="#000000" stroke-width="2" stroke-opacity="0.466667" d="M117.132,-662.712C119.354,-661.091 121.35,-659.191 123,-656.963 152.309,-617.392 115.279,-258.635 136,-213.963 167.916,-145.156 192.168,-127.091 263,-99.9633 307.825,-82.7959 323.766,-91.4231 371,-99.9633 379.233,-101.452 387.851,-104.132 395.705,-107.056"/>
<polygon fill="#000000" fill-opacity="0.466667" stroke="#000000" stroke-width="2" stroke-opacity="0.466667" points="394.574,-110.373 405.16,-110.82 397.163,-103.869 394.574,-110.373"/>
</g>
<!-- src/SiCard/types/SiCard11.test.js&#45;&gt;src/SiCard/BaseSiCard.js -->
<g id="edge41" class="edge"><title>src/SiCard/types/SiCard11.test.js&#45;&gt;src/SiCard/BaseSiCard.js</title>
<path fill="none" stroke="#000000" stroke-width="2" stroke-opacity="0.466667" d="M116.693,-662.962C119.083,-661.288 121.233,-659.307 123,-656.963 141.815,-632.005 115.052,-399.16 136,-375.963 153.167,-356.954 225.695,-367.044 250,-358.963 256.227,-356.893 256.95,-354.505 263,-351.963 264.188,-351.464 265.4,-350.973 266.629,-350.492"/>
<polygon fill="#000000" fill-opacity="0.466667" stroke="#000000" stroke-width="2" stroke-opacity="0.466667" points="268.048,-353.7 276.252,-346.997 265.658,-347.121 268.048,-353.7"/>
</g>
<!-- src/SiCard/types/SiCard11.test.js&#45;&gt;src/SiCard/types/SiCard11.js -->
<g id="edge42" class="edge"><title>src/SiCard/types/SiCard11.test.js&#45;&gt;src/SiCard/types/SiCard11.js</title>
<path fill="none" stroke="#000000" stroke-width="2" stroke-opacity="0.466667" d="M123.032,-671.963C131.329,-671.963 139.992,-671.963 148.264,-671.963"/>
<polygon fill="#000000" fill-opacity="0.466667" stroke="#000000" stroke-width="2" stroke-opacity="0.466667" points="148.478,-675.463 158.478,-671.963 148.478,-668.463 148.478,-675.463"/>
</g>
<!-- src/SiCard/types/SiCard11.test.js&#45;&gt;src/constants.js -->
<g id="edge40" class="edge"><title>src/SiCard/types/SiCard11.test.js&#45;&gt;src/constants.js</title>
<path fill="none" stroke="#000000" stroke-width="2" stroke-opacity="0.466667" d="M116.666,-680.985C119.062,-682.654 121.221,-684.629 123,-686.963 138.448,-707.233 117.475,-898.461 136,-915.963 211.917,-987.693 275.688,-958.676 371,-915.963 390.223,-907.349 405.377,-888.035 414.577,-873.633"/>
<polygon fill="#000000" fill-opacity="0.466667" stroke="#000000" stroke-width="2" stroke-opacity="0.466667" points="417.59,-875.413 419.746,-865.04 411.592,-871.805 417.59,-875.413"/>
</g>
<!-- src/SiCard/types/SiCard5.js -->
<g id="node17" class="node"><title>src/SiCard/types/SiCard5.js</title>
<g id="a_node17"><a xlink:href="src/SiCard/types/SiCard5.js" xlink:title="SiCard5.js">
<path fill="#ffffcc" stroke="black" d="M218.5,-590.963C218.5,-590.963 167.5,-590.963 167.5,-590.963 164.5,-590.963 161.5,-587.963 161.5,-584.963 161.5,-584.963 161.5,-578.963 161.5,-578.963 161.5,-575.963 164.5,-572.963 167.5,-572.963 167.5,-572.963 218.5,-572.963 218.5,-572.963 221.5,-572.963 224.5,-575.963 224.5,-578.963 224.5,-578.963 224.5,-584.963 224.5,-584.963 224.5,-587.963 221.5,-590.963 218.5,-590.963"/>
<text text-anchor="middle" x="193" y="-579.763" font-family="Helvetica,sans-Serif" font-size="9.00">SiCard5.js</text>
</a>
</g>
</g>
<!-- src/SiCard/types/SiCard5.js&#45;&gt;node_modules/lodash/lodash.js -->
<g id="edge48" class="edge"><title>src/SiCard/types/SiCard5.js&#45;&gt;node_modules/lodash/lodash.js</title>
<path fill="none" stroke="#000000" stroke-width="2" stroke-opacity="0.466667" d="M224.582,-580.644C234.144,-578.634 243.803,-574.637 250,-566.963 268.312,-544.287 251.12,-331.579 263,-304.963 290.54,-243.262 327.698,-249.833 371,-197.963 387.363,-178.364 403.585,-153.799 413.801,-137.53"/>
<polygon fill="#000000" fill-opacity="0.466667" stroke="#000000" stroke-width="2" stroke-opacity="0.466667" points="416.788,-139.355 419.078,-129.011 410.837,-135.669 416.788,-139.355"/>
</g>
<!-- src/SiCard/types/SiCard5.js&#45;&gt;src/SiCard/BaseSiCard.js -->
<g id="edge47" class="edge"><title>src/SiCard/types/SiCard5.js&#45;&gt;src/SiCard/BaseSiCard.js</title>
<path fill="none" stroke="#000000" stroke-width="2" stroke-opacity="0.466667" d="M224.534,-580.606C234.093,-578.592 243.762,-574.604 250,-566.963 278.499,-532.06 238.692,-405.717 263.273,-355.15"/>
<polygon fill="#000000" fill-opacity="0.466667" stroke="#000000" stroke-width="2" stroke-opacity="0.466667" points="266.273,-356.955 268.643,-346.629 260.351,-353.223 266.273,-356.955"/>
</g>
<!-- src/SiCard/types/SiCard5.js&#45;&gt;src/constants.js -->
<g id="edge44" class="edge"><title>src/SiCard/types/SiCard5.js&#45;&gt;src/constants.js</title>
<path fill="none" stroke="#000000" stroke-width="2" stroke-opacity="0.466667" d="M224.511,-585.994C233.313,-588.21 242.545,-591.643 250,-596.963 340.882,-661.819 398.465,-789.923 417.514,-837.556"/>
<polygon fill="#000000" fill-opacity="0.466667" stroke="#000000" stroke-width="2" stroke-opacity="0.466667" points="414.274,-838.88 421.173,-846.92 420.794,-836.332 414.274,-838.88"/>
</g>
<!-- src/SiCard/types/SiCard5.js&#45;&gt;src/siProtocol.js -->
<g id="edge45" class="edge"><title>src/SiCard/types/SiCard5.js&#45;&gt;src/siProtocol.js</title>
<path fill="none" stroke="#000000" stroke-width="2" stroke-opacity="0.466667" d="M224.765,-579.223C260.126,-575.943 319.87,-570.002 371,-562.963 373.362,-562.638 375.78,-562.289 378.219,-561.925"/>
<polygon fill="#000000" fill-opacity="0.466667" stroke="#000000" stroke-width="2" stroke-opacity="0.466667" points="378.942,-565.354 388.284,-560.357 377.864,-558.438 378.942,-565.354"/>
</g>
<!-- src/SiCard/types/SiCard5.js&#45;&gt;src/utils/index.js -->
<g id="edge46" class="edge"><title>src/SiCard/types/SiCard5.js&#45;&gt;src/utils/index.js</title>
<path fill="none" stroke="#000000" stroke-width="2" stroke-opacity="0.466667" d="M224.568,-580.633C234.129,-578.622 243.791,-574.627 250,-566.963 284.462,-524.429 225.609,-360.947 263,-320.963 279.511,-303.307 348.921,-317.805 371,-307.963 375.315,-306.04 374.851,-303.222 379,-300.963 382.051,-299.302 385.335,-297.835 388.692,-296.544"/>
<polygon fill="#000000" fill-opacity="0.466667" stroke="#000000" stroke-width="2" stroke-opacity="0.466667" points="389.845,-299.849 398.214,-293.352 387.62,-293.212 389.845,-299.849"/>
</g>
<!-- src/SiCard/types/SiCard5.test.js -->
<g id="node18" class="node"><title>src/SiCard/types/SiCard5.test.js</title>
<g id="a_node18"><a xlink:href="src/SiCard/types/SiCard5.test.js" xlink:title="SiCard5.test.js">
<path fill="#ffffcc" stroke="black" d="M114,-560.963C114,-560.963 41,-560.963 41,-560.963 38,-560.963 35,-557.963 35,-554.963 35,-554.963 35,-548.963 35,-548.963 35,-545.963 38,-542.963 41,-542.963 41,-542.963 114,-542.963 114,-542.963 117,-542.963 120,-545.963 120,-548.963 120,-548.963 120,-554.963 120,-554.963 120,-557.963 117,-560.963 114,-560.963"/>
<text text-anchor="middle" x="77.5" y="-549.763" font-family="Helvetica,sans-Serif" font-size="9.00">SiCard5.test.js</text>
</a>
</g>
</g>
<!-- src/SiCard/types/SiCard5.test.js&#45;&gt;src/SiCard/BaseSiCard.js -->
<g id="edge51" class="edge"><title>src/SiCard/types/SiCard5.test.js&#45;&gt;src/SiCard/BaseSiCard.js</title>
<path fill="none" stroke="#000000" stroke-width="2" stroke-opacity="0.466667" d="M116.658,-542.936C119.056,-541.267 121.217,-539.295 123,-536.963 152.342,-498.586 100.834,-353.086 136,-319.963 154.441,-302.594 224.953,-316.166 250,-319.963 258.136,-321.197 266.702,-323.351 274.679,-325.75"/>
<polygon fill="#000000" fill-opacity="0.466667" stroke="#000000" stroke-width="2" stroke-opacity="0.466667" points="273.802,-329.144 284.393,-328.869 275.942,-322.48 273.802,-329.144"/>
</g>
<!-- src/SiCard/types/SiCard5.test.js&#45;&gt;src/SiCard/types/SiCard5.js -->
<g id="edge52" class="edge"><title>src/SiCard/types/SiCard5.test.js&#45;&gt;src/SiCard/types/SiCard5.js</title>
<path fill="none" stroke="#000000" stroke-width="2" stroke-opacity="0.466667" d="M112.554,-560.964C124.816,-564.206 138.772,-567.894 151.528,-571.266"/>
<polygon fill="#000000" fill-opacity="0.466667" stroke="#000000" stroke-width="2" stroke-opacity="0.466667" points="150.884,-574.716 161.446,-573.887 152.673,-567.948 150.884,-574.716"/>
</g>
<!-- src/SiCard/types/SiCard5.test.js&#45;&gt;src/constants.js -->
<g id="edge49" class="edge"><title>src/SiCard/types/SiCard5.test.js&#45;&gt;src/constants.js</title>
<path fill="none" stroke="#000000" stroke-width="2" stroke-opacity="0.466667" d="M117.099,-561.239C119.329,-562.854 121.336,-564.747 123,-566.963 143.499,-594.266 111.353,-850.338 136,-873.963 154.85,-892.032 345.232,-878.182 371,-873.963 378.38,-872.755 386.114,-870.668 393.336,-868.333"/>
<polygon fill="#000000" fill-opacity="0.466667" stroke="#000000" stroke-width="2" stroke-opacity="0.466667" points="394.484,-871.639 402.784,-865.054 392.189,-865.026 394.484,-871.639"/>
</g>
<!-- src/SiCard/types/SiCard5.test.js&#45;&gt;src/utils/index.js -->
<g id="edge50" class="edge"><title>src/SiCard/types/SiCard5.test.js&#45;&gt;src/utils/index.js</title>
<path fill="none" stroke="#000000" stroke-width="2" stroke-opacity="0.466667" d="M117.103,-542.691C119.332,-541.075 121.338,-539.181 123,-536.963 144.341,-508.488 110.332,-241.61 136,-216.963 172.547,-181.871 199.919,-209.284 250,-216.963 305.716,-225.506 319.729,-231.542 371,-254.963 382.133,-260.049 393.78,-267.012 403.354,-273.232"/>
<polygon fill="#000000" fill-opacity="0.466667" stroke="#000000" stroke-width="2" stroke-opacity="0.466667" points="401.553,-276.239 411.813,-278.882 405.441,-270.418 401.553,-276.239"/>
</g>
<!-- src/SiCard/types/SiCard6.js -->
<g id="node19" class="node"><title>src/SiCard/types/SiCard6.js</title>
<g id="a_node19"><a xlink:href="src/SiCard/types/SiCard6.js" xlink:title="SiCard6.js">
<path fill="#ffffcc" stroke="black" d="M218.5,-470.963C218.5,-470.963 167.5,-470.963 167.5,-470.963 164.5,-470.963 161.5,-467.963 161.5,-464.963 161.5,-464.963 161.5,-458.963 161.5,-458.963 161.5,-455.963 164.5,-452.963 167.5,-452.963 167.5,-452.963 218.5,-452.963 218.5,-452.963 221.5,-452.963 224.5,-455.963 224.5,-458.963 224.5,-458.963 224.5,-464.963 224.5,-464.963 224.5,-467.963 221.5,-470.963 218.5,-470.963"/>
<text text-anchor="middle" x="193" y="-459.763" font-family="Helvetica,sans-Serif" font-size="9.00">SiCard6.js</text>
</a>
</g>
</g>
<!-- src/SiCard/types/SiCard6.js&#45;&gt;node_modules/lodash/lodash.js -->
<g id="edge57" class="edge"><title>src/SiCard/types/SiCard6.js&#45;&gt;node_modules/lodash/lodash.js</title>
<path fill="none" stroke="#000000" stroke-width="2" stroke-opacity="0.466667" d="M224.607,-460.665C234.172,-458.656 243.825,-454.655 250,-446.963 270.678,-421.205 241.333,-174.896 263,-149.963 271.005,-140.752 340.504,-130.447 385.687,-124.629"/>
<polygon fill="#000000" fill-opacity="0.466667" stroke="#000000" stroke-width="2" stroke-opacity="0.466667" points="386.281,-128.081 395.762,-123.353 385.402,-121.137 386.281,-128.081"/>
</g>
<!-- src/SiCard/types/SiCard6.js&#45;&gt;src/SiCard/BaseSiCard.js -->
<g id="edge56" class="edge"><title>src/SiCard/types/SiCard6.js&#45;&gt;src/SiCard/BaseSiCard.js</title>
<path fill="none" stroke="#000000" stroke-width="2" stroke-opacity="0.466667" d="M224.501,-460.267C233.94,-458.214 243.544,-454.287 250,-446.963 276.09,-417.369 241.413,-389.023 262.589,-355.054"/>
<polygon fill="#000000" fill-opacity="0.466667" stroke="#000000" stroke-width="2" stroke-opacity="0.466667" points="265.605,-356.868 268.82,-346.772 260.011,-352.659 265.605,-356.868"/>
</g>
<!-- src/SiCard/types/SiCard6.js&#45;&gt;src/constants.js -->
<g id="edge53" class="edge"><title>src/SiCard/types/SiCard6.js&#45;&gt;src/constants.js</title>
<path fill="none" stroke="#000000" stroke-width="2" stroke-opacity="0.466667" d="M224.555,-464.288C233.772,-466.405 243.229,-470.212 250,-476.963 265.65,-492.57 250.541,-506.708 263,-524.963 296.673,-574.302 338.684,-554.725 371,-604.963 419.458,-680.295 424.801,-792.1 424.862,-836.638"/>
<polygon fill="#000000" fill-opacity="0.466667" stroke="#000000" stroke-width="2" stroke-opacity="0.466667" points="421.36,-836.864 424.778,-846.892 428.36,-836.921 421.36,-836.864"/>
</g>
<!-- src/SiCard/types/SiCard6.js&#45;&gt;src/siProtocol.js -->
<g id="edge54" class="edge"><title>src/SiCard/types/SiCard6.js&#45;&gt;src/siProtocol.js</title>
<path fill="none" stroke="#000000" stroke-width="2" stroke-opacity="0.466667" d="M224.773,-465.209C233.685,-467.393 242.911,-471.006 250,-476.963 260.503,-485.791 252.576,-496.043 263,-504.963 300.942,-537.432 323.322,-521.108 371,-535.963 376.754,-537.756 382.831,-539.726 388.744,-541.685"/>
<polygon fill="#000000" fill-opacity="0.466667" stroke="#000000" stroke-width="2" stroke-opacity="0.466667" points="387.86,-545.08 398.453,-544.938 390.083,-538.443 387.86,-545.08"/>
</g>
<!-- src/SiCard/types/SiCard6.js&#45;&gt;src/utils/index.js -->
<g id="edge55" class="edge"><title>src/SiCard/types/SiCard6.js&#45;&gt;src/utils/index.js</title>
<path fill="none" stroke="#000000" stroke-width="2" stroke-opacity="0.466667" d="M224.743,-460.475C234.2,-458.437 243.753,-454.466 250,-446.963 273.251,-419.039 236.304,-308.615 263,-283.963 280.523,-267.782 346.052,-274.868 388.061,-281.447"/>
<polygon fill="#000000" fill-opacity="0.466667" stroke="#000000" stroke-width="2" stroke-opacity="0.466667" points="387.759,-284.943 398.191,-283.094 388.883,-278.034 387.759,-284.943"/>
</g>
<!-- src/SiCard/types/SiCard6.test.js -->
<g id="node20" class="node"><title>src/SiCard/types/SiCard6.test.js</title>
<g id="a_node20"><a xlink:href="src/SiCard/types/SiCard6.test.js" xlink:title="SiCard6.test.js">
<path fill="#ffffcc" stroke="black" d="M114,-440.963C114,-440.963 41,-440.963 41,-440.963 38,-440.963 35,-437.963 35,-434.963 35,-434.963 35,-428.963 35,-428.963 35,-425.963 38,-422.963 41,-422.963 41,-422.963 114,-422.963 114,-422.963 117,-422.963 120,-425.963 120,-428.963 120,-428.963 120,-434.963 120,-434.963 120,-437.963 117,-440.963 114,-440.963"/>
<text text-anchor="middle" x="77.5" y="-429.763" font-family="Helvetica,sans-Serif" font-size="9.00">SiCard6.test.js</text>
</a>
</g>
</g>
<!-- src/SiCard/types/SiCard6.test.js&#45;&gt;src/SiCard/BaseSiCard.js -->
<g id="edge60" class="edge"><title>src/SiCard/types/SiCard6.test.js&#45;&gt;src/SiCard/BaseSiCard.js</title>
<path fill="none" stroke="#000000" stroke-width="2" stroke-opacity="0.466667" d="M116.594,-422.886C119.006,-421.229 121.188,-419.273 123,-416.963 144.062,-390.116 110.871,-287.048 136,-263.963 154.656,-246.825 227.222,-252.876 250,-263.963 273.543,-275.423 290.354,-301.576 299.626,-319.509"/>
<polygon fill="#000000" fill-opacity="0.466667" stroke="#000000" stroke-width="2" stroke-opacity="0.466667" points="296.582,-321.251 304.103,-328.713 302.876,-318.189 296.582,-321.251"/>
</g>
<!-- src/SiCard/types/SiCard6.test.js&#45;&gt;src/SiCard/types/SiCard6.js -->
<g id="edge61" class="edge"><title>src/SiCard/types/SiCard6.test.js&#45;&gt;src/SiCard/types/SiCard6.js</title>
<path fill="none" stroke="#000000" stroke-width="2" stroke-opacity="0.466667" d="M112.554,-440.964C124.816,-444.206 138.772,-447.894 151.528,-451.266"/>
<polygon fill="#000000" fill-opacity="0.466667" stroke="#000000" stroke-width="2" stroke-opacity="0.466667" points="150.884,-454.716 161.446,-453.887 152.673,-447.948 150.884,-454.716"/>
</g>
<!-- src/SiCard/types/SiCard6.test.js&#45;&gt;src/constants.js -->
<g id="edge58" class="edge"><title>src/SiCard/types/SiCard6.test.js&#45;&gt;src/constants.js</title>
<path fill="none" stroke="#000000" stroke-width="2" stroke-opacity="0.466667" d="M117.114,-441.227C119.34,-442.845 121.343,-444.741 123,-446.963 146.867,-478.957 112.939,-773.384 136,-805.963 189.106,-880.99 311.132,-874.973 378.217,-864.97"/>
<polygon fill="#000000" fill-opacity="0.466667" stroke="#000000" stroke-width="2" stroke-opacity="0.466667" points="379.164,-868.363 388.493,-863.342 378.069,-861.449 379.164,-868.363"/>
</g>
<!-- src/SiCard/types/SiCard6.test.js&#45;&gt;src/utils/index.js -->
<g id="edge59" class="edge"><title>src/SiCard/types/SiCard6.test.js&#45;&gt;src/utils/index.js</title>
<path fill="none" stroke="#000000" stroke-width="2" stroke-opacity="0.466667" d="M116.652,-422.931C119.051,-421.264 121.215,-419.293 123,-416.963 151.306,-380.028 102.089,-239.83 136,-207.963 212.904,-135.694 277.988,-192.107 371,-241.963 385.312,-249.635 399.147,-261.696 409.162,-271.543"/>
<polygon fill="#000000" fill-opacity="0.466667" stroke="#000000" stroke-width="2" stroke-opacity="0.466667" points="406.812,-274.146 416.311,-278.84 411.812,-269.247 406.812,-274.146"/>
</g>
<!-- src/SiCard/types/SiCard8.js -->
<g id="node21" class="node"><title>src/SiCard/types/SiCard8.js</title>
<g id="a_node21"><a xlink:href="src/SiCard/types/SiCard8.js" xlink:title="SiCard8.js">
<path fill="#ffffcc" stroke="black" d="M218.5,-530.963C218.5,-530.963 167.5,-530.963 167.5,-530.963 164.5,-530.963 161.5,-527.963 161.5,-524.963 161.5,-524.963 161.5,-518.963 161.5,-518.963 161.5,-515.963 164.5,-512.963 167.5,-512.963 167.5,-512.963 218.5,-512.963 218.5,-512.963 221.5,-512.963 224.5,-515.963 224.5,-518.963 224.5,-518.963 224.5,-524.963 224.5,-524.963 224.5,-527.963 221.5,-530.963 218.5,-530.963"/>
<text text-anchor="middle" x="193" y="-519.763" font-family="Helvetica,sans-Serif" font-size="9.00">SiCard8.js</text>
</a>
</g>
</g>
<!-- src/SiCard/types/SiCard8.js&#45;&gt;node_modules/lodash/lodash.js -->
<g id="edge66" class="edge"><title>src/SiCard/types/SiCard8.js&#45;&gt;node_modules/lodash/lodash.js</title>
<path fill="none" stroke="#000000" stroke-width="2" stroke-opacity="0.466667" d="M224.627,-520.681C234.193,-518.673 243.843,-514.669 250,-506.963 272.976,-478.209 239.784,-204.524 263,-175.963 294.208,-137.57 324.886,-166.894 371,-148.963 381.231,-144.985 391.971,-139.459 401.121,-134.296"/>
<polygon fill="#000000" fill-opacity="0.466667" stroke="#000000" stroke-width="2" stroke-opacity="0.466667" points="403.113,-137.186 409.992,-129.128 399.59,-131.138 403.113,-137.186"/>
</g>
<!-- src/SiCard/types/SiCard8.js&#45;&gt;src/SiCard/BaseSiCard.js -->
<g id="edge64" class="edge"><title>src/SiCard/types/SiCard8.js&#45;&gt;src/SiCard/BaseSiCard.js</title>
<path fill="none" stroke="#000000" stroke-width="2" stroke-opacity="0.466667" d="M224.726,-520.46C234.181,-518.421 243.738,-514.453 250,-506.963 270.44,-482.517 245.852,-394.324 263.303,-355.43"/>
<polygon fill="#000000" fill-opacity="0.466667" stroke="#000000" stroke-width="2" stroke-opacity="0.466667" points="266.433,-357.022 268.698,-346.672 260.473,-353.35 266.433,-357.022"/>
</g>
<!-- src/SiCard/types/SiCard8.js&#45;&gt;src/SiCard/types/ModernSiCard.js -->
<g id="edge65" class="edge"><title>src/SiCard/types/SiCard8.js&#45;&gt;src/SiCard/types/ModernSiCard.js</title>
<path fill="none" stroke="#000000" stroke-width="2" stroke-opacity="0.466667" d="M224.573,-513.992C232.843,-511.777 241.778,-509.328 250,-506.963 255.809,-505.292 257.207,-504.691 263,-502.963 264.227,-502.597 265.474,-502.227 266.733,-501.854"/>
<polygon fill="#000000" fill-opacity="0.466667" stroke="#000000" stroke-width="2" stroke-opacity="0.466667" points="267.899,-505.16 276.508,-498.986 265.928,-498.443 267.899,-505.16"/>
</g>
<!-- src/SiCard/types/SiCard8.js&#45;&gt;src/siProtocol.js -->
<g id="edge62" class="edge"><title>src/SiCard/types/SiCard8.js&#45;&gt;src/siProtocol.js</title>
<path fill="none" stroke="#000000" stroke-width="2" stroke-opacity="0.466667" d="M224.609,-526.213C264.001,-531.681 332.796,-541.232 378.5,-547.577"/>
<polygon fill="#000000" fill-opacity="0.466667" stroke="#000000" stroke-width="2" stroke-opacity="0.466667" points="378.064,-551.05 388.451,-548.959 379.027,-544.117 378.064,-551.05"/>
</g>
<!-- src/SiCard/types/SiCard8.js&#45;&gt;src/utils/index.js -->
<g id="edge63" class="edge"><title>src/SiCard/types/SiCard8.js&#45;&gt;src/utils/index.js</title>
<path fill="none" stroke="#000000" stroke-width="2" stroke-opacity="0.466667" d="M224.527,-520.6C234.085,-518.586 243.755,-514.598 250,-506.963 279.463,-470.944 230.091,-330.863 263,-297.963 279.941,-281.027 345.987,-282.218 388.192,-284.901"/>
<polygon fill="#000000" fill-opacity="0.466667" stroke="#000000" stroke-width="2" stroke-opacity="0.466667" points="388.146,-288.406 398.364,-285.605 388.629,-281.423 388.146,-288.406"/>
</g>
<!-- src/SiCard/types/SiCard8.test.js -->
<g id="node22" class="node"><title>src/SiCard/types/SiCard8.test.js</title>
<g id="a_node22"><a xlink:href="src/SiCard/types/SiCard8.test.js" xlink:title="SiCard8.test.js">
<path fill="#ffffcc" stroke="black" d="M114,-500.963C114,-500.963 41,-500.963 41,-500.963 38,-500.963 35,-497.963 35,-494.963 35,-494.963 35,-488.963 35,-488.963 35,-485.963 38,-482.963 41,-482.963 41,-482.963 114,-482.963 114,-482.963 117,-482.963 120,-485.963 120,-488.963 120,-488.963 120,-494.963 120,-494.963 120,-497.963 117,-500.963 114,-500.963"/>
<text text-anchor="middle" x="77.5" y="-489.763" font-family="Helvetica,sans-Serif" font-size="9.00">SiCard8.test.js</text>
</a>
</g>
</g>
<!-- src/SiCard/types/SiCard8.test.js&#45;&gt;src/SiCard/BaseSiCard.js -->
<g id="edge67" class="edge"><title>src/SiCard/types/SiCard8.test.js&#45;&gt;src/SiCard/BaseSiCard.js</title>
<path fill="none" stroke="#000000" stroke-width="2" stroke-opacity="0.466667" d="M116.631,-482.915C119.035,-481.252 121.205,-479.286 123,-476.963 148.2,-444.353 105.854,-320.065 136,-291.963 154.531,-274.689 226.077,-283.628 250,-291.963 266.798,-297.816 282.385,-310.786 293.162,-321.467"/>
<polygon fill="#000000" fill-opacity="0.466667" stroke="#000000" stroke-width="2" stroke-opacity="0.466667" points="290.658,-323.912 300.107,-328.705 295.709,-319.066 290.658,-323.912"/>
</g>
<!-- src/SiCard/types/SiCard8.test.js&#45;&gt;src/SiCard/types/SiCard8.js -->
<g id="edge68" class="edge"><title>src/SiCard/types/SiCard8.test.js&#45;&gt;src/SiCard/types/SiCard8.js</title>
<path fill="none" stroke="#000000" stroke-width="2" stroke-opacity="0.466667" d="M112.554,-500.964C124.816,-504.206 138.772,-507.894 151.528,-511.266"/>
<polygon fill="#000000" fill-opacity="0.466667" stroke="#000000" stroke-width="2" stroke-opacity="0.466667" points="150.884,-514.716 161.446,-513.887 152.673,-507.948 150.884,-514.716"/>
</g>
<!-- src/SiCard/types/SiCard9.js -->
<g id="node23" class="node"><title>src/SiCard/types/SiCard9.js</title>
<g id="a_node23"><a xlink:href="src/SiCard/types/SiCard9.js" xlink:title="SiCard9.js">
<path fill="#ffffcc" stroke="black" d="M218.5,-560.963C218.5,-560.963 167.5,-560.963 167.5,-560.963 164.5,-560.963 161.5,-557.963 161.5,-554.963 161.5,-554.963 161.5,-548.963 161.5,-548.963 161.5,-545.963 164.5,-542.963 167.5,-542.963 167.5,-542.963 218.5,-542.963 218.5,-542.963 221.5,-542.963 224.5,-545.963 224.5,-548.963 224.5,-548.963 224.5,-554.963 224.5,-554.963 224.5,-557.963 221.5,-560.963 218.5,-560.963"/>
<text text-anchor="middle" x="193" y="-549.763" font-family="Helvetica,sans-Serif" font-size="9.00">SiCard9.js</text>
</a>
</g>
</g>
<!-- src/SiCard/types/SiCard9.js&#45;&gt;node_modules/lodash/lodash.js -->
<g id="edge73" class="edge"><title>src/SiCard/types/SiCard9.js&#45;&gt;node_modules/lodash/lodash.js</title>
<path fill="none" stroke="#000000" stroke-width="2" stroke-opacity="0.466667" d="M224.629,-550.682C234.195,-548.675 243.844,-544.67 250,-536.963 273.247,-507.857 239.762,-231.077 263,-201.963 294.004,-163.119 327.907,-197.724 371,-172.963 386.872,-163.843 401.386,-148.845 411.28,-137.127"/>
<polygon fill="#000000" fill-opacity="0.466667" stroke="#000000" stroke-width="2" stroke-opacity="0.466667" points="414.042,-139.277 417.621,-129.305 408.604,-134.869 414.042,-139.277"/>
</g>
<!-- src/SiCard/types/SiCard9.js&#45;&gt;src/SiCard/BaseSiCard.js -->
<g id="edge71" class="edge"><title>src/SiCard/types/SiCard9.js&#45;&gt;src/SiCard/BaseSiCard.js</title>
<path fill="none" stroke="#000000" stroke-width="2" stroke-opacity="0.466667" d="M224.784,-550.509C234.244,-548.473 243.788,-544.495 250,-536.963 274.48,-507.28 242.285,-399.938 263.328,-355.194"/>
<polygon fill="#000000" fill-opacity="0.466667" stroke="#000000" stroke-width="2" stroke-opacity="0.466667" points="266.338,-356.983 268.666,-346.647 260.401,-353.275 266.338,-356.983"/>
</g>
<!-- src/SiCard/types/SiCard9.js&#45;&gt;src/SiCard/types/ModernSiCard.js -->
<g id="edge72" class="edge"><title>src/SiCard/types/SiCard9.js&#45;&gt;src/SiCard/types/ModernSiCard.js</title>
<path fill="none" stroke="#000000" stroke-width="2" stroke-opacity="0.466667" d="M224.743,-549.087C233.756,-546.924 243.048,-543.231 250,-536.963 259.857,-528.077 254.276,-518.259 261.323,-506.853"/>
<polygon fill="#000000" fill-opacity="0.466667" stroke="#000000" stroke-width="2" stroke-opacity="0.466667" points="264.131,-508.959 268.067,-499.123 258.856,-504.358 264.131,-508.959"/>
</g>
<!-- src/SiCard/types/SiCard9.js&#45;&gt;src/siProtocol.js -->
<g id="edge69" class="edge"><title>src/SiCard/types/SiCard9.js&#45;&gt;src/siProtocol.js</title>
<path fill="none" stroke="#000000" stroke-width="2" stroke-opacity="0.466667" d="M224.533,-555.192C236.512,-556.308 250.386,-557.416 263,-557.963 310.955,-560.044 323.033,-559.754 371,-557.963 373.356,-557.875 375.769,-557.766 378.205,-557.639"/>
<polygon fill="#000000" fill-opacity="0.466667" stroke="#000000" stroke-width="2" stroke-opacity="0.466667" points="378.486,-561.129 388.26,-557.041 378.069,-554.141 378.486,-561.129"/>
</g>
<!-- src/SiCard/types/SiCard9.js&#45;&gt;src/utils/index.js -->
<g id="edge70" class="edge"><title>src/SiCard/types/SiCard9.js&#45;&gt;src/utils/index.js</title>
<path fill="none" stroke="#000000" stroke-width="2" stroke-opacity="0.466667" d="M224.546,-550.615C234.105,-548.603 243.772,-544.612 250,-536.963 281.624,-498.127 229.211,-348.932 263,-311.963 265.111,-309.653 341.2,-299.105 388.171,-292.787"/>
<polygon fill="#000000" fill-opacity="0.466667" stroke="#000000" stroke-width="2" stroke-opacity="0.466667" points="388.838,-296.229 398.284,-291.431 387.908,-289.291 388.838,-296.229"/>
</g>
<!-- src/SiCard/types/SiCard9.test.js -->
<g id="node24" class="node"><title>src/SiCard/types/SiCard9.test.js</title>
<g id="a_node24"><a xlink:href="src/SiCard/types/SiCard9.test.js" xlink:title="SiCard9.test.js">
<path fill="#ffffcc" stroke="black" d="M114,-530.963C114,-530.963 41,-530.963 41,-530.963 38,-530.963 35,-527.963 35,-524.963 35,-524.963 35,-518.963 35,-518.963 35,-515.963 38,-512.963 41,-512.963 41,-512.963 114,-512.963 114,-512.963 117,-512.963 120,-515.963 120,-518.963 120,-518.963 120,-524.963 120,-524.963 120,-527.963 117,-530.963 114,-530.963"/>
<text text-anchor="middle" x="77.5" y="-519.763" font-family="Helvetica,sans-Serif" font-size="9.00">SiCard9.test.js</text>
</a>
</g>
</g>
<!-- src/SiCard/types/SiCard9.test.js&#45;&gt;src/SiCard/BaseSiCard.js -->
<g id="edge74" class="edge"><title>src/SiCard/types/SiCard9.test.js&#45;&gt;src/SiCard/BaseSiCard.js</title>
<path fill="none" stroke="#000000" stroke-width="2" stroke-opacity="0.466667" d="M116.646,-512.926C119.047,-511.26 121.212,-509.291 123,-506.963 150.271,-471.47 103.344,-336.575 136,-305.963 154.482,-288.638 225.467,-299.645 250,-305.963 263.265,-309.38 276.742,-316.544 287.362,-323.23"/>
<polygon fill="#000000" fill-opacity="0.466667" stroke="#000000" stroke-width="2" stroke-opacity="0.466667" points="285.613,-326.269 295.883,-328.875 289.48,-320.434 285.613,-326.269"/>
</g>
<!-- src/SiCard/types/SiCard9.test.js&#45;&gt;src/SiCard/types/SiCard9.js -->
<g id="edge75" class="edge"><title>src/SiCard/types/SiCard9.test.js&#45;&gt;src/SiCard/types/SiCard9.js</title>
<path fill="none" stroke="#000000" stroke-width="2" stroke-opacity="0.466667" d="M112.554,-530.964C124.816,-534.206 138.772,-537.894 151.528,-541.266"/>
<polygon fill="#000000" fill-opacity="0.466667" stroke="#000000" stroke-width="2" stroke-opacity="0.466667" points="150.884,-544.716 161.446,-543.887 152.673,-537.948 150.884,-544.716"/>
</g>
<!-- src/SiCard/types/TCard.js -->
<g id="node25" class="node"><title>src/SiCard/types/TCard.js</title>
<g id="a_node25"><a xlink:href="src/SiCard/types/TCard.js" xlink:title="TCard.js">
<path fill="#ffffcc" stroke="black" d="M98.5,-380.963C98.5,-380.963 56.5,-380.963 56.5,-380.963 53.5,-380.963 50.5,-377.963 50.5,-374.963 50.5,-374.963 50.5,-368.963 50.5,-368.963 50.5,-365.963 53.5,-362.963 56.5,-362.963 56.5,-362.963 98.5,-362.963 98.5,-362.963 101.5,-362.963 104.5,-365.963 104.5,-368.963 104.5,-368.963 104.5,-374.963 104.5,-374.963 104.5,-377.963 101.5,-380.963 98.5,-380.963"/>
<text text-anchor="middle" x="77.5" y="-369.763" font-family="Helvetica,sans-Serif" font-size="9.00">TCard.js</text>
</a>
</g>
</g>
<!-- src/SiCard/types/TCard.js&#45;&gt;src/SiCard/BaseSiCard.js -->
<g id="edge76" class="edge"><title>src/SiCard/types/TCard.js&#45;&gt;src/SiCard/BaseSiCard.js</title>
<path fill="none" stroke="#000000" stroke-width="2" stroke-opacity="0.466667" d="M79.0872,-362.888C81.2782,-337.48 91.3444,-265.566 136,-235.963 178.23,-207.968 206.205,-210.486 250,-235.963 280.692,-253.818 296.478,-294.646 303.427,-318.885"/>
<polygon fill="#000000" fill-opacity="0.466667" stroke="#000000" stroke-width="2" stroke-opacity="0.466667" points="300.084,-319.937 306.02,-328.713 306.853,-318.151 300.084,-319.937"/>
</g>
<!-- src/SiCard/types/TCard.test.js -->
<g id="node26" class="node"><title>src/SiCard/types/TCard.test.js</title>
<g id="a_node26"><a xlink:href="src/SiCard/types/TCard.test.js" xlink:title="TCard.test.js">
<path fill="#ffffcc" stroke="black" d="M109,-620.963C109,-620.963 46,-620.963 46,-620.963 43,-620.963 40,-617.963 40,-614.963 40,-614.963 40,-608.963 40,-608.963 40,-605.963 43,-602.963 46,-602.963 46,-602.963 109,-602.963 109,-602.963 112,-602.963 115,-605.963 115,-608.963 115,-608.963 115,-614.963 115,-614.963 115,-617.963 112,-620.963 109,-620.963"/>
<text text-anchor="middle" x="77.5" y="-609.763" font-family="Helvetica,sans-Serif" font-size="9.00">TCard.test.js</text>
</a>
</g>
</g>
<!-- src/SiCard/types/TCard.test.js&#45;&gt;src/SiCard/BaseSiCard.js -->
<g id="edge77" class="edge"><title>src/SiCard/types/TCard.test.js&#45;&gt;src/SiCard/BaseSiCard.js</title>
<path fill="none" stroke="#000000" stroke-width="2" stroke-opacity="0.466667" d="M115.048,-604.02C118.095,-602.14 120.832,-599.821 123,-596.963 139.742,-574.89 116.468,-367.611 136,-347.963 144.522,-339.391 210.854,-337.657 258.595,-337.544"/>
<polygon fill="#000000" fill-opacity="0.466667" stroke="#000000" stroke-width="2" stroke-opacity="0.466667" points="258.774,-341.044 268.774,-337.543 258.774,-334.044 258.774,-341.044"/>
</g>
<!-- src/SiCard/types/TCard.test.js&#45;&gt;src/SiCard/types/SIAC.js -->
<g id="edge78" class="edge"><title>src/SiCard/types/TCard.test.js&#45;&gt;src/SiCard/types/SIAC.js</title>
<path fill="none" stroke="#000000" stroke-width="2" stroke-opacity="0.466667" d="M115.037,-611.963C128.127,-611.963 142.868,-611.963 155.92,-611.963"/>
<polygon fill="#000000" fill-opacity="0.466667" stroke="#000000" stroke-width="2" stroke-opacity="0.466667" points="155.961,-615.463 165.961,-611.963 155.961,-608.463 155.961,-615.463"/>
</g>
<!-- src/SiCard/types/index.test.js -->
<g id="node28" class="node"><title>src/SiCard/types/index.test.js</title>
<g id="a_node28"><a xlink:href="src/SiCard/types/index.test.js" xlink:title="index.test.js">
<path fill="#ffffcc" stroke="black" d="M108.5,-710.963C108.5,-710.963 46.5,-710.963 46.5,-710.963 43.5,-710.963 40.5,-707.963 40.5,-704.963 40.5,-704.963 40.5,-698.963 40.5,-698.963 40.5,-695.963 43.5,-692.963 46.5,-692.963 46.5,-692.963 108.5,-692.963 108.5,-692.963 111.5,-692.963 114.5,-695.963 114.5,-698.963 114.5,-698.963 114.5,-704.963 114.5,-704.963 114.5,-707.963 111.5,-710.963 108.5,-710.963"/>
<text text-anchor="middle" x="77.5" y="-699.763" font-family="Helvetica,sans-Serif" font-size="9.00">index.test.js</text>
</a>
</g>
</g>
<!-- src/SiCard/types/index.test.js&#45;&gt;src/SiCard/BaseSiCard.js -->
<g id="edge79" class="edge"><title>src/SiCard/types/index.test.js&#45;&gt;src/SiCard/BaseSiCard.js</title>
<path fill="none" stroke="#000000" stroke-width="2" stroke-opacity="0.466667" d="M114.657,-694.294C117.867,-692.366 120.747,-689.961 123,-686.963 143.045,-660.291 113.462,-411.565 136,-386.963 170.52,-349.282 206.774,-399.222 250,-371.963 257.146,-367.457 255.791,-361.496 263.308,-353.534"/>
<polygon fill="#000000" fill-opacity="0.466667" stroke="#000000" stroke-width="2" stroke-opacity="0.466667" points="265.643,-356.144 271.073,-347.047 261.155,-350.772 265.643,-356.144"/>
</g>
<!-- src/SiCard/types/index.test.js&#45;&gt;src/SiCard/types/index.js -->
<g id="edge80" class="edge"><title>src/SiCard/types/index.test.js&#45;&gt;src/SiCard/types/index.js</title>
<path fill="none" stroke="#000000" stroke-width="2" stroke-opacity="0.466667" d="M114.724,-701.963C127.829,-701.963 142.622,-701.963 155.731,-701.963"/>
<polygon fill="#000000" fill-opacity="0.466667" stroke="#000000" stroke-width="2" stroke-opacity="0.466667" points="155.818,-705.463 165.818,-701.963 155.818,-698.463 155.818,-705.463"/>
</g>
</g>
</svg>
