<?xml version="1.0" encoding="UTF-8" standalone="no"?>
<!DOCTYPE svg PUBLIC "-//W3C//DTD SVG 1.1//EN"
 "http://www.w3.org/Graphics/SVG/1.1/DTD/svg11.dtd">
<!-- Generated by graphviz version 2.43.0 (0)
 -->
<!-- Title: dependency&#45;cruiser output Pages: 1 -->
<svg width="384pt" height="484pt"
 viewBox="0.00 0.00 383.50 484.00" xmlns="http://www.w3.org/2000/svg" xmlns:xlink="http://www.w3.org/1999/xlink">
<g id="graph0" class="graph" transform="scale(1 1) rotate(0) translate(4 480)">
<title>dependency&#45;cruiser output</title>
<polygon fill="white" stroke="transparent" points="-4,4 -4,-480 379.5,-480 379.5,4 -4,4"/>
<g id="clust1" class="cluster">
<title>cluster_node_modules</title>
<path fill="#ffffff" stroke="black" stroke-width="2" d="M255,-8C255,-8 354,-8 354,-8 360,-8 366,-14 366,-20 366,-20 366,-116 366,-116 366,-122 360,-128 354,-128 354,-128 255,-128 255,-128 249,-128 243,-122 243,-116 243,-116 243,-20 243,-20 243,-14 249,-8 255,-8"/>
<text text-anchor="middle" x="304.5" y="-116.8" font-family="Helvetica,sans-Serif" font-weight="bold" font-size="9.00">node_modules</text>
</g>
<g id="clust2" class="cluster">
<title>cluster_node_modules/immutable</title>
<path fill="#ffffff" stroke="black" stroke-width="2" d="M263,-16C263,-16 346,-16 346,-16 352,-16 358,-22 358,-28 358,-28 358,-90 358,-90 358,-96 352,-102 346,-102 346,-102 263,-102 263,-102 257,-102 251,-96 251,-90 251,-90 251,-28 251,-28 251,-22 257,-16 263,-16"/>
<text text-anchor="middle" x="304.5" y="-90.8" font-family="Helvetica,sans-Serif" font-weight="bold" font-size="9.00">immutable</text>
</g>
<g id="clust3" class="cluster">
<title>cluster_node_modules/immutable/dist</title>
<path fill="#ffffff" stroke="black" stroke-width="2" d="M271,-24C271,-24 338,-24 338,-24 344,-24 350,-30 350,-36 350,-36 350,-64 350,-64 350,-70 344,-76 338,-76 338,-76 271,-76 271,-76 265,-76 259,-70 259,-64 259,-64 259,-36 259,-36 259,-30 265,-24 271,-24"/>
<text text-anchor="middle" x="304.5" y="-64.8" font-family="Helvetica,sans-Serif" font-weight="bold" font-size="9.00">dist</text>
</g>
<g id="clust4" class="cluster">
<title>cluster_packages</title>
<path fill="#ffffff" stroke="black" stroke-width="2" d="M20,-136C20,-136 355.5,-136 355.5,-136 361.5,-136 367.5,-142 367.5,-148 367.5,-148 367.5,-456 367.5,-456 367.5,-462 361.5,-468 355.5,-468 355.5,-468 20,-468 20,-468 14,-468 8,-462 8,-456 8,-456 8,-148 8,-148 8,-142 14,-136 20,-136"/>
<text text-anchor="middle" x="187.75" y="-456.8" font-family="Helvetica,sans-Serif" font-weight="bold" font-size="9.00">packages</text>
</g>
<g id="clust5" class="cluster">
<title>cluster_packages/sportident</title>
<path fill="#ffffff" stroke="black" stroke-width="2" d="M28,-144C28,-144 347.5,-144 347.5,-144 353.5,-144 359.5,-150 359.5,-156 359.5,-156 359.5,-430 359.5,-430 359.5,-436 353.5,-442 347.5,-442 347.5,-442 28,-442 28,-442 22,-442 16,-436 16,-430 16,-430 16,-156 16,-156 16,-150 22,-144 28,-144"/>
<text text-anchor="middle" x="187.75" y="-430.8" font-family="Helvetica,sans-Serif" font-weight="bold" font-size="9.00">sportident</text>
</g>
<g id="clust6" class="cluster">
<title>cluster_packages/sportident/src</title>
<path fill="#ffffff" stroke="black" stroke-width="2" d="M36,-152C36,-152 339.5,-152 339.5,-152 345.5,-152 351.5,-158 351.5,-164 351.5,-164 351.5,-404 351.5,-404 351.5,-410 345.5,-416 339.5,-416 339.5,-416 36,-416 36,-416 30,-416 24,-410 24,-404 24,-404 24,-164 24,-164 24,-158 30,-152 36,-152"/>
<text text-anchor="middle" x="187.75" y="-404.8" font-family="Helvetica,sans-Serif" font-weight="bold" font-size="9.00">src</text>
</g>
<g id="clust7" class="cluster">
<title>cluster_packages/sportident/src/utils</title>
<path fill="#ffffff" stroke="black" stroke-width="2" d="M44,-160C44,-160 331.5,-160 331.5,-160 337.5,-160 343.5,-166 343.5,-172 343.5,-172 343.5,-378 343.5,-378 343.5,-384 337.5,-390 331.5,-390 331.5,-390 44,-390 44,-390 38,-390 32,-384 32,-378 32,-378 32,-172 32,-172 32,-166 38,-160 44,-160"/>
<text text-anchor="middle" x="187.75" y="-378.8" font-family="Helvetica,sans-Serif" font-weight="bold" font-size="9.00">utils</text>
</g>
<!-- node_modules/immutable/dist/immutable.js -->
<g id="node1" class="node">
<title>node_modules/immutable/dist/immutable.js</title>
<g id="a_node1"><a xlink:href="https://www.npmjs.com/package/immutable" xlink:title="immutable.js">
<polygon fill="#c40b0a" fill-opacity="0.101961" stroke="black" points="342,-50 340.5,-52 330,-52 328.5,-50 267,-50 267,-32 342,-32 342,-50"/>
<text text-anchor="start" x="275" y="-38.8" font-family="Helvetica,sans-Serif" font-size="9.00" fill="#c40b0a">immutable.js</text>
</a>
</g>
</g>
<!-- packages/sportident/src/utils/NumberRange.ts -->
<g id="node2" class="node">
<title>packages/sportident/src/utils/NumberRange.ts</title>
<g id="a_node2"><a xlink:href="packages/sportident/src/utils/NumberRange.ts" xlink:title="NumberRange.ts">
<path fill="#ddfeff" stroke="black" d="M211.5,-186C211.5,-186 130.5,-186 130.5,-186 127.5,-186 124.5,-183 124.5,-180 124.5,-180 124.5,-174 124.5,-174 124.5,-171 127.5,-168 130.5,-168 130.5,-168 211.5,-168 211.5,-168 214.5,-168 217.5,-171 217.5,-174 217.5,-174 217.5,-180 217.5,-180 217.5,-183 214.5,-186 211.5,-186"/>
<text text-anchor="start" x="132.5" y="-174.8" font-family="Helvetica,sans-Serif" font-size="9.00">NumberRange.ts</text>
</a>
</g>
</g>
<!-- packages/sportident/src/utils/NumberRange.ts&#45;&gt;node_modules/immutable/dist/immutable.js -->
<g id="edge1" class="edge">
<title>packages/sportident/src/utils/NumberRange.ts&#45;&gt;node_modules/immutable/dist/immutable.js</title>
<path fill="none" stroke="#000000" stroke-opacity="0.200000" d="M181.04,-167.65C203.86,-144.05 263.87,-81.99 290.48,-54.47"/>
<polygon fill="#000000" fill-opacity="0.200000" stroke="#000000" stroke-opacity="0.200000" points="292.08,-55.83 294.74,-50.06 289.06,-52.91 292.08,-55.83"/>
</g>
<!-- packages/sportident/src/utils/NumberRangeRegistry.ts -->
<g id="node3" class="node">
<title>packages/sportident/src/utils/NumberRangeRegistry.ts</title>
<g id="a_node3"><a xlink:href="packages/sportident/src/utils/NumberRangeRegistry.ts" xlink:title="NumberRangeRegistry.ts">
<path fill="#ddfeff" stroke="black" d="M229,-216C229,-216 113,-216 113,-216 110,-216 107,-213 107,-210 107,-210 107,-204 107,-204 107,-201 110,-198 113,-198 113,-198 229,-198 229,-198 232,-198 235,-201 235,-204 235,-204 235,-210 235,-210 235,-213 232,-216 229,-216"/>
<text text-anchor="start" x="115" y="-204.8" font-family="Helvetica,sans-Serif" font-size="9.00">NumberRangeRegistry.ts</text>
</a>
</g>
</g>
<!-- packages/sportident/src/utils/NumberRangeRegistry.ts&#45;&gt;node_modules/immutable/dist/immutable.js -->
<g id="edge3" class="edge">
<title>packages/sportident/src/utils/NumberRangeRegistry.ts&#45;&gt;node_modules/immutable/dist/immutable.js</title>
<path fill="none" stroke="#000000" stroke-opacity="0.200000" d="M227.34,-198C230.12,-196.3 232.7,-194.32 235,-192 246.23,-180.67 237.49,-171.97 243,-157 257.12,-118.65 281.28,-76.91 294.39,-55.48"/>
<polygon fill="#000000" fill-opacity="0.200000" stroke="#000000" stroke-opacity="0.200000" points="296.26,-56.45 297.62,-50.24 292.68,-54.25 296.26,-56.45"/>
</g>
<!-- packages/sportident/src/utils/general.ts -->
<g id="node4" class="node">
<title>packages/sportident/src/utils/general.ts</title>
<g id="a_node4"><a xlink:href="packages/sportident/src/utils/general.ts" xlink:title="general.ts">
<path fill="#ddfeff" stroke="black" d="M329.5,-227C329.5,-227 279.5,-227 279.5,-227 276.5,-227 273.5,-224 273.5,-221 273.5,-221 273.5,-215 273.5,-215 273.5,-212 276.5,-209 279.5,-209 279.5,-209 329.5,-209 329.5,-209 332.5,-209 335.5,-212 335.5,-215 335.5,-215 335.5,-221 335.5,-221 335.5,-224 332.5,-227 329.5,-227"/>
<text text-anchor="start" x="281.5" y="-215.8" font-family="Helvetica,sans-Serif" font-size="9.00">general.ts</text>
</a>
</g>
</g>
<!-- packages/sportident/src/utils/NumberRangeRegistry.ts&#45;&gt;packages/sportident/src/utils/general.ts -->
<g id="edge2" class="edge">
<title>packages/sportident/src/utils/NumberRangeRegistry.ts&#45;&gt;packages/sportident/src/utils/general.ts</title>
<path fill="none" stroke="#000000" stroke-width="2" stroke-opacity="0.200000" d="M235.05,-212.27C246.08,-213.2 257.21,-214.13 267.19,-214.96"/>
<polygon fill="#000000" fill-opacity="0.200000" stroke="#000000" stroke-width="2" stroke-opacity="0.200000" points="267.1,-217.06 273.25,-215.47 267.45,-212.88 267.1,-217.06"/>
</g>
<!-- packages/sportident/src/utils/bytes.ts -->
<g id="node5" class="node">
<title>packages/sportident/src/utils/bytes.ts</title>
<g id="a_node5"><a xlink:href="packages/sportident/src/utils/bytes.ts" xlink:title="bytes.ts">
<path fill="#ddfeff" stroke="black" d="M192,-260C192,-260 150,-260 150,-260 147,-260 144,-257 144,-254 144,-254 144,-248 144,-248 144,-245 147,-242 150,-242 150,-242 192,-242 192,-242 195,-242 198,-245 198,-248 198,-248 198,-254 198,-254 198,-257 195,-260 192,-260"/>
<text text-anchor="start" x="152.5" y="-248.8" font-family="Helvetica,sans-Serif" font-size="9.00">bytes.ts</text>
</a>
</g>
</g>
<!-- packages/sportident/src/utils/errors.ts -->
<g id="node6" class="node">
<title>packages/sportident/src/utils/errors.ts</title>
<g id="a_node6"><a xlink:href="packages/sportident/src/utils/errors.ts" xlink:title="errors.ts">
<path fill="#ddfeff" stroke="black" d="M325.5,-293C325.5,-293 283.5,-293 283.5,-293 280.5,-293 277.5,-290 277.5,-287 277.5,-287 277.5,-281 277.5,-281 277.5,-278 280.5,-275 283.5,-275 283.5,-275 325.5,-275 325.5,-275 328.5,-275 331.5,-278 331.5,-281 331.5,-281 331.5,-287 331.5,-287 331.5,-290 328.5,-293 325.5,-293"/>
<text text-anchor="start" x="285.5" y="-281.8" font-family="Helvetica,sans-Serif" font-size="9.00">errors.ts</text>
</a>
</g>
</g>
<!-- packages/sportident/src/utils/events.ts -->
<g id="node7" class="node">
<title>packages/sportident/src/utils/events.ts</title>
<g id="a_node7"><a xlink:href="packages/sportident/src/utils/events.ts" xlink:title="events.ts">
<path fill="#ddfeff" stroke="black" d="M194,-304C194,-304 148,-304 148,-304 145,-304 142,-301 142,-298 142,-298 142,-292 142,-292 142,-289 145,-286 148,-286 148,-286 194,-286 194,-286 197,-286 200,-289 200,-292 200,-292 200,-298 200,-298 200,-301 197,-304 194,-304"/>
<text text-anchor="start" x="150" y="-292.8" font-family="Helvetica,sans-Serif" font-size="9.00">events.ts</text>
</a>
</g>
</g>
<!-- packages/sportident/src/utils/events.ts&#45;&gt;packages/sportident/src/utils/errors.ts -->
<g id="edge4" class="edge">
<title>packages/sportident/src/utils/events.ts&#45;&gt;packages/sportident/src/utils/errors.ts</title>
<path fill="none" stroke="#000000" stroke-width="2" stroke-opacity="0.200000" d="M200.21,-292.64C220.95,-290.91 249.19,-288.54 270.9,-286.73"/>
<polygon fill="#000000" fill-opacity="0.200000" stroke="#000000" stroke-width="2" stroke-opacity="0.200000" points="271.32,-288.8 277.13,-286.21 270.97,-284.61 271.32,-288.8"/>
</g>
<!-- packages/sportident/src/utils/index.ts -->
<g id="node8" class="node">
<title>packages/sportident/src/utils/index.ts</title>
<g id="a_node8"><a xlink:href="packages/sportident/src/utils/index.ts" xlink:title="index.ts">
<path fill="#ddfeff" stroke="black" d="M88,-271C88,-271 46,-271 46,-271 43,-271 40,-268 40,-265 40,-265 40,-259 40,-259 40,-256 43,-253 46,-253 46,-253 88,-253 88,-253 91,-253 94,-256 94,-259 94,-259 94,-265 94,-265 94,-268 91,-271 88,-271"/>
<text text-anchor="start" x="48.5" y="-259.8" font-family="Helvetica,sans-Serif" font-size="9.00">index.ts</text>
</a>
</g>
</g>
<!-- packages/sportident/src/utils/index.ts&#45;&gt;packages/sportident/src/utils/NumberRange.ts -->
<g id="edge10" class="edge">
<title>packages/sportident/src/utils/index.ts&#45;&gt;packages/sportident/src/utils/NumberRange.ts</title>
<path fill="none" stroke="#000000" stroke-width="2" stroke-opacity="0.200000" d="M70.53,-252.66C75.13,-237.5 86.37,-207.62 107,-192 110.51,-189.34 114.43,-187.14 118.54,-185.33"/>
<polygon fill="#000000" fill-opacity="0.200000" stroke="#000000" stroke-width="2" stroke-opacity="0.200000" points="125.01,-185.04 118.66,-185.28 123.47,-181.13 125.01,-185.04"/>
</g>
<!-- packages/sportident/src/utils/index.ts&#45;&gt;packages/sportident/src/utils/NumberRangeRegistry.ts -->
<g id="edge11" class="edge">
<title>packages/sportident/src/utils/index.ts&#45;&gt;packages/sportident/src/utils/NumberRangeRegistry.ts</title>
<path fill="none" stroke="#000000" stroke-width="2" stroke-opacity="0.200000" d="M75.42,-252.78C82.64,-244.38 94.36,-232.22 107,-225 111.54,-222.41 116.49,-220.16 121.55,-218.23"/>
<polygon fill="#000000" fill-opacity="0.200000" stroke="#000000" stroke-width="2" stroke-opacity="0.200000" points="128.22,-218.07 121.86,-218.12 126.81,-214.12 128.22,-218.07"/>
</g>
<!-- packages/sportident/src/utils/index.ts&#45;&gt;packages/sportident/src/utils/general.ts -->
<g id="edge8" class="edge">
<title>packages/sportident/src/utils/index.ts&#45;&gt;packages/sportident/src/utils/general.ts</title>
<path fill="none" stroke="#000000" stroke-width="2" stroke-opacity="0.200000" d="M78.47,-252.91C85.91,-247 96.41,-239.74 107,-236 121.67,-230.82 214.42,-223.93 267.09,-220.36"/>
<polygon fill="#000000" fill-opacity="0.200000" stroke="#000000" stroke-width="2" stroke-opacity="0.200000" points="273.44,-222.04 267.32,-220.35 273.16,-217.85 273.44,-222.04"/>
</g>
<!-- packages/sportident/src/utils/index.ts&#45;&gt;packages/sportident/src/utils/bytes.ts -->
<g id="edge5" class="edge">
<title>packages/sportident/src/utils/index.ts&#45;&gt;packages/sportident/src/utils/bytes.ts</title>
<path fill="none" stroke="#000000" stroke-width="2" stroke-opacity="0.200000" d="M94,-259.2C107.21,-257.77 123.38,-256.03 137.41,-254.51"/>
<polygon fill="#000000" fill-opacity="0.200000" stroke="#000000" stroke-width="2" stroke-opacity="0.200000" points="143.92,-255.93 137.72,-254.48 143.46,-251.75 143.92,-255.93"/>
</g>
<!-- packages/sportident/src/utils/index.ts&#45;&gt;packages/sportident/src/utils/errors.ts -->
<g id="edge6" class="edge">
<title>packages/sportident/src/utils/index.ts&#45;&gt;packages/sportident/src/utils/errors.ts</title>
<path fill="none" stroke="#000000" stroke-width="2" stroke-opacity="0.200000" d="M94.01,-264.71C98.35,-265.15 102.8,-265.59 107,-266 164.93,-271.62 232.53,-277.71 271.44,-281.17"/>
<polygon fill="#000000" fill-opacity="0.200000" stroke="#000000" stroke-width="2" stroke-opacity="0.200000" points="277.24,-283.79 271.45,-281.17 277.61,-279.61 277.24,-283.79"/>
</g>
<!-- packages/sportident/src/utils/index.ts&#45;&gt;packages/sportident/src/utils/events.ts -->
<g id="edge7" class="edge">
<title>packages/sportident/src/utils/index.ts&#45;&gt;packages/sportident/src/utils/events.ts</title>
<path fill="none" stroke="#000000" stroke-width="2" stroke-opacity="0.200000" d="M90.56,-271.07C95.92,-273.11 101.63,-275.21 107,-277 116.38,-280.14 126.66,-283.22 136.14,-285.92"/>
<polygon fill="#000000" fill-opacity="0.200000" stroke="#000000" stroke-width="2" stroke-opacity="0.200000" points="141.35,-289.58 136.15,-285.93 142.49,-285.53 141.35,-289.58"/>
</g>
<!-- packages/sportident/src/utils/mixins.ts -->
<g id="node9" class="node">
<title>packages/sportident/src/utils/mixins.ts</title>
<g id="a_node9"><a xlink:href="packages/sportident/src/utils/mixins.ts" xlink:title="mixins.ts">
<path fill="#ddfeff" stroke="black" d="M193.5,-334C193.5,-334 148.5,-334 148.5,-334 145.5,-334 142.5,-331 142.5,-328 142.5,-328 142.5,-322 142.5,-322 142.5,-319 145.5,-316 148.5,-316 148.5,-316 193.5,-316 193.5,-316 196.5,-316 199.5,-319 199.5,-322 199.5,-322 199.5,-328 199.5,-328 199.5,-331 196.5,-334 193.5,-334"/>
<text text-anchor="start" x="150.5" y="-322.8" font-family="Helvetica,sans-Serif" font-size="9.00">mixins.ts</text>
</a>
</g>
</g>
<!-- packages/sportident/src/utils/index.ts&#45;&gt;packages/sportident/src/utils/mixins.ts -->
<g id="edge9" class="edge">
<title>packages/sportident/src/utils/index.ts&#45;&gt;packages/sportident/src/utils/mixins.ts</title>
<path fill="none" stroke="#000000" stroke-width="2" stroke-opacity="0.200000" d="M73.01,-271.32C79.42,-282.31 91.55,-300.29 107,-310 115.75,-315.5 126.34,-318.98 136.32,-321.19"/>
<polygon fill="#000000" fill-opacity="0.200000" stroke="#000000" stroke-width="2" stroke-opacity="0.200000" points="142.02,-324.47 136.55,-321.24 142.84,-320.35 142.02,-324.47"/>
</g>
<!-- packages/sportident/src/utils/typed.ts -->
<g id="node10" class="node">
<title>packages/sportident/src/utils/typed.ts</title>
<g id="a_node10"><a xlink:href="packages/sportident/src/utils/typed.ts" xlink:title="typed.ts">
<path fill="#ddfeff" stroke="black" d="M192,-364C192,-364 150,-364 150,-364 147,-364 144,-361 144,-358 144,-358 144,-352 144,-352 144,-349 147,-346 150,-346 150,-346 192,-346 192,-346 195,-346 198,-349 198,-352 198,-352 198,-358 198,-358 198,-361 195,-364 192,-364"/>
<text text-anchor="start" x="152" y="-352.8" font-family="Helvetica,sans-Serif" font-size="9.00">typed.ts</text>
</a>
</g>
</g>
<!-- packages/sportident/src/utils/index.ts&#45;&gt;packages/sportident/src/utils/typed.ts -->
<g id="edge12" class="edge">
<title>packages/sportident/src/utils/index.ts&#45;&gt;packages/sportident/src/utils/typed.ts</title>
<path fill="none" stroke="#000000" stroke-width="2" stroke-opacity="0.200000" d="M69.88,-271.06C73.78,-287.46 84.34,-322.03 107,-340 115.69,-346.89 127.04,-350.7 137.7,-352.78"/>
<polygon fill="#000000" fill-opacity="0.200000" stroke="#000000" stroke-width="2" stroke-opacity="0.200000" points="143.53,-355.88 137.96,-352.82 144.22,-351.74 143.53,-355.88"/>
</g>
</g>
</svg>
