<?xml version="1.0" encoding="UTF-8" standalone="no"?>
<!DOCTYPE svg PUBLIC "-//W3C//DTD SVG 1.1//EN"
 "http://www.w3.org/Graphics/SVG/1.1/DTD/svg11.dtd">
<!-- Generated by graphviz version 2.38.0 (20140413.2041)
 -->
<!-- Title: dependency&#45;cruiser output Pages: 1 -->
<svg width="573pt" height="855pt"
 viewBox="0.00 0.00 573.00 854.59" xmlns="http://www.w3.org/2000/svg" xmlns:xlink="http://www.w3.org/1999/xlink">
<g id="graph0" class="graph" transform="scale(1 1) rotate(0) translate(4 850.59)">
<title>dependency&#45;cruiser output</title>
<polygon fill="white" stroke="none" points="-4,4 -4,-850.59 569,-850.59 569,4 -4,4"/>
<g id="clust1" class="cluster"><title>cluster_node_modules</title>
<path fill="#ffffff" stroke="black" stroke-width="2" d="M350.5,-418.59C350.5,-418.59 450.5,-418.59 450.5,-418.59 456.5,-418.59 462.5,-424.59 462.5,-430.59 462.5,-430.59 462.5,-826.59 462.5,-826.59 462.5,-832.59 456.5,-838.59 450.5,-838.59 450.5,-838.59 350.5,-838.59 350.5,-838.59 344.5,-838.59 338.5,-832.59 338.5,-826.59 338.5,-826.59 338.5,-430.59 338.5,-430.59 338.5,-424.59 344.5,-418.59 350.5,-418.59"/>
<text text-anchor="middle" x="400.5" y="-827.39" font-family="Helvetica,sans-Serif" font-weight="bold" font-size="9.00">node_modules</text>
</g>
<g id="clust2" class="cluster"><title>cluster_node_modules/immutable</title>
<path fill="#ffffff" stroke="black" stroke-width="2" d="M358.5,-486.59C358.5,-486.59 442.5,-486.59 442.5,-486.59 448.5,-486.59 454.5,-492.59 454.5,-498.59 454.5,-498.59 454.5,-560.59 454.5,-560.59 454.5,-566.59 448.5,-572.59 442.5,-572.59 442.5,-572.59 358.5,-572.59 358.5,-572.59 352.5,-572.59 346.5,-566.59 346.5,-560.59 346.5,-560.59 346.5,-498.59 346.5,-498.59 346.5,-492.59 352.5,-486.59 358.5,-486.59"/>
<text text-anchor="middle" x="400.5" y="-561.39" font-family="Helvetica,sans-Serif" font-weight="bold" font-size="9.00">immutable</text>
</g>
<g id="clust3" class="cluster"><title>cluster_node_modules/immutable/dist</title>
<path fill="#ffffff" stroke="black" stroke-width="2" d="M366.5,-494.59C366.5,-494.59 434.5,-494.59 434.5,-494.59 440.5,-494.59 446.5,-500.59 446.5,-506.59 446.5,-506.59 446.5,-534.59 446.5,-534.59 446.5,-540.59 440.5,-546.59 434.5,-546.59 434.5,-546.59 366.5,-546.59 366.5,-546.59 360.5,-546.59 354.5,-540.59 354.5,-534.59 354.5,-534.59 354.5,-506.59 354.5,-506.59 354.5,-500.59 360.5,-494.59 366.5,-494.59"/>
<text text-anchor="middle" x="400.5" y="-535.39" font-family="Helvetica,sans-Serif" font-weight="bold" font-size="9.00">dist</text>
</g>
<g id="clust4" class="cluster"><title>cluster_node_modules/lodash</title>
<path fill="#ffffff" stroke="black" stroke-width="2" d="M375,-426.59C375,-426.59 426,-426.59 426,-426.59 432,-426.59 438,-432.59 438,-438.59 438,-438.59 438,-466.59 438,-466.59 438,-472.59 432,-478.59 426,-478.59 426,-478.59 375,-478.59 375,-478.59 369,-478.59 363,-472.59 363,-466.59 363,-466.59 363,-438.59 363,-438.59 363,-432.59 369,-426.59 375,-426.59"/>
<text text-anchor="middle" x="400.5" y="-467.39" font-family="Helvetica,sans-Serif" font-weight="bold" font-size="9.00">lodash</text>
</g>
<g id="clust5" class="cluster"><title>cluster_node_modules/prop&#45;types</title>
<path fill="#ffffff" stroke="black" stroke-width="2" d="M375.5,-640.59C375.5,-640.59 426.5,-640.59 426.5,-640.59 432.5,-640.59 438.5,-646.59 438.5,-652.59 438.5,-652.59 438.5,-680.59 438.5,-680.59 438.5,-686.59 432.5,-692.59 426.5,-692.59 426.5,-692.59 375.5,-692.59 375.5,-692.59 369.5,-692.59 363.5,-686.59 363.5,-680.59 363.5,-680.59 363.5,-652.59 363.5,-652.59 363.5,-646.59 369.5,-640.59 375.5,-640.59"/>
<text text-anchor="middle" x="401" y="-681.39" font-family="Helvetica,sans-Serif" font-weight="bold" font-size="9.00">prop&#45;types</text>
</g>
<g id="clust6" class="cluster"><title>cluster_node_modules/react&#45;dom</title>
<path fill="#ffffff" stroke="black" stroke-width="2" d="M377.5,-700.59C377.5,-700.59 424.5,-700.59 424.5,-700.59 430.5,-700.59 436.5,-706.59 436.5,-712.59 436.5,-712.59 436.5,-740.59 436.5,-740.59 436.5,-746.59 430.5,-752.59 424.5,-752.59 424.5,-752.59 377.5,-752.59 377.5,-752.59 371.5,-752.59 365.5,-746.59 365.5,-740.59 365.5,-740.59 365.5,-712.59 365.5,-712.59 365.5,-706.59 371.5,-700.59 377.5,-700.59"/>
<text text-anchor="middle" x="401" y="-741.39" font-family="Helvetica,sans-Serif" font-weight="bold" font-size="9.00">react&#45;dom</text>
</g>
<g id="clust7" class="cluster"><title>cluster_node_modules/react</title>
<path fill="#ffffff" stroke="black" stroke-width="2" d="M377.5,-580.59C377.5,-580.59 423.5,-580.59 423.5,-580.59 429.5,-580.59 435.5,-586.59 435.5,-592.59 435.5,-592.59 435.5,-620.59 435.5,-620.59 435.5,-626.59 429.5,-632.59 423.5,-632.59 423.5,-632.59 377.5,-632.59 377.5,-632.59 371.5,-632.59 365.5,-626.59 365.5,-620.59 365.5,-620.59 365.5,-592.59 365.5,-592.59 365.5,-586.59 371.5,-580.59 377.5,-580.59"/>
<text text-anchor="middle" x="400.5" y="-621.39" font-family="Helvetica,sans-Serif" font-weight="bold" font-size="9.00">react</text>
</g>
<g id="clust8" class="cluster"><title>cluster_node_modules/ws</title>
<path fill="#ffffff" stroke="black" stroke-width="2" d="M377.5,-760.59C377.5,-760.59 423.5,-760.59 423.5,-760.59 429.5,-760.59 435.5,-766.59 435.5,-772.59 435.5,-772.59 435.5,-800.59 435.5,-800.59 435.5,-806.59 429.5,-812.59 423.5,-812.59 423.5,-812.59 377.5,-812.59 377.5,-812.59 371.5,-812.59 365.5,-806.59 365.5,-800.59 365.5,-800.59 365.5,-772.59 365.5,-772.59 365.5,-766.59 371.5,-760.59 377.5,-760.59"/>
<text text-anchor="middle" x="400.5" y="-801.39" font-family="Helvetica,sans-Serif" font-weight="bold" font-size="9.00">ws</text>
</g>
<g id="clust9" class="cluster"><title>cluster_src</title>
<path fill="#ffffff" stroke="black" stroke-width="2" d="M499,-135.59C499,-135.59 545,-135.59 545,-135.59 551,-135.59 557,-141.59 557,-147.59 557,-147.59 557,-175.59 557,-175.59 557,-181.59 551,-187.59 545,-187.59 545,-187.59 499,-187.59 499,-187.59 493,-187.59 487,-181.59 487,-175.59 487,-175.59 487,-147.59 487,-147.59 487,-141.59 493,-135.59 499,-135.59"/>
<text text-anchor="middle" x="522" y="-176.39" font-family="Helvetica,sans-Serif" font-weight="bold" font-size="9.00">src</text>
</g>
<g id="clust10" class="cluster"><title>cluster_testbench</title>
<path fill="#ffffff" stroke="black" stroke-width="2" d="M20,-50.5904C20,-50.5904 467,-50.5904 467,-50.5904 473,-50.5904 479,-56.5904 479,-62.5904 479,-62.5904 479,-398.59 479,-398.59 479,-404.59 473,-410.59 467,-410.59 467,-410.59 20,-410.59 20,-410.59 14,-410.59 8,-404.59 8,-398.59 8,-398.59 8,-62.5904 8,-62.5904 8,-56.5904 14,-50.5904 20,-50.5904"/>
<text text-anchor="middle" x="243.5" y="-399.39" font-family="Helvetica,sans-Serif" font-weight="bold" font-size="9.00">testbench</text>
</g>
<g id="clust11" class="cluster"><title>cluster_testbench/client</title>
<path fill="#ffffff" stroke="black" stroke-width="2" d="M28,-58.5904C28,-58.5904 459,-58.5904 459,-58.5904 465,-58.5904 471,-64.5904 471,-70.5904 471,-70.5904 471,-312.59 471,-312.59 471,-318.59 465,-324.59 459,-324.59 459,-324.59 28,-324.59 28,-324.59 22,-324.59 16,-318.59 16,-312.59 16,-312.59 16,-70.5904 16,-70.5904 16,-64.5904 22,-58.5904 28,-58.5904"/>
<text text-anchor="middle" x="243.5" y="-313.39" font-family="Helvetica,sans-Serif" font-weight="bold" font-size="9.00">client</text>
</g>
<g id="clust12" class="cluster"><title>cluster_testbench/client/commands</title>
<path fill="#ffffff" stroke="black" stroke-width="2" d="M259,-66.5904C259,-66.5904 318,-66.5904 318,-66.5904 324,-66.5904 330,-72.5904 330,-78.5904 330,-78.5904 330,-286.59 330,-286.59 330,-292.59 324,-298.59 318,-298.59 318,-298.59 259,-298.59 259,-298.59 253,-298.59 247,-292.59 247,-286.59 247,-286.59 247,-78.5904 247,-78.5904 247,-72.5904 253,-66.5904 259,-66.5904"/>
<text text-anchor="middle" x="288.5" y="-287.39" font-family="Helvetica,sans-Serif" font-weight="bold" font-size="9.00">commands</text>
</g>
<g id="clust13" class="cluster"><title>cluster_testbench/server</title>
<path fill="#ffffff" stroke="black" stroke-width="2" d="M28,-332.59C28,-332.59 74,-332.59 74,-332.59 80,-332.59 86,-338.59 86,-344.59 86,-344.59 86,-372.59 86,-372.59 86,-378.59 80,-384.59 74,-384.59 74,-384.59 28,-384.59 28,-384.59 22,-384.59 16,-378.59 16,-372.59 16,-372.59 16,-344.59 16,-344.59 16,-338.59 22,-332.59 28,-332.59"/>
<text text-anchor="middle" x="51" y="-373.39" font-family="Helvetica,sans-Serif" font-weight="bold" font-size="9.00">server</text>
</g>
<!-- net -->
<g id="node1" class="node"><title>net</title>
<path fill="#ffffcc" stroke="grey" d="M187.5,-42.5904C187.5,-42.5904 145.5,-42.5904 145.5,-42.5904 142.5,-42.5904 139.5,-39.5904 139.5,-36.5904 139.5,-36.5904 139.5,-30.5904 139.5,-30.5904 139.5,-27.5904 142.5,-24.5904 145.5,-24.5904 145.5,-24.5904 187.5,-24.5904 187.5,-24.5904 190.5,-24.5904 193.5,-27.5904 193.5,-30.5904 193.5,-30.5904 193.5,-36.5904 193.5,-36.5904 193.5,-39.5904 190.5,-42.5904 187.5,-42.5904"/>
<text text-anchor="middle" x="166.5" y="-31.3904" font-family="Helvetica,sans-Serif" font-size="9.00" fill="grey">net</text>
</g>
<!-- node_modules/immutable/dist/immutable.js -->
<g id="node2" class="node"><title>node_modules/immutable/dist/immutable.js</title>
<g id="a_node2"><a xlink:href="node_modules/immutable/dist/immutable.js" xlink:title="immutable.js">
<polygon fill="#c40b0a" fill-opacity="0.101961" stroke="black" points="438.5,-520.59 437,-522.59 426.5,-522.59 425,-520.59 362.5,-520.59 362.5,-502.59 438.5,-502.59 438.5,-520.59"/>
<text text-anchor="middle" x="400.5" y="-509.39" font-family="Helvetica,sans-Serif" font-size="9.00" fill="#c40b0a">immutable.js</text>
</a>
</g>
</g>
<!-- node_modules/lodash/lodash.js -->
<g id="node3" class="node"><title>node_modules/lodash/lodash.js</title>
<g id="a_node3"><a xlink:href="node_modules/lodash/lodash.js" xlink:title="lodash.js">
<polygon fill="#c40b0a" fill-opacity="0.101961" stroke="black" points="430,-452.59 428.5,-454.59 418,-454.59 416.5,-452.59 371,-452.59 371,-434.59 430,-434.59 430,-452.59"/>
<text text-anchor="middle" x="400.5" y="-441.39" font-family="Helvetica,sans-Serif" font-size="9.00" fill="#c40b0a">lodash.js</text>
</a>
</g>
</g>
<!-- node_modules/prop&#45;types/index.js -->
<g id="node4" class="node"><title>node_modules/prop&#45;types/index.js</title>
<g id="a_node4"><a xlink:href="node_modules/prop-types/index.js" xlink:title="index.js">
<polygon fill="#c40b0a" fill-opacity="0.101961" stroke="black" points="427.5,-666.59 426,-668.59 415.5,-668.59 414,-666.59 373.5,-666.59 373.5,-648.59 427.5,-648.59 427.5,-666.59"/>
<text text-anchor="middle" x="400.5" y="-655.39" font-family="Helvetica,sans-Serif" font-size="9.00" fill="#c40b0a">index.js</text>
</a>
</g>
</g>
<!-- node_modules/react&#45;dom/index.js -->
<g id="node5" class="node"><title>node_modules/react&#45;dom/index.js</title>
<g id="a_node5"><a xlink:href="node_modules/react-dom/index.js" xlink:title="index.js">
<polygon fill="#c40b0a" fill-opacity="0.101961" stroke="black" points="427.5,-726.59 426,-728.59 415.5,-728.59 414,-726.59 373.5,-726.59 373.5,-708.59 427.5,-708.59 427.5,-726.59"/>
<text text-anchor="middle" x="400.5" y="-715.39" font-family="Helvetica,sans-Serif" font-size="9.00" fill="#c40b0a">index.js</text>
</a>
</g>
</g>
<!-- node_modules/react/index.js -->
<g id="node6" class="node"><title>node_modules/react/index.js</title>
<g id="a_node6"><a xlink:href="node_modules/react/index.js" xlink:title="index.js">
<polygon fill="#c40b0a" fill-opacity="0.101961" stroke="black" points="427.5,-606.59 426,-608.59 415.5,-608.59 414,-606.59 373.5,-606.59 373.5,-588.59 427.5,-588.59 427.5,-606.59"/>
<text text-anchor="middle" x="400.5" y="-595.39" font-family="Helvetica,sans-Serif" font-size="9.00" fill="#c40b0a">index.js</text>
</a>
</g>
</g>
<!-- node_modules/ws/index.js -->
<g id="node7" class="node"><title>node_modules/ws/index.js</title>
<g id="a_node7"><a xlink:href="node_modules/ws/index.js" xlink:title="index.js">
<polygon fill="#c40b0a" fill-opacity="0.101961" stroke="black" points="427.5,-786.59 426,-788.59 415.5,-788.59 414,-786.59 373.5,-786.59 373.5,-768.59 427.5,-768.59 427.5,-786.59"/>
<text text-anchor="middle" x="400.5" y="-775.39" font-family="Helvetica,sans-Serif" font-size="9.00" fill="#c40b0a">index.js</text>
</a>
</g>
</g>
<!-- src/index.js -->
<g id="node8" class="node"><title>src/index.js</title>
<g id="a_node8"><a xlink:href="src/index.js" xlink:title="index.js">
<path fill="#ffffcc" stroke="black" d="M543,-161.59C543,-161.59 501,-161.59 501,-161.59 498,-161.59 495,-158.59 495,-155.59 495,-155.59 495,-149.59 495,-149.59 495,-146.59 498,-143.59 501,-143.59 501,-143.59 543,-143.59 543,-143.59 546,-143.59 549,-146.59 549,-149.59 549,-149.59 549,-155.59 549,-155.59 549,-158.59 546,-161.59 543,-161.59"/>
<text text-anchor="middle" x="522" y="-150.39" font-family="Helvetica,sans-Serif" font-size="9.00">index.js</text>
</a>
</g>
</g>
<!-- testbench/client/MainStationList.js -->
<g id="node9" class="node"><title>testbench/client/MainStationList.js</title>
<g id="a_node9"><a xlink:href="testbench/client/MainStationList.js" xlink:title="MainStationList.js">
<path fill="#ffffcc" stroke="black" d="M209.5,-298.59C209.5,-298.59 123.5,-298.59 123.5,-298.59 120.5,-298.59 117.5,-295.59 117.5,-292.59 117.5,-292.59 117.5,-286.59 117.5,-286.59 117.5,-283.59 120.5,-280.59 123.5,-280.59 123.5,-280.59 209.5,-280.59 209.5,-280.59 212.5,-280.59 215.5,-283.59 215.5,-286.59 215.5,-286.59 215.5,-292.59 215.5,-292.59 215.5,-295.59 212.5,-298.59 209.5,-298.59"/>
<text text-anchor="middle" x="166.5" y="-287.39" font-family="Helvetica,sans-Serif" font-size="9.00">MainStationList.js</text>
</a>
</g>
</g>
<!-- testbench/client/MainStationList.js&#45;&gt;node_modules/prop&#45;types/index.js -->
<g id="edge1" class="edge"><title>testbench/client/MainStationList.js&#45;&gt;node_modules/prop&#45;types/index.js</title>
<path fill="none" stroke="#000000" stroke-width="2" stroke-opacity="0.466667" d="M168.537,-298.9C172.836,-334.357 191.705,-463.391 247,-551.59 254.309,-563.249 326.229,-628.463 338,-635.59 345.893,-640.37 354.983,-644.334 363.71,-647.518"/>
<polygon fill="#000000" fill-opacity="0.466667" stroke="#000000" stroke-width="2" stroke-opacity="0.466667" points="362.732,-650.882 373.327,-650.783 364.983,-644.254 362.732,-650.882"/>
</g>
<!-- testbench/client/MainStationList.js&#45;&gt;node_modules/react/index.js -->
<g id="edge2" class="edge"><title>testbench/client/MainStationList.js&#45;&gt;node_modules/react/index.js</title>
<path fill="none" stroke="#000000" stroke-width="2" stroke-opacity="0.466667" d="M169.273,-298.789C175.419,-328.743 198.156,-425.155 247,-487.59 281.326,-531.468 337.655,-565.728 371.398,-583.695"/>
<polygon fill="#000000" fill-opacity="0.466667" stroke="#000000" stroke-width="2" stroke-opacity="0.466667" points="370.202,-587.018 380.688,-588.533 373.435,-580.81 370.202,-587.018"/>
</g>
<!-- testbench/client/SiExternalApplication.js -->
<g id="node10" class="node"><title>testbench/client/SiExternalApplication.js</title>
<g id="a_node10"><a xlink:href="testbench/client/SiExternalApplication.js" xlink:title="SiExternalApplication.js">
<path fill="#ffffcc" stroke="black" d="M457,-254.59C457,-254.59 344,-254.59 344,-254.59 341,-254.59 338,-251.59 338,-248.59 338,-248.59 338,-242.59 338,-242.59 338,-239.59 341,-236.59 344,-236.59 344,-236.59 457,-236.59 457,-236.59 460,-236.59 463,-239.59 463,-242.59 463,-242.59 463,-248.59 463,-248.59 463,-251.59 460,-254.59 457,-254.59"/>
<text text-anchor="middle" x="400.5" y="-243.39" font-family="Helvetica,sans-Serif" font-size="9.00">SiExternalApplication.js</text>
</a>
</g>
</g>
<!-- testbench/client/SiExternalApplication.js&#45;&gt;src/index.js -->
<g id="edge3" class="edge"><title>testbench/client/SiExternalApplication.js&#45;&gt;src/index.js</title>
<path fill="none" stroke="#000000" stroke-width="2" stroke-opacity="0.466667" d="M462.921,-236.513C468.662,-234.168 474.141,-231.241 479,-227.59 497.675,-213.562 509.214,-188.652 515.362,-171.411"/>
<polygon fill="#000000" fill-opacity="0.466667" stroke="#000000" stroke-width="2" stroke-opacity="0.466667" points="518.713,-172.425 518.509,-161.832 512.063,-170.24 518.713,-172.425"/>
</g>
<!-- testbench/client/Terminal.js -->
<g id="node11" class="node"><title>testbench/client/Terminal.js</title>
<g id="a_node11"><a xlink:href="testbench/client/Terminal.js" xlink:title="Terminal.js">
<path fill="#ffffcc" stroke="black" d="M193,-268.59C193,-268.59 140,-268.59 140,-268.59 137,-268.59 134,-265.59 134,-262.59 134,-262.59 134,-256.59 134,-256.59 134,-253.59 137,-250.59 140,-250.59 140,-250.59 193,-250.59 193,-250.59 196,-250.59 199,-253.59 199,-256.59 199,-256.59 199,-262.59 199,-262.59 199,-265.59 196,-268.59 193,-268.59"/>
<text text-anchor="middle" x="166.5" y="-257.39" font-family="Helvetica,sans-Serif" font-size="9.00">Terminal.js</text>
</a>
</g>
</g>
<!-- testbench/client/Terminal.js&#45;&gt;node_modules/prop&#45;types/index.js -->
<g id="edge5" class="edge"><title>testbench/client/Terminal.js&#45;&gt;node_modules/prop&#45;types/index.js</title>
<path fill="none" stroke="#000000" stroke-width="2" stroke-opacity="0.466667" d="M199.009,-258.003C213.393,-259.08 229.339,-263.16 239,-274.59 253.571,-291.831 237.432,-457.145 247,-477.59 268.073,-522.622 307.659,-508.174 330,-552.59 338.326,-569.144 326.615,-620.971 338,-635.59 344.323,-643.709 353.892,-648.837 363.61,-652.073"/>
<polygon fill="#000000" fill-opacity="0.466667" stroke="#000000" stroke-width="2" stroke-opacity="0.466667" points="362.694,-655.451 373.264,-654.72 364.545,-648.701 362.694,-655.451"/>
</g>
<!-- testbench/client/Terminal.js&#45;&gt;node_modules/react/index.js -->
<g id="edge6" class="edge"><title>testbench/client/Terminal.js&#45;&gt;node_modules/react/index.js</title>
<path fill="none" stroke="#000000" stroke-width="2" stroke-opacity="0.466667" d="M199.338,-258.062C213.618,-259.188 229.379,-263.292 239,-274.59 251.332,-289.072 236.739,-429.574 247,-445.59 269.411,-480.573 306.146,-454.576 330,-488.59 345.7,-510.977 324.432,-525.851 338,-549.59 346.004,-563.595 359.871,-574.957 372.413,-583.105"/>
<polygon fill="#000000" fill-opacity="0.466667" stroke="#000000" stroke-width="2" stroke-opacity="0.466667" points="370.848,-586.25 381.209,-588.462 374.489,-580.271 370.848,-586.25"/>
</g>
<!-- testbench/client/commands/index.js -->
<g id="node14" class="node"><title>testbench/client/commands/index.js</title>
<g id="a_node14"><a xlink:href="testbench/client/commands/index.js" xlink:title="index.js">
<path fill="#ffffcc" stroke="black" d="M309.5,-242.59C309.5,-242.59 267.5,-242.59 267.5,-242.59 264.5,-242.59 261.5,-239.59 261.5,-236.59 261.5,-236.59 261.5,-230.59 261.5,-230.59 261.5,-227.59 264.5,-224.59 267.5,-224.59 267.5,-224.59 309.5,-224.59 309.5,-224.59 312.5,-224.59 315.5,-227.59 315.5,-230.59 315.5,-230.59 315.5,-236.59 315.5,-236.59 315.5,-239.59 312.5,-242.59 309.5,-242.59"/>
<text text-anchor="middle" x="288.5" y="-231.39" font-family="Helvetica,sans-Serif" font-size="9.00">index.js</text>
</a>
</g>
</g>
<!-- testbench/client/Terminal.js&#45;&gt;testbench/client/commands/index.js -->
<g id="edge4" class="edge"><title>testbench/client/Terminal.js&#45;&gt;testbench/client/commands/index.js</title>
<path fill="none" stroke="#000000" stroke-width="2" stroke-opacity="0.466667" d="M199.202,-253.055C211.623,-250.464 225.989,-247.431 239,-244.59 242.967,-243.724 247.114,-242.805 251.24,-241.882"/>
<polygon fill="#000000" fill-opacity="0.466667" stroke="#000000" stroke-width="2" stroke-opacity="0.466667" points="252.354,-245.219 261.34,-239.605 250.815,-238.39 252.354,-245.219"/>
</g>
<!-- testbench/client/WebUsbSiDevicesContext.js -->
<g id="node12" class="node"><title>testbench/client/WebUsbSiDevicesContext.js</title>
<g id="a_node12"><a xlink:href="testbench/client/WebUsbSiDevicesContext.js" xlink:title="WebUsbSiDevicesContext.js">
<path fill="#ffffcc" stroke="black" d="M233,-238.59C233,-238.59 100,-238.59 100,-238.59 97,-238.59 94,-235.59 94,-232.59 94,-232.59 94,-226.59 94,-226.59 94,-223.59 97,-220.59 100,-220.59 100,-220.59 233,-220.59 233,-220.59 236,-220.59 239,-223.59 239,-226.59 239,-226.59 239,-232.59 239,-232.59 239,-235.59 236,-238.59 233,-238.59"/>
<text text-anchor="middle" x="166.5" y="-227.39" font-family="Helvetica,sans-Serif" font-size="9.00">WebUsbSiDevicesContext.js</text>
</a>
</g>
</g>
<!-- testbench/client/WebUsbSiDevicesContext.js&#45;&gt;node_modules/immutable/dist/immutable.js -->
<g id="edge7" class="edge"><title>testbench/client/WebUsbSiDevicesContext.js&#45;&gt;node_modules/immutable/dist/immutable.js</title>
<path fill="none" stroke="#000000" stroke-width="2" stroke-opacity="0.466667" d="M232.111,-238.741C234.604,-240.428 236.921,-242.367 239,-244.59 256.47,-263.278 237.877,-277.691 247,-301.59 270.65,-363.548 306.274,-363.662 330,-425.59 338.995,-449.068 323.2,-461.267 338,-481.59 343.077,-488.562 350.22,-493.992 357.848,-498.194"/>
<polygon fill="#000000" fill-opacity="0.466667" stroke="#000000" stroke-width="2" stroke-opacity="0.466667" points="356.406,-501.384 366.933,-502.582 359.45,-495.081 356.406,-501.384"/>
</g>
<!-- testbench/client/WebUsbSiDevicesContext.js&#45;&gt;node_modules/react/index.js -->
<g id="edge8" class="edge"><title>testbench/client/WebUsbSiDevicesContext.js&#45;&gt;node_modules/react/index.js</title>
<path fill="none" stroke="#000000" stroke-width="2" stroke-opacity="0.466667" d="M232.63,-238.765C234.95,-240.453 237.092,-242.384 239,-244.59 257.786,-266.316 234.36,-347.799 247,-373.59 268.619,-417.704 308.038,-402.646 330,-446.59 350.527,-487.662 316.278,-509.138 338,-549.59 345.579,-563.705 359.285,-575.025 371.837,-583.118"/>
<polygon fill="#000000" fill-opacity="0.466667" stroke="#000000" stroke-width="2" stroke-opacity="0.466667" points="370.297,-586.276 380.669,-588.435 373.907,-580.279 370.297,-586.276"/>
</g>
<!-- testbench/client/commands/getInfo.js -->
<g id="node13" class="node"><title>testbench/client/commands/getInfo.js</title>
<g id="a_node13"><a xlink:href="testbench/client/commands/getInfo.js" xlink:title="getInfo.js">
<path fill="#ffffcc" stroke="black" d="M312.5,-272.59C312.5,-272.59 264.5,-272.59 264.5,-272.59 261.5,-272.59 258.5,-269.59 258.5,-266.59 258.5,-266.59 258.5,-260.59 258.5,-260.59 258.5,-257.59 261.5,-254.59 264.5,-254.59 264.5,-254.59 312.5,-254.59 312.5,-254.59 315.5,-254.59 318.5,-257.59 318.5,-260.59 318.5,-260.59 318.5,-266.59 318.5,-266.59 318.5,-269.59 315.5,-272.59 312.5,-272.59"/>
<text text-anchor="middle" x="288.5" y="-261.39" font-family="Helvetica,sans-Serif" font-size="9.00">getInfo.js</text>
</a>
</g>
</g>
<!-- testbench/client/commands/getInfo.js&#45;&gt;node_modules/lodash/lodash.js -->
<g id="edge10" class="edge"><title>testbench/client/commands/getInfo.js&#45;&gt;node_modules/lodash/lodash.js</title>
<path fill="none" stroke="#000000" stroke-width="2" stroke-opacity="0.466667" d="M295.106,-272.764C312.388,-301.043 365.071,-387.252 388.298,-425.26"/>
<polygon fill="#000000" fill-opacity="0.466667" stroke="#000000" stroke-width="2" stroke-opacity="0.466667" points="385.572,-427.512 393.773,-434.219 391.545,-423.861 385.572,-427.512"/>
</g>
<!-- testbench/client/commands/getInfo.js&#45;&gt;node_modules/react/index.js -->
<g id="edge11" class="edge"><title>testbench/client/commands/getInfo.js&#45;&gt;node_modules/react/index.js</title>
<path fill="none" stroke="#000000" stroke-width="2" stroke-opacity="0.466667" d="M292.367,-272.607C299.98,-296.973 320.753,-366.297 330,-425.59 334.255,-452.874 325.096,-525.178 338,-549.59 345.487,-563.755 359.186,-575.078 371.757,-583.161"/>
<polygon fill="#000000" fill-opacity="0.466667" stroke="#000000" stroke-width="2" stroke-opacity="0.466667" points="370.231,-586.326 380.607,-588.468 373.831,-580.323 370.231,-586.326"/>
</g>
<!-- testbench/client/commands/getInfo.js&#45;&gt;src/index.js -->
<g id="edge9" class="edge"><title>testbench/client/commands/getInfo.js&#45;&gt;src/index.js</title>
<path fill="none" stroke="#000000" stroke-width="2" stroke-opacity="0.466667" d="M318.703,-256.198C322.842,-254.222 326.778,-251.73 330,-248.59 336.856,-241.909 330.698,-234.782 338,-228.59 386.936,-187.091 423.259,-229.368 479,-197.59 490.941,-190.783 501.486,-179.456 509.023,-169.87"/>
<polygon fill="#000000" fill-opacity="0.466667" stroke="#000000" stroke-width="2" stroke-opacity="0.466667" points="511.909,-171.853 515.052,-161.735 506.286,-167.684 511.909,-171.853"/>
</g>
<!-- testbench/client/commands/pipe.js -->
<g id="node15" class="node"><title>testbench/client/commands/pipe.js</title>
<g id="a_node15"><a xlink:href="testbench/client/commands/pipe.js" xlink:title="pipe.js">
<path fill="#ffffcc" stroke="black" d="M309.5,-212.59C309.5,-212.59 267.5,-212.59 267.5,-212.59 264.5,-212.59 261.5,-209.59 261.5,-206.59 261.5,-206.59 261.5,-200.59 261.5,-200.59 261.5,-197.59 264.5,-194.59 267.5,-194.59 267.5,-194.59 309.5,-194.59 309.5,-194.59 312.5,-194.59 315.5,-197.59 315.5,-200.59 315.5,-200.59 315.5,-206.59 315.5,-206.59 315.5,-209.59 312.5,-212.59 309.5,-212.59"/>
<text text-anchor="middle" x="288.5" y="-201.39" font-family="Helvetica,sans-Serif" font-size="9.00">pipe.js</text>
</a>
</g>
</g>
<!-- testbench/client/commands/pipe.js&#45;&gt;src/index.js -->
<g id="edge12" class="edge"><title>testbench/client/commands/pipe.js&#45;&gt;src/index.js</title>
<path fill="none" stroke="#000000" stroke-width="2" stroke-opacity="0.466667" d="M315.52,-201.999C352.589,-199.169 422.383,-191.747 479,-173.59 484.868,-171.709 490.933,-169.107 496.567,-166.375"/>
<polygon fill="#000000" fill-opacity="0.466667" stroke="#000000" stroke-width="2" stroke-opacity="0.466667" points="498.243,-169.449 505.53,-161.758 495.037,-163.226 498.243,-169.449"/>
</g>
<!-- testbench/client/commands/pipe.js&#45;&gt;testbench/client/SiExternalApplication.js -->
<g id="edge13" class="edge"><title>testbench/client/commands/pipe.js&#45;&gt;testbench/client/SiExternalApplication.js</title>
<path fill="none" stroke="#000000" stroke-width="2" stroke-opacity="0.466667" d="M314.369,-212.73C319.541,-214.651 324.953,-216.675 330,-218.59 342.103,-223.182 355.355,-228.307 367.012,-232.847"/>
<polygon fill="#000000" fill-opacity="0.466667" stroke="#000000" stroke-width="2" stroke-opacity="0.466667" points="365.78,-236.123 376.369,-236.499 368.326,-229.602 365.78,-236.123"/>
</g>
<!-- testbench/client/commands/send.js -->
<g id="node16" class="node"><title>testbench/client/commands/send.js</title>
<g id="a_node16"><a xlink:href="testbench/client/commands/send.js" xlink:title="send.js">
<path fill="#ffffcc" stroke="black" d="M309.5,-152.59C309.5,-152.59 267.5,-152.59 267.5,-152.59 264.5,-152.59 261.5,-149.59 261.5,-146.59 261.5,-146.59 261.5,-140.59 261.5,-140.59 261.5,-137.59 264.5,-134.59 267.5,-134.59 267.5,-134.59 309.5,-134.59 309.5,-134.59 312.5,-134.59 315.5,-137.59 315.5,-140.59 315.5,-140.59 315.5,-146.59 315.5,-146.59 315.5,-149.59 312.5,-152.59 309.5,-152.59"/>
<text text-anchor="middle" x="288.5" y="-141.39" font-family="Helvetica,sans-Serif" font-size="9.00">send.js</text>
</a>
</g>
</g>
<!-- testbench/client/commands/send.js&#45;&gt;src/index.js -->
<g id="edge14" class="edge"><title>testbench/client/commands/send.js&#45;&gt;src/index.js</title>
<path fill="none" stroke="#000000" stroke-width="2" stroke-opacity="0.466667" d="M315.606,-144.605C357.051,-146.217 438.004,-149.364 484.953,-151.189"/>
<polygon fill="#000000" fill-opacity="0.466667" stroke="#000000" stroke-width="2" stroke-opacity="0.466667" points="484.861,-154.688 494.989,-151.579 485.133,-147.693 484.861,-154.688"/>
</g>
<!-- testbench/client/commands/setInfo.js -->
<g id="node17" class="node"><title>testbench/client/commands/setInfo.js</title>
<g id="a_node17"><a xlink:href="testbench/client/commands/setInfo.js" xlink:title="setInfo.js">
<path fill="#ffffcc" stroke="black" d="M312,-122.59C312,-122.59 265,-122.59 265,-122.59 262,-122.59 259,-119.59 259,-116.59 259,-116.59 259,-110.59 259,-110.59 259,-107.59 262,-104.59 265,-104.59 265,-104.59 312,-104.59 312,-104.59 315,-104.59 318,-107.59 318,-110.59 318,-110.59 318,-116.59 318,-116.59 318,-119.59 315,-122.59 312,-122.59"/>
<text text-anchor="middle" x="288.5" y="-111.39" font-family="Helvetica,sans-Serif" font-size="9.00">setInfo.js</text>
</a>
</g>
</g>
<!-- testbench/client/commands/setInfo.js&#45;&gt;src/index.js -->
<g id="edge15" class="edge"><title>testbench/client/commands/setInfo.js&#45;&gt;src/index.js</title>
<path fill="none" stroke="#000000" stroke-width="2" stroke-opacity="0.466667" d="M318.199,-117.237C355.429,-122.139 422.325,-131.526 479,-142.59 480.931,-142.967 482.908,-143.372 484.9,-143.795"/>
<polygon fill="#000000" fill-opacity="0.466667" stroke="#000000" stroke-width="2" stroke-opacity="0.466667" points="484.337,-147.255 494.859,-146.017 485.861,-140.423 484.337,-147.255"/>
</g>
<!-- testbench/client/commands/simulate.js -->
<g id="node18" class="node"><title>testbench/client/commands/simulate.js</title>
<g id="a_node18"><a xlink:href="testbench/client/commands/simulate.js" xlink:title="simulate.js">
<path fill="#ffffcc" stroke="black" d="M316,-182.59C316,-182.59 261,-182.59 261,-182.59 258,-182.59 255,-179.59 255,-176.59 255,-176.59 255,-170.59 255,-170.59 255,-167.59 258,-164.59 261,-164.59 261,-164.59 316,-164.59 316,-164.59 319,-164.59 322,-167.59 322,-170.59 322,-170.59 322,-176.59 322,-176.59 322,-179.59 319,-182.59 316,-182.59"/>
<text text-anchor="middle" x="288.5" y="-171.39" font-family="Helvetica,sans-Serif" font-size="9.00">simulate.js</text>
</a>
</g>
</g>
<!-- testbench/client/commands/simulate.js&#45;&gt;src/index.js -->
<g id="edge16" class="edge"><title>testbench/client/commands/simulate.js&#45;&gt;src/index.js</title>
<path fill="none" stroke="#000000" stroke-width="2" stroke-opacity="0.466667" d="M322.177,-170.626C365.1,-166.733 440.236,-159.917 484.829,-155.872"/>
<polygon fill="#000000" fill-opacity="0.466667" stroke="#000000" stroke-width="2" stroke-opacity="0.466667" points="485.29,-159.344 494.933,-154.955 484.657,-152.373 485.29,-159.344"/>
</g>
<!-- testbench/client/commands/simulate.js&#45;&gt;testbench/client/SiExternalApplication.js -->
<g id="edge17" class="edge"><title>testbench/client/commands/simulate.js&#45;&gt;testbench/client/SiExternalApplication.js</title>
<path fill="none" stroke="#000000" stroke-width="2" stroke-opacity="0.466667" d="M317.936,-182.746C322.086,-184.473 326.228,-186.427 330,-188.59 349.729,-199.907 369.521,-216.814 382.909,-229.278"/>
<polygon fill="#000000" fill-opacity="0.466667" stroke="#000000" stroke-width="2" stroke-opacity="0.466667" points="380.705,-232.012 390.36,-236.374 385.533,-226.943 380.705,-232.012"/>
</g>
<!-- testbench/client/commands/test.js -->
<g id="node19" class="node"><title>testbench/client/commands/test.js</title>
<g id="a_node19"><a xlink:href="testbench/client/commands/test.js" xlink:title="test.js">
<path fill="#ffffcc" stroke="black" d="M309.5,-92.5904C309.5,-92.5904 267.5,-92.5904 267.5,-92.5904 264.5,-92.5904 261.5,-89.5904 261.5,-86.5904 261.5,-86.5904 261.5,-80.5904 261.5,-80.5904 261.5,-77.5904 264.5,-74.5904 267.5,-74.5904 267.5,-74.5904 309.5,-74.5904 309.5,-74.5904 312.5,-74.5904 315.5,-77.5904 315.5,-80.5904 315.5,-80.5904 315.5,-86.5904 315.5,-86.5904 315.5,-89.5904 312.5,-92.5904 309.5,-92.5904"/>
<text text-anchor="middle" x="288.5" y="-81.3904" font-family="Helvetica,sans-Serif" font-size="9.00">test.js</text>
</a>
</g>
</g>
<!-- testbench/client/commands/test.js&#45;&gt;src/index.js -->
<g id="edge18" class="edge"><title>testbench/client/commands/test.js&#45;&gt;src/index.js</title>
<path fill="none" stroke="#000000" stroke-width="2" stroke-opacity="0.466667" d="M315.584,-84.0945C353.333,-85.7269 424.619,-92.2453 479,-117.59 488.73,-122.125 498.06,-129.484 505.444,-136.287"/>
<polygon fill="#000000" fill-opacity="0.466667" stroke="#000000" stroke-width="2" stroke-opacity="0.466667" points="503.019,-138.81 512.62,-143.29 507.908,-133.801 503.019,-138.81"/>
</g>
<!-- testbench/client/index.html -->
<g id="node20" class="node"><title>testbench/client/index.html</title>
<g id="a_node20"><a xlink:href="testbench/client/index.html" xlink:title="index.html">
<path fill="#ffffcc" stroke="black" d="M193,-178.59C193,-178.59 140,-178.59 140,-178.59 137,-178.59 134,-175.59 134,-172.59 134,-172.59 134,-166.59 134,-166.59 134,-163.59 137,-160.59 140,-160.59 140,-160.59 193,-160.59 193,-160.59 196,-160.59 199,-163.59 199,-166.59 199,-166.59 199,-172.59 199,-172.59 199,-175.59 196,-178.59 193,-178.59"/>
<text text-anchor="middle" x="166.5" y="-167.39" font-family="Helvetica,sans-Serif" font-size="9.00">index.html</text>
</a>
</g>
</g>
<!-- testbench/client/index.js -->
<g id="node21" class="node"><title>testbench/client/index.js</title>
<g id="a_node21"><a xlink:href="testbench/client/index.js" xlink:title="index.js">
<path fill="#ffffcc" stroke="black" d="M72,-268.59C72,-268.59 30,-268.59 30,-268.59 27,-268.59 24,-265.59 24,-262.59 24,-262.59 24,-256.59 24,-256.59 24,-253.59 27,-250.59 30,-250.59 30,-250.59 72,-250.59 72,-250.59 75,-250.59 78,-253.59 78,-256.59 78,-256.59 78,-262.59 78,-262.59 78,-265.59 75,-268.59 72,-268.59"/>
<text text-anchor="middle" x="51" y="-257.39" font-family="Helvetica,sans-Serif" font-size="9.00">index.js</text>
</a>
</g>
</g>
<!-- testbench/client/index.js&#45;&gt;node_modules/prop&#45;types/index.js -->
<g id="edge25" class="edge"><title>testbench/client/index.js&#45;&gt;node_modules/prop&#45;types/index.js</title>
<path fill="none" stroke="#000000" stroke-width="2" stroke-opacity="0.466667" d="M57.8167,-268.655C65.7793,-281.59 79.7918,-306.357 86,-329.59 92.5559,-354.125 82.1136,-421.148 94,-443.59 158.587,-565.535 217.24,-568.815 338,-635.59 346.003,-640.016 355.067,-643.836 363.73,-646.994"/>
<polygon fill="#000000" fill-opacity="0.466667" stroke="#000000" stroke-width="2" stroke-opacity="0.466667" points="362.667,-650.33 373.262,-650.274 364.945,-643.711 362.667,-650.33"/>
</g>
<!-- testbench/client/index.js&#45;&gt;node_modules/react&#45;dom/index.js -->
<g id="edge27" class="edge"><title>testbench/client/index.js&#45;&gt;node_modules/react&#45;dom/index.js</title>
<path fill="none" stroke="#000000" stroke-width="2" stroke-opacity="0.466667" d="M57.9109,-268.631C65.9854,-281.537 80.13,-306.269 86,-329.59 91.293,-350.619 83.5987,-505.563 94,-524.59 152.103,-630.881 296.354,-686.629 363.745,-707.609"/>
<polygon fill="#000000" fill-opacity="0.466667" stroke="#000000" stroke-width="2" stroke-opacity="0.466667" points="362.908,-711.013 373.494,-710.568 364.941,-704.315 362.908,-711.013"/>
</g>
<!-- testbench/client/index.js&#45;&gt;node_modules/react/index.js -->
<g id="edge26" class="edge"><title>testbench/client/index.js&#45;&gt;node_modules/react/index.js</title>
<path fill="none" stroke="#000000" stroke-width="2" stroke-opacity="0.466667" d="M56.1899,-268.726C73.9072,-306.438 146.419,-451.797 247,-532.59 281.975,-560.685 330.897,-578.665 363.814,-588.432"/>
<polygon fill="#000000" fill-opacity="0.466667" stroke="#000000" stroke-width="2" stroke-opacity="0.466667" points="362.906,-591.812 373.483,-591.201 364.834,-585.083 362.906,-591.812"/>
</g>
<!-- testbench/client/index.js&#45;&gt;src/index.js -->
<g id="edge19" class="edge"><title>testbench/client/index.js&#45;&gt;src/index.js</title>
<path fill="none" stroke="#000000" stroke-width="2" stroke-opacity="0.466667" d="M52.1024,-250.401C52.7635,-210.038 57.673,-49.1341 94,-18.5904 170.118,45.4096 470.701,-77.3564 479,-83.5904 495.945,-96.3192 507.521,-118.066 514.161,-133.747"/>
<polygon fill="#000000" fill-opacity="0.466667" stroke="#000000" stroke-width="2" stroke-opacity="0.466667" points="511.059,-135.423 517.975,-143.449 517.573,-132.862 511.059,-135.423"/>
</g>
<!-- testbench/client/index.js&#45;&gt;testbench/client/MainStationList.js -->
<g id="edge20" class="edge"><title>testbench/client/index.js&#45;&gt;testbench/client/MainStationList.js</title>
<path fill="none" stroke="#000000" stroke-width="2" stroke-opacity="0.466667" d="M75.8054,-268.727C81.7012,-270.814 88.0384,-272.909 94,-274.59 98.5662,-275.878 103.325,-277.11 108.122,-278.275"/>
<polygon fill="#000000" fill-opacity="0.466667" stroke="#000000" stroke-width="2" stroke-opacity="0.466667" points="107.44,-281.709 117.973,-280.567 109.026,-274.892 107.44,-281.709"/>
</g>
<!-- testbench/client/index.js&#45;&gt;testbench/client/Terminal.js -->
<g id="edge21" class="edge"><title>testbench/client/index.js&#45;&gt;testbench/client/Terminal.js</title>
<path fill="none" stroke="#000000" stroke-width="2" stroke-opacity="0.466667" d="M78.0392,-259.59C91.5459,-259.59 108.374,-259.59 123.651,-259.59"/>
<polygon fill="#000000" fill-opacity="0.466667" stroke="#000000" stroke-width="2" stroke-opacity="0.466667" points="123.92,-263.091 133.92,-259.59 123.92,-256.091 123.92,-263.091"/>
</g>
<!-- testbench/client/index.js&#45;&gt;testbench/client/WebUsbSiDevicesContext.js -->
<g id="edge22" class="edge"><title>testbench/client/index.js&#45;&gt;testbench/client/WebUsbSiDevicesContext.js</title>
<path fill="none" stroke="#000000" stroke-width="2" stroke-opacity="0.466667" d="M75.8054,-250.454C81.7012,-248.367 88.0384,-246.272 94,-244.59 98.5662,-243.303 103.325,-242.071 108.122,-240.906"/>
<polygon fill="#000000" fill-opacity="0.466667" stroke="#000000" stroke-width="2" stroke-opacity="0.466667" points="109.026,-244.289 117.973,-238.614 107.44,-237.471 109.026,-244.289"/>
</g>
<!-- testbench/client/index.js&#45;&gt;testbench/client/index.html -->
<g id="edge23" class="edge"><title>testbench/client/index.js&#45;&gt;testbench/client/index.html</title>
<path fill="none" stroke="#000000" stroke-width="2" stroke-opacity="0.466667" d="M54.3787,-250.553C59.0816,-234.559 71.1481,-201.377 94,-184.59 102.676,-178.217 113.458,-174.421 123.997,-172.194"/>
<polygon fill="#000000" fill-opacity="0.466667" stroke="#000000" stroke-width="2" stroke-opacity="0.466667" points="124.675,-175.629 133.949,-170.507 123.505,-168.728 124.675,-175.629"/>
</g>
<!-- testbench/client/styles.css -->
<g id="node22" class="node"><title>testbench/client/styles.css</title>
<g id="a_node22"><a xlink:href="testbench/client/styles.css" xlink:title="styles.css">
<path fill="#ffffcc" stroke="black" d="M191.5,-208.59C191.5,-208.59 141.5,-208.59 141.5,-208.59 138.5,-208.59 135.5,-205.59 135.5,-202.59 135.5,-202.59 135.5,-196.59 135.5,-196.59 135.5,-193.59 138.5,-190.59 141.5,-190.59 141.5,-190.59 191.5,-190.59 191.5,-190.59 194.5,-190.59 197.5,-193.59 197.5,-196.59 197.5,-196.59 197.5,-202.59 197.5,-202.59 197.5,-205.59 194.5,-208.59 191.5,-208.59"/>
<text text-anchor="middle" x="166.5" y="-197.39" font-family="Helvetica,sans-Serif" font-size="9.00">styles.css</text>
</a>
</g>
</g>
<!-- testbench/client/index.js&#45;&gt;testbench/client/styles.css -->
<g id="edge24" class="edge"><title>testbench/client/index.js&#45;&gt;testbench/client/styles.css</title>
<path fill="none" stroke="#000000" stroke-width="2" stroke-opacity="0.466667" d="M57.9326,-250.419C65.1599,-240.032 78.3604,-223.407 94,-214.59 103.461,-209.257 114.593,-205.813 125.22,-203.591"/>
<polygon fill="#000000" fill-opacity="0.466667" stroke="#000000" stroke-width="2" stroke-opacity="0.466667" points="125.952,-207.016 135.182,-201.814 124.722,-200.125 125.952,-207.016"/>
</g>
<!-- testbench/server/index.js -->
<g id="node23" class="node"><title>testbench/server/index.js</title>
<g id="a_node23"><a xlink:href="testbench/server/index.js" xlink:title="index.js">
<path fill="#ffffcc" stroke="black" d="M72,-358.59C72,-358.59 30,-358.59 30,-358.59 27,-358.59 24,-355.59 24,-352.59 24,-352.59 24,-346.59 24,-346.59 24,-343.59 27,-340.59 30,-340.59 30,-340.59 72,-340.59 72,-340.59 75,-340.59 78,-343.59 78,-346.59 78,-346.59 78,-352.59 78,-352.59 78,-355.59 75,-358.59 72,-358.59"/>
<text text-anchor="middle" x="51" y="-347.39" font-family="Helvetica,sans-Serif" font-size="9.00">index.js</text>
</a>
</g>
</g>
<!-- testbench/server/index.js&#45;&gt;net -->
<g id="edge28" class="edge"><title>testbench/server/index.js&#45;&gt;net</title>
<path fill="none" stroke="grey" d="M72.7865,-340.567C77.9973,-337.265 82.9637,-332.981 86,-327.59 100.838,-301.246 75.6816,-79.6447 94,-55.5904 102.402,-44.5573 116.235,-38.9007 129.506,-36.0549"/>
<polygon fill="grey" stroke="grey" points="130.164,-39.4934 139.446,-34.3841 129.004,-32.5903 130.164,-39.4934"/>
</g>
<!-- testbench/server/index.js&#45;&gt;node_modules/ws/index.js -->
<g id="edge29" class="edge"><title>testbench/server/index.js&#45;&gt;node_modules/ws/index.js</title>
<path fill="none" stroke="#000000" stroke-width="2" stroke-opacity="0.466667" d="M51.7811,-358.607C50.7718,-407.869 48.3922,-644.172 94,-696.59 162.577,-775.407 298.138,-781.79 363.109,-779.886"/>
<polygon fill="#000000" fill-opacity="0.466667" stroke="#000000" stroke-width="2" stroke-opacity="0.466667" points="363.419,-783.377 373.28,-779.502 363.155,-776.382 363.419,-783.377"/>
</g>
</g>
</svg>
