<?xml version="1.0" encoding="UTF-8" standalone="no"?>
<!DOCTYPE svg PUBLIC "-//W3C//DTD SVG 1.1//EN"
 "http://www.w3.org/Graphics/SVG/1.1/DTD/svg11.dtd">
<!-- Generated by graphviz version 2.38.0 (20140413.2041)
 -->
<!-- Title: dependency&#45;cruiser output Pages: 1 -->
<svg width="487pt" height="901pt"
 viewBox="0.00 0.00 487.00 900.57" xmlns="http://www.w3.org/2000/svg" xmlns:xlink="http://www.w3.org/1999/xlink">
<g id="graph0" class="graph" transform="scale(1 1) rotate(0) translate(4 896.57)">
<title>dependency&#45;cruiser output</title>
<polygon fill="white" stroke="none" points="-4,4 -4,-896.57 483,-896.57 483,4 -4,4"/>
<g id="clust1" class="cluster"><title>cluster_node_modules</title>
<path fill="#ffffff" stroke="black" stroke-width="2" d="M391,-85.9978C391,-85.9978 460,-85.9978 460,-85.9978 466,-85.9978 472,-91.9978 472,-97.9978 472,-97.9978 472,-159.998 472,-159.998 472,-165.998 466,-171.998 460,-171.998 460,-171.998 391,-171.998 391,-171.998 385,-171.998 379,-165.998 379,-159.998 379,-159.998 379,-97.9978 379,-97.9978 379,-91.9978 385,-85.9978 391,-85.9978"/>
<text text-anchor="middle" x="425.5" y="-160.798" font-family="Helvetica,sans-Serif" font-weight="bold" font-size="9.00">node_modules</text>
</g>
<g id="clust2" class="cluster"><title>cluster_node_modules/lodash</title>
<path fill="#ffffff" stroke="black" stroke-width="2" d="M400,-93.9978C400,-93.9978 451,-93.9978 451,-93.9978 457,-93.9978 463,-99.9978 463,-105.998 463,-105.998 463,-133.998 463,-133.998 463,-139.998 457,-145.998 451,-145.998 451,-145.998 400,-145.998 400,-145.998 394,-145.998 388,-139.998 388,-133.998 388,-133.998 388,-105.998 388,-105.998 388,-99.9978 394,-93.9978 400,-93.9978"/>
<text text-anchor="middle" x="425.5" y="-134.798" font-family="Helvetica,sans-Serif" font-weight="bold" font-size="9.00">lodash</text>
</g>
<g id="clust3" class="cluster"><title>cluster_src</title>
<path fill="#ffffff" stroke="black" stroke-width="2" d="M20,-179.998C20,-179.998 458.5,-179.998 458.5,-179.998 464.5,-179.998 470.5,-185.998 470.5,-191.998 470.5,-191.998 470.5,-869.998 470.5,-869.998 470.5,-875.998 464.5,-881.998 458.5,-881.998 458.5,-881.998 20,-881.998 20,-881.998 14,-881.998 8,-875.998 8,-869.998 8,-869.998 8,-191.998 8,-191.998 8,-185.998 14,-179.998 20,-179.998"/>
<text text-anchor="middle" x="239.25" y="-870.798" font-family="Helvetica,sans-Serif" font-weight="bold" font-size="9.00">src</text>
</g>
<g id="clust4" class="cluster"><title>cluster_src/SiCard</title>
<path fill="#ffffff" stroke="black" stroke-width="2" d="M28,-187.998C28,-187.998 359,-187.998 359,-187.998 365,-187.998 371,-193.998 371,-199.998 371,-199.998 371,-761.998 371,-761.998 371,-767.998 365,-773.998 359,-773.998 359,-773.998 28,-773.998 28,-773.998 22,-773.998 16,-767.998 16,-761.998 16,-761.998 16,-199.998 16,-199.998 16,-193.998 22,-187.998 28,-187.998"/>
<text text-anchor="middle" x="193.5" y="-762.798" font-family="Helvetica,sans-Serif" font-weight="bold" font-size="9.00">SiCard</text>
</g>
<g id="clust5" class="cluster"><title>cluster_src/SiCard/types</title>
<path fill="#ffffff" stroke="black" stroke-width="2" d="M36,-325.998C36,-325.998 351,-325.998 351,-325.998 357,-325.998 363,-331.998 363,-337.998 363,-337.998 363,-695.998 363,-695.998 363,-701.998 357,-707.998 351,-707.998 351,-707.998 36,-707.998 36,-707.998 30,-707.998 24,-701.998 24,-695.998 24,-695.998 24,-337.998 24,-337.998 24,-331.998 30,-325.998 36,-325.998"/>
<text text-anchor="middle" x="193.5" y="-696.798" font-family="Helvetica,sans-Serif" font-weight="bold" font-size="9.00">types</text>
</g>
<g id="clust6" class="cluster"><title>cluster_src/utils</title>
<path fill="#ffffff" stroke="black" stroke-width="2" d="M402.5,-484.998C402.5,-484.998 448.5,-484.998 448.5,-484.998 454.5,-484.998 460.5,-490.998 460.5,-496.998 460.5,-496.998 460.5,-524.998 460.5,-524.998 460.5,-530.998 454.5,-536.998 448.5,-536.998 448.5,-536.998 402.5,-536.998 402.5,-536.998 396.5,-536.998 390.5,-530.998 390.5,-524.998 390.5,-524.998 390.5,-496.998 390.5,-496.998 390.5,-490.998 396.5,-484.998 402.5,-484.998"/>
<text text-anchor="middle" x="425.5" y="-525.798" font-family="Helvetica,sans-Serif" font-weight="bold" font-size="9.00">utils</text>
</g>
<!-- node_modules/lodash/lodash.js -->
<g id="node1" class="node"><title>node_modules/lodash/lodash.js</title>
<g id="a_node1"><a xlink:href="node_modules/lodash/lodash.js" xlink:title="lodash.js">
<polygon fill="#c40b0a" fill-opacity="0.101961" stroke="black" points="455,-119.998 453.5,-121.998 443,-121.998 441.5,-119.998 396,-119.998 396,-101.998 455,-101.998 455,-119.998"/>
<text text-anchor="middle" x="425.5" y="-108.798" font-family="Helvetica,sans-Serif" font-size="9.00" fill="#c40b0a">lodash.js</text>
</a>
</g>
</g>
<!-- src/SiCard/BaseSiCard.js -->
<g id="node2" class="node"><title>src/SiCard/BaseSiCard.js</title>
<g id="a_node2"><a xlink:href="src/SiCard/BaseSiCard.js" xlink:title="BaseSiCard.js">
<path fill="#ffffcc" stroke="black" d="M343,-317.998C343,-317.998 275,-317.998 275,-317.998 272,-317.998 269,-314.998 269,-311.998 269,-311.998 269,-305.998 269,-305.998 269,-302.998 272,-299.998 275,-299.998 275,-299.998 343,-299.998 343,-299.998 346,-299.998 349,-302.998 349,-305.998 349,-305.998 349,-311.998 349,-311.998 349,-314.998 346,-317.998 343,-317.998"/>
<text text-anchor="middle" x="309" y="-306.798" font-family="Helvetica,sans-Serif" font-size="9.00">BaseSiCard.js</text>
</a>
</g>
</g>
<!-- src/SiCard/BaseSiCard.js&#45;&gt;node_modules/lodash/lodash.js -->
<g id="edge4" class="edge"><title>src/SiCard/BaseSiCard.js&#45;&gt;node_modules/lodash/lodash.js</title>
<path fill="none" stroke="#000000" stroke-width="2" stroke-opacity="0.466667" d="M318.653,-299.529C332.119,-284.232 357.901,-252.595 371,-220.998 378.612,-202.637 371.412,-195.368 379,-176.998 386.512,-158.812 399.603,-140.584 409.821,-127.907"/>
<polygon fill="#000000" fill-opacity="0.466667" stroke="#000000" stroke-width="2" stroke-opacity="0.466667" points="412.624,-130.01 416.331,-120.085 407.244,-125.532 412.624,-130.01"/>
</g>
<!-- src/constants.js -->
<g id="node29" class="node"><title>src/constants.js</title>
<g id="a_node29"><a xlink:href="src/constants.js" xlink:title="constants.js">
<path fill="#ffffcc" stroke="black" d="M456.5,-747.998C456.5,-747.998 394.5,-747.998 394.5,-747.998 391.5,-747.998 388.5,-744.998 388.5,-741.998 388.5,-741.998 388.5,-735.998 388.5,-735.998 388.5,-732.998 391.5,-729.998 394.5,-729.998 394.5,-729.998 456.5,-729.998 456.5,-729.998 459.5,-729.998 462.5,-732.998 462.5,-735.998 462.5,-735.998 462.5,-741.998 462.5,-741.998 462.5,-744.998 459.5,-747.998 456.5,-747.998"/>
<text text-anchor="middle" x="425.5" y="-736.798" font-family="Helvetica,sans-Serif" font-size="9.00">constants.js</text>
</a>
</g>
</g>
<!-- src/SiCard/BaseSiCard.js&#45;&gt;src/constants.js -->
<g id="edge1" class="edge"><title>src/SiCard/BaseSiCard.js&#45;&gt;src/constants.js</title>
<path fill="none" stroke="#000000" stroke-width="2" stroke-opacity="0.466667" d="M349.312,-310.335C357.626,-312.518 365.529,-316.383 371,-322.998 378.689,-332.294 377.426,-528.037 379,-539.998 387.843,-607.215 408.877,-685.095 418.944,-720.169"/>
<polygon fill="#000000" fill-opacity="0.466667" stroke="#000000" stroke-width="2" stroke-opacity="0.466667" points="415.645,-721.359 421.798,-729.984 422.367,-719.405 415.645,-721.359"/>
</g>
<!-- src/siProtocol.js -->
<g id="node30" class="node"><title>src/siProtocol.js</title>
<g id="a_node30"><a xlink:href="src/siProtocol.js" xlink:title="siProtocol.js">
<path fill="#ffffcc" stroke="black" d="M456.5,-281.998C456.5,-281.998 394.5,-281.998 394.5,-281.998 391.5,-281.998 388.5,-278.998 388.5,-275.998 388.5,-275.998 388.5,-269.998 388.5,-269.998 388.5,-266.998 391.5,-263.998 394.5,-263.998 394.5,-263.998 456.5,-263.998 456.5,-263.998 459.5,-263.998 462.5,-266.998 462.5,-269.998 462.5,-269.998 462.5,-275.998 462.5,-275.998 462.5,-278.998 459.5,-281.998 456.5,-281.998"/>
<text text-anchor="middle" x="425.5" y="-270.798" font-family="Helvetica,sans-Serif" font-size="9.00">siProtocol.js</text>
</a>
</g>
</g>
<!-- src/SiCard/BaseSiCard.js&#45;&gt;src/siProtocol.js -->
<g id="edge2" class="edge"><title>src/SiCard/BaseSiCard.js&#45;&gt;src/siProtocol.js</title>
<path fill="none" stroke="#000000" stroke-width="2" stroke-opacity="0.466667" d="M349.022,-301.874C356.39,-300.193 363.983,-298.23 371,-295.998 379.587,-293.266 388.679,-289.649 396.884,-286.094"/>
<polygon fill="#000000" fill-opacity="0.466667" stroke="#000000" stroke-width="2" stroke-opacity="0.466667" points="398.326,-289.283 406.025,-282.005 395.468,-282.893 398.326,-289.283"/>
</g>
<!-- src/utils/index.js -->
<g id="node32" class="node"><title>src/utils/index.js</title>
<g id="a_node32"><a xlink:href="src/utils/index.js" xlink:title="index.js">
<path fill="#ffffcc" stroke="black" d="M446.5,-510.998C446.5,-510.998 404.5,-510.998 404.5,-510.998 401.5,-510.998 398.5,-507.998 398.5,-504.998 398.5,-504.998 398.5,-498.998 398.5,-498.998 398.5,-495.998 401.5,-492.998 404.5,-492.998 404.5,-492.998 446.5,-492.998 446.5,-492.998 449.5,-492.998 452.5,-495.998 452.5,-498.998 452.5,-498.998 452.5,-504.998 452.5,-504.998 452.5,-507.998 449.5,-510.998 446.5,-510.998"/>
<text text-anchor="middle" x="425.5" y="-499.798" font-family="Helvetica,sans-Serif" font-size="9.00">index.js</text>
</a>
</g>
</g>
<!-- src/SiCard/BaseSiCard.js&#45;&gt;src/utils/index.js -->
<g id="edge3" class="edge"><title>src/SiCard/BaseSiCard.js&#45;&gt;src/utils/index.js</title>
<path fill="none" stroke="#000000" stroke-width="2" stroke-opacity="0.466667" d="M349.259,-310.379C357.574,-312.561 365.492,-316.414 371,-322.998 382.849,-337.161 367.528,-474.528 379,-488.998 381.568,-492.237 384.884,-494.705 388.555,-496.58"/>
<polygon fill="#000000" fill-opacity="0.466667" stroke="#000000" stroke-width="2" stroke-opacity="0.466667" points="387.593,-499.955 398.186,-500.12 390.008,-493.385 387.593,-499.955"/>
</g>
<!-- src/SiCard/BaseSiCard.test.js -->
<g id="node3" class="node"><title>src/SiCard/BaseSiCard.test.js</title>
<g id="a_node3"><a xlink:href="src/SiCard/BaseSiCard.test.js" xlink:title="BaseSiCard.test.js">
<path fill="#ffffcc" stroke="black" d="M238,-747.998C238,-747.998 148,-747.998 148,-747.998 145,-747.998 142,-744.998 142,-741.998 142,-741.998 142,-735.998 142,-735.998 142,-732.998 145,-729.998 148,-729.998 148,-729.998 238,-729.998 238,-729.998 241,-729.998 244,-732.998 244,-735.998 244,-735.998 244,-741.998 244,-741.998 244,-744.998 241,-747.998 238,-747.998"/>
<text text-anchor="middle" x="193" y="-736.798" font-family="Helvetica,sans-Serif" font-size="9.00">BaseSiCard.test.js</text>
</a>
</g>
</g>
<!-- src/SiCard/BaseSiCard.test.js&#45;&gt;src/SiCard/BaseSiCard.js -->
<g id="edge8" class="edge"><title>src/SiCard/BaseSiCard.test.js&#45;&gt;src/SiCard/BaseSiCard.js</title>
<path fill="none" stroke="#000000" stroke-width="2" stroke-opacity="0.466667" d="M239.778,-729.948C243.708,-727.602 247.233,-724.667 250,-720.998 275.187,-687.605 240.415,-393.141 264.229,-326.511"/>
<polygon fill="#000000" fill-opacity="0.466667" stroke="#000000" stroke-width="2" stroke-opacity="0.466667" points="267.492,-327.821 268.973,-317.33 261.273,-324.607 267.492,-327.821"/>
</g>
<!-- src/SiCard/BaseSiCard.test.js&#45;&gt;src/constants.js -->
<g id="edge5" class="edge"><title>src/SiCard/BaseSiCard.test.js&#45;&gt;src/constants.js</title>
<path fill="none" stroke="#000000" stroke-width="2" stroke-opacity="0.466667" d="M244.015,-738.998C283.882,-738.998 339.277,-738.998 378.149,-738.998"/>
<polygon fill="#000000" fill-opacity="0.466667" stroke="#000000" stroke-width="2" stroke-opacity="0.466667" points="378.151,-742.498 388.151,-738.998 378.151,-735.498 378.151,-742.498"/>
</g>
<!-- src/SiCard/BaseSiCard.test.js&#45;&gt;src/siProtocol.js -->
<g id="edge6" class="edge"><title>src/SiCard/BaseSiCard.test.js&#45;&gt;src/siProtocol.js</title>
<path fill="none" stroke="#000000" stroke-width="2" stroke-opacity="0.466667" d="M226.279,-729.891C235.481,-725.666 244.494,-719.605 250,-710.998 274.982,-671.95 231.869,-328.345 263,-293.998 264.957,-291.839 331.402,-283.748 378.445,-278.263"/>
<polygon fill="#000000" fill-opacity="0.466667" stroke="#000000" stroke-width="2" stroke-opacity="0.466667" points="378.924,-281.731 388.453,-277.101 378.116,-274.778 378.924,-281.731"/>
</g>
<!-- src/testUtils.js -->
<g id="node31" class="node"><title>src/testUtils.js</title>
<g id="a_node31"><a xlink:href="src/testUtils.js" xlink:title="testUtils.js">
<path fill="#ffffcc" stroke="black" d="M336,-799.998C336,-799.998 282,-799.998 282,-799.998 279,-799.998 276,-796.998 276,-793.998 276,-793.998 276,-787.998 276,-787.998 276,-784.998 279,-781.998 282,-781.998 282,-781.998 336,-781.998 336,-781.998 339,-781.998 342,-784.998 342,-787.998 342,-787.998 342,-793.998 342,-793.998 342,-796.998 339,-799.998 336,-799.998"/>
<text text-anchor="middle" x="309" y="-788.798" font-family="Helvetica,sans-Serif" font-size="9.00">testUtils.js</text>
</a>
</g>
</g>
<!-- src/SiCard/BaseSiCard.test.js&#45;&gt;src/testUtils.js -->
<g id="edge7" class="edge"><title>src/SiCard/BaseSiCard.test.js&#45;&gt;src/testUtils.js</title>
<path fill="none" stroke="#000000" stroke-width="2" stroke-opacity="0.466667" d="M243.952,-748.059C246.077,-749.223 248.107,-750.53 250,-751.998 259.896,-759.673 253.393,-768.964 263,-776.998 264.177,-777.982 265.423,-778.897 266.721,-779.748"/>
<polygon fill="#000000" fill-opacity="0.466667" stroke="#000000" stroke-width="2" stroke-opacity="0.466667" points="265.389,-782.999 275.88,-784.482 268.604,-776.781 265.389,-782.999"/>
</g>
<!-- src/SiCard/index.js -->
<g id="node4" class="node"><title>src/SiCard/index.js</title>
<g id="a_node4"><a xlink:href="src/SiCard/index.js" xlink:title="index.js">
<path fill="#ffffcc" stroke="black" d="M98.5,-733.998C98.5,-733.998 56.5,-733.998 56.5,-733.998 53.5,-733.998 50.5,-730.998 50.5,-727.998 50.5,-727.998 50.5,-721.998 50.5,-721.998 50.5,-718.998 53.5,-715.998 56.5,-715.998 56.5,-715.998 98.5,-715.998 98.5,-715.998 101.5,-715.998 104.5,-718.998 104.5,-721.998 104.5,-721.998 104.5,-727.998 104.5,-727.998 104.5,-730.998 101.5,-733.998 98.5,-733.998"/>
<text text-anchor="middle" x="77.5" y="-722.798" font-family="Helvetica,sans-Serif" font-size="9.00">index.js</text>
</a>
</g>
</g>
<!-- src/SiCard/index.js&#45;&gt;src/SiCard/BaseSiCard.js -->
<g id="edge9" class="edge"><title>src/SiCard/index.js&#45;&gt;src/SiCard/BaseSiCard.js</title>
<path fill="none" stroke="#000000" stroke-width="2" stroke-opacity="0.466667" d="M104.735,-723.765C151.547,-721.44 245.066,-716.174 250,-710.998 278.134,-681.482 241.325,-391.702 264.354,-326.33"/>
<polygon fill="#000000" fill-opacity="0.466667" stroke="#000000" stroke-width="2" stroke-opacity="0.466667" points="267.52,-327.826 268.975,-317.331 261.293,-324.628 267.52,-327.826"/>
</g>
<!-- src/SiCard/types/index.js -->
<g id="node27" class="node"><title>src/SiCard/types/index.js</title>
<g id="a_node27"><a xlink:href="src/SiCard/types/index.js" xlink:title="index.js">
<path fill="#ffffcc" stroke="black" d="M214,-651.998C214,-651.998 172,-651.998 172,-651.998 169,-651.998 166,-648.998 166,-645.998 166,-645.998 166,-639.998 166,-639.998 166,-636.998 169,-633.998 172,-633.998 172,-633.998 214,-633.998 214,-633.998 217,-633.998 220,-636.998 220,-639.998 220,-639.998 220,-645.998 220,-645.998 220,-648.998 217,-651.998 214,-651.998"/>
<text text-anchor="middle" x="193" y="-640.798" font-family="Helvetica,sans-Serif" font-size="9.00">index.js</text>
</a>
</g>
</g>
<!-- src/SiCard/index.js&#45;&gt;src/SiCard/types/index.js -->
<g id="edge10" class="edge"><title>src/SiCard/index.js&#45;&gt;src/SiCard/types/index.js</title>
<path fill="none" stroke="#000000" stroke-width="2" stroke-opacity="0.466667" d="M104.542,-721.54C111.343,-719.476 118.125,-716.197 123,-710.998 139.59,-693.306 119.033,-675.328 136,-657.998 141.434,-652.447 148.682,-648.88 156.156,-646.605"/>
<polygon fill="#000000" fill-opacity="0.466667" stroke="#000000" stroke-width="2" stroke-opacity="0.466667" points="157.041,-649.992 165.977,-644.3 155.442,-643.177 157.041,-649.992"/>
</g>
<!-- src/SiCard/types/FCard.js -->
<g id="node5" class="node"><title>src/SiCard/types/FCard.js</title>
<g id="a_node5"><a xlink:href="src/SiCard/types/FCard.js" xlink:title="FCard.js">
<path fill="#ffffcc" stroke="black" d="M214,-441.998C214,-441.998 172,-441.998 172,-441.998 169,-441.998 166,-438.998 166,-435.998 166,-435.998 166,-429.998 166,-429.998 166,-426.998 169,-423.998 172,-423.998 172,-423.998 214,-423.998 214,-423.998 217,-423.998 220,-426.998 220,-429.998 220,-429.998 220,-435.998 220,-435.998 220,-438.998 217,-441.998 214,-441.998"/>
<text text-anchor="middle" x="193" y="-430.798" font-family="Helvetica,sans-Serif" font-size="9.00">FCard.js</text>
</a>
</g>
</g>
<!-- src/SiCard/types/FCard.js&#45;&gt;src/SiCard/BaseSiCard.js -->
<g id="edge11" class="edge"><title>src/SiCard/types/FCard.js&#45;&gt;src/SiCard/BaseSiCard.js</title>
<path fill="none" stroke="#000000" stroke-width="2" stroke-opacity="0.466667" d="M220.147,-432.125C230.895,-430.382 242.545,-426.454 250,-417.998 276.09,-388.403 241.413,-360.058 262.589,-326.089"/>
<polygon fill="#000000" fill-opacity="0.466667" stroke="#000000" stroke-width="2" stroke-opacity="0.466667" points="265.605,-327.902 268.82,-317.807 260.011,-323.694 265.605,-327.902"/>
</g>
<!-- src/SiCard/types/FCard.test.js -->
<g id="node6" class="node"><title>src/SiCard/types/FCard.test.js</title>
<g id="a_node6"><a xlink:href="src/SiCard/types/FCard.test.js" xlink:title="FCard.test.js">
<path fill="#ffffcc" stroke="black" d="M109.5,-441.998C109.5,-441.998 45.5,-441.998 45.5,-441.998 42.5,-441.998 39.5,-438.998 39.5,-435.998 39.5,-435.998 39.5,-429.998 39.5,-429.998 39.5,-426.998 42.5,-423.998 45.5,-423.998 45.5,-423.998 109.5,-423.998 109.5,-423.998 112.5,-423.998 115.5,-426.998 115.5,-429.998 115.5,-429.998 115.5,-435.998 115.5,-435.998 115.5,-438.998 112.5,-441.998 109.5,-441.998"/>
<text text-anchor="middle" x="77.5" y="-430.798" font-family="Helvetica,sans-Serif" font-size="9.00">FCard.test.js</text>
</a>
</g>
</g>
<!-- src/SiCard/types/FCard.test.js&#45;&gt;src/SiCard/BaseSiCard.js -->
<g id="edge12" class="edge"><title>src/SiCard/types/FCard.test.js&#45;&gt;src/SiCard/BaseSiCard.js</title>
<path fill="none" stroke="#000000" stroke-width="2" stroke-opacity="0.466667" d="M115.803,-424.479C118.534,-422.707 120.997,-420.572 123,-417.998 146.13,-388.27 108.363,-274.59 136,-248.998 154.588,-231.785 226.678,-239.105 250,-248.998 270.132,-257.537 286.686,-276.865 296.884,-291.29"/>
<polygon fill="#000000" fill-opacity="0.466667" stroke="#000000" stroke-width="2" stroke-opacity="0.466667" points="294.173,-293.532 302.641,-299.9 299.992,-289.641 294.173,-293.532"/>
</g>
<!-- src/SiCard/types/FCard.test.js&#45;&gt;src/SiCard/types/FCard.js -->
<g id="edge13" class="edge"><title>src/SiCard/types/FCard.test.js&#45;&gt;src/SiCard/types/FCard.js</title>
<path fill="none" stroke="#000000" stroke-width="2" stroke-opacity="0.466667" d="M115.664,-432.998C128.493,-432.998 142.845,-432.998 155.611,-432.998"/>
<polygon fill="#000000" fill-opacity="0.466667" stroke="#000000" stroke-width="2" stroke-opacity="0.466667" points="155.894,-436.498 165.894,-432.998 155.894,-429.498 155.894,-436.498"/>
</g>
<!-- src/SiCard/types/ModernSiCard.js -->
<g id="node7" class="node"><title>src/SiCard/types/ModernSiCard.js</title>
<g id="a_node7"><a xlink:href="src/SiCard/types/ModernSiCard.js" xlink:title="ModernSiCard.js">
<path fill="#ffffcc" stroke="black" d="M349,-481.998C349,-481.998 269,-481.998 269,-481.998 266,-481.998 263,-478.998 263,-475.998 263,-475.998 263,-469.998 263,-469.998 263,-466.998 266,-463.998 269,-463.998 269,-463.998 349,-463.998 349,-463.998 352,-463.998 355,-466.998 355,-469.998 355,-469.998 355,-475.998 355,-475.998 355,-478.998 352,-481.998 349,-481.998"/>
<text text-anchor="middle" x="309" y="-470.798" font-family="Helvetica,sans-Serif" font-size="9.00">ModernSiCard.js</text>
</a>
</g>
</g>
<!-- src/SiCard/types/ModernSiCard.js&#45;&gt;node_modules/lodash/lodash.js -->
<g id="edge18" class="edge"><title>src/SiCard/types/ModernSiCard.js&#45;&gt;node_modules/lodash/lodash.js</title>
<path fill="none" stroke="#000000" stroke-width="2" stroke-opacity="0.466667" d="M355.206,-470.584C361.282,-468.356 366.842,-464.99 371,-459.998 381.067,-447.913 374.113,-191.948 379,-176.998 385.043,-158.511 398.047,-140.54 408.612,-128.03"/>
<polygon fill="#000000" fill-opacity="0.466667" stroke="#000000" stroke-width="2" stroke-opacity="0.466667" points="411.435,-130.12 415.421,-120.303 406.183,-125.492 411.435,-130.12"/>
</g>
<!-- src/SiCard/types/ModernSiCard.js&#45;&gt;src/SiCard/BaseSiCard.js -->
<g id="edge17" class="edge"><title>src/SiCard/types/ModernSiCard.js&#45;&gt;src/SiCard/BaseSiCard.js</title>
<path fill="none" stroke="#000000" stroke-width="2" stroke-opacity="0.466667" d="M309,-463.933C309,-418.798 309,-373.663 309,-328.528"/>
<polygon fill="#000000" fill-opacity="0.466667" stroke="#000000" stroke-width="2" stroke-opacity="0.466667" points="312.5,-328.287 309,-318.287 305.5,-328.287 312.5,-328.287"/>
</g>
<!-- src/SiCard/types/ModernSiCard.js&#45;&gt;src/constants.js -->
<g id="edge14" class="edge"><title>src/SiCard/types/ModernSiCard.js&#45;&gt;src/constants.js</title>
<path fill="none" stroke="#000000" stroke-width="2" stroke-opacity="0.466667" d="M355.004,-475.971C361.029,-478.14 366.627,-481.341 371,-485.998 379.304,-494.841 376.757,-528.076 379,-539.998 391.533,-606.625 410.742,-684.797 419.651,-720.056"/>
<polygon fill="#000000" fill-opacity="0.466667" stroke="#000000" stroke-width="2" stroke-opacity="0.466667" points="416.305,-721.097 422.161,-729.926 423.089,-719.372 416.305,-721.097"/>
</g>
<!-- src/SiCard/types/ModernSiCard.js&#45;&gt;src/siProtocol.js -->
<g id="edge15" class="edge"><title>src/SiCard/types/ModernSiCard.js&#45;&gt;src/siProtocol.js</title>
<path fill="none" stroke="#000000" stroke-width="2" stroke-opacity="0.466667" d="M355.096,-469.28C360.962,-467.19 366.488,-464.21 371,-459.998 419.094,-415.099 424.97,-330.219 425.033,-292.228"/>
<polygon fill="#000000" fill-opacity="0.466667" stroke="#000000" stroke-width="2" stroke-opacity="0.466667" points="428.531,-291.994 424.906,-282.039 421.531,-292.081 428.531,-291.994"/>
</g>
<!-- src/SiCard/types/ModernSiCard.js&#45;&gt;src/utils/index.js -->
<g id="edge16" class="edge"><title>src/SiCard/types/ModernSiCard.js&#45;&gt;src/utils/index.js</title>
<path fill="none" stroke="#000000" stroke-width="2" stroke-opacity="0.466667" d="M345.601,-482.015C359.202,-485.46 374.716,-489.389 388.366,-492.846"/>
<polygon fill="#000000" fill-opacity="0.466667" stroke="#000000" stroke-width="2" stroke-opacity="0.466667" points="387.826,-496.32 398.379,-495.382 389.545,-489.534 387.826,-496.32"/>
</g>
<!-- src/SiCard/types/ModernSiCard.test.js -->
<g id="node8" class="node"><title>src/SiCard/types/ModernSiCard.test.js</title>
<g id="a_node8"><a xlink:href="src/SiCard/types/ModernSiCard.test.js" xlink:title="ModernSiCard.test.js">
<path fill="#ffffcc" stroke="black" d="M244,-681.998C244,-681.998 142,-681.998 142,-681.998 139,-681.998 136,-678.998 136,-675.998 136,-675.998 136,-669.998 136,-669.998 136,-666.998 139,-663.998 142,-663.998 142,-663.998 244,-663.998 244,-663.998 247,-663.998 250,-666.998 250,-669.998 250,-669.998 250,-675.998 250,-675.998 250,-678.998 247,-681.998 244,-681.998"/>
<text text-anchor="middle" x="193" y="-670.798" font-family="Helvetica,sans-Serif" font-size="9.00">ModernSiCard.test.js</text>
</a>
</g>
</g>
<!-- src/SiCard/types/ModernSiCard.test.js&#45;&gt;node_modules/lodash/lodash.js -->
<g id="edge22" class="edge"><title>src/SiCard/types/ModernSiCard.test.js&#45;&gt;node_modules/lodash/lodash.js</title>
<path fill="none" stroke="#000000" stroke-width="2" stroke-opacity="0.466667" d="M243.975,-663.756C246.215,-662.114 248.251,-660.208 250,-657.998 280.076,-619.992 232.443,-259.617 263,-221.998 294.128,-183.676 333.375,-227.964 371,-195.998 377.983,-190.065 374.599,-185.034 379,-176.998 388.56,-159.542 401.637,-140.994 411.319,-128.021"/>
<polygon fill="#000000" fill-opacity="0.466667" stroke="#000000" stroke-width="2" stroke-opacity="0.466667" points="414.139,-130.094 417.394,-120.011 408.562,-125.863 414.139,-130.094"/>
</g>
<!-- src/SiCard/types/ModernSiCard.test.js&#45;&gt;src/SiCard/types/ModernSiCard.js -->
<g id="edge21" class="edge"><title>src/SiCard/types/ModernSiCard.test.js&#45;&gt;src/SiCard/types/ModernSiCard.js</title>
<path fill="none" stroke="#000000" stroke-width="2" stroke-opacity="0.466667" d="M243.856,-663.659C246.126,-662.042 248.201,-660.167 250,-657.998 272.65,-630.68 243.783,-532.02 261.546,-490.948"/>
<polygon fill="#000000" fill-opacity="0.466667" stroke="#000000" stroke-width="2" stroke-opacity="0.466667" points="264.624,-492.622 266.768,-482.247 258.621,-489.02 264.624,-492.622"/>
</g>
<!-- src/SiCard/types/ModernSiCard.test.js&#45;&gt;src/constants.js -->
<g id="edge19" class="edge"><title>src/SiCard/types/ModernSiCard.test.js&#45;&gt;src/constants.js</title>
<path fill="none" stroke="#000000" stroke-width="2" stroke-opacity="0.466667" d="M250.193,-676.985C285.797,-680.918 332.267,-688.691 371,-703.998 383.171,-708.808 395.479,-716.611 405.217,-723.631"/>
<polygon fill="#000000" fill-opacity="0.466667" stroke="#000000" stroke-width="2" stroke-opacity="0.466667" points="403.262,-726.54 413.359,-729.748 407.467,-720.943 403.262,-726.54"/>
</g>
<!-- src/SiCard/types/ModernSiCard.test.js&#45;&gt;src/testUtils.js -->
<g id="edge20" class="edge"><title>src/SiCard/types/ModernSiCard.test.js&#45;&gt;src/testUtils.js</title>
<path fill="none" stroke="#000000" stroke-width="2" stroke-opacity="0.466667" d="M243.952,-682.059C246.077,-683.223 248.107,-684.53 250,-685.998 259.896,-693.673 257.04,-699.983 263,-710.998 274.555,-732.354 288.297,-756.629 297.529,-772.783"/>
<polygon fill="#000000" fill-opacity="0.466667" stroke="#000000" stroke-width="2" stroke-opacity="0.466667" points="294.626,-774.756 302.635,-781.693 300.699,-771.276 294.626,-774.756"/>
</g>
<!-- src/SiCard/types/PCard.js -->
<g id="node9" class="node"><title>src/SiCard/types/PCard.js</title>
<g id="a_node9"><a xlink:href="src/SiCard/types/PCard.js" xlink:title="PCard.js">
<path fill="#ffffcc" stroke="black" d="M214.5,-411.998C214.5,-411.998 171.5,-411.998 171.5,-411.998 168.5,-411.998 165.5,-408.998 165.5,-405.998 165.5,-405.998 165.5,-399.998 165.5,-399.998 165.5,-396.998 168.5,-393.998 171.5,-393.998 171.5,-393.998 214.5,-393.998 214.5,-393.998 217.5,-393.998 220.5,-396.998 220.5,-399.998 220.5,-399.998 220.5,-405.998 220.5,-405.998 220.5,-408.998 217.5,-411.998 214.5,-411.998"/>
<text text-anchor="middle" x="193" y="-400.798" font-family="Helvetica,sans-Serif" font-size="9.00">PCard.js</text>
</a>
</g>
</g>
<!-- src/SiCard/types/PCard.js&#45;&gt;src/SiCard/BaseSiCard.js -->
<g id="edge23" class="edge"><title>src/SiCard/types/PCard.js&#45;&gt;src/SiCard/BaseSiCard.js</title>
<path fill="none" stroke="#000000" stroke-width="2" stroke-opacity="0.466667" d="M220.766,-401.757C231.23,-399.908 242.496,-396.001 250,-387.998 268.105,-368.689 248.254,-349.277 262.657,-325.982"/>
<polygon fill="#000000" fill-opacity="0.466667" stroke="#000000" stroke-width="2" stroke-opacity="0.466667" points="265.553,-327.961 268.959,-317.928 260.04,-323.647 265.553,-327.961"/>
</g>
<!-- src/SiCard/types/PCard.test.js -->
<g id="node10" class="node"><title>src/SiCard/types/PCard.test.js</title>
<g id="a_node10"><a xlink:href="src/SiCard/types/PCard.test.js" xlink:title="PCard.test.js">
<path fill="#ffffcc" stroke="black" d="M110,-411.998C110,-411.998 45,-411.998 45,-411.998 42,-411.998 39,-408.998 39,-405.998 39,-405.998 39,-399.998 39,-399.998 39,-396.998 42,-393.998 45,-393.998 45,-393.998 110,-393.998 110,-393.998 113,-393.998 116,-396.998 116,-399.998 116,-399.998 116,-405.998 116,-405.998 116,-408.998 113,-411.998 110,-411.998"/>
<text text-anchor="middle" x="77.5" y="-400.798" font-family="Helvetica,sans-Serif" font-size="9.00">PCard.test.js</text>
</a>
</g>
</g>
<!-- src/SiCard/types/PCard.test.js&#45;&gt;src/SiCard/BaseSiCard.js -->
<g id="edge24" class="edge"><title>src/SiCard/types/PCard.test.js&#45;&gt;src/SiCard/BaseSiCard.js</title>
<path fill="none" stroke="#000000" stroke-width="2" stroke-opacity="0.466667" d="M116.19,-394.194C118.763,-392.48 121.088,-390.435 123,-387.998 144.062,-361.151 110.871,-258.082 136,-234.998 154.656,-217.86 227.222,-223.91 250,-234.998 273.543,-246.458 290.354,-272.611 299.626,-290.544"/>
<polygon fill="#000000" fill-opacity="0.466667" stroke="#000000" stroke-width="2" stroke-opacity="0.466667" points="296.582,-292.286 304.103,-299.748 302.876,-289.224 296.582,-292.286"/>
</g>
<!-- src/SiCard/types/PCard.test.js&#45;&gt;src/SiCard/types/PCard.js -->
<g id="edge25" class="edge"><title>src/SiCard/types/PCard.test.js&#45;&gt;src/SiCard/types/PCard.js</title>
<path fill="none" stroke="#000000" stroke-width="2" stroke-opacity="0.466667" d="M116.294,-402.998C128.889,-402.998 142.891,-402.998 155.395,-402.998"/>
<polygon fill="#000000" fill-opacity="0.466667" stroke="#000000" stroke-width="2" stroke-opacity="0.466667" points="155.481,-406.498 165.481,-402.998 155.481,-399.498 155.481,-406.498"/>
</g>
<!-- src/SiCard/types/SIAC.js -->
<g id="node11" class="node"><title>src/SiCard/types/SIAC.js</title>
<g id="a_node11"><a xlink:href="src/SiCard/types/SIAC.js" xlink:title="SIAC.js">
<path fill="#ffffcc" stroke="black" d="M214,-501.998C214,-501.998 172,-501.998 172,-501.998 169,-501.998 166,-498.998 166,-495.998 166,-495.998 166,-489.998 166,-489.998 166,-486.998 169,-483.998 172,-483.998 172,-483.998 214,-483.998 214,-483.998 217,-483.998 220,-486.998 220,-489.998 220,-489.998 220,-495.998 220,-495.998 220,-498.998 217,-501.998 214,-501.998"/>
<text text-anchor="middle" x="193" y="-490.798" font-family="Helvetica,sans-Serif" font-size="9.00">SIAC.js</text>
</a>
</g>
</g>
<!-- src/SiCard/types/SIAC.js&#45;&gt;src/SiCard/BaseSiCard.js -->
<g id="edge26" class="edge"><title>src/SiCard/types/SIAC.js&#45;&gt;src/SiCard/BaseSiCard.js</title>
<path fill="none" stroke="#000000" stroke-width="2" stroke-opacity="0.466667" d="M220.07,-492.353C230.939,-490.668 242.705,-486.723 250,-477.998 270.44,-453.552 245.852,-365.358 263.303,-326.464"/>
<polygon fill="#000000" fill-opacity="0.466667" stroke="#000000" stroke-width="2" stroke-opacity="0.466667" points="266.433,-328.057 268.698,-317.707 260.473,-324.385 266.433,-328.057"/>
</g>
<!-- src/SiCard/types/SIAC.js&#45;&gt;src/SiCard/types/ModernSiCard.js -->
<g id="edge27" class="edge"><title>src/SiCard/types/SIAC.js&#45;&gt;src/SiCard/types/ModernSiCard.js</title>
<path fill="none" stroke="#000000" stroke-width="2" stroke-opacity="0.466667" d="M220.154,-488.409C229.916,-486.697 241.405,-484.681 252.798,-482.682"/>
<polygon fill="#000000" fill-opacity="0.466667" stroke="#000000" stroke-width="2" stroke-opacity="0.466667" points="253.495,-486.114 262.739,-480.938 252.285,-479.219 253.495,-486.114"/>
</g>
<!-- src/SiCard/types/SIAC.test.js -->
<g id="node12" class="node"><title>src/SiCard/types/SIAC.test.js</title>
<g id="a_node12"><a xlink:href="src/SiCard/types/SIAC.test.js" xlink:title="SIAC.test.js">
<path fill="#ffffcc" stroke="black" d="M106,-501.998C106,-501.998 49,-501.998 49,-501.998 46,-501.998 43,-498.998 43,-495.998 43,-495.998 43,-489.998 43,-489.998 43,-486.998 46,-483.998 49,-483.998 49,-483.998 106,-483.998 106,-483.998 109,-483.998 112,-486.998 112,-489.998 112,-489.998 112,-495.998 112,-495.998 112,-498.998 109,-501.998 106,-501.998"/>
<text text-anchor="middle" x="77.5" y="-490.798" font-family="Helvetica,sans-Serif" font-size="9.00">SIAC.test.js</text>
</a>
</g>
</g>
<!-- src/SiCard/types/SIAC.test.js&#45;&gt;node_modules/lodash/lodash.js -->
<g id="edge31" class="edge"><title>src/SiCard/types/SIAC.test.js&#45;&gt;node_modules/lodash/lodash.js</title>
<path fill="none" stroke="#000000" stroke-width="2" stroke-opacity="0.466667" d="M112.129,-486.776C116.36,-484.644 120.184,-481.797 123,-477.998 151.661,-439.329 101.458,-78.5183 136,-44.9978 210.953,27.739 276.719,-0.0567204 371,-44.9978 391.509,-54.7738 406.706,-76.6793 415.559,-92.5788"/>
<polygon fill="#000000" fill-opacity="0.466667" stroke="#000000" stroke-width="2" stroke-opacity="0.466667" points="412.509,-94.2985 420.242,-101.54 418.713,-91.0565 412.509,-94.2985"/>
</g>
<!-- src/SiCard/types/SIAC.test.js&#45;&gt;src/SiCard/BaseSiCard.js -->
<g id="edge29" class="edge"><title>src/SiCard/types/SIAC.test.js&#45;&gt;src/SiCard/BaseSiCard.js</title>
<path fill="none" stroke="#000000" stroke-width="2" stroke-opacity="0.466667" d="M112.012,-486.688C116.259,-484.568 120.119,-481.747 123,-477.998 150.271,-442.505 103.344,-307.61 136,-276.998 154.482,-259.672 225.467,-270.679 250,-276.998 263.265,-280.414 276.742,-287.579 287.362,-294.264"/>
<polygon fill="#000000" fill-opacity="0.466667" stroke="#000000" stroke-width="2" stroke-opacity="0.466667" points="285.613,-297.304 295.883,-299.91 289.48,-291.469 285.613,-297.304"/>
</g>
<!-- src/SiCard/types/SIAC.test.js&#45;&gt;src/SiCard/types/SIAC.js -->
<g id="edge30" class="edge"><title>src/SiCard/types/SIAC.test.js&#45;&gt;src/SiCard/types/SIAC.js</title>
<path fill="none" stroke="#000000" stroke-width="2" stroke-opacity="0.466667" d="M112.246,-492.998C125.889,-492.998 141.667,-492.998 155.57,-492.998"/>
<polygon fill="#000000" fill-opacity="0.466667" stroke="#000000" stroke-width="2" stroke-opacity="0.466667" points="155.77,-496.498 165.77,-492.998 155.77,-489.498 155.77,-496.498"/>
</g>
<!-- src/SiCard/types/SIAC.test.js&#45;&gt;src/constants.js -->
<g id="edge28" class="edge"><title>src/SiCard/types/SIAC.test.js&#45;&gt;src/constants.js</title>
<path fill="none" stroke="#000000" stroke-width="2" stroke-opacity="0.466667" d="M112.053,-499.276C116.295,-501.401 120.142,-504.231 123,-507.998 139.678,-529.981 115.984,-737.004 136,-755.998 154.94,-773.971 345.197,-759.999 371,-755.998 377.859,-754.934 385.042,-753.147 391.838,-751.12"/>
<polygon fill="#000000" fill-opacity="0.466667" stroke="#000000" stroke-width="2" stroke-opacity="0.466667" points="392.986,-754.428 401.436,-748.037 390.845,-747.764 392.986,-754.428"/>
</g>
<!-- src/SiCard/types/SiCard10.js -->
<g id="node13" class="node"><title>src/SiCard/types/SiCard10.js</title>
<g id="a_node13"><a xlink:href="src/SiCard/types/SiCard10.js" xlink:title="SiCard10.js">
<path fill="#ffffcc" stroke="black" d="M221.5,-531.998C221.5,-531.998 164.5,-531.998 164.5,-531.998 161.5,-531.998 158.5,-528.998 158.5,-525.998 158.5,-525.998 158.5,-519.998 158.5,-519.998 158.5,-516.998 161.5,-513.998 164.5,-513.998 164.5,-513.998 221.5,-513.998 221.5,-513.998 224.5,-513.998 227.5,-516.998 227.5,-519.998 227.5,-519.998 227.5,-525.998 227.5,-525.998 227.5,-528.998 224.5,-531.998 221.5,-531.998"/>
<text text-anchor="middle" x="193" y="-520.798" font-family="Helvetica,sans-Serif" font-size="9.00">SiCard10.js</text>
</a>
</g>
</g>
<!-- src/SiCard/types/SiCard10.js&#45;&gt;src/SiCard/BaseSiCard.js -->
<g id="edge32" class="edge"><title>src/SiCard/types/SiCard10.js&#45;&gt;src/SiCard/BaseSiCard.js</title>
<path fill="none" stroke="#000000" stroke-width="2" stroke-opacity="0.466667" d="M227.709,-520.85C236.177,-518.65 244.429,-514.753 250,-507.998 274.48,-478.314 242.285,-370.973 263.328,-326.229"/>
<polygon fill="#000000" fill-opacity="0.466667" stroke="#000000" stroke-width="2" stroke-opacity="0.466667" points="266.338,-328.017 268.666,-317.681 260.401,-324.309 266.338,-328.017"/>
</g>
<!-- src/SiCard/types/SiCard10.js&#45;&gt;src/SiCard/types/ModernSiCard.js -->
<g id="edge33" class="edge"><title>src/SiCard/types/SiCard10.js&#45;&gt;src/SiCard/types/ModernSiCard.js</title>
<path fill="none" stroke="#000000" stroke-width="2" stroke-opacity="0.466667" d="M227.685,-515.621C235.166,-513.532 242.961,-510.993 250,-507.998 262.722,-502.584 275.991,-494.761 286.622,-487.884"/>
<polygon fill="#000000" fill-opacity="0.466667" stroke="#000000" stroke-width="2" stroke-opacity="0.466667" points="288.822,-490.624 295.205,-482.168 284.942,-484.798 288.822,-490.624"/>
</g>
<!-- src/SiCard/types/SiCard10.test.js -->
<g id="node14" class="node"><title>src/SiCard/types/SiCard10.test.js</title>
<g id="a_node14"><a xlink:href="src/SiCard/types/SiCard10.test.js" xlink:title="SiCard10.test.js">
<path fill="#ffffcc" stroke="black" d="M117,-561.998C117,-561.998 38,-561.998 38,-561.998 35,-561.998 32,-558.998 32,-555.998 32,-555.998 32,-549.998 32,-549.998 32,-546.998 35,-543.998 38,-543.998 38,-543.998 117,-543.998 117,-543.998 120,-543.998 123,-546.998 123,-549.998 123,-549.998 123,-555.998 123,-555.998 123,-558.998 120,-561.998 117,-561.998"/>
<text text-anchor="middle" x="77.5" y="-550.798" font-family="Helvetica,sans-Serif" font-size="9.00">SiCard10.test.js</text>
</a>
</g>
</g>
<!-- src/SiCard/types/SiCard10.test.js&#45;&gt;node_modules/lodash/lodash.js -->
<g id="edge37" class="edge"><title>src/SiCard/types/SiCard10.test.js&#45;&gt;node_modules/lodash/lodash.js</title>
<path fill="none" stroke="#000000" stroke-width="2" stroke-opacity="0.466667" d="M117.135,-543.749C119.357,-542.128 121.352,-540.227 123,-537.998 138.432,-517.13 117.394,-89.0933 136,-70.9978 173.437,-34.5885 321.445,-54.5208 371,-70.9978 385.272,-75.7433 398.814,-85.9461 408.703,-94.8592"/>
<polygon fill="#000000" fill-opacity="0.466667" stroke="#000000" stroke-width="2" stroke-opacity="0.466667" points="406.432,-97.5299 416.086,-101.895 411.261,-92.4623 406.432,-97.5299"/>
</g>
<!-- src/SiCard/types/SiCard10.test.js&#45;&gt;src/SiCard/BaseSiCard.js -->
<g id="edge35" class="edge"><title>src/SiCard/types/SiCard10.test.js&#45;&gt;src/SiCard/BaseSiCard.js</title>
<path fill="none" stroke="#000000" stroke-width="2" stroke-opacity="0.466667" d="M116.668,-543.978C119.064,-542.308 121.222,-540.333 123,-537.998 138.707,-517.367 117.162,-322.814 136,-304.998 153.063,-288.861 214.062,-294.058 258.583,-300.468"/>
<polygon fill="#000000" fill-opacity="0.466667" stroke="#000000" stroke-width="2" stroke-opacity="0.466667" points="258.25,-303.957 268.658,-301.979 259.288,-297.035 258.25,-303.957"/>
</g>
<!-- src/SiCard/types/SiCard10.test.js&#45;&gt;src/SiCard/types/SiCard10.js -->
<g id="edge36" class="edge"><title>src/SiCard/types/SiCard10.test.js&#45;&gt;src/SiCard/types/SiCard10.js</title>
<path fill="none" stroke="#000000" stroke-width="2" stroke-opacity="0.466667" d="M112.554,-543.997C123.879,-541.003 136.647,-537.628 148.582,-534.474"/>
<polygon fill="#000000" fill-opacity="0.466667" stroke="#000000" stroke-width="2" stroke-opacity="0.466667" points="149.588,-537.828 158.361,-531.889 147.799,-531.061 149.588,-537.828"/>
</g>
<!-- src/SiCard/types/SiCard10.test.js&#45;&gt;src/constants.js -->
<g id="edge34" class="edge"><title>src/SiCard/types/SiCard10.test.js&#45;&gt;src/constants.js</title>
<path fill="none" stroke="#000000" stroke-width="2" stroke-opacity="0.466667" d="M116.642,-562.037C119.044,-563.703 121.21,-565.672 123,-567.998 149.753,-602.77 106.277,-732.727 136,-764.998 170.705,-802.677 208.047,-752.601 250,-781.998 259.935,-788.959 252.578,-799.79 263,-805.998 283.62,-818.279 349.373,-816.404 371,-805.998 391.883,-795.949 407.153,-773.343 415.913,-757.169"/>
<polygon fill="#000000" fill-opacity="0.466667" stroke="#000000" stroke-width="2" stroke-opacity="0.466667" points="419.112,-758.601 420.519,-748.1 412.87,-755.431 419.112,-758.601"/>
</g>
<!-- src/SiCard/types/SiCard11.js -->
<g id="node15" class="node"><title>src/SiCard/types/SiCard11.js</title>
<g id="a_node15"><a xlink:href="src/SiCard/types/SiCard11.js" xlink:title="SiCard11.js">
<path fill="#ffffcc" stroke="black" d="M221.5,-591.998C221.5,-591.998 164.5,-591.998 164.5,-591.998 161.5,-591.998 158.5,-588.998 158.5,-585.998 158.5,-585.998 158.5,-579.998 158.5,-579.998 158.5,-576.998 161.5,-573.998 164.5,-573.998 164.5,-573.998 221.5,-573.998 221.5,-573.998 224.5,-573.998 227.5,-576.998 227.5,-579.998 227.5,-579.998 227.5,-585.998 227.5,-585.998 227.5,-588.998 224.5,-591.998 221.5,-591.998"/>
<text text-anchor="middle" x="193" y="-580.798" font-family="Helvetica,sans-Serif" font-size="9.00">SiCard11.js</text>
</a>
</g>
</g>
<!-- src/SiCard/types/SiCard11.js&#45;&gt;src/SiCard/BaseSiCard.js -->
<g id="edge38" class="edge"><title>src/SiCard/types/SiCard11.js&#45;&gt;src/SiCard/BaseSiCard.js</title>
<path fill="none" stroke="#000000" stroke-width="2" stroke-opacity="0.466667" d="M227.785,-580.912C236.253,-578.712 244.487,-574.801 250,-567.998 282.517,-527.873 235.057,-382.54 263.197,-326.198"/>
<polygon fill="#000000" fill-opacity="0.466667" stroke="#000000" stroke-width="2" stroke-opacity="0.466667" points="266.219,-327.967 268.626,-317.65 260.31,-324.215 266.219,-327.967"/>
</g>
<!-- src/SiCard/types/SiCard11.js&#45;&gt;src/SiCard/types/ModernSiCard.js -->
<g id="edge39" class="edge"><title>src/SiCard/types/SiCard11.js&#45;&gt;src/SiCard/types/ModernSiCard.js</title>
<path fill="none" stroke="#000000" stroke-width="2" stroke-opacity="0.466667" d="M227.576,-578.398C235.468,-576.176 243.472,-572.881 250,-567.998 253.549,-565.343 281.801,-517.7 297.525,-490.915"/>
<polygon fill="#000000" fill-opacity="0.466667" stroke="#000000" stroke-width="2" stroke-opacity="0.466667" points="300.647,-492.51 302.683,-482.113 294.607,-488.972 300.647,-492.51"/>
</g>
<!-- src/SiCard/types/SiCard11.test.js -->
<g id="node16" class="node"><title>src/SiCard/types/SiCard11.test.js</title>
<g id="a_node16"><a xlink:href="src/SiCard/types/SiCard11.test.js" xlink:title="SiCard11.test.js">
<path fill="#ffffcc" stroke="black" d="M117,-591.998C117,-591.998 38,-591.998 38,-591.998 35,-591.998 32,-588.998 32,-585.998 32,-585.998 32,-579.998 32,-579.998 32,-576.998 35,-573.998 38,-573.998 38,-573.998 117,-573.998 117,-573.998 120,-573.998 123,-576.998 123,-579.998 123,-579.998 123,-585.998 123,-585.998 123,-588.998 120,-591.998 117,-591.998"/>
<text text-anchor="middle" x="77.5" y="-580.798" font-family="Helvetica,sans-Serif" font-size="9.00">SiCard11.test.js</text>
</a>
</g>
</g>
<!-- src/SiCard/types/SiCard11.test.js&#45;&gt;node_modules/lodash/lodash.js -->
<g id="edge43" class="edge"><title>src/SiCard/types/SiCard11.test.js&#45;&gt;node_modules/lodash/lodash.js</title>
<path fill="none" stroke="#000000" stroke-width="2" stroke-opacity="0.466667" d="M117.12,-573.738C119.345,-572.119 121.345,-570.222 123,-567.998 148.422,-533.84 115.609,-222.378 136,-184.998 168.885,-124.713 197.457,-117.487 263,-96.9978 303.653,-84.2896 352.684,-91.5002 385.978,-99.5198"/>
<polygon fill="#000000" fill-opacity="0.466667" stroke="#000000" stroke-width="2" stroke-opacity="0.466667" points="385.224,-102.94 395.779,-102.013 386.951,-96.1557 385.224,-102.94"/>
</g>
<!-- src/SiCard/types/SiCard11.test.js&#45;&gt;src/SiCard/BaseSiCard.js -->
<g id="edge41" class="edge"><title>src/SiCard/types/SiCard11.test.js&#45;&gt;src/SiCard/BaseSiCard.js</title>
<path fill="none" stroke="#000000" stroke-width="2" stroke-opacity="0.466667" d="M116.678,-573.985C119.071,-572.314 121.226,-570.336 123,-567.998 139.742,-545.925 116.468,-338.646 136,-318.998 144.522,-310.426 210.854,-308.692 258.595,-308.578"/>
<polygon fill="#000000" fill-opacity="0.466667" stroke="#000000" stroke-width="2" stroke-opacity="0.466667" points="258.774,-312.078 268.774,-308.577 258.774,-305.078 258.774,-312.078"/>
</g>
<!-- src/SiCard/types/SiCard11.test.js&#45;&gt;src/SiCard/types/SiCard11.js -->
<g id="edge42" class="edge"><title>src/SiCard/types/SiCard11.test.js&#45;&gt;src/SiCard/types/SiCard11.js</title>
<path fill="none" stroke="#000000" stroke-width="2" stroke-opacity="0.466667" d="M123.032,-582.998C131.329,-582.998 139.992,-582.998 148.264,-582.998"/>
<polygon fill="#000000" fill-opacity="0.466667" stroke="#000000" stroke-width="2" stroke-opacity="0.466667" points="148.478,-586.498 158.478,-582.998 148.478,-579.498 148.478,-586.498"/>
</g>
<!-- src/SiCard/types/SiCard11.test.js&#45;&gt;src/constants.js -->
<g id="edge40" class="edge"><title>src/SiCard/types/SiCard11.test.js&#45;&gt;src/constants.js</title>
<path fill="none" stroke="#000000" stroke-width="2" stroke-opacity="0.466667" d="M116.629,-592.047C119.034,-593.711 121.204,-595.676 123,-597.998 147.941,-630.248 110.278,-749.367 136,-780.998 169.333,-821.987 324.256,-841.619 371,-816.998 394.659,-804.536 409.867,-776.367 417.802,-757.516"/>
<polygon fill="#000000" fill-opacity="0.466667" stroke="#000000" stroke-width="2" stroke-opacity="0.466667" points="421.078,-758.749 421.469,-748.161 414.561,-756.194 421.078,-758.749"/>
</g>
<!-- src/SiCard/types/SiCard5.js -->
<g id="node17" class="node"><title>src/SiCard/types/SiCard5.js</title>
<g id="a_node17"><a xlink:href="src/SiCard/types/SiCard5.js" xlink:title="SiCard5.js">
<path fill="#ffffcc" stroke="black" d="M218.5,-561.998C218.5,-561.998 167.5,-561.998 167.5,-561.998 164.5,-561.998 161.5,-558.998 161.5,-555.998 161.5,-555.998 161.5,-549.998 161.5,-549.998 161.5,-546.998 164.5,-543.998 167.5,-543.998 167.5,-543.998 218.5,-543.998 218.5,-543.998 221.5,-543.998 224.5,-546.998 224.5,-549.998 224.5,-549.998 224.5,-555.998 224.5,-555.998 224.5,-558.998 221.5,-561.998 218.5,-561.998"/>
<text text-anchor="middle" x="193" y="-550.798" font-family="Helvetica,sans-Serif" font-size="9.00">SiCard5.js</text>
</a>
</g>
</g>
<!-- src/SiCard/types/SiCard5.js&#45;&gt;node_modules/lodash/lodash.js -->
<g id="edge48" class="edge"><title>src/SiCard/types/SiCard5.js&#45;&gt;node_modules/lodash/lodash.js</title>
<path fill="none" stroke="#000000" stroke-width="2" stroke-opacity="0.466667" d="M224.642,-551.727C234.209,-549.721 243.856,-545.714 250,-537.998 275.14,-506.425 237.734,-206.47 263,-174.998 294.043,-136.33 325.783,-167.353 371,-146.998 383.037,-141.579 395.334,-133.516 405.1,-126.393"/>
<polygon fill="#000000" fill-opacity="0.466667" stroke="#000000" stroke-width="2" stroke-opacity="0.466667" points="407.405,-129.038 413.276,-120.218 403.186,-123.452 407.405,-129.038"/>
</g>
<!-- src/SiCard/types/SiCard5.js&#45;&gt;src/SiCard/BaseSiCard.js -->
<g id="edge47" class="edge"><title>src/SiCard/types/SiCard5.js&#45;&gt;src/SiCard/BaseSiCard.js</title>
<path fill="none" stroke="#000000" stroke-width="2" stroke-opacity="0.466667" d="M224.534,-551.64C234.093,-549.627 243.762,-545.638 250,-537.998 278.499,-503.095 238.692,-376.752 263.273,-326.184"/>
<polygon fill="#000000" fill-opacity="0.466667" stroke="#000000" stroke-width="2" stroke-opacity="0.466667" points="266.273,-327.989 268.643,-317.663 260.351,-324.257 266.273,-327.989"/>
</g>
<!-- src/SiCard/types/SiCard5.js&#45;&gt;src/constants.js -->
<g id="edge44" class="edge"><title>src/SiCard/types/SiCard5.js&#45;&gt;src/constants.js</title>
<path fill="none" stroke="#000000" stroke-width="2" stroke-opacity="0.466667" d="M224.624,-558.12C263.479,-566.12 330.318,-585.12 371,-625.998 397.688,-652.815 412.836,-695.5 419.786,-720.012"/>
<polygon fill="#000000" fill-opacity="0.466667" stroke="#000000" stroke-width="2" stroke-opacity="0.466667" points="416.457,-721.112 422.414,-729.874 423.221,-719.31 416.457,-721.112"/>
</g>
<!-- src/SiCard/types/SiCard5.js&#45;&gt;src/siProtocol.js -->
<g id="edge45" class="edge"><title>src/SiCard/types/SiCard5.js&#45;&gt;src/siProtocol.js</title>
<path fill="none" stroke="#000000" stroke-width="2" stroke-opacity="0.466667" d="M224.587,-551.683C234.15,-549.673 243.808,-545.676 250,-537.998 268.785,-514.705 241.336,-289.64 263,-268.998 278.992,-253.76 336.444,-258.788 378.283,-264.912"/>
<polygon fill="#000000" fill-opacity="0.466667" stroke="#000000" stroke-width="2" stroke-opacity="0.466667" points="377.868,-268.389 388.282,-266.438 378.925,-261.469 377.868,-268.389"/>
</g>
<!-- src/SiCard/types/SiCard5.js&#45;&gt;src/utils/index.js -->
<g id="edge46" class="edge"><title>src/SiCard/types/SiCard5.js&#45;&gt;src/utils/index.js</title>
<path fill="none" stroke="#000000" stroke-width="2" stroke-opacity="0.466667" d="M224.609,-546.225C266.986,-536.849 343.39,-519.944 388.468,-509.97"/>
<polygon fill="#000000" fill-opacity="0.466667" stroke="#000000" stroke-width="2" stroke-opacity="0.466667" points="389.393,-513.35 398.401,-507.772 387.881,-506.515 389.393,-513.35"/>
</g>
<!-- src/SiCard/types/SiCard5.test.js -->
<g id="node18" class="node"><title>src/SiCard/types/SiCard5.test.js</title>
<g id="a_node18"><a xlink:href="src/SiCard/types/SiCard5.test.js" xlink:title="SiCard5.test.js">
<path fill="#ffffcc" stroke="black" d="M114,-651.998C114,-651.998 41,-651.998 41,-651.998 38,-651.998 35,-648.998 35,-645.998 35,-645.998 35,-639.998 35,-639.998 35,-636.998 38,-633.998 41,-633.998 41,-633.998 114,-633.998 114,-633.998 117,-633.998 120,-636.998 120,-639.998 120,-639.998 120,-645.998 120,-645.998 120,-648.998 117,-651.998 114,-651.998"/>
<text text-anchor="middle" x="77.5" y="-640.798" font-family="Helvetica,sans-Serif" font-size="9.00">SiCard5.test.js</text>
</a>
</g>
</g>
<!-- src/SiCard/types/SiCard5.test.js&#45;&gt;src/SiCard/BaseSiCard.js -->
<g id="edge51" class="edge"><title>src/SiCard/types/SiCard5.test.js&#45;&gt;src/SiCard/BaseSiCard.js</title>
<path fill="none" stroke="#000000" stroke-width="2" stroke-opacity="0.466667" d="M116.693,-633.997C119.083,-632.323 121.233,-630.341 123,-627.998 141.815,-603.039 115.052,-370.195 136,-346.998 153.167,-327.988 225.695,-338.079 250,-329.998 256.227,-327.927 256.95,-325.54 263,-322.998 264.188,-322.499 265.4,-322.008 266.629,-321.526"/>
<polygon fill="#000000" fill-opacity="0.466667" stroke="#000000" stroke-width="2" stroke-opacity="0.466667" points="268.048,-324.735 276.252,-318.031 265.658,-318.155 268.048,-324.735"/>
</g>
<!-- src/SiCard/types/SiCard5.test.js&#45;&gt;src/SiCard/types/SiCard5.js -->
<g id="edge52" class="edge"><title>src/SiCard/types/SiCard5.test.js&#45;&gt;src/SiCard/types/SiCard5.js</title>
<path fill="none" stroke="#000000" stroke-width="2" stroke-opacity="0.466667" d="M115.857,-633.916C118.503,-632.262 120.935,-630.307 123,-627.998 141.186,-607.657 117.178,-587.752 136,-567.998 140.225,-563.563 145.607,-560.389 151.356,-558.127"/>
<polygon fill="#000000" fill-opacity="0.466667" stroke="#000000" stroke-width="2" stroke-opacity="0.466667" points="152.69,-561.38 161.238,-555.12 150.652,-554.683 152.69,-561.38"/>
</g>
<!-- src/SiCard/types/SiCard5.test.js&#45;&gt;src/constants.js -->
<g id="edge49" class="edge"><title>src/SiCard/types/SiCard5.test.js&#45;&gt;src/constants.js</title>
<path fill="none" stroke="#000000" stroke-width="2" stroke-opacity="0.466667" d="M116.619,-652.056C119.026,-653.717 121.2,-655.68 123,-657.998 146.648,-688.446 107.736,-804.778 136,-830.998 155.143,-848.756 348.367,-844.018 371,-830.998 398.128,-815.392 412.779,-780.161 419.587,-758.108"/>
<polygon fill="#000000" fill-opacity="0.466667" stroke="#000000" stroke-width="2" stroke-opacity="0.466667" points="423.031,-758.791 422.389,-748.216 416.296,-756.884 423.031,-758.791"/>
</g>
<!-- src/SiCard/types/SiCard5.test.js&#45;&gt;src/testUtils.js -->
<g id="edge50" class="edge"><title>src/SiCard/types/SiCard5.test.js&#45;&gt;src/testUtils.js</title>
<path fill="none" stroke="#000000" stroke-width="2" stroke-opacity="0.466667" d="M116.502,-652.148C118.935,-653.789 121.147,-655.722 123,-657.998 153.245,-695.148 102.623,-730.634 136,-764.998 153.471,-782.986 220.653,-788.577 265.7,-790.286"/>
<polygon fill="#000000" fill-opacity="0.466667" stroke="#000000" stroke-width="2" stroke-opacity="0.466667" points="265.68,-793.787 275.79,-790.619 265.911,-786.791 265.68,-793.787"/>
</g>
<!-- src/SiCard/types/SiCard6.js -->
<g id="node19" class="node"><title>src/SiCard/types/SiCard6.js</title>
<g id="a_node19"><a xlink:href="src/SiCard/types/SiCard6.js" xlink:title="SiCard6.js">
<path fill="#ffffcc" stroke="black" d="M218.5,-621.998C218.5,-621.998 167.5,-621.998 167.5,-621.998 164.5,-621.998 161.5,-618.998 161.5,-615.998 161.5,-615.998 161.5,-609.998 161.5,-609.998 161.5,-606.998 164.5,-603.998 167.5,-603.998 167.5,-603.998 218.5,-603.998 218.5,-603.998 221.5,-603.998 224.5,-606.998 224.5,-609.998 224.5,-609.998 224.5,-615.998 224.5,-615.998 224.5,-618.998 221.5,-621.998 218.5,-621.998"/>
<text text-anchor="middle" x="193" y="-610.798" font-family="Helvetica,sans-Serif" font-size="9.00">SiCard6.js</text>
</a>
</g>
</g>
<!-- src/SiCard/types/SiCard6.js&#45;&gt;node_modules/lodash/lodash.js -->
<g id="edge57" class="edge"><title>src/SiCard/types/SiCard6.js&#45;&gt;node_modules/lodash/lodash.js</title>
<path fill="none" stroke="#000000" stroke-width="2" stroke-opacity="0.466667" d="M224.656,-611.738C234.224,-609.733 243.868,-605.724 250,-597.998 277.438,-563.429 235.721,-235.693 263,-200.998 293.791,-161.835 328.707,-197.324 371,-170.998 388.328,-160.212 403.318,-142.167 412.987,-128.678"/>
<polygon fill="#000000" fill-opacity="0.466667" stroke="#000000" stroke-width="2" stroke-opacity="0.466667" points="416.023,-130.439 418.793,-120.212 410.25,-126.479 416.023,-130.439"/>
</g>
<!-- src/SiCard/types/SiCard6.js&#45;&gt;src/SiCard/BaseSiCard.js -->
<g id="edge56" class="edge"><title>src/SiCard/types/SiCard6.js&#45;&gt;src/SiCard/BaseSiCard.js</title>
<path fill="none" stroke="#000000" stroke-width="2" stroke-opacity="0.466667" d="M224.592,-611.687C234.155,-609.677 243.812,-605.679 250,-597.998 286.507,-552.682 231.469,-388.56 263.041,-326.379"/>
<polygon fill="#000000" fill-opacity="0.466667" stroke="#000000" stroke-width="2" stroke-opacity="0.466667" points="266.189,-327.953 268.612,-317.639 260.286,-324.19 266.189,-327.953"/>
</g>
<!-- src/SiCard/types/SiCard6.js&#45;&gt;src/constants.js -->
<g id="edge53" class="edge"><title>src/SiCard/types/SiCard6.js&#45;&gt;src/constants.js</title>
<path fill="none" stroke="#000000" stroke-width="2" stroke-opacity="0.466667" d="M224.592,-618.47C261.928,-626.301 325.677,-643.49 371,-675.998 388.053,-688.229 403.082,-707.046 412.835,-720.933"/>
<polygon fill="#000000" fill-opacity="0.466667" stroke="#000000" stroke-width="2" stroke-opacity="0.466667" points="410.204,-723.292 418.703,-729.617 416.004,-719.372 410.204,-723.292"/>
</g>
<!-- src/SiCard/types/SiCard6.js&#45;&gt;src/siProtocol.js -->
<g id="edge54" class="edge"><title>src/SiCard/types/SiCard6.js&#45;&gt;src/siProtocol.js</title>
<path fill="none" stroke="#000000" stroke-width="2" stroke-opacity="0.466667" d="M224.621,-611.71C234.187,-609.703 243.837,-605.699 250,-597.998 272.233,-570.213 237.717,-303.038 263,-277.998 271.067,-270.009 333.516,-270.124 378.34,-271.289"/>
<polygon fill="#000000" fill-opacity="0.466667" stroke="#000000" stroke-width="2" stroke-opacity="0.466667" points="378.365,-274.791 388.46,-271.577 378.564,-267.794 378.365,-274.791"/>
</g>
<!-- src/SiCard/types/SiCard6.js&#45;&gt;src/utils/index.js -->
<g id="edge55" class="edge"><title>src/SiCard/types/SiCard6.js&#45;&gt;src/utils/index.js</title>
<path fill="none" stroke="#000000" stroke-width="2" stroke-opacity="0.466667" d="M224.619,-610.372C233.732,-608.229 243.112,-604.484 250,-597.998 263.301,-585.472 249.702,-571.528 263,-558.998 299.172,-524.914 332.093,-560.923 371,-529.998 376.915,-525.297 373.123,-519.746 379,-514.998 381.92,-512.639 385.246,-510.708 388.742,-509.127"/>
<polygon fill="#000000" fill-opacity="0.466667" stroke="#000000" stroke-width="2" stroke-opacity="0.466667" points="390.005,-512.393 398.225,-505.708 387.631,-505.807 390.005,-512.393"/>
</g>
<!-- src/SiCard/types/SiCard6.test.js -->
<g id="node20" class="node"><title>src/SiCard/types/SiCard6.test.js</title>
<g id="a_node20"><a xlink:href="src/SiCard/types/SiCard6.test.js" xlink:title="SiCard6.test.js">
<path fill="#ffffcc" stroke="black" d="M114,-681.998C114,-681.998 41,-681.998 41,-681.998 38,-681.998 35,-678.998 35,-675.998 35,-675.998 35,-669.998 35,-669.998 35,-666.998 38,-663.998 41,-663.998 41,-663.998 114,-663.998 114,-663.998 117,-663.998 120,-666.998 120,-669.998 120,-669.998 120,-675.998 120,-675.998 120,-678.998 117,-681.998 114,-681.998"/>
<text text-anchor="middle" x="77.5" y="-670.798" font-family="Helvetica,sans-Serif" font-size="9.00">SiCard6.test.js</text>
</a>
</g>
</g>
<!-- src/SiCard/types/SiCard6.test.js&#45;&gt;src/SiCard/BaseSiCard.js -->
<g id="edge60" class="edge"><title>src/SiCard/types/SiCard6.test.js&#45;&gt;src/SiCard/BaseSiCard.js</title>
<path fill="none" stroke="#000000" stroke-width="2" stroke-opacity="0.466667" d="M117.097,-663.72C119.327,-662.106 121.335,-660.214 123,-657.998 143.045,-631.326 113.462,-382.6 136,-357.998 170.52,-320.316 206.774,-370.257 250,-342.998 257.146,-338.491 255.791,-332.531 263.308,-324.569"/>
<polygon fill="#000000" fill-opacity="0.466667" stroke="#000000" stroke-width="2" stroke-opacity="0.466667" points="265.643,-327.179 271.073,-318.081 261.155,-321.807 265.643,-327.179"/>
</g>
<!-- src/SiCard/types/SiCard6.test.js&#45;&gt;src/SiCard/types/SiCard6.js -->
<g id="edge61" class="edge"><title>src/SiCard/types/SiCard6.test.js&#45;&gt;src/SiCard/types/SiCard6.js</title>
<path fill="none" stroke="#000000" stroke-width="2" stroke-opacity="0.466667" d="M114.516,-663.935C117.588,-662.277 120.479,-660.316 123,-657.998 133.697,-648.162 124.997,-637.49 136,-627.998 140.54,-624.081 146.001,-621.175 151.706,-619.021"/>
<polygon fill="#000000" fill-opacity="0.466667" stroke="#000000" stroke-width="2" stroke-opacity="0.466667" points="152.876,-622.324 161.422,-616.061 150.836,-615.627 152.876,-622.324"/>
</g>
<!-- src/SiCard/types/SiCard6.test.js&#45;&gt;src/constants.js -->
<g id="edge58" class="edge"><title>src/SiCard/types/SiCard6.test.js&#45;&gt;src/constants.js</title>
<path fill="none" stroke="#000000" stroke-width="2" stroke-opacity="0.466667" d="M119.266,-682.287C120.626,-683.393 121.881,-684.626 123,-685.998 145.404,-713.473 109.931,-820.973 136,-844.998 212.804,-915.778 282.051,-899.74 371,-844.998 401.752,-826.072 415.469,-783.415 421.065,-758.366"/>
<polygon fill="#000000" fill-opacity="0.466667" stroke="#000000" stroke-width="2" stroke-opacity="0.466667" points="424.56,-758.737 423.097,-748.244 417.697,-757.36 424.56,-758.737"/>
</g>
<!-- src/SiCard/types/SiCard6.test.js&#45;&gt;src/testUtils.js -->
<g id="edge59" class="edge"><title>src/SiCard/types/SiCard6.test.js&#45;&gt;src/testUtils.js</title>
<path fill="none" stroke="#000000" stroke-width="2" stroke-opacity="0.466667" d="M118.824,-682.044C120.346,-683.212 121.752,-684.524 123,-685.998 138.764,-704.614 117.758,-778.802 136,-794.998 174.138,-828.857 237.915,-815.771 276.165,-803.3"/>
<polygon fill="#000000" fill-opacity="0.466667" stroke="#000000" stroke-width="2" stroke-opacity="0.466667" points="277.448,-806.56 285.771,-800.005 275.177,-799.939 277.448,-806.56"/>
</g>
<!-- src/SiCard/types/SiCard8.js -->
<g id="node21" class="node"><title>src/SiCard/types/SiCard8.js</title>
<g id="a_node21"><a xlink:href="src/SiCard/types/SiCard8.js" xlink:title="SiCard8.js">
<path fill="#ffffcc" stroke="black" d="M218.5,-381.998C218.5,-381.998 167.5,-381.998 167.5,-381.998 164.5,-381.998 161.5,-378.998 161.5,-375.998 161.5,-375.998 161.5,-369.998 161.5,-369.998 161.5,-366.998 164.5,-363.998 167.5,-363.998 167.5,-363.998 218.5,-363.998 218.5,-363.998 221.5,-363.998 224.5,-366.998 224.5,-369.998 224.5,-369.998 224.5,-375.998 224.5,-375.998 224.5,-378.998 221.5,-381.998 218.5,-381.998"/>
<text text-anchor="middle" x="193" y="-370.798" font-family="Helvetica,sans-Serif" font-size="9.00">SiCard8.js</text>
</a>
</g>
</g>
<!-- src/SiCard/types/SiCard8.js&#45;&gt;node_modules/lodash/lodash.js -->
<g id="edge66" class="edge"><title>src/SiCard/types/SiCard8.js&#45;&gt;node_modules/lodash/lodash.js</title>
<path fill="none" stroke="#000000" stroke-width="2" stroke-opacity="0.466667" d="M195.138,-363.756C200.431,-322.408 224.038,-155.013 263,-122.998 297.006,-95.0549 349.814,-96.7995 385.713,-102.372"/>
<polygon fill="#000000" fill-opacity="0.466667" stroke="#000000" stroke-width="2" stroke-opacity="0.466667" points="385.366,-105.864 395.815,-104.109 386.553,-98.9652 385.366,-105.864"/>
</g>
<!-- src/SiCard/types/SiCard8.js&#45;&gt;src/SiCard/BaseSiCard.js -->
<g id="edge64" class="edge"><title>src/SiCard/types/SiCard8.js&#45;&gt;src/SiCard/BaseSiCard.js</title>
<path fill="none" stroke="#000000" stroke-width="2" stroke-opacity="0.466667" d="M224.79,-371.431C233.805,-369.6 243.086,-366.191 250,-359.998 260.954,-350.185 253.746,-339.204 262.524,-325.876"/>
<polygon fill="#000000" fill-opacity="0.466667" stroke="#000000" stroke-width="2" stroke-opacity="0.466667" points="265.281,-328.04 269.262,-318.222 260.027,-323.415 265.281,-328.04"/>
</g>
<!-- src/SiCard/types/SiCard8.js&#45;&gt;src/SiCard/types/ModernSiCard.js -->
<g id="edge65" class="edge"><title>src/SiCard/types/SiCard8.js&#45;&gt;src/SiCard/types/ModernSiCard.js</title>
<path fill="none" stroke="#000000" stroke-width="2" stroke-opacity="0.466667" d="M224.614,-374.92C233.947,-377.001 243.457,-380.888 250,-387.998 269.868,-409.589 246.728,-431.182 261.208,-455.79"/>
<polygon fill="#000000" fill-opacity="0.466667" stroke="#000000" stroke-width="2" stroke-opacity="0.466667" points="258.51,-458.025 267.334,-463.889 264.093,-453.802 258.51,-458.025"/>
</g>
<!-- src/SiCard/types/SiCard8.js&#45;&gt;src/siProtocol.js -->
<g id="edge62" class="edge"><title>src/SiCard/types/SiCard8.js&#45;&gt;src/siProtocol.js</title>
<path fill="none" stroke="#000000" stroke-width="2" stroke-opacity="0.466667" d="M195.515,-363.755C200.197,-338.587 216.994,-268.862 263,-240.998 304.057,-216.132 324.733,-228.217 371,-240.998 383.175,-244.361 395.367,-251.308 405.032,-257.872"/>
<polygon fill="#000000" fill-opacity="0.466667" stroke="#000000" stroke-width="2" stroke-opacity="0.466667" points="403.278,-260.922 413.44,-263.919 407.365,-255.239 403.278,-260.922"/>
</g>
<!-- src/SiCard/types/SiCard8.js&#45;&gt;src/utils/index.js -->
<g id="edge63" class="edge"><title>src/SiCard/types/SiCard8.js&#45;&gt;src/utils/index.js</title>
<path fill="none" stroke="#000000" stroke-width="2" stroke-opacity="0.466667" d="M224.53,-374.669C233.971,-376.72 243.568,-380.653 250,-387.998 279.525,-421.717 230.638,-456.992 263,-487.998 267.466,-492.276 341.963,-497.281 388.199,-499.997"/>
<polygon fill="#000000" fill-opacity="0.466667" stroke="#000000" stroke-width="2" stroke-opacity="0.466667" points="388.258,-503.506 398.443,-500.588 388.661,-496.517 388.258,-503.506"/>
</g>
<!-- src/SiCard/types/SiCard8.test.js -->
<g id="node22" class="node"><title>src/SiCard/types/SiCard8.test.js</title>
<g id="a_node22"><a xlink:href="src/SiCard/types/SiCard8.test.js" xlink:title="SiCard8.test.js">
<path fill="#ffffcc" stroke="black" d="M114,-381.998C114,-381.998 41,-381.998 41,-381.998 38,-381.998 35,-378.998 35,-375.998 35,-375.998 35,-369.998 35,-369.998 35,-366.998 38,-363.998 41,-363.998 41,-363.998 114,-363.998 114,-363.998 117,-363.998 120,-366.998 120,-369.998 120,-369.998 120,-375.998 120,-375.998 120,-378.998 117,-381.998 114,-381.998"/>
<text text-anchor="middle" x="77.5" y="-370.798" font-family="Helvetica,sans-Serif" font-size="9.00">SiCard8.test.js</text>
</a>
</g>
</g>
<!-- src/SiCard/types/SiCard8.test.js&#45;&gt;src/SiCard/BaseSiCard.js -->
<g id="edge67" class="edge"><title>src/SiCard/types/SiCard8.test.js&#45;&gt;src/SiCard/BaseSiCard.js</title>
<path fill="none" stroke="#000000" stroke-width="2" stroke-opacity="0.466667" d="M116.569,-363.901C118.987,-362.248 121.177,-360.298 123,-357.998 141.994,-334.03 113.377,-241.575 136,-220.998 154.74,-203.952 227.696,-208.985 250,-220.998 277.149,-235.62 293.689,-269.127 301.822,-290.318"/>
<polygon fill="#000000" fill-opacity="0.466667" stroke="#000000" stroke-width="2" stroke-opacity="0.466667" points="298.57,-291.618 305.235,-299.853 305.16,-289.259 298.57,-291.618"/>
</g>
<!-- src/SiCard/types/SiCard8.test.js&#45;&gt;src/SiCard/types/SiCard8.js -->
<g id="edge68" class="edge"><title>src/SiCard/types/SiCard8.test.js&#45;&gt;src/SiCard/types/SiCard8.js</title>
<path fill="none" stroke="#000000" stroke-width="2" stroke-opacity="0.466667" d="M120.119,-372.998C130.261,-372.998 141.099,-372.998 151.203,-372.998"/>
<polygon fill="#000000" fill-opacity="0.466667" stroke="#000000" stroke-width="2" stroke-opacity="0.466667" points="151.407,-376.498 161.407,-372.998 151.407,-369.498 151.407,-376.498"/>
</g>
<!-- src/SiCard/types/SiCard9.js -->
<g id="node23" class="node"><title>src/SiCard/types/SiCard9.js</title>
<g id="a_node23"><a xlink:href="src/SiCard/types/SiCard9.js" xlink:title="SiCard9.js">
<path fill="#ffffcc" stroke="black" d="M218.5,-471.998C218.5,-471.998 167.5,-471.998 167.5,-471.998 164.5,-471.998 161.5,-468.998 161.5,-465.998 161.5,-465.998 161.5,-459.998 161.5,-459.998 161.5,-456.998 164.5,-453.998 167.5,-453.998 167.5,-453.998 218.5,-453.998 218.5,-453.998 221.5,-453.998 224.5,-456.998 224.5,-459.998 224.5,-459.998 224.5,-465.998 224.5,-465.998 224.5,-468.998 221.5,-471.998 218.5,-471.998"/>
<text text-anchor="middle" x="193" y="-460.798" font-family="Helvetica,sans-Serif" font-size="9.00">SiCard9.js</text>
</a>
</g>
</g>
<!-- src/SiCard/types/SiCard9.js&#45;&gt;node_modules/lodash/lodash.js -->
<g id="edge73" class="edge"><title>src/SiCard/types/SiCard9.js&#45;&gt;node_modules/lodash/lodash.js</title>
<path fill="none" stroke="#000000" stroke-width="2" stroke-opacity="0.466667" d="M224.609,-461.7C234.173,-459.692 243.826,-455.691 250,-447.998 270.813,-422.063 241.792,-174.611 263,-148.998 264.995,-146.589 338.677,-129.945 385.818,-119.499"/>
<polygon fill="#000000" fill-opacity="0.466667" stroke="#000000" stroke-width="2" stroke-opacity="0.466667" points="386.719,-122.884 395.727,-117.308 385.207,-116.049 386.719,-122.884"/>
</g>
<!-- src/SiCard/types/SiCard9.js&#45;&gt;src/SiCard/BaseSiCard.js -->
<g id="edge71" class="edge"><title>src/SiCard/types/SiCard9.js&#45;&gt;src/SiCard/BaseSiCard.js</title>
<path fill="none" stroke="#000000" stroke-width="2" stroke-opacity="0.466667" d="M224.64,-461.422C234.089,-459.377 243.663,-455.425 250,-447.998 284.2,-407.914 233.941,-370.666 262.679,-325.893"/>
<polygon fill="#000000" fill-opacity="0.466667" stroke="#000000" stroke-width="2" stroke-opacity="0.466667" points="265.581,-327.856 268.745,-317.745 259.966,-323.676 265.581,-327.856"/>
</g>
<!-- src/SiCard/types/SiCard9.js&#45;&gt;src/SiCard/types/ModernSiCard.js -->
<g id="edge72" class="edge"><title>src/SiCard/types/SiCard9.js&#45;&gt;src/SiCard/types/ModernSiCard.js</title>
<path fill="none" stroke="#000000" stroke-width="2" stroke-opacity="0.466667" d="M224.55,-465.678C233.263,-466.442 243.036,-467.299 252.741,-468.151"/>
<polygon fill="#000000" fill-opacity="0.466667" stroke="#000000" stroke-width="2" stroke-opacity="0.466667" points="252.515,-471.644 262.783,-469.031 253.127,-464.671 252.515,-471.644"/>
</g>
<!-- src/SiCard/types/SiCard9.js&#45;&gt;src/siProtocol.js -->
<g id="edge69" class="edge"><title>src/SiCard/types/SiCard9.js&#45;&gt;src/siProtocol.js</title>
<path fill="none" stroke="#000000" stroke-width="2" stroke-opacity="0.466667" d="M224.505,-461.616C234.061,-459.6 243.735,-455.617 250,-447.998 277.301,-414.795 231.599,-284.354 263,-254.998 298.063,-222.217 323.631,-247.243 371,-254.998 378.38,-256.206 386.114,-258.293 393.336,-260.629"/>
<polygon fill="#000000" fill-opacity="0.466667" stroke="#000000" stroke-width="2" stroke-opacity="0.466667" points="392.189,-263.935 402.784,-263.907 394.484,-257.322 392.189,-263.935"/>
</g>
<!-- src/SiCard/types/SiCard9.js&#45;&gt;src/utils/index.js -->
<g id="edge70" class="edge"><title>src/SiCard/types/SiCard9.js&#45;&gt;src/utils/index.js</title>
<path fill="none" stroke="#000000" stroke-width="2" stroke-opacity="0.466667" d="M224.641,-466.851C233.448,-469.06 242.649,-472.535 250,-477.998 258.81,-484.545 253.461,-493.567 263,-498.998 301.429,-520.875 353.792,-516.939 388.342,-510.69"/>
<polygon fill="#000000" fill-opacity="0.466667" stroke="#000000" stroke-width="2" stroke-opacity="0.466667" points="389.32,-514.065 398.458,-508.702 387.97,-507.196 389.32,-514.065"/>
</g>
<!-- src/SiCard/types/SiCard9.test.js -->
<g id="node24" class="node"><title>src/SiCard/types/SiCard9.test.js</title>
<g id="a_node24"><a xlink:href="src/SiCard/types/SiCard9.test.js" xlink:title="SiCard9.test.js">
<path fill="#ffffcc" stroke="black" d="M114,-471.998C114,-471.998 41,-471.998 41,-471.998 38,-471.998 35,-468.998 35,-465.998 35,-465.998 35,-459.998 35,-459.998 35,-456.998 38,-453.998 41,-453.998 41,-453.998 114,-453.998 114,-453.998 117,-453.998 120,-456.998 120,-459.998 120,-459.998 120,-465.998 120,-465.998 120,-468.998 117,-471.998 114,-471.998"/>
<text text-anchor="middle" x="77.5" y="-460.798" font-family="Helvetica,sans-Serif" font-size="9.00">SiCard9.test.js</text>
</a>
</g>
</g>
<!-- src/SiCard/types/SiCard9.test.js&#45;&gt;src/SiCard/BaseSiCard.js -->
<g id="edge74" class="edge"><title>src/SiCard/types/SiCard9.test.js&#45;&gt;src/SiCard/BaseSiCard.js</title>
<path fill="none" stroke="#000000" stroke-width="2" stroke-opacity="0.466667" d="M116.631,-453.95C119.035,-452.286 121.205,-450.32 123,-447.998 148.2,-415.388 105.854,-291.1 136,-262.998 154.531,-245.724 226.077,-254.663 250,-262.998 266.798,-268.85 282.385,-281.82 293.162,-292.501"/>
<polygon fill="#000000" fill-opacity="0.466667" stroke="#000000" stroke-width="2" stroke-opacity="0.466667" points="290.658,-294.947 300.107,-299.739 295.709,-290.1 290.658,-294.947"/>
</g>
<!-- src/SiCard/types/SiCard9.test.js&#45;&gt;src/SiCard/types/SiCard9.js -->
<g id="edge75" class="edge"><title>src/SiCard/types/SiCard9.test.js&#45;&gt;src/SiCard/types/SiCard9.js</title>
<path fill="none" stroke="#000000" stroke-width="2" stroke-opacity="0.466667" d="M120.119,-462.998C130.261,-462.998 141.099,-462.998 151.203,-462.998"/>
<polygon fill="#000000" fill-opacity="0.466667" stroke="#000000" stroke-width="2" stroke-opacity="0.466667" points="151.407,-466.498 161.407,-462.998 151.407,-459.498 151.407,-466.498"/>
</g>
<!-- src/SiCard/types/TCard.js -->
<g id="node25" class="node"><title>src/SiCard/types/TCard.js</title>
<g id="a_node25"><a xlink:href="src/SiCard/types/TCard.js" xlink:title="TCard.js">
<path fill="#ffffcc" stroke="black" d="M98.5,-351.998C98.5,-351.998 56.5,-351.998 56.5,-351.998 53.5,-351.998 50.5,-348.998 50.5,-345.998 50.5,-345.998 50.5,-339.998 50.5,-339.998 50.5,-336.998 53.5,-333.998 56.5,-333.998 56.5,-333.998 98.5,-333.998 98.5,-333.998 101.5,-333.998 104.5,-336.998 104.5,-339.998 104.5,-339.998 104.5,-345.998 104.5,-345.998 104.5,-348.998 101.5,-351.998 98.5,-351.998"/>
<text text-anchor="middle" x="77.5" y="-340.798" font-family="Helvetica,sans-Serif" font-size="9.00">TCard.js</text>
</a>
</g>
</g>
<!-- src/SiCard/types/TCard.js&#45;&gt;src/SiCard/BaseSiCard.js -->
<g id="edge76" class="edge"><title>src/SiCard/types/TCard.js&#45;&gt;src/SiCard/BaseSiCard.js</title>
<path fill="none" stroke="#000000" stroke-width="2" stroke-opacity="0.466667" d="M79.0872,-333.922C81.2782,-308.514 91.3444,-236.601 136,-206.998 178.23,-179.003 206.205,-181.521 250,-206.998 280.692,-224.853 296.478,-265.68 303.427,-289.92"/>
<polygon fill="#000000" fill-opacity="0.466667" stroke="#000000" stroke-width="2" stroke-opacity="0.466667" points="300.084,-290.971 306.02,-299.748 306.853,-289.186 300.084,-290.971"/>
</g>
<!-- src/SiCard/types/TCard.test.js -->
<g id="node26" class="node"><title>src/SiCard/types/TCard.test.js</title>
<g id="a_node26"><a xlink:href="src/SiCard/types/TCard.test.js" xlink:title="TCard.test.js">
<path fill="#ffffcc" stroke="black" d="M109,-531.998C109,-531.998 46,-531.998 46,-531.998 43,-531.998 40,-528.998 40,-525.998 40,-525.998 40,-519.998 40,-519.998 40,-516.998 43,-513.998 46,-513.998 46,-513.998 109,-513.998 109,-513.998 112,-513.998 115,-516.998 115,-519.998 115,-519.998 115,-525.998 115,-525.998 115,-528.998 112,-531.998 109,-531.998"/>
<text text-anchor="middle" x="77.5" y="-520.798" font-family="Helvetica,sans-Serif" font-size="9.00">TCard.test.js</text>
</a>
</g>
</g>
<!-- src/SiCard/types/TCard.test.js&#45;&gt;src/SiCard/BaseSiCard.js -->
<g id="edge77" class="edge"><title>src/SiCard/types/TCard.test.js&#45;&gt;src/SiCard/BaseSiCard.js</title>
<path fill="none" stroke="#000000" stroke-width="2" stroke-opacity="0.466667" d="M115.026,-515.038C118.077,-513.161 120.821,-510.848 123,-507.998 152.342,-469.621 100.834,-324.12 136,-290.998 154.441,-273.628 224.953,-287.201 250,-290.998 258.136,-292.231 266.702,-294.386 274.679,-296.785"/>
<polygon fill="#000000" fill-opacity="0.466667" stroke="#000000" stroke-width="2" stroke-opacity="0.466667" points="273.802,-300.179 284.393,-299.904 275.942,-293.514 273.802,-300.179"/>
</g>
<!-- src/SiCard/types/TCard.test.js&#45;&gt;src/SiCard/types/SIAC.js -->
<g id="edge78" class="edge"><title>src/SiCard/types/TCard.test.js&#45;&gt;src/SiCard/types/SIAC.js</title>
<path fill="none" stroke="#000000" stroke-width="2" stroke-opacity="0.466667" d="M112.554,-513.997C126.32,-510.358 142.22,-506.156 156.162,-502.47"/>
<polygon fill="#000000" fill-opacity="0.466667" stroke="#000000" stroke-width="2" stroke-opacity="0.466667" points="157.136,-505.833 165.91,-499.894 155.347,-499.066 157.136,-505.833"/>
</g>
<!-- src/SiCard/types/index.test.js -->
<g id="node28" class="node"><title>src/SiCard/types/index.test.js</title>
<g id="a_node28"><a xlink:href="src/SiCard/types/index.test.js" xlink:title="index.test.js">
<path fill="#ffffcc" stroke="black" d="M108.5,-621.998C108.5,-621.998 46.5,-621.998 46.5,-621.998 43.5,-621.998 40.5,-618.998 40.5,-615.998 40.5,-615.998 40.5,-609.998 40.5,-609.998 40.5,-606.998 43.5,-603.998 46.5,-603.998 46.5,-603.998 108.5,-603.998 108.5,-603.998 111.5,-603.998 114.5,-606.998 114.5,-609.998 114.5,-609.998 114.5,-615.998 114.5,-615.998 114.5,-618.998 111.5,-621.998 108.5,-621.998"/>
<text text-anchor="middle" x="77.5" y="-610.798" font-family="Helvetica,sans-Serif" font-size="9.00">index.test.js</text>
</a>
</g>
</g>
<!-- src/SiCard/types/index.test.js&#45;&gt;src/SiCard/BaseSiCard.js -->
<g id="edge79" class="edge"><title>src/SiCard/types/index.test.js&#45;&gt;src/SiCard/BaseSiCard.js</title>
<path fill="none" stroke="#000000" stroke-width="2" stroke-opacity="0.466667" d="M114.64,-605.316C117.853,-603.39 120.738,-600.989 123,-597.998 140.779,-574.482 116.024,-354.678 136,-332.998 153.314,-314.206 224.707,-321.624 250,-317.998 252.837,-317.591 255.751,-317.165 258.69,-316.729"/>
<polygon fill="#000000" fill-opacity="0.466667" stroke="#000000" stroke-width="2" stroke-opacity="0.466667" points="259.34,-320.171 268.708,-315.221 258.298,-313.249 259.34,-320.171"/>
</g>
<!-- src/SiCard/types/index.test.js&#45;&gt;src/SiCard/types/index.js -->
<g id="edge80" class="edge"><title>src/SiCard/types/index.test.js&#45;&gt;src/SiCard/types/index.js</title>
<path fill="none" stroke="#000000" stroke-width="2" stroke-opacity="0.466667" d="M112.554,-621.999C126.32,-625.638 142.22,-629.84 156.162,-633.525"/>
<polygon fill="#000000" fill-opacity="0.466667" stroke="#000000" stroke-width="2" stroke-opacity="0.466667" points="155.347,-636.93 165.91,-636.102 157.136,-630.162 155.347,-636.93"/>
</g>
</g>
</svg>
