<?xml version="1.0" encoding="UTF-8" standalone="no"?>
<!DOCTYPE svg PUBLIC "-//W3C//DTD SVG 1.1//EN"
 "http://www.w3.org/Graphics/SVG/1.1/DTD/svg11.dtd">
<!-- Generated by graphviz version 2.43.0 (0)
 -->
<!-- Title: dependency&#45;cruiser output Pages: 1 -->
<svg width="613pt" height="670pt"
 viewBox="0.00 0.00 613.00 670.00" xmlns="http://www.w3.org/2000/svg" xmlns:xlink="http://www.w3.org/1999/xlink">
<g id="graph0" class="graph" transform="scale(1 1) rotate(0) translate(4 666)">
<title>dependency&#45;cruiser output</title>
<polygon fill="white" stroke="transparent" points="-4,4 -4,-666 609,-666 609,4 -4,4"/>
<g id="clust1" class="cluster">
<title>cluster_node_modules</title>
<path fill="#ffffff" stroke="black" stroke-width="2" d="M296.5,-8C296.5,-8 395.5,-8 395.5,-8 401.5,-8 407.5,-14 407.5,-20 407.5,-20 407.5,-236 407.5,-236 407.5,-242 401.5,-248 395.5,-248 395.5,-248 296.5,-248 296.5,-248 290.5,-248 284.5,-242 284.5,-236 284.5,-236 284.5,-20 284.5,-20 284.5,-14 290.5,-8 296.5,-8"/>
<text text-anchor="middle" x="346" y="-236.8" font-family="Helvetica,sans-Serif" font-weight="bold" font-size="9.00">node_modules</text>
</g>
<g id="clust2" class="cluster">
<title>cluster_node_modules/immutable</title>
<path fill="#ffffff" stroke="black" stroke-width="2" d="M304.5,-136C304.5,-136 387.5,-136 387.5,-136 393.5,-136 399.5,-142 399.5,-148 399.5,-148 399.5,-210 399.5,-210 399.5,-216 393.5,-222 387.5,-222 387.5,-222 304.5,-222 304.5,-222 298.5,-222 292.5,-216 292.5,-210 292.5,-210 292.5,-148 292.5,-148 292.5,-142 298.5,-136 304.5,-136"/>
<text text-anchor="middle" x="346" y="-210.8" font-family="Helvetica,sans-Serif" font-weight="bold" font-size="9.00">immutable</text>
</g>
<g id="clust3" class="cluster">
<title>cluster_node_modules/immutable/dist</title>
<path fill="#ffffff" stroke="black" stroke-width="2" d="M312.5,-144C312.5,-144 379.5,-144 379.5,-144 385.5,-144 391.5,-150 391.5,-156 391.5,-156 391.5,-184 391.5,-184 391.5,-190 385.5,-196 379.5,-196 379.5,-196 312.5,-196 312.5,-196 306.5,-196 300.5,-190 300.5,-184 300.5,-184 300.5,-156 300.5,-156 300.5,-150 306.5,-144 312.5,-144"/>
<text text-anchor="middle" x="346" y="-184.8" font-family="Helvetica,sans-Serif" font-weight="bold" font-size="9.00">dist</text>
</g>
<g id="clust4" class="cluster">
<title>cluster_node_modules/react&#45;dom</title>
<path fill="#ffffff" stroke="black" stroke-width="2" d="M323,-16C323,-16 369,-16 369,-16 375,-16 381,-22 381,-28 381,-28 381,-56 381,-56 381,-62 375,-68 369,-68 369,-68 323,-68 323,-68 317,-68 311,-62 311,-56 311,-56 311,-28 311,-28 311,-22 317,-16 323,-16"/>
<text text-anchor="middle" x="346" y="-56.8" font-family="Helvetica,sans-Serif" font-weight="bold" font-size="9.00">react&#45;dom</text>
</g>
<g id="clust5" class="cluster">
<title>cluster_node_modules/react</title>
<path fill="#ffffff" stroke="black" stroke-width="2" d="M323,-76C323,-76 369,-76 369,-76 375,-76 381,-82 381,-88 381,-88 381,-116 381,-116 381,-122 375,-128 369,-128 369,-128 323,-128 323,-128 317,-128 311,-122 311,-116 311,-116 311,-88 311,-88 311,-82 317,-76 323,-76"/>
<text text-anchor="middle" x="346" y="-116.8" font-family="Helvetica,sans-Serif" font-weight="bold" font-size="9.00">react</text>
</g>
<g id="clust6" class="cluster">
<title>cluster_packages</title>
<path fill="#ffffff" stroke="black" stroke-width="2" d="M20,-256C20,-256 585,-256 585,-256 591,-256 597,-262 597,-268 597,-268 597,-642 597,-642 597,-648 591,-654 585,-654 585,-654 20,-654 20,-654 14,-654 8,-648 8,-642 8,-642 8,-268 8,-268 8,-262 14,-256 20,-256"/>
<text text-anchor="middle" x="302.5" y="-642.8" font-family="Helvetica,sans-Serif" font-weight="bold" font-size="9.00">packages</text>
</g>
<g id="clust7" class="cluster">
<title>cluster_packages/sportident&#45;react</title>
<path fill="#ffffff" stroke="black" stroke-width="2" d="M165.5,-448C165.5,-448 242.5,-448 242.5,-448 248.5,-448 254.5,-454 254.5,-460 254.5,-460 254.5,-522 254.5,-522 254.5,-528 248.5,-534 242.5,-534 242.5,-534 165.5,-534 165.5,-534 159.5,-534 153.5,-528 153.5,-522 153.5,-522 153.5,-460 153.5,-460 153.5,-454 159.5,-448 165.5,-448"/>
<text text-anchor="middle" x="204" y="-522.8" font-family="Helvetica,sans-Serif" font-weight="bold" font-size="9.00">sportident&#45;react</text>
</g>
<g id="clust8" class="cluster">
<title>cluster_packages/sportident&#45;react/lib</title>
<path fill="#ffffff" stroke="black" stroke-width="2" d="M180.5,-456C180.5,-456 226.5,-456 226.5,-456 232.5,-456 238.5,-462 238.5,-468 238.5,-468 238.5,-496 238.5,-496 238.5,-502 232.5,-508 226.5,-508 226.5,-508 180.5,-508 180.5,-508 174.5,-508 168.5,-502 168.5,-496 168.5,-496 168.5,-468 168.5,-468 168.5,-462 174.5,-456 180.5,-456"/>
<text text-anchor="middle" x="203.5" y="-496.8" font-family="Helvetica,sans-Serif" font-weight="bold" font-size="9.00">lib</text>
</g>
<g id="clust9" class="cluster">
<title>cluster_packages/sportident&#45;testbench&#45;client</title>
<path fill="#ffffff" stroke="black" stroke-width="2" d="M28,-264C28,-264 412,-264 412,-264 418,-264 424,-270 424,-276 424,-276 424,-428 424,-428 424,-434 418,-440 412,-440 412,-440 28,-440 28,-440 22,-440 16,-434 16,-428 16,-428 16,-276 16,-276 16,-270 22,-264 28,-264"/>
<text text-anchor="middle" x="220" y="-428.8" font-family="Helvetica,sans-Serif" font-weight="bold" font-size="9.00">sportident&#45;testbench&#45;client</text>
</g>
<g id="clust10" class="cluster">
<title>cluster_packages/sportident&#45;testbench&#45;client/src</title>
<path fill="#ffffff" stroke="black" stroke-width="2" d="M36,-272C36,-272 404,-272 404,-272 410,-272 416,-278 416,-284 416,-284 416,-402 416,-402 416,-408 410,-414 404,-414 404,-414 36,-414 36,-414 30,-414 24,-408 24,-402 24,-402 24,-284 24,-284 24,-278 30,-272 36,-272"/>
<text text-anchor="middle" x="220" y="-402.8" font-family="Helvetica,sans-Serif" font-weight="bold" font-size="9.00">src</text>
</g>
<g id="clust11" class="cluster">
<title>cluster_packages/sportident&#45;testbench&#45;shell</title>
<path fill="#ffffff" stroke="black" stroke-width="2" d="M444,-392C444,-392 577,-392 577,-392 583,-392 589,-398 589,-404 589,-404 589,-496 589,-496 589,-502 583,-508 577,-508 577,-508 444,-508 444,-508 438,-508 432,-502 432,-496 432,-496 432,-404 432,-404 432,-398 438,-392 444,-392"/>
<text text-anchor="middle" x="510.5" y="-496.8" font-family="Helvetica,sans-Serif" font-weight="bold" font-size="9.00">sportident&#45;testbench&#45;shell</text>
</g>
<g id="clust12" class="cluster">
<title>cluster_packages/sportident&#45;testbench&#45;shell/lib</title>
<path fill="#ffffff" stroke="black" stroke-width="2" d="M452,-400C452,-400 569,-400 569,-400 575,-400 581,-406 581,-412 581,-412 581,-470 581,-470 581,-476 575,-482 569,-482 569,-482 452,-482 452,-482 446,-482 440,-476 440,-470 440,-470 440,-412 440,-412 440,-406 446,-400 452,-400"/>
<text text-anchor="middle" x="510.5" y="-470.8" font-family="Helvetica,sans-Serif" font-weight="bold" font-size="9.00">lib</text>
</g>
<g id="clust13" class="cluster">
<title>cluster_packages/sportident&#45;webusb</title>
<path fill="#ffffff" stroke="black" stroke-width="2" d="M158.5,-542C158.5,-542 248.5,-542 248.5,-542 254.5,-542 260.5,-548 260.5,-554 260.5,-554 260.5,-616 260.5,-616 260.5,-622 254.5,-628 248.5,-628 248.5,-628 158.5,-628 158.5,-628 152.5,-628 146.5,-622 146.5,-616 146.5,-616 146.5,-554 146.5,-554 146.5,-548 152.5,-542 158.5,-542"/>
<text text-anchor="middle" x="203.5" y="-616.8" font-family="Helvetica,sans-Serif" font-weight="bold" font-size="9.00">sportident&#45;webusb</text>
</g>
<g id="clust14" class="cluster">
<title>cluster_packages/sportident&#45;webusb/lib</title>
<path fill="#ffffff" stroke="black" stroke-width="2" d="M180.5,-550C180.5,-550 226.5,-550 226.5,-550 232.5,-550 238.5,-556 238.5,-562 238.5,-562 238.5,-590 238.5,-590 238.5,-596 232.5,-602 226.5,-602 226.5,-602 180.5,-602 180.5,-602 174.5,-602 168.5,-596 168.5,-590 168.5,-590 168.5,-562 168.5,-562 168.5,-556 174.5,-550 180.5,-550"/>
<text text-anchor="middle" x="203.5" y="-590.8" font-family="Helvetica,sans-Serif" font-weight="bold" font-size="9.00">lib</text>
</g>
<g id="clust15" class="cluster">
<title>cluster_packages/sportident</title>
<path fill="#ffffff" stroke="black" stroke-width="2" d="M471.5,-264C471.5,-264 549.5,-264 549.5,-264 555.5,-264 561.5,-270 561.5,-276 561.5,-276 561.5,-372 561.5,-372 561.5,-378 555.5,-384 549.5,-384 549.5,-384 471.5,-384 471.5,-384 465.5,-384 459.5,-378 459.5,-372 459.5,-372 459.5,-276 459.5,-276 459.5,-270 465.5,-264 471.5,-264"/>
<text text-anchor="middle" x="510.5" y="-372.8" font-family="Helvetica,sans-Serif" font-weight="bold" font-size="9.00">sportident</text>
</g>
<g id="clust16" class="cluster">
<title>cluster_packages/sportident/lib</title>
<path fill="#ffffff" stroke="black" stroke-width="2" d="M479.5,-272C479.5,-272 541.5,-272 541.5,-272 547.5,-272 553.5,-278 553.5,-284 553.5,-284 553.5,-346 553.5,-346 553.5,-352 547.5,-358 541.5,-358 541.5,-358 479.5,-358 479.5,-358 473.5,-358 467.5,-352 467.5,-346 467.5,-346 467.5,-284 467.5,-284 467.5,-278 473.5,-272 479.5,-272"/>
<text text-anchor="middle" x="510.5" y="-346.8" font-family="Helvetica,sans-Serif" font-weight="bold" font-size="9.00">lib</text>
</g>
<g id="clust17" class="cluster">
<title>cluster_packages/sportident/lib/utils</title>
<path fill="#ffffff" stroke="black" stroke-width="2" d="M487.5,-280C487.5,-280 533.5,-280 533.5,-280 539.5,-280 545.5,-286 545.5,-292 545.5,-292 545.5,-320 545.5,-320 545.5,-326 539.5,-332 533.5,-332 533.5,-332 487.5,-332 487.5,-332 481.5,-332 475.5,-326 475.5,-320 475.5,-320 475.5,-292 475.5,-292 475.5,-286 481.5,-280 487.5,-280"/>
<text text-anchor="middle" x="510.5" y="-320.8" font-family="Helvetica,sans-Serif" font-weight="bold" font-size="9.00">utils</text>
</g>
<!-- node_modules/immutable/dist/immutable.js -->
<g id="node1" class="node">
<title>node_modules/immutable/dist/immutable.js</title>
<g id="a_node1"><a xlink:href="https://www.npmjs.com/package/immutable" xlink:title="immutable.js">
<polygon fill="#c40b0a" fill-opacity="0.101961" stroke="black" points="383.5,-170 382,-172 371.5,-172 370,-170 308.5,-170 308.5,-152 383.5,-152 383.5,-170"/>
<text text-anchor="start" x="316.5" y="-158.8" font-family="Helvetica,sans-Serif" font-size="9.00" fill="#c40b0a">immutable.js</text>
</a>
</g>
</g>
<!-- node_modules/react&#45;dom/client.js -->
<g id="node2" class="node">
<title>node_modules/react&#45;dom/client.js</title>
<g id="a_node2"><a xlink:href="https://www.npmjs.com/package/react-dom" xlink:title="client.js">
<polygon fill="#c40b0a" fill-opacity="0.101961" stroke="black" points="373,-42 371.5,-44 361,-44 359.5,-42 319,-42 319,-24 373,-24 373,-42"/>
<text text-anchor="start" x="328.5" y="-30.8" font-family="Helvetica,sans-Serif" font-size="9.00" fill="#c40b0a">client.js</text>
</a>
</g>
</g>
<!-- node_modules/react/index.js -->
<g id="node3" class="node">
<title>node_modules/react/index.js</title>
<g id="a_node3"><a xlink:href="https://www.npmjs.com/package/react" xlink:title="index.js">
<polygon fill="#c40b0a" fill-opacity="0.101961" stroke="black" points="373,-102 371.5,-104 361,-104 359.5,-102 319,-102 319,-84 373,-84 373,-102"/>
<text text-anchor="start" x="328.5" y="-90.8" font-family="Helvetica,sans-Serif" font-size="9.00" fill="#c40b0a">index.js</text>
</a>
</g>
</g>
<!-- packages/sportident&#45;react/lib/index.js -->
<g id="node4" class="node">
<title>packages/sportident&#45;react/lib/index.js</title>
<g id="a_node4"><a xlink:href="packages/sportident-react/lib/index.js" xlink:title="index.js">
<path fill="#ffffcc" stroke="black" d="M224.5,-482C224.5,-482 182.5,-482 182.5,-482 179.5,-482 176.5,-479 176.5,-476 176.5,-476 176.5,-470 176.5,-470 176.5,-467 179.5,-464 182.5,-464 182.5,-464 224.5,-464 224.5,-464 227.5,-464 230.5,-467 230.5,-470 230.5,-470 230.5,-476 230.5,-476 230.5,-479 227.5,-482 224.5,-482"/>
<text text-anchor="start" x="186" y="-470.8" font-family="Helvetica,sans-Serif" font-size="9.00">index.js</text>
</a>
</g>
</g>
<!-- packages/sportident&#45;testbench&#45;client/src/MainStationList.tsx -->
<g id="node5" class="node">
<title>packages/sportident&#45;testbench&#45;client/src/MainStationList.tsx</title>
<g id="a_node5"><a xlink:href="packages/sportident-testbench-client/src/MainStationList.tsx" xlink:title="MainStationList.tsx">
<path fill="#bbfeff" stroke="black" d="M248.5,-298C248.5,-298 158.5,-298 158.5,-298 155.5,-298 152.5,-295 152.5,-292 152.5,-292 152.5,-286 152.5,-286 152.5,-283 155.5,-280 158.5,-280 158.5,-280 248.5,-280 248.5,-280 251.5,-280 254.5,-283 254.5,-286 254.5,-286 254.5,-292 254.5,-292 254.5,-295 251.5,-298 248.5,-298"/>
<text text-anchor="start" x="160.5" y="-286.8" font-family="Helvetica,sans-Serif" font-size="9.00">MainStationList.tsx</text>
</a>
</g>
</g>
<!-- packages/sportident&#45;testbench&#45;client/src/MainStationList.tsx&#45;&gt;node_modules/react/index.js -->
<g id="edge1" class="edge">
<title>packages/sportident&#45;testbench&#45;client/src/MainStationList.tsx&#45;&gt;node_modules/react/index.js</title>
<path fill="none" stroke="#000000" stroke-opacity="0.200000" d="M209.69,-279.77C219.69,-261.93 242.25,-221.45 260.5,-187 271.25,-166.71 269.42,-158.73 284,-141 295.53,-126.97 311.83,-114.42 324.67,-105.66"/>
<polygon fill="#000000" fill-opacity="0.200000" stroke="#000000" stroke-opacity="0.200000" points="326.11,-107.23 329.94,-102.15 323.78,-103.73 326.11,-107.23"/>
</g>
<!-- packages/sportident&#45;testbench&#45;client/src/SiDevicesContext.tsx -->
<g id="node6" class="node">
<title>packages/sportident&#45;testbench&#45;client/src/SiDevicesContext.tsx</title>
<g id="a_node6"><a xlink:href="packages/sportident-testbench-client/src/SiDevicesContext.tsx" xlink:title="SiDevicesContext.tsx">
<path fill="#bbfeff" stroke="black" d="M253,-328C253,-328 154,-328 154,-328 151,-328 148,-325 148,-322 148,-322 148,-316 148,-316 148,-313 151,-310 154,-310 154,-310 253,-310 253,-310 256,-310 259,-313 259,-316 259,-316 259,-322 259,-322 259,-325 256,-328 253,-328"/>
<text text-anchor="start" x="156" y="-316.8" font-family="Helvetica,sans-Serif" font-size="9.00">SiDevicesContext.tsx</text>
</a>
</g>
</g>
<!-- packages/sportident&#45;testbench&#45;client/src/SiDevicesContext.tsx&#45;&gt;node_modules/immutable/dist/immutable.js -->
<g id="edge2" class="edge">
<title>packages/sportident&#45;testbench&#45;client/src/SiDevicesContext.tsx&#45;&gt;node_modules/immutable/dist/immutable.js</title>
<path fill="none" stroke="#000000" stroke-opacity="0.200000" d="M250.54,-309.92C254.08,-308.27 257.45,-306.31 260.5,-304 266.36,-299.55 316.63,-211.23 336.74,-175.65"/>
<polygon fill="#000000" fill-opacity="0.200000" stroke="#000000" stroke-opacity="0.200000" points="338.79,-176.29 339.91,-170.04 335.13,-174.23 338.79,-176.29"/>
</g>
<!-- packages/sportident&#45;testbench&#45;client/src/SiDevicesContext.tsx&#45;&gt;node_modules/react/index.js -->
<g id="edge3" class="edge">
<title>packages/sportident&#45;testbench&#45;client/src/SiDevicesContext.tsx&#45;&gt;node_modules/react/index.js</title>
<path fill="none" stroke="#000000" stroke-opacity="0.200000" d="M253.69,-309.85C256.19,-308.19 258.5,-306.26 260.5,-304 309.1,-249.27 247.4,-204.39 284,-141 292.86,-125.65 308.72,-113.4 322.05,-105.12"/>
<polygon fill="#000000" fill-opacity="0.200000" stroke="#000000" stroke-opacity="0.200000" points="323.13,-106.92 327.2,-102.03 320.97,-103.32 323.13,-106.92"/>
</g>
<!-- packages/sportident&#45;testbench&#45;client/src/SiExternalApplication.ts -->
<g id="node7" class="node">
<title>packages/sportident&#45;testbench&#45;client/src/SiExternalApplication.ts</title>
<g id="a_node7"><a xlink:href="packages/sportident-testbench-client/src/SiExternalApplication.ts" xlink:title="SiExternalApplication.ts">
<path fill="#ddfeff" stroke="black" d="M402,-358C402,-358 290,-358 290,-358 287,-358 284,-355 284,-352 284,-352 284,-346 284,-346 284,-343 287,-340 290,-340 290,-340 402,-340 402,-340 405,-340 408,-343 408,-346 408,-346 408,-352 408,-352 408,-355 405,-358 402,-358"/>
<text text-anchor="start" x="292" y="-346.8" font-family="Helvetica,sans-Serif" font-size="9.00">SiExternalApplication.ts</text>
</a>
</g>
</g>
<!-- packages/sportident&#45;testbench&#45;shell/lib/ISiExternalApplication.js -->
<g id="node8" class="node">
<title>packages/sportident&#45;testbench&#45;shell/lib/ISiExternalApplication.js</title>
<g id="a_node8"><a xlink:href="packages/sportident-testbench-shell/lib/ISiExternalApplication.js" xlink:title="ISiExternalApplication.js">
<path fill="#ffffcc" stroke="black" d="M567,-426C567,-426 454,-426 454,-426 451,-426 448,-423 448,-420 448,-420 448,-414 448,-414 448,-411 451,-408 454,-408 454,-408 567,-408 567,-408 570,-408 573,-411 573,-414 573,-414 573,-420 573,-420 573,-423 570,-426 567,-426"/>
<text text-anchor="start" x="456" y="-414.8" font-family="Helvetica,sans-Serif" font-size="9.00">ISiExternalApplication.js</text>
</a>
</g>
</g>
<!-- packages/sportident&#45;testbench&#45;client/src/SiExternalApplication.ts&#45;&gt;packages/sportident&#45;testbench&#45;shell/lib/ISiExternalApplication.js -->
<g id="edge4" class="edge">
<title>packages/sportident&#45;testbench&#45;client/src/SiExternalApplication.ts&#45;&gt;packages/sportident&#45;testbench&#45;shell/lib/ISiExternalApplication.js</title>
<path fill="none" stroke="#000000" stroke-width="2" stroke-opacity="0.200000" d="M368.58,-358.03C397.84,-370.27 450.11,-392.15 482.1,-405.54"/>
<polygon fill="#000000" fill-opacity="0.200000" stroke="#000000" stroke-width="2" stroke-opacity="0.200000" points="481.49,-407.55 487.83,-407.93 483.11,-403.68 481.49,-407.55"/>
</g>
<!-- packages/sportident/lib/utils/index.js -->
<g id="node9" class="node">
<title>packages/sportident/lib/utils/index.js</title>
<g id="a_node9"><a xlink:href="packages/sportident/lib/utils/index.js" xlink:title="index.js">
<path fill="#ffffcc" stroke="black" d="M531.5,-306C531.5,-306 489.5,-306 489.5,-306 486.5,-306 483.5,-303 483.5,-300 483.5,-300 483.5,-294 483.5,-294 483.5,-291 486.5,-288 489.5,-288 489.5,-288 531.5,-288 531.5,-288 534.5,-288 537.5,-291 537.5,-294 537.5,-294 537.5,-300 537.5,-300 537.5,-303 534.5,-306 531.5,-306"/>
<text text-anchor="start" x="493" y="-294.8" font-family="Helvetica,sans-Serif" font-size="9.00">index.js</text>
</a>
</g>
</g>
<!-- packages/sportident&#45;testbench&#45;client/src/SiExternalApplication.ts&#45;&gt;packages/sportident/lib/utils/index.js -->
<g id="edge5" class="edge">
<title>packages/sportident&#45;testbench&#45;client/src/SiExternalApplication.ts&#45;&gt;packages/sportident/lib/utils/index.js</title>
<path fill="none" stroke="#000000" stroke-width="2" stroke-opacity="0.200000" d="M375.31,-339.94C403.86,-330.8 447.88,-316.72 477.64,-307.19"/>
<polygon fill="#000000" fill-opacity="0.200000" stroke="#000000" stroke-width="2" stroke-opacity="0.200000" points="478.32,-309.18 483.4,-305.35 477.04,-305.18 478.32,-309.18"/>
</g>
<!-- packages/sportident&#45;testbench&#45;client/src/Terminal.tsx -->
<g id="node10" class="node">
<title>packages/sportident&#45;testbench&#45;client/src/Terminal.tsx</title>
<g id="a_node10"><a xlink:href="packages/sportident-testbench-client/src/Terminal.tsx" xlink:title="Terminal.tsx">
<path fill="#bbfeff" stroke="black" d="M233,-358C233,-358 174,-358 174,-358 171,-358 168,-355 168,-352 168,-352 168,-346 168,-346 168,-343 171,-340 174,-340 174,-340 233,-340 233,-340 236,-340 239,-343 239,-346 239,-346 239,-352 239,-352 239,-355 236,-358 233,-358"/>
<text text-anchor="start" x="176" y="-346.8" font-family="Helvetica,sans-Serif" font-size="9.00">Terminal.tsx</text>
</a>
</g>
</g>
<!-- packages/sportident&#45;testbench&#45;client/src/Terminal.tsx&#45;&gt;node_modules/react/index.js -->
<g id="edge7" class="edge">
<title>packages/sportident&#45;testbench&#45;client/src/Terminal.tsx&#45;&gt;node_modules/react/index.js</title>
<path fill="none" stroke="#000000" stroke-opacity="0.200000" d="M239.15,-346.35C247.21,-344.1 255.02,-340.31 260.5,-334 317.16,-268.76 241.62,-216.3 284,-141 292.64,-125.66 308.35,-113.47 321.66,-105.22"/>
<polygon fill="#000000" fill-opacity="0.200000" stroke="#000000" stroke-opacity="0.200000" points="322.74,-107.02 326.81,-102.14 320.59,-103.41 322.74,-107.02"/>
</g>
<!-- packages/sportident&#45;testbench&#45;client/src/Terminal.tsx&#45;&gt;packages/sportident&#45;testbench&#45;client/src/SiExternalApplication.ts -->
<g id="edge6" class="edge">
<title>packages/sportident&#45;testbench&#45;client/src/Terminal.tsx&#45;&gt;packages/sportident&#45;testbench&#45;client/src/SiExternalApplication.ts</title>
<path fill="none" stroke="#000000" stroke-width="2" stroke-opacity="0.200000" d="M239.23,-349C250.93,-349 264.41,-349 277.75,-349"/>
<polygon fill="#000000" fill-opacity="0.200000" stroke="#000000" stroke-width="2" stroke-opacity="0.200000" points="277.86,-351.1 283.86,-349 277.86,-346.9 277.86,-351.1"/>
</g>
<!-- packages/sportident&#45;testbench&#45;shell/lib/index.js -->
<g id="node11" class="node">
<title>packages/sportident&#45;testbench&#45;shell/lib/index.js</title>
<g id="a_node11"><a xlink:href="packages/sportident-testbench-shell/lib/index.js" xlink:title="index.js">
<path fill="#ffffcc" stroke="black" d="M531.5,-456C531.5,-456 489.5,-456 489.5,-456 486.5,-456 483.5,-453 483.5,-450 483.5,-450 483.5,-444 483.5,-444 483.5,-441 486.5,-438 489.5,-438 489.5,-438 531.5,-438 531.5,-438 534.5,-438 537.5,-441 537.5,-444 537.5,-444 537.5,-450 537.5,-450 537.5,-453 534.5,-456 531.5,-456"/>
<text text-anchor="start" x="493" y="-444.8" font-family="Helvetica,sans-Serif" font-size="9.00">index.js</text>
</a>
</g>
</g>
<!-- packages/sportident&#45;testbench&#45;client/src/Terminal.tsx&#45;&gt;packages/sportident&#45;testbench&#45;shell/lib/index.js -->
<g id="edge8" class="edge">
<title>packages/sportident&#45;testbench&#45;client/src/Terminal.tsx&#45;&gt;packages/sportident&#45;testbench&#45;shell/lib/index.js</title>
<path fill="none" stroke="#000000" stroke-width="2" stroke-opacity="0.200000" d="M239.04,-357.58C246.18,-359.54 253.62,-361.72 260.5,-364 338.34,-389.76 353.3,-409 432,-432 446.6,-436.27 463.11,-439.65 477.13,-442.12"/>
<polygon fill="#000000" fill-opacity="0.200000" stroke="#000000" stroke-width="2" stroke-opacity="0.200000" points="477.11,-444.25 483.38,-443.19 477.82,-440.11 477.11,-444.25"/>
</g>
<!-- packages/sportident&#45;testbench&#45;client/src/declarations.d.ts -->
<g id="node12" class="node">
<title>packages/sportident&#45;testbench&#45;client/src/declarations.d.ts</title>
<g id="a_node12"><a xlink:href="packages/sportident-testbench-client/src/declarations.d.ts" xlink:title="declarations.d.ts">
<path fill="#ccffcc" stroke="black" d="M118,-380C118,-380 38,-380 38,-380 35,-380 32,-377 32,-374 32,-374 32,-368 32,-368 32,-365 35,-362 38,-362 38,-362 118,-362 118,-362 121,-362 124,-365 124,-368 124,-368 124,-374 124,-374 124,-377 121,-380 118,-380"/>
<text text-anchor="start" x="40" y="-368.8" font-family="Helvetica,sans-Serif" font-size="9.00">declarations.d.ts</text>
</a>
</g>
</g>
<!-- packages/sportident&#45;testbench&#45;client/src/index.tsx -->
<g id="node13" class="node">
<title>packages/sportident&#45;testbench&#45;client/src/index.tsx</title>
<g id="a_node13"><a xlink:href="packages/sportident-testbench-client/src/index.tsx" xlink:title="index.tsx">
<path fill="#bbfeff" stroke="black" d="M101,-335C101,-335 55,-335 55,-335 52,-335 49,-332 49,-329 49,-329 49,-323 49,-323 49,-320 52,-317 55,-317 55,-317 101,-317 101,-317 104,-317 107,-320 107,-323 107,-323 107,-329 107,-329 107,-332 104,-335 101,-335"/>
<text text-anchor="start" x="57" y="-323.8" font-family="Helvetica,sans-Serif" font-size="9.00">index.tsx</text>
</a>
</g>
</g>
<!-- packages/sportident&#45;testbench&#45;client/src/index.tsx&#45;&gt;node_modules/react&#45;dom/client.js -->
<g id="edge14" class="edge">
<title>packages/sportident&#45;testbench&#45;client/src/index.tsx&#45;&gt;node_modules/react&#45;dom/client.js</title>
<path fill="none" stroke="#000000" stroke-opacity="0.200000" d="M80.76,-316.84C86.24,-290.24 105.22,-211.76 146.5,-162 194.37,-104.3 274.81,-63.33 317.09,-44.54"/>
<polygon fill="#000000" fill-opacity="0.200000" stroke="#000000" stroke-opacity="0.200000" points="318.15,-46.37 322.8,-42.04 316.46,-42.53 318.15,-46.37"/>
</g>
<!-- packages/sportident&#45;testbench&#45;client/src/index.tsx&#45;&gt;node_modules/react/index.js -->
<g id="edge13" class="edge">
<title>packages/sportident&#45;testbench&#45;client/src/index.tsx&#45;&gt;node_modules/react/index.js</title>
<path fill="none" stroke="#000000" stroke-opacity="0.200000" d="M88.61,-316.9C117.55,-289.6 206.66,-206.2 284,-141 298.42,-128.84 315.32,-115.62 327.66,-106.14"/>
<polygon fill="#000000" fill-opacity="0.200000" stroke="#000000" stroke-opacity="0.200000" points="329.16,-107.64 332.65,-102.32 326.61,-104.3 329.16,-107.64"/>
</g>
<!-- packages/sportident&#45;testbench&#45;client/src/index.tsx&#45;&gt;packages/sportident&#45;react/lib/index.js -->
<g id="edge15" class="edge">
<title>packages/sportident&#45;testbench&#45;client/src/index.tsx&#45;&gt;packages/sportident&#45;react/lib/index.js</title>
<path fill="none" stroke="#000000" stroke-width="2" stroke-opacity="0.200000" d="M98.15,-335.17C107.04,-340.25 117.14,-347.3 124,-356 141.9,-378.68 130.92,-392.66 146.5,-417 157.23,-433.77 173.74,-449.48 186.05,-459.97"/>
<polygon fill="#000000" fill-opacity="0.200000" stroke="#000000" stroke-width="2" stroke-opacity="0.200000" points="184.76,-461.63 190.71,-463.86 187.45,-458.4 184.76,-461.63"/>
</g>
<!-- packages/sportident&#45;testbench&#45;client/src/index.tsx&#45;&gt;packages/sportident&#45;testbench&#45;client/src/MainStationList.tsx -->
<g id="edge9" class="edge">
<title>packages/sportident&#45;testbench&#45;client/src/index.tsx&#45;&gt;packages/sportident&#45;testbench&#45;client/src/MainStationList.tsx</title>
<path fill="none" stroke="#000000" stroke-width="2" stroke-opacity="0.200000" d="M105.51,-317C117.91,-312.88 132.91,-308.03 146.5,-304 151.35,-302.56 156.46,-301.11 161.54,-299.7"/>
<polygon fill="#000000" fill-opacity="0.200000" stroke="#000000" stroke-width="2" stroke-opacity="0.200000" points="162.24,-301.69 167.47,-298.08 161.13,-297.64 162.24,-301.69"/>
</g>
<!-- packages/sportident&#45;testbench&#45;client/src/index.tsx&#45;&gt;packages/sportident&#45;testbench&#45;client/src/SiDevicesContext.tsx -->
<g id="edge10" class="edge">
<title>packages/sportident&#45;testbench&#45;client/src/index.tsx&#45;&gt;packages/sportident&#45;testbench&#45;client/src/SiDevicesContext.tsx</title>
<path fill="none" stroke="#000000" stroke-width="2" stroke-opacity="0.200000" d="M107.02,-324.41C117.33,-323.83 129.44,-323.14 141.51,-322.46"/>
<polygon fill="#000000" fill-opacity="0.200000" stroke="#000000" stroke-width="2" stroke-opacity="0.200000" points="141.93,-324.54 147.81,-322.1 141.7,-320.34 141.93,-324.54"/>
</g>
<!-- packages/sportident&#45;testbench&#45;client/src/index.tsx&#45;&gt;packages/sportident&#45;testbench&#45;client/src/Terminal.tsx -->
<g id="edge12" class="edge">
<title>packages/sportident&#45;testbench&#45;client/src/index.tsx&#45;&gt;packages/sportident&#45;testbench&#45;client/src/Terminal.tsx</title>
<path fill="none" stroke="#000000" stroke-width="2" stroke-opacity="0.200000" d="M107.02,-331.22C123.26,-334.24 144,-338.1 161.99,-341.45"/>
<polygon fill="#000000" fill-opacity="0.200000" stroke="#000000" stroke-width="2" stroke-opacity="0.200000" points="161.69,-343.54 167.97,-342.57 162.46,-339.41 161.69,-343.54"/>
</g>
<!-- packages/sportident&#45;testbench&#45;client/src/styles.css -->
<g id="node14" class="node">
<title>packages/sportident&#45;testbench&#45;client/src/styles.css</title>
<g id="a_node14"><a xlink:href="packages/sportident-testbench-client/src/styles.css" xlink:title="styles.css">
<path fill="#ffffcc" stroke="black" d="M227,-388C227,-388 180,-388 180,-388 177,-388 174,-385 174,-382 174,-382 174,-376 174,-376 174,-373 177,-370 180,-370 180,-370 227,-370 227,-370 230,-370 233,-373 233,-376 233,-376 233,-382 233,-382 233,-385 230,-388 227,-388"/>
<text text-anchor="start" x="182" y="-376.8" font-family="Helvetica,sans-Serif" font-size="9.00">styles.css</text>
</a>
</g>
</g>
<!-- packages/sportident&#45;testbench&#45;client/src/index.tsx&#45;&gt;packages/sportident&#45;testbench&#45;client/src/styles.css -->
<g id="edge11" class="edge">
<title>packages/sportident&#45;testbench&#45;client/src/index.tsx&#45;&gt;packages/sportident&#45;testbench&#45;client/src/styles.css</title>
<path fill="none" stroke="#000000" stroke-width="2" stroke-opacity="0.200000" d="M92.71,-335.08C105.99,-343.54 126.95,-356.03 146.5,-364 153.27,-366.76 160.71,-369.16 167.89,-371.19"/>
<polygon fill="#000000" fill-opacity="0.200000" stroke="#000000" stroke-width="2" stroke-opacity="0.200000" points="167.5,-373.26 173.84,-372.8 168.6,-369.2 167.5,-373.26"/>
</g>
<!-- packages/sportident&#45;webusb/lib/index.js -->
<g id="node15" class="node">
<title>packages/sportident&#45;webusb/lib/index.js</title>
<g id="a_node15"><a xlink:href="packages/sportident-webusb/lib/index.js" xlink:title="index.js">
<path fill="#ffffcc" stroke="black" d="M224.5,-576C224.5,-576 182.5,-576 182.5,-576 179.5,-576 176.5,-573 176.5,-570 176.5,-570 176.5,-564 176.5,-564 176.5,-561 179.5,-558 182.5,-558 182.5,-558 224.5,-558 224.5,-558 227.5,-558 230.5,-561 230.5,-564 230.5,-564 230.5,-570 230.5,-570 230.5,-573 227.5,-576 224.5,-576"/>
<text text-anchor="start" x="186" y="-564.8" font-family="Helvetica,sans-Serif" font-size="9.00">index.js</text>
</a>
</g>
</g>
<!-- packages/sportident&#45;testbench&#45;client/src/index.tsx&#45;&gt;packages/sportident&#45;webusb/lib/index.js -->
<g id="edge16" class="edge">
<title>packages/sportident&#45;testbench&#45;client/src/index.tsx&#45;&gt;packages/sportident&#45;webusb/lib/index.js</title>
<path fill="none" stroke="#000000" stroke-width="2" stroke-opacity="0.200000" d="M99.9,-335.1C108.73,-340.01 118.28,-346.95 124,-356 161.18,-414.85 115.3,-448.77 146.5,-511 155.31,-528.58 171.76,-543.99 184.55,-554.18"/>
<polygon fill="#000000" fill-opacity="0.200000" stroke="#000000" stroke-width="2" stroke-opacity="0.200000" points="183.4,-555.94 189.43,-557.95 185.97,-552.62 183.4,-555.94"/>
</g>
</g>
</svg>
