<?xml version="1.0" encoding="UTF-8" standalone="no"?>
<!DOCTYPE svg PUBLIC "-//W3C//DTD SVG 1.1//EN"
 "http://www.w3.org/Graphics/SVG/1.1/DTD/svg11.dtd">
<!-- Generated by graphviz version 2.38.0 (20140413.2041)
 -->
<!-- Title: dependency&#45;cruiser output Pages: 1 -->
<svg width="459pt" height="752pt"
 viewBox="0.00 0.00 459.00 752.00" xmlns="http://www.w3.org/2000/svg" xmlns:xlink="http://www.w3.org/1999/xlink">
<g id="graph0" class="graph" transform="scale(1 1) rotate(0) translate(4 748)">
<title>dependency&#45;cruiser output</title>
<polygon fill="white" stroke="none" points="-4,4 -4,-748 455,-748 455,4 -4,4"/>
<g id="clust1" class="cluster"><title>cluster_packages</title>
<path fill="#ffffff" stroke="black" stroke-width="2" d="M20,-26C20,-26 439,-26 439,-26 445,-26 451,-32 451,-38 451,-38 451,-724 451,-724 451,-730 445,-736 439,-736 439,-736 20,-736 20,-736 14,-736 8,-730 8,-724 8,-724 8,-38 8,-38 8,-32 14,-26 20,-26"/>
<text text-anchor="middle" x="229.5" y="-724.8" font-family="Helvetica,sans-Serif" font-weight="bold" font-size="9.00">packages</text>
</g>
<g id="clust2" class="cluster"><title>cluster_packages/sportident&#45;react</title>
<path fill="#ffffff" stroke="black" stroke-width="2" d="M144.5,-436C144.5,-436 224.5,-436 224.5,-436 230.5,-436 236.5,-442 236.5,-448 236.5,-448 236.5,-510 236.5,-510 236.5,-516 230.5,-522 224.5,-522 224.5,-522 144.5,-522 144.5,-522 138.5,-522 132.5,-516 132.5,-510 132.5,-510 132.5,-448 132.5,-448 132.5,-442 138.5,-436 144.5,-436"/>
<text text-anchor="middle" x="184.5" y="-510.8" font-family="Helvetica,sans-Serif" font-weight="bold" font-size="9.00">sportident&#45;react</text>
</g>
<g id="clust3" class="cluster"><title>cluster_packages/sportident&#45;react/src</title>
<path fill="#ffffff" stroke="black" stroke-width="2" d="M161.5,-444C161.5,-444 207.5,-444 207.5,-444 213.5,-444 219.5,-450 219.5,-456 219.5,-456 219.5,-484 219.5,-484 219.5,-490 213.5,-496 207.5,-496 207.5,-496 161.5,-496 161.5,-496 155.5,-496 149.5,-490 149.5,-484 149.5,-484 149.5,-456 149.5,-456 149.5,-450 155.5,-444 161.5,-444"/>
<text text-anchor="middle" x="184.5" y="-484.8" font-family="Helvetica,sans-Serif" font-weight="bold" font-size="9.00">src</text>
</g>
<g id="clust4" class="cluster"><title>cluster_packages/sportident&#45;testbench&#45;client</title>
<path fill="#ffffff" stroke="black" stroke-width="2" d="M28,-34C28,-34 421,-34 421,-34 427,-34 433,-40 433,-46 433,-46 433,-416 433,-416 433,-422 427,-428 421,-428 421,-428 28,-428 28,-428 22,-428 16,-422 16,-416 16,-416 16,-46 16,-46 16,-40 22,-34 28,-34"/>
<text text-anchor="middle" x="224.5" y="-416.8" font-family="Helvetica,sans-Serif" font-weight="bold" font-size="9.00">sportident&#45;testbench&#45;client</text>
</g>
<g id="clust5" class="cluster"><title>cluster_packages/sportident&#45;testbench&#45;client/node_modules</title>
<path fill="#ffffff" stroke="black" stroke-width="2" d="M313,-42C313,-42 413,-42 413,-42 419,-42 425,-48 425,-54 425,-54 425,-390 425,-390 425,-396 419,-402 413,-402 413,-402 313,-402 313,-402 307,-402 301,-396 301,-390 301,-390 301,-54 301,-54 301,-48 307,-42 313,-42"/>
<text text-anchor="middle" x="363" y="-390.8" font-family="Helvetica,sans-Serif" font-weight="bold" font-size="9.00">node_modules</text>
</g>
<g id="clust6" class="cluster"><title>cluster_packages/sportident&#45;testbench&#45;client/node_modules/immutable</title>
<path fill="#ffffff" stroke="black" stroke-width="2" d="M321,-230C321,-230 405,-230 405,-230 411,-230 417,-236 417,-242 417,-242 417,-304 417,-304 417,-310 411,-316 405,-316 405,-316 321,-316 321,-316 315,-316 309,-310 309,-304 309,-304 309,-242 309,-242 309,-236 315,-230 321,-230"/>
<text text-anchor="middle" x="363" y="-304.8" font-family="Helvetica,sans-Serif" font-weight="bold" font-size="9.00">immutable</text>
</g>
<g id="clust7" class="cluster"><title>cluster_packages/sportident&#45;testbench&#45;client/node_modules/immutable/dist</title>
<path fill="#ffffff" stroke="black" stroke-width="2" d="M329,-238C329,-238 397,-238 397,-238 403,-238 409,-244 409,-250 409,-250 409,-278 409,-278 409,-284 403,-290 397,-290 397,-290 329,-290 329,-290 323,-290 317,-284 317,-278 317,-278 317,-250 317,-250 317,-244 323,-238 329,-238"/>
<text text-anchor="middle" x="363" y="-278.8" font-family="Helvetica,sans-Serif" font-weight="bold" font-size="9.00">dist</text>
</g>
<g id="clust8" class="cluster"><title>cluster_packages/sportident&#45;testbench&#45;client/node_modules/lodash</title>
<path fill="#ffffff" stroke="black" stroke-width="2" d="M337.5,-324C337.5,-324 388.5,-324 388.5,-324 394.5,-324 400.5,-330 400.5,-336 400.5,-336 400.5,-364 400.5,-364 400.5,-370 394.5,-376 388.5,-376 388.5,-376 337.5,-376 337.5,-376 331.5,-376 325.5,-370 325.5,-364 325.5,-364 325.5,-336 325.5,-336 325.5,-330 331.5,-324 337.5,-324"/>
<text text-anchor="middle" x="363" y="-364.8" font-family="Helvetica,sans-Serif" font-weight="bold" font-size="9.00">lodash</text>
</g>
<g id="clust9" class="cluster"><title>cluster_packages/sportident&#45;testbench&#45;client/node_modules/prop&#45;types</title>
<path fill="#ffffff" stroke="black" stroke-width="2" d="M338,-110C338,-110 389,-110 389,-110 395,-110 401,-116 401,-122 401,-122 401,-150 401,-150 401,-156 395,-162 389,-162 389,-162 338,-162 338,-162 332,-162 326,-156 326,-150 326,-150 326,-122 326,-122 326,-116 332,-110 338,-110"/>
<text text-anchor="middle" x="363.5" y="-150.8" font-family="Helvetica,sans-Serif" font-weight="bold" font-size="9.00">prop&#45;types</text>
</g>
<g id="clust10" class="cluster"><title>cluster_packages/sportident&#45;testbench&#45;client/node_modules/react&#45;dom</title>
<path fill="#ffffff" stroke="black" stroke-width="2" d="M340,-50C340,-50 387,-50 387,-50 393,-50 399,-56 399,-62 399,-62 399,-90 399,-90 399,-96 393,-102 387,-102 387,-102 340,-102 340,-102 334,-102 328,-96 328,-90 328,-90 328,-62 328,-62 328,-56 334,-50 340,-50"/>
<text text-anchor="middle" x="363.5" y="-90.8" font-family="Helvetica,sans-Serif" font-weight="bold" font-size="9.00">react&#45;dom</text>
</g>
<g id="clust11" class="cluster"><title>cluster_packages/sportident&#45;testbench&#45;client/node_modules/react</title>
<path fill="#ffffff" stroke="black" stroke-width="2" d="M340,-170C340,-170 386,-170 386,-170 392,-170 398,-176 398,-182 398,-182 398,-210 398,-210 398,-216 392,-222 386,-222 386,-222 340,-222 340,-222 334,-222 328,-216 328,-210 328,-210 328,-182 328,-182 328,-176 334,-170 340,-170"/>
<text text-anchor="middle" x="363" y="-210.8" font-family="Helvetica,sans-Serif" font-weight="bold" font-size="9.00">react</text>
</g>
<g id="clust12" class="cluster"><title>cluster_packages/sportident&#45;testbench&#45;client/src</title>
<path fill="#ffffff" stroke="black" stroke-width="2" d="M36,-146C36,-146 255,-146 255,-146 261,-146 267,-152 267,-158 267,-158 267,-306 267,-306 267,-312 261,-318 255,-318 255,-318 36,-318 36,-318 30,-318 24,-312 24,-306 24,-306 24,-158 24,-158 24,-152 30,-146 36,-146"/>
<text text-anchor="middle" x="145.5" y="-306.8" font-family="Helvetica,sans-Serif" font-weight="bold" font-size="9.00">src</text>
</g>
<g id="clust13" class="cluster"><title>cluster_packages/sportident&#45;testbench&#45;shell</title>
<path fill="#ffffff" stroke="black" stroke-width="2" d="M295,-436C295,-436 431,-436 431,-436 437,-436 443,-442 443,-448 443,-448 443,-510 443,-510 443,-516 437,-522 431,-522 431,-522 295,-522 295,-522 289,-522 283,-516 283,-510 283,-510 283,-448 283,-448 283,-442 289,-436 295,-436"/>
<text text-anchor="middle" x="363" y="-510.8" font-family="Helvetica,sans-Serif" font-weight="bold" font-size="9.00">sportident&#45;testbench&#45;shell</text>
</g>
<g id="clust14" class="cluster"><title>cluster_packages/sportident&#45;testbench&#45;shell/lib</title>
<path fill="#ffffff" stroke="black" stroke-width="2" d="M340,-444C340,-444 386,-444 386,-444 392,-444 398,-450 398,-456 398,-456 398,-484 398,-484 398,-490 392,-496 386,-496 386,-496 340,-496 340,-496 334,-496 328,-490 328,-484 328,-484 328,-456 328,-456 328,-450 334,-444 340,-444"/>
<text text-anchor="middle" x="363" y="-484.8" font-family="Helvetica,sans-Serif" font-weight="bold" font-size="9.00">lib</text>
</g>
<g id="clust15" class="cluster"><title>cluster_packages/sportident&#45;webusb</title>
<path fill="#ffffff" stroke="black" stroke-width="2" d="M137.5,-530C137.5,-530 232.5,-530 232.5,-530 238.5,-530 244.5,-536 244.5,-542 244.5,-542 244.5,-604 244.5,-604 244.5,-610 238.5,-616 232.5,-616 232.5,-616 137.5,-616 137.5,-616 131.5,-616 125.5,-610 125.5,-604 125.5,-604 125.5,-542 125.5,-542 125.5,-536 131.5,-530 137.5,-530"/>
<text text-anchor="middle" x="185" y="-604.8" font-family="Helvetica,sans-Serif" font-weight="bold" font-size="9.00">sportident&#45;webusb</text>
</g>
<g id="clust16" class="cluster"><title>cluster_packages/sportident&#45;webusb/src</title>
<path fill="#ffffff" stroke="black" stroke-width="2" d="M161.5,-538C161.5,-538 207.5,-538 207.5,-538 213.5,-538 219.5,-544 219.5,-550 219.5,-550 219.5,-578 219.5,-578 219.5,-584 213.5,-590 207.5,-590 207.5,-590 161.5,-590 161.5,-590 155.5,-590 149.5,-584 149.5,-578 149.5,-578 149.5,-550 149.5,-550 149.5,-544 155.5,-538 161.5,-538"/>
<text text-anchor="middle" x="184.5" y="-578.8" font-family="Helvetica,sans-Serif" font-weight="bold" font-size="9.00">src</text>
</g>
<g id="clust17" class="cluster"><title>cluster_packages/sportident</title>
<path fill="#ffffff" stroke="black" stroke-width="2" d="M153.5,-624C153.5,-624 215.5,-624 215.5,-624 221.5,-624 227.5,-630 227.5,-636 227.5,-636 227.5,-698 227.5,-698 227.5,-704 221.5,-710 215.5,-710 215.5,-710 153.5,-710 153.5,-710 147.5,-710 141.5,-704 141.5,-698 141.5,-698 141.5,-636 141.5,-636 141.5,-630 147.5,-624 153.5,-624"/>
<text text-anchor="middle" x="184.5" y="-698.8" font-family="Helvetica,sans-Serif" font-weight="bold" font-size="9.00">sportident</text>
</g>
<g id="clust18" class="cluster"><title>cluster_packages/sportident/lib</title>
<path fill="#ffffff" stroke="black" stroke-width="2" d="M161.5,-632C161.5,-632 207.5,-632 207.5,-632 213.5,-632 219.5,-638 219.5,-644 219.5,-644 219.5,-672 219.5,-672 219.5,-678 213.5,-684 207.5,-684 207.5,-684 161.5,-684 161.5,-684 155.5,-684 149.5,-678 149.5,-672 149.5,-672 149.5,-644 149.5,-644 149.5,-638 155.5,-632 161.5,-632"/>
<text text-anchor="middle" x="184.5" y="-672.8" font-family="Helvetica,sans-Serif" font-weight="bold" font-size="9.00">lib</text>
</g>
<!-- eslint.js -->
<g id="node1" class="node"><title>eslint.js</title>
<g id="a_node1"><a xlink:href="eslint.js" xlink:title="eslint.js">
<path fill="#ffffcc" stroke="black" d="M205.5,-18C205.5,-18 163.5,-18 163.5,-18 160.5,-18 157.5,-15 157.5,-12 157.5,-12 157.5,-6 157.5,-6 157.5,-3 160.5,-0 163.5,-0 163.5,-0 205.5,-0 205.5,-0 208.5,-0 211.5,-3 211.5,-6 211.5,-6 211.5,-12 211.5,-12 211.5,-15 208.5,-18 205.5,-18"/>
<text text-anchor="middle" x="184.5" y="-6.8" font-family="Helvetica,sans-Serif" font-size="9.00">eslint.js</text>
</a>
</g>
</g>
<!-- packages/sportident&#45;react/src/index.ts -->
<g id="node2" class="node"><title>packages/sportident&#45;react/src/index.ts</title>
<g id="a_node2"><a xlink:href="packages/sportident-react/src/index.ts" xlink:title="index.ts">
<polygon fill="#ddfeff" stroke="black" points="211.5,-470 210,-472 199.5,-472 198,-470 157.5,-470 157.5,-452 211.5,-452 211.5,-470"/>
<text text-anchor="middle" x="184.5" y="-458.8" font-family="Helvetica,sans-Serif" font-size="9.00">index.ts</text>
</a>
</g>
</g>
<!-- packages/sportident&#45;testbench&#45;client/node_modules/immutable/dist/immutable.js -->
<g id="node3" class="node"><title>packages/sportident&#45;testbench&#45;client/node_modules/immutable/dist/immutable.js</title>
<g id="a_node3"><a xlink:href="packages/sportident-testbench-client/node_modules/immutable/dist/immutable.js" xlink:title="immutable.js">
<polygon fill="#c40b0a" fill-opacity="0.101961" stroke="black" points="401,-264 399.5,-266 389,-266 387.5,-264 325,-264 325,-246 401,-246 401,-264"/>
<text text-anchor="middle" x="363" y="-252.8" font-family="Helvetica,sans-Serif" font-size="9.00" fill="#c40b0a">immutable.js</text>
</a>
</g>
</g>
<!-- packages/sportident&#45;testbench&#45;client/node_modules/lodash/lodash.js -->
<g id="node4" class="node"><title>packages/sportident&#45;testbench&#45;client/node_modules/lodash/lodash.js</title>
<g id="a_node4"><a xlink:href="packages/sportident-testbench-client/node_modules/lodash/lodash.js" xlink:title="lodash.js">
<polygon fill="#c40b0a" fill-opacity="0.101961" stroke="black" points="392.5,-350 391,-352 380.5,-352 379,-350 333.5,-350 333.5,-332 392.5,-332 392.5,-350"/>
<text text-anchor="middle" x="363" y="-338.8" font-family="Helvetica,sans-Serif" font-size="9.00" fill="#c40b0a">lodash.js</text>
</a>
</g>
</g>
<!-- packages/sportident&#45;testbench&#45;client/node_modules/prop&#45;types/index.js -->
<g id="node5" class="node"><title>packages/sportident&#45;testbench&#45;client/node_modules/prop&#45;types/index.js</title>
<g id="a_node5"><a xlink:href="packages/sportident-testbench-client/node_modules/prop-types/index.js" xlink:title="index.js">
<polygon fill="#c40b0a" fill-opacity="0.101961" stroke="black" points="390,-136 388.5,-138 378,-138 376.5,-136 336,-136 336,-118 390,-118 390,-136"/>
<text text-anchor="middle" x="363" y="-124.8" font-family="Helvetica,sans-Serif" font-size="9.00" fill="#c40b0a">index.js</text>
</a>
</g>
</g>
<!-- packages/sportident&#45;testbench&#45;client/node_modules/react&#45;dom/index.js -->
<g id="node6" class="node"><title>packages/sportident&#45;testbench&#45;client/node_modules/react&#45;dom/index.js</title>
<g id="a_node6"><a xlink:href="packages/sportident-testbench-client/node_modules/react-dom/index.js" xlink:title="index.js">
<polygon fill="#c40b0a" fill-opacity="0.101961" stroke="black" points="390,-76 388.5,-78 378,-78 376.5,-76 336,-76 336,-58 390,-58 390,-76"/>
<text text-anchor="middle" x="363" y="-64.8" font-family="Helvetica,sans-Serif" font-size="9.00" fill="#c40b0a">index.js</text>
</a>
</g>
</g>
<!-- packages/sportident&#45;testbench&#45;client/node_modules/react/index.js -->
<g id="node7" class="node"><title>packages/sportident&#45;testbench&#45;client/node_modules/react/index.js</title>
<g id="a_node7"><a xlink:href="packages/sportident-testbench-client/node_modules/react/index.js" xlink:title="index.js">
<polygon fill="#c40b0a" fill-opacity="0.101961" stroke="black" points="390,-196 388.5,-198 378,-198 376.5,-196 336,-196 336,-178 390,-178 390,-196"/>
<text text-anchor="middle" x="363" y="-184.8" font-family="Helvetica,sans-Serif" font-size="9.00" fill="#c40b0a">index.js</text>
</a>
</g>
</g>
<!-- packages/sportident&#45;testbench&#45;client/src/.eslintrc.js -->
<g id="node8" class="node"><title>packages/sportident&#45;testbench&#45;client/src/.eslintrc.js</title>
<g id="a_node8"><a xlink:href="packages/sportident-testbench-client/src/.eslintrc.js" xlink:title=".eslintrc.js">
<path fill="#ffffcc" stroke="black" d="M91,-172C91,-172 38,-172 38,-172 35,-172 32,-169 32,-166 32,-166 32,-160 32,-160 32,-157 35,-154 38,-154 38,-154 91,-154 91,-154 94,-154 97,-157 97,-160 97,-160 97,-166 97,-166 97,-169 94,-172 91,-172"/>
<text text-anchor="middle" x="64.5" y="-160.8" font-family="Helvetica,sans-Serif" font-size="9.00">.eslintrc.js</text>
</a>
</g>
</g>
<!-- packages/sportident&#45;testbench&#45;client/src/.eslintrc.js&#45;&gt;eslint.js -->
<g id="edge1" class="edge"><title>packages/sportident&#45;testbench&#45;client/src/.eslintrc.js&#45;&gt;eslint.js</title>
<path fill="none" stroke="#000000" stroke-width="2" stroke-opacity="0.200000" d="M70.0373,-153.549C77.4283,-138.567 92.9637,-108.735 110,-86 126.987,-63.3311 149.982,-40.2034 165.701,-25.2932"/>
<polygon fill="#000000" fill-opacity="0.200000" stroke="#000000" stroke-width="2" stroke-opacity="0.200000" points="168.274,-27.6784 173.187,-18.2912 163.493,-22.566 168.274,-27.6784"/>
</g>
<!-- packages/sportident&#45;testbench&#45;client/src/MainStationList.jsx -->
<g id="node9" class="node"><title>packages/sportident&#45;testbench&#45;client/src/MainStationList.jsx</title>
<g id="a_node9"><a xlink:href="packages/sportident-testbench-client/src/MainStationList.jsx" xlink:title="MainStationList.jsx">
<path fill="#ffff77" stroke="black" d="M230,-202C230,-202 139,-202 139,-202 136,-202 133,-199 133,-196 133,-196 133,-190 133,-190 133,-187 136,-184 139,-184 139,-184 230,-184 230,-184 233,-184 236,-187 236,-190 236,-190 236,-196 236,-196 236,-199 233,-202 230,-202"/>
<text text-anchor="middle" x="184.5" y="-190.8" font-family="Helvetica,sans-Serif" font-size="9.00">MainStationList.jsx</text>
</a>
</g>
</g>
<!-- packages/sportident&#45;testbench&#45;client/src/MainStationList.jsx&#45;&gt;packages/sportident&#45;testbench&#45;client/node_modules/prop&#45;types/index.js -->
<g id="edge2" class="edge"><title>packages/sportident&#45;testbench&#45;client/src/MainStationList.jsx&#45;&gt;packages/sportident&#45;testbench&#45;client/node_modules/prop&#45;types/index.js</title>
<path fill="none" stroke="#000000" stroke-width="2" stroke-opacity="0.200000" d="M236.02,-187.117C246.497,-184.958 257.295,-182.014 267,-178 274.974,-174.702 275.578,-171.403 283,-167 299.051,-157.476 317.646,-147.99 332.761,-140.647"/>
<polygon fill="#000000" fill-opacity="0.200000" stroke="#000000" stroke-width="2" stroke-opacity="0.200000" points="334.628,-143.633 342.13,-136.152 331.6,-137.322 334.628,-143.633"/>
</g>
<!-- packages/sportident&#45;testbench&#45;client/src/MainStationList.jsx&#45;&gt;packages/sportident&#45;testbench&#45;client/node_modules/react/index.js -->
<g id="edge3" class="edge"><title>packages/sportident&#45;testbench&#45;client/src/MainStationList.jsx&#45;&gt;packages/sportident&#45;testbench&#45;client/node_modules/react/index.js</title>
<path fill="none" stroke="#000000" stroke-width="2" stroke-opacity="0.200000" d="M236.078,-191.281C264.728,-190.307 299.899,-189.111 325.781,-188.231"/>
<polygon fill="#000000" fill-opacity="0.200000" stroke="#000000" stroke-width="2" stroke-opacity="0.200000" points="326.034,-191.725 335.909,-187.887 325.796,-184.729 326.034,-191.725"/>
</g>
<!-- packages/sportident&#45;testbench&#45;client/src/Terminal.jsx -->
<g id="node10" class="node"><title>packages/sportident&#45;testbench&#45;client/src/Terminal.jsx</title>
<g id="a_node10"><a xlink:href="packages/sportident-testbench-client/src/Terminal.jsx" xlink:title="Terminal.jsx">
<path fill="#ffff77" stroke="black" d="M213.5,-292C213.5,-292 155.5,-292 155.5,-292 152.5,-292 149.5,-289 149.5,-286 149.5,-286 149.5,-280 149.5,-280 149.5,-277 152.5,-274 155.5,-274 155.5,-274 213.5,-274 213.5,-274 216.5,-274 219.5,-277 219.5,-280 219.5,-280 219.5,-286 219.5,-286 219.5,-289 216.5,-292 213.5,-292"/>
<text text-anchor="middle" x="184.5" y="-280.8" font-family="Helvetica,sans-Serif" font-size="9.00">Terminal.jsx</text>
</a>
</g>
</g>
<!-- packages/sportident&#45;testbench&#45;client/src/Terminal.jsx&#45;&gt;packages/sportident&#45;testbench&#45;client/node_modules/lodash/lodash.js -->
<g id="edge4" class="edge"><title>packages/sportident&#45;testbench&#45;client/src/Terminal.jsx&#45;&gt;packages/sportident&#45;testbench&#45;client/node_modules/lodash/lodash.js</title>
<path fill="none" stroke="#000000" stroke-width="2" stroke-opacity="0.200000" d="M213.078,-292.062C243.04,-301.908 291.086,-317.697 324.471,-328.668"/>
<polygon fill="#000000" fill-opacity="0.200000" stroke="#000000" stroke-width="2" stroke-opacity="0.200000" points="323.732,-332.109 334.325,-331.906 325.917,-325.459 323.732,-332.109"/>
</g>
<!-- packages/sportident&#45;testbench&#45;client/src/Terminal.jsx&#45;&gt;packages/sportident&#45;testbench&#45;client/node_modules/prop&#45;types/index.js -->
<g id="edge5" class="edge"><title>packages/sportident&#45;testbench&#45;client/src/Terminal.jsx&#45;&gt;packages/sportident&#45;testbench&#45;client/node_modules/prop&#45;types/index.js</title>
<path fill="none" stroke="#000000" stroke-width="2" stroke-opacity="0.200000" d="M219.859,-285.262C236.284,-284.427 254.945,-280.359 267,-268 298.734,-235.465 256.239,-203.734 283,-167 293.495,-152.594 310.687,-143.033 326.357,-136.882"/>
<polygon fill="#000000" fill-opacity="0.200000" stroke="#000000" stroke-width="2" stroke-opacity="0.200000" points="327.613,-140.15 335.845,-133.481 325.25,-133.561 327.613,-140.15"/>
</g>
<!-- packages/sportident&#45;testbench&#45;client/src/Terminal.jsx&#45;&gt;packages/sportident&#45;testbench&#45;client/node_modules/react/index.js -->
<g id="edge6" class="edge"><title>packages/sportident&#45;testbench&#45;client/src/Terminal.jsx&#45;&gt;packages/sportident&#45;testbench&#45;client/node_modules/react/index.js</title>
<path fill="none" stroke="#000000" stroke-width="2" stroke-opacity="0.200000" d="M219.644,-283.553C235.432,-282.205 253.607,-278.196 267,-268 279.969,-258.127 272.032,-247.057 283,-235 296.361,-220.313 315.258,-208.611 331.221,-200.439"/>
<polygon fill="#000000" fill-opacity="0.200000" stroke="#000000" stroke-width="2" stroke-opacity="0.200000" points="332.771,-203.577 340.216,-196.04 329.695,-197.289 332.771,-203.577"/>
</g>
<!-- packages/sportident&#45;testbench&#45;shell/lib/index.js -->
<g id="node16" class="node"><title>packages/sportident&#45;testbench&#45;shell/lib/index.js</title>
<g id="a_node16"><a xlink:href="packages/sportident-testbench-shell/lib/index.js" xlink:title="index.js">
<polygon fill="#ffffcc" stroke="black" points="390,-470 388.5,-472 378,-472 376.5,-470 336,-470 336,-452 390,-452 390,-470"/>
<text text-anchor="middle" x="363" y="-458.8" font-family="Helvetica,sans-Serif" font-size="9.00">index.js</text>
</a>
</g>
</g>
<!-- packages/sportident&#45;testbench&#45;client/src/Terminal.jsx&#45;&gt;packages/sportident&#45;testbench&#45;shell/lib/index.js -->
<g id="edge7" class="edge"><title>packages/sportident&#45;testbench&#45;client/src/Terminal.jsx&#45;&gt;packages/sportident&#45;testbench&#45;shell/lib/index.js</title>
<path fill="none" stroke="#000000" stroke-width="2" stroke-opacity="0.200000" d="M194.495,-292.072C222.578,-320.393 308.924,-407.473 345.43,-444.289"/>
<polygon fill="#000000" fill-opacity="0.200000" stroke="#000000" stroke-width="2" stroke-opacity="0.200000" points="343.285,-447.096 352.811,-451.733 348.255,-442.168 343.285,-447.096"/>
</g>
<!-- packages/sportident&#45;testbench&#45;client/src/WebUsbSiDevicesContext.jsx -->
<g id="node11" class="node"><title>packages/sportident&#45;testbench&#45;client/src/WebUsbSiDevicesContext.jsx</title>
<g id="a_node11"><a xlink:href="packages/sportident-testbench-client/src/WebUsbSiDevicesContext.jsx" xlink:title="WebUsbSiDevicesContext.jsx">
<path fill="#ffff77" stroke="black" d="M253,-262C253,-262 116,-262 116,-262 113,-262 110,-259 110,-256 110,-256 110,-250 110,-250 110,-247 113,-244 116,-244 116,-244 253,-244 253,-244 256,-244 259,-247 259,-250 259,-250 259,-256 259,-256 259,-259 256,-262 253,-262"/>
<text text-anchor="middle" x="184.5" y="-250.8" font-family="Helvetica,sans-Serif" font-size="9.00">WebUsbSiDevicesContext.jsx</text>
</a>
</g>
</g>
<!-- packages/sportident&#45;testbench&#45;client/src/WebUsbSiDevicesContext.jsx&#45;&gt;packages/sportident&#45;testbench&#45;client/node_modules/immutable/dist/immutable.js -->
<g id="edge8" class="edge"><title>packages/sportident&#45;testbench&#45;client/src/WebUsbSiDevicesContext.jsx&#45;&gt;packages/sportident&#45;testbench&#45;client/node_modules/immutable/dist/immutable.js</title>
<path fill="none" stroke="#000000" stroke-width="2" stroke-opacity="0.200000" d="M259.074,-253.834C277.873,-254.047 297.587,-254.27 314.673,-254.464"/>
<polygon fill="#000000" fill-opacity="0.200000" stroke="#000000" stroke-width="2" stroke-opacity="0.200000" points="314.9,-257.966 324.939,-254.58 314.98,-250.967 314.9,-257.966"/>
</g>
<!-- packages/sportident&#45;testbench&#45;client/src/WebUsbSiDevicesContext.jsx&#45;&gt;packages/sportident&#45;testbench&#45;client/node_modules/react/index.js -->
<g id="edge9" class="edge"><title>packages/sportident&#45;testbench&#45;client/src/WebUsbSiDevicesContext.jsx&#45;&gt;packages/sportident&#45;testbench&#45;client/node_modules/react/index.js</title>
<path fill="none" stroke="#000000" stroke-width="2" stroke-opacity="0.200000" d="M246.573,-243.911C253.545,-242.242 260.483,-240.286 267,-238 293.294,-228.777 321.128,-213.037 339.823,-201.477"/>
<polygon fill="#000000" fill-opacity="0.200000" stroke="#000000" stroke-width="2" stroke-opacity="0.200000" points="341.873,-204.322 348.464,-196.027 338.138,-198.402 341.873,-204.322"/>
</g>
<!-- packages/sportident&#45;testbench&#45;client/src/dummy.ts -->
<g id="node12" class="node"><title>packages/sportident&#45;testbench&#45;client/src/dummy.ts</title>
<g id="a_node12"><a xlink:href="packages/sportident-testbench-client/src/dummy.ts" xlink:title="no&#45;orphans">
<path fill="#ccffcc" stroke="blue" d="M88.5,-202C88.5,-202 40.5,-202 40.5,-202 37.5,-202 34.5,-199 34.5,-196 34.5,-196 34.5,-190 34.5,-190 34.5,-187 37.5,-184 40.5,-184 40.5,-184 88.5,-184 88.5,-184 91.5,-184 94.5,-187 94.5,-190 94.5,-190 94.5,-196 94.5,-196 94.5,-199 91.5,-202 88.5,-202"/>
<text text-anchor="middle" x="64.5" y="-190.8" font-family="Helvetica,sans-Serif" font-size="9.00" fill="blue">dummy.ts</text>
</a>
</g>
</g>
<!-- packages/sportident&#45;testbench&#45;client/src/index.html -->
<g id="node13" class="node"><title>packages/sportident&#45;testbench&#45;client/src/index.html</title>
<g id="a_node13"><a xlink:href="packages/sportident-testbench-client/src/index.html" xlink:title="index.html">
<path fill="#ffffcc" stroke="black" d="M211,-172C211,-172 158,-172 158,-172 155,-172 152,-169 152,-166 152,-166 152,-160 152,-160 152,-157 155,-154 158,-154 158,-154 211,-154 211,-154 214,-154 217,-157 217,-160 217,-160 217,-166 217,-166 217,-169 214,-172 211,-172"/>
<text text-anchor="middle" x="184.5" y="-160.8" font-family="Helvetica,sans-Serif" font-size="9.00">index.html</text>
</a>
</g>
</g>
<!-- packages/sportident&#45;testbench&#45;client/src/index.jsx -->
<g id="node14" class="node"><title>packages/sportident&#45;testbench&#45;client/src/index.jsx</title>
<g id="a_node14"><a xlink:href="packages/sportident-testbench-client/src/index.jsx" xlink:title="index.jsx">
<path fill="#ffff77" stroke="black" d="M86.5,-232C86.5,-232 42.5,-232 42.5,-232 39.5,-232 36.5,-229 36.5,-226 36.5,-226 36.5,-220 36.5,-220 36.5,-217 39.5,-214 42.5,-214 42.5,-214 86.5,-214 86.5,-214 89.5,-214 92.5,-217 92.5,-220 92.5,-220 92.5,-226 92.5,-226 92.5,-229 89.5,-232 86.5,-232"/>
<text text-anchor="middle" x="64.5" y="-220.8" font-family="Helvetica,sans-Serif" font-size="9.00">index.jsx</text>
</a>
</g>
</g>
<!-- packages/sportident&#45;testbench&#45;client/src/index.jsx&#45;&gt;packages/sportident&#45;react/src/index.ts -->
<g id="edge18" class="edge"><title>packages/sportident&#45;testbench&#45;client/src/index.jsx&#45;&gt;packages/sportident&#45;react/src/index.ts</title>
<path fill="none" stroke="#000000" stroke-width="2" stroke-opacity="0.200000" d="M69.4978,-232.27C77.088,-249.76 94.2385,-288.771 110,-321 131.709,-365.39 159.228,-416.572 173.653,-443.048"/>
<polygon fill="#000000" fill-opacity="0.200000" stroke="#000000" stroke-width="2" stroke-opacity="0.200000" points="170.635,-444.823 178.501,-451.92 176.777,-441.466 170.635,-444.823"/>
</g>
<!-- packages/sportident&#45;testbench&#45;client/src/index.jsx&#45;&gt;packages/sportident&#45;testbench&#45;client/node_modules/prop&#45;types/index.js -->
<g id="edge15" class="edge"><title>packages/sportident&#45;testbench&#45;client/src/index.jsx&#45;&gt;packages/sportident&#45;testbench&#45;client/node_modules/prop&#45;types/index.js</title>
<path fill="none" stroke="#000000" stroke-width="2" stroke-opacity="0.200000" d="M90.618,-213.976C93.0413,-212.295 95.2453,-210.318 97,-208 117.681,-180.676 84.0258,-154.353 110,-132 141.354,-105.017 263.842,-115.162 325.754,-122.312"/>
<polygon fill="#000000" fill-opacity="0.200000" stroke="#000000" stroke-width="2" stroke-opacity="0.200000" points="325.518,-125.809 335.861,-123.516 326.345,-118.858 325.518,-125.809"/>
</g>
<!-- packages/sportident&#45;testbench&#45;client/src/index.jsx&#45;&gt;packages/sportident&#45;testbench&#45;client/node_modules/react&#45;dom/index.js -->
<g id="edge17" class="edge"><title>packages/sportident&#45;testbench&#45;client/src/index.jsx&#45;&gt;packages/sportident&#45;testbench&#45;client/node_modules/react&#45;dom/index.js</title>
<path fill="none" stroke="#000000" stroke-width="2" stroke-opacity="0.200000" d="M90.9983,-213.822C93.288,-212.177 95.3574,-210.251 97,-208 122.383,-173.222 80.2025,-143.079 110,-112 166.2,-53.3824 270.557,-55.5174 325.693,-61.5422"/>
<polygon fill="#000000" fill-opacity="0.200000" stroke="#000000" stroke-width="2" stroke-opacity="0.200000" points="325.37,-65.0284 335.714,-62.7404 326.201,-58.0779 325.37,-65.0284"/>
</g>
<!-- packages/sportident&#45;testbench&#45;client/src/index.jsx&#45;&gt;packages/sportident&#45;testbench&#45;client/node_modules/react/index.js -->
<g id="edge16" class="edge"><title>packages/sportident&#45;testbench&#45;client/src/index.jsx&#45;&gt;packages/sportident&#45;testbench&#45;client/node_modules/react/index.js</title>
<path fill="none" stroke="#000000" stroke-width="2" stroke-opacity="0.200000" d="M90.5179,-213.898C92.9592,-212.231 95.1948,-210.279 97,-208 113.941,-186.611 88.7616,-165.13 110,-148 137.157,-126.097 234.973,-134.162 267,-148 276.525,-152.115 274.12,-159.633 283,-165 295.942,-172.822 311.745,-177.941 325.806,-181.253"/>
<polygon fill="#000000" fill-opacity="0.200000" stroke="#000000" stroke-width="2" stroke-opacity="0.200000" points="325.161,-184.694 335.672,-183.358 326.622,-177.848 325.161,-184.694"/>
</g>
<!-- packages/sportident&#45;testbench&#45;client/src/index.jsx&#45;&gt;packages/sportident&#45;testbench&#45;client/src/MainStationList.jsx -->
<g id="edge11" class="edge"><title>packages/sportident&#45;testbench&#45;client/src/index.jsx&#45;&gt;packages/sportident&#45;testbench&#45;client/src/MainStationList.jsx</title>
<path fill="none" stroke="#000000" stroke-width="2" stroke-opacity="0.200000" d="M90.7492,-213.885C96.9951,-211.798 103.702,-209.697 110,-208 114.704,-206.732 119.602,-205.515 124.538,-204.36"/>
<polygon fill="#000000" fill-opacity="0.200000" stroke="#000000" stroke-width="2" stroke-opacity="0.200000" points="125.683,-207.69 134.671,-202.082 124.147,-200.861 125.683,-207.69"/>
</g>
<!-- packages/sportident&#45;testbench&#45;client/src/index.jsx&#45;&gt;packages/sportident&#45;testbench&#45;client/src/Terminal.jsx -->
<g id="edge13" class="edge"><title>packages/sportident&#45;testbench&#45;client/src/index.jsx&#45;&gt;packages/sportident&#45;testbench&#45;client/src/Terminal.jsx</title>
<path fill="none" stroke="#000000" stroke-width="2" stroke-opacity="0.200000" d="M71.9054,-232.181C79.6753,-242.579 93.767,-259.213 110,-268 118.933,-272.836 129.246,-276.117 139.269,-278.343"/>
<polygon fill="#000000" fill-opacity="0.200000" stroke="#000000" stroke-width="2" stroke-opacity="0.200000" points="138.652,-281.788 149.133,-280.235 139.971,-274.913 138.652,-281.788"/>
</g>
<!-- packages/sportident&#45;testbench&#45;client/src/index.jsx&#45;&gt;packages/sportident&#45;testbench&#45;client/src/WebUsbSiDevicesContext.jsx -->
<g id="edge14" class="edge"><title>packages/sportident&#45;testbench&#45;client/src/index.jsx&#45;&gt;packages/sportident&#45;testbench&#45;client/src/WebUsbSiDevicesContext.jsx</title>
<path fill="none" stroke="#000000" stroke-width="2" stroke-opacity="0.200000" d="M90.7492,-232.115C96.9951,-234.202 103.702,-236.303 110,-238 114.704,-239.268 119.602,-240.485 124.538,-241.64"/>
<polygon fill="#000000" fill-opacity="0.200000" stroke="#000000" stroke-width="2" stroke-opacity="0.200000" points="124.147,-245.139 134.671,-243.918 125.683,-238.31 124.147,-245.139"/>
</g>
<!-- packages/sportident&#45;testbench&#45;client/src/index.jsx&#45;&gt;packages/sportident&#45;testbench&#45;client/src/index.html -->
<g id="edge10" class="edge"><title>packages/sportident&#45;testbench&#45;client/src/index.jsx&#45;&gt;packages/sportident&#45;testbench&#45;client/src/index.html</title>
<path fill="none" stroke="#000000" stroke-width="2" stroke-opacity="0.200000" d="M89.4621,-213.923C92.2143,-212.231 94.8127,-210.266 97,-208 107.091,-197.544 98.7155,-187.155 110,-178 118.905,-170.776 130.378,-166.746 141.601,-164.569"/>
<polygon fill="#000000" fill-opacity="0.200000" stroke="#000000" stroke-width="2" stroke-opacity="0.200000" points="142.383,-167.991 151.755,-163.051 141.348,-161.068 142.383,-167.991"/>
</g>
<!-- packages/sportident&#45;testbench&#45;client/src/styles.css -->
<g id="node15" class="node"><title>packages/sportident&#45;testbench&#45;client/src/styles.css</title>
<g id="a_node15"><a xlink:href="packages/sportident-testbench-client/src/styles.css" xlink:title="styles.css">
<path fill="#ffffcc" stroke="black" d="M209.5,-232C209.5,-232 159.5,-232 159.5,-232 156.5,-232 153.5,-229 153.5,-226 153.5,-226 153.5,-220 153.5,-220 153.5,-217 156.5,-214 159.5,-214 159.5,-214 209.5,-214 209.5,-214 212.5,-214 215.5,-217 215.5,-220 215.5,-220 215.5,-226 215.5,-226 215.5,-229 212.5,-232 209.5,-232"/>
<text text-anchor="middle" x="184.5" y="-220.8" font-family="Helvetica,sans-Serif" font-size="9.00">styles.css</text>
</a>
</g>
</g>
<!-- packages/sportident&#45;testbench&#45;client/src/index.jsx&#45;&gt;packages/sportident&#45;testbench&#45;client/src/styles.css -->
<g id="edge12" class="edge"><title>packages/sportident&#45;testbench&#45;client/src/index.jsx&#45;&gt;packages/sportident&#45;testbench&#45;client/src/styles.css</title>
<path fill="none" stroke="#000000" stroke-width="2" stroke-opacity="0.200000" d="M92.5716,-223C107.56,-223 126.482,-223 143.179,-223"/>
<polygon fill="#000000" fill-opacity="0.200000" stroke="#000000" stroke-width="2" stroke-opacity="0.200000" points="143.233,-226.5 153.233,-223 143.233,-219.5 143.233,-226.5"/>
</g>
<!-- packages/sportident&#45;webusb/src/index.ts -->
<g id="node17" class="node"><title>packages/sportident&#45;webusb/src/index.ts</title>
<g id="a_node17"><a xlink:href="packages/sportident-webusb/src/index.ts" xlink:title="index.ts">
<polygon fill="#ddfeff" stroke="black" points="211.5,-564 210,-566 199.5,-566 198,-564 157.5,-564 157.5,-546 211.5,-546 211.5,-564"/>
<text text-anchor="middle" x="184.5" y="-552.8" font-family="Helvetica,sans-Serif" font-size="9.00">index.ts</text>
</a>
</g>
</g>
<!-- packages/sportident&#45;testbench&#45;client/src/index.jsx&#45;&gt;packages/sportident&#45;webusb/src/index.ts -->
<g id="edge19" class="edge"><title>packages/sportident&#45;testbench&#45;client/src/index.jsx&#45;&gt;packages/sportident&#45;webusb/src/index.ts</title>
<path fill="none" stroke="#000000" stroke-width="2" stroke-opacity="0.200000" d="M66.065,-232.101C68.8283,-274.453 81.9369,-452.161 110,-499 120.752,-516.945 139.622,-531.139 155.55,-540.747"/>
<polygon fill="#000000" fill-opacity="0.200000" stroke="#000000" stroke-width="2" stroke-opacity="0.200000" points="154.086,-543.942 164.504,-545.868 157.561,-537.865 154.086,-543.942"/>
</g>
<!-- packages/sportident/lib/index.js -->
<g id="node18" class="node"><title>packages/sportident/lib/index.js</title>
<g id="a_node18"><a xlink:href="packages/sportident/lib/index.js" xlink:title="index.js">
<polygon fill="#ffffcc" stroke="black" points="211.5,-658 210,-660 199.5,-660 198,-658 157.5,-658 157.5,-640 211.5,-640 211.5,-658"/>
<text text-anchor="middle" x="184.5" y="-646.8" font-family="Helvetica,sans-Serif" font-size="9.00">index.js</text>
</a>
</g>
</g>
<!-- packages/sportident&#45;testbench&#45;client/src/index.jsx&#45;&gt;packages/sportident/lib/index.js -->
<g id="edge20" class="edge"><title>packages/sportident&#45;testbench&#45;client/src/index.jsx&#45;&gt;packages/sportident/lib/index.js</title>
<path fill="none" stroke="#000000" stroke-width="2" stroke-opacity="0.200000" d="M65.6465,-232.002C66.6027,-282.296 73.1294,-528.56 110,-593 120.389,-611.158 139.266,-625.348 155.288,-634.901"/>
<polygon fill="#000000" fill-opacity="0.200000" stroke="#000000" stroke-width="2" stroke-opacity="0.200000" points="153.876,-638.122 164.306,-639.984 157.313,-632.024 153.876,-638.122"/>
</g>
</g>
</svg>
