<?xml version="1.0" encoding="UTF-8" standalone="no"?>
<!DOCTYPE svg PUBLIC "-//W3C//DTD SVG 1.1//EN"
 "http://www.w3.org/Graphics/SVG/1.1/DTD/svg11.dtd">
<!-- Generated by graphviz version 2.38.0 (20140413.2041)
 -->
<!-- Title: dependency&#45;cruiser output Pages: 1 -->
<svg width="634pt" height="390pt"
 viewBox="0.00 0.00 634.00 390.00" xmlns="http://www.w3.org/2000/svg" xmlns:xlink="http://www.w3.org/1999/xlink">
<g id="graph0" class="graph" transform="scale(1 1) rotate(0) translate(4 386)">
<title>dependency&#45;cruiser output</title>
<polygon fill="white" stroke="none" points="-4,4 -4,-386 630,-386 630,4 -4,4"/>
<g id="clust1" class="cluster"><title>cluster_src</title>
<path fill="#ffffff" stroke="black" stroke-width="2" d="M20,-8C20,-8 606,-8 606,-8 612,-8 618,-14 618,-20 618,-20 618,-362 618,-362 618,-368 612,-374 606,-374 606,-374 20,-374 20,-374 14,-374 8,-368 8,-362 8,-362 8,-20 8,-20 8,-14 14,-8 20,-8"/>
<text text-anchor="middle" x="313" y="-362.8" font-family="Helvetica,sans-Serif" font-weight="bold" font-size="9.00">src</text>
</g>
<g id="clust2" class="cluster"><title>cluster_src/SiDevice</title>
<path fill="#ffffff" stroke="black" stroke-width="2" d="M28,-16C28,-16 520,-16 520,-16 526,-16 532,-22 532,-28 532,-28 532,-296 532,-296 532,-302 526,-308 520,-308 520,-308 28,-308 28,-308 22,-308 16,-302 16,-296 16,-296 16,-28 16,-28 16,-22 22,-16 28,-16"/>
<text text-anchor="middle" x="274" y="-296.8" font-family="Helvetica,sans-Serif" font-weight="bold" font-size="9.00">SiDevice</text>
</g>
<g id="clust3" class="cluster"><title>cluster_src/SiDevice/drivers</title>
<path fill="#ffffff" stroke="black" stroke-width="2" d="M140,-24C140,-24 484,-24 484,-24 490,-24 496,-30 496,-36 496,-36 496,-154 496,-154 496,-160 490,-166 484,-166 484,-166 140,-166 140,-166 134,-166 128,-160 128,-154 128,-154 128,-36 128,-36 128,-30 134,-24 140,-24"/>
<text text-anchor="middle" x="312" y="-154.8" font-family="Helvetica,sans-Serif" font-weight="bold" font-size="9.00">drivers</text>
</g>
<g id="clust4" class="cluster"><title>cluster_src/SiDevice/drivers/webUsb</title>
<path fill="#ffffff" stroke="black" stroke-width="2" d="M148,-58C148,-58 476,-58 476,-58 482,-58 488,-64 488,-70 488,-70 488,-128 488,-128 488,-134 482,-140 476,-140 476,-140 148,-140 148,-140 142,-140 136,-134 136,-128 136,-128 136,-70 136,-70 136,-64 142,-58 148,-58"/>
<text text-anchor="middle" x="312" y="-128.8" font-family="Helvetica,sans-Serif" font-weight="bold" font-size="9.00">webUsb</text>
</g>
<g id="clust5" class="cluster"><title>cluster_src/SiDevice/testUtils</title>
<path fill="#ffffff" stroke="black" stroke-width="2" d="M317,-174C317,-174 512,-174 512,-174 518,-174 524,-180 524,-186 524,-186 524,-244 524,-244 524,-250 518,-256 512,-256 512,-256 317,-256 317,-256 311,-256 305,-250 305,-244 305,-244 305,-186 305,-186 305,-180 311,-174 317,-174"/>
<text text-anchor="middle" x="414.5" y="-244.8" font-family="Helvetica,sans-Serif" font-weight="bold" font-size="9.00">testUtils</text>
</g>
<g id="clust6" class="cluster"><title>cluster_src/utils</title>
<path fill="#ffffff" stroke="black" stroke-width="2" d="M552,-256C552,-256 598,-256 598,-256 604,-256 610,-262 610,-268 610,-268 610,-296 610,-296 610,-302 604,-308 598,-308 598,-308 552,-308 552,-308 546,-308 540,-302 540,-296 540,-296 540,-268 540,-268 540,-262 546,-256 552,-256"/>
<text text-anchor="middle" x="575" y="-296.8" font-family="Helvetica,sans-Serif" font-weight="bold" font-size="9.00">utils</text>
</g>
<!-- src/SiDevice/ISiDevice.ts -->
<g id="node1" class="node"><title>src/SiDevice/ISiDevice.ts</title>
<g id="a_node1"><a xlink:href="src/SiDevice/ISiDevice.ts" xlink:title="ISiDevice.ts">
<path fill="#ddfeff" stroke="black" d="M443.5,-282C443.5,-282 385.5,-282 385.5,-282 382.5,-282 379.5,-279 379.5,-276 379.5,-276 379.5,-270 379.5,-270 379.5,-267 382.5,-264 385.5,-264 385.5,-264 443.5,-264 443.5,-264 446.5,-264 449.5,-267 449.5,-270 449.5,-270 449.5,-276 449.5,-276 449.5,-279 446.5,-282 443.5,-282"/>
<text text-anchor="middle" x="414.5" y="-270.8" font-family="Helvetica,sans-Serif" font-size="9.00">ISiDevice.ts</text>
</a>
</g>
</g>
<!-- src/utils/index.ts -->
<g id="node13" class="node"><title>src/utils/index.ts</title>
<g id="a_node13"><a xlink:href="src/utils/index.ts" xlink:title="index.ts">
<path fill="#ddfeff" stroke="black" d="M596,-282C596,-282 554,-282 554,-282 551,-282 548,-279 548,-276 548,-276 548,-270 548,-270 548,-267 551,-264 554,-264 554,-264 596,-264 596,-264 599,-264 602,-267 602,-270 602,-270 602,-276 602,-276 602,-279 599,-282 596,-282"/>
<text text-anchor="middle" x="575" y="-270.8" font-family="Helvetica,sans-Serif" font-size="9.00">index.ts</text>
</a>
</g>
</g>
<!-- src/SiDevice/ISiDevice.ts&#45;&gt;src/utils/index.ts -->
<g id="edge1" class="edge"><title>src/SiDevice/ISiDevice.ts&#45;&gt;src/utils/index.ts</title>
<path fill="none" stroke="#000000" stroke-width="2" stroke-opacity="0.200000" d="M449.502,-273C475.52,-273 511.323,-273 537.858,-273"/>
<polygon fill="#000000" fill-opacity="0.200000" stroke="#000000" stroke-width="2" stroke-opacity="0.200000" points="537.891,-276.5 547.891,-273 537.891,-269.5 537.891,-276.5"/>
</g>
<!-- src/SiDevice/ISiDeviceDriver.ts -->
<g id="node2" class="node"><title>src/SiDevice/ISiDeviceDriver.ts</title>
<g id="a_node2"><a xlink:href="src/SiDevice/ISiDeviceDriver.ts" xlink:title="ISiDeviceDriver.ts">
<path fill="#ddfeff" stroke="black" d="M114,-282C114,-282 30,-282 30,-282 27,-282 24,-279 24,-276 24,-276 24,-270 24,-270 24,-267 27,-264 30,-264 30,-264 114,-264 114,-264 117,-264 120,-267 120,-270 120,-270 120,-276 120,-276 120,-279 117,-282 114,-282"/>
<text text-anchor="middle" x="72" y="-270.8" font-family="Helvetica,sans-Serif" font-size="9.00">ISiDeviceDriver.ts</text>
</a>
</g>
</g>
<!-- src/SiDevice/ISiDeviceDriver.ts&#45;&gt;src/utils/index.ts -->
<g id="edge2" class="edge"><title>src/SiDevice/ISiDeviceDriver.ts&#45;&gt;src/utils/index.ts</title>
<path fill="none" stroke="#000000" stroke-width="2" stroke-opacity="0.200000" d="M77.0882,-282.373C84.5541,-298.148 102.054,-329.501 128,-342 208.883,-380.962 453.735,-385.984 532,-342 550.854,-331.404 562.234,-308.534 568.303,-292.023"/>
<polygon fill="#000000" fill-opacity="0.200000" stroke="#000000" stroke-width="2" stroke-opacity="0.200000" points="571.707,-292.878 571.549,-282.285 565.066,-290.665 571.707,-292.878"/>
</g>
<!-- src/SiDevice/SiDevice.test.ts -->
<g id="node3" class="node"><title>src/SiDevice/SiDevice.test.ts</title>
<g id="a_node3"><a xlink:href="src/SiDevice/SiDevice.test.ts" xlink:title="SiDevice.test.ts">
<path fill="#ddfeff" stroke="black" d="M110.5,-252C110.5,-252 33.5,-252 33.5,-252 30.5,-252 27.5,-249 27.5,-246 27.5,-246 27.5,-240 27.5,-240 27.5,-237 30.5,-234 33.5,-234 33.5,-234 110.5,-234 110.5,-234 113.5,-234 116.5,-237 116.5,-240 116.5,-240 116.5,-246 116.5,-246 116.5,-249 113.5,-252 110.5,-252"/>
<text text-anchor="middle" x="72" y="-240.8" font-family="Helvetica,sans-Serif" font-size="9.00">SiDevice.test.ts</text>
</a>
</g>
</g>
<!-- src/SiDevice/SiDevice.test.ts&#45;&gt;src/SiDevice/ISiDevice.ts -->
<g id="edge4" class="edge"><title>src/SiDevice/SiDevice.test.ts&#45;&gt;src/SiDevice/ISiDevice.ts</title>
<path fill="none" stroke="#000000" stroke-width="2" stroke-opacity="0.200000" d="M116.817,-246.861C181.947,-252.599 303.629,-263.32 369.096,-269.088"/>
<polygon fill="#000000" fill-opacity="0.200000" stroke="#000000" stroke-width="2" stroke-opacity="0.200000" points="368.834,-272.578 379.103,-269.969 369.449,-265.605 368.834,-272.578"/>
</g>
<!-- src/SiDevice/SiDevice.ts -->
<g id="node4" class="node"><title>src/SiDevice/SiDevice.ts</title>
<g id="a_node4"><a xlink:href="src/SiDevice/SiDevice.ts" xlink:title="SiDevice.ts">
<path fill="#ddfeff" stroke="black" d="M248.5,-222C248.5,-222 192.5,-222 192.5,-222 189.5,-222 186.5,-219 186.5,-216 186.5,-216 186.5,-210 186.5,-210 186.5,-207 189.5,-204 192.5,-204 192.5,-204 248.5,-204 248.5,-204 251.5,-204 254.5,-207 254.5,-210 254.5,-210 254.5,-216 254.5,-216 254.5,-219 251.5,-222 248.5,-222"/>
<text text-anchor="middle" x="220.5" y="-210.8" font-family="Helvetica,sans-Serif" font-size="9.00">SiDevice.ts</text>
</a>
</g>
</g>
<!-- src/SiDevice/SiDevice.test.ts&#45;&gt;src/SiDevice/SiDevice.ts -->
<g id="edge5" class="edge"><title>src/SiDevice/SiDevice.test.ts&#45;&gt;src/SiDevice/SiDevice.ts</title>
<path fill="none" stroke="#000000" stroke-width="2" stroke-opacity="0.200000" d="M116.558,-234.08C135.433,-230.215 157.474,-225.702 176.307,-221.845"/>
<polygon fill="#000000" fill-opacity="0.200000" stroke="#000000" stroke-width="2" stroke-opacity="0.200000" points="177.019,-225.272 186.114,-219.837 175.615,-218.414 177.019,-225.272"/>
</g>
<!-- src/testUtils.ts -->
<g id="node12" class="node"><title>src/testUtils.ts</title>
<g id="a_node12"><a xlink:href="src/testUtils.ts" xlink:title="testUtils.ts">
<path fill="#ddfeff" stroke="black" d="M442.5,-334C442.5,-334 386.5,-334 386.5,-334 383.5,-334 380.5,-331 380.5,-328 380.5,-328 380.5,-322 380.5,-322 380.5,-319 383.5,-316 386.5,-316 386.5,-316 442.5,-316 442.5,-316 445.5,-316 448.5,-319 448.5,-322 448.5,-322 448.5,-328 448.5,-328 448.5,-331 445.5,-334 442.5,-334"/>
<text text-anchor="middle" x="414.5" y="-322.8" font-family="Helvetica,sans-Serif" font-size="9.00">testUtils.ts</text>
</a>
</g>
</g>
<!-- src/SiDevice/SiDevice.test.ts&#45;&gt;src/testUtils.ts -->
<g id="edge3" class="edge"><title>src/SiDevice/SiDevice.test.ts&#45;&gt;src/testUtils.ts</title>
<path fill="none" stroke="#000000" stroke-width="2" stroke-opacity="0.200000" d="M101.856,-252.074C154.782,-268.615 265.565,-302.73 305,-311 326.211,-315.448 350.07,-318.713 370.002,-320.965"/>
<polygon fill="#000000" fill-opacity="0.200000" stroke="#000000" stroke-width="2" stroke-opacity="0.200000" points="369.714,-324.454 380.033,-322.051 370.468,-317.495 369.714,-324.454"/>
</g>
<!-- src/SiDevice/drivers/index.ts -->
<g id="node5" class="node"><title>src/SiDevice/drivers/index.ts</title>
<g id="a_node5"><a xlink:href="src/SiDevice/drivers/index.ts" xlink:title="index.ts">
<path fill="#ddfeff" stroke="black" d="M241.5,-50C241.5,-50 199.5,-50 199.5,-50 196.5,-50 193.5,-47 193.5,-44 193.5,-44 193.5,-38 193.5,-38 193.5,-35 196.5,-32 199.5,-32 199.5,-32 241.5,-32 241.5,-32 244.5,-32 247.5,-35 247.5,-38 247.5,-38 247.5,-44 247.5,-44 247.5,-47 244.5,-50 241.5,-50"/>
<text text-anchor="middle" x="220.5" y="-38.8" font-family="Helvetica,sans-Serif" font-size="9.00">index.ts</text>
</a>
</g>
</g>
<!-- src/SiDevice/drivers/webUsb/WebUsbSiDeviceDriver.ts -->
<g id="node8" class="node"><title>src/SiDevice/drivers/webUsb/WebUsbSiDeviceDriver.ts</title>
<g id="a_node8"><a xlink:href="src/SiDevice/drivers/webUsb/WebUsbSiDeviceDriver.ts" xlink:title="WebUsbSiDeviceDriver.ts">
<path fill="#ddfeff" stroke="black" d="M474,-95C474,-95 355,-95 355,-95 352,-95 349,-92 349,-89 349,-89 349,-83 349,-83 349,-80 352,-77 355,-77 355,-77 474,-77 474,-77 477,-77 480,-80 480,-83 480,-83 480,-89 480,-89 480,-92 477,-95 474,-95"/>
<text text-anchor="middle" x="414.5" y="-83.8" font-family="Helvetica,sans-Serif" font-size="9.00">WebUsbSiDeviceDriver.ts</text>
</a>
</g>
</g>
<!-- src/SiDevice/drivers/index.ts&#45;&gt;src/SiDevice/drivers/webUsb/WebUsbSiDeviceDriver.ts -->
<g id="edge6" class="edge"><title>src/SiDevice/drivers/index.ts&#45;&gt;src/SiDevice/drivers/webUsb/WebUsbSiDeviceDriver.ts</title>
<path fill="none" stroke="#000000" stroke-width="2" stroke-opacity="0.200000" d="M247.807,-45.3675C262.362,-47.9119 280.744,-51.3357 297,-55 322.142,-60.6673 350.052,-68.0552 372.25,-74.1971"/>
<polygon fill="#000000" fill-opacity="0.200000" stroke="#000000" stroke-width="2" stroke-opacity="0.200000" points="371.444,-77.6058 382.016,-76.9207 373.324,-70.8631 371.444,-77.6058"/>
</g>
<!-- src/SiDevice/drivers/webUsb/INavigatorWebUsb.ts -->
<g id="node6" class="node"><title>src/SiDevice/drivers/webUsb/INavigatorWebUsb.ts</title>
<g id="a_node6"><a xlink:href="src/SiDevice/drivers/webUsb/INavigatorWebUsb.ts" xlink:title="no&#45;orphans">
<path fill="#ccffcc" stroke="blue" d="M271,-114C271,-114 170,-114 170,-114 167,-114 164,-111 164,-108 164,-108 164,-102 164,-102 164,-99 167,-96 170,-96 170,-96 271,-96 271,-96 274,-96 277,-99 277,-102 277,-102 277,-108 277,-108 277,-111 274,-114 271,-114"/>
<text text-anchor="middle" x="220.5" y="-102.8" font-family="Helvetica,sans-Serif" font-size="9.00" fill="blue">INavigatorWebUsb.ts</text>
</a>
</g>
</g>
<!-- src/SiDevice/drivers/webUsb/WebUsbSiDeviceDriver.test.ts -->
<g id="node7" class="node"><title>src/SiDevice/drivers/webUsb/WebUsbSiDeviceDriver.test.ts</title>
<g id="a_node7"><a xlink:href="src/SiDevice/drivers/webUsb/WebUsbSiDeviceDriver.test.ts" xlink:title="WebUsbSiDeviceDriver.test.ts">
<path fill="#ddfeff" stroke="black" d="M291,-84C291,-84 150,-84 150,-84 147,-84 144,-81 144,-78 144,-78 144,-72 144,-72 144,-69 147,-66 150,-66 150,-66 291,-66 291,-66 294,-66 297,-69 297,-72 297,-72 297,-78 297,-78 297,-81 294,-84 291,-84"/>
<text text-anchor="middle" x="220.5" y="-72.8" font-family="Helvetica,sans-Serif" font-size="9.00">WebUsbSiDeviceDriver.test.ts</text>
</a>
</g>
</g>
<!-- src/SiDevice/drivers/webUsb/WebUsbSiDeviceDriver.test.ts&#45;&gt;src/SiDevice/ISiDevice.ts -->
<g id="edge9" class="edge"><title>src/SiDevice/drivers/webUsb/WebUsbSiDeviceDriver.test.ts&#45;&gt;src/SiDevice/ISiDevice.ts</title>
<path fill="none" stroke="#000000" stroke-width="2" stroke-opacity="0.200000" d="M290.614,-84.1029C292.935,-85.8167 295.081,-87.7723 297,-90 309.268,-104.244 292.256,-245.18 305,-259 320.91,-276.255 346.742,-280.113 369.21,-279.488"/>
<polygon fill="#000000" fill-opacity="0.200000" stroke="#000000" stroke-width="2" stroke-opacity="0.200000" points="369.463,-282.98 379.248,-278.918 369.066,-275.991 369.463,-282.98"/>
</g>
<!-- src/SiDevice/drivers/webUsb/WebUsbSiDeviceDriver.test.ts&#45;&gt;src/SiDevice/drivers/webUsb/WebUsbSiDeviceDriver.ts -->
<g id="edge12" class="edge"><title>src/SiDevice/drivers/webUsb/WebUsbSiDeviceDriver.test.ts&#45;&gt;src/SiDevice/drivers/webUsb/WebUsbSiDeviceDriver.ts</title>
<path fill="none" stroke="#000000" stroke-width="2" stroke-opacity="0.200000" d="M297.108,-79.3317C310.738,-80.1126 324.944,-80.9265 338.556,-81.7063"/>
<polygon fill="#000000" fill-opacity="0.200000" stroke="#000000" stroke-width="2" stroke-opacity="0.200000" points="338.646,-85.2171 348.829,-82.2949 339.046,-78.2286 338.646,-85.2171"/>
</g>
<!-- src/SiDevice/testUtils/testISiDeviceDriver.ts -->
<g id="node10" class="node"><title>src/SiDevice/testUtils/testISiDeviceDriver.ts</title>
<g id="a_node10"><a xlink:href="src/SiDevice/testUtils/testISiDeviceDriver.ts" xlink:title="testISiDeviceDriver.ts">
<path fill="#ddfeff" stroke="black" d="M466,-230C466,-230 363,-230 363,-230 360,-230 357,-227 357,-224 357,-224 357,-218 357,-218 357,-215 360,-212 363,-212 363,-212 466,-212 466,-212 469,-212 472,-215 472,-218 472,-218 472,-224 472,-224 472,-227 469,-230 466,-230"/>
<text text-anchor="middle" x="414.5" y="-218.8" font-family="Helvetica,sans-Serif" font-size="9.00">testISiDeviceDriver.ts</text>
</a>
</g>
</g>
<!-- src/SiDevice/drivers/webUsb/WebUsbSiDeviceDriver.test.ts&#45;&gt;src/SiDevice/testUtils/testISiDeviceDriver.ts -->
<g id="edge10" class="edge"><title>src/SiDevice/drivers/webUsb/WebUsbSiDeviceDriver.test.ts&#45;&gt;src/SiDevice/testUtils/testISiDeviceDriver.ts</title>
<path fill="none" stroke="#000000" stroke-width="2" stroke-opacity="0.200000" d="M290.554,-84.155C292.891,-85.8547 295.057,-87.7931 297,-90 314.072,-109.396 287.366,-187.114 305,-206 315.752,-217.516 330.909,-223.148 346.494,-225.5"/>
<polygon fill="#000000" fill-opacity="0.200000" stroke="#000000" stroke-width="2" stroke-opacity="0.200000" points="346.439,-229.014 356.755,-226.601 347.185,-222.054 346.439,-229.014"/>
</g>
<!-- src/SiDevice/testUtils/testISiDeviceDriverWithAutodetection.ts -->
<g id="node11" class="node"><title>src/SiDevice/testUtils/testISiDeviceDriverWithAutodetection.ts</title>
<g id="a_node11"><a xlink:href="src/SiDevice/testUtils/testISiDeviceDriverWithAutodetection.ts" xlink:title="testISiDeviceDriverWithAutodetection.ts">
<path fill="#ddfeff" stroke="black" d="M510,-200C510,-200 319,-200 319,-200 316,-200 313,-197 313,-194 313,-194 313,-188 313,-188 313,-185 316,-182 319,-182 319,-182 510,-182 510,-182 513,-182 516,-185 516,-188 516,-188 516,-194 516,-194 516,-197 513,-200 510,-200"/>
<text text-anchor="middle" x="414.5" y="-188.8" font-family="Helvetica,sans-Serif" font-size="9.00">testISiDeviceDriverWithAutodetection.ts</text>
</a>
</g>
</g>
<!-- src/SiDevice/drivers/webUsb/WebUsbSiDeviceDriver.test.ts&#45;&gt;src/SiDevice/testUtils/testISiDeviceDriverWithAutodetection.ts -->
<g id="edge11" class="edge"><title>src/SiDevice/drivers/webUsb/WebUsbSiDeviceDriver.test.ts&#45;&gt;src/SiDevice/testUtils/testISiDeviceDriverWithAutodetection.ts</title>
<path fill="none" stroke="#000000" stroke-width="2" stroke-opacity="0.200000" d="M290.006,-84.1336C292.527,-85.8321 294.877,-87.7768 297,-90 313.45,-107.23 290.544,-124.065 305,-143 318.266,-160.376 339.181,-171.595 359.122,-178.775"/>
<polygon fill="#000000" fill-opacity="0.200000" stroke="#000000" stroke-width="2" stroke-opacity="0.200000" points="358.203,-182.157 368.796,-181.984 360.407,-175.513 358.203,-182.157"/>
</g>
<!-- src/SiDevice/drivers/webUsb/WebUsbSiDeviceDriver.test.ts&#45;&gt;src/testUtils.ts -->
<g id="edge7" class="edge"><title>src/SiDevice/drivers/webUsb/WebUsbSiDeviceDriver.test.ts&#45;&gt;src/testUtils.ts</title>
<path fill="none" stroke="#000000" stroke-width="2" stroke-opacity="0.200000" d="M290.645,-84.0762C292.958,-85.7972 295.094,-87.7616 297,-90 312.931,-108.707 288.444,-292.843 305,-311 321.092,-328.647 347.552,-332.336 370.313,-331.521"/>
<polygon fill="#000000" fill-opacity="0.200000" stroke="#000000" stroke-width="2" stroke-opacity="0.200000" points="370.707,-335.003 380.46,-330.864 370.255,-328.018 370.707,-335.003"/>
</g>
<!-- src/SiDevice/drivers/webUsb/WebUsbSiDeviceDriver.test.ts&#45;&gt;src/utils/index.ts -->
<g id="edge8" class="edge"><title>src/SiDevice/drivers/webUsb/WebUsbSiDeviceDriver.test.ts&#45;&gt;src/utils/index.ts</title>
<path fill="none" stroke="#000000" stroke-width="2" stroke-opacity="0.200000" d="M278.055,-65.9623C356.912,-54.7183 494.466,-40.467 532,-71 560.178,-93.9215 570.069,-207.307 572.963,-253.433"/>
<polygon fill="#000000" fill-opacity="0.200000" stroke="#000000" stroke-width="2" stroke-opacity="0.200000" points="569.481,-253.835 573.555,-263.615 576.469,-253.428 569.481,-253.835"/>
</g>
<!-- src/SiDevice/index.ts -->
<g id="node9" class="node"><title>src/SiDevice/index.ts</title>
<g id="a_node9"><a xlink:href="src/SiDevice/index.ts" xlink:title="index.ts">
<path fill="#ddfeff" stroke="black" d="M93,-136C93,-136 51,-136 51,-136 48,-136 45,-133 45,-130 45,-130 45,-124 45,-124 45,-121 48,-118 51,-118 51,-118 93,-118 93,-118 96,-118 99,-121 99,-124 99,-124 99,-130 99,-130 99,-133 96,-136 93,-136"/>
<text text-anchor="middle" x="72" y="-124.8" font-family="Helvetica,sans-Serif" font-size="9.00">index.ts</text>
</a>
</g>
</g>
<!-- src/SiDevice/index.ts&#45;&gt;src/SiDevice/SiDevice.ts -->
<g id="edge14" class="edge"><title>src/SiDevice/index.ts&#45;&gt;src/SiDevice/SiDevice.ts</title>
<path fill="none" stroke="#000000" stroke-width="2" stroke-opacity="0.200000" d="M88.4012,-136.041C113.833,-150.97 164.809,-180.895 195.159,-198.711"/>
<polygon fill="#000000" fill-opacity="0.200000" stroke="#000000" stroke-width="2" stroke-opacity="0.200000" points="193.468,-201.777 203.864,-203.821 197.012,-195.74 193.468,-201.777"/>
</g>
<!-- src/SiDevice/index.ts&#45;&gt;src/SiDevice/drivers/index.ts -->
<g id="edge13" class="edge"><title>src/SiDevice/index.ts&#45;&gt;src/SiDevice/drivers/index.ts</title>
<path fill="none" stroke="#000000" stroke-width="2" stroke-opacity="0.200000" d="M77.1959,-117.651C84.8244,-101.842 102.562,-70.0807 128,-55 144.525,-45.2034 165.568,-41.5032 183.306,-40.3421"/>
<polygon fill="#000000" fill-opacity="0.200000" stroke="#000000" stroke-width="2" stroke-opacity="0.200000" points="183.464,-43.8387 193.31,-39.925 183.173,-36.8448 183.464,-43.8387"/>
</g>
</g>
</svg>
