<?xml version="1.0" encoding="UTF-8" standalone="no"?>
<!DOCTYPE svg PUBLIC "-//W3C//DTD SVG 1.1//EN"
 "http://www.w3.org/Graphics/SVG/1.1/DTD/svg11.dtd">
<!-- Generated by graphviz version 2.38.0 (20140413.2041)
 -->
<!-- Title: dependency&#45;cruiser output Pages: 1 -->
<svg width="479pt" height="354pt"
 viewBox="0.00 0.00 479.00 354.00" xmlns="http://www.w3.org/2000/svg" xmlns:xlink="http://www.w3.org/1999/xlink">
<g id="graph0" class="graph" transform="scale(1 1) rotate(0) translate(4 350)">
<title>dependency&#45;cruiser output</title>
<polygon fill="white" stroke="none" points="-4,4 -4,-350 475,-350 475,4 -4,4"/>
<g id="clust1" class="cluster"><title>cluster_packages</title>
<path fill="#ffffff" stroke="black" stroke-width="2" d="M20,-8C20,-8 451,-8 451,-8 457,-8 463,-14 463,-20 463,-20 463,-326 463,-326 463,-332 457,-338 451,-338 451,-338 20,-338 20,-338 14,-338 8,-332 8,-326 8,-326 8,-20 8,-20 8,-14 14,-8 20,-8"/>
<text text-anchor="middle" x="235.5" y="-326.8" font-family="Helvetica,sans-Serif" font-weight="bold" font-size="9.00">packages</text>
</g>
<g id="clust2" class="cluster"><title>cluster_packages/sportident</title>
<path fill="#ffffff" stroke="black" stroke-width="2" d="M28,-16C28,-16 443,-16 443,-16 449,-16 455,-22 455,-28 455,-28 455,-300 455,-300 455,-306 449,-312 443,-312 443,-312 28,-312 28,-312 22,-312 16,-306 16,-300 16,-300 16,-28 16,-28 16,-22 22,-16 28,-16"/>
<text text-anchor="middle" x="235.5" y="-300.8" font-family="Helvetica,sans-Serif" font-weight="bold" font-size="9.00">sportident</text>
</g>
<g id="clust3" class="cluster"><title>cluster_packages/sportident/src</title>
<path fill="#ffffff" stroke="black" stroke-width="2" d="M36,-24C36,-24 435,-24 435,-24 441,-24 447,-30 447,-36 447,-36 447,-274 447,-274 447,-280 441,-286 435,-286 435,-286 36,-286 36,-286 30,-286 24,-280 24,-274 24,-274 24,-36 24,-36 24,-30 30,-24 36,-24"/>
<text text-anchor="middle" x="235.5" y="-274.8" font-family="Helvetica,sans-Serif" font-weight="bold" font-size="9.00">src</text>
</g>
<g id="clust4" class="cluster"><title>cluster_packages/sportident/src/SiDevice</title>
<path fill="#ffffff" stroke="black" stroke-width="2" d="M44,-32C44,-32 349,-32 349,-32 355,-32 361,-38 361,-44 361,-44 361,-222 361,-222 361,-228 355,-234 349,-234 349,-234 44,-234 44,-234 38,-234 32,-228 32,-222 32,-222 32,-44 32,-44 32,-38 38,-32 44,-32"/>
<text text-anchor="middle" x="196.5" y="-222.8" font-family="Helvetica,sans-Serif" font-weight="bold" font-size="9.00">SiDevice</text>
</g>
<g id="clust5" class="cluster"><title>cluster_packages/sportident/src/SiDevice/testUtils</title>
<path fill="#ffffff" stroke="black" stroke-width="2" d="M61.5,-126C61.5,-126 341,-126 341,-126 347,-126 353,-132 353,-138 353,-138 353,-196 353,-196 353,-202 347,-208 341,-208 341,-208 61.5,-208 61.5,-208 55.5,-208 49.5,-202 49.5,-196 49.5,-196 49.5,-138 49.5,-138 49.5,-132 55.5,-126 61.5,-126"/>
<text text-anchor="middle" x="201.25" y="-196.8" font-family="Helvetica,sans-Serif" font-weight="bold" font-size="9.00">testUtils</text>
</g>
<g id="clust6" class="cluster"><title>cluster_packages/sportident/src/utils</title>
<path fill="#ffffff" stroke="black" stroke-width="2" d="M381,-47C381,-47 427,-47 427,-47 433,-47 439,-53 439,-59 439,-59 439,-87 439,-87 439,-93 433,-99 427,-99 427,-99 381,-99 381,-99 375,-99 369,-93 369,-87 369,-87 369,-59 369,-59 369,-53 375,-47 381,-47"/>
<text text-anchor="middle" x="404" y="-87.8" font-family="Helvetica,sans-Serif" font-weight="bold" font-size="9.00">utils</text>
</g>
<!-- packages/sportident/src/SiDevice/ISiDevice.ts -->
<g id="node1" class="node"><title>packages/sportident/src/SiDevice/ISiDevice.ts</title>
<g id="a_node1"><a xlink:href="packages/sportident/src/SiDevice/ISiDevice.ts" xlink:title="ISiDevice.ts">
<path fill="#ddfeff" stroke="black" d="M272.5,-88C272.5,-88 214.5,-88 214.5,-88 211.5,-88 208.5,-85 208.5,-82 208.5,-82 208.5,-76 208.5,-76 208.5,-73 211.5,-70 214.5,-70 214.5,-70 272.5,-70 272.5,-70 275.5,-70 278.5,-73 278.5,-76 278.5,-76 278.5,-82 278.5,-82 278.5,-85 275.5,-88 272.5,-88"/>
<text text-anchor="middle" x="243.5" y="-76.8" font-family="Helvetica,sans-Serif" font-size="9.00">ISiDevice.ts</text>
</a>
</g>
</g>
<!-- packages/sportident/src/utils/index.ts -->
<g id="node10" class="node"><title>packages/sportident/src/utils/index.ts</title>
<g id="a_node10"><a xlink:href="packages/sportident/src/utils/index.ts" xlink:title="index.ts">
<path fill="#ddfeff" stroke="black" d="M425,-73C425,-73 383,-73 383,-73 380,-73 377,-70 377,-67 377,-67 377,-61 377,-61 377,-58 380,-55 383,-55 383,-55 425,-55 425,-55 428,-55 431,-58 431,-61 431,-61 431,-67 431,-67 431,-70 428,-73 425,-73"/>
<text text-anchor="middle" x="404" y="-61.8" font-family="Helvetica,sans-Serif" font-size="9.00">index.ts</text>
</a>
</g>
</g>
<!-- packages/sportident/src/SiDevice/ISiDevice.ts&#45;&gt;packages/sportident/src/utils/index.ts -->
<g id="edge1" class="edge"><title>packages/sportident/src/SiDevice/ISiDevice.ts&#45;&gt;packages/sportident/src/utils/index.ts</title>
<path fill="none" stroke="#000000" stroke-width="2" stroke-opacity="0.200000" d="M278.502,-75.7821C304.52,-73.3199 340.323,-69.9316 366.858,-67.4204"/>
<polygon fill="#000000" fill-opacity="0.200000" stroke="#000000" stroke-width="2" stroke-opacity="0.200000" points="367.265,-70.8976 376.891,-66.4709 366.605,-63.9287 367.265,-70.8976"/>
</g>
<!-- packages/sportident/src/SiDevice/ISiDeviceDriver.ts -->
<g id="node2" class="node"><title>packages/sportident/src/SiDevice/ISiDeviceDriver.ts</title>
<g id="a_node2"><a xlink:href="packages/sportident/src/SiDevice/ISiDeviceDriver.ts" xlink:title="ISiDeviceDriver.ts">
<path fill="#ddfeff" stroke="black" d="M285.5,-58C285.5,-58 201.5,-58 201.5,-58 198.5,-58 195.5,-55 195.5,-52 195.5,-52 195.5,-46 195.5,-46 195.5,-43 198.5,-40 201.5,-40 201.5,-40 285.5,-40 285.5,-40 288.5,-40 291.5,-43 291.5,-46 291.5,-46 291.5,-52 291.5,-52 291.5,-55 288.5,-58 285.5,-58"/>
<text text-anchor="middle" x="243.5" y="-46.8" font-family="Helvetica,sans-Serif" font-size="9.00">ISiDeviceDriver.ts</text>
</a>
</g>
</g>
<!-- packages/sportident/src/SiDevice/ISiDeviceDriver.ts&#45;&gt;packages/sportident/src/utils/index.ts -->
<g id="edge2" class="edge"><title>packages/sportident/src/SiDevice/ISiDeviceDriver.ts&#45;&gt;packages/sportident/src/utils/index.ts</title>
<path fill="none" stroke="#000000" stroke-width="2" stroke-opacity="0.200000" d="M291.626,-53.4599C315.732,-55.7412 344.611,-58.4742 366.921,-60.5855"/>
<polygon fill="#000000" fill-opacity="0.200000" stroke="#000000" stroke-width="2" stroke-opacity="0.200000" points="366.696,-64.0798 376.981,-61.5376 367.355,-57.1109 366.696,-64.0798"/>
</g>
<!-- packages/sportident/src/SiDevice/SiDevice.test.ts -->
<g id="node3" class="node"><title>packages/sportident/src/SiDevice/SiDevice.test.ts</title>
<g id="a_node3"><a xlink:href="packages/sportident/src/SiDevice/SiDevice.test.ts" xlink:title="SiDevice.test.ts">
<path fill="#ddfeff" stroke="black" d="M123,-118C123,-118 46,-118 46,-118 43,-118 40,-115 40,-112 40,-112 40,-106 40,-106 40,-103 43,-100 46,-100 46,-100 123,-100 123,-100 126,-100 129,-103 129,-106 129,-106 129,-112 129,-112 129,-115 126,-118 123,-118"/>
<text text-anchor="middle" x="84.5" y="-106.8" font-family="Helvetica,sans-Serif" font-size="9.00">SiDevice.test.ts</text>
</a>
</g>
</g>
<!-- packages/sportident/src/SiDevice/SiDevice.test.ts&#45;&gt;packages/sportident/src/SiDevice/ISiDevice.ts -->
<g id="edge4" class="edge"><title>packages/sportident/src/SiDevice/SiDevice.test.ts&#45;&gt;packages/sportident/src/SiDevice/ISiDevice.ts</title>
<path fill="none" stroke="#000000" stroke-width="2" stroke-opacity="0.200000" d="M117.028,-99.9658C125.125,-97.829 133.85,-95.6846 142,-94 160.341,-90.2089 180.754,-86.9825 198.366,-84.5044"/>
<polygon fill="#000000" fill-opacity="0.200000" stroke="#000000" stroke-width="2" stroke-opacity="0.200000" points="198.942,-87.9582 208.375,-83.1332 197.992,-81.0229 198.942,-87.9582"/>
</g>
<!-- packages/sportident/src/SiDevice/SiDevice.ts -->
<g id="node4" class="node"><title>packages/sportident/src/SiDevice/SiDevice.ts</title>
<g id="a_node4"><a xlink:href="packages/sportident/src/SiDevice/SiDevice.ts" xlink:title="SiDevice.ts">
<path fill="#ddfeff" stroke="black" d="M271.5,-118C271.5,-118 215.5,-118 215.5,-118 212.5,-118 209.5,-115 209.5,-112 209.5,-112 209.5,-106 209.5,-106 209.5,-103 212.5,-100 215.5,-100 215.5,-100 271.5,-100 271.5,-100 274.5,-100 277.5,-103 277.5,-106 277.5,-106 277.5,-112 277.5,-112 277.5,-115 274.5,-118 271.5,-118"/>
<text text-anchor="middle" x="243.5" y="-106.8" font-family="Helvetica,sans-Serif" font-size="9.00">SiDevice.ts</text>
</a>
</g>
</g>
<!-- packages/sportident/src/SiDevice/SiDevice.test.ts&#45;&gt;packages/sportident/src/SiDevice/SiDevice.ts -->
<g id="edge5" class="edge"><title>packages/sportident/src/SiDevice/SiDevice.test.ts&#45;&gt;packages/sportident/src/SiDevice/SiDevice.ts</title>
<path fill="none" stroke="#000000" stroke-width="2" stroke-opacity="0.200000" d="M129.233,-109C151.066,-109 177.394,-109 199.171,-109"/>
<polygon fill="#000000" fill-opacity="0.200000" stroke="#000000" stroke-width="2" stroke-opacity="0.200000" points="199.456,-112.5 209.456,-109 199.456,-105.5 199.456,-112.5"/>
</g>
<!-- packages/sportident/src/testUtils.ts -->
<g id="node9" class="node"><title>packages/sportident/src/testUtils.ts</title>
<g id="a_node9"><a xlink:href="packages/sportident/src/testUtils.ts" xlink:title="testUtils.ts">
<path fill="#ddfeff" stroke="black" d="M271.5,-260C271.5,-260 215.5,-260 215.5,-260 212.5,-260 209.5,-257 209.5,-254 209.5,-254 209.5,-248 209.5,-248 209.5,-245 212.5,-242 215.5,-242 215.5,-242 271.5,-242 271.5,-242 274.5,-242 277.5,-245 277.5,-248 277.5,-248 277.5,-254 277.5,-254 277.5,-257 274.5,-260 271.5,-260"/>
<text text-anchor="middle" x="243.5" y="-248.8" font-family="Helvetica,sans-Serif" font-size="9.00">testUtils.ts</text>
</a>
</g>
</g>
<!-- packages/sportident/src/SiDevice/SiDevice.test.ts&#45;&gt;packages/sportident/src/testUtils.ts -->
<g id="edge3" class="edge"><title>packages/sportident/src/SiDevice/SiDevice.test.ts&#45;&gt;packages/sportident/src/testUtils.ts</title>
<path fill="none" stroke="#000000" stroke-width="2" stroke-opacity="0.200000" d="M123.75,-118.223C125.686,-119.602 127.461,-121.184 129,-123 154.562,-153.161 117.47,-179.995 142,-211 156.019,-228.719 179.058,-238.618 199.543,-244.134"/>
<polygon fill="#000000" fill-opacity="0.200000" stroke="#000000" stroke-width="2" stroke-opacity="0.200000" points="198.801,-247.555 209.344,-246.504 200.447,-240.751 198.801,-247.555"/>
</g>
<!-- packages/sportident/src/SiDevice/index.ts -->
<g id="node5" class="node"><title>packages/sportident/src/SiDevice/index.ts</title>
<g id="a_node5"><a xlink:href="packages/sportident/src/SiDevice/index.ts" xlink:title="index.ts">
<path fill="#ddfeff" stroke="black" d="M105.5,-88C105.5,-88 63.5,-88 63.5,-88 60.5,-88 57.5,-85 57.5,-82 57.5,-82 57.5,-76 57.5,-76 57.5,-73 60.5,-70 63.5,-70 63.5,-70 105.5,-70 105.5,-70 108.5,-70 111.5,-73 111.5,-76 111.5,-76 111.5,-82 111.5,-82 111.5,-85 108.5,-88 105.5,-88"/>
<text text-anchor="middle" x="84.5" y="-76.8" font-family="Helvetica,sans-Serif" font-size="9.00">index.ts</text>
</a>
</g>
</g>
<!-- packages/sportident/src/SiDevice/index.ts&#45;&gt;packages/sportident/src/SiDevice/ISiDevice.ts -->
<g id="edge6" class="edge"><title>packages/sportident/src/SiDevice/index.ts&#45;&gt;packages/sportident/src/SiDevice/ISiDevice.ts</title>
<path fill="none" stroke="#000000" stroke-width="2" stroke-opacity="0.200000" d="M111.778,-79C135.309,-79 170.297,-79 198.156,-79"/>
<polygon fill="#000000" fill-opacity="0.200000" stroke="#000000" stroke-width="2" stroke-opacity="0.200000" points="198.445,-82.5001 208.445,-79 198.445,-75.5001 198.445,-82.5001"/>
</g>
<!-- packages/sportident/src/SiDevice/index.ts&#45;&gt;packages/sportident/src/SiDevice/ISiDeviceDriver.ts -->
<g id="edge7" class="edge"><title>packages/sportident/src/SiDevice/index.ts&#45;&gt;packages/sportident/src/SiDevice/ISiDeviceDriver.ts</title>
<path fill="none" stroke="#000000" stroke-width="2" stroke-opacity="0.200000" d="M111.516,-71.4441C121.05,-68.8474 131.962,-66.0749 142,-64 155.902,-61.1265 170.994,-58.5774 185.154,-56.4327"/>
<polygon fill="#000000" fill-opacity="0.200000" stroke="#000000" stroke-width="2" stroke-opacity="0.200000" points="185.887,-59.8627 195.27,-54.9436 184.867,-52.9373 185.887,-59.8627"/>
</g>
<!-- packages/sportident/src/SiDevice/index.ts&#45;&gt;packages/sportident/src/SiDevice/SiDevice.ts -->
<g id="edge8" class="edge"><title>packages/sportident/src/SiDevice/index.ts&#45;&gt;packages/sportident/src/SiDevice/SiDevice.ts</title>
<path fill="none" stroke="#000000" stroke-width="2" stroke-opacity="0.200000" d="M111.516,-86.5559C121.05,-89.1526 131.962,-91.9251 142,-94 160.63,-97.8508 181.397,-101.119 199.195,-103.612"/>
<polygon fill="#000000" fill-opacity="0.200000" stroke="#000000" stroke-width="2" stroke-opacity="0.200000" points="198.912,-107.106 209.293,-104.989 199.858,-100.17 198.912,-107.106"/>
</g>
<!-- packages/sportident/src/SiDevice/testUtils/index.ts -->
<g id="node6" class="node"><title>packages/sportident/src/SiDevice/testUtils/index.ts</title>
<g id="a_node6"><a xlink:href="packages/sportident/src/SiDevice/testUtils/index.ts" xlink:title="index.ts">
<path fill="#ddfeff" stroke="black" d="M105.5,-167C105.5,-167 63.5,-167 63.5,-167 60.5,-167 57.5,-164 57.5,-161 57.5,-161 57.5,-155 57.5,-155 57.5,-152 60.5,-149 63.5,-149 63.5,-149 105.5,-149 105.5,-149 108.5,-149 111.5,-152 111.5,-155 111.5,-155 111.5,-161 111.5,-161 111.5,-164 108.5,-167 105.5,-167"/>
<text text-anchor="middle" x="84.5" y="-155.8" font-family="Helvetica,sans-Serif" font-size="9.00">index.ts</text>
</a>
</g>
</g>
<!-- packages/sportident/src/SiDevice/testUtils/testISiDeviceDriver.ts -->
<g id="node7" class="node"><title>packages/sportident/src/SiDevice/testUtils/testISiDeviceDriver.ts</title>
<g id="a_node7"><a xlink:href="packages/sportident/src/SiDevice/testUtils/testISiDeviceDriver.ts" xlink:title="testISiDeviceDriver.ts">
<path fill="#ddfeff" stroke="black" d="M295,-152C295,-152 192,-152 192,-152 189,-152 186,-149 186,-146 186,-146 186,-140 186,-140 186,-137 189,-134 192,-134 192,-134 295,-134 295,-134 298,-134 301,-137 301,-140 301,-140 301,-146 301,-146 301,-149 298,-152 295,-152"/>
<text text-anchor="middle" x="243.5" y="-140.8" font-family="Helvetica,sans-Serif" font-size="9.00">testISiDeviceDriver.ts</text>
</a>
</g>
</g>
<!-- packages/sportident/src/SiDevice/testUtils/index.ts&#45;&gt;packages/sportident/src/SiDevice/testUtils/testISiDeviceDriver.ts -->
<g id="edge9" class="edge"><title>packages/sportident/src/SiDevice/testUtils/index.ts&#45;&gt;packages/sportident/src/SiDevice/testUtils/testISiDeviceDriver.ts</title>
<path fill="none" stroke="#000000" stroke-width="2" stroke-opacity="0.200000" d="M111.778,-155.489C129.265,-153.819 153.079,-151.543 175.592,-149.393"/>
<polygon fill="#000000" fill-opacity="0.200000" stroke="#000000" stroke-width="2" stroke-opacity="0.200000" points="176.195,-152.851 185.817,-148.416 175.529,-145.883 176.195,-152.851"/>
</g>
<!-- packages/sportident/src/SiDevice/testUtils/testISiDeviceDriverWithAutodetection.ts -->
<g id="node8" class="node"><title>packages/sportident/src/SiDevice/testUtils/testISiDeviceDriverWithAutodetection.ts</title>
<g id="a_node8"><a xlink:href="packages/sportident/src/SiDevice/testUtils/testISiDeviceDriverWithAutodetection.ts" xlink:title="testISiDeviceDriverWithAutodetection.ts">
<path fill="#ddfeff" stroke="black" d="M339,-182C339,-182 148,-182 148,-182 145,-182 142,-179 142,-176 142,-176 142,-170 142,-170 142,-167 145,-164 148,-164 148,-164 339,-164 339,-164 342,-164 345,-167 345,-170 345,-170 345,-176 345,-176 345,-179 342,-182 339,-182"/>
<text text-anchor="middle" x="243.5" y="-170.8" font-family="Helvetica,sans-Serif" font-size="9.00">testISiDeviceDriverWithAutodetection.ts</text>
</a>
</g>
</g>
<!-- packages/sportident/src/SiDevice/testUtils/index.ts&#45;&gt;packages/sportident/src/SiDevice/testUtils/testISiDeviceDriverWithAutodetection.ts -->
<g id="edge10" class="edge"><title>packages/sportident/src/SiDevice/testUtils/index.ts&#45;&gt;packages/sportident/src/SiDevice/testUtils/testISiDeviceDriverWithAutodetection.ts</title>
<path fill="none" stroke="#000000" stroke-width="2" stroke-opacity="0.200000" d="M111.778,-160.511C119.488,-161.247 128.428,-162.101 137.944,-163.011"/>
<polygon fill="#000000" fill-opacity="0.200000" stroke="#000000" stroke-width="2" stroke-opacity="0.200000" points="137.754,-166.508 148.041,-163.975 138.42,-159.54 137.754,-166.508"/>
</g>
</g>
</svg>
