<?xml version="1.0" encoding="UTF-8" standalone="no"?>
<!DOCTYPE svg PUBLIC "-//W3C//DTD SVG 1.1//EN"
 "http://www.w3.org/Graphics/SVG/1.1/DTD/svg11.dtd">
<!-- Generated by graphviz version 2.38.0 (20140413.2041)
 -->
<!-- Title: dependency&#45;cruiser output Pages: 1 -->
<svg width="613pt" height="917pt"
 viewBox="0.00 0.00 613.00 916.62" xmlns="http://www.w3.org/2000/svg" xmlns:xlink="http://www.w3.org/1999/xlink">
<g id="graph0" class="graph" transform="scale(1 1) rotate(0) translate(4 912.625)">
<title>dependency&#45;cruiser output</title>
<polygon fill="white" stroke="none" points="-4,4 -4,-912.625 609,-912.625 609,4 -4,4"/>
<g id="clust1" class="cluster"><title>cluster_node_modules</title>
<path fill="#ffffff" stroke="black" stroke-width="2" d="M370,-480.625C370,-480.625 470,-480.625 470,-480.625 476,-480.625 482,-486.625 482,-492.625 482,-492.625 482,-888.625 482,-888.625 482,-894.625 476,-900.625 470,-900.625 470,-900.625 370,-900.625 370,-900.625 364,-900.625 358,-894.625 358,-888.625 358,-888.625 358,-492.625 358,-492.625 358,-486.625 364,-480.625 370,-480.625"/>
<text text-anchor="middle" x="420" y="-889.425" font-family="Helvetica,sans-Serif" font-weight="bold" font-size="9.00">node_modules</text>
</g>
<g id="clust2" class="cluster"><title>cluster_node_modules/immutable</title>
<path fill="#ffffff" stroke="black" stroke-width="2" d="M378,-548.625C378,-548.625 462,-548.625 462,-548.625 468,-548.625 474,-554.625 474,-560.625 474,-560.625 474,-622.625 474,-622.625 474,-628.625 468,-634.625 462,-634.625 462,-634.625 378,-634.625 378,-634.625 372,-634.625 366,-628.625 366,-622.625 366,-622.625 366,-560.625 366,-560.625 366,-554.625 372,-548.625 378,-548.625"/>
<text text-anchor="middle" x="420" y="-623.425" font-family="Helvetica,sans-Serif" font-weight="bold" font-size="9.00">immutable</text>
</g>
<g id="clust3" class="cluster"><title>cluster_node_modules/immutable/dist</title>
<path fill="#ffffff" stroke="black" stroke-width="2" d="M386,-556.625C386,-556.625 454,-556.625 454,-556.625 460,-556.625 466,-562.625 466,-568.625 466,-568.625 466,-596.625 466,-596.625 466,-602.625 460,-608.625 454,-608.625 454,-608.625 386,-608.625 386,-608.625 380,-608.625 374,-602.625 374,-596.625 374,-596.625 374,-568.625 374,-568.625 374,-562.625 380,-556.625 386,-556.625"/>
<text text-anchor="middle" x="420" y="-597.425" font-family="Helvetica,sans-Serif" font-weight="bold" font-size="9.00">dist</text>
</g>
<g id="clust4" class="cluster"><title>cluster_node_modules/lodash</title>
<path fill="#ffffff" stroke="black" stroke-width="2" d="M394.5,-488.625C394.5,-488.625 445.5,-488.625 445.5,-488.625 451.5,-488.625 457.5,-494.625 457.5,-500.625 457.5,-500.625 457.5,-528.625 457.5,-528.625 457.5,-534.625 451.5,-540.625 445.5,-540.625 445.5,-540.625 394.5,-540.625 394.5,-540.625 388.5,-540.625 382.5,-534.625 382.5,-528.625 382.5,-528.625 382.5,-500.625 382.5,-500.625 382.5,-494.625 388.5,-488.625 394.5,-488.625"/>
<text text-anchor="middle" x="420" y="-529.425" font-family="Helvetica,sans-Serif" font-weight="bold" font-size="9.00">lodash</text>
</g>
<g id="clust5" class="cluster"><title>cluster_node_modules/prop&#45;types</title>
<path fill="#ffffff" stroke="black" stroke-width="2" d="M395,-702.625C395,-702.625 446,-702.625 446,-702.625 452,-702.625 458,-708.625 458,-714.625 458,-714.625 458,-742.625 458,-742.625 458,-748.625 452,-754.625 446,-754.625 446,-754.625 395,-754.625 395,-754.625 389,-754.625 383,-748.625 383,-742.625 383,-742.625 383,-714.625 383,-714.625 383,-708.625 389,-702.625 395,-702.625"/>
<text text-anchor="middle" x="420.5" y="-743.425" font-family="Helvetica,sans-Serif" font-weight="bold" font-size="9.00">prop&#45;types</text>
</g>
<g id="clust6" class="cluster"><title>cluster_node_modules/react&#45;dom</title>
<path fill="#ffffff" stroke="black" stroke-width="2" d="M397,-762.625C397,-762.625 444,-762.625 444,-762.625 450,-762.625 456,-768.625 456,-774.625 456,-774.625 456,-802.625 456,-802.625 456,-808.625 450,-814.625 444,-814.625 444,-814.625 397,-814.625 397,-814.625 391,-814.625 385,-808.625 385,-802.625 385,-802.625 385,-774.625 385,-774.625 385,-768.625 391,-762.625 397,-762.625"/>
<text text-anchor="middle" x="420.5" y="-803.425" font-family="Helvetica,sans-Serif" font-weight="bold" font-size="9.00">react&#45;dom</text>
</g>
<g id="clust7" class="cluster"><title>cluster_node_modules/react</title>
<path fill="#ffffff" stroke="black" stroke-width="2" d="M397,-642.625C397,-642.625 443,-642.625 443,-642.625 449,-642.625 455,-648.625 455,-654.625 455,-654.625 455,-682.625 455,-682.625 455,-688.625 449,-694.625 443,-694.625 443,-694.625 397,-694.625 397,-694.625 391,-694.625 385,-688.625 385,-682.625 385,-682.625 385,-654.625 385,-654.625 385,-648.625 391,-642.625 397,-642.625"/>
<text text-anchor="middle" x="420" y="-683.425" font-family="Helvetica,sans-Serif" font-weight="bold" font-size="9.00">react</text>
</g>
<g id="clust8" class="cluster"><title>cluster_node_modules/ws</title>
<path fill="#ffffff" stroke="black" stroke-width="2" d="M397,-822.625C397,-822.625 443,-822.625 443,-822.625 449,-822.625 455,-828.625 455,-834.625 455,-834.625 455,-862.625 455,-862.625 455,-868.625 449,-874.625 443,-874.625 443,-874.625 397,-874.625 397,-874.625 391,-874.625 385,-868.625 385,-862.625 385,-862.625 385,-834.625 385,-834.625 385,-828.625 391,-822.625 397,-822.625"/>
<text text-anchor="middle" x="420" y="-863.425" font-family="Helvetica,sans-Serif" font-weight="bold" font-size="9.00">ws</text>
</g>
<g id="clust9" class="cluster"><title>cluster_src</title>
<path fill="#ffffff" stroke="black" stroke-width="2" d="M539,-147.625C539,-147.625 585,-147.625 585,-147.625 591,-147.625 597,-153.625 597,-159.625 597,-159.625 597,-187.625 597,-187.625 597,-193.625 591,-199.625 585,-199.625 585,-199.625 539,-199.625 539,-199.625 533,-199.625 527,-193.625 527,-187.625 527,-187.625 527,-159.625 527,-159.625 527,-153.625 533,-147.625 539,-147.625"/>
<text text-anchor="middle" x="562" y="-188.425" font-family="Helvetica,sans-Serif" font-weight="bold" font-size="9.00">src</text>
</g>
<g id="clust10" class="cluster"><title>cluster_testbench</title>
<path fill="#ffffff" stroke="black" stroke-width="2" d="M20,-56.6248C20,-56.6248 507,-56.6248 507,-56.6248 513,-56.6248 519,-62.6248 519,-68.6248 519,-68.6248 519,-460.625 519,-460.625 519,-466.625 513,-472.625 507,-472.625 507,-472.625 20,-472.625 20,-472.625 14,-472.625 8,-466.625 8,-460.625 8,-460.625 8,-68.6248 8,-68.6248 8,-62.6248 14,-56.6248 20,-56.6248"/>
<text text-anchor="middle" x="263.5" y="-461.425" font-family="Helvetica,sans-Serif" font-weight="bold" font-size="9.00">testbench</text>
</g>
<g id="clust11" class="cluster"><title>cluster_testbench/client</title>
<path fill="#ffffff" stroke="black" stroke-width="2" d="M28,-64.6248C28,-64.6248 499,-64.6248 499,-64.6248 505,-64.6248 511,-70.6248 511,-76.6248 511,-76.6248 511,-374.625 511,-374.625 511,-380.625 505,-386.625 499,-386.625 499,-386.625 28,-386.625 28,-386.625 22,-386.625 16,-380.625 16,-374.625 16,-374.625 16,-76.6248 16,-76.6248 16,-70.6248 22,-64.6248 28,-64.6248"/>
<text text-anchor="middle" x="263.5" y="-375.425" font-family="Helvetica,sans-Serif" font-weight="bold" font-size="9.00">client</text>
</g>
<g id="clust12" class="cluster"><title>cluster_testbench/client/commands</title>
<path fill="#ffffff" stroke="black" stroke-width="2" d="M259,-72.6248C259,-72.6248 491,-72.6248 491,-72.6248 497,-72.6248 503,-78.6248 503,-84.6248 503,-84.6248 503,-322.625 503,-322.625 503,-328.625 497,-334.625 491,-334.625 491,-334.625 259,-334.625 259,-334.625 253,-334.625 247,-328.625 247,-322.625 247,-322.625 247,-84.6248 247,-84.6248 247,-78.6248 253,-72.6248 259,-72.6248"/>
<text text-anchor="middle" x="375" y="-323.425" font-family="Helvetica,sans-Serif" font-weight="bold" font-size="9.00">commands</text>
</g>
<g id="clust13" class="cluster"><title>cluster_testbench/server</title>
<path fill="#ffffff" stroke="black" stroke-width="2" d="M28,-394.625C28,-394.625 74,-394.625 74,-394.625 80,-394.625 86,-400.625 86,-406.625 86,-406.625 86,-434.625 86,-434.625 86,-440.625 80,-446.625 74,-446.625 74,-446.625 28,-446.625 28,-446.625 22,-446.625 16,-440.625 16,-434.625 16,-434.625 16,-406.625 16,-406.625 16,-400.625 22,-394.625 28,-394.625"/>
<text text-anchor="middle" x="51" y="-435.425" font-family="Helvetica,sans-Serif" font-weight="bold" font-size="9.00">server</text>
</g>
<!-- net -->
<g id="node1" class="node"><title>net</title>
<path fill="#ffffcc" stroke="grey" d="M187.5,-48.6248C187.5,-48.6248 145.5,-48.6248 145.5,-48.6248 142.5,-48.6248 139.5,-45.6248 139.5,-42.6248 139.5,-42.6248 139.5,-36.6248 139.5,-36.6248 139.5,-33.6248 142.5,-30.6248 145.5,-30.6248 145.5,-30.6248 187.5,-30.6248 187.5,-30.6248 190.5,-30.6248 193.5,-33.6248 193.5,-36.6248 193.5,-36.6248 193.5,-42.6248 193.5,-42.6248 193.5,-45.6248 190.5,-48.6248 187.5,-48.6248"/>
<text text-anchor="middle" x="166.5" y="-37.4248" font-family="Helvetica,sans-Serif" font-size="9.00" fill="grey">net</text>
</g>
<!-- node_modules/immutable/dist/immutable.js -->
<g id="node2" class="node"><title>node_modules/immutable/dist/immutable.js</title>
<g id="a_node2"><a xlink:href="node_modules/immutable/dist/immutable.js" xlink:title="immutable.js">
<polygon fill="#c40b0a" fill-opacity="0.101961" stroke="black" points="458,-582.625 456.5,-584.625 446,-584.625 444.5,-582.625 382,-582.625 382,-564.625 458,-564.625 458,-582.625"/>
<text text-anchor="middle" x="420" y="-571.425" font-family="Helvetica,sans-Serif" font-size="9.00" fill="#c40b0a">immutable.js</text>
</a>
</g>
</g>
<!-- node_modules/lodash/lodash.js -->
<g id="node3" class="node"><title>node_modules/lodash/lodash.js</title>
<g id="a_node3"><a xlink:href="node_modules/lodash/lodash.js" xlink:title="lodash.js">
<polygon fill="#c40b0a" fill-opacity="0.101961" stroke="black" points="449.5,-514.625 448,-516.625 437.5,-516.625 436,-514.625 390.5,-514.625 390.5,-496.625 449.5,-496.625 449.5,-514.625"/>
<text text-anchor="middle" x="420" y="-503.425" font-family="Helvetica,sans-Serif" font-size="9.00" fill="#c40b0a">lodash.js</text>
</a>
</g>
</g>
<!-- node_modules/prop&#45;types/index.js -->
<g id="node4" class="node"><title>node_modules/prop&#45;types/index.js</title>
<g id="a_node4"><a xlink:href="node_modules/prop-types/index.js" xlink:title="index.js">
<polygon fill="#c40b0a" fill-opacity="0.101961" stroke="black" points="447,-728.625 445.5,-730.625 435,-730.625 433.5,-728.625 393,-728.625 393,-710.625 447,-710.625 447,-728.625"/>
<text text-anchor="middle" x="420" y="-717.425" font-family="Helvetica,sans-Serif" font-size="9.00" fill="#c40b0a">index.js</text>
</a>
</g>
</g>
<!-- node_modules/react&#45;dom/index.js -->
<g id="node5" class="node"><title>node_modules/react&#45;dom/index.js</title>
<g id="a_node5"><a xlink:href="node_modules/react-dom/index.js" xlink:title="index.js">
<polygon fill="#c40b0a" fill-opacity="0.101961" stroke="black" points="447,-788.625 445.5,-790.625 435,-790.625 433.5,-788.625 393,-788.625 393,-770.625 447,-770.625 447,-788.625"/>
<text text-anchor="middle" x="420" y="-777.425" font-family="Helvetica,sans-Serif" font-size="9.00" fill="#c40b0a">index.js</text>
</a>
</g>
</g>
<!-- node_modules/react/index.js -->
<g id="node6" class="node"><title>node_modules/react/index.js</title>
<g id="a_node6"><a xlink:href="node_modules/react/index.js" xlink:title="index.js">
<polygon fill="#c40b0a" fill-opacity="0.101961" stroke="black" points="447,-668.625 445.5,-670.625 435,-670.625 433.5,-668.625 393,-668.625 393,-650.625 447,-650.625 447,-668.625"/>
<text text-anchor="middle" x="420" y="-657.425" font-family="Helvetica,sans-Serif" font-size="9.00" fill="#c40b0a">index.js</text>
</a>
</g>
</g>
<!-- node_modules/ws/index.js -->
<g id="node7" class="node"><title>node_modules/ws/index.js</title>
<g id="a_node7"><a xlink:href="node_modules/ws/index.js" xlink:title="index.js">
<polygon fill="#c40b0a" fill-opacity="0.101961" stroke="black" points="447,-848.625 445.5,-850.625 435,-850.625 433.5,-848.625 393,-848.625 393,-830.625 447,-830.625 447,-848.625"/>
<text text-anchor="middle" x="420" y="-837.425" font-family="Helvetica,sans-Serif" font-size="9.00" fill="#c40b0a">index.js</text>
</a>
</g>
</g>
<!-- src/index.js -->
<g id="node8" class="node"><title>src/index.js</title>
<g id="a_node8"><a xlink:href="src/index.js" xlink:title="index.js">
<path fill="#ffffcc" stroke="black" d="M583,-173.625C583,-173.625 541,-173.625 541,-173.625 538,-173.625 535,-170.625 535,-167.625 535,-167.625 535,-161.625 535,-161.625 535,-158.625 538,-155.625 541,-155.625 541,-155.625 583,-155.625 583,-155.625 586,-155.625 589,-158.625 589,-161.625 589,-161.625 589,-167.625 589,-167.625 589,-170.625 586,-173.625 583,-173.625"/>
<text text-anchor="middle" x="562" y="-162.425" font-family="Helvetica,sans-Serif" font-size="9.00">index.js</text>
</a>
</g>
</g>
<!-- testbench/client/MainStationList.js -->
<g id="node9" class="node"><title>testbench/client/MainStationList.js</title>
<g id="a_node9"><a xlink:href="testbench/client/MainStationList.js" xlink:title="MainStationList.js">
<path fill="#ffffcc" stroke="black" d="M209.5,-330.625C209.5,-330.625 123.5,-330.625 123.5,-330.625 120.5,-330.625 117.5,-327.625 117.5,-324.625 117.5,-324.625 117.5,-318.625 117.5,-318.625 117.5,-315.625 120.5,-312.625 123.5,-312.625 123.5,-312.625 209.5,-312.625 209.5,-312.625 212.5,-312.625 215.5,-315.625 215.5,-318.625 215.5,-318.625 215.5,-324.625 215.5,-324.625 215.5,-327.625 212.5,-330.625 209.5,-330.625"/>
<text text-anchor="middle" x="166.5" y="-319.425" font-family="Helvetica,sans-Serif" font-size="9.00">MainStationList.js</text>
</a>
</g>
</g>
<!-- testbench/client/MainStationList.js&#45;&gt;node_modules/prop&#45;types/index.js -->
<g id="edge1" class="edge"><title>testbench/client/MainStationList.js&#45;&gt;node_modules/prop&#45;types/index.js</title>
<path fill="none" stroke="#000000" stroke-width="2" stroke-opacity="0.466667" d="M215.768,-322.773C224.694,-325.251 233.06,-329.522 239,-336.625 258.682,-360.159 233.859,-584.902 247,-612.625 271.696,-664.724 294.45,-669.896 345,-697.625 356.776,-704.084 370.672,-708.858 383.223,-712.276"/>
<polygon fill="#000000" fill-opacity="0.466667" stroke="#000000" stroke-width="2" stroke-opacity="0.466667" points="382.382,-715.673 392.935,-714.732 384.099,-708.887 382.382,-715.673"/>
</g>
<!-- testbench/client/MainStationList.js&#45;&gt;node_modules/react/index.js -->
<g id="edge2" class="edge"><title>testbench/client/MainStationList.js&#45;&gt;node_modules/react/index.js</title>
<path fill="none" stroke="#000000" stroke-width="2" stroke-opacity="0.466667" d="M215.718,-322.816C224.647,-325.29 233.027,-329.55 239,-336.625 253.991,-354.382 235.692,-525.322 247,-545.625 263.362,-575.001 348.217,-622.596 392.315,-645.893"/>
<polygon fill="#000000" fill-opacity="0.466667" stroke="#000000" stroke-width="2" stroke-opacity="0.466667" points="390.839,-649.07 401.321,-650.612 394.088,-642.87 390.839,-649.07"/>
</g>
<!-- testbench/client/SiExternalApplication.js -->
<g id="node10" class="node"><title>testbench/client/SiExternalApplication.js</title>
<g id="a_node10"><a xlink:href="testbench/client/SiExternalApplication.js" xlink:title="SiExternalApplication.js">
<path fill="#ffffcc" stroke="black" d="M476.5,-360.625C476.5,-360.625 363.5,-360.625 363.5,-360.625 360.5,-360.625 357.5,-357.625 357.5,-354.625 357.5,-354.625 357.5,-348.625 357.5,-348.625 357.5,-345.625 360.5,-342.625 363.5,-342.625 363.5,-342.625 476.5,-342.625 476.5,-342.625 479.5,-342.625 482.5,-345.625 482.5,-348.625 482.5,-348.625 482.5,-354.625 482.5,-354.625 482.5,-357.625 479.5,-360.625 476.5,-360.625"/>
<text text-anchor="middle" x="420" y="-349.425" font-family="Helvetica,sans-Serif" font-size="9.00">SiExternalApplication.js</text>
</a>
</g>
</g>
<!-- testbench/client/SiExternalApplication.js&#45;&gt;src/index.js -->
<g id="edge3" class="edge"><title>testbench/client/SiExternalApplication.js&#45;&gt;src/index.js</title>
<path fill="none" stroke="#000000" stroke-width="2" stroke-opacity="0.466667" d="M482.602,-353.848C495.935,-351.519 509.012,-346.695 519,-337.625 541.692,-317.018 554.434,-224.487 559.022,-183.857"/>
<polygon fill="#000000" fill-opacity="0.466667" stroke="#000000" stroke-width="2" stroke-opacity="0.466667" points="562.506,-184.195 560.101,-173.877 555.546,-183.443 562.506,-184.195"/>
</g>
<!-- testbench/client/Terminal.js -->
<g id="node11" class="node"><title>testbench/client/Terminal.js</title>
<g id="a_node11"><a xlink:href="testbench/client/Terminal.js" xlink:title="Terminal.js">
<path fill="#ffffcc" stroke="black" d="M193,-270.625C193,-270.625 140,-270.625 140,-270.625 137,-270.625 134,-267.625 134,-264.625 134,-264.625 134,-258.625 134,-258.625 134,-255.625 137,-252.625 140,-252.625 140,-252.625 193,-252.625 193,-252.625 196,-252.625 199,-255.625 199,-258.625 199,-258.625 199,-264.625 199,-264.625 199,-267.625 196,-270.625 193,-270.625"/>
<text text-anchor="middle" x="166.5" y="-259.425" font-family="Helvetica,sans-Serif" font-size="9.00">Terminal.js</text>
</a>
</g>
</g>
<!-- testbench/client/Terminal.js&#45;&gt;node_modules/prop&#45;types/index.js -->
<g id="edge5" class="edge"><title>testbench/client/Terminal.js&#45;&gt;node_modules/prop&#45;types/index.js</title>
<path fill="none" stroke="#000000" stroke-width="2" stroke-opacity="0.466667" d="M199.05,-260.002C213.444,-261.071 229.386,-265.154 239,-276.625 257.352,-298.521 235.262,-507.578 247,-533.625 268.315,-580.922 307.831,-567.72 332,-613.625 349.6,-647.053 320.156,-669.166 345,-697.625 354.412,-708.406 368.847,-714.021 382.477,-716.904"/>
<polygon fill="#000000" fill-opacity="0.466667" stroke="#000000" stroke-width="2" stroke-opacity="0.466667" points="382.205,-720.407 392.647,-718.616 383.367,-713.504 382.205,-720.407"/>
</g>
<!-- testbench/client/Terminal.js&#45;&gt;node_modules/react/index.js -->
<g id="edge6" class="edge"><title>testbench/client/Terminal.js&#45;&gt;node_modules/react/index.js</title>
<path fill="none" stroke="#000000" stroke-width="2" stroke-opacity="0.466667" d="M199.027,-260.022C213.416,-261.095 229.36,-265.176 239,-276.625 255.041,-295.675 233.872,-479.461 247,-500.625 269.643,-537.127 306.483,-512.07 332,-546.625 349.501,-570.324 328.453,-587.25 345,-611.625 355.256,-626.733 372.015,-638.182 386.992,-646.101"/>
<polygon fill="#000000" fill-opacity="0.466667" stroke="#000000" stroke-width="2" stroke-opacity="0.466667" points="385.5,-649.268 396.013,-650.578 388.611,-642.998 385.5,-649.268"/>
</g>
<!-- testbench/client/commands/index.js -->
<g id="node16" class="node"><title>testbench/client/commands/index.js</title>
<g id="a_node16"><a xlink:href="testbench/client/commands/index.js" xlink:title="index.js">
<path fill="#ffffcc" stroke="black" d="M314.5,-248.625C314.5,-248.625 272.5,-248.625 272.5,-248.625 269.5,-248.625 266.5,-245.625 266.5,-242.625 266.5,-242.625 266.5,-236.625 266.5,-236.625 266.5,-233.625 269.5,-230.625 272.5,-230.625 272.5,-230.625 314.5,-230.625 314.5,-230.625 317.5,-230.625 320.5,-233.625 320.5,-236.625 320.5,-236.625 320.5,-242.625 320.5,-242.625 320.5,-245.625 317.5,-248.625 314.5,-248.625"/>
<text text-anchor="middle" x="293.5" y="-237.425" font-family="Helvetica,sans-Serif" font-size="9.00">index.js</text>
</a>
</g>
</g>
<!-- testbench/client/Terminal.js&#45;&gt;testbench/client/commands/index.js -->
<g id="edge4" class="edge"><title>testbench/client/Terminal.js&#45;&gt;testbench/client/commands/index.js</title>
<path fill="none" stroke="#000000" stroke-width="2" stroke-opacity="0.466667" d="M199.043,-256.073C216.536,-252.994 238.359,-249.154 256.516,-245.958"/>
<polygon fill="#000000" fill-opacity="0.466667" stroke="#000000" stroke-width="2" stroke-opacity="0.466667" points="257.206,-249.39 266.448,-244.21 255.993,-242.496 257.206,-249.39"/>
</g>
<!-- testbench/client/WebUsbSiDevicesContext.js -->
<g id="node12" class="node"><title>testbench/client/WebUsbSiDevicesContext.js</title>
<g id="a_node12"><a xlink:href="testbench/client/WebUsbSiDevicesContext.js" xlink:title="WebUsbSiDevicesContext.js">
<path fill="#ffffcc" stroke="black" d="M233,-240.625C233,-240.625 100,-240.625 100,-240.625 97,-240.625 94,-237.625 94,-234.625 94,-234.625 94,-228.625 94,-228.625 94,-225.625 97,-222.625 100,-222.625 100,-222.625 233,-222.625 233,-222.625 236,-222.625 239,-225.625 239,-228.625 239,-228.625 239,-234.625 239,-234.625 239,-237.625 236,-240.625 233,-240.625"/>
<text text-anchor="middle" x="166.5" y="-229.425" font-family="Helvetica,sans-Serif" font-size="9.00">WebUsbSiDevicesContext.js</text>
</a>
</g>
</g>
<!-- testbench/client/WebUsbSiDevicesContext.js&#45;&gt;node_modules/immutable/dist/immutable.js -->
<g id="edge7" class="edge"><title>testbench/client/WebUsbSiDevicesContext.js&#45;&gt;node_modules/immutable/dist/immutable.js</title>
<path fill="none" stroke="#000000" stroke-width="2" stroke-opacity="0.466667" d="M232.254,-240.644C234.709,-242.366 236.979,-244.348 239,-246.625 252.475,-261.808 240.769,-318.305 247,-337.625 269.695,-407.991 305.271,-411.69 332,-480.625 342.336,-507.281 326.701,-521.658 345,-543.625 352.133,-552.187 362.083,-558.331 372.378,-562.73"/>
<polygon fill="#000000" fill-opacity="0.466667" stroke="#000000" stroke-width="2" stroke-opacity="0.466667" points="371.267,-566.051 381.859,-566.298 373.733,-559.5 371.267,-566.051"/>
</g>
<!-- testbench/client/WebUsbSiDevicesContext.js&#45;&gt;node_modules/react/index.js -->
<g id="edge8" class="edge"><title>testbench/client/WebUsbSiDevicesContext.js&#45;&gt;node_modules/react/index.js</title>
<path fill="none" stroke="#000000" stroke-width="2" stroke-opacity="0.466667" d="M232.674,-240.762C234.981,-242.46 237.109,-244.403 239,-246.625 251.472,-261.279 239.07,-402.092 247,-419.625 268.633,-467.451 308.673,-454.601 332,-501.625 353.877,-545.726 318.996,-569.824 345,-611.625 354.512,-626.915 370.899,-638.286 385.839,-646.113"/>
<polygon fill="#000000" fill-opacity="0.466667" stroke="#000000" stroke-width="2" stroke-opacity="0.466667" points="384.358,-649.284 394.879,-650.531 387.432,-642.995 384.358,-649.284"/>
</g>
<!-- testbench/client/commands/getBackup.js -->
<g id="node13" class="node"><title>testbench/client/commands/getBackup.js</title>
<g id="a_node13"><a xlink:href="testbench/client/commands/getBackup.js" xlink:title="getBackup.js">
<path fill="#ffffcc" stroke="black" d="M326,-278.625C326,-278.625 261,-278.625 261,-278.625 258,-278.625 255,-275.625 255,-272.625 255,-272.625 255,-266.625 255,-266.625 255,-263.625 258,-260.625 261,-260.625 261,-260.625 326,-260.625 326,-260.625 329,-260.625 332,-263.625 332,-266.625 332,-266.625 332,-272.625 332,-272.625 332,-275.625 329,-278.625 326,-278.625"/>
<text text-anchor="middle" x="293.5" y="-267.425" font-family="Helvetica,sans-Serif" font-size="9.00">getBackup.js</text>
</a>
</g>
</g>
<!-- testbench/client/commands/getBackup.js&#45;&gt;src/index.js -->
<g id="edge9" class="edge"><title>testbench/client/commands/getBackup.js&#45;&gt;src/index.js</title>
<path fill="none" stroke="#000000" stroke-width="2" stroke-opacity="0.466667" d="M320.353,-260.585C328.234,-257.92 336.944,-255.066 345,-252.625 421.662,-229.391 449.427,-245.329 519,-205.625 529.753,-199.488 539.76,-189.941 547.306,-181.603"/>
<polygon fill="#000000" fill-opacity="0.466667" stroke="#000000" stroke-width="2" stroke-opacity="0.466667" points="550.113,-183.707 553.97,-173.839 544.801,-179.148 550.113,-183.707"/>
</g>
<!-- testbench/client/commands/getDirectOrRemoteStation.js -->
<g id="node14" class="node"><title>testbench/client/commands/getDirectOrRemoteStation.js</title>
<g id="a_node14"><a xlink:href="testbench/client/commands/getDirectOrRemoteStation.js" xlink:title="getDirectOrRemoteStation.js">
<path fill="#ffffcc" stroke="black" d="M489,-276.625C489,-276.625 351,-276.625 351,-276.625 348,-276.625 345,-273.625 345,-270.625 345,-270.625 345,-264.625 345,-264.625 345,-261.625 348,-258.625 351,-258.625 351,-258.625 489,-258.625 489,-258.625 492,-258.625 495,-261.625 495,-264.625 495,-264.625 495,-270.625 495,-270.625 495,-273.625 492,-276.625 489,-276.625"/>
<text text-anchor="middle" x="420" y="-265.425" font-family="Helvetica,sans-Serif" font-size="9.00">getDirectOrRemoteStation.js</text>
</a>
</g>
</g>
<!-- testbench/client/commands/getBackup.js&#45;&gt;testbench/client/commands/getDirectOrRemoteStation.js -->
<g id="edge10" class="edge"><title>testbench/client/commands/getBackup.js&#45;&gt;testbench/client/commands/getDirectOrRemoteStation.js</title>
<path fill="none" stroke="#000000" stroke-width="2" stroke-opacity="0.466667" d="M332.192,-269.019C332.943,-269.007 333.701,-268.995 334.463,-268.983"/>
<polygon fill="#000000" fill-opacity="0.466667" stroke="#000000" stroke-width="2" stroke-opacity="0.466667" points="334.675,-272.48 344.618,-268.82 334.563,-265.481 334.675,-272.48"/>
</g>
<!-- testbench/client/commands/getInfo.js -->
<g id="node15" class="node"><title>testbench/client/commands/getInfo.js</title>
<g id="a_node15"><a xlink:href="testbench/client/commands/getInfo.js" xlink:title="getInfo.js">
<path fill="#ffffcc" stroke="black" d="M317.5,-308.625C317.5,-308.625 269.5,-308.625 269.5,-308.625 266.5,-308.625 263.5,-305.625 263.5,-302.625 263.5,-302.625 263.5,-296.625 263.5,-296.625 263.5,-293.625 266.5,-290.625 269.5,-290.625 269.5,-290.625 317.5,-290.625 317.5,-290.625 320.5,-290.625 323.5,-293.625 323.5,-296.625 323.5,-296.625 323.5,-302.625 323.5,-302.625 323.5,-305.625 320.5,-308.625 317.5,-308.625"/>
<text text-anchor="middle" x="293.5" y="-297.425" font-family="Helvetica,sans-Serif" font-size="9.00">getInfo.js</text>
</a>
</g>
</g>
<!-- testbench/client/commands/getInfo.js&#45;&gt;node_modules/lodash/lodash.js -->
<g id="edge12" class="edge"><title>testbench/client/commands/getInfo.js&#45;&gt;node_modules/lodash/lodash.js</title>
<path fill="none" stroke="#000000" stroke-width="2" stroke-opacity="0.466667" d="M299.351,-308.663C308.164,-324.99 327.51,-360.42 345,-389.625 366.156,-424.951 392.372,-465.297 407.242,-487.886"/>
<polygon fill="#000000" fill-opacity="0.466667" stroke="#000000" stroke-width="2" stroke-opacity="0.466667" points="404.442,-489.997 412.873,-496.414 410.284,-486.14 404.442,-489.997"/>
</g>
<!-- testbench/client/commands/getInfo.js&#45;&gt;node_modules/react/index.js -->
<g id="edge13" class="edge"><title>testbench/client/commands/getInfo.js&#45;&gt;node_modules/react/index.js</title>
<path fill="none" stroke="#000000" stroke-width="2" stroke-opacity="0.466667" d="M296.804,-308.983C303.286,-335.64 321.871,-414.324 332,-480.625 336.418,-509.543 329.781,-586.641 345,-611.625 354.368,-627.003 370.744,-638.382 385.713,-646.19"/>
<polygon fill="#000000" fill-opacity="0.466667" stroke="#000000" stroke-width="2" stroke-opacity="0.466667" points="384.252,-649.372 394.776,-650.594 387.312,-643.076 384.252,-649.372"/>
</g>
<!-- testbench/client/commands/getInfo.js&#45;&gt;testbench/client/commands/getDirectOrRemoteStation.js -->
<g id="edge11" class="edge"><title>testbench/client/commands/getInfo.js&#45;&gt;testbench/client/commands/getDirectOrRemoteStation.js</title>
<path fill="none" stroke="#000000" stroke-width="2" stroke-opacity="0.466667" d="M315.835,-290.592C324.729,-287.091 335.241,-283.293 345,-280.625 347.147,-280.038 349.336,-279.471 351.553,-278.925"/>
<polygon fill="#000000" fill-opacity="0.466667" stroke="#000000" stroke-width="2" stroke-opacity="0.466667" points="352.439,-282.313 361.4,-276.661 350.87,-275.491 352.439,-282.313"/>
</g>
<!-- testbench/client/commands/pipe.js -->
<g id="node17" class="node"><title>testbench/client/commands/pipe.js</title>
<g id="a_node17"><a xlink:href="testbench/client/commands/pipe.js" xlink:title="pipe.js">
<path fill="#ffffcc" stroke="black" d="M314.5,-218.625C314.5,-218.625 272.5,-218.625 272.5,-218.625 269.5,-218.625 266.5,-215.625 266.5,-212.625 266.5,-212.625 266.5,-206.625 266.5,-206.625 266.5,-203.625 269.5,-200.625 272.5,-200.625 272.5,-200.625 314.5,-200.625 314.5,-200.625 317.5,-200.625 320.5,-203.625 320.5,-206.625 320.5,-206.625 320.5,-212.625 320.5,-212.625 320.5,-215.625 317.5,-218.625 314.5,-218.625"/>
<text text-anchor="middle" x="293.5" y="-207.425" font-family="Helvetica,sans-Serif" font-size="9.00">pipe.js</text>
</a>
</g>
</g>
<!-- testbench/client/commands/pipe.js&#45;&gt;src/index.js -->
<g id="edge14" class="edge"><title>testbench/client/commands/pipe.js&#45;&gt;src/index.js</title>
<path fill="none" stroke="#000000" stroke-width="2" stroke-opacity="0.466667" d="M320.541,-208.892C362.853,-207.171 448.859,-201.456 519,-182.625 523.822,-181.33 528.812,-179.584 533.595,-177.687"/>
<polygon fill="#000000" fill-opacity="0.466667" stroke="#000000" stroke-width="2" stroke-opacity="0.466667" points="535.177,-180.817 543.004,-173.677 532.433,-174.378 535.177,-180.817"/>
</g>
<!-- testbench/client/commands/pipe.js&#45;&gt;testbench/client/SiExternalApplication.js -->
<g id="edge15" class="edge"><title>testbench/client/commands/pipe.js&#45;&gt;testbench/client/SiExternalApplication.js</title>
<path fill="none" stroke="#000000" stroke-width="2" stroke-opacity="0.466667" d="M320.785,-215.882C325.102,-218.002 329.105,-220.836 332,-224.625 362.691,-264.796 310.571,-300.607 345,-337.625 346.224,-338.941 347.531,-340.157 348.907,-341.278"/>
<polygon fill="#000000" fill-opacity="0.466667" stroke="#000000" stroke-width="2" stroke-opacity="0.466667" points="347.147,-344.307 357.463,-346.723 350.905,-338.401 347.147,-344.307"/>
</g>
<!-- testbench/client/commands/send.js -->
<g id="node18" class="node"><title>testbench/client/commands/send.js</title>
<g id="a_node18"><a xlink:href="testbench/client/commands/send.js" xlink:title="send.js">
<path fill="#ffffcc" stroke="black" d="M314.5,-158.625C314.5,-158.625 272.5,-158.625 272.5,-158.625 269.5,-158.625 266.5,-155.625 266.5,-152.625 266.5,-152.625 266.5,-146.625 266.5,-146.625 266.5,-143.625 269.5,-140.625 272.5,-140.625 272.5,-140.625 314.5,-140.625 314.5,-140.625 317.5,-140.625 320.5,-143.625 320.5,-146.625 320.5,-146.625 320.5,-152.625 320.5,-152.625 320.5,-155.625 317.5,-158.625 314.5,-158.625"/>
<text text-anchor="middle" x="293.5" y="-147.425" font-family="Helvetica,sans-Serif" font-size="9.00">send.js</text>
</a>
</g>
</g>
<!-- testbench/client/commands/send.js&#45;&gt;src/index.js -->
<g id="edge16" class="edge"><title>testbench/client/commands/send.js&#45;&gt;src/index.js</title>
<path fill="none" stroke="#000000" stroke-width="2" stroke-opacity="0.466667" d="M320.538,-151.09C368.303,-153.779 470.02,-159.504 524.599,-162.576"/>
<polygon fill="#000000" fill-opacity="0.466667" stroke="#000000" stroke-width="2" stroke-opacity="0.466667" points="524.675,-166.086 534.856,-163.153 525.068,-159.097 524.675,-166.086"/>
</g>
<!-- testbench/client/commands/send.js&#45;&gt;testbench/client/commands/getDirectOrRemoteStation.js -->
<g id="edge17" class="edge"><title>testbench/client/commands/send.js&#45;&gt;testbench/client/commands/getDirectOrRemoteStation.js</title>
<path fill="none" stroke="#000000" stroke-width="2" stroke-opacity="0.466667" d="M320.786,-158.211C324.716,-160.032 328.588,-162.163 332,-164.625 364.888,-188.351 393.108,-227.138 407.915,-249.733"/>
<polygon fill="#000000" fill-opacity="0.466667" stroke="#000000" stroke-width="2" stroke-opacity="0.466667" points="405.079,-251.795 413.414,-258.335 410.976,-248.024 405.079,-251.795"/>
</g>
<!-- testbench/client/commands/setInfo.js -->
<g id="node19" class="node"><title>testbench/client/commands/setInfo.js</title>
<g id="a_node19"><a xlink:href="testbench/client/commands/setInfo.js" xlink:title="setInfo.js">
<path fill="#ffffcc" stroke="black" d="M317,-128.625C317,-128.625 270,-128.625 270,-128.625 267,-128.625 264,-125.625 264,-122.625 264,-122.625 264,-116.625 264,-116.625 264,-113.625 267,-110.625 270,-110.625 270,-110.625 317,-110.625 317,-110.625 320,-110.625 323,-113.625 323,-116.625 323,-116.625 323,-122.625 323,-122.625 323,-125.625 320,-128.625 317,-128.625"/>
<text text-anchor="middle" x="293.5" y="-117.425" font-family="Helvetica,sans-Serif" font-size="9.00">setInfo.js</text>
</a>
</g>
</g>
<!-- testbench/client/commands/setInfo.js&#45;&gt;src/index.js -->
<g id="edge18" class="edge"><title>testbench/client/commands/setInfo.js&#45;&gt;src/index.js</title>
<path fill="none" stroke="#000000" stroke-width="2" stroke-opacity="0.466667" d="M323.206,-121.521C366.246,-124.799 449.832,-132.85 519,-149.625 522.16,-150.391 525.414,-151.31 528.646,-152.31"/>
<polygon fill="#000000" fill-opacity="0.466667" stroke="#000000" stroke-width="2" stroke-opacity="0.466667" points="527.564,-155.639 538.158,-155.486 529.781,-148.999 527.564,-155.639"/>
</g>
<!-- testbench/client/commands/setInfo.js&#45;&gt;testbench/client/commands/getDirectOrRemoteStation.js -->
<g id="edge19" class="edge"><title>testbench/client/commands/setInfo.js&#45;&gt;testbench/client/commands/getDirectOrRemoteStation.js</title>
<path fill="none" stroke="#000000" stroke-width="2" stroke-opacity="0.466667" d="M322.997,-128.818C326.204,-130.478 329.287,-132.404 332,-134.625 370.998,-166.551 398.638,-220.63 411.273,-248.995"/>
<polygon fill="#000000" fill-opacity="0.466667" stroke="#000000" stroke-width="2" stroke-opacity="0.466667" points="408.2,-250.709 415.373,-258.506 414.629,-247.938 408.2,-250.709"/>
</g>
<!-- testbench/client/commands/simulate.js -->
<g id="node20" class="node"><title>testbench/client/commands/simulate.js</title>
<g id="a_node20"><a xlink:href="testbench/client/commands/simulate.js" xlink:title="simulate.js">
<path fill="#ffffcc" stroke="black" d="M321,-188.625C321,-188.625 266,-188.625 266,-188.625 263,-188.625 260,-185.625 260,-182.625 260,-182.625 260,-176.625 260,-176.625 260,-173.625 263,-170.625 266,-170.625 266,-170.625 321,-170.625 321,-170.625 324,-170.625 327,-173.625 327,-176.625 327,-176.625 327,-182.625 327,-182.625 327,-185.625 324,-188.625 321,-188.625"/>
<text text-anchor="middle" x="293.5" y="-177.425" font-family="Helvetica,sans-Serif" font-size="9.00">simulate.js</text>
</a>
</g>
</g>
<!-- testbench/client/commands/simulate.js&#45;&gt;src/index.js -->
<g id="edge20" class="edge"><title>testbench/client/commands/simulate.js&#45;&gt;src/index.js</title>
<path fill="none" stroke="#000000" stroke-width="2" stroke-opacity="0.466667" d="M327.229,-178.059C370.951,-175.926 450.828,-171.881 519,-167.625 520.756,-167.515 522.552,-167.4 524.367,-167.28"/>
<polygon fill="#000000" fill-opacity="0.466667" stroke="#000000" stroke-width="2" stroke-opacity="0.466667" points="525.053,-170.742 534.792,-166.57 524.577,-163.758 525.053,-170.742"/>
</g>
<!-- testbench/client/commands/simulate.js&#45;&gt;testbench/client/SiExternalApplication.js -->
<g id="edge21" class="edge"><title>testbench/client/commands/simulate.js&#45;&gt;testbench/client/SiExternalApplication.js</title>
<path fill="none" stroke="#000000" stroke-width="2" stroke-opacity="0.466667" d="M325.96,-188.838C328.256,-190.464 330.324,-192.376 332,-194.625 351.068,-220.21 323.549,-314.002 345,-337.625 346.209,-338.956 347.501,-340.184 348.864,-341.317"/>
<polygon fill="#000000" fill-opacity="0.466667" stroke="#000000" stroke-width="2" stroke-opacity="0.466667" points="347.066,-344.323 357.364,-346.813 350.867,-338.444 347.066,-344.323"/>
</g>
<!-- testbench/client/commands/test.js -->
<g id="node21" class="node"><title>testbench/client/commands/test.js</title>
<g id="a_node21"><a xlink:href="testbench/client/commands/test.js" xlink:title="test.js">
<path fill="#ffffcc" stroke="black" d="M314.5,-98.6248C314.5,-98.6248 272.5,-98.6248 272.5,-98.6248 269.5,-98.6248 266.5,-95.6248 266.5,-92.6248 266.5,-92.6248 266.5,-86.6248 266.5,-86.6248 266.5,-83.6248 269.5,-80.6248 272.5,-80.6248 272.5,-80.6248 314.5,-80.6248 314.5,-80.6248 317.5,-80.6248 320.5,-83.6248 320.5,-86.6248 320.5,-86.6248 320.5,-92.6248 320.5,-92.6248 320.5,-95.6248 317.5,-98.6248 314.5,-98.6248"/>
<text text-anchor="middle" x="293.5" y="-87.4248" font-family="Helvetica,sans-Serif" font-size="9.00">test.js</text>
</a>
</g>
</g>
<!-- testbench/client/commands/test.js&#45;&gt;src/index.js -->
<g id="edge22" class="edge"><title>testbench/client/commands/test.js&#45;&gt;src/index.js</title>
<path fill="none" stroke="#000000" stroke-width="2" stroke-opacity="0.466667" d="M320.711,-87.8482C364.381,-86.0237 453.675,-87.2005 519,-120.625 531.092,-126.812 541.636,-137.889 549.135,-147.381"/>
<polygon fill="#000000" fill-opacity="0.466667" stroke="#000000" stroke-width="2" stroke-opacity="0.466667" points="546.358,-149.513 555.122,-155.466 551.984,-145.347 546.358,-149.513"/>
</g>
<!-- testbench/client/index.html -->
<g id="node22" class="node"><title>testbench/client/index.html</title>
<g id="a_node22"><a xlink:href="testbench/client/index.html" xlink:title="index.html">
<path fill="#ffffcc" stroke="black" d="M193,-300.625C193,-300.625 140,-300.625 140,-300.625 137,-300.625 134,-297.625 134,-294.625 134,-294.625 134,-288.625 134,-288.625 134,-285.625 137,-282.625 140,-282.625 140,-282.625 193,-282.625 193,-282.625 196,-282.625 199,-285.625 199,-288.625 199,-288.625 199,-294.625 199,-294.625 199,-297.625 196,-300.625 193,-300.625"/>
<text text-anchor="middle" x="166.5" y="-289.425" font-family="Helvetica,sans-Serif" font-size="9.00">index.html</text>
</a>
</g>
</g>
<!-- testbench/client/index.js -->
<g id="node23" class="node"><title>testbench/client/index.js</title>
<g id="a_node23"><a xlink:href="testbench/client/index.js" xlink:title="index.js">
<path fill="#ffffcc" stroke="black" d="M72,-330.625C72,-330.625 30,-330.625 30,-330.625 27,-330.625 24,-327.625 24,-324.625 24,-324.625 24,-318.625 24,-318.625 24,-315.625 27,-312.625 30,-312.625 30,-312.625 72,-312.625 72,-312.625 75,-312.625 78,-315.625 78,-318.625 78,-318.625 78,-324.625 78,-324.625 78,-327.625 75,-330.625 72,-330.625"/>
<text text-anchor="middle" x="51" y="-319.425" font-family="Helvetica,sans-Serif" font-size="9.00">index.js</text>
</a>
</g>
</g>
<!-- testbench/client/index.js&#45;&gt;node_modules/prop&#45;types/index.js -->
<g id="edge29" class="edge"><title>testbench/client/index.js&#45;&gt;node_modules/prop&#45;types/index.js</title>
<path fill="none" stroke="#000000" stroke-width="2" stroke-opacity="0.466667" d="M57.8106,-330.691C65.7659,-343.628 79.7699,-368.397 86,-391.625 92.4068,-415.511 82.3426,-480.814 94,-502.625 160.589,-627.211 219.329,-633.107 345,-697.625 356.737,-703.651 370.389,-708.295 382.748,-711.73"/>
<polygon fill="#000000" fill-opacity="0.466667" stroke="#000000" stroke-width="2" stroke-opacity="0.466667" points="382.196,-715.202 392.755,-714.334 383.959,-708.428 382.196,-715.202"/>
</g>
<!-- testbench/client/index.js&#45;&gt;node_modules/react&#45;dom/index.js -->
<g id="edge31" class="edge"><title>testbench/client/index.js&#45;&gt;node_modules/react&#45;dom/index.js</title>
<path fill="none" stroke="#000000" stroke-width="2" stroke-opacity="0.466667" d="M57.9095,-330.665C65.9824,-343.572 80.1251,-368.305 86,-391.625 91.2432,-412.437 83.6278,-565.835 94,-584.625 155.981,-696.909 311.983,-751.253 382.904,-770.794"/>
<polygon fill="#000000" fill-opacity="0.466667" stroke="#000000" stroke-width="2" stroke-opacity="0.466667" points="382.164,-774.22 392.729,-773.428 383.976,-767.458 382.164,-774.22"/>
</g>
<!-- testbench/client/index.js&#45;&gt;node_modules/react/index.js -->
<g id="edge30" class="edge"><title>testbench/client/index.js&#45;&gt;node_modules/react/index.js</title>
<path fill="none" stroke="#000000" stroke-width="2" stroke-opacity="0.466667" d="M56.2018,-330.635C73.9663,-367.818 146.638,-511.065 247,-589.625 288.073,-621.775 345.929,-641.247 382.95,-651.224"/>
<polygon fill="#000000" fill-opacity="0.466667" stroke="#000000" stroke-width="2" stroke-opacity="0.466667" points="382.249,-654.658 392.808,-653.789 384.012,-647.884 382.249,-654.658"/>
</g>
<!-- testbench/client/index.js&#45;&gt;src/index.js -->
<g id="edge23" class="edge"><title>testbench/client/index.js&#45;&gt;src/index.js</title>
<path fill="none" stroke="#000000" stroke-width="2" stroke-opacity="0.466667" d="M51.7769,-312.547C50.8665,-266.928 49.3758,-63.3826 94,-24.6248 161.029,33.5921 462.42,-25.9894 519,-69.6248 543.077,-88.1932 553.658,-123.513 558.076,-145.463"/>
<polygon fill="#000000" fill-opacity="0.466667" stroke="#000000" stroke-width="2" stroke-opacity="0.466667" points="554.674,-146.326 559.863,-155.563 561.567,-145.106 554.674,-146.326"/>
</g>
<!-- testbench/client/index.js&#45;&gt;testbench/client/MainStationList.js -->
<g id="edge25" class="edge"><title>testbench/client/index.js&#45;&gt;testbench/client/MainStationList.js</title>
<path fill="none" stroke="#000000" stroke-width="2" stroke-opacity="0.466667" d="M78.0392,-321.625C86.7764,-321.625 96.9035,-321.625 107.102,-321.625"/>
<polygon fill="#000000" fill-opacity="0.466667" stroke="#000000" stroke-width="2" stroke-opacity="0.466667" points="107.275,-325.125 117.275,-321.625 107.274,-318.125 107.275,-325.125"/>
</g>
<!-- testbench/client/index.js&#45;&gt;testbench/client/Terminal.js -->
<g id="edge27" class="edge"><title>testbench/client/index.js&#45;&gt;testbench/client/Terminal.js</title>
<path fill="none" stroke="#000000" stroke-width="2" stroke-opacity="0.466667" d="M57.9326,-312.454C65.1599,-302.066 78.3604,-285.441 94,-276.625 103.032,-271.533 113.587,-268.163 123.771,-265.936"/>
<polygon fill="#000000" fill-opacity="0.466667" stroke="#000000" stroke-width="2" stroke-opacity="0.466667" points="124.575,-269.346 133.761,-264.067 123.288,-262.465 124.575,-269.346"/>
</g>
<!-- testbench/client/index.js&#45;&gt;testbench/client/WebUsbSiDevicesContext.js -->
<g id="edge28" class="edge"><title>testbench/client/index.js&#45;&gt;testbench/client/WebUsbSiDevicesContext.js</title>
<path fill="none" stroke="#000000" stroke-width="2" stroke-opacity="0.466667" d="M54.3787,-312.587C59.0816,-296.593 71.1481,-263.411 94,-246.625 94.3833,-246.343 94.7708,-246.067 95.1621,-245.795"/>
<polygon fill="#000000" fill-opacity="0.466667" stroke="#000000" stroke-width="2" stroke-opacity="0.466667" points="96.9547,-248.802 103.885,-240.788 93.4702,-242.731 96.9547,-248.802"/>
</g>
<!-- testbench/client/index.js&#45;&gt;testbench/client/index.html -->
<g id="edge24" class="edge"><title>testbench/client/index.js&#45;&gt;testbench/client/index.html</title>
<path fill="none" stroke="#000000" stroke-width="2" stroke-opacity="0.466667" d="M75.8054,-312.488C81.7012,-310.402 88.0384,-308.306 94,-306.625 103.604,-303.916 114.057,-301.456 123.931,-299.347"/>
<polygon fill="#000000" fill-opacity="0.466667" stroke="#000000" stroke-width="2" stroke-opacity="0.466667" points="124.864,-302.728 133.951,-297.28 123.45,-295.872 124.864,-302.728"/>
</g>
<!-- testbench/client/styles.css -->
<g id="node24" class="node"><title>testbench/client/styles.css</title>
<g id="a_node24"><a xlink:href="testbench/client/styles.css" xlink:title="styles.css">
<path fill="#ffffcc" stroke="black" d="M191.5,-360.625C191.5,-360.625 141.5,-360.625 141.5,-360.625 138.5,-360.625 135.5,-357.625 135.5,-354.625 135.5,-354.625 135.5,-348.625 135.5,-348.625 135.5,-345.625 138.5,-342.625 141.5,-342.625 141.5,-342.625 191.5,-342.625 191.5,-342.625 194.5,-342.625 197.5,-345.625 197.5,-348.625 197.5,-348.625 197.5,-354.625 197.5,-354.625 197.5,-357.625 194.5,-360.625 191.5,-360.625"/>
<text text-anchor="middle" x="166.5" y="-349.425" font-family="Helvetica,sans-Serif" font-size="9.00">styles.css</text>
</a>
</g>
</g>
<!-- testbench/client/index.js&#45;&gt;testbench/client/styles.css -->
<g id="edge26" class="edge"><title>testbench/client/index.js&#45;&gt;testbench/client/styles.css</title>
<path fill="none" stroke="#000000" stroke-width="2" stroke-opacity="0.466667" d="M75.8054,-330.762C81.7012,-332.848 88.0384,-334.943 94,-336.625 104.071,-339.465 115.076,-342.033 125.368,-344.208"/>
<polygon fill="#000000" fill-opacity="0.466667" stroke="#000000" stroke-width="2" stroke-opacity="0.466667" points="124.863,-347.677 135.361,-346.249 126.264,-340.819 124.863,-347.677"/>
</g>
<!-- testbench/server/index.js -->
<g id="node25" class="node"><title>testbench/server/index.js</title>
<g id="a_node25"><a xlink:href="testbench/server/index.js" xlink:title="index.js">
<path fill="#ffffcc" stroke="black" d="M72,-420.625C72,-420.625 30,-420.625 30,-420.625 27,-420.625 24,-417.625 24,-414.625 24,-414.625 24,-408.625 24,-408.625 24,-405.625 27,-402.625 30,-402.625 30,-402.625 72,-402.625 72,-402.625 75,-402.625 78,-405.625 78,-408.625 78,-408.625 78,-414.625 78,-414.625 78,-417.625 75,-420.625 72,-420.625"/>
<text text-anchor="middle" x="51" y="-409.425" font-family="Helvetica,sans-Serif" font-size="9.00">index.js</text>
</a>
</g>
</g>
<!-- testbench/server/index.js&#45;&gt;net -->
<g id="edge32" class="edge"><title>testbench/server/index.js&#45;&gt;net</title>
<path fill="none" stroke="grey" d="M72.804,-402.611C78.0151,-399.31 82.9773,-395.023 86,-389.625 94.9053,-373.721 82.993,-76.1538 94,-61.6248 102.375,-50.5706 116.203,-44.9105 129.478,-42.0678"/>
<polygon fill="grey" stroke="grey" points="130.139,-45.506 139.422,-40.4005 128.981,-38.6023 130.139,-45.506"/>
</g>
<!-- testbench/server/index.js&#45;&gt;node_modules/ws/index.js -->
<g id="edge33" class="edge"><title>testbench/server/index.js&#45;&gt;node_modules/ws/index.js</title>
<path fill="none" stroke="#000000" stroke-width="2" stroke-opacity="0.466667" d="M51.768,-420.653C50.6896,-469.975 48.0024,-706.549 94,-758.625 167.995,-842.398 314.098,-846.035 382.308,-842.647"/>
<polygon fill="#000000" fill-opacity="0.466667" stroke="#000000" stroke-width="2" stroke-opacity="0.466667" points="382.783,-846.125 392.564,-842.054 382.378,-839.137 382.783,-846.125"/>
</g>
</g>
</svg>
