<?xml version="1.0" encoding="UTF-8" standalone="no"?>
<!DOCTYPE svg PUBLIC "-//W3C//DTD SVG 1.1//EN"
 "http://www.w3.org/Graphics/SVG/1.1/DTD/svg11.dtd">
<!-- Generated by graphviz version 2.43.0 (0)
 -->
<!-- Title: dependency&#45;cruiser output Pages: 1 -->
<svg width="710pt" height="670pt"
 viewBox="0.00 0.00 710.00 670.00" xmlns="http://www.w3.org/2000/svg" xmlns:xlink="http://www.w3.org/1999/xlink">
<g id="graph0" class="graph" transform="scale(1 1) rotate(0) translate(4 666)">
<title>dependency&#45;cruiser output</title>
<polygon fill="white" stroke="transparent" points="-4,4 -4,-666 706,-666 706,4 -4,4"/>
<g id="clust1" class="cluster">
<title>cluster_node_modules</title>
<path fill="#ffffff" stroke="black" stroke-width="2" d="M285.5,-8C285.5,-8 384.5,-8 384.5,-8 390.5,-8 396.5,-14 396.5,-20 396.5,-20 396.5,-236 396.5,-236 396.5,-242 390.5,-248 384.5,-248 384.5,-248 285.5,-248 285.5,-248 279.5,-248 273.5,-242 273.5,-236 273.5,-236 273.5,-20 273.5,-20 273.5,-14 279.5,-8 285.5,-8"/>
<text text-anchor="middle" x="335" y="-236.8" font-family="Helvetica,sans-Serif" font-weight="bold" font-size="9.00">node_modules</text>
</g>
<g id="clust2" class="cluster">
<title>cluster_node_modules/immutable</title>
<path fill="#ffffff" stroke="black" stroke-width="2" d="M293.5,-136C293.5,-136 376.5,-136 376.5,-136 382.5,-136 388.5,-142 388.5,-148 388.5,-148 388.5,-210 388.5,-210 388.5,-216 382.5,-222 376.5,-222 376.5,-222 293.5,-222 293.5,-222 287.5,-222 281.5,-216 281.5,-210 281.5,-210 281.5,-148 281.5,-148 281.5,-142 287.5,-136 293.5,-136"/>
<text text-anchor="middle" x="335" y="-210.8" font-family="Helvetica,sans-Serif" font-weight="bold" font-size="9.00">immutable</text>
</g>
<g id="clust3" class="cluster">
<title>cluster_node_modules/immutable/dist</title>
<path fill="#ffffff" stroke="black" stroke-width="2" d="M301.5,-144C301.5,-144 368.5,-144 368.5,-144 374.5,-144 380.5,-150 380.5,-156 380.5,-156 380.5,-184 380.5,-184 380.5,-190 374.5,-196 368.5,-196 368.5,-196 301.5,-196 301.5,-196 295.5,-196 289.5,-190 289.5,-184 289.5,-184 289.5,-156 289.5,-156 289.5,-150 295.5,-144 301.5,-144"/>
<text text-anchor="middle" x="335" y="-184.8" font-family="Helvetica,sans-Serif" font-weight="bold" font-size="9.00">dist</text>
</g>
<g id="clust4" class="cluster">
<title>cluster_node_modules/react&#45;dom</title>
<path fill="#ffffff" stroke="black" stroke-width="2" d="M312,-16C312,-16 358,-16 358,-16 364,-16 370,-22 370,-28 370,-28 370,-56 370,-56 370,-62 364,-68 358,-68 358,-68 312,-68 312,-68 306,-68 300,-62 300,-56 300,-56 300,-28 300,-28 300,-22 306,-16 312,-16"/>
<text text-anchor="middle" x="335" y="-56.8" font-family="Helvetica,sans-Serif" font-weight="bold" font-size="9.00">react&#45;dom</text>
</g>
<g id="clust5" class="cluster">
<title>cluster_node_modules/react</title>
<path fill="#ffffff" stroke="black" stroke-width="2" d="M312,-76C312,-76 358,-76 358,-76 364,-76 370,-82 370,-88 370,-88 370,-116 370,-116 370,-122 364,-128 358,-128 358,-128 312,-128 312,-128 306,-128 300,-122 300,-116 300,-116 300,-88 300,-88 300,-82 306,-76 312,-76"/>
<text text-anchor="middle" x="335" y="-116.8" font-family="Helvetica,sans-Serif" font-weight="bold" font-size="9.00">react</text>
</g>
<g id="clust6" class="cluster">
<title>cluster_packages</title>
<path fill="#ffffff" stroke="black" stroke-width="2" d="M20,-256C20,-256 682,-256 682,-256 688,-256 694,-262 694,-268 694,-268 694,-642 694,-642 694,-648 688,-654 682,-654 682,-654 20,-654 20,-654 14,-654 8,-648 8,-642 8,-642 8,-268 8,-268 8,-262 14,-256 20,-256"/>
<text text-anchor="middle" x="351" y="-642.8" font-family="Helvetica,sans-Serif" font-weight="bold" font-size="9.00">packages</text>
</g>
<g id="clust7" class="cluster">
<title>cluster_packages/sportident&#45;react</title>
<path fill="#ffffff" stroke="black" stroke-width="2" d="M131.5,-448C131.5,-448 208.5,-448 208.5,-448 214.5,-448 220.5,-454 220.5,-460 220.5,-460 220.5,-522 220.5,-522 220.5,-528 214.5,-534 208.5,-534 208.5,-534 131.5,-534 131.5,-534 125.5,-534 119.5,-528 119.5,-522 119.5,-522 119.5,-460 119.5,-460 119.5,-454 125.5,-448 131.5,-448"/>
<text text-anchor="middle" x="170" y="-522.8" font-family="Helvetica,sans-Serif" font-weight="bold" font-size="9.00">sportident&#45;react</text>
</g>
<g id="clust8" class="cluster">
<title>cluster_packages/sportident&#45;react/lib</title>
<path fill="#ffffff" stroke="black" stroke-width="2" d="M146.5,-456C146.5,-456 192.5,-456 192.5,-456 198.5,-456 204.5,-462 204.5,-468 204.5,-468 204.5,-496 204.5,-496 204.5,-502 198.5,-508 192.5,-508 192.5,-508 146.5,-508 146.5,-508 140.5,-508 134.5,-502 134.5,-496 134.5,-496 134.5,-468 134.5,-468 134.5,-462 140.5,-456 146.5,-456"/>
<text text-anchor="middle" x="169.5" y="-496.8" font-family="Helvetica,sans-Serif" font-weight="bold" font-size="9.00">lib</text>
</g>
<g id="clust9" class="cluster">
<title>cluster_packages/sportident&#45;testbench&#45;client</title>
<path fill="#ffffff" stroke="black" stroke-width="2" d="M28,-264C28,-264 564,-264 564,-264 570,-264 576,-270 576,-276 576,-276 576,-428 576,-428 576,-434 570,-440 564,-440 564,-440 28,-440 28,-440 22,-440 16,-434 16,-428 16,-428 16,-276 16,-276 16,-270 22,-264 28,-264"/>
<text text-anchor="middle" x="296" y="-428.8" font-family="Helvetica,sans-Serif" font-weight="bold" font-size="9.00">sportident&#45;testbench&#45;client</text>
</g>
<g id="clust10" class="cluster">
<title>cluster_packages/sportident&#45;testbench&#45;client/src</title>
<path fill="#ffffff" stroke="black" stroke-width="2" d="M36,-272C36,-272 556,-272 556,-272 562,-272 568,-278 568,-284 568,-284 568,-402 568,-402 568,-408 562,-414 556,-414 556,-414 36,-414 36,-414 30,-414 24,-408 24,-402 24,-402 24,-284 24,-284 24,-278 30,-272 36,-272"/>
<text text-anchor="middle" x="296" y="-402.8" font-family="Helvetica,sans-Serif" font-weight="bold" font-size="9.00">src</text>
</g>
<g id="clust11" class="cluster">
<title>cluster_packages/sportident&#45;testbench&#45;shell</title>
<path fill="#ffffff" stroke="black" stroke-width="2" d="M270,-448C270,-448 400,-448 400,-448 406,-448 412,-454 412,-460 412,-460 412,-522 412,-522 412,-528 406,-534 400,-534 400,-534 270,-534 270,-534 264,-534 258,-528 258,-522 258,-522 258,-460 258,-460 258,-454 264,-448 270,-448"/>
<text text-anchor="middle" x="335" y="-522.8" font-family="Helvetica,sans-Serif" font-weight="bold" font-size="9.00">sportident&#45;testbench&#45;shell</text>
</g>
<g id="clust12" class="cluster">
<title>cluster_packages/sportident&#45;testbench&#45;shell/lib</title>
<path fill="#ffffff" stroke="black" stroke-width="2" d="M312,-456C312,-456 358,-456 358,-456 364,-456 370,-462 370,-468 370,-468 370,-496 370,-496 370,-502 364,-508 358,-508 358,-508 312,-508 312,-508 306,-508 300,-502 300,-496 300,-496 300,-468 300,-468 300,-462 306,-456 312,-456"/>
<text text-anchor="middle" x="335" y="-496.8" font-family="Helvetica,sans-Serif" font-weight="bold" font-size="9.00">lib</text>
</g>
<g id="clust13" class="cluster">
<title>cluster_packages/sportident&#45;webusb</title>
<path fill="#ffffff" stroke="black" stroke-width="2" d="M124.5,-542C124.5,-542 214.5,-542 214.5,-542 220.5,-542 226.5,-548 226.5,-554 226.5,-554 226.5,-616 226.5,-616 226.5,-622 220.5,-628 214.5,-628 214.5,-628 124.5,-628 124.5,-628 118.5,-628 112.5,-622 112.5,-616 112.5,-616 112.5,-554 112.5,-554 112.5,-548 118.5,-542 124.5,-542"/>
<text text-anchor="middle" x="169.5" y="-616.8" font-family="Helvetica,sans-Serif" font-weight="bold" font-size="9.00">sportident&#45;webusb</text>
</g>
<g id="clust14" class="cluster">
<title>cluster_packages/sportident&#45;webusb/lib</title>
<path fill="#ffffff" stroke="black" stroke-width="2" d="M146.5,-550C146.5,-550 192.5,-550 192.5,-550 198.5,-550 204.5,-556 204.5,-562 204.5,-562 204.5,-590 204.5,-590 204.5,-596 198.5,-602 192.5,-602 192.5,-602 146.5,-602 146.5,-602 140.5,-602 134.5,-596 134.5,-590 134.5,-590 134.5,-562 134.5,-562 134.5,-556 140.5,-550 146.5,-550"/>
<text text-anchor="middle" x="169.5" y="-590.8" font-family="Helvetica,sans-Serif" font-weight="bold" font-size="9.00">lib</text>
</g>
<g id="clust15" class="cluster">
<title>cluster_packages/sportident</title>
<path fill="#ffffff" stroke="black" stroke-width="2" d="M596,-316C596,-316 674,-316 674,-316 680,-316 686,-322 686,-328 686,-328 686,-424 686,-424 686,-430 680,-436 674,-436 674,-436 596,-436 596,-436 590,-436 584,-430 584,-424 584,-424 584,-328 584,-328 584,-322 590,-316 596,-316"/>
<text text-anchor="middle" x="635" y="-424.8" font-family="Helvetica,sans-Serif" font-weight="bold" font-size="9.00">sportident</text>
</g>
<g id="clust16" class="cluster">
<title>cluster_packages/sportident/lib</title>
<path fill="#ffffff" stroke="black" stroke-width="2" d="M604,-324C604,-324 666,-324 666,-324 672,-324 678,-330 678,-336 678,-336 678,-398 678,-398 678,-404 672,-410 666,-410 666,-410 604,-410 604,-410 598,-410 592,-404 592,-398 592,-398 592,-336 592,-336 592,-330 598,-324 604,-324"/>
<text text-anchor="middle" x="635" y="-398.8" font-family="Helvetica,sans-Serif" font-weight="bold" font-size="9.00">lib</text>
</g>
<g id="clust17" class="cluster">
<title>cluster_packages/sportident/lib/utils</title>
<path fill="#ffffff" stroke="black" stroke-width="2" d="M612,-332C612,-332 658,-332 658,-332 664,-332 670,-338 670,-344 670,-344 670,-372 670,-372 670,-378 664,-384 658,-384 658,-384 612,-384 612,-384 606,-384 600,-378 600,-372 600,-372 600,-344 600,-344 600,-338 606,-332 612,-332"/>
<text text-anchor="middle" x="635" y="-372.8" font-family="Helvetica,sans-Serif" font-weight="bold" font-size="9.00">utils</text>
</g>
<!-- node_modules/immutable/dist/immutable.js -->
<g id="node1" class="node">
<title>node_modules/immutable/dist/immutable.js</title>
<g id="a_node1"><a xlink:href="node_modules/immutable/dist/immutable.js" xlink:title="immutable.js">
<polygon fill="#c40b0a" fill-opacity="0.101961" stroke="black" points="372.5,-170 371,-172 360.5,-172 359,-170 297.5,-170 297.5,-152 372.5,-152 372.5,-170"/>
<text text-anchor="start" x="305.5" y="-158.8" font-family="Helvetica,sans-Serif" font-size="9.00" fill="#c40b0a">immutable.js</text>
</a>
</g>
</g>
<!-- node_modules/react&#45;dom/index.js -->
<g id="node2" class="node">
<title>node_modules/react&#45;dom/index.js</title>
<g id="a_node2"><a xlink:href="node_modules/react-dom/index.js" xlink:title="index.js">
<polygon fill="#c40b0a" fill-opacity="0.101961" stroke="black" points="362,-42 360.5,-44 350,-44 348.5,-42 308,-42 308,-24 362,-24 362,-42"/>
<text text-anchor="start" x="317.5" y="-30.8" font-family="Helvetica,sans-Serif" font-size="9.00" fill="#c40b0a">index.js</text>
</a>
</g>
</g>
<!-- node_modules/react/index.js -->
<g id="node3" class="node">
<title>node_modules/react/index.js</title>
<g id="a_node3"><a xlink:href="node_modules/react/index.js" xlink:title="index.js">
<polygon fill="#c40b0a" fill-opacity="0.101961" stroke="black" points="362,-102 360.5,-104 350,-104 348.5,-102 308,-102 308,-84 362,-84 362,-102"/>
<text text-anchor="start" x="317.5" y="-90.8" font-family="Helvetica,sans-Serif" font-size="9.00" fill="#c40b0a">index.js</text>
</a>
</g>
</g>
<!-- packages/sportident&#45;react/lib/index.js -->
<g id="node4" class="node">
<title>packages/sportident&#45;react/lib/index.js</title>
<g id="a_node4"><a xlink:href="packages/sportident-react/lib/index.js" xlink:title="index.js">
<polygon fill="#ffffcc" stroke="black" points="196.5,-482 195,-484 184.5,-484 183,-482 142.5,-482 142.5,-464 196.5,-464 196.5,-482"/>
<text text-anchor="start" x="152" y="-470.8" font-family="Helvetica,sans-Serif" font-size="9.00">index.js</text>
</a>
</g>
</g>
<!-- packages/sportident&#45;testbench&#45;client/src/ISiExternalApplication.ts -->
<g id="node5" class="node">
<title>packages/sportident&#45;testbench&#45;client/src/ISiExternalApplication.ts</title>
<g id="a_node5"><a xlink:href="packages/sportident-testbench-client/src/ISiExternalApplication.ts" xlink:title="ISiExternalApplication.ts">
<path fill="#ddfeff" stroke="black" d="M554,-347C554,-347 439,-347 439,-347 436,-347 433,-344 433,-341 433,-341 433,-335 433,-335 433,-332 436,-329 439,-329 439,-329 554,-329 554,-329 557,-329 560,-332 560,-335 560,-335 560,-341 560,-341 560,-344 557,-347 554,-347"/>
<text text-anchor="start" x="441" y="-335.8" font-family="Helvetica,sans-Serif" font-size="9.00">ISiExternalApplication.ts</text>
</a>
</g>
</g>
<!-- packages/sportident/lib/utils/index.js -->
<g id="node6" class="node">
<title>packages/sportident/lib/utils/index.js</title>
<g id="a_node6"><a xlink:href="packages/sportident/lib/utils/index.js" xlink:title="index.js">
<polygon fill="#ffffcc" stroke="black" points="662,-358 660.5,-360 650,-360 648.5,-358 608,-358 608,-340 662,-340 662,-358"/>
<text text-anchor="start" x="617.5" y="-346.8" font-family="Helvetica,sans-Serif" font-size="9.00">index.js</text>
</a>
</g>
</g>
<!-- packages/sportident&#45;testbench&#45;client/src/ISiExternalApplication.ts&#45;&gt;packages/sportident/lib/utils/index.js -->
<g id="edge1" class="edge">
<title>packages/sportident&#45;testbench&#45;client/src/ISiExternalApplication.ts&#45;&gt;packages/sportident/lib/utils/index.js</title>
<path fill="none" stroke="#000000" stroke-opacity="0.200000" d="M560.16,-343.05C574.48,-344.2 589.14,-345.38 601.57,-346.39"/>
<polygon fill="#000000" fill-opacity="0.200000" stroke="#000000" stroke-opacity="0.200000" points="601.71,-348.5 607.86,-346.89 602.05,-344.32 601.71,-348.5"/>
</g>
<!-- packages/sportident&#45;testbench&#45;client/src/MainStationList.tsx -->
<g id="node7" class="node">
<title>packages/sportident&#45;testbench&#45;client/src/MainStationList.tsx</title>
<g id="a_node7"><a xlink:href="packages/sportident-testbench-client/src/MainStationList.tsx" xlink:title="MainStationList.tsx">
<path fill="#bbfeff" stroke="black" d="M214.5,-298C214.5,-298 124.5,-298 124.5,-298 121.5,-298 118.5,-295 118.5,-292 118.5,-292 118.5,-286 118.5,-286 118.5,-283 121.5,-280 124.5,-280 124.5,-280 214.5,-280 214.5,-280 217.5,-280 220.5,-283 220.5,-286 220.5,-286 220.5,-292 220.5,-292 220.5,-295 217.5,-298 214.5,-298"/>
<text text-anchor="start" x="126.5" y="-286.8" font-family="Helvetica,sans-Serif" font-size="9.00">MainStationList.tsx</text>
</a>
</g>
</g>
<!-- packages/sportident&#45;testbench&#45;client/src/MainStationList.tsx&#45;&gt;node_modules/react/index.js -->
<g id="edge2" class="edge">
<title>packages/sportident&#45;testbench&#45;client/src/MainStationList.tsx&#45;&gt;node_modules/react/index.js</title>
<path fill="none" stroke="#000000" stroke-opacity="0.200000" d="M175.65,-279.71C192.7,-249.08 246.82,-152.51 258,-141 272.62,-125.94 292.85,-113.46 308.77,-105"/>
<polygon fill="#000000" fill-opacity="0.200000" stroke="#000000" stroke-opacity="0.200000" points="310.06,-106.7 314.42,-102.07 308.12,-102.97 310.06,-106.7"/>
</g>
<!-- packages/sportident&#45;testbench&#45;client/src/SiDevicesContext.tsx -->
<g id="node8" class="node">
<title>packages/sportident&#45;testbench&#45;client/src/SiDevicesContext.tsx</title>
<g id="a_node8"><a xlink:href="packages/sportident-testbench-client/src/SiDevicesContext.tsx" xlink:title="SiDevicesContext.tsx">
<path fill="#bbfeff" stroke="black" d="M219,-328C219,-328 120,-328 120,-328 117,-328 114,-325 114,-322 114,-322 114,-316 114,-316 114,-313 117,-310 120,-310 120,-310 219,-310 219,-310 222,-310 225,-313 225,-316 225,-316 225,-322 225,-322 225,-325 222,-328 219,-328"/>
<text text-anchor="start" x="122" y="-316.8" font-family="Helvetica,sans-Serif" font-size="9.00">SiDevicesContext.tsx</text>
</a>
</g>
</g>
<!-- packages/sportident&#45;testbench&#45;client/src/SiDevicesContext.tsx&#45;&gt;node_modules/immutable/dist/immutable.js -->
<g id="edge3" class="edge">
<title>packages/sportident&#45;testbench&#45;client/src/SiDevicesContext.tsx&#45;&gt;node_modules/immutable/dist/immutable.js</title>
<path fill="none" stroke="#000000" stroke-opacity="0.200000" d="M215.41,-309.92C219.32,-308.26 223.08,-306.31 226.5,-304 239.63,-295.13 300.15,-209.52 324.15,-175.16"/>
<polygon fill="#000000" fill-opacity="0.200000" stroke="#000000" stroke-opacity="0.200000" points="325.97,-176.23 327.68,-170.11 322.52,-173.83 325.97,-176.23"/>
</g>
<!-- packages/sportident&#45;testbench&#45;client/src/SiDevicesContext.tsx&#45;&gt;node_modules/react/index.js -->
<g id="edge4" class="edge">
<title>packages/sportident&#45;testbench&#45;client/src/SiDevicesContext.tsx&#45;&gt;node_modules/react/index.js</title>
<path fill="none" stroke="#000000" stroke-opacity="0.200000" d="M219.31,-309.9C221.94,-308.23 224.37,-306.28 226.5,-304 276.79,-250.01 216.39,-201.93 258,-141 269.21,-124.59 288.08,-112.62 304.21,-104.75"/>
<polygon fill="#000000" fill-opacity="0.200000" stroke="#000000" stroke-opacity="0.200000" points="305.46,-106.48 310.01,-102.03 303.68,-102.67 305.46,-106.48"/>
</g>
<!-- packages/sportident&#45;testbench&#45;client/src/SiExternalApplication.ts -->
<g id="node9" class="node">
<title>packages/sportident&#45;testbench&#45;client/src/SiExternalApplication.ts</title>
<g id="a_node9"><a xlink:href="packages/sportident-testbench-client/src/SiExternalApplication.ts" xlink:title="SiExternalApplication.ts">
<path fill="#ddfeff" stroke="black" d="M391,-358C391,-358 279,-358 279,-358 276,-358 273,-355 273,-352 273,-352 273,-346 273,-346 273,-343 276,-340 279,-340 279,-340 391,-340 391,-340 394,-340 397,-343 397,-346 397,-346 397,-352 397,-352 397,-355 394,-358 391,-358"/>
<text text-anchor="start" x="281" y="-346.8" font-family="Helvetica,sans-Serif" font-size="9.00">SiExternalApplication.ts</text>
</a>
</g>
</g>
<!-- packages/sportident&#45;testbench&#45;client/src/SiExternalApplication.ts&#45;&gt;packages/sportident&#45;testbench&#45;client/src/ISiExternalApplication.ts -->
<g id="edge5" class="edge">
<title>packages/sportident&#45;testbench&#45;client/src/SiExternalApplication.ts&#45;&gt;packages/sportident&#45;testbench&#45;client/src/ISiExternalApplication.ts</title>
<path fill="none" stroke="#000000" stroke-width="2" stroke-opacity="0.200000" d="M397.21,-344.78C406.89,-344.11 416.95,-343.42 426.78,-342.74"/>
<polygon fill="#000000" fill-opacity="0.200000" stroke="#000000" stroke-width="2" stroke-opacity="0.200000" points="427.03,-344.83 432.87,-342.32 426.74,-340.64 427.03,-344.83"/>
</g>
<!-- packages/sportident&#45;testbench&#45;client/src/SiExternalApplication.ts&#45;&gt;packages/sportident/lib/utils/index.js -->
<g id="edge6" class="edge">
<title>packages/sportident&#45;testbench&#45;client/src/SiExternalApplication.ts&#45;&gt;packages/sportident/lib/utils/index.js</title>
<path fill="none" stroke="#000000" stroke-opacity="0.200000" d="M397.05,-351.9C408.97,-352.36 421.37,-352.76 433,-353 496.54,-354.31 512.48,-355.19 576,-353 584.28,-352.71 593.21,-352.2 601.53,-351.64"/>
<polygon fill="#000000" fill-opacity="0.200000" stroke="#000000" stroke-opacity="0.200000" points="601.91,-353.71 607.75,-351.2 601.61,-349.52 601.91,-353.71"/>
</g>
<!-- packages/sportident&#45;testbench&#45;client/src/Terminal.tsx -->
<g id="node10" class="node">
<title>packages/sportident&#45;testbench&#45;client/src/Terminal.tsx</title>
<g id="a_node10"><a xlink:href="packages/sportident-testbench-client/src/Terminal.tsx" xlink:title="Terminal.tsx">
<path fill="#bbfeff" stroke="black" d="M199,-358C199,-358 140,-358 140,-358 137,-358 134,-355 134,-352 134,-352 134,-346 134,-346 134,-343 137,-340 140,-340 140,-340 199,-340 199,-340 202,-340 205,-343 205,-346 205,-346 205,-352 205,-352 205,-355 202,-358 199,-358"/>
<text text-anchor="start" x="142" y="-346.8" font-family="Helvetica,sans-Serif" font-size="9.00">Terminal.tsx</text>
</a>
</g>
</g>
<!-- packages/sportident&#45;testbench&#45;client/src/Terminal.tsx&#45;&gt;node_modules/react/index.js -->
<g id="edge8" class="edge">
<title>packages/sportident&#45;testbench&#45;client/src/Terminal.tsx&#45;&gt;node_modules/react/index.js</title>
<path fill="none" stroke="#000000" stroke-opacity="0.200000" d="M205.27,-346.11C213.23,-343.86 220.96,-340.12 226.5,-334 284.81,-269.55 210.03,-213.48 258,-141 268.89,-124.54 287.57,-112.63 303.68,-104.79"/>
<polygon fill="#000000" fill-opacity="0.200000" stroke="#000000" stroke-opacity="0.200000" points="304.93,-106.52 309.49,-102.08 303.16,-102.72 304.93,-106.52"/>
</g>
<!-- packages/sportident&#45;testbench&#45;client/src/Terminal.tsx&#45;&gt;packages/sportident&#45;testbench&#45;client/src/SiExternalApplication.ts -->
<g id="edge7" class="edge">
<title>packages/sportident&#45;testbench&#45;client/src/Terminal.tsx&#45;&gt;packages/sportident&#45;testbench&#45;client/src/SiExternalApplication.ts</title>
<path fill="none" stroke="#000000" stroke-width="2" stroke-opacity="0.200000" d="M205.17,-349C223.09,-349 245.58,-349 266.74,-349"/>
<polygon fill="#000000" fill-opacity="0.200000" stroke="#000000" stroke-width="2" stroke-opacity="0.200000" points="266.96,-351.1 272.96,-349 266.96,-346.9 266.96,-351.1"/>
</g>
<!-- packages/sportident&#45;testbench&#45;shell/lib/index.js -->
<g id="node11" class="node">
<title>packages/sportident&#45;testbench&#45;shell/lib/index.js</title>
<g id="a_node11"><a xlink:href="packages/sportident-testbench-shell/lib/index.js" xlink:title="index.js">
<polygon fill="#ffffcc" stroke="black" points="362,-482 360.5,-484 350,-484 348.5,-482 308,-482 308,-464 362,-464 362,-482"/>
<text text-anchor="start" x="317.5" y="-470.8" font-family="Helvetica,sans-Serif" font-size="9.00">index.js</text>
</a>
</g>
</g>
<!-- packages/sportident&#45;testbench&#45;client/src/Terminal.tsx&#45;&gt;packages/sportident&#45;testbench&#45;shell/lib/index.js -->
<g id="edge9" class="edge">
<title>packages/sportident&#45;testbench&#45;client/src/Terminal.tsx&#45;&gt;packages/sportident&#45;testbench&#45;shell/lib/index.js</title>
<path fill="none" stroke="#000000" stroke-opacity="0.200000" d="M205.29,-353.88C212.79,-356.1 220.32,-359.32 226.5,-364 248.35,-380.54 239.6,-396.69 258,-417 274.01,-434.68 296.39,-450.36 312.71,-460.6"/>
<polygon fill="#000000" fill-opacity="0.200000" stroke="#000000" stroke-opacity="0.200000" points="311.78,-462.49 317.99,-463.85 313.99,-458.92 311.78,-462.49"/>
</g>
<!-- packages/sportident&#45;testbench&#45;client/src/index.tsx -->
<g id="node12" class="node">
<title>packages/sportident&#45;testbench&#45;client/src/index.tsx</title>
<g id="a_node12"><a xlink:href="packages/sportident-testbench-client/src/index.tsx" xlink:title="index.tsx">
<path fill="#bbfeff" stroke="black" d="M84,-343C84,-343 38,-343 38,-343 35,-343 32,-340 32,-337 32,-337 32,-331 32,-331 32,-328 35,-325 38,-325 38,-325 84,-325 84,-325 87,-325 90,-328 90,-331 90,-331 90,-337 90,-337 90,-340 87,-343 84,-343"/>
<text text-anchor="start" x="40" y="-331.8" font-family="Helvetica,sans-Serif" font-size="9.00">index.tsx</text>
</a>
</g>
</g>
<!-- packages/sportident&#45;testbench&#45;client/src/index.tsx&#45;&gt;node_modules/react&#45;dom/index.js -->
<g id="edge15" class="edge">
<title>packages/sportident&#45;testbench&#45;client/src/index.tsx&#45;&gt;node_modules/react&#45;dom/index.js</title>
<path fill="none" stroke="#000000" stroke-opacity="0.200000" d="M62.46,-324.82C64.26,-297.42 72.87,-214.92 112.5,-163 161.9,-98.29 253.5,-59.76 301.98,-42.98"/>
<polygon fill="#000000" fill-opacity="0.200000" stroke="#000000" stroke-opacity="0.200000" points="302.67,-44.96 307.67,-41.04 301.32,-40.99 302.67,-44.96"/>
</g>
<!-- packages/sportident&#45;testbench&#45;client/src/index.tsx&#45;&gt;node_modules/react/index.js -->
<g id="edge14" class="edge">
<title>packages/sportident&#45;testbench&#45;client/src/index.tsx&#45;&gt;node_modules/react/index.js</title>
<path fill="none" stroke="#000000" stroke-opacity="0.200000" d="M69.18,-324.74C78.66,-312.67 96.09,-291.09 112.5,-274 173.17,-210.79 188.36,-194.16 258,-141 275.46,-127.68 296.69,-114.5 312.26,-105.33"/>
<polygon fill="#000000" fill-opacity="0.200000" stroke="#000000" stroke-opacity="0.200000" points="313.61,-106.98 317.73,-102.14 311.49,-103.35 313.61,-106.98"/>
</g>
<!-- packages/sportident&#45;testbench&#45;client/src/index.tsx&#45;&gt;packages/sportident&#45;react/lib/index.js -->
<g id="edge16" class="edge">
<title>packages/sportident&#45;testbench&#45;client/src/index.tsx&#45;&gt;packages/sportident&#45;react/lib/index.js</title>
<path fill="none" stroke="#000000" stroke-opacity="0.200000" d="M66.65,-343.18C74.86,-358.99 92.91,-392.07 112.5,-417 124.95,-432.84 141.5,-448.9 153.37,-459.73"/>
<polygon fill="#000000" fill-opacity="0.200000" stroke="#000000" stroke-opacity="0.200000" points="151.97,-461.3 157.83,-463.76 154.78,-458.18 151.97,-461.3"/>
</g>
<!-- packages/sportident&#45;testbench&#45;client/src/index.tsx&#45;&gt;packages/sportident&#45;testbench&#45;client/src/MainStationList.tsx -->
<g id="edge10" class="edge">
<title>packages/sportident&#45;testbench&#45;client/src/index.tsx&#45;&gt;packages/sportident&#45;testbench&#45;client/src/MainStationList.tsx</title>
<path fill="none" stroke="#000000" stroke-width="2" stroke-opacity="0.200000" d="M75.19,-324.8C85.08,-318.24 99.16,-309.62 112.5,-304 115.97,-302.54 119.62,-301.18 123.33,-299.93"/>
<polygon fill="#000000" fill-opacity="0.200000" stroke="#000000" stroke-width="2" stroke-opacity="0.200000" points="124.1,-301.89 129.18,-298.06 122.82,-297.89 124.1,-301.89"/>
</g>
<!-- packages/sportident&#45;testbench&#45;client/src/index.tsx&#45;&gt;packages/sportident&#45;testbench&#45;client/src/SiDevicesContext.tsx -->
<g id="edge11" class="edge">
<title>packages/sportident&#45;testbench&#45;client/src/index.tsx&#45;&gt;packages/sportident&#45;testbench&#45;client/src/SiDevicesContext.tsx</title>
<path fill="none" stroke="#000000" stroke-width="2" stroke-opacity="0.200000" d="M90.26,-330.02C95.71,-329.25 101.62,-328.42 107.66,-327.57"/>
<polygon fill="#000000" fill-opacity="0.200000" stroke="#000000" stroke-width="2" stroke-opacity="0.200000" points="108.08,-329.63 113.73,-326.71 107.5,-325.47 108.08,-329.63"/>
</g>
<!-- packages/sportident&#45;testbench&#45;client/src/index.tsx&#45;&gt;packages/sportident&#45;testbench&#45;client/src/Terminal.tsx -->
<g id="edge13" class="edge">
<title>packages/sportident&#45;testbench&#45;client/src/index.tsx&#45;&gt;packages/sportident&#45;testbench&#45;client/src/Terminal.tsx</title>
<path fill="none" stroke="#000000" stroke-width="2" stroke-opacity="0.200000" d="M90.26,-337.98C101.7,-339.59 115.13,-341.48 127.6,-343.24"/>
<polygon fill="#000000" fill-opacity="0.200000" stroke="#000000" stroke-width="2" stroke-opacity="0.200000" points="127.4,-345.33 133.63,-344.09 127.98,-341.17 127.4,-345.33"/>
</g>
<!-- packages/sportident&#45;testbench&#45;client/src/styles.css -->
<g id="node13" class="node">
<title>packages/sportident&#45;testbench&#45;client/src/styles.css</title>
<g id="a_node13"><a xlink:href="packages/sportident-testbench-client/src/styles.css" xlink:title="styles.css">
<path fill="#ffffcc" stroke="black" d="M193,-388C193,-388 146,-388 146,-388 143,-388 140,-385 140,-382 140,-382 140,-376 140,-376 140,-373 143,-370 146,-370 146,-370 193,-370 193,-370 196,-370 199,-373 199,-376 199,-376 199,-382 199,-382 199,-385 196,-388 193,-388"/>
<text text-anchor="start" x="148" y="-376.8" font-family="Helvetica,sans-Serif" font-size="9.00">styles.css</text>
</a>
</g>
</g>
<!-- packages/sportident&#45;testbench&#45;client/src/index.tsx&#45;&gt;packages/sportident&#45;testbench&#45;client/src/styles.css -->
<g id="edge12" class="edge">
<title>packages/sportident&#45;testbench&#45;client/src/index.tsx&#45;&gt;packages/sportident&#45;testbench&#45;client/src/styles.css</title>
<path fill="none" stroke="#000000" stroke-width="2" stroke-opacity="0.200000" d="M75.19,-343.2C85.08,-349.76 99.16,-358.38 112.5,-364 119.24,-366.84 126.66,-369.28 133.84,-371.31"/>
<polygon fill="#000000" fill-opacity="0.200000" stroke="#000000" stroke-width="2" stroke-opacity="0.200000" points="133.45,-373.38 139.79,-372.92 134.55,-369.33 133.45,-373.38"/>
</g>
<!-- packages/sportident&#45;webusb/lib/index.js -->
<g id="node14" class="node">
<title>packages/sportident&#45;webusb/lib/index.js</title>
<g id="a_node14"><a xlink:href="packages/sportident-webusb/lib/index.js" xlink:title="index.js">
<polygon fill="#ffffcc" stroke="black" points="196.5,-576 195,-578 184.5,-578 183,-576 142.5,-576 142.5,-558 196.5,-558 196.5,-576"/>
<text text-anchor="start" x="152" y="-564.8" font-family="Helvetica,sans-Serif" font-size="9.00">index.js</text>
</a>
</g>
</g>
<!-- packages/sportident&#45;testbench&#45;client/src/index.tsx&#45;&gt;packages/sportident&#45;webusb/lib/index.js -->
<g id="edge17" class="edge">
<title>packages/sportident&#45;testbench&#45;client/src/index.tsx&#45;&gt;packages/sportident&#45;webusb/lib/index.js</title>
<path fill="none" stroke="#000000" stroke-opacity="0.200000" d="M62.96,-343.1C66.18,-370.33 78.32,-452.88 112.5,-511 122.47,-527.95 138.78,-543.44 151.23,-553.81"/>
<polygon fill="#000000" fill-opacity="0.200000" stroke="#000000" stroke-opacity="0.200000" points="149.98,-555.5 155.96,-557.66 152.63,-552.24 149.98,-555.5"/>
</g>
</g>
</svg>
