<?xml version="1.0" encoding="UTF-8" standalone="no"?>
<!DOCTYPE svg PUBLIC "-//W3C//DTD SVG 1.1//EN"
 "http://www.w3.org/Graphics/SVG/1.1/DTD/svg11.dtd">
<!-- Generated by graphviz version 2.38.0 (20140413.2041)
 -->
<!-- Title: dependency&#45;cruiser output Pages: 1 -->
<svg width="624pt" height="946pt"
 viewBox="0.00 0.00 624.00 946.23" xmlns="http://www.w3.org/2000/svg" xmlns:xlink="http://www.w3.org/1999/xlink">
<g id="graph0" class="graph" transform="scale(1 1) rotate(0) translate(4 942.225)">
<title>dependency&#45;cruiser output</title>
<polygon fill="white" stroke="none" points="-4,4 -4,-942.225 620,-942.225 620,4 -4,4"/>
<g id="clust1" class="cluster"><title>cluster_node_modules</title>
<path fill="#ffffff" stroke="black" stroke-width="2" d="M381,-510.225C381,-510.225 481,-510.225 481,-510.225 487,-510.225 493,-516.225 493,-522.225 493,-522.225 493,-918.225 493,-918.225 493,-924.225 487,-930.225 481,-930.225 481,-930.225 381,-930.225 381,-930.225 375,-930.225 369,-924.225 369,-918.225 369,-918.225 369,-522.225 369,-522.225 369,-516.225 375,-510.225 381,-510.225"/>
<text text-anchor="middle" x="431" y="-919.025" font-family="Helvetica,sans-Serif" font-weight="bold" font-size="9.00">node_modules</text>
</g>
<g id="clust2" class="cluster"><title>cluster_node_modules/immutable</title>
<path fill="#ffffff" stroke="black" stroke-width="2" d="M389,-578.225C389,-578.225 473,-578.225 473,-578.225 479,-578.225 485,-584.225 485,-590.225 485,-590.225 485,-652.225 485,-652.225 485,-658.225 479,-664.225 473,-664.225 473,-664.225 389,-664.225 389,-664.225 383,-664.225 377,-658.225 377,-652.225 377,-652.225 377,-590.225 377,-590.225 377,-584.225 383,-578.225 389,-578.225"/>
<text text-anchor="middle" x="431" y="-653.025" font-family="Helvetica,sans-Serif" font-weight="bold" font-size="9.00">immutable</text>
</g>
<g id="clust3" class="cluster"><title>cluster_node_modules/immutable/dist</title>
<path fill="#ffffff" stroke="black" stroke-width="2" d="M397,-586.225C397,-586.225 465,-586.225 465,-586.225 471,-586.225 477,-592.225 477,-598.225 477,-598.225 477,-626.225 477,-626.225 477,-632.225 471,-638.225 465,-638.225 465,-638.225 397,-638.225 397,-638.225 391,-638.225 385,-632.225 385,-626.225 385,-626.225 385,-598.225 385,-598.225 385,-592.225 391,-586.225 397,-586.225"/>
<text text-anchor="middle" x="431" y="-627.025" font-family="Helvetica,sans-Serif" font-weight="bold" font-size="9.00">dist</text>
</g>
<g id="clust4" class="cluster"><title>cluster_node_modules/lodash</title>
<path fill="#ffffff" stroke="black" stroke-width="2" d="M405.5,-518.225C405.5,-518.225 456.5,-518.225 456.5,-518.225 462.5,-518.225 468.5,-524.225 468.5,-530.225 468.5,-530.225 468.5,-558.225 468.5,-558.225 468.5,-564.225 462.5,-570.225 456.5,-570.225 456.5,-570.225 405.5,-570.225 405.5,-570.225 399.5,-570.225 393.5,-564.225 393.5,-558.225 393.5,-558.225 393.5,-530.225 393.5,-530.225 393.5,-524.225 399.5,-518.225 405.5,-518.225"/>
<text text-anchor="middle" x="431" y="-559.025" font-family="Helvetica,sans-Serif" font-weight="bold" font-size="9.00">lodash</text>
</g>
<g id="clust5" class="cluster"><title>cluster_node_modules/prop&#45;types</title>
<path fill="#ffffff" stroke="black" stroke-width="2" d="M406,-732.225C406,-732.225 457,-732.225 457,-732.225 463,-732.225 469,-738.225 469,-744.225 469,-744.225 469,-772.225 469,-772.225 469,-778.225 463,-784.225 457,-784.225 457,-784.225 406,-784.225 406,-784.225 400,-784.225 394,-778.225 394,-772.225 394,-772.225 394,-744.225 394,-744.225 394,-738.225 400,-732.225 406,-732.225"/>
<text text-anchor="middle" x="431.5" y="-773.025" font-family="Helvetica,sans-Serif" font-weight="bold" font-size="9.00">prop&#45;types</text>
</g>
<g id="clust6" class="cluster"><title>cluster_node_modules/react&#45;dom</title>
<path fill="#ffffff" stroke="black" stroke-width="2" d="M408,-792.225C408,-792.225 455,-792.225 455,-792.225 461,-792.225 467,-798.225 467,-804.225 467,-804.225 467,-832.225 467,-832.225 467,-838.225 461,-844.225 455,-844.225 455,-844.225 408,-844.225 408,-844.225 402,-844.225 396,-838.225 396,-832.225 396,-832.225 396,-804.225 396,-804.225 396,-798.225 402,-792.225 408,-792.225"/>
<text text-anchor="middle" x="431.5" y="-833.025" font-family="Helvetica,sans-Serif" font-weight="bold" font-size="9.00">react&#45;dom</text>
</g>
<g id="clust7" class="cluster"><title>cluster_node_modules/react</title>
<path fill="#ffffff" stroke="black" stroke-width="2" d="M408,-672.225C408,-672.225 454,-672.225 454,-672.225 460,-672.225 466,-678.225 466,-684.225 466,-684.225 466,-712.225 466,-712.225 466,-718.225 460,-724.225 454,-724.225 454,-724.225 408,-724.225 408,-724.225 402,-724.225 396,-718.225 396,-712.225 396,-712.225 396,-684.225 396,-684.225 396,-678.225 402,-672.225 408,-672.225"/>
<text text-anchor="middle" x="431" y="-713.025" font-family="Helvetica,sans-Serif" font-weight="bold" font-size="9.00">react</text>
</g>
<g id="clust8" class="cluster"><title>cluster_node_modules/ws</title>
<path fill="#ffffff" stroke="black" stroke-width="2" d="M408,-852.225C408,-852.225 454,-852.225 454,-852.225 460,-852.225 466,-858.225 466,-864.225 466,-864.225 466,-892.225 466,-892.225 466,-898.225 460,-904.225 454,-904.225 454,-904.225 408,-904.225 408,-904.225 402,-904.225 396,-898.225 396,-892.225 396,-892.225 396,-864.225 396,-864.225 396,-858.225 402,-852.225 408,-852.225"/>
<text text-anchor="middle" x="431" y="-893.025" font-family="Helvetica,sans-Serif" font-weight="bold" font-size="9.00">ws</text>
</g>
<g id="clust9" class="cluster"><title>cluster_src</title>
<path fill="#ffffff" stroke="black" stroke-width="2" d="M550,-147.225C550,-147.225 596,-147.225 596,-147.225 602,-147.225 608,-153.225 608,-159.225 608,-159.225 608,-187.225 608,-187.225 608,-193.225 602,-199.225 596,-199.225 596,-199.225 550,-199.225 550,-199.225 544,-199.225 538,-193.225 538,-187.225 538,-187.225 538,-159.225 538,-159.225 538,-153.225 544,-147.225 550,-147.225"/>
<text text-anchor="middle" x="573" y="-188.025" font-family="Helvetica,sans-Serif" font-weight="bold" font-size="9.00">src</text>
</g>
<g id="clust10" class="cluster"><title>cluster_testbench</title>
<path fill="#ffffff" stroke="black" stroke-width="2" d="M20,-56.2251C20,-56.2251 518,-56.2251 518,-56.2251 524,-56.2251 530,-62.2251 530,-68.2251 530,-68.2251 530,-490.225 530,-490.225 530,-496.225 524,-502.225 518,-502.225 518,-502.225 20,-502.225 20,-502.225 14,-502.225 8,-496.225 8,-490.225 8,-490.225 8,-68.2251 8,-68.2251 8,-62.2251 14,-56.2251 20,-56.2251"/>
<text text-anchor="middle" x="269" y="-491.025" font-family="Helvetica,sans-Serif" font-weight="bold" font-size="9.00">testbench</text>
</g>
<g id="clust11" class="cluster"><title>cluster_testbench/client</title>
<path fill="#ffffff" stroke="black" stroke-width="2" d="M28,-64.2251C28,-64.2251 510,-64.2251 510,-64.2251 516,-64.2251 522,-70.2251 522,-76.2251 522,-76.2251 522,-374.225 522,-374.225 522,-380.225 516,-386.225 510,-386.225 510,-386.225 28,-386.225 28,-386.225 22,-386.225 16,-380.225 16,-374.225 16,-374.225 16,-76.2251 16,-76.2251 16,-70.2251 22,-64.2251 28,-64.2251"/>
<text text-anchor="middle" x="269" y="-375.025" font-family="Helvetica,sans-Serif" font-weight="bold" font-size="9.00">client</text>
</g>
<g id="clust12" class="cluster"><title>cluster_testbench/client/commands</title>
<path fill="#ffffff" stroke="black" stroke-width="2" d="M270,-72.2251C270,-72.2251 502,-72.2251 502,-72.2251 508,-72.2251 514,-78.2251 514,-84.2251 514,-84.2251 514,-322.225 514,-322.225 514,-328.225 508,-334.225 502,-334.225 502,-334.225 270,-334.225 270,-334.225 264,-334.225 258,-328.225 258,-322.225 258,-322.225 258,-84.2251 258,-84.2251 258,-78.2251 264,-72.2251 270,-72.2251"/>
<text text-anchor="middle" x="386" y="-323.025" font-family="Helvetica,sans-Serif" font-weight="bold" font-size="9.00">commands</text>
</g>
<g id="clust13" class="cluster"><title>cluster_testbench/server</title>
<path fill="#ffffff" stroke="black" stroke-width="2" d="M28,-394.225C28,-394.225 85,-394.225 85,-394.225 91,-394.225 97,-400.225 97,-406.225 97,-406.225 97,-464.225 97,-464.225 97,-470.225 91,-476.225 85,-476.225 85,-476.225 28,-476.225 28,-476.225 22,-476.225 16,-470.225 16,-464.225 16,-464.225 16,-406.225 16,-406.225 16,-400.225 22,-394.225 28,-394.225"/>
<text text-anchor="middle" x="56.5" y="-465.025" font-family="Helvetica,sans-Serif" font-weight="bold" font-size="9.00">server</text>
</g>
<!-- eslint.js -->
<g id="node1" class="node"><title>eslint.js</title>
<g id="a_node1"><a xlink:href="eslint.js" xlink:title="eslint.js">
<path fill="#ffffcc" stroke="black" d="M198.5,-594.225C198.5,-594.225 156.5,-594.225 156.5,-594.225 153.5,-594.225 150.5,-591.225 150.5,-588.225 150.5,-588.225 150.5,-582.225 150.5,-582.225 150.5,-579.225 153.5,-576.225 156.5,-576.225 156.5,-576.225 198.5,-576.225 198.5,-576.225 201.5,-576.225 204.5,-579.225 204.5,-582.225 204.5,-582.225 204.5,-588.225 204.5,-588.225 204.5,-591.225 201.5,-594.225 198.5,-594.225"/>
<text text-anchor="middle" x="177.5" y="-583.025" font-family="Helvetica,sans-Serif" font-size="9.00">eslint.js</text>
</a>
</g>
</g>
<!-- net -->
<g id="node2" class="node"><title>net</title>
<path fill="#ffffcc" stroke="grey" d="M198.5,-48.2251C198.5,-48.2251 156.5,-48.2251 156.5,-48.2251 153.5,-48.2251 150.5,-45.2251 150.5,-42.2251 150.5,-42.2251 150.5,-36.2251 150.5,-36.2251 150.5,-33.2251 153.5,-30.2251 156.5,-30.2251 156.5,-30.2251 198.5,-30.2251 198.5,-30.2251 201.5,-30.2251 204.5,-33.2251 204.5,-36.2251 204.5,-36.2251 204.5,-42.2251 204.5,-42.2251 204.5,-45.2251 201.5,-48.2251 198.5,-48.2251"/>
<text text-anchor="middle" x="177.5" y="-37.0251" font-family="Helvetica,sans-Serif" font-size="9.00" fill="grey">net</text>
</g>
<!-- node_modules/immutable/dist/immutable.js -->
<g id="node3" class="node"><title>node_modules/immutable/dist/immutable.js</title>
<g id="a_node3"><a xlink:href="node_modules/immutable/dist/immutable.js" xlink:title="immutable.js">
<polygon fill="#c40b0a" fill-opacity="0.101961" stroke="black" points="469,-612.225 467.5,-614.225 457,-614.225 455.5,-612.225 393,-612.225 393,-594.225 469,-594.225 469,-612.225"/>
<text text-anchor="middle" x="431" y="-601.025" font-family="Helvetica,sans-Serif" font-size="9.00" fill="#c40b0a">immutable.js</text>
</a>
</g>
</g>
<!-- node_modules/lodash/lodash.js -->
<g id="node4" class="node"><title>node_modules/lodash/lodash.js</title>
<g id="a_node4"><a xlink:href="node_modules/lodash/lodash.js" xlink:title="lodash.js">
<polygon fill="#c40b0a" fill-opacity="0.101961" stroke="black" points="460.5,-544.225 459,-546.225 448.5,-546.225 447,-544.225 401.5,-544.225 401.5,-526.225 460.5,-526.225 460.5,-544.225"/>
<text text-anchor="middle" x="431" y="-533.025" font-family="Helvetica,sans-Serif" font-size="9.00" fill="#c40b0a">lodash.js</text>
</a>
</g>
</g>
<!-- node_modules/prop&#45;types/index.js -->
<g id="node5" class="node"><title>node_modules/prop&#45;types/index.js</title>
<g id="a_node5"><a xlink:href="node_modules/prop-types/index.js" xlink:title="index.js">
<polygon fill="#c40b0a" fill-opacity="0.101961" stroke="black" points="458,-758.225 456.5,-760.225 446,-760.225 444.5,-758.225 404,-758.225 404,-740.225 458,-740.225 458,-758.225"/>
<text text-anchor="middle" x="431" y="-747.025" font-family="Helvetica,sans-Serif" font-size="9.00" fill="#c40b0a">index.js</text>
</a>
</g>
</g>
<!-- node_modules/react&#45;dom/index.js -->
<g id="node6" class="node"><title>node_modules/react&#45;dom/index.js</title>
<g id="a_node6"><a xlink:href="node_modules/react-dom/index.js" xlink:title="index.js">
<polygon fill="#c40b0a" fill-opacity="0.101961" stroke="black" points="458,-818.225 456.5,-820.225 446,-820.225 444.5,-818.225 404,-818.225 404,-800.225 458,-800.225 458,-818.225"/>
<text text-anchor="middle" x="431" y="-807.025" font-family="Helvetica,sans-Serif" font-size="9.00" fill="#c40b0a">index.js</text>
</a>
</g>
</g>
<!-- node_modules/react/index.js -->
<g id="node7" class="node"><title>node_modules/react/index.js</title>
<g id="a_node7"><a xlink:href="node_modules/react/index.js" xlink:title="index.js">
<polygon fill="#c40b0a" fill-opacity="0.101961" stroke="black" points="458,-698.225 456.5,-700.225 446,-700.225 444.5,-698.225 404,-698.225 404,-680.225 458,-680.225 458,-698.225"/>
<text text-anchor="middle" x="431" y="-687.025" font-family="Helvetica,sans-Serif" font-size="9.00" fill="#c40b0a">index.js</text>
</a>
</g>
</g>
<!-- node_modules/ws/index.js -->
<g id="node8" class="node"><title>node_modules/ws/index.js</title>
<g id="a_node8"><a xlink:href="node_modules/ws/index.js" xlink:title="index.js">
<polygon fill="#c40b0a" fill-opacity="0.101961" stroke="black" points="458,-878.225 456.5,-880.225 446,-880.225 444.5,-878.225 404,-878.225 404,-860.225 458,-860.225 458,-878.225"/>
<text text-anchor="middle" x="431" y="-867.025" font-family="Helvetica,sans-Serif" font-size="9.00" fill="#c40b0a">index.js</text>
</a>
</g>
</g>
<!-- src/index.js -->
<g id="node9" class="node"><title>src/index.js</title>
<g id="a_node9"><a xlink:href="src/index.js" xlink:title="index.js">
<path fill="#ffffcc" stroke="black" d="M594,-173.225C594,-173.225 552,-173.225 552,-173.225 549,-173.225 546,-170.225 546,-167.225 546,-167.225 546,-161.225 546,-161.225 546,-158.225 549,-155.225 552,-155.225 552,-155.225 594,-155.225 594,-155.225 597,-155.225 600,-158.225 600,-161.225 600,-161.225 600,-167.225 600,-167.225 600,-170.225 597,-173.225 594,-173.225"/>
<text text-anchor="middle" x="573" y="-162.025" font-family="Helvetica,sans-Serif" font-size="9.00">index.js</text>
</a>
</g>
</g>
<!-- testbench/client/.eslintrc.js -->
<g id="node10" class="node"><title>testbench/client/.eslintrc.js</title>
<g id="a_node10"><a xlink:href="testbench/client/.eslintrc.js" xlink:title=".eslintrc.js">
<path fill="#ffffcc" stroke="black" d="M83,-360.225C83,-360.225 30,-360.225 30,-360.225 27,-360.225 24,-357.225 24,-354.225 24,-354.225 24,-348.225 24,-348.225 24,-345.225 27,-342.225 30,-342.225 30,-342.225 83,-342.225 83,-342.225 86,-342.225 89,-345.225 89,-348.225 89,-348.225 89,-354.225 89,-354.225 89,-357.225 86,-360.225 83,-360.225"/>
<text text-anchor="middle" x="56.5" y="-349.025" font-family="Helvetica,sans-Serif" font-size="9.00">.eslintrc.js</text>
</a>
</g>
</g>
<!-- testbench/client/.eslintrc.js&#45;&gt;eslint.js -->
<g id="edge1" class="edge"><title>testbench/client/.eslintrc.js&#45;&gt;eslint.js</title>
<path fill="none" stroke="#000000" stroke-width="2" stroke-opacity="0.466667" d="M70.7191,-360.403C79.901,-367.609 91.447,-378.527 97,-391.225 104.844,-409.161 92.618,-552.063 105,-567.225 113.497,-577.63 127.043,-582.529 140.071,-584.688"/>
<polygon fill="#000000" fill-opacity="0.466667" stroke="#000000" stroke-width="2" stroke-opacity="0.466667" points="139.962,-588.199 150.301,-585.884 140.776,-581.246 139.962,-588.199"/>
</g>
<!-- testbench/client/MainStationList.js -->
<g id="node11" class="node"><title>testbench/client/MainStationList.js</title>
<g id="a_node11"><a xlink:href="testbench/client/MainStationList.js" xlink:title="MainStationList.js">
<path fill="#ffffcc" stroke="black" d="M220.5,-360.225C220.5,-360.225 134.5,-360.225 134.5,-360.225 131.5,-360.225 128.5,-357.225 128.5,-354.225 128.5,-354.225 128.5,-348.225 128.5,-348.225 128.5,-345.225 131.5,-342.225 134.5,-342.225 134.5,-342.225 220.5,-342.225 220.5,-342.225 223.5,-342.225 226.5,-345.225 226.5,-348.225 226.5,-348.225 226.5,-354.225 226.5,-354.225 226.5,-357.225 223.5,-360.225 220.5,-360.225"/>
<text text-anchor="middle" x="177.5" y="-349.025" font-family="Helvetica,sans-Serif" font-size="9.00">MainStationList.js</text>
</a>
</g>
</g>
<!-- testbench/client/MainStationList.js&#45;&gt;node_modules/prop&#45;types/index.js -->
<g id="edge2" class="edge"><title>testbench/client/MainStationList.js&#45;&gt;node_modules/prop&#45;types/index.js</title>
<path fill="none" stroke="#000000" stroke-width="2" stroke-opacity="0.466667" d="M183.532,-360.466C194.882,-380.745 224.138,-429.984 258,-463.225 290.637,-495.264 320.374,-481.479 343,-521.225 365.692,-561.087 327.429,-691.341 356,-727.225 365.136,-738.7 379.985,-744.385 393.992,-747.132"/>
<polygon fill="#000000" fill-opacity="0.466667" stroke="#000000" stroke-width="2" stroke-opacity="0.466667" points="393.534,-750.603 403.949,-748.655 394.593,-743.683 393.534,-750.603"/>
</g>
<!-- testbench/client/MainStationList.js&#45;&gt;node_modules/react/index.js -->
<g id="edge3" class="edge"><title>testbench/client/MainStationList.js&#45;&gt;node_modules/react/index.js</title>
<path fill="none" stroke="#000000" stroke-width="2" stroke-opacity="0.466667" d="M190.222,-360.349C205.615,-372.266 233.559,-393.678 258,-411.225 295.152,-437.897 320.128,-429.621 343,-469.225 362.17,-502.419 336.444,-608.258 356,-641.225 365.122,-656.604 381.318,-667.939 396.237,-675.721"/>
<polygon fill="#000000" fill-opacity="0.466667" stroke="#000000" stroke-width="2" stroke-opacity="0.466667" points="394.761,-678.895 405.286,-680.111 397.817,-672.597 394.761,-678.895"/>
</g>
<!-- testbench/client/SiExternalApplication.js -->
<g id="node12" class="node"><title>testbench/client/SiExternalApplication.js</title>
<g id="a_node12"><a xlink:href="testbench/client/SiExternalApplication.js" xlink:title="SiExternalApplication.js">
<path fill="#ffffcc" stroke="black" d="M487.5,-360.225C487.5,-360.225 374.5,-360.225 374.5,-360.225 371.5,-360.225 368.5,-357.225 368.5,-354.225 368.5,-354.225 368.5,-348.225 368.5,-348.225 368.5,-345.225 371.5,-342.225 374.5,-342.225 374.5,-342.225 487.5,-342.225 487.5,-342.225 490.5,-342.225 493.5,-345.225 493.5,-348.225 493.5,-348.225 493.5,-354.225 493.5,-354.225 493.5,-357.225 490.5,-360.225 487.5,-360.225"/>
<text text-anchor="middle" x="431" y="-349.025" font-family="Helvetica,sans-Serif" font-size="9.00">SiExternalApplication.js</text>
</a>
</g>
</g>
<!-- testbench/client/SiExternalApplication.js&#45;&gt;src/index.js -->
<g id="edge4" class="edge"><title>testbench/client/SiExternalApplication.js&#45;&gt;src/index.js</title>
<path fill="none" stroke="#000000" stroke-width="2" stroke-opacity="0.466667" d="M493.602,-353.448C506.935,-351.119 520.012,-346.295 530,-337.225 552.692,-316.619 565.434,-224.087 570.022,-183.458"/>
<polygon fill="#000000" fill-opacity="0.466667" stroke="#000000" stroke-width="2" stroke-opacity="0.466667" points="573.506,-183.796 571.101,-173.477 566.546,-183.043 573.506,-183.796"/>
</g>
<!-- testbench/client/Terminal.js -->
<g id="node13" class="node"><title>testbench/client/Terminal.js</title>
<g id="a_node13"><a xlink:href="testbench/client/Terminal.js" xlink:title="Terminal.js">
<path fill="#ffffcc" stroke="black" d="M204,-300.225C204,-300.225 151,-300.225 151,-300.225 148,-300.225 145,-297.225 145,-294.225 145,-294.225 145,-288.225 145,-288.225 145,-285.225 148,-282.225 151,-282.225 151,-282.225 204,-282.225 204,-282.225 207,-282.225 210,-285.225 210,-288.225 210,-288.225 210,-294.225 210,-294.225 210,-297.225 207,-300.225 204,-300.225"/>
<text text-anchor="middle" x="177.5" y="-289.025" font-family="Helvetica,sans-Serif" font-size="9.00">Terminal.js</text>
</a>
</g>
</g>
<!-- testbench/client/Terminal.js&#45;&gt;node_modules/prop&#45;types/index.js -->
<g id="edge6" class="edge"><title>testbench/client/Terminal.js&#45;&gt;node_modules/prop&#45;types/index.js</title>
<path fill="none" stroke="#000000" stroke-width="2" stroke-opacity="0.466667" d="M210.185,-289.829C224.43,-290.985 240.207,-295.076 250,-306.225 265.151,-323.473 246.256,-389.499 258,-409.225 281.019,-447.888 320.527,-425.242 343,-464.225 357.612,-489.573 337.932,-704.213 356,-727.225 365.058,-738.762 379.895,-744.456 393.915,-747.193"/>
<polygon fill="#000000" fill-opacity="0.466667" stroke="#000000" stroke-width="2" stroke-opacity="0.466667" points="393.472,-750.666 403.884,-748.706 394.522,-743.745 393.472,-750.666"/>
</g>
<!-- testbench/client/Terminal.js&#45;&gt;node_modules/react/index.js -->
<g id="edge7" class="edge"><title>testbench/client/Terminal.js&#45;&gt;node_modules/react/index.js</title>
<path fill="none" stroke="#000000" stroke-width="2" stroke-opacity="0.466667" d="M210.07,-289.931C224.289,-291.11 240.077,-295.191 250,-306.225 261.799,-319.345 246.876,-371.528 258,-385.225 282.988,-415.995 318.698,-380.911 343,-412.225 374.25,-452.493 330.407,-597.145 356,-641.225 364.978,-656.688 381.161,-668.032 396.109,-675.796"/>
<polygon fill="#000000" fill-opacity="0.466667" stroke="#000000" stroke-width="2" stroke-opacity="0.466667" points="394.653,-678.98 405.181,-680.173 397.695,-672.675 394.653,-678.98"/>
</g>
<!-- testbench/client/commands/index.js -->
<g id="node18" class="node"><title>testbench/client/commands/index.js</title>
<g id="a_node18"><a xlink:href="testbench/client/commands/index.js" xlink:title="index.js">
<path fill="#ffffcc" stroke="black" d="M325.5,-248.225C325.5,-248.225 283.5,-248.225 283.5,-248.225 280.5,-248.225 277.5,-245.225 277.5,-242.225 277.5,-242.225 277.5,-236.225 277.5,-236.225 277.5,-233.225 280.5,-230.225 283.5,-230.225 283.5,-230.225 325.5,-230.225 325.5,-230.225 328.5,-230.225 331.5,-233.225 331.5,-236.225 331.5,-236.225 331.5,-242.225 331.5,-242.225 331.5,-245.225 328.5,-248.225 325.5,-248.225"/>
<text text-anchor="middle" x="304.5" y="-237.025" font-family="Helvetica,sans-Serif" font-size="9.00">index.js</text>
</a>
</g>
</g>
<!-- testbench/client/Terminal.js&#45;&gt;testbench/client/commands/index.js -->
<g id="edge5" class="edge"><title>testbench/client/Terminal.js&#45;&gt;testbench/client/commands/index.js</title>
<path fill="none" stroke="#000000" stroke-width="2" stroke-opacity="0.466667" d="M210.009,-291.244C223.703,-289.709 239.076,-285.698 250,-276.225 257.86,-269.409 250.532,-261.47 258,-254.225 260.873,-251.438 264.274,-249.169 267.902,-247.321"/>
<polygon fill="#000000" fill-opacity="0.466667" stroke="#000000" stroke-width="2" stroke-opacity="0.466667" points="269.269,-250.544 277.221,-243.542 266.638,-244.057 269.269,-250.544"/>
</g>
<!-- testbench/client/WebUsbSiDevicesContext.js -->
<g id="node14" class="node"><title>testbench/client/WebUsbSiDevicesContext.js</title>
<g id="a_node14"><a xlink:href="testbench/client/WebUsbSiDevicesContext.js" xlink:title="WebUsbSiDevicesContext.js">
<path fill="#ffffcc" stroke="black" d="M244,-270.225C244,-270.225 111,-270.225 111,-270.225 108,-270.225 105,-267.225 105,-264.225 105,-264.225 105,-258.225 105,-258.225 105,-255.225 108,-252.225 111,-252.225 111,-252.225 244,-252.225 244,-252.225 247,-252.225 250,-255.225 250,-258.225 250,-258.225 250,-264.225 250,-264.225 250,-267.225 247,-270.225 244,-270.225"/>
<text text-anchor="middle" x="177.5" y="-259.025" font-family="Helvetica,sans-Serif" font-size="9.00">WebUsbSiDevicesContext.js</text>
</a>
</g>
</g>
<!-- testbench/client/WebUsbSiDevicesContext.js&#45;&gt;node_modules/immutable/dist/immutable.js -->
<g id="edge8" class="edge"><title>testbench/client/WebUsbSiDevicesContext.js&#45;&gt;node_modules/immutable/dist/immutable.js</title>
<path fill="none" stroke="#000000" stroke-width="2" stroke-opacity="0.466667" d="M243.136,-270.352C245.622,-272.046 247.931,-273.992 250,-276.225 268.582,-296.284 240.564,-316.163 258,-337.225 283.364,-367.863 318.692,-333.743 343,-365.225 371.303,-401.882 328.939,-535.641 356,-573.225 362.636,-582.441 372.603,-588.831 383.089,-593.26"/>
<polygon fill="#000000" fill-opacity="0.466667" stroke="#000000" stroke-width="2" stroke-opacity="0.466667" points="382.191,-596.658 392.785,-596.8 384.592,-590.083 382.191,-596.658"/>
</g>
<!-- testbench/client/WebUsbSiDevicesContext.js&#45;&gt;node_modules/react/index.js -->
<g id="edge9" class="edge"><title>testbench/client/WebUsbSiDevicesContext.js&#45;&gt;node_modules/react/index.js</title>
<path fill="none" stroke="#000000" stroke-width="2" stroke-opacity="0.466667" d="M243.237,-270.26C245.697,-271.978 247.972,-273.955 250,-276.225 262.637,-290.376 245.934,-346.584 258,-361.225 283.044,-391.613 318.614,-355.307 343,-386.225 378.139,-430.775 327.652,-592.074 356,-641.225 364.933,-656.714 381.113,-668.06 396.069,-675.819"/>
<polygon fill="#000000" fill-opacity="0.466667" stroke="#000000" stroke-width="2" stroke-opacity="0.466667" points="394.62,-679.006 405.148,-680.192 397.657,-672.699 394.62,-679.006"/>
</g>
<!-- testbench/client/commands/getBackup.js -->
<g id="node15" class="node"><title>testbench/client/commands/getBackup.js</title>
<g id="a_node15"><a xlink:href="testbench/client/commands/getBackup.js" xlink:title="getBackup.js">
<path fill="#ffffcc" stroke="black" d="M337,-278.225C337,-278.225 272,-278.225 272,-278.225 269,-278.225 266,-275.225 266,-272.225 266,-272.225 266,-266.225 266,-266.225 266,-263.225 269,-260.225 272,-260.225 272,-260.225 337,-260.225 337,-260.225 340,-260.225 343,-263.225 343,-266.225 343,-266.225 343,-272.225 343,-272.225 343,-275.225 340,-278.225 337,-278.225"/>
<text text-anchor="middle" x="304.5" y="-267.025" font-family="Helvetica,sans-Serif" font-size="9.00">getBackup.js</text>
</a>
</g>
</g>
<!-- testbench/client/commands/getBackup.js&#45;&gt;src/index.js -->
<g id="edge10" class="edge"><title>testbench/client/commands/getBackup.js&#45;&gt;src/index.js</title>
<path fill="none" stroke="#000000" stroke-width="2" stroke-opacity="0.466667" d="M331.353,-260.185C339.234,-257.521 347.944,-254.667 356,-252.225 432.662,-228.992 460.427,-244.929 530,-205.225 540.753,-199.089 550.76,-189.542 558.306,-181.204"/>
<polygon fill="#000000" fill-opacity="0.466667" stroke="#000000" stroke-width="2" stroke-opacity="0.466667" points="561.113,-183.308 564.97,-173.44 555.801,-178.749 561.113,-183.308"/>
</g>
<!-- testbench/client/commands/getDirectOrRemoteStation.js -->
<g id="node16" class="node"><title>testbench/client/commands/getDirectOrRemoteStation.js</title>
<g id="a_node16"><a xlink:href="testbench/client/commands/getDirectOrRemoteStation.js" xlink:title="getDirectOrRemoteStation.js">
<path fill="#ffffcc" stroke="black" d="M500,-276.225C500,-276.225 362,-276.225 362,-276.225 359,-276.225 356,-273.225 356,-270.225 356,-270.225 356,-264.225 356,-264.225 356,-261.225 359,-258.225 362,-258.225 362,-258.225 500,-258.225 500,-258.225 503,-258.225 506,-261.225 506,-264.225 506,-264.225 506,-270.225 506,-270.225 506,-273.225 503,-276.225 500,-276.225"/>
<text text-anchor="middle" x="431" y="-265.025" font-family="Helvetica,sans-Serif" font-size="9.00">getDirectOrRemoteStation.js</text>
</a>
</g>
</g>
<!-- testbench/client/commands/getBackup.js&#45;&gt;testbench/client/commands/getDirectOrRemoteStation.js -->
<g id="edge11" class="edge"><title>testbench/client/commands/getBackup.js&#45;&gt;testbench/client/commands/getDirectOrRemoteStation.js</title>
<path fill="none" stroke="#000000" stroke-width="2" stroke-opacity="0.466667" d="M343.192,-268.62C343.943,-268.608 344.701,-268.595 345.463,-268.583"/>
<polygon fill="#000000" fill-opacity="0.466667" stroke="#000000" stroke-width="2" stroke-opacity="0.466667" points="345.675,-272.08 355.618,-268.42 345.563,-265.081 345.675,-272.08"/>
</g>
<!-- testbench/client/commands/getInfo.js -->
<g id="node17" class="node"><title>testbench/client/commands/getInfo.js</title>
<g id="a_node17"><a xlink:href="testbench/client/commands/getInfo.js" xlink:title="getInfo.js">
<path fill="#ffffcc" stroke="black" d="M328.5,-308.225C328.5,-308.225 280.5,-308.225 280.5,-308.225 277.5,-308.225 274.5,-305.225 274.5,-302.225 274.5,-302.225 274.5,-296.225 274.5,-296.225 274.5,-293.225 277.5,-290.225 280.5,-290.225 280.5,-290.225 328.5,-290.225 328.5,-290.225 331.5,-290.225 334.5,-293.225 334.5,-296.225 334.5,-296.225 334.5,-302.225 334.5,-302.225 334.5,-305.225 331.5,-308.225 328.5,-308.225"/>
<text text-anchor="middle" x="304.5" y="-297.025" font-family="Helvetica,sans-Serif" font-size="9.00">getInfo.js</text>
</a>
</g>
</g>
<!-- testbench/client/commands/getInfo.js&#45;&gt;node_modules/lodash/lodash.js -->
<g id="edge13" class="edge"><title>testbench/client/commands/getInfo.js&#45;&gt;node_modules/lodash/lodash.js</title>
<path fill="none" stroke="#000000" stroke-width="2" stroke-opacity="0.466667" d="M334.578,-305.623C337.764,-307.329 340.686,-309.49 343,-312.225 365.416,-338.721 345.142,-356.261 356,-389.225 372.073,-438.024 402.352,-490.716 418.755,-517.463"/>
<polygon fill="#000000" fill-opacity="0.466667" stroke="#000000" stroke-width="2" stroke-opacity="0.466667" points="415.866,-519.444 424.119,-526.088 421.81,-515.748 415.866,-519.444"/>
</g>
<!-- testbench/client/commands/getInfo.js&#45;&gt;node_modules/react/index.js -->
<g id="edge14" class="edge"><title>testbench/client/commands/getInfo.js&#45;&gt;node_modules/react/index.js</title>
<path fill="none" stroke="#000000" stroke-width="2" stroke-opacity="0.466667" d="M334.557,-305.152C337.833,-306.931 340.783,-309.237 343,-312.225 364.798,-341.606 337.904,-609.43 356,-641.225 364.782,-656.655 380.787,-667.954 395.672,-675.699"/>
<polygon fill="#000000" fill-opacity="0.466667" stroke="#000000" stroke-width="2" stroke-opacity="0.466667" points="394.193,-678.871 404.72,-680.067 397.236,-672.567 394.193,-678.871"/>
</g>
<!-- testbench/client/commands/getInfo.js&#45;&gt;testbench/client/commands/getDirectOrRemoteStation.js -->
<g id="edge12" class="edge"><title>testbench/client/commands/getInfo.js&#45;&gt;testbench/client/commands/getDirectOrRemoteStation.js</title>
<path fill="none" stroke="#000000" stroke-width="2" stroke-opacity="0.466667" d="M326.835,-290.192C335.729,-286.692 346.241,-282.893 356,-280.225 358.147,-279.638 360.336,-279.072 362.553,-278.526"/>
<polygon fill="#000000" fill-opacity="0.466667" stroke="#000000" stroke-width="2" stroke-opacity="0.466667" points="363.439,-281.913 372.4,-276.261 361.87,-275.091 363.439,-281.913"/>
</g>
<!-- testbench/client/commands/pipe.js -->
<g id="node19" class="node"><title>testbench/client/commands/pipe.js</title>
<g id="a_node19"><a xlink:href="testbench/client/commands/pipe.js" xlink:title="pipe.js">
<path fill="#ffffcc" stroke="black" d="M325.5,-218.225C325.5,-218.225 283.5,-218.225 283.5,-218.225 280.5,-218.225 277.5,-215.225 277.5,-212.225 277.5,-212.225 277.5,-206.225 277.5,-206.225 277.5,-203.225 280.5,-200.225 283.5,-200.225 283.5,-200.225 325.5,-200.225 325.5,-200.225 328.5,-200.225 331.5,-203.225 331.5,-206.225 331.5,-206.225 331.5,-212.225 331.5,-212.225 331.5,-215.225 328.5,-218.225 325.5,-218.225"/>
<text text-anchor="middle" x="304.5" y="-207.025" font-family="Helvetica,sans-Serif" font-size="9.00">pipe.js</text>
</a>
</g>
</g>
<!-- testbench/client/commands/pipe.js&#45;&gt;src/index.js -->
<g id="edge15" class="edge"><title>testbench/client/commands/pipe.js&#45;&gt;src/index.js</title>
<path fill="none" stroke="#000000" stroke-width="2" stroke-opacity="0.466667" d="M331.541,-208.492C373.853,-206.771 459.859,-201.056 530,-182.225 534.822,-180.931 539.812,-179.184 544.595,-177.287"/>
<polygon fill="#000000" fill-opacity="0.466667" stroke="#000000" stroke-width="2" stroke-opacity="0.466667" points="546.177,-180.418 554.004,-173.277 543.433,-173.978 546.177,-180.418"/>
</g>
<!-- testbench/client/commands/pipe.js&#45;&gt;testbench/client/SiExternalApplication.js -->
<g id="edge16" class="edge"><title>testbench/client/commands/pipe.js&#45;&gt;testbench/client/SiExternalApplication.js</title>
<path fill="none" stroke="#000000" stroke-width="2" stroke-opacity="0.466667" d="M331.785,-215.482C336.102,-217.602 340.105,-220.436 343,-224.225 373.691,-264.396 321.571,-300.207 356,-337.225 357.224,-338.542 358.531,-339.757 359.907,-340.878"/>
<polygon fill="#000000" fill-opacity="0.466667" stroke="#000000" stroke-width="2" stroke-opacity="0.466667" points="358.147,-343.907 368.463,-346.323 361.905,-338.001 358.147,-343.907"/>
</g>
<!-- testbench/client/commands/send.js -->
<g id="node20" class="node"><title>testbench/client/commands/send.js</title>
<g id="a_node20"><a xlink:href="testbench/client/commands/send.js" xlink:title="send.js">
<path fill="#ffffcc" stroke="black" d="M325.5,-158.225C325.5,-158.225 283.5,-158.225 283.5,-158.225 280.5,-158.225 277.5,-155.225 277.5,-152.225 277.5,-152.225 277.5,-146.225 277.5,-146.225 277.5,-143.225 280.5,-140.225 283.5,-140.225 283.5,-140.225 325.5,-140.225 325.5,-140.225 328.5,-140.225 331.5,-143.225 331.5,-146.225 331.5,-146.225 331.5,-152.225 331.5,-152.225 331.5,-155.225 328.5,-158.225 325.5,-158.225"/>
<text text-anchor="middle" x="304.5" y="-147.025" font-family="Helvetica,sans-Serif" font-size="9.00">send.js</text>
</a>
</g>
</g>
<!-- testbench/client/commands/send.js&#45;&gt;src/index.js -->
<g id="edge17" class="edge"><title>testbench/client/commands/send.js&#45;&gt;src/index.js</title>
<path fill="none" stroke="#000000" stroke-width="2" stroke-opacity="0.466667" d="M331.538,-150.691C379.303,-153.379 481.02,-159.104 535.599,-162.176"/>
<polygon fill="#000000" fill-opacity="0.466667" stroke="#000000" stroke-width="2" stroke-opacity="0.466667" points="535.675,-165.686 545.856,-162.754 536.068,-158.697 535.675,-165.686"/>
</g>
<!-- testbench/client/commands/send.js&#45;&gt;testbench/client/commands/getDirectOrRemoteStation.js -->
<g id="edge18" class="edge"><title>testbench/client/commands/send.js&#45;&gt;testbench/client/commands/getDirectOrRemoteStation.js</title>
<path fill="none" stroke="#000000" stroke-width="2" stroke-opacity="0.466667" d="M331.786,-157.811C335.716,-159.632 339.588,-161.764 343,-164.225 375.888,-187.951 404.108,-226.738 418.915,-249.334"/>
<polygon fill="#000000" fill-opacity="0.466667" stroke="#000000" stroke-width="2" stroke-opacity="0.466667" points="416.079,-251.395 424.414,-257.935 421.976,-247.625 416.079,-251.395"/>
</g>
<!-- testbench/client/commands/setInfo.js -->
<g id="node21" class="node"><title>testbench/client/commands/setInfo.js</title>
<g id="a_node21"><a xlink:href="testbench/client/commands/setInfo.js" xlink:title="setInfo.js">
<path fill="#ffffcc" stroke="black" d="M328,-128.225C328,-128.225 281,-128.225 281,-128.225 278,-128.225 275,-125.225 275,-122.225 275,-122.225 275,-116.225 275,-116.225 275,-113.225 278,-110.225 281,-110.225 281,-110.225 328,-110.225 328,-110.225 331,-110.225 334,-113.225 334,-116.225 334,-116.225 334,-122.225 334,-122.225 334,-125.225 331,-128.225 328,-128.225"/>
<text text-anchor="middle" x="304.5" y="-117.025" font-family="Helvetica,sans-Serif" font-size="9.00">setInfo.js</text>
</a>
</g>
</g>
<!-- testbench/client/commands/setInfo.js&#45;&gt;src/index.js -->
<g id="edge19" class="edge"><title>testbench/client/commands/setInfo.js&#45;&gt;src/index.js</title>
<path fill="none" stroke="#000000" stroke-width="2" stroke-opacity="0.466667" d="M334.206,-121.122C377.246,-124.399 460.832,-132.45 530,-149.225 533.16,-149.992 536.414,-150.91 539.646,-151.911"/>
<polygon fill="#000000" fill-opacity="0.466667" stroke="#000000" stroke-width="2" stroke-opacity="0.466667" points="538.564,-155.24 549.158,-155.086 540.781,-148.6 538.564,-155.24"/>
</g>
<!-- testbench/client/commands/setInfo.js&#45;&gt;testbench/client/commands/getDirectOrRemoteStation.js -->
<g id="edge20" class="edge"><title>testbench/client/commands/setInfo.js&#45;&gt;testbench/client/commands/getDirectOrRemoteStation.js</title>
<path fill="none" stroke="#000000" stroke-width="2" stroke-opacity="0.466667" d="M333.997,-128.418C337.204,-130.079 340.287,-132.004 343,-134.225 381.998,-166.151 409.638,-220.231 422.273,-248.595"/>
<polygon fill="#000000" fill-opacity="0.466667" stroke="#000000" stroke-width="2" stroke-opacity="0.466667" points="419.2,-250.309 426.373,-258.107 425.629,-247.538 419.2,-250.309"/>
</g>
<!-- testbench/client/commands/simulate.js -->
<g id="node22" class="node"><title>testbench/client/commands/simulate.js</title>
<g id="a_node22"><a xlink:href="testbench/client/commands/simulate.js" xlink:title="simulate.js">
<path fill="#ffffcc" stroke="black" d="M332,-188.225C332,-188.225 277,-188.225 277,-188.225 274,-188.225 271,-185.225 271,-182.225 271,-182.225 271,-176.225 271,-176.225 271,-173.225 274,-170.225 277,-170.225 277,-170.225 332,-170.225 332,-170.225 335,-170.225 338,-173.225 338,-176.225 338,-176.225 338,-182.225 338,-182.225 338,-185.225 335,-188.225 332,-188.225"/>
<text text-anchor="middle" x="304.5" y="-177.025" font-family="Helvetica,sans-Serif" font-size="9.00">simulate.js</text>
</a>
</g>
</g>
<!-- testbench/client/commands/simulate.js&#45;&gt;src/index.js -->
<g id="edge21" class="edge"><title>testbench/client/commands/simulate.js&#45;&gt;src/index.js</title>
<path fill="none" stroke="#000000" stroke-width="2" stroke-opacity="0.466667" d="M338.229,-177.66C381.951,-175.526 461.828,-171.481 530,-167.225 531.756,-167.116 533.552,-167 535.367,-166.881"/>
<polygon fill="#000000" fill-opacity="0.466667" stroke="#000000" stroke-width="2" stroke-opacity="0.466667" points="536.053,-170.342 545.792,-166.17 535.577,-163.358 536.053,-170.342"/>
</g>
<!-- testbench/client/commands/simulate.js&#45;&gt;testbench/client/SiExternalApplication.js -->
<g id="edge22" class="edge"><title>testbench/client/commands/simulate.js&#45;&gt;testbench/client/SiExternalApplication.js</title>
<path fill="none" stroke="#000000" stroke-width="2" stroke-opacity="0.466667" d="M336.96,-188.438C339.256,-190.064 341.324,-191.976 343,-194.225 362.068,-219.81 334.549,-313.602 356,-337.225 357.209,-338.556 358.501,-339.785 359.864,-340.917"/>
<polygon fill="#000000" fill-opacity="0.466667" stroke="#000000" stroke-width="2" stroke-opacity="0.466667" points="358.066,-343.923 368.364,-346.413 361.867,-338.044 358.066,-343.923"/>
</g>
<!-- testbench/client/commands/test.js -->
<g id="node23" class="node"><title>testbench/client/commands/test.js</title>
<g id="a_node23"><a xlink:href="testbench/client/commands/test.js" xlink:title="test.js">
<path fill="#ffffcc" stroke="black" d="M325.5,-98.2251C325.5,-98.2251 283.5,-98.2251 283.5,-98.2251 280.5,-98.2251 277.5,-95.2251 277.5,-92.2251 277.5,-92.2251 277.5,-86.2251 277.5,-86.2251 277.5,-83.2251 280.5,-80.2251 283.5,-80.2251 283.5,-80.2251 325.5,-80.2251 325.5,-80.2251 328.5,-80.2251 331.5,-83.2251 331.5,-86.2251 331.5,-86.2251 331.5,-92.2251 331.5,-92.2251 331.5,-95.2251 328.5,-98.2251 325.5,-98.2251"/>
<text text-anchor="middle" x="304.5" y="-87.0251" font-family="Helvetica,sans-Serif" font-size="9.00">test.js</text>
</a>
</g>
</g>
<!-- testbench/client/commands/test.js&#45;&gt;src/index.js -->
<g id="edge23" class="edge"><title>testbench/client/commands/test.js&#45;&gt;src/index.js</title>
<path fill="none" stroke="#000000" stroke-width="2" stroke-opacity="0.466667" d="M331.711,-87.4485C375.381,-85.624 464.675,-86.8008 530,-120.225 542.092,-126.412 552.636,-137.49 560.135,-146.981"/>
<polygon fill="#000000" fill-opacity="0.466667" stroke="#000000" stroke-width="2" stroke-opacity="0.466667" points="557.358,-149.113 566.122,-155.067 562.984,-144.947 557.358,-149.113"/>
</g>
<!-- testbench/client/index.html -->
<g id="node24" class="node"><title>testbench/client/index.html</title>
<g id="a_node24"><a xlink:href="testbench/client/index.html" xlink:title="index.html">
<path fill="#ffffcc" stroke="black" d="M204,-330.225C204,-330.225 151,-330.225 151,-330.225 148,-330.225 145,-327.225 145,-324.225 145,-324.225 145,-318.225 145,-318.225 145,-315.225 148,-312.225 151,-312.225 151,-312.225 204,-312.225 204,-312.225 207,-312.225 210,-315.225 210,-318.225 210,-318.225 210,-324.225 210,-324.225 210,-327.225 207,-330.225 204,-330.225"/>
<text text-anchor="middle" x="177.5" y="-319.025" font-family="Helvetica,sans-Serif" font-size="9.00">index.html</text>
</a>
</g>
</g>
<!-- testbench/client/index.js -->
<g id="node25" class="node"><title>testbench/client/index.js</title>
<g id="a_node25"><a xlink:href="testbench/client/index.js" xlink:title="index.js">
<path fill="#ffffcc" stroke="black" d="M77.5,-330.225C77.5,-330.225 35.5,-330.225 35.5,-330.225 32.5,-330.225 29.5,-327.225 29.5,-324.225 29.5,-324.225 29.5,-318.225 29.5,-318.225 29.5,-315.225 32.5,-312.225 35.5,-312.225 35.5,-312.225 77.5,-312.225 77.5,-312.225 80.5,-312.225 83.5,-315.225 83.5,-318.225 83.5,-318.225 83.5,-324.225 83.5,-324.225 83.5,-327.225 80.5,-330.225 77.5,-330.225"/>
<text text-anchor="middle" x="56.5" y="-319.025" font-family="Helvetica,sans-Serif" font-size="9.00">index.js</text>
</a>
</g>
</g>
<!-- testbench/client/index.js&#45;&gt;node_modules/prop&#45;types/index.js -->
<g id="edge30" class="edge"><title>testbench/client/index.js&#45;&gt;node_modules/prop&#45;types/index.js</title>
<path fill="none" stroke="#000000" stroke-width="2" stroke-opacity="0.466667" d="M83.6022,-326.474C88.7582,-328.674 93.6148,-331.796 97,-336.225 119.235,-365.319 84.8416,-387.656 105,-418.225 147.706,-482.986 189.718,-465.409 258,-502.225 295.625,-522.511 319.646,-511.423 343,-547.225 364.911,-580.815 330.878,-695.965 356,-727.225 365.188,-738.658 380.044,-744.337 394.043,-747.091"/>
<polygon fill="#000000" fill-opacity="0.466667" stroke="#000000" stroke-width="2" stroke-opacity="0.466667" points="393.575,-750.561 403.991,-748.621 394.639,-743.642 393.575,-750.561"/>
</g>
<!-- testbench/client/index.js&#45;&gt;node_modules/react&#45;dom/index.js -->
<g id="edge32" class="edge"><title>testbench/client/index.js&#45;&gt;node_modules/react&#45;dom/index.js</title>
<path fill="none" stroke="#000000" stroke-width="2" stroke-opacity="0.466667" d="M83.7237,-326.383C88.8733,-328.588 93.6967,-331.734 97,-336.225 114.413,-359.898 90.6758,-442.565 105,-468.225 143.406,-537.023 198.876,-510.271 250,-570.225 319.645,-651.899 274.091,-717.857 356,-787.225 366.572,-796.179 380.672,-801.489 393.726,-804.638"/>
<polygon fill="#000000" fill-opacity="0.466667" stroke="#000000" stroke-width="2" stroke-opacity="0.466667" points="393.384,-808.14 403.884,-806.728 394.795,-801.284 393.384,-808.14"/>
</g>
<!-- testbench/client/index.js&#45;&gt;node_modules/react/index.js -->
<g id="edge31" class="edge"><title>testbench/client/index.js&#45;&gt;node_modules/react/index.js</title>
<path fill="none" stroke="#000000" stroke-width="2" stroke-opacity="0.466667" d="M83.8997,-327.257C88.7886,-329.403 93.4613,-332.304 97,-336.225 106.246,-346.469 96.903,-355.051 105,-366.225 179.07,-468.442 276.942,-413.657 343,-521.225 371.073,-566.939 327.885,-595.537 356,-641.225 365.437,-656.561 381.819,-667.936 396.774,-675.753"/>
<polygon fill="#000000" fill-opacity="0.466667" stroke="#000000" stroke-width="2" stroke-opacity="0.466667" points="395.303,-678.93 405.826,-680.164 398.369,-672.637 395.303,-678.93"/>
</g>
<!-- testbench/client/index.js&#45;&gt;src/index.js -->
<g id="edge24" class="edge"><title>testbench/client/index.js&#45;&gt;src/index.js</title>
<path fill="none" stroke="#000000" stroke-width="2" stroke-opacity="0.466667" d="M57.4544,-312.135C57.4351,-266.46 59.9038,-62.6821 105,-24.2251 172.679,33.4901 474.692,-26.5708 530,-69.2251 554.077,-87.7936 564.658,-123.113 569.076,-145.063"/>
<polygon fill="#000000" fill-opacity="0.466667" stroke="#000000" stroke-width="2" stroke-opacity="0.466667" points="565.674,-145.926 570.863,-155.163 572.567,-144.706 565.674,-145.926"/>
</g>
<!-- testbench/client/index.js&#45;&gt;testbench/client/MainStationList.js -->
<g id="edge26" class="edge"><title>testbench/client/index.js&#45;&gt;testbench/client/MainStationList.js</title>
<path fill="none" stroke="#000000" stroke-width="2" stroke-opacity="0.466667" d="M83.9947,-330.102C90.8017,-332.242 98.1404,-334.427 105,-336.225 109.934,-337.518 115.083,-338.776 120.257,-339.976"/>
<polygon fill="#000000" fill-opacity="0.466667" stroke="#000000" stroke-width="2" stroke-opacity="0.466667" points="119.664,-343.43 130.188,-342.209 121.2,-336.601 119.664,-343.43"/>
</g>
<!-- testbench/client/index.js&#45;&gt;testbench/client/Terminal.js -->
<g id="edge28" class="edge"><title>testbench/client/index.js&#45;&gt;testbench/client/Terminal.js</title>
<path fill="none" stroke="#000000" stroke-width="2" stroke-opacity="0.466667" d="M83.9947,-312.348C90.8017,-310.208 98.1404,-308.023 105,-306.225 114.561,-303.719 124.927,-301.349 134.722,-299.264"/>
<polygon fill="#000000" fill-opacity="0.466667" stroke="#000000" stroke-width="2" stroke-opacity="0.466667" points="135.584,-302.66 144.664,-297.201 134.161,-295.806 135.584,-302.66"/>
</g>
<!-- testbench/client/index.js&#45;&gt;testbench/client/WebUsbSiDevicesContext.js -->
<g id="edge29" class="edge"><title>testbench/client/index.js&#45;&gt;testbench/client/WebUsbSiDevicesContext.js</title>
<path fill="none" stroke="#000000" stroke-width="2" stroke-opacity="0.466667" d="M64.487,-312.068C72.9215,-301.694 88.0953,-285.081 105,-276.225 106.369,-275.508 107.77,-274.825 109.197,-274.174"/>
<polygon fill="#000000" fill-opacity="0.466667" stroke="#000000" stroke-width="2" stroke-opacity="0.466667" points="110.9,-277.265 118.918,-270.339 108.331,-270.753 110.9,-277.265"/>
</g>
<!-- testbench/client/index.js&#45;&gt;testbench/client/index.html -->
<g id="edge25" class="edge"><title>testbench/client/index.js&#45;&gt;testbench/client/index.html</title>
<path fill="none" stroke="#000000" stroke-width="2" stroke-opacity="0.466667" d="M83.6151,-321.225C98.5728,-321.225 117.692,-321.225 134.692,-321.225"/>
<polygon fill="#000000" fill-opacity="0.466667" stroke="#000000" stroke-width="2" stroke-opacity="0.466667" points="134.947,-324.725 144.947,-321.225 134.947,-317.725 134.947,-324.725"/>
</g>
<!-- testbench/client/styles.css -->
<g id="node26" class="node"><title>testbench/client/styles.css</title>
<g id="a_node26"><a xlink:href="testbench/client/styles.css" xlink:title="styles.css">
<path fill="#ffffcc" stroke="black" d="M202.5,-240.225C202.5,-240.225 152.5,-240.225 152.5,-240.225 149.5,-240.225 146.5,-237.225 146.5,-234.225 146.5,-234.225 146.5,-228.225 146.5,-228.225 146.5,-225.225 149.5,-222.225 152.5,-222.225 152.5,-222.225 202.5,-222.225 202.5,-222.225 205.5,-222.225 208.5,-225.225 208.5,-228.225 208.5,-228.225 208.5,-234.225 208.5,-234.225 208.5,-237.225 205.5,-240.225 202.5,-240.225"/>
<text text-anchor="middle" x="177.5" y="-229.025" font-family="Helvetica,sans-Serif" font-size="9.00">styles.css</text>
</a>
</g>
</g>
<!-- testbench/client/index.js&#45;&gt;testbench/client/styles.css -->
<g id="edge27" class="edge"><title>testbench/client/index.js&#45;&gt;testbench/client/styles.css</title>
<path fill="none" stroke="#000000" stroke-width="2" stroke-opacity="0.466667" d="M60.5459,-312.169C66.4286,-296.145 80.9391,-262.917 105,-246.225 114.082,-239.925 125.266,-236.176 136.07,-233.971"/>
<polygon fill="#000000" fill-opacity="0.466667" stroke="#000000" stroke-width="2" stroke-opacity="0.466667" points="136.931,-237.376 146.229,-232.297 135.793,-230.469 136.931,-237.376"/>
</g>
<!-- testbench/server/.eslintrc.js -->
<g id="node27" class="node"><title>testbench/server/.eslintrc.js</title>
<g id="a_node27"><a xlink:href="testbench/server/.eslintrc.js" xlink:title=".eslintrc.js">
<path fill="#ffffcc" stroke="black" d="M83,-420.225C83,-420.225 30,-420.225 30,-420.225 27,-420.225 24,-417.225 24,-414.225 24,-414.225 24,-408.225 24,-408.225 24,-405.225 27,-402.225 30,-402.225 30,-402.225 83,-402.225 83,-402.225 86,-402.225 89,-405.225 89,-408.225 89,-408.225 89,-414.225 89,-414.225 89,-417.225 86,-420.225 83,-420.225"/>
<text text-anchor="middle" x="56.5" y="-409.025" font-family="Helvetica,sans-Serif" font-size="9.00">.eslintrc.js</text>
</a>
</g>
</g>
<!-- testbench/server/.eslintrc.js&#45;&gt;eslint.js -->
<g id="edge33" class="edge"><title>testbench/server/.eslintrc.js&#45;&gt;eslint.js</title>
<path fill="none" stroke="#000000" stroke-width="2" stroke-opacity="0.466667" d="M89.2337,-419.216C92.2299,-421.082 94.9191,-423.385 97,-426.225 115.547,-451.542 85.0128,-543.029 105,-567.225 113.555,-577.582 127.112,-582.472 140.132,-584.638"/>
<polygon fill="#000000" fill-opacity="0.466667" stroke="#000000" stroke-width="2" stroke-opacity="0.466667" points="140.012,-588.148 150.353,-585.842 140.831,-581.196 140.012,-588.148"/>
</g>
<!-- testbench/server/index.js -->
<g id="node28" class="node"><title>testbench/server/index.js</title>
<g id="a_node28"><a xlink:href="testbench/server/index.js" xlink:title="index.js">
<path fill="#ffffcc" stroke="black" d="M77.5,-450.225C77.5,-450.225 35.5,-450.225 35.5,-450.225 32.5,-450.225 29.5,-447.225 29.5,-444.225 29.5,-444.225 29.5,-438.225 29.5,-438.225 29.5,-435.225 32.5,-432.225 35.5,-432.225 35.5,-432.225 77.5,-432.225 77.5,-432.225 80.5,-432.225 83.5,-435.225 83.5,-438.225 83.5,-438.225 83.5,-444.225 83.5,-444.225 83.5,-447.225 80.5,-450.225 77.5,-450.225"/>
<text text-anchor="middle" x="56.5" y="-439.025" font-family="Helvetica,sans-Serif" font-size="9.00">index.js</text>
</a>
</g>
</g>
<!-- testbench/server/index.js&#45;&gt;net -->
<g id="edge34" class="edge"><title>testbench/server/index.js&#45;&gt;net</title>
<path fill="none" stroke="grey" d="M83.8532,-436.16C88.9961,-433.951 93.784,-430.779 97,-426.225 108.7,-409.658 92.772,-77.4073 105,-61.2251 113.361,-50.1606 127.187,-44.4988 140.464,-41.6576"/>
<polygon fill="grey" stroke="grey" points="141.126,-45.0956 150.41,-39.992 139.97,-38.1917 141.126,-45.0956"/>
</g>
<!-- testbench/server/index.js&#45;&gt;node_modules/ws/index.js -->
<g id="edge35" class="edge"><title>testbench/server/index.js&#45;&gt;node_modules/ws/index.js</title>
<path fill="none" stroke="#000000" stroke-width="2" stroke-opacity="0.466667" d="M58.624,-450.484C62.0532,-476.008 74.095,-548.885 105,-600.225 185.719,-734.316 221.212,-767.676 356,-847.225 367.567,-854.052 381.417,-858.905 393.991,-862.284"/>
<polygon fill="#000000" fill-opacity="0.466667" stroke="#000000" stroke-width="2" stroke-opacity="0.466667" points="393.186,-865.69 403.733,-864.687 394.862,-858.894 393.186,-865.69"/>
</g>
</g>
</svg>
