<?xml version="1.0" encoding="UTF-8" standalone="no"?>
<!DOCTYPE svg PUBLIC "-//W3C//DTD SVG 1.1//EN"
 "http://www.w3.org/Graphics/SVG/1.1/DTD/svg11.dtd">
<!-- Generated by graphviz version 2.43.0 (0)
 -->
<!-- Title: dependency&#45;cruiser output Pages: 1 -->
<svg width="524pt" height="312pt"
 viewBox="0.00 0.00 524.00 312.00" xmlns="http://www.w3.org/2000/svg" xmlns:xlink="http://www.w3.org/1999/xlink">
<g id="graph0" class="graph" transform="scale(1 1) rotate(0) translate(4 308)">
<title>dependency&#45;cruiser output</title>
<polygon fill="white" stroke="transparent" points="-4,4 -4,-308 520,-308 520,4 -4,4"/>
<g id="clust1" class="cluster">
<title>cluster_packages</title>
<path fill="#ffffff" stroke="black" stroke-width="2" d="M20,-8C20,-8 496,-8 496,-8 502,-8 508,-14 508,-20 508,-20 508,-284 508,-284 508,-290 502,-296 496,-296 496,-296 20,-296 20,-296 14,-296 8,-290 8,-284 8,-284 8,-20 8,-20 8,-14 14,-8 20,-8"/>
<text text-anchor="middle" x="258" y="-284.8" font-family="Helvetica,sans-Serif" font-weight="bold" font-size="9.00">packages</text>
</g>
<g id="clust2" class="cluster">
<title>cluster_packages/sportident</title>
<path fill="#ffffff" stroke="black" stroke-width="2" d="M28,-16C28,-16 488,-16 488,-16 494,-16 500,-22 500,-28 500,-28 500,-258 500,-258 500,-264 494,-270 488,-270 488,-270 28,-270 28,-270 22,-270 16,-264 16,-258 16,-258 16,-28 16,-28 16,-22 22,-16 28,-16"/>
<text text-anchor="middle" x="258" y="-258.8" font-family="Helvetica,sans-Serif" font-weight="bold" font-size="9.00">sportident</text>
</g>
<g id="clust3" class="cluster">
<title>cluster_packages/sportident/src</title>
<path fill="#ffffff" stroke="black" stroke-width="2" d="M36,-24C36,-24 480,-24 480,-24 486,-24 492,-30 492,-36 492,-36 492,-232 492,-232 492,-238 486,-244 480,-244 480,-244 36,-244 36,-244 30,-244 24,-238 24,-232 24,-232 24,-36 24,-36 24,-30 30,-24 36,-24"/>
<text text-anchor="middle" x="258" y="-232.8" font-family="Helvetica,sans-Serif" font-weight="bold" font-size="9.00">src</text>
</g>
<g id="clust4" class="cluster">
<title>cluster_packages/sportident/src/SiDevice</title>
<path fill="#ffffff" stroke="black" stroke-width="2" d="M44,-32C44,-32 394,-32 394,-32 400,-32 406,-38 406,-44 406,-44 406,-206 406,-206 406,-212 400,-218 394,-218 394,-218 44,-218 44,-218 38,-218 32,-212 32,-206 32,-206 32,-44 32,-44 32,-38 38,-32 44,-32"/>
<text text-anchor="middle" x="219" y="-206.8" font-family="Helvetica,sans-Serif" font-weight="bold" font-size="9.00">SiDevice</text>
</g>
<g id="clust5" class="cluster">
<title>cluster_packages/sportident/src/SiDevice/testUtils</title>
<path fill="#ffffff" stroke="black" stroke-width="2" d="M52,-110C52,-110 309,-110 309,-110 315,-110 321,-116 321,-122 321,-122 321,-180 321,-180 321,-186 315,-192 309,-192 309,-192 52,-192 52,-192 46,-192 40,-186 40,-180 40,-180 40,-122 40,-122 40,-116 46,-110 52,-110"/>
<text text-anchor="middle" x="180.5" y="-180.8" font-family="Helvetica,sans-Serif" font-weight="bold" font-size="9.00">testUtils</text>
</g>
<g id="clust6" class="cluster">
<title>cluster_packages/sportident/src/utils</title>
<path fill="#ffffff" stroke="black" stroke-width="2" d="M426,-58C426,-58 472,-58 472,-58 478,-58 484,-64 484,-70 484,-70 484,-98 484,-98 484,-104 478,-110 472,-110 472,-110 426,-110 426,-110 420,-110 414,-104 414,-98 414,-98 414,-70 414,-70 414,-64 420,-58 426,-58"/>
<text text-anchor="middle" x="449" y="-98.8" font-family="Helvetica,sans-Serif" font-weight="bold" font-size="9.00">utils</text>
</g>
<!-- packages/sportident/src/SiDevice/ISiDevice.ts -->
<g id="node1" class="node">
<title>packages/sportident/src/SiDevice/ISiDevice.ts</title>
<g id="a_node1"><a xlink:href="packages/sportident/src/SiDevice/ISiDevice.ts" xlink:title="ISiDevice.ts">
<path fill="#ddfeff" stroke="black" d="M392,-62C392,-62 335,-62 335,-62 332,-62 329,-59 329,-56 329,-56 329,-50 329,-50 329,-47 332,-44 335,-44 335,-44 392,-44 392,-44 395,-44 398,-47 398,-50 398,-50 398,-56 398,-56 398,-59 395,-62 392,-62"/>
<text text-anchor="start" x="337" y="-50.8" font-family="Helvetica,sans-Serif" font-size="9.00">ISiDevice.ts</text>
</a>
</g>
</g>
<!-- packages/sportident/src/utils/index.ts -->
<g id="node2" class="node">
<title>packages/sportident/src/utils/index.ts</title>
<g id="a_node2"><a xlink:href="packages/sportident/src/utils/index.ts" xlink:title="index.ts">
<path fill="#ddfeff" stroke="black" d="M470,-84C470,-84 428,-84 428,-84 425,-84 422,-81 422,-78 422,-78 422,-72 422,-72 422,-69 425,-66 428,-66 428,-66 470,-66 470,-66 473,-66 476,-69 476,-72 476,-72 476,-78 476,-78 476,-81 473,-84 470,-84"/>
<text text-anchor="start" x="430.5" y="-72.8" font-family="Helvetica,sans-Serif" font-size="9.00">index.ts</text>
</a>
</g>
</g>
<!-- packages/sportident/src/SiDevice/ISiDevice.ts&#45;&gt;packages/sportident/src/utils/index.ts -->
<g id="edge1" class="edge">
<title>packages/sportident/src/SiDevice/ISiDevice.ts&#45;&gt;packages/sportident/src/utils/index.ts</title>
<path fill="none" stroke="#000000" stroke-width="2" stroke-opacity="0.200000" d="M398.46,-61.95C404.17,-63.45 410.07,-65.01 415.73,-66.5"/>
<polygon fill="#000000" fill-opacity="0.200000" stroke="#000000" stroke-width="2" stroke-opacity="0.200000" points="415.41,-68.59 421.75,-68.08 416.49,-64.52 415.41,-68.59"/>
</g>
<!-- packages/sportident/src/SiDevice/ISiDeviceDriver.ts -->
<g id="node3" class="node">
<title>packages/sportident/src/SiDevice/ISiDeviceDriver.ts</title>
<g id="a_node3"><a xlink:href="packages/sportident/src/SiDevice/ISiDeviceDriver.ts" xlink:title="ISiDeviceDriver.ts">
<path fill="#ddfeff" stroke="black" d="M255.5,-102C255.5,-102 172.5,-102 172.5,-102 169.5,-102 166.5,-99 166.5,-96 166.5,-96 166.5,-90 166.5,-90 166.5,-87 169.5,-84 172.5,-84 172.5,-84 255.5,-84 255.5,-84 258.5,-84 261.5,-87 261.5,-90 261.5,-90 261.5,-96 261.5,-96 261.5,-99 258.5,-102 255.5,-102"/>
<text text-anchor="start" x="174.5" y="-90.8" font-family="Helvetica,sans-Serif" font-size="9.00">ISiDeviceDriver.ts</text>
</a>
</g>
</g>
<!-- packages/sportident/src/SiDevice/ISiDeviceDriver.ts&#45;&gt;packages/sportident/src/utils/index.ts -->
<g id="edge2" class="edge">
<title>packages/sportident/src/SiDevice/ISiDeviceDriver.ts&#45;&gt;packages/sportident/src/utils/index.ts</title>
<path fill="none" stroke="#000000" stroke-width="2" stroke-opacity="0.200000" d="M261.59,-89.4C307.22,-85.88 375.57,-80.6 415.58,-77.5"/>
<polygon fill="#000000" fill-opacity="0.200000" stroke="#000000" stroke-width="2" stroke-opacity="0.200000" points="415.93,-79.58 421.75,-77.03 415.61,-75.4 415.93,-79.58"/>
</g>
<!-- packages/sportident/src/SiDevice/SiDevice.ts -->
<g id="node4" class="node">
<title>packages/sportident/src/SiDevice/SiDevice.ts</title>
<g id="a_node4"><a xlink:href="packages/sportident/src/SiDevice/SiDevice.ts" xlink:title="SiDevice.ts">
<path fill="#ddfeff" stroke="black" d="M241,-72C241,-72 187,-72 187,-72 184,-72 181,-69 181,-66 181,-66 181,-60 181,-60 181,-57 184,-54 187,-54 187,-54 241,-54 241,-54 244,-54 247,-57 247,-60 247,-60 247,-66 247,-66 247,-69 244,-72 241,-72"/>
<text text-anchor="start" x="189" y="-60.8" font-family="Helvetica,sans-Serif" font-size="9.00">SiDevice.ts</text>
</a>
</g>
</g>
<!-- packages/sportident/src/SiDevice/SiDevice.ts&#45;&gt;packages/sportident/src/SiDevice/ISiDevice.ts -->
<g id="edge4" class="edge">
<title>packages/sportident/src/SiDevice/SiDevice.ts&#45;&gt;packages/sportident/src/SiDevice/ISiDevice.ts</title>
<path fill="none" stroke="#000000" stroke-width="2" stroke-opacity="0.200000" d="M247.01,-60.83C269.17,-59.33 298.84,-57.32 322.56,-55.71"/>
<polygon fill="#000000" fill-opacity="0.200000" stroke="#000000" stroke-width="2" stroke-opacity="0.200000" points="322.92,-57.79 328.76,-55.29 322.63,-53.6 322.92,-57.79"/>
</g>
<!-- packages/sportident/src/SiDevice/SiDevice.ts&#45;&gt;packages/sportident/src/utils/index.ts -->
<g id="edge3" class="edge">
<title>packages/sportident/src/SiDevice/SiDevice.ts&#45;&gt;packages/sportident/src/utils/index.ts</title>
<path fill="none" stroke="#000000" stroke-width="2" stroke-opacity="0.200000" d="M247.4,-64.67C291.94,-66.96 371.62,-71.07 415.97,-73.35"/>
<polygon fill="#000000" fill-opacity="0.200000" stroke="#000000" stroke-width="2" stroke-opacity="0.200000" points="415.89,-75.45 421.99,-73.66 416.1,-71.25 415.89,-75.45"/>
</g>
<!-- packages/sportident/src/SiDevice/index.ts -->
<g id="node5" class="node">
<title>packages/sportident/src/SiDevice/index.ts</title>
<g id="a_node5"><a xlink:href="packages/sportident/src/SiDevice/index.ts" xlink:title="index.ts">
<path fill="#ddfeff" stroke="black" d="M96,-72C96,-72 54,-72 54,-72 51,-72 48,-69 48,-66 48,-66 48,-60 48,-60 48,-57 51,-54 54,-54 54,-54 96,-54 96,-54 99,-54 102,-57 102,-60 102,-60 102,-66 102,-66 102,-69 99,-72 96,-72"/>
<text text-anchor="start" x="56.5" y="-60.8" font-family="Helvetica,sans-Serif" font-size="9.00">index.ts</text>
</a>
</g>
</g>
<!-- packages/sportident/src/SiDevice/index.ts&#45;&gt;packages/sportident/src/SiDevice/ISiDevice.ts -->
<g id="edge5" class="edge">
<title>packages/sportident/src/SiDevice/index.ts&#45;&gt;packages/sportident/src/SiDevice/ISiDevice.ts</title>
<path fill="none" stroke="#000000" stroke-width="2" stroke-opacity="0.200000" d="M95.43,-53.92C101.56,-51.5 108.44,-49.22 115,-48 187.33,-34.57 273.59,-41.34 322.81,-47.29"/>
<polygon fill="#000000" fill-opacity="0.200000" stroke="#000000" stroke-width="2" stroke-opacity="0.200000" points="328.66,-50.14 322.97,-47.31 329.18,-45.97 328.66,-50.14"/>
</g>
<!-- packages/sportident/src/SiDevice/index.ts&#45;&gt;packages/sportident/src/SiDevice/ISiDeviceDriver.ts -->
<g id="edge6" class="edge">
<title>packages/sportident/src/SiDevice/index.ts&#45;&gt;packages/sportident/src/SiDevice/ISiDeviceDriver.ts</title>
<path fill="none" stroke="#000000" stroke-width="2" stroke-opacity="0.200000" d="M97.18,-72.1C102.89,-74.28 109.11,-76.44 115,-78 129.41,-81.83 145.29,-84.78 159.99,-87.01"/>
<polygon fill="#000000" fill-opacity="0.200000" stroke="#000000" stroke-width="2" stroke-opacity="0.200000" points="165.91,-90.01 160.28,-87.06 166.52,-85.85 165.91,-90.01"/>
</g>
<!-- packages/sportident/src/SiDevice/index.ts&#45;&gt;packages/sportident/src/SiDevice/SiDevice.ts -->
<g id="edge7" class="edge">
<title>packages/sportident/src/SiDevice/index.ts&#45;&gt;packages/sportident/src/SiDevice/SiDevice.ts</title>
<path fill="none" stroke="#000000" stroke-width="2" stroke-opacity="0.200000" d="M102.09,-63C122.62,-63 151.52,-63 174.67,-63"/>
<polygon fill="#000000" fill-opacity="0.200000" stroke="#000000" stroke-width="2" stroke-opacity="0.200000" points="180.73,-65.1 174.73,-63 180.73,-60.9 180.73,-65.1"/>
</g>
<!-- packages/sportident/src/SiDevice/testUtils/index.ts -->
<g id="node6" class="node">
<title>packages/sportident/src/SiDevice/testUtils/index.ts</title>
<g id="a_node6"><a xlink:href="packages/sportident/src/SiDevice/testUtils/index.ts" xlink:title="index.ts">
<path fill="#ddfeff" stroke="black" d="M96,-151C96,-151 54,-151 54,-151 51,-151 48,-148 48,-145 48,-145 48,-139 48,-139 48,-136 51,-133 54,-133 54,-133 96,-133 96,-133 99,-133 102,-136 102,-139 102,-139 102,-145 102,-145 102,-148 99,-151 96,-151"/>
<text text-anchor="start" x="56.5" y="-139.8" font-family="Helvetica,sans-Serif" font-size="9.00">index.ts</text>
</a>
</g>
</g>
<!-- packages/sportident/src/SiDevice/testUtils/testISiDeviceDriver.ts -->
<g id="node7" class="node">
<title>packages/sportident/src/SiDevice/testUtils/testISiDeviceDriver.ts</title>
<g id="a_node7"><a xlink:href="packages/sportident/src/SiDevice/testUtils/testISiDeviceDriver.ts" xlink:title="testISiDeviceDriver.ts">
<path fill="#ddfeff" stroke="black" d="M264.5,-166C264.5,-166 163.5,-166 163.5,-166 160.5,-166 157.5,-163 157.5,-160 157.5,-160 157.5,-154 157.5,-154 157.5,-151 160.5,-148 163.5,-148 163.5,-148 264.5,-148 264.5,-148 267.5,-148 270.5,-151 270.5,-154 270.5,-154 270.5,-160 270.5,-160 270.5,-163 267.5,-166 264.5,-166"/>
<text text-anchor="start" x="165.5" y="-154.8" font-family="Helvetica,sans-Serif" font-size="9.00">testISiDeviceDriver.ts</text>
</a>
</g>
</g>
<!-- packages/sportident/src/SiDevice/testUtils/index.ts&#45;&gt;packages/sportident/src/SiDevice/testUtils/testISiDeviceDriver.ts -->
<g id="edge8" class="edge">
<title>packages/sportident/src/SiDevice/testUtils/index.ts&#45;&gt;packages/sportident/src/SiDevice/testUtils/testISiDeviceDriver.ts</title>
<path fill="none" stroke="#000000" stroke-width="2" stroke-opacity="0.200000" d="M102.09,-144.86C115.99,-146.38 133.73,-148.32 150.92,-150.2"/>
<polygon fill="#000000" fill-opacity="0.200000" stroke="#000000" stroke-width="2" stroke-opacity="0.200000" points="156.99,-152.98 151.26,-150.24 157.45,-148.81 156.99,-152.98"/>
</g>
<!-- packages/sportident/src/SiDevice/testUtils/testISiDeviceDriverWithAutodetection.ts -->
<g id="node8" class="node">
<title>packages/sportident/src/SiDevice/testUtils/testISiDeviceDriverWithAutodetection.ts</title>
<g id="a_node8"><a xlink:href="packages/sportident/src/SiDevice/testUtils/testISiDeviceDriverWithAutodetection.ts" xlink:title="testISiDeviceDriverWithAutodetection.ts">
<path fill="#ddfeff" stroke="black" d="M307,-136C307,-136 121,-136 121,-136 118,-136 115,-133 115,-130 115,-130 115,-124 115,-124 115,-121 118,-118 121,-118 121,-118 307,-118 307,-118 310,-118 313,-121 313,-124 313,-124 313,-130 313,-130 313,-133 310,-136 307,-136"/>
<text text-anchor="start" x="123" y="-124.8" font-family="Helvetica,sans-Serif" font-size="9.00">testISiDeviceDriverWithAutodetection.ts</text>
</a>
</g>
</g>
<!-- packages/sportident/src/SiDevice/testUtils/index.ts&#45;&gt;packages/sportident/src/SiDevice/testUtils/testISiDeviceDriverWithAutodetection.ts -->
<g id="edge9" class="edge">
<title>packages/sportident/src/SiDevice/testUtils/index.ts&#45;&gt;packages/sportident/src/SiDevice/testUtils/testISiDeviceDriverWithAutodetection.ts</title>
<path fill="none" stroke="#000000" stroke-width="2" stroke-opacity="0.200000" d="M102.09,-139.14C108.83,-138.4 116.48,-137.57 124.53,-136.69"/>
<polygon fill="#000000" fill-opacity="0.200000" stroke="#000000" stroke-width="2" stroke-opacity="0.200000" points="130.99,-138.09 124.79,-136.66 130.53,-133.92 130.99,-138.09"/>
</g>
</g>
</svg>
