<?xml version="1.0" encoding="UTF-8" standalone="no"?>
<!DOCTYPE svg PUBLIC "-//W3C//DTD SVG 1.1//EN"
 "http://www.w3.org/Graphics/SVG/1.1/DTD/svg11.dtd">
<!-- Generated by graphviz version 2.38.0 (20140413.2041)
 -->
<!-- Title: dependency&#45;cruiser output Pages: 1 -->
<svg width="558pt" height="1248pt"
 viewBox="0.00 0.00 558.00 1248.34" xmlns="http://www.w3.org/2000/svg" xmlns:xlink="http://www.w3.org/1999/xlink">
<g id="graph0" class="graph" transform="scale(1 1) rotate(0) translate(4 1244.34)">
<title>dependency&#45;cruiser output</title>
<polygon fill="white" stroke="none" points="-4,4 -4,-1244.34 554,-1244.34 554,4 -4,4"/>
<g id="clust1" class="cluster"><title>cluster_node_modules</title>
<path fill="#ffffff" stroke="black" stroke-width="2" d="M462,-78.3376C462,-78.3376 531,-78.3376 531,-78.3376 537,-78.3376 543,-84.3376 543,-90.3376 543,-90.3376 543,-152.338 543,-152.338 543,-158.338 537,-164.338 531,-164.338 531,-164.338 462,-164.338 462,-164.338 456,-164.338 450,-158.338 450,-152.338 450,-152.338 450,-90.3376 450,-90.3376 450,-84.3376 456,-78.3376 462,-78.3376"/>
<text text-anchor="middle" x="496.5" y="-153.138" font-family="Helvetica,sans-Serif" font-weight="bold" font-size="9.00">node_modules</text>
</g>
<g id="clust2" class="cluster"><title>cluster_node_modules/lodash</title>
<path fill="#ffffff" stroke="black" stroke-width="2" d="M471,-86.3376C471,-86.3376 522,-86.3376 522,-86.3376 528,-86.3376 534,-92.3376 534,-98.3376 534,-98.3376 534,-126.338 534,-126.338 534,-132.338 528,-138.338 522,-138.338 522,-138.338 471,-138.338 471,-138.338 465,-138.338 459,-132.338 459,-126.338 459,-126.338 459,-98.3376 459,-98.3376 459,-92.3376 465,-86.3376 471,-86.3376"/>
<text text-anchor="middle" x="496.5" y="-127.138" font-family="Helvetica,sans-Serif" font-weight="bold" font-size="9.00">lodash</text>
</g>
<g id="clust3" class="cluster"><title>cluster_src</title>
<path fill="#ffffff" stroke="black" stroke-width="2" d="M20,-172.338C20,-172.338 529.5,-172.338 529.5,-172.338 535.5,-172.338 541.5,-178.338 541.5,-184.338 541.5,-184.338 541.5,-1220.34 541.5,-1220.34 541.5,-1226.34 535.5,-1232.34 529.5,-1232.34 529.5,-1232.34 20,-1232.34 20,-1232.34 14,-1232.34 8,-1226.34 8,-1220.34 8,-1220.34 8,-184.338 8,-184.338 8,-178.338 14,-172.338 20,-172.338"/>
<text text-anchor="middle" x="274.75" y="-1221.14" font-family="Helvetica,sans-Serif" font-weight="bold" font-size="9.00">src</text>
</g>
<g id="clust4" class="cluster"><title>cluster_src/SiCard</title>
<path fill="#ffffff" stroke="black" stroke-width="2" d="M28,-180.338C28,-180.338 422.5,-180.338 422.5,-180.338 428.5,-180.338 434.5,-186.338 434.5,-192.338 434.5,-192.338 434.5,-874.338 434.5,-874.338 434.5,-880.338 428.5,-886.338 422.5,-886.338 422.5,-886.338 28,-886.338 28,-886.338 22,-886.338 16,-880.338 16,-874.338 16,-874.338 16,-192.338 16,-192.338 16,-186.338 22,-180.338 28,-180.338"/>
<text text-anchor="middle" x="225.25" y="-875.138" font-family="Helvetica,sans-Serif" font-weight="bold" font-size="9.00">SiCard</text>
</g>
<g id="clust5" class="cluster"><title>cluster_src/SiCard/types</title>
<path fill="#ffffff" stroke="black" stroke-width="2" d="M36,-362.338C36,-362.338 414.5,-362.338 414.5,-362.338 420.5,-362.338 426.5,-368.338 426.5,-374.338 426.5,-374.338 426.5,-822.338 426.5,-822.338 426.5,-828.338 420.5,-834.338 414.5,-834.338 414.5,-834.338 36,-834.338 36,-834.338 30,-834.338 24,-828.338 24,-822.338 24,-822.338 24,-374.338 24,-374.338 24,-368.338 30,-362.338 36,-362.338"/>
<text text-anchor="middle" x="225.25" y="-823.138" font-family="Helvetica,sans-Serif" font-weight="bold" font-size="9.00">types</text>
</g>
<g id="clust6" class="cluster"><title>cluster_src/simulation</title>
<path fill="#ffffff" stroke="black" stroke-width="2" d="M270,-966.338C270,-966.338 430,-966.338 430,-966.338 436,-966.338 442,-972.338 442,-978.338 442,-978.338 442,-1194.34 442,-1194.34 442,-1200.34 436,-1206.34 430,-1206.34 430,-1206.34 270,-1206.34 270,-1206.34 264,-1206.34 258,-1200.34 258,-1194.34 258,-1194.34 258,-978.338 258,-978.338 258,-972.338 264,-966.338 270,-966.338"/>
<text text-anchor="middle" x="350" y="-1195.14" font-family="Helvetica,sans-Serif" font-weight="bold" font-size="9.00">simulation</text>
</g>
<g id="clust7" class="cluster"><title>cluster_src/simulation/SiCardSimulator</title>
<path fill="#ffffff" stroke="black" stroke-width="2" d="M278,-974.338C278,-974.338 422,-974.338 422,-974.338 428,-974.338 434,-980.338 434,-986.338 434,-986.338 434,-1168.34 434,-1168.34 434,-1174.34 428,-1180.34 422,-1180.34 422,-1180.34 278,-1180.34 278,-1180.34 272,-1180.34 266,-1174.34 266,-1168.34 266,-1168.34 266,-986.338 266,-986.338 266,-980.338 272,-974.338 278,-974.338"/>
<text text-anchor="middle" x="350" y="-1169.14" font-family="Helvetica,sans-Serif" font-weight="bold" font-size="9.00">SiCardSimulator</text>
</g>
<g id="clust8" class="cluster"><title>cluster_src/simulation/SiCardSimulator/types</title>
<path fill="#ffffff" stroke="black" stroke-width="2" d="M286,-982.338C286,-982.338 414,-982.338 414,-982.338 420,-982.338 426,-988.338 426,-994.338 426,-994.338 426,-1142.34 426,-1142.34 426,-1148.34 420,-1154.34 414,-1154.34 414,-1154.34 286,-1154.34 286,-1154.34 280,-1154.34 274,-1148.34 274,-1142.34 274,-1142.34 274,-994.338 274,-994.338 274,-988.338 280,-982.338 286,-982.338"/>
<text text-anchor="middle" x="350" y="-1143.14" font-family="Helvetica,sans-Serif" font-weight="bold" font-size="9.00">types</text>
</g>
<g id="clust9" class="cluster"><title>cluster_src/storage</title>
<path fill="#ffffff" stroke="black" stroke-width="2" d="M473.5,-265.338C473.5,-265.338 519.5,-265.338 519.5,-265.338 525.5,-265.338 531.5,-271.338 531.5,-277.338 531.5,-277.338 531.5,-305.338 531.5,-305.338 531.5,-311.338 525.5,-317.338 519.5,-317.338 519.5,-317.338 473.5,-317.338 473.5,-317.338 467.5,-317.338 461.5,-311.338 461.5,-305.338 461.5,-305.338 461.5,-277.338 461.5,-277.338 461.5,-271.338 467.5,-265.338 473.5,-265.338"/>
<text text-anchor="middle" x="496.5" y="-306.138" font-family="Helvetica,sans-Serif" font-weight="bold" font-size="9.00">storage</text>
</g>
<g id="clust10" class="cluster"><title>cluster_src/utils</title>
<path fill="#ffffff" stroke="black" stroke-width="2" d="M473.5,-326.338C473.5,-326.338 519.5,-326.338 519.5,-326.338 525.5,-326.338 531.5,-332.338 531.5,-338.338 531.5,-338.338 531.5,-366.338 531.5,-366.338 531.5,-372.338 525.5,-378.338 519.5,-378.338 519.5,-378.338 473.5,-378.338 473.5,-378.338 467.5,-378.338 461.5,-372.338 461.5,-366.338 461.5,-366.338 461.5,-338.338 461.5,-338.338 461.5,-332.338 467.5,-326.338 473.5,-326.338"/>
<text text-anchor="middle" x="496.5" y="-367.138" font-family="Helvetica,sans-Serif" font-weight="bold" font-size="9.00">utils</text>
</g>
<!-- node_modules/lodash/lodash.js -->
<g id="node1" class="node"><title>node_modules/lodash/lodash.js</title>
<g id="a_node1"><a xlink:href="node_modules/lodash/lodash.js" xlink:title="lodash.js">
<polygon fill="#c40b0a" fill-opacity="0.101961" stroke="black" points="526,-112.338 524.5,-114.338 514,-114.338 512.5,-112.338 467,-112.338 467,-94.3376 526,-94.3376 526,-112.338"/>
<text text-anchor="middle" x="496.5" y="-101.138" font-family="Helvetica,sans-Serif" font-size="9.00" fill="#c40b0a">lodash.js</text>
</a>
</g>
</g>
<!-- src/SiCard/BaseSiCard.js -->
<g id="node2" class="node"><title>src/SiCard/BaseSiCard.js</title>
<g id="a_node2"><a xlink:href="src/SiCard/BaseSiCard.js" xlink:title="BaseSiCard.js">
<path fill="#ffffcc" stroke="black" d="M384,-354.338C384,-354.338 316,-354.338 316,-354.338 313,-354.338 310,-351.338 310,-348.338 310,-348.338 310,-342.338 310,-342.338 310,-339.338 313,-336.338 316,-336.338 316,-336.338 384,-336.338 384,-336.338 387,-336.338 390,-339.338 390,-342.338 390,-342.338 390,-348.338 390,-348.338 390,-351.338 387,-354.338 384,-354.338"/>
<text text-anchor="middle" x="350" y="-343.138" font-family="Helvetica,sans-Serif" font-size="9.00">BaseSiCard.js</text>
</a>
</g>
</g>
<!-- src/SiCard/BaseSiCard.js&#45;&gt;node_modules/lodash/lodash.js -->
<g id="edge4" class="edge"><title>src/SiCard/BaseSiCard.js&#45;&gt;node_modules/lodash/lodash.js</title>
<path fill="none" stroke="#000000" stroke-width="2" stroke-opacity="0.466667" d="M359.097,-336.136C376.034,-316.578 415.798,-269 442,-224.338 462.249,-189.823 479.715,-146.246 488.808,-121.926"/>
<polygon fill="#000000" fill-opacity="0.466667" stroke="#000000" stroke-width="2" stroke-opacity="0.466667" points="492.113,-123.08 492.277,-112.487 485.542,-120.666 492.113,-123.08"/>
</g>
<!-- src/constants.js -->
<g id="node34" class="node"><title>src/constants.js</title>
<g id="a_node34"><a xlink:href="src/constants.js" xlink:title="constants.js">
<path fill="#ffffcc" stroke="black" d="M527.5,-866.338C527.5,-866.338 465.5,-866.338 465.5,-866.338 462.5,-866.338 459.5,-863.338 459.5,-860.338 459.5,-860.338 459.5,-854.338 459.5,-854.338 459.5,-851.338 462.5,-848.338 465.5,-848.338 465.5,-848.338 527.5,-848.338 527.5,-848.338 530.5,-848.338 533.5,-851.338 533.5,-854.338 533.5,-854.338 533.5,-860.338 533.5,-860.338 533.5,-863.338 530.5,-866.338 527.5,-866.338"/>
<text text-anchor="middle" x="496.5" y="-855.138" font-family="Helvetica,sans-Serif" font-size="9.00">constants.js</text>
</a>
</g>
</g>
<!-- src/SiCard/BaseSiCard.js&#45;&gt;src/constants.js -->
<g id="edge1" class="edge"><title>src/SiCard/BaseSiCard.js&#45;&gt;src/constants.js</title>
<path fill="none" stroke="#000000" stroke-width="2" stroke-opacity="0.466667" d="M390.017,-340.814C408.523,-340.977 429.312,-344.953 442,-359.338 452.698,-371.466 448.033,-634.285 450,-650.338 458.598,-720.506 479.918,-801.942 490.021,-838.213"/>
<polygon fill="#000000" fill-opacity="0.466667" stroke="#000000" stroke-width="2" stroke-opacity="0.466667" points="486.687,-839.283 492.77,-847.957 493.424,-837.382 486.687,-839.283"/>
</g>
<!-- src/siProtocol.js -->
<g id="node35" class="node"><title>src/siProtocol.js</title>
<g id="a_node35"><a xlink:href="src/siProtocol.js" xlink:title="siProtocol.js">
<path fill="#ffffcc" stroke="black" d="M527.5,-644.338C527.5,-644.338 465.5,-644.338 465.5,-644.338 462.5,-644.338 459.5,-641.338 459.5,-638.338 459.5,-638.338 459.5,-632.338 459.5,-632.338 459.5,-629.338 462.5,-626.338 465.5,-626.338 465.5,-626.338 527.5,-626.338 527.5,-626.338 530.5,-626.338 533.5,-629.338 533.5,-632.338 533.5,-632.338 533.5,-638.338 533.5,-638.338 533.5,-641.338 530.5,-644.338 527.5,-644.338"/>
<text text-anchor="middle" x="496.5" y="-633.138" font-family="Helvetica,sans-Serif" font-size="9.00">siProtocol.js</text>
</a>
</g>
</g>
<!-- src/SiCard/BaseSiCard.js&#45;&gt;src/siProtocol.js -->
<g id="edge2" class="edge"><title>src/SiCard/BaseSiCard.js&#45;&gt;src/siProtocol.js</title>
<path fill="none" stroke="#000000" stroke-width="2" stroke-opacity="0.466667" d="M390.43,-341.771C408.355,-342.334 428.522,-346.373 442,-359.338 451.398,-368.377 482.393,-554.695 492.374,-615.984"/>
<polygon fill="#000000" fill-opacity="0.466667" stroke="#000000" stroke-width="2" stroke-opacity="0.466667" points="488.974,-616.884 494.03,-626.195 495.884,-615.763 488.974,-616.884"/>
</g>
<!-- src/utils/index.js -->
<g id="node43" class="node"><title>src/utils/index.js</title>
<g id="a_node43"><a xlink:href="src/utils/index.js" xlink:title="index.js">
<path fill="#ffffcc" stroke="black" d="M517.5,-352.338C517.5,-352.338 475.5,-352.338 475.5,-352.338 472.5,-352.338 469.5,-349.338 469.5,-346.338 469.5,-346.338 469.5,-340.338 469.5,-340.338 469.5,-337.338 472.5,-334.338 475.5,-334.338 475.5,-334.338 517.5,-334.338 517.5,-334.338 520.5,-334.338 523.5,-337.338 523.5,-340.338 523.5,-340.338 523.5,-346.338 523.5,-346.338 523.5,-349.338 520.5,-352.338 517.5,-352.338"/>
<text text-anchor="middle" x="496.5" y="-341.138" font-family="Helvetica,sans-Serif" font-size="9.00">index.js</text>
</a>
</g>
</g>
<!-- src/SiCard/BaseSiCard.js&#45;&gt;src/utils/index.js -->
<g id="edge3" class="edge"><title>src/SiCard/BaseSiCard.js&#45;&gt;src/utils/index.js</title>
<path fill="none" stroke="#000000" stroke-width="2" stroke-opacity="0.466667" d="M390.104,-344.796C411.554,-344.5 437.982,-344.134 459.007,-343.843"/>
<polygon fill="#000000" fill-opacity="0.466667" stroke="#000000" stroke-width="2" stroke-opacity="0.466667" points="459.201,-347.34 469.151,-343.702 459.104,-340.341 459.201,-347.34"/>
</g>
<!-- src/SiCard/BaseSiCard.test.js -->
<g id="node3" class="node"><title>src/SiCard/BaseSiCard.test.js</title>
<g id="a_node3"><a xlink:href="src/SiCard/BaseSiCard.test.js" xlink:title="BaseSiCard.test.js">
<path fill="#ffffcc" stroke="black" d="M238,-860.338C238,-860.338 148,-860.338 148,-860.338 145,-860.338 142,-857.338 142,-854.338 142,-854.338 142,-848.338 142,-848.338 142,-845.338 145,-842.338 148,-842.338 148,-842.338 238,-842.338 238,-842.338 241,-842.338 244,-845.338 244,-848.338 244,-848.338 244,-854.338 244,-854.338 244,-857.338 241,-860.338 238,-860.338"/>
<text text-anchor="middle" x="193" y="-849.138" font-family="Helvetica,sans-Serif" font-size="9.00">BaseSiCard.test.js</text>
</a>
</g>
</g>
<!-- src/SiCard/BaseSiCard.test.js&#45;&gt;src/SiCard/BaseSiCard.js -->
<g id="edge9" class="edge"><title>src/SiCard/BaseSiCard.test.js&#45;&gt;src/SiCard/BaseSiCard.js</title>
<path fill="none" stroke="#000000" stroke-width="2" stroke-opacity="0.466667" d="M244.46,-842.682C246.51,-841.148 248.379,-839.378 250,-837.338 266.519,-816.541 240.538,-379.35 258,-359.338 268.345,-347.482 284.189,-342.673 299.774,-341.246"/>
<polygon fill="#000000" fill-opacity="0.466667" stroke="#000000" stroke-width="2" stroke-opacity="0.466667" points="300.098,-344.734 309.917,-340.756 299.76,-337.743 300.098,-344.734"/>
</g>
<!-- src/SiCard/BaseSiCard.test.js&#45;&gt;src/constants.js -->
<g id="edge5" class="edge"><title>src/SiCard/BaseSiCard.test.js&#45;&gt;src/constants.js</title>
<path fill="none" stroke="#000000" stroke-width="2" stroke-opacity="0.466667" d="M244.125,-852.335C301.228,-853.472 393.781,-855.313 449.228,-856.417"/>
<polygon fill="#000000" fill-opacity="0.466667" stroke="#000000" stroke-width="2" stroke-opacity="0.466667" points="449.399,-859.921 459.467,-856.621 449.539,-852.922 449.399,-859.921"/>
</g>
<!-- src/SiCard/BaseSiCard.test.js&#45;&gt;src/siProtocol.js -->
<g id="edge6" class="edge"><title>src/SiCard/BaseSiCard.test.js&#45;&gt;src/siProtocol.js</title>
<path fill="none" stroke="#000000" stroke-width="2" stroke-opacity="0.466667" d="M244.021,-850.007C314.263,-847.925 434.46,-843.487 442,-837.338 470.51,-814.087 487.425,-700.893 493.223,-654.862"/>
<polygon fill="#000000" fill-opacity="0.466667" stroke="#000000" stroke-width="2" stroke-opacity="0.466667" points="496.726,-655.051 494.458,-644.702 489.777,-654.206 496.726,-655.051"/>
</g>
<!-- src/storage/index.js -->
<g id="node41" class="node"><title>src/storage/index.js</title>
<g id="a_node41"><a xlink:href="src/storage/index.js" xlink:title="index.js">
<path fill="#ffffcc" stroke="black" d="M517.5,-291.338C517.5,-291.338 475.5,-291.338 475.5,-291.338 472.5,-291.338 469.5,-288.338 469.5,-285.338 469.5,-285.338 469.5,-279.338 469.5,-279.338 469.5,-276.338 472.5,-273.338 475.5,-273.338 475.5,-273.338 517.5,-273.338 517.5,-273.338 520.5,-273.338 523.5,-276.338 523.5,-279.338 523.5,-279.338 523.5,-285.338 523.5,-285.338 523.5,-288.338 520.5,-291.338 517.5,-291.338"/>
<text text-anchor="middle" x="496.5" y="-280.138" font-family="Helvetica,sans-Serif" font-size="9.00">index.js</text>
</a>
</g>
</g>
<!-- src/SiCard/BaseSiCard.test.js&#45;&gt;src/storage/index.js -->
<g id="edge7" class="edge"><title>src/SiCard/BaseSiCard.test.js&#45;&gt;src/storage/index.js</title>
<path fill="none" stroke="#000000" stroke-width="2" stroke-opacity="0.466667" d="M244.462,-842.684C246.512,-841.15 248.38,-839.379 250,-837.338 267.511,-815.271 239.528,-351.606 258,-330.338 285.142,-299.085 401.881,-311.53 442,-301.338 448.932,-299.577 456.233,-297.287 463.136,-294.911"/>
<polygon fill="#000000" fill-opacity="0.466667" stroke="#000000" stroke-width="2" stroke-opacity="0.466667" points="464.645,-298.088 472.877,-291.418 462.282,-291.499 464.645,-298.088"/>
</g>
<!-- src/testUtils.js -->
<g id="node42" class="node"><title>src/testUtils.js</title>
<g id="a_node42"><a xlink:href="src/testUtils.js" xlink:title="testUtils.js">
<path fill="#ffffcc" stroke="black" d="M377,-930.338C377,-930.338 323,-930.338 323,-930.338 320,-930.338 317,-927.338 317,-924.338 317,-924.338 317,-918.338 317,-918.338 317,-915.338 320,-912.338 323,-912.338 323,-912.338 377,-912.338 377,-912.338 380,-912.338 383,-915.338 383,-918.338 383,-918.338 383,-924.338 383,-924.338 383,-927.338 380,-930.338 377,-930.338"/>
<text text-anchor="middle" x="350" y="-919.138" font-family="Helvetica,sans-Serif" font-size="9.00">testUtils.js</text>
</a>
</g>
</g>
<!-- src/SiCard/BaseSiCard.test.js&#45;&gt;src/testUtils.js -->
<g id="edge8" class="edge"><title>src/SiCard/BaseSiCard.test.js&#45;&gt;src/testUtils.js</title>
<path fill="none" stroke="#000000" stroke-width="2" stroke-opacity="0.466667" d="M244.02,-859.86C246.155,-861.162 248.165,-862.647 250,-864.338 258.579,-872.244 249.869,-880.972 258,-889.338 270.977,-902.689 289.846,-910.479 307.042,-915.02"/>
<polygon fill="#000000" fill-opacity="0.466667" stroke="#000000" stroke-width="2" stroke-opacity="0.466667" points="306.381,-918.46 316.916,-917.336 307.979,-911.645 306.381,-918.46"/>
</g>
<!-- src/SiCard/index.js -->
<g id="node4" class="node"><title>src/SiCard/index.js</title>
<g id="a_node4"><a xlink:href="src/SiCard/index.js" xlink:title="index.js">
<path fill="#ffffcc" stroke="black" d="M98.5,-280.338C98.5,-280.338 56.5,-280.338 56.5,-280.338 53.5,-280.338 50.5,-277.338 50.5,-274.338 50.5,-274.338 50.5,-268.338 50.5,-268.338 50.5,-265.338 53.5,-262.338 56.5,-262.338 56.5,-262.338 98.5,-262.338 98.5,-262.338 101.5,-262.338 104.5,-265.338 104.5,-268.338 104.5,-268.338 104.5,-274.338 104.5,-274.338 104.5,-277.338 101.5,-280.338 98.5,-280.338"/>
<text text-anchor="middle" x="77.5" y="-269.138" font-family="Helvetica,sans-Serif" font-size="9.00">index.js</text>
</a>
</g>
</g>
<!-- src/SiCard/index.js&#45;&gt;src/SiCard/BaseSiCard.js -->
<g id="edge10" class="edge"><title>src/SiCard/index.js&#45;&gt;src/SiCard/BaseSiCard.js</title>
<path fill="none" stroke="#000000" stroke-width="2" stroke-opacity="0.466667" d="M82.5709,-262.2C90.3007,-246.137 108.798,-213.311 136,-200.338 181.731,-178.526 205.197,-176.678 250,-200.338 301.097,-227.321 330.805,-293.853 342.783,-326.565"/>
<polygon fill="#000000" fill-opacity="0.466667" stroke="#000000" stroke-width="2" stroke-opacity="0.466667" points="339.567,-327.971 346.17,-336.256 346.175,-325.661 339.567,-327.971"/>
</g>
<!-- src/SiCard/types/index.js -->
<g id="node27" class="node"><title>src/SiCard/types/index.js</title>
<g id="a_node27"><a xlink:href="src/SiCard/types/index.js" xlink:title="index.js">
<path fill="#ffffcc" stroke="black" d="M214,-388.338C214,-388.338 172,-388.338 172,-388.338 169,-388.338 166,-385.338 166,-382.338 166,-382.338 166,-376.338 166,-376.338 166,-373.338 169,-370.338 172,-370.338 172,-370.338 214,-370.338 214,-370.338 217,-370.338 220,-373.338 220,-376.338 220,-376.338 220,-382.338 220,-382.338 220,-385.338 217,-388.338 214,-388.338"/>
<text text-anchor="middle" x="193" y="-377.138" font-family="Helvetica,sans-Serif" font-size="9.00">index.js</text>
</a>
</g>
</g>
<!-- src/SiCard/index.js&#45;&gt;src/SiCard/types/index.js -->
<g id="edge11" class="edge"><title>src/SiCard/index.js&#45;&gt;src/SiCard/types/index.js</title>
<path fill="none" stroke="#000000" stroke-width="2" stroke-opacity="0.466667" d="M81.355,-280.597C87.7766,-299.805 105.252,-344.045 136,-366.338 141.809,-370.549 148.772,-373.421 155.782,-375.372"/>
<polygon fill="#000000" fill-opacity="0.466667" stroke="#000000" stroke-width="2" stroke-opacity="0.466667" points="155.438,-378.881 165.958,-377.623 156.95,-372.046 155.438,-378.881"/>
</g>
<!-- src/SiCard/types/FCard.js -->
<g id="node5" class="node"><title>src/SiCard/types/FCard.js</title>
<g id="a_node5"><a xlink:href="src/SiCard/types/FCard.js" xlink:title="FCard.js">
<path fill="#ffffcc" stroke="black" d="M214,-418.338C214,-418.338 172,-418.338 172,-418.338 169,-418.338 166,-415.338 166,-412.338 166,-412.338 166,-406.338 166,-406.338 166,-403.338 169,-400.338 172,-400.338 172,-400.338 214,-400.338 214,-400.338 217,-400.338 220,-403.338 220,-406.338 220,-406.338 220,-412.338 220,-412.338 220,-415.338 217,-418.338 214,-418.338"/>
<text text-anchor="middle" x="193" y="-407.138" font-family="Helvetica,sans-Serif" font-size="9.00">FCard.js</text>
</a>
</g>
</g>
<!-- src/SiCard/types/FCard.js&#45;&gt;src/SiCard/BaseSiCard.js -->
<g id="edge12" class="edge"><title>src/SiCard/types/FCard.js&#45;&gt;src/SiCard/BaseSiCard.js</title>
<path fill="none" stroke="#000000" stroke-width="2" stroke-opacity="0.466667" d="M220.084,-408.095C230.69,-406.271 242.248,-402.382 250,-394.338 261.072,-382.848 246.318,-370.207 258,-359.338 269.125,-348.987 284.536,-344.393 299.515,-342.708"/>
<polygon fill="#000000" fill-opacity="0.466667" stroke="#000000" stroke-width="2" stroke-opacity="0.466667" points="300.036,-346.179 309.759,-341.971 299.534,-339.197 300.036,-346.179"/>
</g>
<!-- src/SiCard/types/FCard.test.js -->
<g id="node6" class="node"><title>src/SiCard/types/FCard.test.js</title>
<g id="a_node6"><a xlink:href="src/SiCard/types/FCard.test.js" xlink:title="FCard.test.js">
<path fill="#ffffcc" stroke="black" d="M109.5,-448.338C109.5,-448.338 45.5,-448.338 45.5,-448.338 42.5,-448.338 39.5,-445.338 39.5,-442.338 39.5,-442.338 39.5,-436.338 39.5,-436.338 39.5,-433.338 42.5,-430.338 45.5,-430.338 45.5,-430.338 109.5,-430.338 109.5,-430.338 112.5,-430.338 115.5,-433.338 115.5,-436.338 115.5,-436.338 115.5,-442.338 115.5,-442.338 115.5,-445.338 112.5,-448.338 109.5,-448.338"/>
<text text-anchor="middle" x="77.5" y="-437.138" font-family="Helvetica,sans-Serif" font-size="9.00">FCard.test.js</text>
</a>
</g>
</g>
<!-- src/SiCard/types/FCard.test.js&#45;&gt;src/SiCard/BaseSiCard.js -->
<g id="edge13" class="edge"><title>src/SiCard/types/FCard.test.js&#45;&gt;src/SiCard/BaseSiCard.js</title>
<path fill="none" stroke="#000000" stroke-width="2" stroke-opacity="0.466667" d="M115.819,-430.831C118.547,-429.057 121.005,-426.917 123,-424.338 147.941,-392.088 106.168,-269.126 136,-241.338 154.537,-224.071 226.716,-231.356 250,-241.338 290.857,-258.854 322.832,-302.432 338.473,-327.263"/>
<polygon fill="#000000" fill-opacity="0.466667" stroke="#000000" stroke-width="2" stroke-opacity="0.466667" points="335.634,-329.331 343.821,-336.056 341.615,-325.693 335.634,-329.331"/>
</g>
<!-- src/SiCard/types/FCard.test.js&#45;&gt;src/SiCard/types/FCard.js -->
<g id="edge14" class="edge"><title>src/SiCard/types/FCard.test.js&#45;&gt;src/SiCard/types/FCard.js</title>
<path fill="none" stroke="#000000" stroke-width="2" stroke-opacity="0.466667" d="M112.554,-430.337C126.32,-426.698 142.22,-422.495 156.162,-418.81"/>
<polygon fill="#000000" fill-opacity="0.466667" stroke="#000000" stroke-width="2" stroke-opacity="0.466667" points="157.136,-422.173 165.91,-416.234 155.347,-415.405 157.136,-422.173"/>
</g>
<!-- src/SiCard/types/ModernSiCard.js -->
<g id="node7" class="node"><title>src/SiCard/types/ModernSiCard.js</title>
<g id="a_node7"><a xlink:href="src/SiCard/types/ModernSiCard.js" xlink:title="ModernSiCard.js">
<path fill="#ffffcc" stroke="black" d="M390,-568.338C390,-568.338 310,-568.338 310,-568.338 307,-568.338 304,-565.338 304,-562.338 304,-562.338 304,-556.338 304,-556.338 304,-553.338 307,-550.338 310,-550.338 310,-550.338 390,-550.338 390,-550.338 393,-550.338 396,-553.338 396,-556.338 396,-556.338 396,-562.338 396,-562.338 396,-565.338 393,-568.338 390,-568.338"/>
<text text-anchor="middle" x="350" y="-557.138" font-family="Helvetica,sans-Serif" font-size="9.00">ModernSiCard.js</text>
</a>
</g>
</g>
<!-- src/SiCard/types/ModernSiCard.js&#45;&gt;src/SiCard/BaseSiCard.js -->
<g id="edge18" class="edge"><title>src/SiCard/types/ModernSiCard.js&#45;&gt;src/SiCard/BaseSiCard.js</title>
<path fill="none" stroke="#000000" stroke-width="2" stroke-opacity="0.466667" d="M350,-550.137C350,-488.374 350,-426.611 350,-364.848"/>
<polygon fill="#000000" fill-opacity="0.466667" stroke="#000000" stroke-width="2" stroke-opacity="0.466667" points="353.5,-364.533 350,-354.533 346.5,-364.533 353.5,-364.533"/>
</g>
<!-- src/SiCard/types/ModernSiCard.js&#45;&gt;src/constants.js -->
<g id="edge15" class="edge"><title>src/SiCard/types/ModernSiCard.js&#45;&gt;src/constants.js</title>
<path fill="none" stroke="#000000" stroke-width="2" stroke-opacity="0.466667" d="M396.433,-561.483C413.107,-564.639 430.658,-571.186 442,-584.338 451.649,-595.526 447.522,-635.773 450,-650.338 461.86,-720.057 481.558,-801.768 490.64,-838.166"/>
<polygon fill="#000000" fill-opacity="0.466667" stroke="#000000" stroke-width="2" stroke-opacity="0.466667" points="487.36,-839.474 493.193,-848.319 494.149,-837.767 487.36,-839.474"/>
</g>
<!-- src/SiCard/types/ModernSiCard.js&#45;&gt;src/siProtocol.js -->
<g id="edge16" class="edge"><title>src/SiCard/types/ModernSiCard.js&#45;&gt;src/siProtocol.js</title>
<path fill="none" stroke="#000000" stroke-width="2" stroke-opacity="0.466667" d="M396.233,-567.118C411.414,-570.916 428.025,-576.432 442,-584.338 457.309,-592.997 471.561,-607.004 481.499,-618.149"/>
<polygon fill="#000000" fill-opacity="0.466667" stroke="#000000" stroke-width="2" stroke-opacity="0.466667" points="479.042,-620.66 488.205,-625.978 484.358,-616.106 479.042,-620.66"/>
</g>
<!-- src/SiCard/types/ModernSiCard.js&#45;&gt;src/storage/index.js -->
<g id="edge17" class="edge"><title>src/SiCard/types/ModernSiCard.js&#45;&gt;src/storage/index.js</title>
<path fill="none" stroke="#000000" stroke-width="2" stroke-opacity="0.466667" d="M396.465,-564.134C413.143,-563.307 430.689,-558.917 442,-546.338 458.578,-527.901 439.515,-345.805 450,-323.338 454.789,-313.076 463.468,-304.256 471.971,-297.455"/>
<polygon fill="#000000" fill-opacity="0.466667" stroke="#000000" stroke-width="2" stroke-opacity="0.466667" points="474.288,-300.095 480.266,-291.348 470.138,-294.458 474.288,-300.095"/>
</g>
<!-- src/SiCard/types/ModernSiCard.test.js -->
<g id="node8" class="node"><title>src/SiCard/types/ModernSiCard.test.js</title>
<g id="a_node8"><a xlink:href="src/SiCard/types/ModernSiCard.test.js" xlink:title="ModernSiCard.test.js">
<path fill="#ffffcc" stroke="black" d="M244,-808.338C244,-808.338 142,-808.338 142,-808.338 139,-808.338 136,-805.338 136,-802.338 136,-802.338 136,-796.338 136,-796.338 136,-793.338 139,-790.338 142,-790.338 142,-790.338 244,-790.338 244,-790.338 247,-790.338 250,-793.338 250,-796.338 250,-796.338 250,-802.338 250,-802.338 250,-805.338 247,-808.338 244,-808.338"/>
<text text-anchor="middle" x="193" y="-797.138" font-family="Helvetica,sans-Serif" font-size="9.00">ModernSiCard.test.js</text>
</a>
</g>
</g>
<!-- src/SiCard/types/ModernSiCard.test.js&#45;&gt;node_modules/lodash/lodash.js -->
<g id="edge25" class="edge"><title>src/SiCard/types/ModernSiCard.test.js&#45;&gt;node_modules/lodash/lodash.js</title>
<path fill="none" stroke="#000000" stroke-width="2" stroke-opacity="0.466667" d="M244.01,-790.123C246.241,-788.474 248.266,-786.559 250,-784.338 266.446,-763.271 245.252,-326.827 258,-303.338 305.037,-216.664 371.562,-248.355 442,-179.338 459.753,-161.943 475.511,-137.967 485.247,-121.626"/>
<polygon fill="#000000" fill-opacity="0.466667" stroke="#000000" stroke-width="2" stroke-opacity="0.466667" points="488.512,-122.973 490.496,-112.566 482.455,-119.464 488.512,-122.973"/>
</g>
<!-- src/SiCard/types/ModernSiCard.test.js&#45;&gt;src/SiCard/types/ModernSiCard.js -->
<g id="edge23" class="edge"><title>src/SiCard/types/ModernSiCard.test.js&#45;&gt;src/SiCard/types/ModernSiCard.js</title>
<path fill="none" stroke="#000000" stroke-width="2" stroke-opacity="0.466667" d="M243.949,-790.074C246.195,-788.438 248.24,-786.539 250,-784.338 263.89,-766.968 244.166,-601.751 258,-584.338 266.857,-573.189 280.188,-566.728 293.934,-563.058"/>
<polygon fill="#000000" fill-opacity="0.466667" stroke="#000000" stroke-width="2" stroke-opacity="0.466667" points="294.945,-566.419 303.959,-560.851 293.44,-559.583 294.945,-566.419"/>
</g>
<!-- src/SiCard/types/modernSiCardExamples.js -->
<g id="node29" class="node"><title>src/SiCard/types/modernSiCardExamples.js</title>
<g id="a_node29"><a xlink:href="src/SiCard/types/modernSiCardExamples.js" xlink:title="modernSiCardExamples.js">
<path fill="#ffffcc" stroke="black" d="M412.5,-608.338C412.5,-608.338 287.5,-608.338 287.5,-608.338 284.5,-608.338 281.5,-605.338 281.5,-602.338 281.5,-602.338 281.5,-596.338 281.5,-596.338 281.5,-593.338 284.5,-590.338 287.5,-590.338 287.5,-590.338 412.5,-590.338 412.5,-590.338 415.5,-590.338 418.5,-593.338 418.5,-596.338 418.5,-596.338 418.5,-602.338 418.5,-602.338 418.5,-605.338 415.5,-608.338 412.5,-608.338"/>
<text text-anchor="middle" x="350" y="-597.138" font-family="Helvetica,sans-Serif" font-size="9.00">modernSiCardExamples.js</text>
</a>
</g>
</g>
<!-- src/SiCard/types/ModernSiCard.test.js&#45;&gt;src/SiCard/types/modernSiCardExamples.js -->
<g id="edge24" class="edge"><title>src/SiCard/types/ModernSiCard.test.js&#45;&gt;src/SiCard/types/modernSiCardExamples.js</title>
<path fill="none" stroke="#000000" stroke-width="2" stroke-opacity="0.466667" d="M243.932,-790.061C246.182,-788.427 248.233,-786.533 250,-784.338 261.997,-769.435 245.132,-626.496 258,-612.338 261.891,-608.056 266.505,-604.727 271.558,-602.166"/>
<polygon fill="#000000" fill-opacity="0.466667" stroke="#000000" stroke-width="2" stroke-opacity="0.466667" points="273.094,-605.321 281.069,-598.345 270.485,-598.825 273.094,-605.321"/>
</g>
<!-- src/SiCard/types/ModernSiCard.test.js&#45;&gt;src/constants.js -->
<g id="edge19" class="edge"><title>src/SiCard/types/ModernSiCard.test.js&#45;&gt;src/constants.js</title>
<path fill="none" stroke="#000000" stroke-width="2" stroke-opacity="0.466667" d="M250.014,-803.411C311.899,-808.347 407.388,-817.381 442,-828.338 452.878,-831.781 464.1,-837.48 473.439,-842.92"/>
<polygon fill="#000000" fill-opacity="0.466667" stroke="#000000" stroke-width="2" stroke-opacity="0.466667" points="471.708,-845.963 482.068,-848.179 475.35,-839.986 471.708,-845.963"/>
</g>
<!-- src/simulation/SiCardSimulator/types/ModernSiCardSimulator.js -->
<g id="node36" class="node"><title>src/simulation/SiCardSimulator/types/ModernSiCardSimulator.js</title>
<g id="a_node36"><a xlink:href="src/simulation/SiCardSimulator/types/ModernSiCardSimulator.js" xlink:title="ModernSiCardSimulator.js">
<path fill="#ffffcc" stroke="black" d="M412,-1008.34C412,-1008.34 288,-1008.34 288,-1008.34 285,-1008.34 282,-1005.34 282,-1002.34 282,-1002.34 282,-996.338 282,-996.338 282,-993.338 285,-990.338 288,-990.338 288,-990.338 412,-990.338 412,-990.338 415,-990.338 418,-993.338 418,-996.338 418,-996.338 418,-1002.34 418,-1002.34 418,-1005.34 415,-1008.34 412,-1008.34"/>
<text text-anchor="middle" x="350" y="-997.138" font-family="Helvetica,sans-Serif" font-size="9.00">ModernSiCardSimulator.js</text>
</a>
</g>
</g>
<!-- src/SiCard/types/ModernSiCard.test.js&#45;&gt;src/simulation/SiCardSimulator/types/ModernSiCardSimulator.js -->
<g id="edge20" class="edge"><title>src/SiCard/types/ModernSiCard.test.js&#45;&gt;src/simulation/SiCardSimulator/types/ModernSiCardSimulator.js</title>
<path fill="none" stroke="#000000" stroke-width="2" stroke-opacity="0.466667" d="M246.228,-808.574C247.586,-809.706 248.85,-810.957 250,-812.338 262.384,-827.211 244.987,-972.012 258,-986.338 262.125,-990.878 267.062,-994.348 272.475,-996.967"/>
<polygon fill="#000000" fill-opacity="0.466667" stroke="#000000" stroke-width="2" stroke-opacity="0.466667" points="271.385,-1000.3 281.975,-1000.61 273.891,-993.761 271.385,-1000.3"/>
</g>
<!-- src/SiCard/types/ModernSiCard.test.js&#45;&gt;src/testUtils.js -->
<g id="edge21" class="edge"><title>src/SiCard/types/ModernSiCard.test.js&#45;&gt;src/testUtils.js</title>
<path fill="none" stroke="#000000" stroke-width="2" stroke-opacity="0.466667" d="M245.035,-808.499C246.793,-809.642 248.459,-810.917 250,-812.338 258.579,-820.244 251.729,-827.5 258,-837.338 276.203,-865.892 306.453,-891.106 327.036,-906.282"/>
<polygon fill="#000000" fill-opacity="0.466667" stroke="#000000" stroke-width="2" stroke-opacity="0.466667" points="325.039,-909.157 335.202,-912.152 329.125,-903.473 325.039,-909.157"/>
</g>
<!-- src/SiCard/types/ModernSiCard.test.js&#45;&gt;src/utils/index.js -->
<g id="edge22" class="edge"><title>src/SiCard/types/ModernSiCard.test.js&#45;&gt;src/utils/index.js</title>
<path fill="none" stroke="#000000" stroke-width="2" stroke-opacity="0.466667" d="M244.009,-790.122C246.24,-788.473 248.265,-786.559 250,-784.338 266.074,-763.756 239.378,-332.646 258,-314.338 272.579,-300.005 422.605,-307.873 442,-314.338 446.216,-315.743 446.224,-317.993 450,-320.338 455.202,-323.569 460.916,-326.733 466.485,-329.631"/>
<polygon fill="#000000" fill-opacity="0.466667" stroke="#000000" stroke-width="2" stroke-opacity="0.466667" points="465.098,-332.851 475.604,-334.221 468.245,-326.599 465.098,-332.851"/>
</g>
<!-- src/SiCard/types/PCard.js -->
<g id="node9" class="node"><title>src/SiCard/types/PCard.js</title>
<g id="a_node9"><a xlink:href="src/SiCard/types/PCard.js" xlink:title="PCard.js">
<path fill="#ffffcc" stroke="black" d="M214.5,-448.338C214.5,-448.338 171.5,-448.338 171.5,-448.338 168.5,-448.338 165.5,-445.338 165.5,-442.338 165.5,-442.338 165.5,-436.338 165.5,-436.338 165.5,-433.338 168.5,-430.338 171.5,-430.338 171.5,-430.338 214.5,-430.338 214.5,-430.338 217.5,-430.338 220.5,-433.338 220.5,-436.338 220.5,-436.338 220.5,-442.338 220.5,-442.338 220.5,-445.338 217.5,-448.338 214.5,-448.338"/>
<text text-anchor="middle" x="193" y="-437.138" font-family="Helvetica,sans-Serif" font-size="9.00">PCard.js</text>
</a>
</g>
</g>
<!-- src/SiCard/types/PCard.js&#45;&gt;src/SiCard/BaseSiCard.js -->
<g id="edge26" class="edge"><title>src/SiCard/types/PCard.js&#45;&gt;src/SiCard/BaseSiCard.js</title>
<path fill="none" stroke="#000000" stroke-width="2" stroke-opacity="0.466667" d="M220.778,-438.418C231.374,-436.636 242.735,-432.692 250,-424.338 269.1,-402.374 237.731,-380.228 258,-359.338 268.672,-348.339 284.114,-343.615 299.256,-342.008"/>
<polygon fill="#000000" fill-opacity="0.466667" stroke="#000000" stroke-width="2" stroke-opacity="0.466667" points="299.869,-345.477 309.629,-341.355 299.429,-338.49 299.869,-345.477"/>
</g>
<!-- src/SiCard/types/PCard.test.js -->
<g id="node10" class="node"><title>src/SiCard/types/PCard.test.js</title>
<g id="a_node10"><a xlink:href="src/SiCard/types/PCard.test.js" xlink:title="PCard.test.js">
<path fill="#ffffcc" stroke="black" d="M110,-478.338C110,-478.338 45,-478.338 45,-478.338 42,-478.338 39,-475.338 39,-472.338 39,-472.338 39,-466.338 39,-466.338 39,-463.338 42,-460.338 45,-460.338 45,-460.338 110,-460.338 110,-460.338 113,-460.338 116,-463.338 116,-466.338 116,-466.338 116,-472.338 116,-472.338 116,-475.338 113,-478.338 110,-478.338"/>
<text text-anchor="middle" x="77.5" y="-467.138" font-family="Helvetica,sans-Serif" font-size="9.00">PCard.test.js</text>
</a>
</g>
</g>
<!-- src/SiCard/types/PCard.test.js&#45;&gt;src/SiCard/BaseSiCard.js -->
<g id="edge27" class="edge"><title>src/SiCard/types/PCard.test.js&#45;&gt;src/SiCard/BaseSiCard.js</title>
<path fill="none" stroke="#000000" stroke-width="2" stroke-opacity="0.466667" d="M116.242,-460.574C118.803,-458.851 121.112,-456.794 123,-454.338 150.012,-419.205 103.658,-285.636 136,-255.338 154.488,-238.018 226.371,-246.203 250,-255.338 287.703,-269.914 319.894,-306.262 336.645,-328.046"/>
<polygon fill="#000000" fill-opacity="0.466667" stroke="#000000" stroke-width="2" stroke-opacity="0.466667" points="333.883,-330.197 342.663,-336.126 339.497,-326.015 333.883,-330.197"/>
</g>
<!-- src/SiCard/types/PCard.test.js&#45;&gt;src/SiCard/types/PCard.js -->
<g id="edge28" class="edge"><title>src/SiCard/types/PCard.test.js&#45;&gt;src/SiCard/types/PCard.js</title>
<path fill="none" stroke="#000000" stroke-width="2" stroke-opacity="0.466667" d="M112.554,-460.337C125.978,-456.788 141.432,-452.704 155.12,-449.086"/>
<polygon fill="#000000" fill-opacity="0.466667" stroke="#000000" stroke-width="2" stroke-opacity="0.466667" points="156.407,-452.366 165.181,-446.426 154.618,-445.598 156.407,-452.366"/>
</g>
<!-- src/SiCard/types/SIAC.js -->
<g id="node11" class="node"><title>src/SiCard/types/SIAC.js</title>
<g id="a_node11"><a xlink:href="src/SiCard/types/SIAC.js" xlink:title="SIAC.js">
<path fill="#ffffcc" stroke="black" d="M214,-538.338C214,-538.338 172,-538.338 172,-538.338 169,-538.338 166,-535.338 166,-532.338 166,-532.338 166,-526.338 166,-526.338 166,-523.338 169,-520.338 172,-520.338 172,-520.338 214,-520.338 214,-520.338 217,-520.338 220,-523.338 220,-526.338 220,-526.338 220,-532.338 220,-532.338 220,-535.338 217,-538.338 214,-538.338"/>
<text text-anchor="middle" x="193" y="-527.138" font-family="Helvetica,sans-Serif" font-size="9.00">SIAC.js</text>
</a>
</g>
</g>
<!-- src/SiCard/types/SIAC.js&#45;&gt;src/SiCard/BaseSiCard.js -->
<g id="edge29" class="edge"><title>src/SiCard/types/SIAC.js&#45;&gt;src/SiCard/BaseSiCard.js</title>
<path fill="none" stroke="#000000" stroke-width="2" stroke-opacity="0.466667" d="M220.202,-528.802C231.096,-527.138 242.846,-523.179 250,-514.338 271.696,-487.526 234.875,-384.927 258,-359.338 268.462,-347.761 284.177,-342.977 299.618,-341.49"/>
<polygon fill="#000000" fill-opacity="0.466667" stroke="#000000" stroke-width="2" stroke-opacity="0.466667" points="299.869,-344.981 309.667,-340.95 299.493,-337.991 299.869,-344.981"/>
</g>
<!-- src/SiCard/types/SIAC.js&#45;&gt;src/SiCard/types/ModernSiCard.js -->
<g id="edge30" class="edge"><title>src/SiCard/types/SIAC.js&#45;&gt;src/SiCard/types/ModernSiCard.js</title>
<path fill="none" stroke="#000000" stroke-width="2" stroke-opacity="0.466667" d="M220.299,-536.399C237.073,-540.89 256.029,-545.936 258,-546.338 269.491,-548.676 281.882,-550.743 293.71,-552.502"/>
<polygon fill="#000000" fill-opacity="0.466667" stroke="#000000" stroke-width="2" stroke-opacity="0.466667" points="293.527,-556.011 303.922,-553.967 294.521,-549.082 293.527,-556.011"/>
</g>
<!-- src/SiCard/types/SIAC.test.js -->
<g id="node12" class="node"><title>src/SiCard/types/SIAC.test.js</title>
<g id="a_node12"><a xlink:href="src/SiCard/types/SIAC.test.js" xlink:title="SIAC.test.js">
<path fill="#ffffcc" stroke="black" d="M106,-568.338C106,-568.338 49,-568.338 49,-568.338 46,-568.338 43,-565.338 43,-562.338 43,-562.338 43,-556.338 43,-556.338 43,-553.338 46,-550.338 49,-550.338 49,-550.338 106,-550.338 106,-550.338 109,-550.338 112,-553.338 112,-556.338 112,-556.338 112,-562.338 112,-562.338 112,-565.338 109,-568.338 106,-568.338"/>
<text text-anchor="middle" x="77.5" y="-557.138" font-family="Helvetica,sans-Serif" font-size="9.00">SIAC.test.js</text>
</a>
</g>
</g>
<!-- src/SiCard/types/SIAC.test.js&#45;&gt;node_modules/lodash/lodash.js -->
<g id="edge34" class="edge"><title>src/SiCard/types/SIAC.test.js&#45;&gt;node_modules/lodash/lodash.js</title>
<path fill="none" stroke="#000000" stroke-width="2" stroke-opacity="0.466667" d="M112.124,-553.112C116.355,-550.98 120.181,-548.134 123,-544.338 150.236,-507.653 104.537,-166.468 136,-133.338 157.732,-110.454 368.094,-105.007 456.586,-103.726"/>
<polygon fill="#000000" fill-opacity="0.466667" stroke="#000000" stroke-width="2" stroke-opacity="0.466667" points="456.8,-107.224 466.753,-103.59 456.706,-100.224 456.8,-107.224"/>
</g>
<!-- src/SiCard/types/SIAC.test.js&#45;&gt;src/SiCard/BaseSiCard.js -->
<g id="edge32" class="edge"><title>src/SiCard/types/SIAC.test.js&#45;&gt;src/SiCard/BaseSiCard.js</title>
<path fill="none" stroke="#000000" stroke-width="2" stroke-opacity="0.466667" d="M112.053,-553.059C116.294,-550.934 120.142,-548.105 123,-544.338 139.613,-522.445 116.063,-316.253 136,-297.338 154.378,-279.901 225.309,-291.668 250,-297.338 277.998,-303.767 307.266,-319.208 326.65,-330.853"/>
<polygon fill="#000000" fill-opacity="0.466667" stroke="#000000" stroke-width="2" stroke-opacity="0.466667" points="324.976,-333.933 335.323,-336.209 328.654,-327.977 324.976,-333.933"/>
</g>
<!-- src/SiCard/types/SIAC.test.js&#45;&gt;src/SiCard/types/SIAC.js -->
<g id="edge33" class="edge"><title>src/SiCard/types/SIAC.test.js&#45;&gt;src/SiCard/types/SIAC.js</title>
<path fill="none" stroke="#000000" stroke-width="2" stroke-opacity="0.466667" d="M112.246,-550.418C126.023,-546.776 141.977,-542.56 155.979,-538.859"/>
<polygon fill="#000000" fill-opacity="0.466667" stroke="#000000" stroke-width="2" stroke-opacity="0.466667" points="156.997,-542.21 165.77,-536.271 155.208,-535.442 156.997,-542.21"/>
</g>
<!-- src/SiCard/types/SIAC.test.js&#45;&gt;src/constants.js -->
<g id="edge31" class="edge"><title>src/SiCard/types/SIAC.test.js&#45;&gt;src/constants.js</title>
<path fill="none" stroke="#000000" stroke-width="2" stroke-opacity="0.466667" d="M112.092,-565.587C116.328,-567.715 120.163,-570.554 123,-574.338 144.146,-602.543 110.568,-866.927 136,-891.338 150.073,-904.845 372.618,-908.894 442,-889.338 454.157,-885.911 466.348,-878.958 476.016,-872.407"/>
<polygon fill="#000000" fill-opacity="0.466667" stroke="#000000" stroke-width="2" stroke-opacity="0.466667" points="478.34,-875.047 484.429,-866.376 474.262,-869.358 478.34,-875.047"/>
</g>
<!-- src/SiCard/types/SiCard10.js -->
<g id="node13" class="node"><title>src/SiCard/types/SiCard10.js</title>
<g id="a_node13"><a xlink:href="src/SiCard/types/SiCard10.js" xlink:title="SiCard10.js">
<path fill="#ffffcc" stroke="black" d="M221.5,-478.338C221.5,-478.338 164.5,-478.338 164.5,-478.338 161.5,-478.338 158.5,-475.338 158.5,-472.338 158.5,-472.338 158.5,-466.338 158.5,-466.338 158.5,-463.338 161.5,-460.338 164.5,-460.338 164.5,-460.338 221.5,-460.338 221.5,-460.338 224.5,-460.338 227.5,-463.338 227.5,-466.338 227.5,-466.338 227.5,-472.338 227.5,-472.338 227.5,-475.338 224.5,-478.338 221.5,-478.338"/>
<text text-anchor="middle" x="193" y="-467.138" font-family="Helvetica,sans-Serif" font-size="9.00">SiCard10.js</text>
</a>
</g>
</g>
<!-- src/SiCard/types/SiCard10.js&#45;&gt;src/SiCard/BaseSiCard.js -->
<g id="edge35" class="edge"><title>src/SiCard/types/SiCard10.js&#45;&gt;src/SiCard/BaseSiCard.js</title>
<path fill="none" stroke="#000000" stroke-width="2" stroke-opacity="0.466667" d="M227.648,-467.139C236.115,-464.938 244.382,-461.054 250,-454.338 263.592,-438.087 243.542,-374.823 258,-359.338 268.648,-347.932 284.408,-343.189 299.832,-341.686"/>
<polygon fill="#000000" fill-opacity="0.466667" stroke="#000000" stroke-width="2" stroke-opacity="0.466667" points="300.072,-345.178 309.862,-341.129 299.683,-338.189 300.072,-345.178"/>
</g>
<!-- src/SiCard/types/SiCard10.js&#45;&gt;src/SiCard/types/ModernSiCard.js -->
<g id="edge36" class="edge"><title>src/SiCard/types/SiCard10.js&#45;&gt;src/SiCard/types/ModernSiCard.js</title>
<path fill="none" stroke="#000000" stroke-width="2" stroke-opacity="0.466667" d="M227.747,-471.778C236.111,-473.992 244.301,-477.823 250,-484.338 268.293,-505.25 238.488,-526.559 258,-546.338 267.378,-555.844 280.347,-560.524 293.557,-562.519"/>
<polygon fill="#000000" fill-opacity="0.466667" stroke="#000000" stroke-width="2" stroke-opacity="0.466667" points="293.346,-566.015 303.651,-563.556 294.061,-559.052 293.346,-566.015"/>
</g>
<!-- src/SiCard/types/SiCard10.test.js -->
<g id="node14" class="node"><title>src/SiCard/types/SiCard10.test.js</title>
<g id="a_node14"><a xlink:href="src/SiCard/types/SiCard10.test.js" xlink:title="SiCard10.test.js">
<path fill="#ffffcc" stroke="black" d="M117,-508.338C117,-508.338 38,-508.338 38,-508.338 35,-508.338 32,-505.338 32,-502.338 32,-502.338 32,-496.338 32,-496.338 32,-493.338 35,-490.338 38,-490.338 38,-490.338 117,-490.338 117,-490.338 120,-490.338 123,-493.338 123,-496.338 123,-496.338 123,-502.338 123,-502.338 123,-505.338 120,-508.338 117,-508.338"/>
<text text-anchor="middle" x="77.5" y="-497.138" font-family="Helvetica,sans-Serif" font-size="9.00">SiCard10.test.js</text>
</a>
</g>
</g>
<!-- src/SiCard/types/SiCard10.test.js&#45;&gt;node_modules/lodash/lodash.js -->
<g id="edge40" class="edge"><title>src/SiCard/types/SiCard10.test.js&#45;&gt;node_modules/lodash/lodash.js</title>
<path fill="none" stroke="#000000" stroke-width="2" stroke-opacity="0.466667" d="M117.124,-490.081C119.348,-488.461 121.347,-486.563 123,-484.338 149.718,-448.375 103.814,-112.502 136,-81.3376 184.852,-34.0359 375.29,-68.157 442,-81.3376 451.064,-83.1286 460.523,-86.4736 468.922,-90.0244"/>
<polygon fill="#000000" fill-opacity="0.466667" stroke="#000000" stroke-width="2" stroke-opacity="0.466667" points="467.653,-93.2913 478.208,-94.2064 470.528,-86.9087 467.653,-93.2913"/>
</g>
<!-- src/SiCard/types/SiCard10.test.js&#45;&gt;src/SiCard/BaseSiCard.js -->
<g id="edge38" class="edge"><title>src/SiCard/types/SiCard10.test.js&#45;&gt;src/SiCard/BaseSiCard.js</title>
<path fill="none" stroke="#000000" stroke-width="2" stroke-opacity="0.466667" d="M116.656,-490.309C119.055,-488.641 121.217,-486.669 123,-484.338 152.083,-446.321 101.148,-302.146 136,-269.338 154.446,-251.973 226.012,-261.192 250,-269.338 284.494,-281.051 316.379,-310.157 334.205,-328.76"/>
<polygon fill="#000000" fill-opacity="0.466667" stroke="#000000" stroke-width="2" stroke-opacity="0.466667" points="331.786,-331.298 341.159,-336.238 336.912,-326.531 331.786,-331.298"/>
</g>
<!-- src/SiCard/types/SiCard10.test.js&#45;&gt;src/SiCard/types/SiCard10.js -->
<g id="edge39" class="edge"><title>src/SiCard/types/SiCard10.test.js&#45;&gt;src/SiCard/types/SiCard10.js</title>
<path fill="none" stroke="#000000" stroke-width="2" stroke-opacity="0.466667" d="M112.554,-490.337C123.879,-487.343 136.647,-483.968 148.582,-480.814"/>
<polygon fill="#000000" fill-opacity="0.466667" stroke="#000000" stroke-width="2" stroke-opacity="0.466667" points="149.588,-484.168 158.361,-478.229 147.799,-477.401 149.588,-484.168"/>
</g>
<!-- src/SiCard/types/SiCard10.test.js&#45;&gt;src/constants.js -->
<g id="edge37" class="edge"><title>src/SiCard/types/SiCard10.test.js&#45;&gt;src/constants.js</title>
<path fill="none" stroke="#000000" stroke-width="2" stroke-opacity="0.466667" d="M117.113,-508.603C119.339,-510.22 121.342,-512.116 123,-514.338 146.543,-545.88 107.662,-841.021 136,-868.338 142.462,-874.567 359.799,-873.635 442,-866.338 444.375,-866.127 446.803,-865.87 449.251,-865.578"/>
<polygon fill="#000000" fill-opacity="0.466667" stroke="#000000" stroke-width="2" stroke-opacity="0.466667" points="449.9,-869.022 459.338,-864.207 448.958,-862.085 449.9,-869.022"/>
</g>
<!-- src/SiCard/types/SiCard11.js -->
<g id="node15" class="node"><title>src/SiCard/types/SiCard11.js</title>
<g id="a_node15"><a xlink:href="src/SiCard/types/SiCard11.js" xlink:title="SiCard11.js">
<path fill="#ffffcc" stroke="black" d="M221.5,-508.338C221.5,-508.338 164.5,-508.338 164.5,-508.338 161.5,-508.338 158.5,-505.338 158.5,-502.338 158.5,-502.338 158.5,-496.338 158.5,-496.338 158.5,-493.338 161.5,-490.338 164.5,-490.338 164.5,-490.338 221.5,-490.338 221.5,-490.338 224.5,-490.338 227.5,-493.338 227.5,-496.338 227.5,-496.338 227.5,-502.338 227.5,-502.338 227.5,-505.338 224.5,-508.338 221.5,-508.338"/>
<text text-anchor="middle" x="193" y="-497.138" font-family="Helvetica,sans-Serif" font-size="9.00">SiCard11.js</text>
</a>
</g>
</g>
<!-- src/SiCard/types/SiCard11.js&#45;&gt;src/SiCard/BaseSiCard.js -->
<g id="edge41" class="edge"><title>src/SiCard/types/SiCard11.js&#45;&gt;src/SiCard/BaseSiCard.js</title>
<path fill="none" stroke="#000000" stroke-width="2" stroke-opacity="0.466667" d="M227.737,-497.212C236.204,-495.012 244.45,-491.111 250,-484.338 267.642,-462.808 239.21,-379.873 258,-359.338 268.533,-347.826 284.265,-343.058 299.699,-341.564"/>
<polygon fill="#000000" fill-opacity="0.466667" stroke="#000000" stroke-width="2" stroke-opacity="0.466667" points="299.946,-345.056 309.741,-341.017 299.566,-338.066 299.946,-345.056"/>
</g>
<!-- src/SiCard/types/SiCard11.js&#45;&gt;src/SiCard/types/ModernSiCard.js -->
<g id="edge42" class="edge"><title>src/SiCard/types/SiCard11.js&#45;&gt;src/SiCard/types/ModernSiCard.js</title>
<path fill="none" stroke="#000000" stroke-width="2" stroke-opacity="0.466667" d="M227.549,-502.31C235.813,-504.535 244.001,-508.238 250,-514.338 260.279,-524.79 247.114,-536.519 258,-546.338 267.822,-555.196 280.821,-559.681 293.911,-561.696"/>
<polygon fill="#000000" fill-opacity="0.466667" stroke="#000000" stroke-width="2" stroke-opacity="0.466667" points="293.567,-565.179 303.888,-562.787 294.328,-558.221 293.567,-565.179"/>
</g>
<!-- src/SiCard/types/SiCard11.test.js -->
<g id="node16" class="node"><title>src/SiCard/types/SiCard11.test.js</title>
<g id="a_node16"><a xlink:href="src/SiCard/types/SiCard11.test.js" xlink:title="SiCard11.test.js">
<path fill="#ffffcc" stroke="black" d="M117,-538.338C117,-538.338 38,-538.338 38,-538.338 35,-538.338 32,-535.338 32,-532.338 32,-532.338 32,-526.338 32,-526.338 32,-523.338 35,-520.338 38,-520.338 38,-520.338 117,-520.338 117,-520.338 120,-520.338 123,-523.338 123,-526.338 123,-526.338 123,-532.338 123,-532.338 123,-535.338 120,-538.338 117,-538.338"/>
<text text-anchor="middle" x="77.5" y="-527.138" font-family="Helvetica,sans-Serif" font-size="9.00">SiCard11.test.js</text>
</a>
</g>
</g>
<!-- src/SiCard/types/SiCard11.test.js&#45;&gt;node_modules/lodash/lodash.js -->
<g id="edge46" class="edge"><title>src/SiCard/types/SiCard11.test.js&#45;&gt;node_modules/lodash/lodash.js</title>
<path fill="none" stroke="#000000" stroke-width="2" stroke-opacity="0.466667" d="M117.125,-520.082C119.349,-518.462 121.347,-516.563 123,-514.338 149.977,-478.014 103.676,-138.996 136,-107.338 180.42,-63.832 373.434,-85.6192 456.856,-97.4219"/>
<polygon fill="#000000" fill-opacity="0.466667" stroke="#000000" stroke-width="2" stroke-opacity="0.466667" points="456.541,-100.913 466.938,-98.8757 457.54,-93.9843 456.541,-100.913"/>
</g>
<!-- src/SiCard/types/SiCard11.test.js&#45;&gt;src/SiCard/BaseSiCard.js -->
<g id="edge44" class="edge"><title>src/SiCard/types/SiCard11.test.js&#45;&gt;src/SiCard/BaseSiCard.js</title>
<path fill="none" stroke="#000000" stroke-width="2" stroke-opacity="0.466667" d="M116.667,-520.317C119.063,-518.647 121.222,-516.672 123,-514.338 138.577,-493.887 117.318,-300.997 136,-283.338 154.41,-265.935 225.652,-276.343 250,-283.338 281.439,-292.37 312.562,-314.633 331.287,-329.869"/>
<polygon fill="#000000" fill-opacity="0.466667" stroke="#000000" stroke-width="2" stroke-opacity="0.466667" points="329.059,-332.568 338.974,-336.302 333.551,-327.2 329.059,-332.568"/>
</g>
<!-- src/SiCard/types/SiCard11.test.js&#45;&gt;src/SiCard/types/SiCard11.js -->
<g id="edge45" class="edge"><title>src/SiCard/types/SiCard11.test.js&#45;&gt;src/SiCard/types/SiCard11.js</title>
<path fill="none" stroke="#000000" stroke-width="2" stroke-opacity="0.466667" d="M112.554,-520.337C123.879,-517.343 136.647,-513.968 148.582,-510.814"/>
<polygon fill="#000000" fill-opacity="0.466667" stroke="#000000" stroke-width="2" stroke-opacity="0.466667" points="149.588,-514.168 158.361,-508.229 147.799,-507.401 149.588,-514.168"/>
</g>
<!-- src/SiCard/types/SiCard11.test.js&#45;&gt;src/constants.js -->
<g id="edge43" class="edge"><title>src/SiCard/types/SiCard11.test.js&#45;&gt;src/constants.js</title>
<path fill="none" stroke="#000000" stroke-width="2" stroke-opacity="0.466667" d="M117.107,-538.607C119.335,-540.224 121.339,-542.118 123,-544.338 145.183,-573.986 109.311,-851.671 136,-877.338 145.94,-886.897 365.657,-888.245 442,-875.338 449.374,-874.091 457.106,-871.988 464.326,-869.65"/>
<polygon fill="#000000" fill-opacity="0.466667" stroke="#000000" stroke-width="2" stroke-opacity="0.466667" points="465.473,-872.957 473.775,-866.375 463.18,-866.343 465.473,-872.957"/>
</g>
<!-- src/SiCard/types/SiCard5.js -->
<g id="node17" class="node"><title>src/SiCard/types/SiCard5.js</title>
<g id="a_node17"><a xlink:href="src/SiCard/types/SiCard5.js" xlink:title="SiCard5.js">
<path fill="#ffffcc" stroke="black" d="M218.5,-748.338C218.5,-748.338 167.5,-748.338 167.5,-748.338 164.5,-748.338 161.5,-745.338 161.5,-742.338 161.5,-742.338 161.5,-736.338 161.5,-736.338 161.5,-733.338 164.5,-730.338 167.5,-730.338 167.5,-730.338 218.5,-730.338 218.5,-730.338 221.5,-730.338 224.5,-733.338 224.5,-736.338 224.5,-736.338 224.5,-742.338 224.5,-742.338 224.5,-745.338 221.5,-748.338 218.5,-748.338"/>
<text text-anchor="middle" x="193" y="-737.138" font-family="Helvetica,sans-Serif" font-size="9.00">SiCard5.js</text>
</a>
</g>
</g>
<!-- src/SiCard/types/SiCard5.js&#45;&gt;src/SiCard/BaseSiCard.js -->
<g id="edge50" class="edge"><title>src/SiCard/types/SiCard5.js&#45;&gt;src/SiCard/BaseSiCard.js</title>
<path fill="none" stroke="#000000" stroke-width="2" stroke-opacity="0.466667" d="M224.704,-738.116C234.276,-736.113 243.91,-732.096 250,-724.338 262.524,-708.383 244.625,-374.586 258,-359.338 268.376,-347.509 284.227,-342.706 299.809,-341.276"/>
<polygon fill="#000000" fill-opacity="0.466667" stroke="#000000" stroke-width="2" stroke-opacity="0.466667" points="300.131,-344.765 309.949,-340.784 299.791,-337.773 300.131,-344.765"/>
</g>
<!-- src/SiCard/types/SiCard5.js&#45;&gt;src/constants.js -->
<g id="edge47" class="edge"><title>src/SiCard/types/SiCard5.js&#45;&gt;src/constants.js</title>
<path fill="none" stroke="#000000" stroke-width="2" stroke-opacity="0.466667" d="M224.669,-744.153C233.286,-746.387 242.377,-749.633 250,-754.338 254.554,-757.148 253.373,-760.648 258,-763.338 330.273,-805.345 368.802,-761.964 442,-802.338 458.707,-811.553 473.467,-827.674 483.228,-840.088"/>
<polygon fill="#000000" fill-opacity="0.466667" stroke="#000000" stroke-width="2" stroke-opacity="0.466667" points="480.606,-842.425 489.409,-848.321 486.204,-838.222 480.606,-842.425"/>
</g>
<!-- src/SiCard/types/SiCard5.js&#45;&gt;src/siProtocol.js -->
<g id="edge48" class="edge"><title>src/SiCard/types/SiCard5.js&#45;&gt;src/siProtocol.js</title>
<path fill="none" stroke="#000000" stroke-width="2" stroke-opacity="0.466667" d="M224.709,-731.385C272.121,-718.729 365.65,-692.251 442,-661.338 451.041,-657.677 460.694,-653.178 469.276,-648.958"/>
<polygon fill="#000000" fill-opacity="0.466667" stroke="#000000" stroke-width="2" stroke-opacity="0.466667" points="471.051,-651.983 478.42,-644.371 467.912,-645.726 471.051,-651.983"/>
</g>
<!-- src/SiCard/types/SiCard5.js&#45;&gt;src/storage/index.js -->
<g id="edge49" class="edge"><title>src/SiCard/types/SiCard5.js&#45;&gt;src/storage/index.js</title>
<path fill="none" stroke="#000000" stroke-width="2" stroke-opacity="0.466667" d="M224.717,-738.126C234.29,-736.124 243.921,-732.105 250,-724.338 264.417,-705.915 241.89,-320.3 258,-303.338 272.114,-288.477 421.627,-292.577 442,-290.338 447.601,-289.722 453.516,-288.955 459.289,-288.143"/>
<polygon fill="#000000" fill-opacity="0.466667" stroke="#000000" stroke-width="2" stroke-opacity="0.466667" points="460.045,-291.569 469.43,-286.652 459.027,-284.643 460.045,-291.569"/>
</g>
<!-- src/SiCard/types/SiCard5.test.js -->
<g id="node18" class="node"><title>src/SiCard/types/SiCard5.test.js</title>
<g id="a_node18"><a xlink:href="src/SiCard/types/SiCard5.test.js" xlink:title="SiCard5.test.js">
<path fill="#ffffcc" stroke="black" d="M114,-793.338C114,-793.338 41,-793.338 41,-793.338 38,-793.338 35,-790.338 35,-787.338 35,-787.338 35,-781.338 35,-781.338 35,-778.338 38,-775.338 41,-775.338 41,-775.338 114,-775.338 114,-775.338 117,-775.338 120,-778.338 120,-781.338 120,-781.338 120,-787.338 120,-787.338 120,-790.338 117,-793.338 114,-793.338"/>
<text text-anchor="middle" x="77.5" y="-782.138" font-family="Helvetica,sans-Serif" font-size="9.00">SiCard5.test.js</text>
</a>
</g>
</g>
<!-- src/SiCard/types/SiCard5.test.js&#45;&gt;src/SiCard/BaseSiCard.js -->
<g id="edge54" class="edge"><title>src/SiCard/types/SiCard5.test.js&#45;&gt;src/SiCard/BaseSiCard.js</title>
<path fill="none" stroke="#000000" stroke-width="2" stroke-opacity="0.466667" d="M88.1051,-775.231C98.8808,-764.313 115.793,-744.899 123,-724.338 136.239,-686.565 108.455,-393.379 136,-364.338 138.798,-361.387 237.578,-353.573 299.621,-348.936"/>
<polygon fill="#000000" fill-opacity="0.466667" stroke="#000000" stroke-width="2" stroke-opacity="0.466667" points="299.905,-352.425 309.618,-348.193 299.386,-345.444 299.905,-352.425"/>
</g>
<!-- src/SiCard/types/SiCard5.test.js&#45;&gt;src/SiCard/types/SiCard5.js -->
<g id="edge55" class="edge"><title>src/SiCard/types/SiCard5.test.js&#45;&gt;src/SiCard/types/SiCard5.js</title>
<path fill="none" stroke="#000000" stroke-width="2" stroke-opacity="0.466667" d="M93.6883,-775.24C105.039,-768.735 121.101,-760.139 136,-754.338 140.915,-752.424 146.165,-750.665 151.406,-749.078"/>
<polygon fill="#000000" fill-opacity="0.466667" stroke="#000000" stroke-width="2" stroke-opacity="0.466667" points="152.722,-752.342 161.384,-746.242 150.808,-745.609 152.722,-752.342"/>
</g>
<!-- src/SiCard/types/siCard5Examples.js -->
<g id="node30" class="node"><title>src/SiCard/types/siCard5Examples.js</title>
<g id="a_node30"><a xlink:href="src/SiCard/types/siCard5Examples.js" xlink:title="siCard5Examples.js">
<path fill="#ffffcc" stroke="black" d="M240.5,-778.338C240.5,-778.338 145.5,-778.338 145.5,-778.338 142.5,-778.338 139.5,-775.338 139.5,-772.338 139.5,-772.338 139.5,-766.338 139.5,-766.338 139.5,-763.338 142.5,-760.338 145.5,-760.338 145.5,-760.338 240.5,-760.338 240.5,-760.338 243.5,-760.338 246.5,-763.338 246.5,-766.338 246.5,-766.338 246.5,-772.338 246.5,-772.338 246.5,-775.338 243.5,-778.338 240.5,-778.338"/>
<text text-anchor="middle" x="193" y="-767.138" font-family="Helvetica,sans-Serif" font-size="9.00">siCard5Examples.js</text>
</a>
</g>
</g>
<!-- src/SiCard/types/SiCard5.test.js&#45;&gt;src/SiCard/types/siCard5Examples.js -->
<g id="edge56" class="edge"><title>src/SiCard/types/SiCard5.test.js&#45;&gt;src/SiCard/types/siCard5Examples.js</title>
<path fill="none" stroke="#000000" stroke-width="2" stroke-opacity="0.466667" d="M120.119,-778.837C123.025,-778.453 125.989,-778.062 128.975,-777.667"/>
<polygon fill="#000000" fill-opacity="0.466667" stroke="#000000" stroke-width="2" stroke-opacity="0.466667" points="129.717,-781.099 139.173,-776.319 128.8,-774.16 129.717,-781.099"/>
</g>
<!-- src/SiCard/types/SiCard5.test.js&#45;&gt;src/constants.js -->
<g id="edge51" class="edge"><title>src/SiCard/types/SiCard5.test.js&#45;&gt;src/constants.js</title>
<path fill="none" stroke="#000000" stroke-width="2" stroke-opacity="0.466667" d="M78.846,-793.363C80.4043,-820.123 88.9704,-899.4 136,-935.338 172.913,-963.545 430.912,-953.645 442,-947.338 468.762,-932.113 483.531,-897.635 490.462,-876.046"/>
<polygon fill="#000000" fill-opacity="0.466667" stroke="#000000" stroke-width="2" stroke-opacity="0.466667" points="493.846,-876.945 493.323,-866.363 487.133,-874.961 493.846,-876.945"/>
</g>
<!-- src/simulation/SiCardSimulator/types/SiCard5Simulator.js -->
<g id="node37" class="node"><title>src/simulation/SiCardSimulator/types/SiCard5Simulator.js</title>
<g id="a_node37"><a xlink:href="src/simulation/SiCardSimulator/types/SiCard5Simulator.js" xlink:title="SiCard5Simulator.js">
<path fill="#ffffcc" stroke="black" d="M397.5,-1128.34C397.5,-1128.34 302.5,-1128.34 302.5,-1128.34 299.5,-1128.34 296.5,-1125.34 296.5,-1122.34 296.5,-1122.34 296.5,-1116.34 296.5,-1116.34 296.5,-1113.34 299.5,-1110.34 302.5,-1110.34 302.5,-1110.34 397.5,-1110.34 397.5,-1110.34 400.5,-1110.34 403.5,-1113.34 403.5,-1116.34 403.5,-1116.34 403.5,-1122.34 403.5,-1122.34 403.5,-1125.34 400.5,-1128.34 397.5,-1128.34"/>
<text text-anchor="middle" x="350" y="-1117.14" font-family="Helvetica,sans-Serif" font-size="9.00">SiCard5Simulator.js</text>
</a>
</g>
</g>
<!-- src/SiCard/types/SiCard5.test.js&#45;&gt;src/simulation/SiCardSimulator/types/SiCard5Simulator.js -->
<g id="edge52" class="edge"><title>src/SiCard/types/SiCard5.test.js&#45;&gt;src/simulation/SiCardSimulator/types/SiCard5Simulator.js</title>
<path fill="none" stroke="#000000" stroke-width="2" stroke-opacity="0.466667" d="M79.2021,-793.421C82.7009,-836.475 99.5555,-1019.64 136,-1061.34 173.087,-1103.77 237.841,-1116.59 286.244,-1119.82"/>
<polygon fill="#000000" fill-opacity="0.466667" stroke="#000000" stroke-width="2" stroke-opacity="0.466667" points="286.133,-1123.32 296.309,-1120.37 286.515,-1116.33 286.133,-1123.32"/>
</g>
<!-- src/SiCard/types/SiCard5.test.js&#45;&gt;src/testUtils.js -->
<g id="edge53" class="edge"><title>src/SiCard/types/SiCard5.test.js&#45;&gt;src/testUtils.js</title>
<path fill="none" stroke="#000000" stroke-width="2" stroke-opacity="0.466667" d="M79.1588,-793.693C81.5163,-819.182 91.934,-889.912 136,-919.338 187.894,-953.991 263.917,-943.831 309.715,-932.878"/>
<polygon fill="#000000" fill-opacity="0.466667" stroke="#000000" stroke-width="2" stroke-opacity="0.466667" points="310.721,-936.234 319.564,-930.398 309.012,-929.446 310.721,-936.234"/>
</g>
<!-- src/SiCard/types/SiCard6.js -->
<g id="node19" class="node"><title>src/SiCard/types/SiCard6.js</title>
<g id="a_node19"><a xlink:href="src/SiCard/types/SiCard6.js" xlink:title="SiCard6.js">
<path fill="#ffffcc" stroke="black" d="M218.5,-688.338C218.5,-688.338 167.5,-688.338 167.5,-688.338 164.5,-688.338 161.5,-685.338 161.5,-682.338 161.5,-682.338 161.5,-676.338 161.5,-676.338 161.5,-673.338 164.5,-670.338 167.5,-670.338 167.5,-670.338 218.5,-670.338 218.5,-670.338 221.5,-670.338 224.5,-673.338 224.5,-676.338 224.5,-676.338 224.5,-682.338 224.5,-682.338 224.5,-685.338 221.5,-688.338 218.5,-688.338"/>
<text text-anchor="middle" x="193" y="-677.138" font-family="Helvetica,sans-Serif" font-size="9.00">SiCard6.js</text>
</a>
</g>
</g>
<!-- src/SiCard/types/SiCard6.js&#45;&gt;src/SiCard/BaseSiCard.js -->
<g id="edge60" class="edge"><title>src/SiCard/types/SiCard6.js&#45;&gt;src/SiCard/BaseSiCard.js</title>
<path fill="none" stroke="#000000" stroke-width="2" stroke-opacity="0.466667" d="M224.685,-678.101C234.255,-676.097 243.893,-672.083 250,-664.338 270.989,-637.716 235.591,-384.775 258,-359.338 268.401,-347.531 284.258,-342.734 299.838,-341.302"/>
<polygon fill="#000000" fill-opacity="0.466667" stroke="#000000" stroke-width="2" stroke-opacity="0.466667" points="300.158,-344.791 309.975,-340.807 299.816,-337.799 300.158,-344.791"/>
</g>
<!-- src/SiCard/types/SiCard6.js&#45;&gt;src/constants.js -->
<g id="edge57" class="edge"><title>src/SiCard/types/SiCard6.js&#45;&gt;src/constants.js</title>
<path fill="none" stroke="#000000" stroke-width="2" stroke-opacity="0.466667" d="M224.546,-682.651C275.102,-689.562 377.032,-709.707 442,-764.338 465.795,-784.347 481.304,-817.797 489.217,-838.656"/>
<polygon fill="#000000" fill-opacity="0.466667" stroke="#000000" stroke-width="2" stroke-opacity="0.466667" points="485.997,-840.046 492.666,-848.279 492.586,-837.684 485.997,-840.046"/>
</g>
<!-- src/SiCard/types/SiCard6.js&#45;&gt;src/siProtocol.js -->
<g id="edge58" class="edge"><title>src/SiCard/types/SiCard6.js&#45;&gt;src/siProtocol.js</title>
<path fill="none" stroke="#000000" stroke-width="2" stroke-opacity="0.466667" d="M224.569,-674.877C277.606,-667.136 386.965,-651.177 449.309,-642.079"/>
<polygon fill="#000000" fill-opacity="0.466667" stroke="#000000" stroke-width="2" stroke-opacity="0.466667" points="449.876,-645.533 459.266,-640.626 448.865,-638.606 449.876,-645.533"/>
</g>
<!-- src/SiCard/types/SiCard6.js&#45;&gt;src/storage/index.js -->
<g id="edge59" class="edge"><title>src/SiCard/types/SiCard6.js&#45;&gt;src/storage/index.js</title>
<path fill="none" stroke="#000000" stroke-width="2" stroke-opacity="0.466667" d="M224.706,-678.117C234.278,-676.115 243.911,-672.098 250,-664.338 262.794,-648.031 243.465,-306.114 258,-291.338 271.745,-277.365 395.922,-279.176 459.03,-281.038"/>
<polygon fill="#000000" fill-opacity="0.466667" stroke="#000000" stroke-width="2" stroke-opacity="0.466667" points="459.232,-284.546 469.336,-281.359 459.45,-277.549 459.232,-284.546"/>
</g>
<!-- src/SiCard/types/SiCard6.test.js -->
<g id="node20" class="node"><title>src/SiCard/types/SiCard6.test.js</title>
<g id="a_node20"><a xlink:href="src/SiCard/types/SiCard6.test.js" xlink:title="SiCard6.test.js">
<path fill="#ffffcc" stroke="black" d="M114,-718.338C114,-718.338 41,-718.338 41,-718.338 38,-718.338 35,-715.338 35,-712.338 35,-712.338 35,-706.338 35,-706.338 35,-703.338 38,-700.338 41,-700.338 41,-700.338 114,-700.338 114,-700.338 117,-700.338 120,-703.338 120,-706.338 120,-706.338 120,-712.338 120,-712.338 120,-715.338 117,-718.338 114,-718.338"/>
<text text-anchor="middle" x="77.5" y="-707.138" font-family="Helvetica,sans-Serif" font-size="9.00">SiCard6.test.js</text>
</a>
</g>
</g>
<!-- src/SiCard/types/SiCard6.test.js&#45;&gt;node_modules/lodash/lodash.js -->
<g id="edge67" class="edge"><title>src/SiCard/types/SiCard6.test.js&#45;&gt;node_modules/lodash/lodash.js</title>
<path fill="none" stroke="#000000" stroke-width="2" stroke-opacity="0.466667" d="M92.1699,-700.054C102.742,-691.997 116.618,-679.294 123,-664.338 133.557,-639.597 118.114,-200.428 136,-180.338 147.42,-167.51 425.853,-142.191 442,-136.338 453.818,-132.054 465.832,-124.944 475.474,-118.419"/>
<polygon fill="#000000" fill-opacity="0.466667" stroke="#000000" stroke-width="2" stroke-opacity="0.466667" points="477.764,-121.085 483.907,-112.453 473.722,-115.371 477.764,-121.085"/>
</g>
<!-- src/SiCard/types/SiCard6.test.js&#45;&gt;src/SiCard/BaseSiCard.js -->
<g id="edge64" class="edge"><title>src/SiCard/types/SiCard6.test.js&#45;&gt;src/SiCard/BaseSiCard.js</title>
<path fill="none" stroke="#000000" stroke-width="2" stroke-opacity="0.466667" d="M92.1104,-700.028C102.648,-691.957 116.506,-679.246 123,-664.338 136.811,-632.629 111.492,-377.742 136,-353.338 147.317,-342.068 240.233,-342.36 299.549,-343.745"/>
<polygon fill="#000000" fill-opacity="0.466667" stroke="#000000" stroke-width="2" stroke-opacity="0.466667" points="299.76,-347.251 309.845,-344.004 299.936,-340.254 299.76,-347.251"/>
</g>
<!-- src/SiCard/types/SiCard6.test.js&#45;&gt;src/SiCard/types/SiCard6.js -->
<g id="edge65" class="edge"><title>src/SiCard/types/SiCard6.test.js&#45;&gt;src/SiCard/types/SiCard6.js</title>
<path fill="none" stroke="#000000" stroke-width="2" stroke-opacity="0.466667" d="M112.554,-700.337C124.816,-697.095 138.772,-693.407 151.528,-690.035"/>
<polygon fill="#000000" fill-opacity="0.466667" stroke="#000000" stroke-width="2" stroke-opacity="0.466667" points="152.673,-693.353 161.446,-687.413 150.884,-686.585 152.673,-693.353"/>
</g>
<!-- src/SiCard/types/siCard6Examples.js -->
<g id="node31" class="node"><title>src/SiCard/types/siCard6Examples.js</title>
<g id="a_node31"><a xlink:href="src/SiCard/types/siCard6Examples.js" xlink:title="siCard6Examples.js">
<path fill="#ffffcc" stroke="black" d="M240.5,-718.338C240.5,-718.338 145.5,-718.338 145.5,-718.338 142.5,-718.338 139.5,-715.338 139.5,-712.338 139.5,-712.338 139.5,-706.338 139.5,-706.338 139.5,-703.338 142.5,-700.338 145.5,-700.338 145.5,-700.338 240.5,-700.338 240.5,-700.338 243.5,-700.338 246.5,-703.338 246.5,-706.338 246.5,-706.338 246.5,-712.338 246.5,-712.338 246.5,-715.338 243.5,-718.338 240.5,-718.338"/>
<text text-anchor="middle" x="193" y="-707.138" font-family="Helvetica,sans-Serif" font-size="9.00">siCard6Examples.js</text>
</a>
</g>
</g>
<!-- src/SiCard/types/SiCard6.test.js&#45;&gt;src/SiCard/types/siCard6Examples.js -->
<g id="edge66" class="edge"><title>src/SiCard/types/SiCard6.test.js&#45;&gt;src/SiCard/types/siCard6Examples.js</title>
<path fill="none" stroke="#000000" stroke-width="2" stroke-opacity="0.466667" d="M120.119,-709.338C123.025,-709.338 125.989,-709.338 128.975,-709.338"/>
<polygon fill="#000000" fill-opacity="0.466667" stroke="#000000" stroke-width="2" stroke-opacity="0.466667" points="129.173,-712.838 139.173,-709.338 129.172,-705.838 129.173,-712.838"/>
</g>
<!-- src/SiCard/types/SiCard6.test.js&#45;&gt;src/constants.js -->
<g id="edge61" class="edge"><title>src/SiCard/types/SiCard6.test.js&#45;&gt;src/constants.js</title>
<path fill="none" stroke="#000000" stroke-width="2" stroke-opacity="0.466667" d="M87.9244,-718.51C98.5305,-729.49 115.284,-748.962 123,-769.338 134.928,-800.834 112.721,-895.998 136,-920.338 170.798,-956.72 429.554,-942.94 442,-936.338 465.952,-923.631 481.147,-894.875 488.991,-875.789"/>
<polygon fill="#000000" fill-opacity="0.466667" stroke="#000000" stroke-width="2" stroke-opacity="0.466667" points="492.3,-876.935 492.601,-866.344 485.761,-874.435 492.3,-876.935"/>
</g>
<!-- src/simulation/SiCardSimulator/types/SiCard6Simulator.js -->
<g id="node38" class="node"><title>src/simulation/SiCardSimulator/types/SiCard6Simulator.js</title>
<g id="a_node38"><a xlink:href="src/simulation/SiCardSimulator/types/SiCard6Simulator.js" xlink:title="SiCard6Simulator.js">
<path fill="#ffffcc" stroke="black" d="M397.5,-1098.34C397.5,-1098.34 302.5,-1098.34 302.5,-1098.34 299.5,-1098.34 296.5,-1095.34 296.5,-1092.34 296.5,-1092.34 296.5,-1086.34 296.5,-1086.34 296.5,-1083.34 299.5,-1080.34 302.5,-1080.34 302.5,-1080.34 397.5,-1080.34 397.5,-1080.34 400.5,-1080.34 403.5,-1083.34 403.5,-1086.34 403.5,-1086.34 403.5,-1092.34 403.5,-1092.34 403.5,-1095.34 400.5,-1098.34 397.5,-1098.34"/>
<text text-anchor="middle" x="350" y="-1087.14" font-family="Helvetica,sans-Serif" font-size="9.00">SiCard6Simulator.js</text>
</a>
</g>
</g>
<!-- src/SiCard/types/SiCard6.test.js&#45;&gt;src/simulation/SiCardSimulator/types/SiCard6Simulator.js -->
<g id="edge62" class="edge"><title>src/SiCard/types/SiCard6.test.js&#45;&gt;src/simulation/SiCardSimulator/types/SiCard6Simulator.js</title>
<path fill="none" stroke="#000000" stroke-width="2" stroke-opacity="0.466667" d="M87.9906,-718.485C98.6587,-729.442 115.47,-748.892 123,-769.338 137.779,-809.467 116.759,-923.147 136,-961.338 165.933,-1020.75 208.964,-1005.98 250,-1058.34 254.904,-1064.6 251.601,-1069.62 258,-1074.34 266.216,-1080.39 275.984,-1084.37 286.02,-1086.91"/>
<polygon fill="#000000" fill-opacity="0.466667" stroke="#000000" stroke-width="2" stroke-opacity="0.466667" points="285.595,-1090.4 296.099,-1089.01 287.022,-1083.55 285.595,-1090.4"/>
</g>
<!-- src/SiCard/types/SiCard6.test.js&#45;&gt;src/testUtils.js -->
<g id="edge63" class="edge"><title>src/SiCard/types/SiCard6.test.js&#45;&gt;src/testUtils.js</title>
<path fill="none" stroke="#000000" stroke-width="2" stroke-opacity="0.466667" d="M87.8905,-718.523C98.4646,-729.515 115.188,-748.999 123,-769.338 133.886,-797.679 114.315,-884.089 136,-905.338 159.328,-928.196 251.398,-927.173 306.565,-924.311"/>
<polygon fill="#000000" fill-opacity="0.466667" stroke="#000000" stroke-width="2" stroke-opacity="0.466667" points="306.955,-927.795 316.744,-923.74 306.564,-920.806 306.955,-927.795"/>
</g>
<!-- src/SiCard/types/SiCard8.js -->
<g id="node21" class="node"><title>src/SiCard/types/SiCard8.js</title>
<g id="a_node21"><a xlink:href="src/SiCard/types/SiCard8.js" xlink:title="SiCard8.js">
<path fill="#ffffcc" stroke="black" d="M218.5,-568.338C218.5,-568.338 167.5,-568.338 167.5,-568.338 164.5,-568.338 161.5,-565.338 161.5,-562.338 161.5,-562.338 161.5,-556.338 161.5,-556.338 161.5,-553.338 164.5,-550.338 167.5,-550.338 167.5,-550.338 218.5,-550.338 218.5,-550.338 221.5,-550.338 224.5,-553.338 224.5,-556.338 224.5,-556.338 224.5,-562.338 224.5,-562.338 224.5,-565.338 221.5,-568.338 218.5,-568.338"/>
<text text-anchor="middle" x="193" y="-557.138" font-family="Helvetica,sans-Serif" font-size="9.00">SiCard8.js</text>
</a>
</g>
</g>
<!-- src/SiCard/types/SiCard8.js&#45;&gt;src/SiCard/BaseSiCard.js -->
<g id="edge70" class="edge"><title>src/SiCard/types/SiCard8.js&#45;&gt;src/SiCard/BaseSiCard.js</title>
<path fill="none" stroke="#000000" stroke-width="2" stroke-opacity="0.466667" d="M224.61,-558.041C234.174,-556.033 243.827,-552.031 250,-544.338 262.876,-528.29 244.269,-374.66 258,-359.338 268.413,-347.717 284.117,-342.923 299.562,-341.44"/>
<polygon fill="#000000" fill-opacity="0.466667" stroke="#000000" stroke-width="2" stroke-opacity="0.466667" points="299.816,-344.931 309.616,-340.904 299.444,-337.941 299.816,-344.931"/>
</g>
<!-- src/SiCard/types/SiCard8.js&#45;&gt;src/SiCard/types/ModernSiCard.js -->
<g id="edge71" class="edge"><title>src/SiCard/types/SiCard8.js&#45;&gt;src/SiCard/types/ModernSiCard.js</title>
<path fill="none" stroke="#000000" stroke-width="2" stroke-opacity="0.466667" d="M224.623,-559.338C244.297,-559.338 270.428,-559.338 293.659,-559.338"/>
<polygon fill="#000000" fill-opacity="0.466667" stroke="#000000" stroke-width="2" stroke-opacity="0.466667" points="293.751,-562.838 303.751,-559.338 293.751,-555.838 293.751,-562.838"/>
</g>
<!-- src/SiCard/types/SiCard8.js&#45;&gt;src/siProtocol.js -->
<g id="edge68" class="edge"><title>src/SiCard/types/SiCard8.js&#45;&gt;src/siProtocol.js</title>
<path fill="none" stroke="#000000" stroke-width="2" stroke-opacity="0.466667" d="M224.536,-561.332C233.864,-563.418 243.391,-567.289 250,-574.338 262.401,-587.563 244.361,-602.393 258,-614.338 273.413,-627.836 421.65,-623.969 442,-626.338 444.368,-626.613 446.791,-626.922 449.235,-627.256"/>
<polygon fill="#000000" fill-opacity="0.466667" stroke="#000000" stroke-width="2" stroke-opacity="0.466667" points="448.907,-630.745 459.31,-628.738 449.926,-623.82 448.907,-630.745"/>
</g>
<!-- src/SiCard/types/SiCard8.js&#45;&gt;src/storage/index.js -->
<g id="edge69" class="edge"><title>src/SiCard/types/SiCard8.js&#45;&gt;src/storage/index.js</title>
<path fill="none" stroke="#000000" stroke-width="2" stroke-opacity="0.466667" d="M224.675,-558.093C234.244,-556.088 243.884,-552.077 250,-544.338 259.683,-532.084 246.801,-274.223 258,-263.338 314.868,-208.065 419.762,-246.236 468.853,-268.891"/>
<polygon fill="#000000" fill-opacity="0.466667" stroke="#000000" stroke-width="2" stroke-opacity="0.466667" points="467.362,-272.057 477.897,-273.182 470.363,-265.733 467.362,-272.057"/>
</g>
<!-- src/SiCard/types/SiCard8.test.js -->
<g id="node22" class="node"><title>src/SiCard/types/SiCard8.test.js</title>
<g id="a_node22"><a xlink:href="src/SiCard/types/SiCard8.test.js" xlink:title="SiCard8.test.js">
<path fill="#ffffcc" stroke="black" d="M114,-628.338C114,-628.338 41,-628.338 41,-628.338 38,-628.338 35,-625.338 35,-622.338 35,-622.338 35,-616.338 35,-616.338 35,-613.338 38,-610.338 41,-610.338 41,-610.338 114,-610.338 114,-610.338 117,-610.338 120,-613.338 120,-616.338 120,-616.338 120,-622.338 120,-622.338 120,-625.338 117,-628.338 114,-628.338"/>
<text text-anchor="middle" x="77.5" y="-617.138" font-family="Helvetica,sans-Serif" font-size="9.00">SiCard8.test.js</text>
</a>
</g>
</g>
<!-- src/SiCard/types/SiCard8.test.js&#45;&gt;node_modules/lodash/lodash.js -->
<g id="edge76" class="edge"><title>src/SiCard/types/SiCard8.test.js&#45;&gt;node_modules/lodash/lodash.js</title>
<path fill="none" stroke="#000000" stroke-width="2" stroke-opacity="0.466667" d="M117.132,-610.087C119.354,-608.466 121.35,-606.565 123,-604.338 152.439,-564.586 102.888,-196.086 136,-159.338 158.963,-133.853 408.402,-125.263 442,-118.338 446.824,-117.343 451.853,-116.149 456.811,-114.874"/>
<polygon fill="#000000" fill-opacity="0.466667" stroke="#000000" stroke-width="2" stroke-opacity="0.466667" points="458.06,-118.162 466.805,-112.181 456.239,-111.403 458.06,-118.162"/>
</g>
<!-- src/SiCard/types/SiCard8.test.js&#45;&gt;src/SiCard/BaseSiCard.js -->
<g id="edge73" class="edge"><title>src/SiCard/types/SiCard8.test.js&#45;&gt;src/SiCard/BaseSiCard.js</title>
<path fill="none" stroke="#000000" stroke-width="2" stroke-opacity="0.466667" d="M116.692,-610.336C119.083,-608.662 121.233,-606.681 123,-604.338 141.685,-579.56 113.551,-346.765 136,-325.338 159.523,-302.885 250.517,-320.504 305.679,-333.882"/>
<polygon fill="#000000" fill-opacity="0.466667" stroke="#000000" stroke-width="2" stroke-opacity="0.466667" points="304.989,-337.317 315.537,-336.32 306.67,-330.521 304.989,-337.317"/>
</g>
<!-- src/SiCard/types/SiCard8.test.js&#45;&gt;src/SiCard/types/SiCard8.js -->
<g id="edge74" class="edge"><title>src/SiCard/types/SiCard8.test.js&#45;&gt;src/SiCard/types/SiCard8.js</title>
<path fill="none" stroke="#000000" stroke-width="2" stroke-opacity="0.466667" d="M114.516,-610.275C117.588,-608.616 120.479,-606.655 123,-604.338 133.697,-594.502 124.997,-583.83 136,-574.338 140.54,-570.421 146.001,-567.515 151.706,-565.361"/>
<polygon fill="#000000" fill-opacity="0.466667" stroke="#000000" stroke-width="2" stroke-opacity="0.466667" points="152.876,-568.663 161.422,-562.401 150.836,-561.967 152.876,-568.663"/>
</g>
<!-- src/SiCard/types/siCard8Examples.js -->
<g id="node32" class="node"><title>src/SiCard/types/siCard8Examples.js</title>
<g id="a_node32"><a xlink:href="src/SiCard/types/siCard8Examples.js" xlink:title="siCard8Examples.js">
<path fill="#ffffcc" stroke="black" d="M240.5,-598.338C240.5,-598.338 145.5,-598.338 145.5,-598.338 142.5,-598.338 139.5,-595.338 139.5,-592.338 139.5,-592.338 139.5,-586.338 139.5,-586.338 139.5,-583.338 142.5,-580.338 145.5,-580.338 145.5,-580.338 240.5,-580.338 240.5,-580.338 243.5,-580.338 246.5,-583.338 246.5,-586.338 246.5,-586.338 246.5,-592.338 246.5,-592.338 246.5,-595.338 243.5,-598.338 240.5,-598.338"/>
<text text-anchor="middle" x="193" y="-587.138" font-family="Helvetica,sans-Serif" font-size="9.00">siCard8Examples.js</text>
</a>
</g>
</g>
<!-- src/SiCard/types/SiCard8.test.js&#45;&gt;src/SiCard/types/siCard8Examples.js -->
<g id="edge75" class="edge"><title>src/SiCard/types/SiCard8.test.js&#45;&gt;src/SiCard/types/siCard8Examples.js</title>
<path fill="none" stroke="#000000" stroke-width="2" stroke-opacity="0.466667" d="M112.554,-610.337C123.563,-607.427 135.938,-604.156 147.584,-601.078"/>
<polygon fill="#000000" fill-opacity="0.466667" stroke="#000000" stroke-width="2" stroke-opacity="0.466667" points="148.804,-604.375 157.578,-598.436 147.016,-597.608 148.804,-604.375"/>
</g>
<!-- src/simulation/SiCardSimulator/types/SiCard8Simulator.js -->
<g id="node39" class="node"><title>src/simulation/SiCardSimulator/types/SiCard8Simulator.js</title>
<g id="a_node39"><a xlink:href="src/simulation/SiCardSimulator/types/SiCard8Simulator.js" xlink:title="SiCard8Simulator.js">
<path fill="#ffffcc" stroke="black" d="M397.5,-1038.34C397.5,-1038.34 302.5,-1038.34 302.5,-1038.34 299.5,-1038.34 296.5,-1035.34 296.5,-1032.34 296.5,-1032.34 296.5,-1026.34 296.5,-1026.34 296.5,-1023.34 299.5,-1020.34 302.5,-1020.34 302.5,-1020.34 397.5,-1020.34 397.5,-1020.34 400.5,-1020.34 403.5,-1023.34 403.5,-1026.34 403.5,-1026.34 403.5,-1032.34 403.5,-1032.34 403.5,-1035.34 400.5,-1038.34 397.5,-1038.34"/>
<text text-anchor="middle" x="350" y="-1027.14" font-family="Helvetica,sans-Serif" font-size="9.00">SiCard8Simulator.js</text>
</a>
</g>
</g>
<!-- src/SiCard/types/SiCard8.test.js&#45;&gt;src/simulation/SiCardSimulator/types/SiCard8Simulator.js -->
<g id="edge72" class="edge"><title>src/SiCard/types/SiCard8.test.js&#45;&gt;src/simulation/SiCardSimulator/types/SiCard8Simulator.js</title>
<path fill="none" stroke="#000000" stroke-width="2" stroke-opacity="0.466667" d="M117.093,-628.618C119.324,-630.232 121.333,-632.123 123,-634.338 142.398,-660.108 115.637,-899.323 136,-924.338 169.005,-964.883 215.29,-914.242 250,-953.338 268.154,-973.785 238.987,-994.687 258,-1014.34 265.672,-1022.27 275.807,-1027.01 286.523,-1029.72"/>
<polygon fill="#000000" fill-opacity="0.466667" stroke="#000000" stroke-width="2" stroke-opacity="0.466667" points="285.988,-1033.18 296.474,-1031.66 287.329,-1026.31 285.988,-1033.18"/>
</g>
<!-- src/SiCard/types/SiCard9.js -->
<g id="node23" class="node"><title>src/SiCard/types/SiCard9.js</title>
<g id="a_node23"><a xlink:href="src/SiCard/types/SiCard9.js" xlink:title="SiCard9.js">
<path fill="#ffffcc" stroke="black" d="M218.5,-628.338C218.5,-628.338 167.5,-628.338 167.5,-628.338 164.5,-628.338 161.5,-625.338 161.5,-622.338 161.5,-622.338 161.5,-616.338 161.5,-616.338 161.5,-613.338 164.5,-610.338 167.5,-610.338 167.5,-610.338 218.5,-610.338 218.5,-610.338 221.5,-610.338 224.5,-613.338 224.5,-616.338 224.5,-616.338 224.5,-622.338 224.5,-622.338 224.5,-625.338 221.5,-628.338 218.5,-628.338"/>
<text text-anchor="middle" x="193" y="-617.138" font-family="Helvetica,sans-Serif" font-size="9.00">SiCard9.js</text>
</a>
</g>
</g>
<!-- src/SiCard/types/SiCard9.js&#45;&gt;src/SiCard/BaseSiCard.js -->
<g id="edge79" class="edge"><title>src/SiCard/types/SiCard9.js&#45;&gt;src/SiCard/BaseSiCard.js</title>
<path fill="none" stroke="#000000" stroke-width="2" stroke-opacity="0.466667" d="M224.656,-618.078C234.224,-616.073 243.868,-612.064 250,-604.338 266.932,-583.003 239.93,-379.717 258,-359.338 268.352,-347.662 284.041,-342.856 299.491,-341.376"/>
<polygon fill="#000000" fill-opacity="0.466667" stroke="#000000" stroke-width="2" stroke-opacity="0.466667" points="299.749,-344.868 309.551,-340.846 299.381,-337.878 299.749,-344.868"/>
</g>
<!-- src/SiCard/types/SiCard9.js&#45;&gt;src/SiCard/types/ModernSiCard.js -->
<g id="edge80" class="edge"><title>src/SiCard/types/SiCard9.js&#45;&gt;src/SiCard/types/ModernSiCard.js</title>
<path fill="none" stroke="#000000" stroke-width="2" stroke-opacity="0.466667" d="M224.684,-616.396C233.695,-614.231 243,-610.552 250,-604.338 257.159,-597.982 250.861,-590.716 258,-584.338 268.028,-575.378 280.98,-569.593 293.95,-565.869"/>
<polygon fill="#000000" fill-opacity="0.466667" stroke="#000000" stroke-width="2" stroke-opacity="0.466667" points="294.97,-569.222 303.824,-563.405 293.274,-562.431 294.97,-569.222"/>
</g>
<!-- src/SiCard/types/SiCard9.js&#45;&gt;src/siProtocol.js -->
<g id="edge77" class="edge"><title>src/SiCard/types/SiCard9.js&#45;&gt;src/siProtocol.js</title>
<path fill="none" stroke="#000000" stroke-width="2" stroke-opacity="0.466667" d="M224.575,-622.527C235.152,-623.544 247.088,-624.597 258,-625.338 324.362,-629.842 401.303,-632.639 449.197,-634.092"/>
<polygon fill="#000000" fill-opacity="0.466667" stroke="#000000" stroke-width="2" stroke-opacity="0.466667" points="449.156,-637.592 459.255,-634.391 449.364,-630.595 449.156,-637.592"/>
</g>
<!-- src/SiCard/types/SiCard9.js&#45;&gt;src/storage/index.js -->
<g id="edge78" class="edge"><title>src/SiCard/types/SiCard9.js&#45;&gt;src/storage/index.js</title>
<path fill="none" stroke="#000000" stroke-width="2" stroke-opacity="0.466667" d="M224.692,-618.107C234.264,-616.104 243.9,-612.089 250,-604.338 261.239,-590.058 244.994,-290.029 258,-277.338 285.636,-250.369 399.917,-265.529 459.299,-275.616"/>
<polygon fill="#000000" fill-opacity="0.466667" stroke="#000000" stroke-width="2" stroke-opacity="0.466667" points="458.919,-279.102 469.371,-277.368 460.119,-272.206 458.919,-279.102"/>
</g>
<!-- src/SiCard/types/SiCard9.test.js -->
<g id="node24" class="node"><title>src/SiCard/types/SiCard9.test.js</title>
<g id="a_node24"><a xlink:href="src/SiCard/types/SiCard9.test.js" xlink:title="SiCard9.test.js">
<path fill="#ffffcc" stroke="black" d="M114,-658.338C114,-658.338 41,-658.338 41,-658.338 38,-658.338 35,-655.338 35,-652.338 35,-652.338 35,-646.338 35,-646.338 35,-643.338 38,-640.338 41,-640.338 41,-640.338 114,-640.338 114,-640.338 117,-640.338 120,-643.338 120,-646.338 120,-646.338 120,-652.338 120,-652.338 120,-655.338 117,-658.338 114,-658.338"/>
<text text-anchor="middle" x="77.5" y="-647.138" font-family="Helvetica,sans-Serif" font-size="9.00">SiCard9.test.js</text>
</a>
</g>
</g>
<!-- src/SiCard/types/SiCard9.test.js&#45;&gt;src/SiCard/BaseSiCard.js -->
<g id="edge82" class="edge"><title>src/SiCard/types/SiCard9.test.js&#45;&gt;src/SiCard/BaseSiCard.js</title>
<path fill="none" stroke="#000000" stroke-width="2" stroke-opacity="0.466667" d="M117.095,-640.059C119.325,-638.444 121.334,-636.553 123,-634.338 142.721,-608.117 112.295,-362.021 136,-339.338 158.583,-317.728 244.16,-327.261 299.728,-336.239"/>
<polygon fill="#000000" fill-opacity="0.466667" stroke="#000000" stroke-width="2" stroke-opacity="0.466667" points="299.294,-339.715 309.733,-337.901 300.441,-332.809 299.294,-339.715"/>
</g>
<!-- src/SiCard/types/SiCard9.test.js&#45;&gt;src/SiCard/types/SiCard9.js -->
<g id="edge83" class="edge"><title>src/SiCard/types/SiCard9.test.js&#45;&gt;src/SiCard/types/SiCard9.js</title>
<path fill="none" stroke="#000000" stroke-width="2" stroke-opacity="0.466667" d="M112.554,-640.337C124.816,-637.095 138.772,-633.407 151.528,-630.035"/>
<polygon fill="#000000" fill-opacity="0.466667" stroke="#000000" stroke-width="2" stroke-opacity="0.466667" points="152.673,-633.353 161.446,-627.413 150.884,-626.585 152.673,-633.353"/>
</g>
<!-- src/SiCard/types/siCard9Examples.js -->
<g id="node33" class="node"><title>src/SiCard/types/siCard9Examples.js</title>
<g id="a_node33"><a xlink:href="src/SiCard/types/siCard9Examples.js" xlink:title="siCard9Examples.js">
<path fill="#ffffcc" stroke="black" d="M240.5,-658.338C240.5,-658.338 145.5,-658.338 145.5,-658.338 142.5,-658.338 139.5,-655.338 139.5,-652.338 139.5,-652.338 139.5,-646.338 139.5,-646.338 139.5,-643.338 142.5,-640.338 145.5,-640.338 145.5,-640.338 240.5,-640.338 240.5,-640.338 243.5,-640.338 246.5,-643.338 246.5,-646.338 246.5,-646.338 246.5,-652.338 246.5,-652.338 246.5,-655.338 243.5,-658.338 240.5,-658.338"/>
<text text-anchor="middle" x="193" y="-647.138" font-family="Helvetica,sans-Serif" font-size="9.00">siCard9Examples.js</text>
</a>
</g>
</g>
<!-- src/SiCard/types/SiCard9.test.js&#45;&gt;src/SiCard/types/siCard9Examples.js -->
<g id="edge84" class="edge"><title>src/SiCard/types/SiCard9.test.js&#45;&gt;src/SiCard/types/siCard9Examples.js</title>
<path fill="none" stroke="#000000" stroke-width="2" stroke-opacity="0.466667" d="M120.119,-649.338C123.025,-649.338 125.989,-649.338 128.975,-649.338"/>
<polygon fill="#000000" fill-opacity="0.466667" stroke="#000000" stroke-width="2" stroke-opacity="0.466667" points="129.173,-652.838 139.173,-649.338 129.172,-645.838 129.173,-652.838"/>
</g>
<!-- src/simulation/SiCardSimulator/types/SiCard9Simulator.js -->
<g id="node40" class="node"><title>src/simulation/SiCardSimulator/types/SiCard9Simulator.js</title>
<g id="a_node40"><a xlink:href="src/simulation/SiCardSimulator/types/SiCard9Simulator.js" xlink:title="SiCard9Simulator.js">
<path fill="#ffffcc" stroke="black" d="M397.5,-1068.34C397.5,-1068.34 302.5,-1068.34 302.5,-1068.34 299.5,-1068.34 296.5,-1065.34 296.5,-1062.34 296.5,-1062.34 296.5,-1056.34 296.5,-1056.34 296.5,-1053.34 299.5,-1050.34 302.5,-1050.34 302.5,-1050.34 397.5,-1050.34 397.5,-1050.34 400.5,-1050.34 403.5,-1053.34 403.5,-1056.34 403.5,-1056.34 403.5,-1062.34 403.5,-1062.34 403.5,-1065.34 400.5,-1068.34 397.5,-1068.34"/>
<text text-anchor="middle" x="350" y="-1057.14" font-family="Helvetica,sans-Serif" font-size="9.00">SiCard9Simulator.js</text>
</a>
</g>
</g>
<!-- src/SiCard/types/SiCard9.test.js&#45;&gt;src/simulation/SiCardSimulator/types/SiCard9Simulator.js -->
<g id="edge81" class="edge"><title>src/SiCard/types/SiCard9.test.js&#45;&gt;src/simulation/SiCardSimulator/types/SiCard9Simulator.js</title>
<path fill="none" stroke="#000000" stroke-width="2" stroke-opacity="0.466667" d="M91.6447,-658.34C102.207,-666.404 116.34,-679.262 123,-694.338 134.195,-719.679 117.547,-922.673 136,-943.338 170.212,-981.651 214.933,-924.805 250,-962.338 262.499,-975.716 245.489,-1030.97 258,-1044.34 265.539,-1052.39 275.613,-1057.2 286.311,-1059.92"/>
<polygon fill="#000000" fill-opacity="0.466667" stroke="#000000" stroke-width="2" stroke-opacity="0.466667" points="285.769,-1063.38 296.255,-1061.87 287.114,-1056.51 285.769,-1063.38"/>
</g>
<!-- src/SiCard/types/TCard.js -->
<g id="node25" class="node"><title>src/SiCard/types/TCard.js</title>
<g id="a_node25"><a xlink:href="src/SiCard/types/TCard.js" xlink:title="TCard.js">
<path fill="#ffffcc" stroke="black" d="M98.5,-388.338C98.5,-388.338 56.5,-388.338 56.5,-388.338 53.5,-388.338 50.5,-385.338 50.5,-382.338 50.5,-382.338 50.5,-376.338 50.5,-376.338 50.5,-373.338 53.5,-370.338 56.5,-370.338 56.5,-370.338 98.5,-370.338 98.5,-370.338 101.5,-370.338 104.5,-373.338 104.5,-376.338 104.5,-376.338 104.5,-382.338 104.5,-382.338 104.5,-385.338 101.5,-388.338 98.5,-388.338"/>
<text text-anchor="middle" x="77.5" y="-377.138" font-family="Helvetica,sans-Serif" font-size="9.00">TCard.js</text>
</a>
</g>
</g>
<!-- src/SiCard/types/TCard.js&#45;&gt;src/SiCard/BaseSiCard.js -->
<g id="edge85" class="edge"><title>src/SiCard/types/TCard.js&#45;&gt;src/SiCard/BaseSiCard.js</title>
<path fill="none" stroke="#000000" stroke-width="2" stroke-opacity="0.466667" d="M104.581,-377.1C111.552,-375.216 118.413,-371.944 123,-366.338 144.606,-339.927 110.871,-236.422 136,-213.338 154.656,-196.199 227.341,-202.008 250,-213.338 297.901,-237.288 328.639,-296.657 341.734,-326.939"/>
<polygon fill="#000000" fill-opacity="0.466667" stroke="#000000" stroke-width="2" stroke-opacity="0.466667" points="338.565,-328.435 345.629,-336.331 345.031,-325.753 338.565,-328.435"/>
</g>
<!-- src/SiCard/types/TCard.test.js -->
<g id="node26" class="node"><title>src/SiCard/types/TCard.test.js</title>
<g id="a_node26"><a xlink:href="src/SiCard/types/TCard.test.js" xlink:title="TCard.test.js">
<path fill="#ffffcc" stroke="black" d="M109,-598.338C109,-598.338 46,-598.338 46,-598.338 43,-598.338 40,-595.338 40,-592.338 40,-592.338 40,-586.338 40,-586.338 40,-583.338 43,-580.338 46,-580.338 46,-580.338 109,-580.338 109,-580.338 112,-580.338 115,-583.338 115,-586.338 115,-586.338 115,-592.338 115,-592.338 115,-595.338 112,-598.338 109,-598.338"/>
<text text-anchor="middle" x="77.5" y="-587.138" font-family="Helvetica,sans-Serif" font-size="9.00">TCard.test.js</text>
</a>
</g>
</g>
<!-- src/SiCard/types/TCard.test.js&#45;&gt;src/SiCard/BaseSiCard.js -->
<g id="edge86" class="edge"><title>src/SiCard/types/TCard.test.js&#45;&gt;src/SiCard/BaseSiCard.js</title>
<path fill="none" stroke="#000000" stroke-width="2" stroke-opacity="0.466667" d="M115.056,-581.401C118.101,-579.519 120.836,-577.199 123,-574.338 140.649,-551.002 114.807,-331.509 136,-311.338 154.35,-293.872 225.012,-307.166 250,-311.338 274.117,-315.364 300.23,-324.549 319.579,-332.359"/>
<polygon fill="#000000" fill-opacity="0.466667" stroke="#000000" stroke-width="2" stroke-opacity="0.466667" points="318.457,-335.683 329.035,-336.283 321.14,-329.217 318.457,-335.683"/>
</g>
<!-- src/SiCard/types/TCard.test.js&#45;&gt;src/SiCard/types/SIAC.js -->
<g id="edge87" class="edge"><title>src/SiCard/types/TCard.test.js&#45;&gt;src/SiCard/types/SIAC.js</title>
<path fill="none" stroke="#000000" stroke-width="2" stroke-opacity="0.466667" d="M114.516,-580.275C117.588,-578.616 120.479,-576.655 123,-574.338 133.697,-564.502 124.997,-553.83 136,-544.338 141.659,-539.456 148.746,-536.144 155.957,-533.903"/>
<polygon fill="#000000" fill-opacity="0.466667" stroke="#000000" stroke-width="2" stroke-opacity="0.466667" points="156.888,-537.278 165.744,-531.462 155.194,-530.486 156.888,-537.278"/>
</g>
<!-- src/SiCard/types/index.test.js -->
<g id="node28" class="node"><title>src/SiCard/types/index.test.js</title>
<g id="a_node28"><a xlink:href="src/SiCard/types/index.test.js" xlink:title="index.test.js">
<path fill="#ffffcc" stroke="black" d="M108.5,-418.338C108.5,-418.338 46.5,-418.338 46.5,-418.338 43.5,-418.338 40.5,-415.338 40.5,-412.338 40.5,-412.338 40.5,-406.338 40.5,-406.338 40.5,-403.338 43.5,-400.338 46.5,-400.338 46.5,-400.338 108.5,-400.338 108.5,-400.338 111.5,-400.338 114.5,-403.338 114.5,-406.338 114.5,-406.338 114.5,-412.338 114.5,-412.338 114.5,-415.338 111.5,-418.338 108.5,-418.338"/>
<text text-anchor="middle" x="77.5" y="-407.138" font-family="Helvetica,sans-Serif" font-size="9.00">index.test.js</text>
</a>
</g>
</g>
<!-- src/SiCard/types/index.test.js&#45;&gt;node_modules/lodash/lodash.js -->
<g id="edge90" class="edge"><title>src/SiCard/types/index.test.js&#45;&gt;node_modules/lodash/lodash.js</title>
<path fill="none" stroke="#000000" stroke-width="2" stroke-opacity="0.466667" d="M114.673,-401.68C117.879,-399.75 120.754,-397.341 123,-394.338 145.571,-364.148 108.84,-81.4759 136,-55.3376 233.992,38.9683 314.99,-6.71227 442,-55.3376 458.159,-61.5239 472.508,-75.0901 482.268,-86.2271"/>
<polygon fill="#000000" fill-opacity="0.466667" stroke="#000000" stroke-width="2" stroke-opacity="0.466667" points="479.718,-88.6358 488.791,-94.1077 485.111,-84.1725 479.718,-88.6358"/>
</g>
<!-- src/SiCard/types/index.test.js&#45;&gt;src/SiCard/BaseSiCard.js -->
<g id="edge88" class="edge"><title>src/SiCard/types/index.test.js&#45;&gt;src/SiCard/BaseSiCard.js</title>
<path fill="none" stroke="#000000" stroke-width="2" stroke-opacity="0.466667" d="M114.554,-401.59C117.783,-399.676 120.696,-397.296 123,-394.338 145.872,-364.97 108.677,-252.617 136,-227.338 154.596,-210.133 227.041,-216.631 250,-227.338 294.464,-248.074 326.044,-299.695 340.37,-327.282"/>
<polygon fill="#000000" fill-opacity="0.466667" stroke="#000000" stroke-width="2" stroke-opacity="0.466667" points="337.255,-328.879 344.859,-336.256 343.516,-325.747 337.255,-328.879"/>
</g>
<!-- src/SiCard/types/index.test.js&#45;&gt;src/SiCard/types/index.js -->
<g id="edge89" class="edge"><title>src/SiCard/types/index.test.js&#45;&gt;src/SiCard/types/index.js</title>
<path fill="none" stroke="#000000" stroke-width="2" stroke-opacity="0.466667" d="M112.554,-400.337C126.32,-396.698 142.22,-392.495 156.162,-388.81"/>
<polygon fill="#000000" fill-opacity="0.466667" stroke="#000000" stroke-width="2" stroke-opacity="0.466667" points="157.136,-392.173 165.91,-386.234 155.347,-385.405 157.136,-392.173"/>
</g>
</g>
</svg>
