<?xml version="1.0" encoding="UTF-8" standalone="no"?>
<!DOCTYPE svg PUBLIC "-//W3C//DTD SVG 1.1//EN"
 "http://www.w3.org/Graphics/SVG/1.1/DTD/svg11.dtd">
<!-- Generated by graphviz version 2.38.0 (20140413.2041)
 -->
<!-- Title: dependency&#45;cruiser output Pages: 1 -->
<svg width="445pt" height="480pt"
 viewBox="0.00 0.00 445.00 480.00" xmlns="http://www.w3.org/2000/svg" xmlns:xlink="http://www.w3.org/1999/xlink">
<g id="graph0" class="graph" transform="scale(1 1) rotate(0) translate(4 476)">
<title>dependency&#45;cruiser output</title>
<polygon fill="white" stroke="none" points="-4,4 -4,-476 441,-476 441,4 -4,4"/>
<g id="clust1" class="cluster"><title>cluster_src</title>
<path fill="#ffffff" stroke="black" stroke-width="2" d="M20,-8C20,-8 417,-8 417,-8 423,-8 429,-14 429,-20 429,-20 429,-452 429,-452 429,-458 423,-464 417,-464 417,-464 20,-464 20,-464 14,-464 8,-458 8,-452 8,-452 8,-20 8,-20 8,-14 14,-8 20,-8"/>
<text text-anchor="middle" x="218.5" y="-452.8" font-family="Helvetica,sans-Serif" font-weight="bold" font-size="9.00">src</text>
</g>
<g id="clust2" class="cluster"><title>cluster_src/SiCard</title>
<path fill="#ffffff" stroke="black" stroke-width="2" d="M333,-150C333,-150 379,-150 379,-150 385,-150 391,-156 391,-162 391,-162 391,-190 391,-190 391,-196 385,-202 379,-202 379,-202 333,-202 333,-202 327,-202 321,-196 321,-190 321,-190 321,-162 321,-162 321,-156 327,-150 333,-150"/>
<text text-anchor="middle" x="356" y="-190.8" font-family="Helvetica,sans-Serif" font-weight="bold" font-size="9.00">SiCard</text>
</g>
<g id="clust3" class="cluster"><title>cluster_src/SiDevice</title>
<path fill="#ffffff" stroke="black" stroke-width="2" d="M308,-326C308,-326 404,-326 404,-326 410,-326 416,-332 416,-338 416,-338 416,-400 416,-400 416,-406 410,-412 404,-412 404,-412 308,-412 308,-412 302,-412 296,-406 296,-400 296,-400 296,-338 296,-338 296,-332 302,-326 308,-326"/>
<text text-anchor="middle" x="356" y="-400.8" font-family="Helvetica,sans-Serif" font-weight="bold" font-size="9.00">SiDevice</text>
</g>
<g id="clust4" class="cluster"><title>cluster_src/SiDevice/testUtils</title>
<path fill="#ffffff" stroke="black" stroke-width="2" d="M316,-334C316,-334 396,-334 396,-334 402,-334 408,-340 408,-346 408,-346 408,-374 408,-374 408,-380 402,-386 396,-386 396,-386 316,-386 316,-386 310,-386 304,-380 304,-374 304,-374 304,-346 304,-346 304,-340 310,-334 316,-334"/>
<text text-anchor="middle" x="356" y="-374.8" font-family="Helvetica,sans-Serif" font-weight="bold" font-size="9.00">testUtils</text>
</g>
<g id="clust5" class="cluster"><title>cluster_src/SiStation</title>
<path fill="#ffffff" stroke="black" stroke-width="2" d="M28,-16C28,-16 409,-16 409,-16 415,-16 421,-22 421,-28 421,-28 421,-130 421,-130 421,-136 415,-142 409,-142 409,-142 28,-142 28,-142 22,-142 16,-136 16,-130 16,-130 16,-28 16,-28 16,-22 22,-16 28,-16"/>
<text text-anchor="middle" x="218.5" y="-130.8" font-family="Helvetica,sans-Serif" font-weight="bold" font-size="9.00">SiStation</text>
</g>
<g id="clust6" class="cluster"><title>cluster_src/utils</title>
<path fill="#ffffff" stroke="black" stroke-width="2" d="M333,-266C333,-266 379,-266 379,-266 385,-266 391,-272 391,-278 391,-278 391,-306 391,-306 391,-312 385,-318 379,-318 379,-318 333,-318 333,-318 327,-318 321,-312 321,-306 321,-306 321,-278 321,-278 321,-272 327,-266 333,-266"/>
<text text-anchor="middle" x="356" y="-306.8" font-family="Helvetica,sans-Serif" font-weight="bold" font-size="9.00">utils</text>
</g>
<!-- src/SiCard/index.js -->
<g id="node1" class="node"><title>src/SiCard/index.js</title>
<g id="a_node1"><a xlink:href="src/SiCard/index.js" xlink:title="index.js">
<path fill="#ffffcc" stroke="black" d="M377,-176C377,-176 335,-176 335,-176 332,-176 329,-173 329,-170 329,-170 329,-164 329,-164 329,-161 332,-158 335,-158 335,-158 377,-158 377,-158 380,-158 383,-161 383,-164 383,-164 383,-170 383,-170 383,-173 380,-176 377,-176"/>
<text text-anchor="middle" x="356" y="-164.8" font-family="Helvetica,sans-Serif" font-size="9.00">index.js</text>
</a>
</g>
</g>
<!-- src/SiDevice/testUtils/FakeSiDevice.js -->
<g id="node2" class="node"><title>src/SiDevice/testUtils/FakeSiDevice.js</title>
<g id="a_node2"><a xlink:href="src/SiDevice/testUtils/FakeSiDevice.js" xlink:title="FakeSiDevice.js">
<path fill="#ffffcc" stroke="black" d="M394,-360C394,-360 318,-360 318,-360 315,-360 312,-357 312,-354 312,-354 312,-348 312,-348 312,-345 315,-342 318,-342 318,-342 394,-342 394,-342 397,-342 400,-345 400,-348 400,-348 400,-354 400,-354 400,-357 397,-360 394,-360"/>
<text text-anchor="middle" x="356" y="-348.8" font-family="Helvetica,sans-Serif" font-size="9.00">FakeSiDevice.js</text>
</a>
</g>
</g>
<!-- src/SiStation/SiMainStation.js -->
<g id="node3" class="node"><title>src/SiStation/SiMainStation.js</title>
<g id="a_node3"><a xlink:href="src/SiStation/SiMainStation.js" xlink:title="SiMainStation.js">
<path fill="#ffffcc" stroke="black" d="M257.5,-86C257.5,-86 178.5,-86 178.5,-86 175.5,-86 172.5,-83 172.5,-80 172.5,-80 172.5,-74 172.5,-74 172.5,-71 175.5,-68 178.5,-68 178.5,-68 257.5,-68 257.5,-68 260.5,-68 263.5,-71 263.5,-74 263.5,-74 263.5,-80 263.5,-80 263.5,-83 260.5,-86 257.5,-86"/>
<text text-anchor="middle" x="218" y="-74.8" font-family="Helvetica,sans-Serif" font-size="9.00">SiMainStation.js</text>
</a>
</g>
</g>
<!-- src/SiStation/SiMainStation.js&#45;&gt;src/SiCard/index.js -->
<g id="edge1" class="edge"><title>src/SiStation/SiMainStation.js&#45;&gt;src/SiCard/index.js</title>
<path fill="none" stroke="#000000" stroke-width="2" stroke-opacity="0.466667" d="M263.837,-79.5453C272.125,-81.9438 280.035,-85.8298 286,-92 302.662,-109.234 280.554,-126.669 296,-145 301.988,-152.107 310.505,-156.919 319.211,-160.178"/>
<polygon fill="#000000" fill-opacity="0.466667" stroke="#000000" stroke-width="2" stroke-opacity="0.466667" points="318.407,-163.594 328.996,-163.236 320.495,-156.912 318.407,-163.594"/>
</g>
<!-- src/SiStation/SiStation.js -->
<g id="node5" class="node"><title>src/SiStation/SiStation.js</title>
<g id="a_node5"><a xlink:href="src/SiStation/SiStation.js" xlink:title="SiStation.js">
<path fill="#ffffcc" stroke="black" d="M384.5,-56C384.5,-56 327.5,-56 327.5,-56 324.5,-56 321.5,-53 321.5,-50 321.5,-50 321.5,-44 321.5,-44 321.5,-41 324.5,-38 327.5,-38 327.5,-38 384.5,-38 384.5,-38 387.5,-38 390.5,-41 390.5,-44 390.5,-44 390.5,-50 390.5,-50 390.5,-53 387.5,-56 384.5,-56"/>
<text text-anchor="middle" x="356" y="-44.8" font-family="Helvetica,sans-Serif" font-size="9.00">SiStation.js</text>
</a>
</g>
</g>
<!-- src/SiStation/SiMainStation.js&#45;&gt;src/SiStation/SiStation.js -->
<g id="edge5" class="edge"><title>src/SiStation/SiMainStation.js&#45;&gt;src/SiStation/SiStation.js</title>
<path fill="none" stroke="#000000" stroke-width="2" stroke-opacity="0.466667" d="M259.804,-67.999C276.003,-64.4258 294.666,-60.3089 311.153,-56.6722"/>
<polygon fill="#000000" fill-opacity="0.466667" stroke="#000000" stroke-width="2" stroke-opacity="0.466667" points="312.084,-60.051 321.095,-54.479 310.576,-53.2153 312.084,-60.051"/>
</g>
<!-- src/SiStation/SiTargetMultiplexer.js -->
<g id="node7" class="node"><title>src/SiStation/SiTargetMultiplexer.js</title>
<g id="a_node7"><a xlink:href="src/SiStation/SiTargetMultiplexer.js" xlink:title="SiTargetMultiplexer.js">
<path fill="#ffffcc" stroke="black" d="M407,-101C407,-101 305,-101 305,-101 302,-101 299,-98 299,-95 299,-95 299,-89 299,-89 299,-86 302,-83 305,-83 305,-83 407,-83 407,-83 410,-83 413,-86 413,-89 413,-89 413,-95 413,-95 413,-98 410,-101 407,-101"/>
<text text-anchor="middle" x="356" y="-89.8" font-family="Helvetica,sans-Serif" font-size="9.00">SiTargetMultiplexer.js</text>
</a>
</g>
</g>
<!-- src/SiStation/SiMainStation.js&#45;&gt;src/SiStation/SiTargetMultiplexer.js -->
<g id="edge6" class="edge"><title>src/SiStation/SiMainStation.js&#45;&gt;src/SiStation/SiTargetMultiplexer.js</title>
<path fill="none" stroke="#000000" stroke-width="2" stroke-opacity="0.466667" d="M263.531,-81.9116C271.661,-82.8082 280.3,-83.761 288.899,-84.7094"/>
<polygon fill="#000000" fill-opacity="0.466667" stroke="#000000" stroke-width="2" stroke-opacity="0.466667" points="288.618,-88.1996 298.941,-85.8171 289.385,-81.2418 288.618,-88.1996"/>
</g>
<!-- src/constants.js -->
<g id="node10" class="node"><title>src/constants.js</title>
<g id="a_node10"><a xlink:href="src/constants.js" xlink:title="constants.js">
<path fill="#ffffcc" stroke="black" d="M387,-228C387,-228 325,-228 325,-228 322,-228 319,-225 319,-222 319,-222 319,-216 319,-216 319,-213 322,-210 325,-210 325,-210 387,-210 387,-210 390,-210 393,-213 393,-216 393,-216 393,-222 393,-222 393,-225 390,-228 387,-228"/>
<text text-anchor="middle" x="356" y="-216.8" font-family="Helvetica,sans-Serif" font-size="9.00">constants.js</text>
</a>
</g>
</g>
<!-- src/SiStation/SiMainStation.js&#45;&gt;src/constants.js -->
<g id="edge2" class="edge"><title>src/SiStation/SiMainStation.js&#45;&gt;src/constants.js</title>
<path fill="none" stroke="#000000" stroke-width="2" stroke-opacity="0.466667" d="M263.628,-78.904C272.137,-81.3126 280.188,-85.3651 286,-92 302.611,-110.962 279.51,-185.932 296,-205 299.525,-209.076 303.999,-212.082 308.902,-214.282"/>
<polygon fill="#000000" fill-opacity="0.466667" stroke="#000000" stroke-width="2" stroke-opacity="0.466667" points="308.128,-217.715 318.722,-217.591 310.363,-211.081 308.128,-217.715"/>
</g>
<!-- src/siProtocol.js -->
<g id="node11" class="node"><title>src/siProtocol.js</title>
<g id="a_node11"><a xlink:href="src/siProtocol.js" xlink:title="siProtocol.js">
<path fill="#ffffcc" stroke="black" d="M387,-258C387,-258 325,-258 325,-258 322,-258 319,-255 319,-252 319,-252 319,-246 319,-246 319,-243 322,-240 325,-240 325,-240 387,-240 387,-240 390,-240 393,-243 393,-246 393,-246 393,-252 393,-252 393,-255 390,-258 387,-258"/>
<text text-anchor="middle" x="356" y="-246.8" font-family="Helvetica,sans-Serif" font-size="9.00">siProtocol.js</text>
</a>
</g>
</g>
<!-- src/SiStation/SiMainStation.js&#45;&gt;src/siProtocol.js -->
<g id="edge3" class="edge"><title>src/SiStation/SiMainStation.js&#45;&gt;src/siProtocol.js</title>
<path fill="none" stroke="#000000" stroke-width="2" stroke-opacity="0.466667" d="M263.719,-78.8253C272.222,-81.2388 280.248,-85.3132 286,-92 306.63,-115.981 275.716,-209.725 296,-234 299.6,-238.309 304.247,-241.475 309.351,-243.787"/>
<polygon fill="#000000" fill-opacity="0.466667" stroke="#000000" stroke-width="2" stroke-opacity="0.466667" points="308.31,-247.131 318.904,-247.09 310.597,-240.515 308.31,-247.131"/>
</g>
<!-- src/utils/index.js -->
<g id="node13" class="node"><title>src/utils/index.js</title>
<g id="a_node13"><a xlink:href="src/utils/index.js" xlink:title="index.js">
<path fill="#ffffcc" stroke="black" d="M377,-292C377,-292 335,-292 335,-292 332,-292 329,-289 329,-286 329,-286 329,-280 329,-280 329,-277 332,-274 335,-274 335,-274 377,-274 377,-274 380,-274 383,-277 383,-280 383,-280 383,-286 383,-286 383,-289 380,-292 377,-292"/>
<text text-anchor="middle" x="356" y="-280.8" font-family="Helvetica,sans-Serif" font-size="9.00">index.js</text>
</a>
</g>
</g>
<!-- src/SiStation/SiMainStation.js&#45;&gt;src/utils/index.js -->
<g id="edge4" class="edge"><title>src/SiStation/SiMainStation.js&#45;&gt;src/utils/index.js</title>
<path fill="none" stroke="#000000" stroke-width="2" stroke-opacity="0.466667" d="M263.791,-78.7637C272.29,-81.181 280.295,-85.2725 286,-92 311.623,-122.216 270.326,-239.827 296,-270 301.716,-276.718 310.043,-280.425 318.649,-282.374"/>
<polygon fill="#000000" fill-opacity="0.466667" stroke="#000000" stroke-width="2" stroke-opacity="0.466667" points="318.324,-285.865 328.74,-283.93 319.391,-278.947 318.324,-285.865"/>
</g>
<!-- src/SiStation/SiMainStation.test.js -->
<g id="node4" class="node"><title>src/SiStation/SiMainStation.test.js</title>
<g id="a_node4"><a xlink:href="src/SiStation/SiMainStation.test.js" xlink:title="SiMainStation.test.js">
<path fill="#ffffcc" stroke="black" d="M131,-86C131,-86 30,-86 30,-86 27,-86 24,-83 24,-80 24,-80 24,-74 24,-74 24,-71 27,-68 30,-68 30,-68 131,-68 131,-68 134,-68 137,-71 137,-74 137,-74 137,-80 137,-80 137,-83 134,-86 131,-86"/>
<text text-anchor="middle" x="80.5" y="-74.8" font-family="Helvetica,sans-Serif" font-size="9.00">SiMainStation.test.js</text>
</a>
</g>
</g>
<!-- src/SiStation/SiMainStation.test.js&#45;&gt;src/SiStation/SiMainStation.js -->
<g id="edge7" class="edge"><title>src/SiStation/SiMainStation.test.js&#45;&gt;src/SiStation/SiMainStation.js</title>
<path fill="none" stroke="#000000" stroke-width="2" stroke-opacity="0.466667" d="M137.004,-77C145.226,-77 153.697,-77 161.911,-77"/>
<polygon fill="#000000" fill-opacity="0.466667" stroke="#000000" stroke-width="2" stroke-opacity="0.466667" points="162.139,-80.5001 172.139,-77 162.139,-73.5001 162.139,-80.5001"/>
</g>
<!-- src/SiStation/SiStation.test.js -->
<g id="node6" class="node"><title>src/SiStation/SiStation.test.js</title>
<g id="a_node6"><a xlink:href="src/SiStation/SiStation.test.js" xlink:title="SiStation.test.js">
<path fill="#ffffcc" stroke="black" d="M257.5,-56C257.5,-56 178.5,-56 178.5,-56 175.5,-56 172.5,-53 172.5,-50 172.5,-50 172.5,-44 172.5,-44 172.5,-41 175.5,-38 178.5,-38 178.5,-38 257.5,-38 257.5,-38 260.5,-38 263.5,-41 263.5,-44 263.5,-44 263.5,-50 263.5,-50 263.5,-53 260.5,-56 257.5,-56"/>
<text text-anchor="middle" x="218" y="-44.8" font-family="Helvetica,sans-Serif" font-size="9.00">SiStation.test.js</text>
</a>
</g>
</g>
<!-- src/SiStation/SiStation.test.js&#45;&gt;src/SiStation/SiStation.js -->
<g id="edge8" class="edge"><title>src/SiStation/SiStation.test.js&#45;&gt;src/SiStation/SiStation.js</title>
<path fill="none" stroke="#000000" stroke-width="2" stroke-opacity="0.466667" d="M263.531,-47C278.764,-47 295.786,-47 310.978,-47"/>
<polygon fill="#000000" fill-opacity="0.466667" stroke="#000000" stroke-width="2" stroke-opacity="0.466667" points="311.158,-50.5001 321.158,-47 311.158,-43.5001 311.158,-50.5001"/>
</g>
<!-- src/SiStation/SiTargetMultiplexer.test.js -->
<g id="node8" class="node"><title>src/SiStation/SiTargetMultiplexer.test.js</title>
<g id="a_node8"><a xlink:href="src/SiStation/SiTargetMultiplexer.test.js" xlink:title="SiTargetMultiplexer.test.js">
<path fill="#ffffcc" stroke="black" d="M280,-116C280,-116 156,-116 156,-116 153,-116 150,-113 150,-110 150,-110 150,-104 150,-104 150,-101 153,-98 156,-98 156,-98 280,-98 280,-98 283,-98 286,-101 286,-104 286,-104 286,-110 286,-110 286,-113 283,-116 280,-116"/>
<text text-anchor="middle" x="218" y="-104.8" font-family="Helvetica,sans-Serif" font-size="9.00">SiTargetMultiplexer.test.js</text>
</a>
</g>
</g>
<!-- src/SiStation/SiTargetMultiplexer.test.js&#45;&gt;src/SiDevice/testUtils/FakeSiDevice.js -->
<g id="edge9" class="edge"><title>src/SiStation/SiTargetMultiplexer.test.js&#45;&gt;src/SiDevice/testUtils/FakeSiDevice.js</title>
<path fill="none" stroke="#000000" stroke-width="2" stroke-opacity="0.466667" d="M219.92,-116.357C223.551,-148.664 239.578,-257.044 296,-321 302.02,-327.824 309.962,-333.298 318.061,-337.602"/>
<polygon fill="#000000" fill-opacity="0.466667" stroke="#000000" stroke-width="2" stroke-opacity="0.466667" points="316.646,-340.806 327.176,-341.976 319.674,-334.494 316.646,-340.806"/>
</g>
<!-- src/SiStation/SiTargetMultiplexer.test.js&#45;&gt;src/SiStation/SiTargetMultiplexer.js -->
<g id="edge12" class="edge"><title>src/SiStation/SiTargetMultiplexer.test.js&#45;&gt;src/SiStation/SiTargetMultiplexer.js</title>
<path fill="none" stroke="#000000" stroke-width="2" stroke-opacity="0.466667" d="M286.203,-99.5879C287.14,-99.4846 288.077,-99.3812 289.014,-99.2779"/>
<polygon fill="#000000" fill-opacity="0.466667" stroke="#000000" stroke-width="2" stroke-opacity="0.466667" points="289.441,-102.752 298.997,-98.1768 288.673,-95.7943 289.441,-102.752"/>
</g>
<!-- src/SiStation/SiTargetMultiplexer.test.js&#45;&gt;src/siProtocol.js -->
<g id="edge10" class="edge"><title>src/SiStation/SiTargetMultiplexer.test.js&#45;&gt;src/siProtocol.js</title>
<path fill="none" stroke="#000000" stroke-width="2" stroke-opacity="0.466667" d="M221.779,-116.024C229.466,-139.418 253.312,-202.392 296,-234 299.934,-236.913 304.375,-239.263 309.012,-241.158"/>
<polygon fill="#000000" fill-opacity="0.466667" stroke="#000000" stroke-width="2" stroke-opacity="0.466667" points="308.109,-244.547 318.703,-244.444 310.357,-237.918 308.109,-244.547"/>
</g>
<!-- src/testUtils.js -->
<g id="node12" class="node"><title>src/testUtils.js</title>
<g id="a_node12"><a xlink:href="src/testUtils.js" xlink:title="testUtils.js">
<path fill="#ffffcc" stroke="black" d="M383,-438C383,-438 329,-438 329,-438 326,-438 323,-435 323,-432 323,-432 323,-426 323,-426 323,-423 326,-420 329,-420 329,-420 383,-420 383,-420 386,-420 389,-423 389,-426 389,-426 389,-432 389,-432 389,-435 386,-438 383,-438"/>
<text text-anchor="middle" x="356" y="-426.8" font-family="Helvetica,sans-Serif" font-size="9.00">testUtils.js</text>
</a>
</g>
</g>
<!-- src/SiStation/SiTargetMultiplexer.test.js&#45;&gt;src/testUtils.js -->
<g id="edge11" class="edge"><title>src/SiStation/SiTargetMultiplexer.test.js&#45;&gt;src/testUtils.js</title>
<path fill="none" stroke="#000000" stroke-width="2" stroke-opacity="0.466667" d="M219.256,-116.002C220.732,-153.241 230.613,-297.561 296,-389 303.648,-399.695 315.111,-408.403 325.904,-414.931"/>
<polygon fill="#000000" fill-opacity="0.466667" stroke="#000000" stroke-width="2" stroke-opacity="0.466667" points="324.285,-418.036 334.715,-419.897 327.722,-411.938 324.285,-418.036"/>
</g>
<!-- src/SiStation/index.js -->
<g id="node9" class="node"><title>src/SiStation/index.js</title>
<g id="a_node9"><a xlink:href="src/SiStation/index.js" xlink:title="index.js">
<path fill="#ffffcc" stroke="black" d="M101.5,-49C101.5,-49 59.5,-49 59.5,-49 56.5,-49 53.5,-46 53.5,-43 53.5,-43 53.5,-37 53.5,-37 53.5,-34 56.5,-31 59.5,-31 59.5,-31 101.5,-31 101.5,-31 104.5,-31 107.5,-34 107.5,-37 107.5,-37 107.5,-43 107.5,-43 107.5,-46 104.5,-49 101.5,-49"/>
<text text-anchor="middle" x="80.5" y="-37.8" font-family="Helvetica,sans-Serif" font-size="9.00">index.js</text>
</a>
</g>
</g>
<!-- src/SiStation/index.js&#45;&gt;src/SiStation/SiMainStation.js -->
<g id="edge13" class="edge"><title>src/SiStation/index.js&#45;&gt;src/SiStation/SiMainStation.js</title>
<path fill="none" stroke="#000000" stroke-width="2" stroke-opacity="0.466667" d="M107.682,-49.0229C120.378,-53.2405 135.898,-58.1653 150,-62 154.576,-63.2443 159.347,-64.464 164.143,-65.6369"/>
<polygon fill="#000000" fill-opacity="0.466667" stroke="#000000" stroke-width="2" stroke-opacity="0.466667" points="163.429,-69.0645 173.967,-67.9712 165.047,-62.2541 163.429,-69.0645"/>
</g>
<!-- src/SiStation/index.js&#45;&gt;src/SiStation/SiStation.js -->
<g id="edge14" class="edge"><title>src/SiStation/index.js&#45;&gt;src/SiStation/SiStation.js</title>
<path fill="none" stroke="#000000" stroke-width="2" stroke-opacity="0.466667" d="M107.785,-36.2055C120.505,-34.5548 136.015,-32.8139 150,-32 210.342,-28.4883 225.901,-25.543 286,-32 294.232,-32.8845 302.923,-34.3463 311.258,-36.0193"/>
<polygon fill="#000000" fill-opacity="0.466667" stroke="#000000" stroke-width="2" stroke-opacity="0.466667" points="310.683,-39.4753 321.194,-38.1401 312.145,-32.6295 310.683,-39.4753"/>
</g>
</g>
</svg>
