<?xml version="1.0" encoding="UTF-8" standalone="no"?>
<!DOCTYPE svg PUBLIC "-//W3C//DTD SVG 1.1//EN"
 "http://www.w3.org/Graphics/SVG/1.1/DTD/svg11.dtd">
<!-- Generated by graphviz version 2.38.0 (20140413.2041)
 -->
<!-- Title: dependency&#45;cruiser output Pages: 1 -->
<svg width="465pt" height="518pt"
 viewBox="0.00 0.00 465.00 518.00" xmlns="http://www.w3.org/2000/svg" xmlns:xlink="http://www.w3.org/1999/xlink">
<g id="graph0" class="graph" transform="scale(1 1) rotate(0) translate(4 514)">
<title>dependency&#45;cruiser output</title>
<polygon fill="white" stroke="none" points="-4,4 -4,-514 461,-514 461,4 -4,4"/>
<g id="clust1" class="cluster"><title>cluster_node_modules</title>
<path fill="#ffffff" stroke="black" stroke-width="2" d="M337,-8C337,-8 437,-8 437,-8 443,-8 449,-14 449,-20 449,-20 449,-176 449,-176 449,-182 443,-188 437,-188 437,-188 337,-188 337,-188 331,-188 325,-182 325,-176 325,-176 325,-20 325,-20 325,-14 331,-8 337,-8"/>
<text text-anchor="middle" x="387" y="-176.8" font-family="Helvetica,sans-Serif" font-weight="bold" font-size="9.00">node_modules</text>
</g>
<g id="clust2" class="cluster"><title>cluster_node_modules/immutable</title>
<path fill="#ffffff" stroke="black" stroke-width="2" d="M345,-76C345,-76 429,-76 429,-76 435,-76 441,-82 441,-88 441,-88 441,-150 441,-150 441,-156 435,-162 429,-162 429,-162 345,-162 345,-162 339,-162 333,-156 333,-150 333,-150 333,-88 333,-88 333,-82 339,-76 345,-76"/>
<text text-anchor="middle" x="387" y="-150.8" font-family="Helvetica,sans-Serif" font-weight="bold" font-size="9.00">immutable</text>
</g>
<g id="clust3" class="cluster"><title>cluster_node_modules/immutable/dist</title>
<path fill="#ffffff" stroke="black" stroke-width="2" d="M353,-84C353,-84 421,-84 421,-84 427,-84 433,-90 433,-96 433,-96 433,-124 433,-124 433,-130 427,-136 421,-136 421,-136 353,-136 353,-136 347,-136 341,-130 341,-124 341,-124 341,-96 341,-96 341,-90 347,-84 353,-84"/>
<text text-anchor="middle" x="387" y="-124.8" font-family="Helvetica,sans-Serif" font-weight="bold" font-size="9.00">dist</text>
</g>
<g id="clust4" class="cluster"><title>cluster_node_modules/lodash</title>
<path fill="#ffffff" stroke="black" stroke-width="2" d="M361.5,-16C361.5,-16 412.5,-16 412.5,-16 418.5,-16 424.5,-22 424.5,-28 424.5,-28 424.5,-56 424.5,-56 424.5,-62 418.5,-68 412.5,-68 412.5,-68 361.5,-68 361.5,-68 355.5,-68 349.5,-62 349.5,-56 349.5,-56 349.5,-28 349.5,-28 349.5,-22 355.5,-16 361.5,-16"/>
<text text-anchor="middle" x="387" y="-56.8" font-family="Helvetica,sans-Serif" font-weight="bold" font-size="9.00">lodash</text>
</g>
<g id="clust5" class="cluster"><title>cluster_src</title>
<path fill="#ffffff" stroke="black" stroke-width="2" d="M20,-196C20,-196 422.5,-196 422.5,-196 428.5,-196 434.5,-202 434.5,-208 434.5,-208 434.5,-490 434.5,-490 434.5,-496 428.5,-502 422.5,-502 422.5,-502 20,-502 20,-502 14,-502 8,-496 8,-490 8,-490 8,-208 8,-208 8,-202 14,-196 20,-196"/>
<text text-anchor="middle" x="221.25" y="-490.8" font-family="Helvetica,sans-Serif" font-weight="bold" font-size="9.00">src</text>
</g>
<g id="clust6" class="cluster"><title>cluster_src/utils</title>
<path fill="#ffffff" stroke="black" stroke-width="2" d="M28,-204C28,-204 414.5,-204 414.5,-204 420.5,-204 426.5,-210 426.5,-216 426.5,-216 426.5,-438 426.5,-438 426.5,-444 420.5,-450 414.5,-450 414.5,-450 28,-450 28,-450 22,-450 16,-444 16,-438 16,-438 16,-216 16,-216 16,-210 22,-204 28,-204"/>
<text text-anchor="middle" x="221.25" y="-438.8" font-family="Helvetica,sans-Serif" font-weight="bold" font-size="9.00">utils</text>
</g>
<!-- node_modules/immutable/dist/immutable.js -->
<g id="node1" class="node"><title>node_modules/immutable/dist/immutable.js</title>
<g id="a_node1"><a xlink:href="node_modules/immutable/dist/immutable.js" xlink:title="immutable.js">
<polygon fill="#c40b0a" fill-opacity="0.101961" stroke="black" points="425,-110 423.5,-112 413,-112 411.5,-110 349,-110 349,-92 425,-92 425,-110"/>
<text text-anchor="middle" x="387" y="-98.8" font-family="Helvetica,sans-Serif" font-size="9.00" fill="#c40b0a">immutable.js</text>
</a>
</g>
</g>
<!-- node_modules/lodash/lodash.js -->
<g id="node2" class="node"><title>node_modules/lodash/lodash.js</title>
<g id="a_node2"><a xlink:href="node_modules/lodash/lodash.js" xlink:title="lodash.js">
<polygon fill="#c40b0a" fill-opacity="0.101961" stroke="black" points="416.5,-42 415,-44 404.5,-44 403,-42 357.5,-42 357.5,-24 416.5,-24 416.5,-42"/>
<text text-anchor="middle" x="387" y="-30.8" font-family="Helvetica,sans-Serif" font-size="9.00" fill="#c40b0a">lodash.js</text>
</a>
</g>
</g>
<!-- src/testUtils.js -->
<g id="node3" class="node"><title>src/testUtils.js</title>
<g id="a_node3"><a xlink:href="src/testUtils.js" xlink:title="testUtils.js">
<path fill="#ffffcc" stroke="black" d="M414,-476C414,-476 360,-476 360,-476 357,-476 354,-473 354,-470 354,-470 354,-464 354,-464 354,-461 357,-458 360,-458 360,-458 414,-458 414,-458 417,-458 420,-461 420,-464 420,-464 420,-470 420,-470 420,-473 417,-476 414,-476"/>
<text text-anchor="middle" x="387" y="-464.8" font-family="Helvetica,sans-Serif" font-size="9.00">testUtils.js</text>
</a>
</g>
</g>
<!-- src/utils/NumberRange.js -->
<g id="node4" class="node"><title>src/utils/NumberRange.js</title>
<g id="a_node4"><a xlink:href="src/utils/NumberRange.js" xlink:title="NumberRange.js">
<path fill="#ffffcc" stroke="black" d="M293.5,-290C293.5,-290 211.5,-290 211.5,-290 208.5,-290 205.5,-287 205.5,-284 205.5,-284 205.5,-278 205.5,-278 205.5,-275 208.5,-272 211.5,-272 211.5,-272 293.5,-272 293.5,-272 296.5,-272 299.5,-275 299.5,-278 299.5,-278 299.5,-284 299.5,-284 299.5,-287 296.5,-290 293.5,-290"/>
<text text-anchor="middle" x="252.5" y="-278.8" font-family="Helvetica,sans-Serif" font-size="9.00">NumberRange.js</text>
</a>
</g>
</g>
<!-- src/utils/NumberRange.js&#45;&gt;node_modules/immutable/dist/immutable.js -->
<g id="edge1" class="edge"><title>src/utils/NumberRange.js&#45;&gt;node_modules/immutable/dist/immutable.js</title>
<path fill="none" stroke="#000000" stroke-width="2" stroke-opacity="0.466667" d="M299.556,-277.225C306.172,-274.807 312.313,-271.23 317,-266 326.712,-255.161 320.214,-214.744 325,-201 335.97,-169.499 357.924,-137.313 372.284,-118.251"/>
<polygon fill="#000000" fill-opacity="0.466667" stroke="#000000" stroke-width="2" stroke-opacity="0.466667" points="375.128,-120.294 378.461,-110.237 369.584,-116.02 375.128,-120.294"/>
</g>
<!-- src/utils/NumberRange.test.js -->
<g id="node5" class="node"><title>src/utils/NumberRange.test.js</title>
<g id="a_node5"><a xlink:href="src/utils/NumberRange.test.js" xlink:title="NumberRange.test.js">
<path fill="#ffffcc" stroke="black" d="M151.5,-290C151.5,-290 47.5,-290 47.5,-290 44.5,-290 41.5,-287 41.5,-284 41.5,-284 41.5,-278 41.5,-278 41.5,-275 44.5,-272 47.5,-272 47.5,-272 151.5,-272 151.5,-272 154.5,-272 157.5,-275 157.5,-278 157.5,-278 157.5,-284 157.5,-284 157.5,-287 154.5,-290 151.5,-290"/>
<text text-anchor="middle" x="99.5" y="-278.8" font-family="Helvetica,sans-Serif" font-size="9.00">NumberRange.test.js</text>
</a>
</g>
</g>
<!-- src/utils/NumberRange.test.js&#45;&gt;src/utils/NumberRange.js -->
<g id="edge2" class="edge"><title>src/utils/NumberRange.test.js&#45;&gt;src/utils/NumberRange.js</title>
<path fill="none" stroke="#000000" stroke-width="2" stroke-opacity="0.466667" d="M157.587,-281C169.853,-281 182.81,-281 195.052,-281"/>
<polygon fill="#000000" fill-opacity="0.466667" stroke="#000000" stroke-width="2" stroke-opacity="0.466667" points="195.137,-284.5 205.137,-281 195.137,-277.5 195.137,-284.5"/>
</g>
<!-- src/utils/NumberRangeRegistry.js -->
<g id="node6" class="node"><title>src/utils/NumberRangeRegistry.js</title>
<g id="a_node6"><a xlink:href="src/utils/NumberRangeRegistry.js" xlink:title="NumberRangeRegistry.js">
<path fill="#ffffcc" stroke="black" d="M311,-320C311,-320 194,-320 194,-320 191,-320 188,-317 188,-314 188,-314 188,-308 188,-308 188,-305 191,-302 194,-302 194,-302 311,-302 311,-302 314,-302 317,-305 317,-308 317,-308 317,-314 317,-314 317,-317 314,-320 311,-320"/>
<text text-anchor="middle" x="252.5" y="-308.8" font-family="Helvetica,sans-Serif" font-size="9.00">NumberRangeRegistry.js</text>
</a>
</g>
</g>
<!-- src/utils/NumberRangeRegistry.js&#45;&gt;node_modules/immutable/dist/immutable.js -->
<g id="edge4" class="edge"><title>src/utils/NumberRangeRegistry.js&#45;&gt;node_modules/immutable/dist/immutable.js</title>
<path fill="none" stroke="#000000" stroke-width="2" stroke-opacity="0.466667" d="M310.511,-301.835C312.89,-300.163 315.077,-298.231 317,-296 330.832,-279.953 318.419,-221.138 325,-201 335.362,-169.294 357.487,-137.165 372.048,-118.172"/>
<polygon fill="#000000" fill-opacity="0.466667" stroke="#000000" stroke-width="2" stroke-opacity="0.466667" points="374.894,-120.215 378.321,-110.19 369.39,-115.89 374.894,-120.215"/>
</g>
<!-- src/utils/general.js -->
<g id="node14" class="node"><title>src/utils/general.js</title>
<g id="a_node14"><a xlink:href="src/utils/general.js" xlink:title="general.js">
<path fill="#ffffcc" stroke="black" d="M412.5,-342C412.5,-342 361.5,-342 361.5,-342 358.5,-342 355.5,-339 355.5,-336 355.5,-336 355.5,-330 355.5,-330 355.5,-327 358.5,-324 361.5,-324 361.5,-324 412.5,-324 412.5,-324 415.5,-324 418.5,-327 418.5,-330 418.5,-330 418.5,-336 418.5,-336 418.5,-339 415.5,-342 412.5,-342"/>
<text text-anchor="middle" x="387" y="-330.8" font-family="Helvetica,sans-Serif" font-size="9.00">general.js</text>
</a>
</g>
</g>
<!-- src/utils/NumberRangeRegistry.js&#45;&gt;src/utils/general.js -->
<g id="edge3" class="edge"><title>src/utils/NumberRangeRegistry.js&#45;&gt;src/utils/general.js</title>
<path fill="none" stroke="#000000" stroke-width="2" stroke-opacity="0.466667" d="M307.775,-320.012C320.268,-322.086 333.348,-324.258 345.158,-326.219"/>
<polygon fill="#000000" fill-opacity="0.466667" stroke="#000000" stroke-width="2" stroke-opacity="0.466667" points="344.725,-329.695 355.163,-327.88 345.872,-322.789 344.725,-329.695"/>
</g>
<!-- src/utils/NumberRangeRegistry.test.js -->
<g id="node7" class="node"><title>src/utils/NumberRangeRegistry.test.js</title>
<g id="a_node7"><a xlink:href="src/utils/NumberRangeRegistry.test.js" xlink:title="NumberRangeRegistry.test.js">
<path fill="#ffffcc" stroke="black" d="M169,-320C169,-320 30,-320 30,-320 27,-320 24,-317 24,-314 24,-314 24,-308 24,-308 24,-305 27,-302 30,-302 30,-302 169,-302 169,-302 172,-302 175,-305 175,-308 175,-308 175,-314 175,-314 175,-317 172,-320 169,-320"/>
<text text-anchor="middle" x="99.5" y="-308.8" font-family="Helvetica,sans-Serif" font-size="9.00">NumberRangeRegistry.test.js</text>
</a>
</g>
</g>
<!-- src/utils/NumberRangeRegistry.test.js&#45;&gt;src/utils/NumberRange.js -->
<g id="edge5" class="edge"><title>src/utils/NumberRangeRegistry.test.js&#45;&gt;src/utils/NumberRange.js</title>
<path fill="none" stroke="#000000" stroke-width="2" stroke-opacity="0.466667" d="M145.805,-301.999C161.56,-298.869 179.415,-295.322 195.906,-292.045"/>
<polygon fill="#000000" fill-opacity="0.466667" stroke="#000000" stroke-width="2" stroke-opacity="0.466667" points="196.84,-295.428 205.966,-290.046 195.476,-288.562 196.84,-295.428"/>
</g>
<!-- src/utils/NumberRangeRegistry.test.js&#45;&gt;src/utils/NumberRangeRegistry.js -->
<g id="edge6" class="edge"><title>src/utils/NumberRangeRegistry.test.js&#45;&gt;src/utils/NumberRangeRegistry.js</title>
<path fill="none" stroke="#000000" stroke-width="2" stroke-opacity="0.466667" d="M175.115,-311C176.058,-311 177.001,-311 177.943,-311"/>
<polygon fill="#000000" fill-opacity="0.466667" stroke="#000000" stroke-width="2" stroke-opacity="0.466667" points="177.999,-314.5 187.999,-311 177.999,-307.5 177.999,-314.5"/>
</g>
<!-- src/utils/bytes.js -->
<g id="node8" class="node"><title>src/utils/bytes.js</title>
<g id="a_node8"><a xlink:href="src/utils/bytes.js" xlink:title="bytes.js">
<path fill="#ffffcc" stroke="black" d="M273.5,-230C273.5,-230 231.5,-230 231.5,-230 228.5,-230 225.5,-227 225.5,-224 225.5,-224 225.5,-218 225.5,-218 225.5,-215 228.5,-212 231.5,-212 231.5,-212 273.5,-212 273.5,-212 276.5,-212 279.5,-215 279.5,-218 279.5,-218 279.5,-224 279.5,-224 279.5,-227 276.5,-230 273.5,-230"/>
<text text-anchor="middle" x="252.5" y="-218.8" font-family="Helvetica,sans-Serif" font-size="9.00">bytes.js</text>
</a>
</g>
</g>
<!-- src/utils/bytes.test.js -->
<g id="node9" class="node"><title>src/utils/bytes.test.js</title>
<g id="a_node9"><a xlink:href="src/utils/bytes.test.js" xlink:title="bytes.test.js">
<path fill="#ffffcc" stroke="black" d="M130.5,-260C130.5,-260 68.5,-260 68.5,-260 65.5,-260 62.5,-257 62.5,-254 62.5,-254 62.5,-248 62.5,-248 62.5,-245 65.5,-242 68.5,-242 68.5,-242 130.5,-242 130.5,-242 133.5,-242 136.5,-245 136.5,-248 136.5,-248 136.5,-254 136.5,-254 136.5,-257 133.5,-260 130.5,-260"/>
<text text-anchor="middle" x="99.5" y="-248.8" font-family="Helvetica,sans-Serif" font-size="9.00">bytes.test.js</text>
</a>
</g>
</g>
<!-- src/utils/bytes.test.js&#45;&gt;src/utils/bytes.js -->
<g id="edge7" class="edge"><title>src/utils/bytes.test.js&#45;&gt;src/utils/bytes.js</title>
<path fill="none" stroke="#000000" stroke-width="2" stroke-opacity="0.466667" d="M136.668,-243.814C160.381,-239.103 191.276,-232.965 215.046,-228.242"/>
<polygon fill="#000000" fill-opacity="0.466667" stroke="#000000" stroke-width="2" stroke-opacity="0.466667" points="215.958,-231.63 225.084,-226.248 214.594,-224.764 215.958,-231.63"/>
</g>
<!-- src/utils/errors.js -->
<g id="node10" class="node"><title>src/utils/errors.js</title>
<g id="a_node10"><a xlink:href="src/utils/errors.js" xlink:title="errors.js">
<path fill="#ffffcc" stroke="black" d="M274.5,-364C274.5,-364 230.5,-364 230.5,-364 227.5,-364 224.5,-361 224.5,-358 224.5,-358 224.5,-352 224.5,-352 224.5,-349 227.5,-346 230.5,-346 230.5,-346 274.5,-346 274.5,-346 277.5,-346 280.5,-349 280.5,-352 280.5,-352 280.5,-358 280.5,-358 280.5,-361 277.5,-364 274.5,-364"/>
<text text-anchor="middle" x="252.5" y="-352.8" font-family="Helvetica,sans-Serif" font-size="9.00">errors.js</text>
</a>
</g>
</g>
<!-- src/utils/errors.test.js -->
<g id="node11" class="node"><title>src/utils/errors.test.js</title>
<g id="a_node11"><a xlink:href="src/utils/errors.test.js" xlink:title="errors.test.js">
<path fill="#ffffcc" stroke="black" d="M132,-380C132,-380 67,-380 67,-380 64,-380 61,-377 61,-374 61,-374 61,-368 61,-368 61,-365 64,-362 67,-362 67,-362 132,-362 132,-362 135,-362 138,-365 138,-368 138,-368 138,-374 138,-374 138,-377 135,-380 132,-380"/>
<text text-anchor="middle" x="99.5" y="-368.8" font-family="Helvetica,sans-Serif" font-size="9.00">errors.test.js</text>
</a>
</g>
</g>
<!-- src/utils/errors.test.js&#45;&gt;src/utils/errors.js -->
<g id="edge8" class="edge"><title>src/utils/errors.test.js&#45;&gt;src/utils/errors.js</title>
<path fill="none" stroke="#000000" stroke-width="2" stroke-opacity="0.466667" d="M138.214,-367.004C161.394,-364.548 190.977,-361.413 214.099,-358.963"/>
<polygon fill="#000000" fill-opacity="0.466667" stroke="#000000" stroke-width="2" stroke-opacity="0.466667" points="214.646,-362.425 224.222,-357.89 213.909,-355.464 214.646,-362.425"/>
</g>
<!-- src/utils/events.js -->
<g id="node12" class="node"><title>src/utils/events.js</title>
<g id="a_node12"><a xlink:href="src/utils/events.js" xlink:title="events.js">
<path fill="#ffffcc" stroke="black" d="M276,-394C276,-394 229,-394 229,-394 226,-394 223,-391 223,-388 223,-388 223,-382 223,-382 223,-379 226,-376 229,-376 229,-376 276,-376 276,-376 279,-376 282,-379 282,-382 282,-382 282,-388 282,-388 282,-391 279,-394 276,-394"/>
<text text-anchor="middle" x="252.5" y="-382.8" font-family="Helvetica,sans-Serif" font-size="9.00">events.js</text>
</a>
</g>
</g>
<!-- src/utils/events.test.js -->
<g id="node13" class="node"><title>src/utils/events.test.js</title>
<g id="a_node13"><a xlink:href="src/utils/events.test.js" xlink:title="events.test.js">
<path fill="#ffffcc" stroke="black" d="M133.5,-417C133.5,-417 65.5,-417 65.5,-417 62.5,-417 59.5,-414 59.5,-411 59.5,-411 59.5,-405 59.5,-405 59.5,-402 62.5,-399 65.5,-399 65.5,-399 133.5,-399 133.5,-399 136.5,-399 139.5,-402 139.5,-405 139.5,-405 139.5,-411 139.5,-411 139.5,-414 136.5,-417 133.5,-417"/>
<text text-anchor="middle" x="99.5" y="-405.8" font-family="Helvetica,sans-Serif" font-size="9.00">events.test.js</text>
</a>
</g>
</g>
<!-- src/utils/events.test.js&#45;&gt;src/testUtils.js -->
<g id="edge9" class="edge"><title>src/utils/events.test.js&#45;&gt;src/testUtils.js</title>
<path fill="none" stroke="#000000" stroke-width="2" stroke-opacity="0.466667" d="M134.459,-417.056C150.621,-421.233 170.25,-426.114 188,-430 241.58,-441.73 303.83,-452.976 344.014,-459.927"/>
<polygon fill="#000000" fill-opacity="0.466667" stroke="#000000" stroke-width="2" stroke-opacity="0.466667" points="343.537,-463.397 353.985,-461.642 344.723,-456.498 343.537,-463.397"/>
</g>
<!-- src/utils/events.test.js&#45;&gt;src/utils/events.js -->
<g id="edge10" class="edge"><title>src/utils/events.test.js&#45;&gt;src/utils/events.js</title>
<path fill="none" stroke="#000000" stroke-width="2" stroke-opacity="0.466667" d="M139.779,-402.017C162.26,-398.593 190.354,-394.314 212.746,-390.903"/>
<polygon fill="#000000" fill-opacity="0.466667" stroke="#000000" stroke-width="2" stroke-opacity="0.466667" points="213.552,-394.321 222.911,-389.355 212.498,-387.4 213.552,-394.321"/>
</g>
<!-- src/utils/general.test.js -->
<g id="node15" class="node"><title>src/utils/general.test.js</title>
<g id="a_node15"><a xlink:href="src/utils/general.test.js" xlink:title="general.test.js">
<path fill="#ffffcc" stroke="black" d="M289,-424C289,-424 216,-424 216,-424 213,-424 210,-421 210,-418 210,-418 210,-412 210,-412 210,-409 213,-406 216,-406 216,-406 289,-406 289,-406 292,-406 295,-409 295,-412 295,-412 295,-418 295,-418 295,-421 292,-424 289,-424"/>
<text text-anchor="middle" x="252.5" y="-412.8" font-family="Helvetica,sans-Serif" font-size="9.00">general.test.js</text>
</a>
</g>
</g>
<!-- src/utils/general.test.js&#45;&gt;node_modules/immutable/dist/immutable.js -->
<g id="edge13" class="edge"><title>src/utils/general.test.js&#45;&gt;node_modules/immutable/dist/immutable.js</title>
<path fill="none" stroke="#000000" stroke-width="2" stroke-opacity="0.466667" d="M295.083,-413.126C303.496,-410.768 311.451,-406.73 317,-400 331.077,-382.926 318.588,-222.18 325,-201 334.665,-169.075 356.986,-137.008 371.778,-118.087"/>
<polygon fill="#000000" fill-opacity="0.466667" stroke="#000000" stroke-width="2" stroke-opacity="0.466667" points="374.628,-120.128 378.159,-110.139 369.17,-115.745 374.628,-120.128"/>
</g>
<!-- src/utils/general.test.js&#45;&gt;src/testUtils.js -->
<g id="edge11" class="edge"><title>src/utils/general.test.js&#45;&gt;src/testUtils.js</title>
<path fill="none" stroke="#000000" stroke-width="2" stroke-opacity="0.466667" d="M295.083,-417.019C303.097,-419.098 310.887,-422.513 317,-428 325.682,-435.793 316.411,-445.105 325,-453 330.267,-457.842 336.86,-461.119 343.748,-463.316"/>
<polygon fill="#000000" fill-opacity="0.466667" stroke="#000000" stroke-width="2" stroke-opacity="0.466667" points="343.386,-466.831 353.932,-465.819 345.057,-460.034 343.386,-466.831"/>
</g>
<!-- src/utils/general.test.js&#45;&gt;src/utils/general.js -->
<g id="edge12" class="edge"><title>src/utils/general.test.js&#45;&gt;src/utils/general.js</title>
<path fill="none" stroke="#000000" stroke-width="2" stroke-opacity="0.466667" d="M295.224,-412.491C303.423,-410.135 311.253,-406.257 317,-400 333.412,-382.132 308.392,-363.687 325,-346 330.472,-340.172 337.861,-336.625 345.607,-334.527"/>
<polygon fill="#000000" fill-opacity="0.466667" stroke="#000000" stroke-width="2" stroke-opacity="0.466667" points="346.355,-337.947 355.491,-332.582 345.003,-331.079 346.355,-337.947"/>
</g>
<!-- src/utils/index.js -->
<g id="node16" class="node"><title>src/utils/index.js</title>
<g id="a_node16"><a xlink:href="src/utils/index.js" xlink:title="index.js">
<path fill="#ffffcc" stroke="black" d="M120.5,-350C120.5,-350 78.5,-350 78.5,-350 75.5,-350 72.5,-347 72.5,-344 72.5,-344 72.5,-338 72.5,-338 72.5,-335 75.5,-332 78.5,-332 78.5,-332 120.5,-332 120.5,-332 123.5,-332 126.5,-335 126.5,-338 126.5,-338 126.5,-344 126.5,-344 126.5,-347 123.5,-350 120.5,-350"/>
<text text-anchor="middle" x="99.5" y="-338.8" font-family="Helvetica,sans-Serif" font-size="9.00">index.js</text>
</a>
</g>
</g>
<!-- src/utils/index.js&#45;&gt;src/utils/NumberRange.js -->
<g id="edge14" class="edge"><title>src/utils/index.js&#45;&gt;src/utils/NumberRange.js</title>
<path fill="none" stroke="#000000" stroke-width="2" stroke-opacity="0.466667" d="M126.83,-341.54C142.37,-340.545 161.564,-336.872 175,-326 186.297,-316.86 176.857,-305.327 188,-296 190.44,-293.957 193.11,-292.182 195.929,-290.641"/>
<polygon fill="#000000" fill-opacity="0.466667" stroke="#000000" stroke-width="2" stroke-opacity="0.466667" points="197.617,-293.721 205.343,-286.471 194.782,-287.321 197.617,-293.721"/>
</g>
<!-- src/utils/index.js&#45;&gt;src/utils/NumberRangeRegistry.js -->
<g id="edge15" class="edge"><title>src/utils/index.js&#45;&gt;src/utils/NumberRangeRegistry.js</title>
<path fill="none" stroke="#000000" stroke-width="2" stroke-opacity="0.466667" d="M126.802,-335.774C145.877,-331.985 172.374,-326.72 196.039,-322.019"/>
<polygon fill="#000000" fill-opacity="0.466667" stroke="#000000" stroke-width="2" stroke-opacity="0.466667" points="196.851,-325.426 205.977,-320.044 195.487,-318.56 196.851,-325.426"/>
</g>
<!-- src/utils/index.js&#45;&gt;src/utils/bytes.js -->
<g id="edge16" class="edge"><title>src/utils/index.js&#45;&gt;src/utils/bytes.js</title>
<path fill="none" stroke="#000000" stroke-width="2" stroke-opacity="0.466667" d="M126.854,-342.776C143.006,-342.35 162.849,-338.842 175,-326 202.778,-296.644 160.715,-265.814 188,-236 194.998,-228.354 205.105,-224.257 215.206,-222.15"/>
<polygon fill="#000000" fill-opacity="0.466667" stroke="#000000" stroke-width="2" stroke-opacity="0.466667" points="215.821,-225.597 225.188,-220.647 214.779,-218.675 215.821,-225.597"/>
</g>
<!-- src/utils/index.js&#45;&gt;src/utils/errors.js -->
<g id="edge17" class="edge"><title>src/utils/index.js&#45;&gt;src/utils/errors.js</title>
<path fill="none" stroke="#000000" stroke-width="2" stroke-opacity="0.466667" d="M126.802,-343.439C150.971,-345.679 187.053,-349.025 214.195,-351.541"/>
<polygon fill="#000000" fill-opacity="0.466667" stroke="#000000" stroke-width="2" stroke-opacity="0.466667" points="214.202,-355.057 224.482,-352.495 214.848,-348.087 214.202,-355.057"/>
</g>
<!-- src/utils/index.js&#45;&gt;src/utils/events.js -->
<g id="edge18" class="edge"><title>src/utils/index.js&#45;&gt;src/utils/events.js</title>
<path fill="none" stroke="#000000" stroke-width="2" stroke-opacity="0.466667" d="M126.699,-342.311C141.641,-343.998 160.266,-347.748 175,-356 182.408,-360.149 180.662,-365.728 188,-370 195.599,-374.424 204.428,-377.544 213.043,-379.745"/>
<polygon fill="#000000" fill-opacity="0.466667" stroke="#000000" stroke-width="2" stroke-opacity="0.466667" points="212.452,-383.198 222.97,-381.928 213.956,-376.362 212.452,-383.198"/>
</g>
<!-- src/utils/index.js&#45;&gt;src/utils/general.js -->
<g id="edge19" class="edge"><title>src/utils/index.js&#45;&gt;src/utils/general.js</title>
<path fill="none" stroke="#000000" stroke-width="2" stroke-opacity="0.466667" d="M126.593,-340.269C176.458,-338.872 285.617,-335.813 345.205,-334.143"/>
<polygon fill="#000000" fill-opacity="0.466667" stroke="#000000" stroke-width="2" stroke-opacity="0.466667" points="345.481,-337.637 355.379,-333.858 345.285,-330.64 345.481,-337.637"/>
</g>
<!-- src/utils/storageAccess.js -->
<g id="node17" class="node"><title>src/utils/storageAccess.js</title>
<g id="a_node17"><a xlink:href="src/utils/storageAccess.js" xlink:title="storageAccess.js">
<path fill="#ffffcc" stroke="black" d="M295,-260C295,-260 210,-260 210,-260 207,-260 204,-257 204,-254 204,-254 204,-248 204,-248 204,-245 207,-242 210,-242 210,-242 295,-242 295,-242 298,-242 301,-245 301,-248 301,-248 301,-254 301,-254 301,-257 298,-260 295,-260"/>
<text text-anchor="middle" x="252.5" y="-248.8" font-family="Helvetica,sans-Serif" font-size="9.00">storageAccess.js</text>
</a>
</g>
</g>
<!-- src/utils/index.js&#45;&gt;src/utils/storageAccess.js -->
<g id="edge20" class="edge"><title>src/utils/index.js&#45;&gt;src/utils/storageAccess.js</title>
<path fill="none" stroke="#000000" stroke-width="2" stroke-opacity="0.466667" d="M126.553,-342.482C142.586,-341.937 162.407,-338.409 175,-326 194.435,-306.848 168.887,-285.472 188,-266 190.083,-263.878 192.406,-262.033 194.899,-260.432"/>
<polygon fill="#000000" fill-opacity="0.466667" stroke="#000000" stroke-width="2" stroke-opacity="0.466667" points="196.576,-263.506 203.923,-255.871 193.419,-257.258 196.576,-263.506"/>
</g>
<!-- src/utils/storageAccess.test.js -->
<g id="node18" class="node"><title>src/utils/storageAccess.test.js</title>
<g id="a_node18"><a xlink:href="src/utils/storageAccess.test.js" xlink:title="storageAccess.test.js">
<path fill="#ffffcc" stroke="black" d="M153,-230C153,-230 46,-230 46,-230 43,-230 40,-227 40,-224 40,-224 40,-218 40,-218 40,-215 43,-212 46,-212 46,-212 153,-212 153,-212 156,-212 159,-215 159,-218 159,-218 159,-224 159,-224 159,-227 156,-230 153,-230"/>
<text text-anchor="middle" x="99.5" y="-218.8" font-family="Helvetica,sans-Serif" font-size="9.00">storageAccess.test.js</text>
</a>
</g>
</g>
<!-- src/utils/storageAccess.test.js&#45;&gt;node_modules/immutable/dist/immutable.js -->
<g id="edge23" class="edge"><title>src/utils/storageAccess.test.js&#45;&gt;node_modules/immutable/dist/immutable.js</title>
<path fill="none" stroke="#000000" stroke-width="2" stroke-opacity="0.466667" d="M121.959,-211.98C171.975,-190.958 296.469,-138.631 354.851,-114.093"/>
<polygon fill="#000000" fill-opacity="0.466667" stroke="#000000" stroke-width="2" stroke-opacity="0.466667" points="356.429,-117.226 364.292,-110.124 353.717,-110.772 356.429,-117.226"/>
</g>
<!-- src/utils/storageAccess.test.js&#45;&gt;node_modules/lodash/lodash.js -->
<g id="edge24" class="edge"><title>src/utils/storageAccess.test.js&#45;&gt;node_modules/lodash/lodash.js</title>
<path fill="none" stroke="#000000" stroke-width="2" stroke-opacity="0.466667" d="M107.613,-211.83C121.535,-194.342 154.004,-155.763 188,-131 240.699,-92.6134 310.711,-61.9963 351.81,-45.7554"/>
<polygon fill="#000000" fill-opacity="0.466667" stroke="#000000" stroke-width="2" stroke-opacity="0.466667" points="353.313,-48.9262 361.36,-42.035 350.772,-42.4036 353.313,-48.9262"/>
</g>
<!-- src/utils/storageAccess.test.js&#45;&gt;src/utils/bytes.js -->
<g id="edge21" class="edge"><title>src/utils/storageAccess.test.js&#45;&gt;src/utils/bytes.js</title>
<path fill="none" stroke="#000000" stroke-width="2" stroke-opacity="0.466667" d="M159.313,-221C178.061,-221 198.255,-221 214.95,-221"/>
<polygon fill="#000000" fill-opacity="0.466667" stroke="#000000" stroke-width="2" stroke-opacity="0.466667" points="215.365,-224.5 225.365,-221 215.365,-217.5 215.365,-224.5"/>
</g>
<!-- src/utils/storageAccess.test.js&#45;&gt;src/utils/storageAccess.js -->
<g id="edge22" class="edge"><title>src/utils/storageAccess.test.js&#45;&gt;src/utils/storageAccess.js</title>
<path fill="none" stroke="#000000" stroke-width="2" stroke-opacity="0.466667" d="M145.805,-230.001C161.56,-233.131 179.415,-236.678 195.906,-239.955"/>
<polygon fill="#000000" fill-opacity="0.466667" stroke="#000000" stroke-width="2" stroke-opacity="0.466667" points="195.476,-243.438 205.966,-241.954 196.84,-236.572 195.476,-243.438"/>
</g>
</g>
</svg>
