<?xml version="1.0" encoding="UTF-8" standalone="no"?>
<!DOCTYPE svg PUBLIC "-//W3C//DTD SVG 1.1//EN"
 "http://www.w3.org/Graphics/SVG/1.1/DTD/svg11.dtd">
<!-- Generated by graphviz version 2.38.0 (20140413.2041)
 -->
<!-- Title: dependency&#45;cruiser output Pages: 1 -->
<svg width="384pt" height="602pt"
 viewBox="0.00 0.00 384.00 602.00" xmlns="http://www.w3.org/2000/svg" xmlns:xlink="http://www.w3.org/1999/xlink">
<g id="graph0" class="graph" transform="scale(1 1) rotate(0) translate(4 598)">
<title>dependency&#45;cruiser output</title>
<polygon fill="white" stroke="none" points="-4,4 -4,-598 380,-598 380,4 -4,4"/>
<g id="clust1" class="cluster"><title>cluster_packages</title>
<path fill="#ffffff" stroke="black" stroke-width="2" d="M20,-8C20,-8 356,-8 356,-8 362,-8 368,-14 368,-20 368,-20 368,-574 368,-574 368,-580 362,-586 356,-586 356,-586 20,-586 20,-586 14,-586 8,-580 8,-574 8,-574 8,-20 8,-20 8,-14 14,-8 20,-8"/>
<text text-anchor="middle" x="188" y="-574.8" font-family="Helvetica,sans-Serif" font-weight="bold" font-size="9.00">packages</text>
</g>
<g id="clust2" class="cluster"><title>cluster_packages/sportident</title>
<path fill="#ffffff" stroke="black" stroke-width="2" d="M28,-16C28,-16 348,-16 348,-16 354,-16 360,-22 360,-28 360,-28 360,-548 360,-548 360,-554 354,-560 348,-560 348,-560 28,-560 28,-560 22,-560 16,-554 16,-548 16,-548 16,-28 16,-28 16,-22 22,-16 28,-16"/>
<text text-anchor="middle" x="188" y="-548.8" font-family="Helvetica,sans-Serif" font-weight="bold" font-size="9.00">sportident</text>
</g>
<g id="clust3" class="cluster"><title>cluster_packages/sportident/node_modules</title>
<path fill="#ffffff" stroke="black" stroke-width="2" d="M220.5,-354C220.5,-354 320.5,-354 320.5,-354 326.5,-354 332.5,-360 332.5,-366 332.5,-366 332.5,-522 332.5,-522 332.5,-528 326.5,-534 320.5,-534 320.5,-534 220.5,-534 220.5,-534 214.5,-534 208.5,-528 208.5,-522 208.5,-522 208.5,-366 208.5,-366 208.5,-360 214.5,-354 220.5,-354"/>
<text text-anchor="middle" x="270.5" y="-522.8" font-family="Helvetica,sans-Serif" font-weight="bold" font-size="9.00">node_modules</text>
</g>
<g id="clust6" class="cluster"><title>cluster_packages/sportident/node_modules/lodash</title>
<path fill="#ffffff" stroke="black" stroke-width="2" d="M245,-456C245,-456 296,-456 296,-456 302,-456 308,-462 308,-468 308,-468 308,-496 308,-496 308,-502 302,-508 296,-508 296,-508 245,-508 245,-508 239,-508 233,-502 233,-496 233,-496 233,-468 233,-468 233,-462 239,-456 245,-456"/>
<text text-anchor="middle" x="270.5" y="-496.8" font-family="Helvetica,sans-Serif" font-weight="bold" font-size="9.00">lodash</text>
</g>
<g id="clust4" class="cluster"><title>cluster_packages/sportident/node_modules/immutable</title>
<path fill="#ffffff" stroke="black" stroke-width="2" d="M228.5,-362C228.5,-362 312.5,-362 312.5,-362 318.5,-362 324.5,-368 324.5,-374 324.5,-374 324.5,-436 324.5,-436 324.5,-442 318.5,-448 312.5,-448 312.5,-448 228.5,-448 228.5,-448 222.5,-448 216.5,-442 216.5,-436 216.5,-436 216.5,-374 216.5,-374 216.5,-368 222.5,-362 228.5,-362"/>
<text text-anchor="middle" x="270.5" y="-436.8" font-family="Helvetica,sans-Serif" font-weight="bold" font-size="9.00">immutable</text>
</g>
<g id="clust5" class="cluster"><title>cluster_packages/sportident/node_modules/immutable/dist</title>
<path fill="#ffffff" stroke="black" stroke-width="2" d="M236.5,-370C236.5,-370 304.5,-370 304.5,-370 310.5,-370 316.5,-376 316.5,-382 316.5,-382 316.5,-410 316.5,-410 316.5,-416 310.5,-422 304.5,-422 304.5,-422 236.5,-422 236.5,-422 230.5,-422 224.5,-416 224.5,-410 224.5,-410 224.5,-382 224.5,-382 224.5,-376 230.5,-370 236.5,-370"/>
<text text-anchor="middle" x="270.5" y="-410.8" font-family="Helvetica,sans-Serif" font-weight="bold" font-size="9.00">dist</text>
</g>
<g id="clust7" class="cluster"><title>cluster_packages/sportident/src</title>
<path fill="#ffffff" stroke="black" stroke-width="2" d="M36,-24C36,-24 340,-24 340,-24 346,-24 352,-30 352,-36 352,-36 352,-334 352,-334 352,-340 346,-346 340,-346 340,-346 36,-346 36,-346 30,-346 24,-340 24,-334 24,-334 24,-36 24,-36 24,-30 30,-24 36,-24"/>
<text text-anchor="middle" x="188" y="-334.8" font-family="Helvetica,sans-Serif" font-weight="bold" font-size="9.00">src</text>
</g>
<g id="clust8" class="cluster"><title>cluster_packages/sportident/src/utils</title>
<path fill="#ffffff" stroke="black" stroke-width="2" d="M44,-32C44,-32 332,-32 332,-32 338,-32 344,-38 344,-44 344,-44 344,-282 344,-282 344,-288 338,-294 332,-294 332,-294 44,-294 44,-294 38,-294 32,-288 32,-282 32,-282 32,-44 32,-44 32,-38 38,-32 44,-32"/>
<text text-anchor="middle" x="188" y="-282.8" font-family="Helvetica,sans-Serif" font-weight="bold" font-size="9.00">utils</text>
</g>
<!-- packages/sportident/node_modules/immutable/dist/immutable.js -->
<g id="node1" class="node"><title>packages/sportident/node_modules/immutable/dist/immutable.js</title>
<g id="a_node1"><a xlink:href="packages/sportident/node_modules/immutable/dist/immutable.js" xlink:title="immutable.js">
<polygon fill="#c40b0a" fill-opacity="0.101961" stroke="black" points="308.5,-396 307,-398 296.5,-398 295,-396 232.5,-396 232.5,-378 308.5,-378 308.5,-396"/>
<text text-anchor="middle" x="270.5" y="-384.8" font-family="Helvetica,sans-Serif" font-size="9.00" fill="#c40b0a">immutable.js</text>
</a>
</g>
</g>
<!-- packages/sportident/node_modules/lodash/lodash.js -->
<g id="node2" class="node"><title>packages/sportident/node_modules/lodash/lodash.js</title>
<g id="a_node2"><a xlink:href="packages/sportident/node_modules/lodash/lodash.js" xlink:title="lodash.js">
<polygon fill="#c40b0a" fill-opacity="0.101961" stroke="black" points="300,-482 298.5,-484 288,-484 286.5,-482 241,-482 241,-464 300,-464 300,-482"/>
<text text-anchor="middle" x="270.5" y="-470.8" font-family="Helvetica,sans-Serif" font-size="9.00" fill="#c40b0a">lodash.js</text>
</a>
</g>
</g>
<!-- packages/sportident/src/testUtils.ts -->
<g id="node3" class="node"><title>packages/sportident/src/testUtils.ts</title>
<g id="a_node3"><a xlink:href="packages/sportident/src/testUtils.ts" xlink:title="testUtils.ts">
<path fill="#ddfeff" stroke="black" d="M298.5,-320C298.5,-320 242.5,-320 242.5,-320 239.5,-320 236.5,-317 236.5,-314 236.5,-314 236.5,-308 236.5,-308 236.5,-305 239.5,-302 242.5,-302 242.5,-302 298.5,-302 298.5,-302 301.5,-302 304.5,-305 304.5,-308 304.5,-308 304.5,-314 304.5,-314 304.5,-317 301.5,-320 298.5,-320"/>
<text text-anchor="middle" x="270.5" y="-308.8" font-family="Helvetica,sans-Serif" font-size="9.00">testUtils.ts</text>
</a>
</g>
</g>
<!-- packages/sportident/src/utils/NumberRange.test.ts -->
<g id="node4" class="node"><title>packages/sportident/src/utils/NumberRange.test.ts</title>
<g id="a_node4"><a xlink:href="packages/sportident/src/utils/NumberRange.test.ts" xlink:title="NumberRange.test.ts">
<path fill="#ddfeff" stroke="black" d="M168.5,-238C168.5,-238 63.5,-238 63.5,-238 60.5,-238 57.5,-235 57.5,-232 57.5,-232 57.5,-226 57.5,-226 57.5,-223 60.5,-220 63.5,-220 63.5,-220 168.5,-220 168.5,-220 171.5,-220 174.5,-223 174.5,-226 174.5,-226 174.5,-232 174.5,-232 174.5,-235 171.5,-238 168.5,-238"/>
<text text-anchor="middle" x="116" y="-226.8" font-family="Helvetica,sans-Serif" font-size="9.00">NumberRange.test.ts</text>
</a>
</g>
</g>
<!-- packages/sportident/src/utils/NumberRange.ts -->
<g id="node5" class="node"><title>packages/sportident/src/utils/NumberRange.ts</title>
<g id="a_node5"><a xlink:href="packages/sportident/src/utils/NumberRange.ts" xlink:title="NumberRange.ts">
<path fill="#ddfeff" stroke="black" d="M312,-215C312,-215 229,-215 229,-215 226,-215 223,-212 223,-209 223,-209 223,-203 223,-203 223,-200 226,-197 229,-197 229,-197 312,-197 312,-197 315,-197 318,-200 318,-203 318,-203 318,-209 318,-209 318,-212 315,-215 312,-215"/>
<text text-anchor="middle" x="270.5" y="-203.8" font-family="Helvetica,sans-Serif" font-size="9.00">NumberRange.ts</text>
</a>
</g>
</g>
<!-- packages/sportident/src/utils/NumberRange.test.ts&#45;&gt;packages/sportident/src/utils/NumberRange.ts -->
<g id="edge1" class="edge"><title>packages/sportident/src/utils/NumberRange.test.ts&#45;&gt;packages/sportident/src/utils/NumberRange.ts</title>
<path fill="none" stroke="#000000" stroke-width="2" stroke-opacity="0.200000" d="M174.654,-220.305C187.042,-218.436 200.128,-216.463 212.492,-214.598"/>
<polygon fill="#000000" fill-opacity="0.200000" stroke="#000000" stroke-width="2" stroke-opacity="0.200000" points="213.31,-218.014 222.676,-213.062 212.266,-211.093 213.31,-218.014"/>
</g>
<!-- packages/sportident/src/utils/NumberRangeRegistry.test.ts -->
<g id="node6" class="node"><title>packages/sportident/src/utils/NumberRangeRegistry.test.ts</title>
<g id="a_node6"><a xlink:href="packages/sportident/src/utils/NumberRangeRegistry.test.ts" xlink:title="NumberRangeRegistry.test.ts">
<path fill="#ddfeff" stroke="black" d="M186,-208C186,-208 46,-208 46,-208 43,-208 40,-205 40,-202 40,-202 40,-196 40,-196 40,-193 43,-190 46,-190 46,-190 186,-190 186,-190 189,-190 192,-193 192,-196 192,-196 192,-202 192,-202 192,-205 189,-208 186,-208"/>
<text text-anchor="middle" x="116" y="-196.8" font-family="Helvetica,sans-Serif" font-size="9.00">NumberRangeRegistry.test.ts</text>
</a>
</g>
</g>
<!-- packages/sportident/src/utils/NumberRangeRegistry.test.ts&#45;&gt;packages/sportident/src/utils/NumberRange.ts -->
<g id="edge2" class="edge"><title>packages/sportident/src/utils/NumberRangeRegistry.test.ts&#45;&gt;packages/sportident/src/utils/NumberRange.ts</title>
<path fill="none" stroke="#000000" stroke-width="2" stroke-opacity="0.200000" d="M192.356,-202.459C199.152,-202.771 205.958,-203.083 212.556,-203.386"/>
<polygon fill="#000000" fill-opacity="0.200000" stroke="#000000" stroke-width="2" stroke-opacity="0.200000" points="212.575,-206.891 222.725,-203.853 212.896,-199.898 212.575,-206.891"/>
</g>
<!-- packages/sportident/src/utils/NumberRangeRegistry.ts -->
<g id="node7" class="node"><title>packages/sportident/src/utils/NumberRangeRegistry.ts</title>
<g id="a_node7"><a xlink:href="packages/sportident/src/utils/NumberRangeRegistry.ts" xlink:title="NumberRangeRegistry.ts">
<path fill="#ddfeff" stroke="black" d="M330,-185C330,-185 211,-185 211,-185 208,-185 205,-182 205,-179 205,-179 205,-173 205,-173 205,-170 208,-167 211,-167 211,-167 330,-167 330,-167 333,-167 336,-170 336,-173 336,-173 336,-179 336,-179 336,-182 333,-185 330,-185"/>
<text text-anchor="middle" x="270.5" y="-173.8" font-family="Helvetica,sans-Serif" font-size="9.00">NumberRangeRegistry.ts</text>
</a>
</g>
</g>
<!-- packages/sportident/src/utils/NumberRangeRegistry.test.ts&#45;&gt;packages/sportident/src/utils/NumberRangeRegistry.ts -->
<g id="edge3" class="edge"><title>packages/sportident/src/utils/NumberRangeRegistry.test.ts&#45;&gt;packages/sportident/src/utils/NumberRangeRegistry.ts</title>
<path fill="none" stroke="#000000" stroke-width="2" stroke-opacity="0.200000" d="M176.834,-189.976C184.319,-188.847 192.025,-187.685 199.645,-186.535"/>
<polygon fill="#000000" fill-opacity="0.200000" stroke="#000000" stroke-width="2" stroke-opacity="0.200000" points="200.222,-189.988 209.588,-185.036 199.178,-183.066 200.222,-189.988"/>
</g>
<!-- packages/sportident/src/utils/bytes.test.ts -->
<g id="node8" class="node"><title>packages/sportident/src/utils/bytes.test.ts</title>
<g id="a_node8"><a xlink:href="packages/sportident/src/utils/bytes.test.ts" xlink:title="bytes.test.ts">
<path fill="#ddfeff" stroke="black" d="M148,-58C148,-58 84,-58 84,-58 81,-58 78,-55 78,-52 78,-52 78,-46 78,-46 78,-43 81,-40 84,-40 84,-40 148,-40 148,-40 151,-40 154,-43 154,-46 154,-46 154,-52 154,-52 154,-55 151,-58 148,-58"/>
<text text-anchor="middle" x="116" y="-46.8" font-family="Helvetica,sans-Serif" font-size="9.00">bytes.test.ts</text>
</a>
</g>
</g>
<!-- packages/sportident/src/utils/bytes.ts -->
<g id="node9" class="node"><title>packages/sportident/src/utils/bytes.ts</title>
<g id="a_node9"><a xlink:href="packages/sportident/src/utils/bytes.ts" xlink:title="bytes.ts">
<path fill="#ddfeff" stroke="black" d="M291.5,-59C291.5,-59 249.5,-59 249.5,-59 246.5,-59 243.5,-56 243.5,-53 243.5,-53 243.5,-47 243.5,-47 243.5,-44 246.5,-41 249.5,-41 249.5,-41 291.5,-41 291.5,-41 294.5,-41 297.5,-44 297.5,-47 297.5,-47 297.5,-53 297.5,-53 297.5,-56 294.5,-59 291.5,-59"/>
<text text-anchor="middle" x="270.5" y="-47.8" font-family="Helvetica,sans-Serif" font-size="9.00">bytes.ts</text>
</a>
</g>
</g>
<!-- packages/sportident/src/utils/bytes.test.ts&#45;&gt;packages/sportident/src/utils/bytes.ts -->
<g id="edge4" class="edge"><title>packages/sportident/src/utils/bytes.test.ts&#45;&gt;packages/sportident/src/utils/bytes.ts</title>
<path fill="none" stroke="#000000" stroke-width="2" stroke-opacity="0.200000" d="M154.306,-49.2446C178.271,-49.4018 209.252,-49.6049 233.048,-49.761"/>
<polygon fill="#000000" fill-opacity="0.200000" stroke="#000000" stroke-width="2" stroke-opacity="0.200000" points="233.072,-53.2611 243.094,-49.8268 233.118,-46.2613 233.072,-53.2611"/>
</g>
<!-- packages/sportident/src/utils/errors.test.ts -->
<g id="node10" class="node"><title>packages/sportident/src/utils/errors.test.ts</title>
<g id="a_node10"><a xlink:href="packages/sportident/src/utils/errors.test.ts" xlink:title="errors.test.ts">
<path fill="#ddfeff" stroke="black" d="M149.5,-88C149.5,-88 82.5,-88 82.5,-88 79.5,-88 76.5,-85 76.5,-82 76.5,-82 76.5,-76 76.5,-76 76.5,-73 79.5,-70 82.5,-70 82.5,-70 149.5,-70 149.5,-70 152.5,-70 155.5,-73 155.5,-76 155.5,-76 155.5,-82 155.5,-82 155.5,-85 152.5,-88 149.5,-88"/>
<text text-anchor="middle" x="116" y="-76.8" font-family="Helvetica,sans-Serif" font-size="9.00">errors.test.ts</text>
</a>
</g>
</g>
<!-- packages/sportident/src/utils/errors.ts -->
<g id="node11" class="node"><title>packages/sportident/src/utils/errors.ts</title>
<g id="a_node11"><a xlink:href="packages/sportident/src/utils/errors.ts" xlink:title="errors.ts">
<path fill="#ddfeff" stroke="black" d="M293,-91C293,-91 248,-91 248,-91 245,-91 242,-88 242,-85 242,-85 242,-79 242,-79 242,-76 245,-73 248,-73 248,-73 293,-73 293,-73 296,-73 299,-76 299,-79 299,-79 299,-85 299,-85 299,-88 296,-91 293,-91"/>
<text text-anchor="middle" x="270.5" y="-79.8" font-family="Helvetica,sans-Serif" font-size="9.00">errors.ts</text>
</a>
</g>
</g>
<!-- packages/sportident/src/utils/errors.test.ts&#45;&gt;packages/sportident/src/utils/errors.ts -->
<g id="edge5" class="edge"><title>packages/sportident/src/utils/errors.test.ts&#45;&gt;packages/sportident/src/utils/errors.ts</title>
<path fill="none" stroke="#000000" stroke-width="2" stroke-opacity="0.200000" d="M155.877,-79.7648C179.141,-80.2224 208.571,-80.8014 231.65,-81.2554"/>
<polygon fill="#000000" fill-opacity="0.200000" stroke="#000000" stroke-width="2" stroke-opacity="0.200000" points="231.695,-84.7569 241.762,-81.4543 231.833,-77.7582 231.695,-84.7569"/>
</g>
<!-- packages/sportident/src/utils/events.test.ts -->
<g id="node12" class="node"><title>packages/sportident/src/utils/events.test.ts</title>
<g id="a_node12"><a xlink:href="packages/sportident/src/utils/events.test.ts" xlink:title="events.test.ts">
<path fill="#ddfeff" stroke="black" d="M151,-178C151,-178 81,-178 81,-178 78,-178 75,-175 75,-172 75,-172 75,-166 75,-166 75,-163 78,-160 81,-160 81,-160 151,-160 151,-160 154,-160 157,-163 157,-166 157,-166 157,-172 157,-172 157,-175 154,-178 151,-178"/>
<text text-anchor="middle" x="116" y="-166.8" font-family="Helvetica,sans-Serif" font-size="9.00">events.test.ts</text>
</a>
</g>
</g>
<!-- packages/sportident/src/utils/events.test.ts&#45;&gt;packages/sportident/src/testUtils.ts -->
<g id="edge6" class="edge"><title>packages/sportident/src/utils/events.test.ts&#45;&gt;packages/sportident/src/testUtils.ts</title>
<path fill="none" stroke="#000000" stroke-width="2" stroke-opacity="0.200000" d="M157.371,-168.147C170.131,-169.983 183.187,-174.425 192,-184 226.236,-221.197 171.07,-259.525 205,-297 210.632,-303.22 218.319,-307.027 226.425,-309.293"/>
<polygon fill="#000000" fill-opacity="0.200000" stroke="#000000" stroke-width="2" stroke-opacity="0.200000" points="225.91,-312.76 236.41,-311.351 227.323,-305.904 225.91,-312.76"/>
</g>
<!-- packages/sportident/src/utils/events.ts -->
<g id="node13" class="node"><title>packages/sportident/src/utils/events.ts</title>
<g id="a_node13"><a xlink:href="packages/sportident/src/utils/events.ts" xlink:title="events.ts">
<path fill="#ddfeff" stroke="black" d="M294.5,-155C294.5,-155 246.5,-155 246.5,-155 243.5,-155 240.5,-152 240.5,-149 240.5,-149 240.5,-143 240.5,-143 240.5,-140 243.5,-137 246.5,-137 246.5,-137 294.5,-137 294.5,-137 297.5,-137 300.5,-140 300.5,-143 300.5,-143 300.5,-149 300.5,-149 300.5,-152 297.5,-155 294.5,-155"/>
<text text-anchor="middle" x="270.5" y="-143.8" font-family="Helvetica,sans-Serif" font-size="9.00">events.ts</text>
</a>
</g>
</g>
<!-- packages/sportident/src/utils/events.test.ts&#45;&gt;packages/sportident/src/utils/events.ts -->
<g id="edge7" class="edge"><title>packages/sportident/src/utils/events.test.ts&#45;&gt;packages/sportident/src/utils/events.ts</title>
<path fill="none" stroke="#000000" stroke-width="2" stroke-opacity="0.200000" d="M157.068,-162.957C179.72,-159.541 207.918,-155.288 230.408,-151.896"/>
<polygon fill="#000000" fill-opacity="0.200000" stroke="#000000" stroke-width="2" stroke-opacity="0.200000" points="230.933,-155.356 240.299,-150.404 229.889,-148.435 230.933,-155.356"/>
</g>
<!-- packages/sportident/src/utils/mixins.ts -->
<g id="node18" class="node"><title>packages/sportident/src/utils/mixins.ts</title>
<g id="a_node18"><a xlink:href="packages/sportident/src/utils/mixins.ts" xlink:title="mixins.ts">
<path fill="#ddfeff" stroke="black" d="M293,-125C293,-125 248,-125 248,-125 245,-125 242,-122 242,-119 242,-119 242,-113 242,-113 242,-110 245,-107 248,-107 248,-107 293,-107 293,-107 296,-107 299,-110 299,-113 299,-113 299,-119 299,-119 299,-122 296,-125 293,-125"/>
<text text-anchor="middle" x="270.5" y="-113.8" font-family="Helvetica,sans-Serif" font-size="9.00">mixins.ts</text>
</a>
</g>
</g>
<!-- packages/sportident/src/utils/events.test.ts&#45;&gt;packages/sportident/src/utils/mixins.ts -->
<g id="edge8" class="edge"><title>packages/sportident/src/utils/events.test.ts&#45;&gt;packages/sportident/src/utils/mixins.ts</title>
<path fill="none" stroke="#000000" stroke-width="2" stroke-opacity="0.200000" d="M157.334,-167.311C169.366,-165.205 181.999,-161.244 192,-154 201.51,-147.112 195.599,-138.035 205,-131 212.774,-125.183 222.438,-121.571 231.9,-119.343"/>
<polygon fill="#000000" fill-opacity="0.200000" stroke="#000000" stroke-width="2" stroke-opacity="0.200000" points="232.815,-122.732 241.988,-117.43 231.51,-115.855 232.815,-122.732"/>
</g>
<!-- packages/sportident/src/utils/general.test.ts -->
<g id="node14" class="node"><title>packages/sportident/src/utils/general.test.ts</title>
<g id="a_node14"><a xlink:href="packages/sportident/src/utils/general.test.ts" xlink:title="general.test.ts">
<path fill="#ddfeff" stroke="black" d="M153,-268C153,-268 79,-268 79,-268 76,-268 73,-265 73,-262 73,-262 73,-256 73,-256 73,-253 76,-250 79,-250 79,-250 153,-250 153,-250 156,-250 159,-253 159,-256 159,-256 159,-262 159,-262 159,-265 156,-268 153,-268"/>
<text text-anchor="middle" x="116" y="-256.8" font-family="Helvetica,sans-Serif" font-size="9.00">general.test.ts</text>
</a>
</g>
</g>
<!-- packages/sportident/src/utils/general.test.ts&#45;&gt;packages/sportident/node_modules/immutable/dist/immutable.js -->
<g id="edge11" class="edge"><title>packages/sportident/src/utils/general.test.ts&#45;&gt;packages/sportident/node_modules/immutable/dist/immutable.js</title>
<path fill="none" stroke="#000000" stroke-width="2" stroke-opacity="0.200000" d="M124.557,-268.211C138.985,-285.438 171.97,-323.126 205,-349 216.464,-357.98 230.249,-366.379 242.127,-372.985"/>
<polygon fill="#000000" fill-opacity="0.200000" stroke="#000000" stroke-width="2" stroke-opacity="0.200000" points="240.702,-376.194 251.163,-377.875 244.034,-370.038 240.702,-376.194"/>
</g>
<!-- packages/sportident/src/utils/general.test.ts&#45;&gt;packages/sportident/node_modules/lodash/lodash.js -->
<g id="edge12" class="edge"><title>packages/sportident/src/utils/general.test.ts&#45;&gt;packages/sportident/node_modules/lodash/lodash.js</title>
<path fill="none" stroke="#000000" stroke-width="2" stroke-opacity="0.200000" d="M120.182,-268.118C129.752,-294.616 160.39,-373.019 205,-425 216.375,-438.254 232.039,-450.018 245.082,-458.583"/>
<polygon fill="#000000" fill-opacity="0.200000" stroke="#000000" stroke-width="2" stroke-opacity="0.200000" points="243.287,-461.589 253.608,-463.981 247.031,-455.675 243.287,-461.589"/>
</g>
<!-- packages/sportident/src/utils/general.test.ts&#45;&gt;packages/sportident/src/testUtils.ts -->
<g id="edge9" class="edge"><title>packages/sportident/src/utils/general.test.ts&#45;&gt;packages/sportident/src/testUtils.ts</title>
<path fill="none" stroke="#000000" stroke-width="2" stroke-opacity="0.200000" d="M135.142,-268.07C152.662,-276.53 180.124,-289.013 205,-297 211.901,-299.216 219.329,-301.191 226.602,-302.91"/>
<polygon fill="#000000" fill-opacity="0.200000" stroke="#000000" stroke-width="2" stroke-opacity="0.200000" points="225.838,-306.325 236.361,-305.093 227.366,-299.494 225.838,-306.325"/>
</g>
<!-- packages/sportident/src/utils/general.ts -->
<g id="node15" class="node"><title>packages/sportident/src/utils/general.ts</title>
<g id="a_node15"><a xlink:href="packages/sportident/src/utils/general.ts" xlink:title="general.ts">
<path fill="#ddfeff" stroke="black" d="M297,-260C297,-260 244,-260 244,-260 241,-260 238,-257 238,-254 238,-254 238,-248 238,-248 238,-245 241,-242 244,-242 244,-242 297,-242 297,-242 300,-242 303,-245 303,-248 303,-248 303,-254 303,-254 303,-257 300,-260 297,-260"/>
<text text-anchor="middle" x="270.5" y="-248.8" font-family="Helvetica,sans-Serif" font-size="9.00">general.ts</text>
</a>
</g>
</g>
<!-- packages/sportident/src/utils/general.test.ts&#45;&gt;packages/sportident/src/utils/general.ts -->
<g id="edge10" class="edge"><title>packages/sportident/src/utils/general.test.ts&#45;&gt;packages/sportident/src/utils/general.ts</title>
<path fill="none" stroke="#000000" stroke-width="2" stroke-opacity="0.200000" d="M159.075,-256.793C180.441,-255.672 206.32,-254.314 227.653,-253.195"/>
<polygon fill="#000000" fill-opacity="0.200000" stroke="#000000" stroke-width="2" stroke-opacity="0.200000" points="227.918,-256.686 237.721,-252.667 227.551,-249.696 227.918,-256.686"/>
</g>
<!-- packages/sportident/src/utils/index.ts -->
<g id="node16" class="node"><title>packages/sportident/src/utils/index.ts</title>
<g id="a_node16"><a xlink:href="packages/sportident/src/utils/index.ts" xlink:title="index.ts">
<path fill="#ddfeff" stroke="black" d="M137,-148C137,-148 95,-148 95,-148 92,-148 89,-145 89,-142 89,-142 89,-136 89,-136 89,-133 92,-130 95,-130 95,-130 137,-130 137,-130 140,-130 143,-133 143,-136 143,-136 143,-142 143,-142 143,-145 140,-148 137,-148"/>
<text text-anchor="middle" x="116" y="-136.8" font-family="Helvetica,sans-Serif" font-size="9.00">index.ts</text>
</a>
</g>
</g>
<!-- packages/sportident/src/utils/index.ts&#45;&gt;packages/sportident/src/utils/NumberRange.ts -->
<g id="edge18" class="edge"><title>packages/sportident/src/utils/index.ts&#45;&gt;packages/sportident/src/utils/NumberRange.ts</title>
<path fill="none" stroke="#000000" stroke-width="2" stroke-opacity="0.200000" d="M143.07,-138.041C158.944,-138.823 178.666,-142.419 192,-154 205.159,-165.429 192.02,-179.367 205,-191 207.526,-193.264 210.326,-195.205 213.303,-196.867"/>
<polygon fill="#000000" fill-opacity="0.200000" stroke="#000000" stroke-width="2" stroke-opacity="0.200000" points="212.116,-200.17 222.673,-201.065 214.978,-193.782 212.116,-200.17"/>
</g>
<!-- packages/sportident/src/utils/index.ts&#45;&gt;packages/sportident/src/utils/NumberRangeRegistry.ts -->
<g id="edge19" class="edge"><title>packages/sportident/src/utils/index.ts&#45;&gt;packages/sportident/src/utils/NumberRangeRegistry.ts</title>
<path fill="none" stroke="#000000" stroke-width="2" stroke-opacity="0.200000" d="M143.201,-142.29C157.844,-144.609 176.259,-148.331 192,-154 198.174,-156.223 198.861,-158.681 205,-161 207.865,-162.082 210.832,-163.102 213.85,-164.06"/>
<polygon fill="#000000" fill-opacity="0.200000" stroke="#000000" stroke-width="2" stroke-opacity="0.200000" points="213.011,-167.462 223.592,-166.913 214.978,-160.744 213.011,-167.462"/>
</g>
<!-- packages/sportident/src/utils/index.ts&#45;&gt;packages/sportident/src/utils/bytes.ts -->
<g id="edge13" class="edge"><title>packages/sportident/src/utils/index.ts&#45;&gt;packages/sportident/src/utils/bytes.ts</title>
<path fill="none" stroke="#000000" stroke-width="2" stroke-opacity="0.200000" d="M143.178,-140.484C159.299,-139.94 179.25,-136.412 192,-124 210.618,-105.875 186.937,-85.6783 205,-67 212.504,-59.2407 223.094,-54.8781 233.529,-52.4673"/>
<polygon fill="#000000" fill-opacity="0.200000" stroke="#000000" stroke-width="2" stroke-opacity="0.200000" points="234.151,-55.9117 243.379,-50.7069 232.919,-49.0208 234.151,-55.9117"/>
</g>
<!-- packages/sportident/src/utils/index.ts&#45;&gt;packages/sportident/src/utils/errors.ts -->
<g id="edge14" class="edge"><title>packages/sportident/src/utils/index.ts&#45;&gt;packages/sportident/src/utils/errors.ts</title>
<path fill="none" stroke="#000000" stroke-width="2" stroke-opacity="0.200000" d="M143.106,-139.062C158.603,-137.893 177.912,-134.204 192,-124 201.51,-117.112 195.807,-108.305 205,-101 212.801,-94.8017 222.57,-90.6245 232.127,-87.8097"/>
<polygon fill="#000000" fill-opacity="0.200000" stroke="#000000" stroke-width="2" stroke-opacity="0.200000" points="233.078,-91.1796 241.919,-85.3419 231.367,-84.3919 233.078,-91.1796"/>
</g>
<!-- packages/sportident/src/utils/index.ts&#45;&gt;packages/sportident/src/utils/events.ts -->
<g id="edge15" class="edge"><title>packages/sportident/src/utils/index.ts&#45;&gt;packages/sportident/src/utils/events.ts</title>
<path fill="none" stroke="#000000" stroke-width="2" stroke-opacity="0.200000" d="M143.216,-140.203C167.153,-141.302 202.87,-142.942 230.217,-144.197"/>
<polygon fill="#000000" fill-opacity="0.200000" stroke="#000000" stroke-width="2" stroke-opacity="0.200000" points="230.097,-147.695 240.247,-144.657 230.418,-140.702 230.097,-147.695"/>
</g>
<!-- packages/sportident/src/utils/index.ts&#45;&gt;packages/sportident/src/utils/general.ts -->
<g id="edge16" class="edge"><title>packages/sportident/src/utils/index.ts&#45;&gt;packages/sportident/src/utils/general.ts</title>
<path fill="none" stroke="#000000" stroke-width="2" stroke-opacity="0.200000" d="M143.317,-137.376C159.493,-137.864 179.454,-141.382 192,-154 213.387,-175.51 186.317,-197.103 205,-221 211.097,-228.799 219.699,-234.655 228.641,-239.02"/>
<polygon fill="#000000" fill-opacity="0.200000" stroke="#000000" stroke-width="2" stroke-opacity="0.200000" points="227.421,-242.306 237.99,-243.049 230.191,-235.877 227.421,-242.306"/>
</g>
<!-- packages/sportident/src/utils/index.ts&#45;&gt;packages/sportident/src/utils/mixins.ts -->
<g id="edge17" class="edge"><title>packages/sportident/src/utils/index.ts&#45;&gt;packages/sportident/src/utils/mixins.ts</title>
<path fill="none" stroke="#000000" stroke-width="2" stroke-opacity="0.200000" d="M143.216,-135.046C167.606,-131.368 204.226,-125.845 231.761,-121.692"/>
<polygon fill="#000000" fill-opacity="0.200000" stroke="#000000" stroke-width="2" stroke-opacity="0.200000" points="232.459,-125.126 241.825,-120.174 231.415,-118.205 232.459,-125.126"/>
</g>
<!-- packages/sportident/src/utils/mixins.test.ts -->
<g id="node17" class="node"><title>packages/sportident/src/utils/mixins.test.ts</title>
<g id="a_node17"><a xlink:href="packages/sportident/src/utils/mixins.test.ts" xlink:title="mixins.test.ts">
<path fill="#ddfeff" stroke="black" d="M149.5,-118C149.5,-118 82.5,-118 82.5,-118 79.5,-118 76.5,-115 76.5,-112 76.5,-112 76.5,-106 76.5,-106 76.5,-103 79.5,-100 82.5,-100 82.5,-100 149.5,-100 149.5,-100 152.5,-100 155.5,-103 155.5,-106 155.5,-106 155.5,-112 155.5,-112 155.5,-115 152.5,-118 149.5,-118"/>
<text text-anchor="middle" x="116" y="-106.8" font-family="Helvetica,sans-Serif" font-size="9.00">mixins.test.ts</text>
</a>
</g>
</g>
<!-- packages/sportident/src/utils/mixins.test.ts&#45;&gt;packages/sportident/src/utils/mixins.ts -->
<g id="edge20" class="edge"><title>packages/sportident/src/utils/mixins.test.ts&#45;&gt;packages/sportident/src/utils/mixins.ts</title>
<path fill="none" stroke="#000000" stroke-width="2" stroke-opacity="0.200000" d="M155.877,-110.785C179.141,-111.852 208.571,-113.203 231.65,-114.263"/>
<polygon fill="#000000" fill-opacity="0.200000" stroke="#000000" stroke-width="2" stroke-opacity="0.200000" points="231.612,-117.764 241.762,-114.727 231.933,-110.772 231.612,-117.764"/>
</g>
</g>
</svg>
