<?xml version="1.0" encoding="UTF-8" standalone="no"?>
<!DOCTYPE svg PUBLIC "-//W3C//DTD SVG 1.1//EN"
 "http://www.w3.org/Graphics/SVG/1.1/DTD/svg11.dtd">
<!-- Generated by graphviz version 2.38.0 (20140413.2041)
 -->
<!-- Title: dependency&#45;cruiser output Pages: 1 -->
<svg width="493pt" height="380pt"
 viewBox="0.00 0.00 493.00 380.00" xmlns="http://www.w3.org/2000/svg" xmlns:xlink="http://www.w3.org/1999/xlink">
<g id="graph0" class="graph" transform="scale(1 1) rotate(0) translate(4 376)">
<title>dependency&#45;cruiser output</title>
<polygon fill="white" stroke="none" points="-4,4 -4,-376 489,-376 489,4 -4,4"/>
<g id="clust1" class="cluster"><title>cluster_node_modules</title>
<path fill="#ffffff" stroke="black" stroke-width="2" d="M191,-8C191,-8 260,-8 260,-8 266,-8 272,-14 272,-20 272,-20 272,-82 272,-82 272,-88 266,-94 260,-94 260,-94 191,-94 191,-94 185,-94 179,-88 179,-82 179,-82 179,-20 179,-20 179,-14 185,-8 191,-8"/>
<text text-anchor="middle" x="225.5" y="-82.8" font-family="Helvetica,sans-Serif" font-weight="bold" font-size="9.00">node_modules</text>
</g>
<g id="clust2" class="cluster"><title>cluster_node_modules/lodash</title>
<path fill="#ffffff" stroke="black" stroke-width="2" d="M200,-16C200,-16 251,-16 251,-16 257,-16 263,-22 263,-28 263,-28 263,-56 263,-56 263,-62 257,-68 251,-68 251,-68 200,-68 200,-68 194,-68 188,-62 188,-56 188,-56 188,-28 188,-28 188,-22 194,-16 200,-16"/>
<text text-anchor="middle" x="225.5" y="-56.8" font-family="Helvetica,sans-Serif" font-weight="bold" font-size="9.00">lodash</text>
</g>
<g id="clust3" class="cluster"><title>cluster_src</title>
<path fill="#ffffff" stroke="black" stroke-width="2" d="M20,-102C20,-102 465,-102 465,-102 471,-102 477,-108 477,-114 477,-114 477,-352 477,-352 477,-358 471,-364 465,-364 465,-364 20,-364 20,-364 14,-364 8,-358 8,-352 8,-352 8,-114 8,-114 8,-108 14,-102 20,-102"/>
<text text-anchor="middle" x="242.5" y="-352.8" font-family="Helvetica,sans-Serif" font-weight="bold" font-size="9.00">src</text>
</g>
<g id="clust4" class="cluster"><title>cluster_src/SiDevice</title>
<path fill="#ffffff" stroke="black" stroke-width="2" d="M28,-110C28,-110 379,-110 379,-110 385,-110 391,-116 391,-122 391,-122 391,-300 391,-300 391,-306 385,-312 379,-312 379,-312 28,-312 28,-312 22,-312 16,-306 16,-300 16,-300 16,-122 16,-122 16,-116 22,-110 28,-110"/>
<text text-anchor="middle" x="203.5" y="-300.8" font-family="Helvetica,sans-Serif" font-weight="bold" font-size="9.00">SiDevice</text>
</g>
<g id="clust5" class="cluster"><title>cluster_src/SiDevice/drivers</title>
<path fill="#ffffff" stroke="black" stroke-width="2" d="M36,-118C36,-118 273.5,-118 273.5,-118 279.5,-118 285.5,-124 285.5,-130 285.5,-130 285.5,-188 285.5,-188 285.5,-194 279.5,-200 273.5,-200 273.5,-200 36,-200 36,-200 30,-200 24,-194 24,-188 24,-188 24,-130 24,-130 24,-124 30,-118 36,-118"/>
<text text-anchor="middle" x="154.75" y="-188.8" font-family="Helvetica,sans-Serif" font-weight="bold" font-size="9.00">drivers</text>
</g>
<g id="clust6" class="cluster"><title>cluster_src/SiDevice/testUtils</title>
<path fill="#ffffff" stroke="black" stroke-width="2" d="M43.5,-234C43.5,-234 265.5,-234 265.5,-234 271.5,-234 277.5,-240 277.5,-246 277.5,-246 277.5,-274 277.5,-274 277.5,-280 271.5,-286 265.5,-286 265.5,-286 43.5,-286 43.5,-286 37.5,-286 31.5,-280 31.5,-274 31.5,-274 31.5,-246 31.5,-246 31.5,-240 37.5,-234 43.5,-234"/>
<text text-anchor="middle" x="154.5" y="-274.8" font-family="Helvetica,sans-Serif" font-weight="bold" font-size="9.00">testUtils</text>
</g>
<g id="clust7" class="cluster"><title>cluster_src/utils</title>
<path fill="#ffffff" stroke="black" stroke-width="2" d="M411,-222C411,-222 457,-222 457,-222 463,-222 469,-228 469,-234 469,-234 469,-262 469,-262 469,-268 463,-274 457,-274 457,-274 411,-274 411,-274 405,-274 399,-268 399,-262 399,-262 399,-234 399,-234 399,-228 405,-222 411,-222"/>
<text text-anchor="middle" x="434" y="-262.8" font-family="Helvetica,sans-Serif" font-weight="bold" font-size="9.00">utils</text>
</g>
<!-- node_modules/lodash/lodash.js -->
<g id="node1" class="node"><title>node_modules/lodash/lodash.js</title>
<g id="a_node1"><a xlink:href="node_modules/lodash/lodash.js" xlink:title="lodash.js">
<polygon fill="#c40b0a" fill-opacity="0.101961" stroke="black" points="255,-42 253.5,-44 243,-44 241.5,-42 196,-42 196,-24 255,-24 255,-42"/>
<text text-anchor="middle" x="225.5" y="-30.8" font-family="Helvetica,sans-Serif" font-size="9.00" fill="#c40b0a">lodash.js</text>
</a>
</g>
</g>
<!-- src/SiDevice/BaseSiDevice.js -->
<g id="node2" class="node"><title>src/SiDevice/BaseSiDevice.js</title>
<g id="a_node2"><a xlink:href="src/SiDevice/BaseSiDevice.js" xlink:title="BaseSiDevice.js">
<path fill="#ffffcc" stroke="black" d="M377,-226C377,-226 300,-226 300,-226 297,-226 294,-223 294,-220 294,-220 294,-214 294,-214 294,-211 297,-208 300,-208 300,-208 377,-208 377,-208 380,-208 383,-211 383,-214 383,-214 383,-220 383,-220 383,-223 380,-226 377,-226"/>
<text text-anchor="middle" x="338.5" y="-214.8" font-family="Helvetica,sans-Serif" font-size="9.00">BaseSiDevice.js</text>
</a>
</g>
</g>
<!-- src/utils/index.js -->
<g id="node10" class="node"><title>src/utils/index.js</title>
<g id="a_node10"><a xlink:href="src/utils/index.js" xlink:title="index.js">
<path fill="#ffffcc" stroke="black" d="M455,-248C455,-248 413,-248 413,-248 410,-248 407,-245 407,-242 407,-242 407,-236 407,-236 407,-233 410,-230 413,-230 413,-230 455,-230 455,-230 458,-230 461,-233 461,-236 461,-236 461,-242 461,-242 461,-245 458,-248 455,-248"/>
<text text-anchor="middle" x="434" y="-236.8" font-family="Helvetica,sans-Serif" font-size="9.00">index.js</text>
</a>
</g>
</g>
<!-- src/SiDevice/BaseSiDevice.js&#45;&gt;src/utils/index.js -->
<g id="edge1" class="edge"><title>src/SiDevice/BaseSiDevice.js&#45;&gt;src/utils/index.js</title>
<path fill="none" stroke="#000000" stroke-width="2" stroke-opacity="0.466667" d="M377.8,-226.012C384.068,-227.486 390.545,-229.011 396.761,-230.473"/>
<polygon fill="#000000" fill-opacity="0.466667" stroke="#000000" stroke-width="2" stroke-opacity="0.466667" points="396.356,-233.973 406.892,-232.857 397.959,-227.159 396.356,-233.973"/>
</g>
<!-- src/SiDevice/BaseSiDevice.test.js -->
<g id="node3" class="node"><title>src/SiDevice/BaseSiDevice.test.js</title>
<g id="a_node3"><a xlink:href="src/SiDevice/BaseSiDevice.test.js" xlink:title="BaseSiDevice.test.js">
<path fill="#ffffcc" stroke="black" d="M275,-226C275,-226 176,-226 176,-226 173,-226 170,-223 170,-220 170,-220 170,-214 170,-214 170,-211 173,-208 176,-208 176,-208 275,-208 275,-208 278,-208 281,-211 281,-214 281,-214 281,-220 281,-220 281,-223 278,-226 275,-226"/>
<text text-anchor="middle" x="225.5" y="-214.8" font-family="Helvetica,sans-Serif" font-size="9.00">BaseSiDevice.test.js</text>
</a>
</g>
</g>
<!-- src/SiDevice/BaseSiDevice.test.js&#45;&gt;src/SiDevice/BaseSiDevice.js -->
<g id="edge3" class="edge"><title>src/SiDevice/BaseSiDevice.test.js&#45;&gt;src/SiDevice/BaseSiDevice.js</title>
<path fill="none" stroke="#000000" stroke-width="2" stroke-opacity="0.466667" d="M281.024,-217C281.826,-217 282.628,-217 283.43,-217"/>
<polygon fill="#000000" fill-opacity="0.466667" stroke="#000000" stroke-width="2" stroke-opacity="0.466667" points="283.776,-220.5 293.776,-217 283.775,-213.5 283.776,-220.5"/>
</g>
<!-- src/SiDevice/BaseSiDevice.test.js&#45;&gt;src/utils/index.js -->
<g id="edge2" class="edge"><title>src/SiDevice/BaseSiDevice.test.js&#45;&gt;src/utils/index.js</title>
<path fill="none" stroke="#000000" stroke-width="2" stroke-opacity="0.466667" d="M262.03,-226.071C272.284,-228.368 283.531,-230.583 294,-232 328.608,-236.683 368.445,-238.309 396.575,-238.838"/>
<polygon fill="#000000" fill-opacity="0.466667" stroke="#000000" stroke-width="2" stroke-opacity="0.466667" points="396.696,-242.34 406.748,-238.991 396.802,-235.341 396.696,-242.34"/>
</g>
<!-- src/SiDevice/drivers/WebUsbSiDevice.js -->
<g id="node4" class="node"><title>src/SiDevice/drivers/WebUsbSiDevice.js</title>
<g id="a_node4"><a xlink:href="src/SiDevice/drivers/WebUsbSiDevice.js" xlink:title="WebUsbSiDevice.js">
<path fill="#ffffcc" stroke="black" d="M271.5,-174C271.5,-174 179.5,-174 179.5,-174 176.5,-174 173.5,-171 173.5,-168 173.5,-168 173.5,-162 173.5,-162 173.5,-159 176.5,-156 179.5,-156 179.5,-156 271.5,-156 271.5,-156 274.5,-156 277.5,-159 277.5,-162 277.5,-162 277.5,-168 277.5,-168 277.5,-171 274.5,-174 271.5,-174"/>
<text text-anchor="middle" x="225.5" y="-162.8" font-family="Helvetica,sans-Serif" font-size="9.00">WebUsbSiDevice.js</text>
</a>
</g>
</g>
<!-- src/SiDevice/drivers/WebUsbSiDevice.js&#45;&gt;src/SiDevice/BaseSiDevice.js -->
<g id="edge4" class="edge"><title>src/SiDevice/drivers/WebUsbSiDevice.js&#45;&gt;src/SiDevice/BaseSiDevice.js</title>
<path fill="none" stroke="#000000" stroke-width="2" stroke-opacity="0.466667" d="M275.342,-174.018C278.838,-175.191 282.259,-176.513 285.5,-178 298.192,-183.824 310.765,-193.131 320.368,-201.192"/>
<polygon fill="#000000" fill-opacity="0.466667" stroke="#000000" stroke-width="2" stroke-opacity="0.466667" points="318.137,-203.891 327.97,-207.837 322.744,-198.621 318.137,-203.891"/>
</g>
<!-- src/SiDevice/drivers/WebUsbSiDevice.test.js -->
<g id="node5" class="node"><title>src/SiDevice/drivers/WebUsbSiDevice.test.js</title>
<g id="a_node5"><a xlink:href="src/SiDevice/drivers/WebUsbSiDevice.test.js" xlink:title="WebUsbSiDevice.test.js">
<path fill="#ffffcc" stroke="black" d="M151,-174C151,-174 38,-174 38,-174 35,-174 32,-171 32,-168 32,-168 32,-162 32,-162 32,-159 35,-156 38,-156 38,-156 151,-156 151,-156 154,-156 157,-159 157,-162 157,-162 157,-168 157,-168 157,-171 154,-174 151,-174"/>
<text text-anchor="middle" x="94.5" y="-162.8" font-family="Helvetica,sans-Serif" font-size="9.00">WebUsbSiDevice.test.js</text>
</a>
</g>
</g>
<!-- src/SiDevice/drivers/WebUsbSiDevice.test.js&#45;&gt;src/SiDevice/drivers/WebUsbSiDevice.js -->
<g id="edge6" class="edge"><title>src/SiDevice/drivers/WebUsbSiDevice.test.js&#45;&gt;src/SiDevice/drivers/WebUsbSiDevice.js</title>
<path fill="none" stroke="#000000" stroke-width="2" stroke-opacity="0.466667" d="M157.355,-165C159.178,-165 161.003,-165 162.826,-165"/>
<polygon fill="#000000" fill-opacity="0.466667" stroke="#000000" stroke-width="2" stroke-opacity="0.466667" points="163.19,-168.5 173.19,-165 163.19,-161.5 163.19,-168.5"/>
</g>
<!-- src/SiDevice/drivers/WebUsbSiDevice.test.js&#45;&gt;src/utils/index.js -->
<g id="edge5" class="edge"><title>src/SiDevice/drivers/WebUsbSiDevice.test.js&#45;&gt;src/utils/index.js</title>
<path fill="none" stroke="#000000" stroke-width="2" stroke-opacity="0.466667" d="M107.453,-174.367C121.535,-186.072 144.58,-207.449 157,-231 169.323,-254.367 149.445,-272.406 170,-289 189.107,-304.425 368.793,-300.48 391,-290 405.263,-283.269 416.321,-269.056 423.502,-257.34"/>
<polygon fill="#000000" fill-opacity="0.466667" stroke="#000000" stroke-width="2" stroke-opacity="0.466667" points="426.735,-258.733 428.607,-248.304 420.641,-255.289 426.735,-258.733"/>
</g>
<!-- src/SiDevice/drivers/index.js -->
<g id="node6" class="node"><title>src/SiDevice/drivers/index.js</title>
<g id="a_node6"><a xlink:href="src/SiDevice/drivers/index.js" xlink:title="index.js">
<path fill="#ffffcc" stroke="black" d="M115.5,-144C115.5,-144 73.5,-144 73.5,-144 70.5,-144 67.5,-141 67.5,-138 67.5,-138 67.5,-132 67.5,-132 67.5,-129 70.5,-126 73.5,-126 73.5,-126 115.5,-126 115.5,-126 118.5,-126 121.5,-129 121.5,-132 121.5,-132 121.5,-138 121.5,-138 121.5,-141 118.5,-144 115.5,-144"/>
<text text-anchor="middle" x="94.5" y="-132.8" font-family="Helvetica,sans-Serif" font-size="9.00">index.js</text>
</a>
</g>
</g>
<!-- src/SiDevice/drivers/index.js&#45;&gt;src/SiDevice/drivers/WebUsbSiDevice.js -->
<g id="edge7" class="edge"><title>src/SiDevice/drivers/index.js&#45;&gt;src/SiDevice/drivers/WebUsbSiDevice.js</title>
<path fill="none" stroke="#000000" stroke-width="2" stroke-opacity="0.466667" d="M121.605,-141.071C137.135,-144.682 157.333,-149.38 175.717,-153.655"/>
<polygon fill="#000000" fill-opacity="0.466667" stroke="#000000" stroke-width="2" stroke-opacity="0.466667" points="175.17,-157.121 185.703,-155.977 176.756,-150.303 175.17,-157.121"/>
</g>
<!-- src/SiDevice/testUtils/FakeSiDevice.js -->
<g id="node7" class="node"><title>src/SiDevice/testUtils/FakeSiDevice.js</title>
<g id="a_node7"><a xlink:href="src/SiDevice/testUtils/FakeSiDevice.js" xlink:title="FakeSiDevice.js">
<path fill="#ffffcc" stroke="black" d="M263.5,-260C263.5,-260 187.5,-260 187.5,-260 184.5,-260 181.5,-257 181.5,-254 181.5,-254 181.5,-248 181.5,-248 181.5,-245 184.5,-242 187.5,-242 187.5,-242 263.5,-242 263.5,-242 266.5,-242 269.5,-245 269.5,-248 269.5,-248 269.5,-254 269.5,-254 269.5,-257 266.5,-260 263.5,-260"/>
<text text-anchor="middle" x="225.5" y="-248.8" font-family="Helvetica,sans-Serif" font-size="9.00">FakeSiDevice.js</text>
</a>
</g>
</g>
<!-- src/SiDevice/testUtils/FakeSiDevice.js&#45;&gt;src/SiDevice/BaseSiDevice.js -->
<g id="edge9" class="edge"><title>src/SiDevice/testUtils/FakeSiDevice.js&#45;&gt;src/SiDevice/BaseSiDevice.js</title>
<path fill="none" stroke="#000000" stroke-width="2" stroke-opacity="0.466667" d="M269.578,-242.387C274.975,-241.051 280.39,-239.583 285.5,-238 292.789,-235.742 300.489,-232.899 307.665,-230.04"/>
<polygon fill="#000000" fill-opacity="0.466667" stroke="#000000" stroke-width="2" stroke-opacity="0.466667" points="309.121,-233.226 317.038,-226.185 306.458,-226.752 309.121,-233.226"/>
</g>
<!-- src/testUtils.js -->
<g id="node9" class="node"><title>src/testUtils.js</title>
<g id="a_node9"><a xlink:href="src/testUtils.js" xlink:title="testUtils.js">
<path fill="#ffffcc" stroke="black" d="M365.5,-338C365.5,-338 311.5,-338 311.5,-338 308.5,-338 305.5,-335 305.5,-332 305.5,-332 305.5,-326 305.5,-326 305.5,-323 308.5,-320 311.5,-320 311.5,-320 365.5,-320 365.5,-320 368.5,-320 371.5,-323 371.5,-326 371.5,-326 371.5,-332 371.5,-332 371.5,-335 368.5,-338 365.5,-338"/>
<text text-anchor="middle" x="338.5" y="-326.8" font-family="Helvetica,sans-Serif" font-size="9.00">testUtils.js</text>
</a>
</g>
</g>
<!-- src/SiDevice/testUtils/FakeSiDevice.js&#45;&gt;src/testUtils.js -->
<g id="edge8" class="edge"><title>src/SiDevice/testUtils/FakeSiDevice.js&#45;&gt;src/testUtils.js</title>
<path fill="none" stroke="#000000" stroke-width="2" stroke-opacity="0.466667" d="M269.676,-254.167C275.623,-256.298 281.167,-259.436 285.5,-264 301.323,-280.664 278.981,-297.608 294,-315 294.752,-315.871 295.558,-316.688 296.41,-317.454"/>
<polygon fill="#000000" fill-opacity="0.466667" stroke="#000000" stroke-width="2" stroke-opacity="0.466667" points="294.79,-320.575 305.084,-323.08 298.599,-314.702 294.79,-320.575"/>
</g>
<!-- src/SiDevice/testUtils/FakeSiDevice.test.js -->
<g id="node8" class="node"><title>src/SiDevice/testUtils/FakeSiDevice.test.js</title>
<g id="a_node8"><a xlink:href="src/SiDevice/testUtils/FakeSiDevice.test.js" xlink:title="FakeSiDevice.test.js">
<path fill="#ffffcc" stroke="black" d="M143.5,-260C143.5,-260 45.5,-260 45.5,-260 42.5,-260 39.5,-257 39.5,-254 39.5,-254 39.5,-248 39.5,-248 39.5,-245 42.5,-242 45.5,-242 45.5,-242 143.5,-242 143.5,-242 146.5,-242 149.5,-245 149.5,-248 149.5,-248 149.5,-254 149.5,-254 149.5,-257 146.5,-260 143.5,-260"/>
<text text-anchor="middle" x="94.5" y="-248.8" font-family="Helvetica,sans-Serif" font-size="9.00">FakeSiDevice.test.js</text>
</a>
</g>
</g>
<!-- src/SiDevice/testUtils/FakeSiDevice.test.js&#45;&gt;node_modules/lodash/lodash.js -->
<g id="edge12" class="edge"><title>src/SiDevice/testUtils/FakeSiDevice.test.js&#45;&gt;node_modules/lodash/lodash.js</title>
<path fill="none" stroke="#000000" stroke-width="2" stroke-opacity="0.466667" d="M113.428,-241.993C127.676,-233.838 146.844,-220.439 157,-203 176.897,-168.836 155.828,-151.908 170,-115 179.41,-90.4951 197.141,-65.8833 209.824,-50.1103"/>
<polygon fill="#000000" fill-opacity="0.466667" stroke="#000000" stroke-width="2" stroke-opacity="0.466667" points="212.595,-52.252 216.267,-42.3137 207.199,-47.7932 212.595,-52.252"/>
</g>
<!-- src/SiDevice/testUtils/FakeSiDevice.test.js&#45;&gt;src/SiDevice/testUtils/FakeSiDevice.js -->
<g id="edge11" class="edge"><title>src/SiDevice/testUtils/FakeSiDevice.test.js&#45;&gt;src/SiDevice/testUtils/FakeSiDevice.js</title>
<path fill="none" stroke="#000000" stroke-width="2" stroke-opacity="0.466667" d="M149.834,-251C156.866,-251 164.063,-251 171.08,-251"/>
<polygon fill="#000000" fill-opacity="0.466667" stroke="#000000" stroke-width="2" stroke-opacity="0.466667" points="171.192,-254.5 181.192,-251 171.192,-247.5 171.192,-254.5"/>
</g>
<!-- src/SiDevice/testUtils/FakeSiDevice.test.js&#45;&gt;src/testUtils.js -->
<g id="edge10" class="edge"><title>src/SiDevice/testUtils/FakeSiDevice.test.js&#45;&gt;src/testUtils.js</title>
<path fill="none" stroke="#000000" stroke-width="2" stroke-opacity="0.466667" d="M106.833,-260.37C120.793,-271.4 145.659,-289.425 170,-299 210.735,-315.025 260.429,-322.549 295.065,-326.045"/>
<polygon fill="#000000" fill-opacity="0.466667" stroke="#000000" stroke-width="2" stroke-opacity="0.466667" points="295.02,-329.556 305.303,-327.006 295.674,-322.587 295.02,-329.556"/>
</g>
</g>
</svg>
