<?xml version="1.0" encoding="UTF-8" standalone="no"?>
<!DOCTYPE svg PUBLIC "-//W3C//DTD SVG 1.1//EN"
 "http://www.w3.org/Graphics/SVG/1.1/DTD/svg11.dtd">
<!-- Generated by graphviz version 2.43.0 (0)
 -->
<!-- Title: dependency&#45;cruiser output Pages: 1 -->
<svg width="471pt" height="516pt"
 viewBox="0.00 0.00 471.00 516.00" xmlns="http://www.w3.org/2000/svg" xmlns:xlink="http://www.w3.org/1999/xlink">
<g id="graph0" class="graph" transform="scale(1 1) rotate(0) translate(4 512)">
<title>dependency&#45;cruiser output</title>
<polygon fill="white" stroke="transparent" points="-4,4 -4,-512 467,-512 467,4 -4,4"/>
<g id="clust1" class="cluster">
<title>cluster_node_modules</title>
<path fill="#ffffff" stroke="black" stroke-width="2" d="M191,-8C191,-8 285,-8 285,-8 291,-8 297,-14 297,-20 297,-20 297,-150 297,-150 297,-156 291,-162 285,-162 285,-162 191,-162 191,-162 185,-162 179,-156 179,-150 179,-150 179,-20 179,-20 179,-14 185,-8 191,-8"/>
<text text-anchor="middle" x="238" y="-150.8" font-family="Helvetica,sans-Serif" font-weight="bold" font-size="9.00">node_modules</text>
</g>
<g id="clust2" class="cluster">
<title>cluster_node_modules/@jest</title>
<path fill="#ffffff" stroke="black" stroke-width="2" d="M199,-16C199,-16 277,-16 277,-16 283,-16 289,-22 289,-28 289,-28 289,-124 289,-124 289,-130 283,-136 277,-136 277,-136 199,-136 199,-136 193,-136 187,-130 187,-124 187,-124 187,-28 187,-28 187,-22 193,-16 199,-16"/>
<text text-anchor="middle" x="238" y="-124.8" font-family="Helvetica,sans-Serif" font-weight="bold" font-size="9.00">@jest</text>
</g>
<g id="clust3" class="cluster">
<title>cluster_node_modules/@jest/globals</title>
<path fill="#ffffff" stroke="black" stroke-width="2" d="M207,-24C207,-24 269,-24 269,-24 275,-24 281,-30 281,-36 281,-36 281,-98 281,-98 281,-104 275,-110 269,-110 269,-110 207,-110 207,-110 201,-110 195,-104 195,-98 195,-98 195,-36 195,-36 195,-30 201,-24 207,-24"/>
<text text-anchor="middle" x="238" y="-98.8" font-family="Helvetica,sans-Serif" font-weight="bold" font-size="9.00">globals</text>
</g>
<g id="clust4" class="cluster">
<title>cluster_node_modules/@jest/globals/build</title>
<path fill="#ffffff" stroke="black" stroke-width="2" d="M215,-32C215,-32 261,-32 261,-32 267,-32 273,-38 273,-44 273,-44 273,-72 273,-72 273,-78 267,-84 261,-84 261,-84 215,-84 215,-84 209,-84 203,-78 203,-72 203,-72 203,-44 203,-44 203,-38 209,-32 215,-32"/>
<text text-anchor="middle" x="238" y="-72.8" font-family="Helvetica,sans-Serif" font-weight="bold" font-size="9.00">build</text>
</g>
<g id="clust5" class="cluster">
<title>cluster_packages</title>
<path fill="#ffffff" stroke="black" stroke-width="2" d="M20,-170C20,-170 443,-170 443,-170 449,-170 455,-176 455,-182 455,-182 455,-488 455,-488 455,-494 449,-500 443,-500 443,-500 20,-500 20,-500 14,-500 8,-494 8,-488 8,-488 8,-182 8,-182 8,-176 14,-170 20,-170"/>
<text text-anchor="middle" x="231.5" y="-488.8" font-family="Helvetica,sans-Serif" font-weight="bold" font-size="9.00">packages</text>
</g>
<g id="clust6" class="cluster">
<title>cluster_packages/sportident</title>
<path fill="#ffffff" stroke="black" stroke-width="2" d="M28,-178C28,-178 435,-178 435,-178 441,-178 447,-184 447,-190 447,-190 447,-462 447,-462 447,-468 441,-474 435,-474 435,-474 28,-474 28,-474 22,-474 16,-468 16,-462 16,-462 16,-190 16,-190 16,-184 22,-178 28,-178"/>
<text text-anchor="middle" x="231.5" y="-462.8" font-family="Helvetica,sans-Serif" font-weight="bold" font-size="9.00">sportident</text>
</g>
<g id="clust7" class="cluster">
<title>cluster_packages/sportident/src</title>
<path fill="#ffffff" stroke="black" stroke-width="2" d="M36,-186C36,-186 427,-186 427,-186 433,-186 439,-192 439,-198 439,-198 439,-436 439,-436 439,-442 433,-448 427,-448 427,-448 36,-448 36,-448 30,-448 24,-442 24,-436 24,-436 24,-198 24,-198 24,-192 30,-186 36,-186"/>
<text text-anchor="middle" x="231.5" y="-436.8" font-family="Helvetica,sans-Serif" font-weight="bold" font-size="9.00">src</text>
</g>
<g id="clust8" class="cluster">
<title>cluster_packages/sportident/src/SiDevice</title>
<path fill="#ffffff" stroke="black" stroke-width="2" d="M44,-194C44,-194 341,-194 341,-194 347,-194 353,-200 353,-206 353,-206 353,-384 353,-384 353,-390 347,-396 341,-396 341,-396 44,-396 44,-396 38,-396 32,-390 32,-384 32,-384 32,-206 32,-206 32,-200 38,-194 44,-194"/>
<text text-anchor="middle" x="192.5" y="-384.8" font-family="Helvetica,sans-Serif" font-weight="bold" font-size="9.00">SiDevice</text>
</g>
<g id="clust9" class="cluster">
<title>cluster_packages/sportident/src/SiDevice/testUtils</title>
<path fill="#ffffff" stroke="black" stroke-width="2" d="M60,-288C60,-288 333,-288 333,-288 339,-288 345,-294 345,-300 345,-300 345,-358 345,-358 345,-364 339,-370 333,-370 333,-370 60,-370 60,-370 54,-370 48,-364 48,-358 48,-358 48,-300 48,-300 48,-294 54,-288 60,-288"/>
<text text-anchor="middle" x="196.5" y="-358.8" font-family="Helvetica,sans-Serif" font-weight="bold" font-size="9.00">testUtils</text>
</g>
<g id="clust10" class="cluster">
<title>cluster_packages/sportident/src/utils</title>
<path fill="#ffffff" stroke="black" stroke-width="2" d="M373,-224C373,-224 419,-224 419,-224 425,-224 431,-230 431,-236 431,-236 431,-264 431,-264 431,-270 425,-276 419,-276 419,-276 373,-276 373,-276 367,-276 361,-270 361,-264 361,-264 361,-236 361,-236 361,-230 367,-224 373,-224"/>
<text text-anchor="middle" x="396" y="-264.8" font-family="Helvetica,sans-Serif" font-weight="bold" font-size="9.00">utils</text>
</g>
<!-- node_modules/@jest/globals/build/index.js -->
<g id="node1" class="node">
<title>node_modules/@jest/globals/build/index.js</title>
<g id="a_node1"><a xlink:href="node_modules/@jest/globals/build/index.js" xlink:title="index.js">
<polygon fill="#c40b0a" fill-opacity="0.101961" stroke="black" points="265,-58 263.5,-60 253,-60 251.5,-58 211,-58 211,-40 265,-40 265,-58"/>
<text text-anchor="start" x="220.5" y="-46.8" font-family="Helvetica,sans-Serif" font-size="9.00" fill="#c40b0a">index.js</text>
</a>
</g>
</g>
<!-- packages/sportident/src/SiDevice/ISiDevice.ts -->
<g id="node2" class="node">
<title>packages/sportident/src/SiDevice/ISiDevice.ts</title>
<g id="a_node2"><a xlink:href="packages/sportident/src/SiDevice/ISiDevice.ts" xlink:title="ISiDevice.ts">
<path fill="#ddfeff" stroke="black" d="M266.5,-220C266.5,-220 209.5,-220 209.5,-220 206.5,-220 203.5,-217 203.5,-214 203.5,-214 203.5,-208 203.5,-208 203.5,-205 206.5,-202 209.5,-202 209.5,-202 266.5,-202 266.5,-202 269.5,-202 272.5,-205 272.5,-208 272.5,-208 272.5,-214 272.5,-214 272.5,-217 269.5,-220 266.5,-220"/>
<text text-anchor="start" x="211.5" y="-208.8" font-family="Helvetica,sans-Serif" font-size="9.00">ISiDevice.ts</text>
</a>
</g>
</g>
<!-- packages/sportident/src/utils/index.ts -->
<g id="node3" class="node">
<title>packages/sportident/src/utils/index.ts</title>
<g id="a_node3"><a xlink:href="packages/sportident/src/utils/index.ts" xlink:title="index.ts">
<path fill="#ddfeff" stroke="black" d="M417,-250C417,-250 375,-250 375,-250 372,-250 369,-247 369,-244 369,-244 369,-238 369,-238 369,-235 372,-232 375,-232 375,-232 417,-232 417,-232 420,-232 423,-235 423,-238 423,-238 423,-244 423,-244 423,-247 420,-250 417,-250"/>
<text text-anchor="start" x="377.5" y="-238.8" font-family="Helvetica,sans-Serif" font-size="9.00">index.ts</text>
</a>
</g>
</g>
<!-- packages/sportident/src/SiDevice/ISiDevice.ts&#45;&gt;packages/sportident/src/utils/index.ts -->
<g id="edge1" class="edge">
<title>packages/sportident/src/SiDevice/ISiDevice.ts&#45;&gt;packages/sportident/src/utils/index.ts</title>
<path fill="none" stroke="#000000" stroke-width="2" stroke-opacity="0.200000" d="M272.77,-213.55C295.64,-215.74 326.42,-219.58 353,-226 357.35,-227.05 361.87,-228.39 366.27,-229.83"/>
<polygon fill="#000000" fill-opacity="0.200000" stroke="#000000" stroke-width="2" stroke-opacity="0.200000" points="365.8,-231.89 372.16,-231.85 367.16,-227.92 365.8,-231.89"/>
</g>
<!-- packages/sportident/src/SiDevice/ISiDeviceDriver.ts -->
<g id="node4" class="node">
<title>packages/sportident/src/SiDevice/ISiDeviceDriver.ts</title>
<g id="a_node4"><a xlink:href="packages/sportident/src/SiDevice/ISiDeviceDriver.ts" xlink:title="ISiDeviceDriver.ts">
<path fill="#ddfeff" stroke="black" d="M279.5,-280C279.5,-280 196.5,-280 196.5,-280 193.5,-280 190.5,-277 190.5,-274 190.5,-274 190.5,-268 190.5,-268 190.5,-265 193.5,-262 196.5,-262 196.5,-262 279.5,-262 279.5,-262 282.5,-262 285.5,-265 285.5,-268 285.5,-268 285.5,-274 285.5,-274 285.5,-277 282.5,-280 279.5,-280"/>
<text text-anchor="start" x="198.5" y="-268.8" font-family="Helvetica,sans-Serif" font-size="9.00">ISiDeviceDriver.ts</text>
</a>
</g>
</g>
<!-- packages/sportident/src/SiDevice/ISiDeviceDriver.ts&#45;&gt;packages/sportident/src/utils/index.ts -->
<g id="edge2" class="edge">
<title>packages/sportident/src/SiDevice/ISiDeviceDriver.ts&#45;&gt;packages/sportident/src/utils/index.ts</title>
<path fill="none" stroke="#000000" stroke-width="2" stroke-opacity="0.200000" d="M285.72,-267.11C306.51,-264.81 331.17,-261.27 353,-256 357.35,-254.95 361.87,-253.61 366.27,-252.17"/>
<polygon fill="#000000" fill-opacity="0.200000" stroke="#000000" stroke-width="2" stroke-opacity="0.200000" points="367.16,-254.08 372.16,-250.15 365.8,-250.11 367.16,-254.08"/>
</g>
<!-- packages/sportident/src/SiDevice/SiDevice.test.ts -->
<g id="node5" class="node">
<title>packages/sportident/src/SiDevice/SiDevice.test.ts</title>
<g id="a_node5"><a xlink:href="packages/sportident/src/SiDevice/SiDevice.test.ts" xlink:title="SiDevice.test.ts">
<path fill="#ddfeff" stroke="black" d="M120,-220C120,-220 46,-220 46,-220 43,-220 40,-217 40,-214 40,-214 40,-208 40,-208 40,-205 43,-202 46,-202 46,-202 120,-202 120,-202 123,-202 126,-205 126,-208 126,-208 126,-214 126,-214 126,-217 123,-220 120,-220"/>
<text text-anchor="start" x="48" y="-208.8" font-family="Helvetica,sans-Serif" font-size="9.00">SiDevice.test.ts</text>
</a>
</g>
</g>
<!-- packages/sportident/src/SiDevice/SiDevice.test.ts&#45;&gt;node_modules/@jest/globals/build/index.js -->
<g id="edge6" class="edge">
<title>packages/sportident/src/SiDevice/SiDevice.test.ts&#45;&gt;node_modules/@jest/globals/build/index.js</title>
<path fill="none" stroke="#000000" stroke-opacity="0.200000" d="M92.66,-201.83C118.33,-174.65 194.06,-94.46 224.31,-62.44"/>
<polygon fill="#000000" fill-opacity="0.200000" stroke="#000000" stroke-opacity="0.200000" points="225.84,-63.88 228.43,-58.07 222.78,-60.99 225.84,-63.88"/>
</g>
<!-- packages/sportident/src/SiDevice/SiDevice.test.ts&#45;&gt;packages/sportident/src/SiDevice/ISiDevice.ts -->
<g id="edge4" class="edge">
<title>packages/sportident/src/SiDevice/SiDevice.test.ts&#45;&gt;packages/sportident/src/SiDevice/ISiDevice.ts</title>
<path fill="none" stroke="#000000" stroke-width="2" stroke-opacity="0.200000" d="M126.21,-211C148.37,-211 175.36,-211 197.15,-211"/>
<polygon fill="#000000" fill-opacity="0.200000" stroke="#000000" stroke-width="2" stroke-opacity="0.200000" points="197.15,-213.1 203.15,-211 197.15,-208.9 197.15,-213.1"/>
</g>
<!-- packages/sportident/src/testUtils.ts -->
<g id="node6" class="node">
<title>packages/sportident/src/testUtils.ts</title>
<g id="a_node6"><a xlink:href="packages/sportident/src/testUtils.ts" xlink:title="testUtils.ts">
<path fill="#ddfeff" stroke="black" d="M264.5,-422C264.5,-422 211.5,-422 211.5,-422 208.5,-422 205.5,-419 205.5,-416 205.5,-416 205.5,-410 205.5,-410 205.5,-407 208.5,-404 211.5,-404 211.5,-404 264.5,-404 264.5,-404 267.5,-404 270.5,-407 270.5,-410 270.5,-410 270.5,-416 270.5,-416 270.5,-419 267.5,-422 264.5,-422"/>
<text text-anchor="start" x="213.5" y="-410.8" font-family="Helvetica,sans-Serif" font-size="9.00">testUtils.ts</text>
</a>
</g>
</g>
<!-- packages/sportident/src/SiDevice/SiDevice.test.ts&#45;&gt;packages/sportident/src/testUtils.ts -->
<g id="edge3" class="edge">
<title>packages/sportident/src/SiDevice/SiDevice.test.ts&#45;&gt;packages/sportident/src/testUtils.ts</title>
<path fill="none" stroke="#000000" stroke-width="2" stroke-opacity="0.200000" d="M119.58,-220.04C122.01,-221.7 124.2,-223.67 126,-226 146.05,-251.95 119.53,-346.61 139,-373 153.16,-392.19 178.16,-402.21 199.36,-407.41"/>
<polygon fill="#000000" fill-opacity="0.200000" stroke="#000000" stroke-width="2" stroke-opacity="0.200000" points="198.91,-409.47 205.22,-408.76 199.85,-405.37 198.91,-409.47"/>
</g>
<!-- packages/sportident/src/SiDevice/SiDevice.ts -->
<g id="node7" class="node">
<title>packages/sportident/src/SiDevice/SiDevice.ts</title>
<g id="a_node7"><a xlink:href="packages/sportident/src/SiDevice/SiDevice.ts" xlink:title="SiDevice.ts">
<path fill="#ddfeff" stroke="black" d="M265,-250C265,-250 211,-250 211,-250 208,-250 205,-247 205,-244 205,-244 205,-238 205,-238 205,-235 208,-232 211,-232 211,-232 265,-232 265,-232 268,-232 271,-235 271,-238 271,-238 271,-244 271,-244 271,-247 268,-250 265,-250"/>
<text text-anchor="start" x="213" y="-238.8" font-family="Helvetica,sans-Serif" font-size="9.00">SiDevice.ts</text>
</a>
</g>
</g>
<!-- packages/sportident/src/SiDevice/SiDevice.test.ts&#45;&gt;packages/sportident/src/SiDevice/SiDevice.ts -->
<g id="edge5" class="edge">
<title>packages/sportident/src/SiDevice/SiDevice.test.ts&#45;&gt;packages/sportident/src/SiDevice/SiDevice.ts</title>
<path fill="none" stroke="#000000" stroke-width="2" stroke-opacity="0.200000" d="M114.68,-220.03C122.56,-222.17 131.06,-224.32 139,-226 158.51,-230.14 180.45,-233.61 198.61,-236.16"/>
<polygon fill="#000000" fill-opacity="0.200000" stroke="#000000" stroke-width="2" stroke-opacity="0.200000" points="198.38,-238.25 204.61,-236.99 198.96,-234.09 198.38,-238.25"/>
</g>
<!-- packages/sportident/src/SiDevice/index.ts -->
<g id="node8" class="node">
<title>packages/sportident/src/SiDevice/index.ts</title>
<g id="a_node8"><a xlink:href="packages/sportident/src/SiDevice/index.ts" xlink:title="index.ts">
<path fill="#ddfeff" stroke="black" d="M104,-250C104,-250 62,-250 62,-250 59,-250 56,-247 56,-244 56,-244 56,-238 56,-238 56,-235 59,-232 62,-232 62,-232 104,-232 104,-232 107,-232 110,-235 110,-238 110,-238 110,-244 110,-244 110,-247 107,-250 104,-250"/>
<text text-anchor="start" x="64.5" y="-238.8" font-family="Helvetica,sans-Serif" font-size="9.00">index.ts</text>
</a>
</g>
</g>
<!-- packages/sportident/src/SiDevice/index.ts&#45;&gt;packages/sportident/src/SiDevice/ISiDevice.ts -->
<g id="edge7" class="edge">
<title>packages/sportident/src/SiDevice/index.ts&#45;&gt;packages/sportident/src/SiDevice/ISiDevice.ts</title>
<path fill="none" stroke="#000000" stroke-width="2" stroke-opacity="0.200000" d="M110.15,-233.21C119.23,-230.68 129.51,-228.01 139,-226 157.89,-221.99 179.06,-218.61 196.86,-216.09"/>
<polygon fill="#000000" fill-opacity="0.200000" stroke="#000000" stroke-width="2" stroke-opacity="0.200000" points="197.61,-218.1 203.26,-215.19 197.03,-213.94 197.61,-218.1"/>
</g>
<!-- packages/sportident/src/SiDevice/index.ts&#45;&gt;packages/sportident/src/SiDevice/ISiDeviceDriver.ts -->
<g id="edge8" class="edge">
<title>packages/sportident/src/SiDevice/index.ts&#45;&gt;packages/sportident/src/SiDevice/ISiDeviceDriver.ts</title>
<path fill="none" stroke="#000000" stroke-width="2" stroke-opacity="0.200000" d="M110.15,-248.79C119.23,-251.32 129.51,-253.99 139,-256 153.59,-259.09 169.52,-261.81 184.22,-264.05"/>
<polygon fill="#000000" fill-opacity="0.200000" stroke="#000000" stroke-width="2" stroke-opacity="0.200000" points="184.2,-266.17 190.44,-264.99 184.82,-262.02 184.2,-266.17"/>
</g>
<!-- packages/sportident/src/SiDevice/index.ts&#45;&gt;packages/sportident/src/SiDevice/SiDevice.ts -->
<g id="edge9" class="edge">
<title>packages/sportident/src/SiDevice/index.ts&#45;&gt;packages/sportident/src/SiDevice/SiDevice.ts</title>
<path fill="none" stroke="#000000" stroke-width="2" stroke-opacity="0.200000" d="M110.3,-241C134.69,-241 171.26,-241 198.85,-241"/>
<polygon fill="#000000" fill-opacity="0.200000" stroke="#000000" stroke-width="2" stroke-opacity="0.200000" points="198.95,-243.1 204.95,-241 198.95,-238.9 198.95,-243.1"/>
</g>
<!-- packages/sportident/src/SiDevice/testUtils/index.ts -->
<g id="node9" class="node">
<title>packages/sportident/src/SiDevice/testUtils/index.ts</title>
<g id="a_node9"><a xlink:href="packages/sportident/src/SiDevice/testUtils/index.ts" xlink:title="index.ts">
<path fill="#ddfeff" stroke="black" d="M104,-329C104,-329 62,-329 62,-329 59,-329 56,-326 56,-323 56,-323 56,-317 56,-317 56,-314 59,-311 62,-311 62,-311 104,-311 104,-311 107,-311 110,-314 110,-317 110,-317 110,-323 110,-323 110,-326 107,-329 104,-329"/>
<text text-anchor="start" x="64.5" y="-317.8" font-family="Helvetica,sans-Serif" font-size="9.00">index.ts</text>
</a>
</g>
</g>
<!-- packages/sportident/src/SiDevice/testUtils/testISiDeviceDriver.ts -->
<g id="node10" class="node">
<title>packages/sportident/src/SiDevice/testUtils/testISiDeviceDriver.ts</title>
<g id="a_node10"><a xlink:href="packages/sportident/src/SiDevice/testUtils/testISiDeviceDriver.ts" xlink:title="testISiDeviceDriver.ts">
<path fill="#ddfeff" stroke="black" d="M288.5,-314C288.5,-314 187.5,-314 187.5,-314 184.5,-314 181.5,-311 181.5,-308 181.5,-308 181.5,-302 181.5,-302 181.5,-299 184.5,-296 187.5,-296 187.5,-296 288.5,-296 288.5,-296 291.5,-296 294.5,-299 294.5,-302 294.5,-302 294.5,-308 294.5,-308 294.5,-311 291.5,-314 288.5,-314"/>
<text text-anchor="start" x="189.5" y="-302.8" font-family="Helvetica,sans-Serif" font-size="9.00">testISiDeviceDriver.ts</text>
</a>
</g>
</g>
<!-- packages/sportident/src/SiDevice/testUtils/index.ts&#45;&gt;packages/sportident/src/SiDevice/testUtils/testISiDeviceDriver.ts -->
<g id="edge10" class="edge">
<title>packages/sportident/src/SiDevice/testUtils/index.ts&#45;&gt;packages/sportident/src/SiDevice/testUtils/testISiDeviceDriver.ts</title>
<path fill="none" stroke="#000000" stroke-width="2" stroke-opacity="0.200000" d="M110.3,-317.42C128.18,-315.67 152.62,-313.27 175.26,-311.05"/>
<polygon fill="#000000" fill-opacity="0.200000" stroke="#000000" stroke-width="2" stroke-opacity="0.200000" points="175.51,-313.14 181.28,-310.46 175.1,-308.96 175.51,-313.14"/>
</g>
<!-- packages/sportident/src/SiDevice/testUtils/testISiDeviceDriverWithAutodetection.ts -->
<g id="node11" class="node">
<title>packages/sportident/src/SiDevice/testUtils/testISiDeviceDriverWithAutodetection.ts</title>
<g id="a_node11"><a xlink:href="packages/sportident/src/SiDevice/testUtils/testISiDeviceDriverWithAutodetection.ts" xlink:title="testISiDeviceDriverWithAutodetection.ts">
<path fill="#ddfeff" stroke="black" d="M331,-344C331,-344 145,-344 145,-344 142,-344 139,-341 139,-338 139,-338 139,-332 139,-332 139,-329 142,-326 145,-326 145,-326 331,-326 331,-326 334,-326 337,-329 337,-332 337,-332 337,-338 337,-338 337,-341 334,-344 331,-344"/>
<text text-anchor="start" x="147" y="-332.8" font-family="Helvetica,sans-Serif" font-size="9.00">testISiDeviceDriverWithAutodetection.ts</text>
</a>
</g>
</g>
<!-- packages/sportident/src/SiDevice/testUtils/index.ts&#45;&gt;packages/sportident/src/SiDevice/testUtils/testISiDeviceDriverWithAutodetection.ts -->
<g id="edge11" class="edge">
<title>packages/sportident/src/SiDevice/testUtils/index.ts&#45;&gt;packages/sportident/src/SiDevice/testUtils/testISiDeviceDriverWithAutodetection.ts</title>
<path fill="none" stroke="#000000" stroke-width="2" stroke-opacity="0.200000" d="M110.3,-322.58C118.66,-323.4 128.45,-324.36 138.81,-325.37"/>
<polygon fill="#000000" fill-opacity="0.200000" stroke="#000000" stroke-width="2" stroke-opacity="0.200000" points="138.8,-327.48 144.98,-325.98 139.21,-323.3 138.8,-327.48"/>
</g>
</g>
</svg>
