<?xml version="1.0" encoding="UTF-8" standalone="no"?>
<!DOCTYPE svg PUBLIC "-//W3C//DTD SVG 1.1//EN"
 "http://www.w3.org/Graphics/SVG/1.1/DTD/svg11.dtd">
<!-- Generated by graphviz version 2.38.0 (20140413.2041)
 -->
<!-- Title: dependency&#45;cruiser output Pages: 1 -->
<svg width="465pt" height="488pt"
 viewBox="0.00 0.00 465.00 488.00" xmlns="http://www.w3.org/2000/svg" xmlns:xlink="http://www.w3.org/1999/xlink">
<g id="graph0" class="graph" transform="scale(1 1) rotate(0) translate(4 484)">
<title>dependency&#45;cruiser output</title>
<polygon fill="white" stroke="none" points="-4,4 -4,-484 461,-484 461,4 -4,4"/>
<g id="clust1" class="cluster"><title>cluster_node_modules</title>
<path fill="#ffffff" stroke="black" stroke-width="2" d="M337,-8C337,-8 437,-8 437,-8 443,-8 449,-14 449,-20 449,-20 449,-176 449,-176 449,-182 443,-188 437,-188 437,-188 337,-188 337,-188 331,-188 325,-182 325,-176 325,-176 325,-20 325,-20 325,-14 331,-8 337,-8"/>
<text text-anchor="middle" x="387" y="-176.8" font-family="Helvetica,sans-Serif" font-weight="bold" font-size="9.00">node_modules</text>
</g>
<g id="clust2" class="cluster"><title>cluster_node_modules/immutable</title>
<path fill="#ffffff" stroke="black" stroke-width="2" d="M345,-76C345,-76 429,-76 429,-76 435,-76 441,-82 441,-88 441,-88 441,-150 441,-150 441,-156 435,-162 429,-162 429,-162 345,-162 345,-162 339,-162 333,-156 333,-150 333,-150 333,-88 333,-88 333,-82 339,-76 345,-76"/>
<text text-anchor="middle" x="387" y="-150.8" font-family="Helvetica,sans-Serif" font-weight="bold" font-size="9.00">immutable</text>
</g>
<g id="clust3" class="cluster"><title>cluster_node_modules/immutable/dist</title>
<path fill="#ffffff" stroke="black" stroke-width="2" d="M353,-84C353,-84 421,-84 421,-84 427,-84 433,-90 433,-96 433,-96 433,-124 433,-124 433,-130 427,-136 421,-136 421,-136 353,-136 353,-136 347,-136 341,-130 341,-124 341,-124 341,-96 341,-96 341,-90 347,-84 353,-84"/>
<text text-anchor="middle" x="387" y="-124.8" font-family="Helvetica,sans-Serif" font-weight="bold" font-size="9.00">dist</text>
</g>
<g id="clust4" class="cluster"><title>cluster_node_modules/lodash</title>
<path fill="#ffffff" stroke="black" stroke-width="2" d="M361.5,-16C361.5,-16 412.5,-16 412.5,-16 418.5,-16 424.5,-22 424.5,-28 424.5,-28 424.5,-56 424.5,-56 424.5,-62 418.5,-68 412.5,-68 412.5,-68 361.5,-68 361.5,-68 355.5,-68 349.5,-62 349.5,-56 349.5,-56 349.5,-28 349.5,-28 349.5,-22 355.5,-16 361.5,-16"/>
<text text-anchor="middle" x="387" y="-56.8" font-family="Helvetica,sans-Serif" font-weight="bold" font-size="9.00">lodash</text>
</g>
<g id="clust5" class="cluster"><title>cluster_src</title>
<path fill="#ffffff" stroke="black" stroke-width="2" d="M20,-196C20,-196 422.5,-196 422.5,-196 428.5,-196 434.5,-202 434.5,-208 434.5,-208 434.5,-460 434.5,-460 434.5,-466 428.5,-472 422.5,-472 422.5,-472 20,-472 20,-472 14,-472 8,-466 8,-460 8,-460 8,-208 8,-208 8,-202 14,-196 20,-196"/>
<text text-anchor="middle" x="221.25" y="-460.8" font-family="Helvetica,sans-Serif" font-weight="bold" font-size="9.00">src</text>
</g>
<g id="clust6" class="cluster"><title>cluster_src/utils</title>
<path fill="#ffffff" stroke="black" stroke-width="2" d="M28,-204C28,-204 414.5,-204 414.5,-204 420.5,-204 426.5,-210 426.5,-216 426.5,-216 426.5,-408 426.5,-408 426.5,-414 420.5,-420 414.5,-420 414.5,-420 28,-420 28,-420 22,-420 16,-414 16,-408 16,-408 16,-216 16,-216 16,-210 22,-204 28,-204"/>
<text text-anchor="middle" x="221.25" y="-408.8" font-family="Helvetica,sans-Serif" font-weight="bold" font-size="9.00">utils</text>
</g>
<!-- node_modules/immutable/dist/immutable.js -->
<g id="node1" class="node"><title>node_modules/immutable/dist/immutable.js</title>
<g id="a_node1"><a xlink:href="node_modules/immutable/dist/immutable.js" xlink:title="immutable.js">
<polygon fill="#c40b0a" fill-opacity="0.101961" stroke="black" points="425,-110 423.5,-112 413,-112 411.5,-110 349,-110 349,-92 425,-92 425,-110"/>
<text text-anchor="middle" x="387" y="-98.8" font-family="Helvetica,sans-Serif" font-size="9.00" fill="#c40b0a">immutable.js</text>
</a>
</g>
</g>
<!-- node_modules/lodash/lodash.js -->
<g id="node2" class="node"><title>node_modules/lodash/lodash.js</title>
<g id="a_node2"><a xlink:href="node_modules/lodash/lodash.js" xlink:title="lodash.js">
<polygon fill="#c40b0a" fill-opacity="0.101961" stroke="black" points="416.5,-42 415,-44 404.5,-44 403,-42 357.5,-42 357.5,-24 416.5,-24 416.5,-42"/>
<text text-anchor="middle" x="387" y="-30.8" font-family="Helvetica,sans-Serif" font-size="9.00" fill="#c40b0a">lodash.js</text>
</a>
</g>
</g>
<!-- src/testUtils.js -->
<g id="node3" class="node"><title>src/testUtils.js</title>
<g id="a_node3"><a xlink:href="src/testUtils.js" xlink:title="testUtils.js">
<path fill="#ffffcc" stroke="black" d="M414,-446C414,-446 360,-446 360,-446 357,-446 354,-443 354,-440 354,-440 354,-434 354,-434 354,-431 357,-428 360,-428 360,-428 414,-428 414,-428 417,-428 420,-431 420,-434 420,-434 420,-440 420,-440 420,-443 417,-446 414,-446"/>
<text text-anchor="middle" x="387" y="-434.8" font-family="Helvetica,sans-Serif" font-size="9.00">testUtils.js</text>
</a>
</g>
</g>
<!-- src/utils/NumberRange.js -->
<g id="node4" class="node"><title>src/utils/NumberRange.js</title>
<g id="a_node4"><a xlink:href="src/utils/NumberRange.js" xlink:title="NumberRange.js">
<path fill="#ffffcc" stroke="black" d="M293.5,-290C293.5,-290 211.5,-290 211.5,-290 208.5,-290 205.5,-287 205.5,-284 205.5,-284 205.5,-278 205.5,-278 205.5,-275 208.5,-272 211.5,-272 211.5,-272 293.5,-272 293.5,-272 296.5,-272 299.5,-275 299.5,-278 299.5,-278 299.5,-284 299.5,-284 299.5,-287 296.5,-290 293.5,-290"/>
<text text-anchor="middle" x="252.5" y="-278.8" font-family="Helvetica,sans-Serif" font-size="9.00">NumberRange.js</text>
</a>
</g>
</g>
<!-- src/utils/NumberRange.js&#45;&gt;node_modules/immutable/dist/immutable.js -->
<g id="edge1" class="edge"><title>src/utils/NumberRange.js&#45;&gt;node_modules/immutable/dist/immutable.js</title>
<path fill="none" stroke="#000000" stroke-width="2" stroke-opacity="0.466667" d="M299.556,-277.225C306.172,-274.807 312.313,-271.23 317,-266 326.712,-255.161 320.214,-214.744 325,-201 335.97,-169.499 357.924,-137.313 372.284,-118.251"/>
<polygon fill="#000000" fill-opacity="0.466667" stroke="#000000" stroke-width="2" stroke-opacity="0.466667" points="375.128,-120.294 378.461,-110.237 369.584,-116.02 375.128,-120.294"/>
</g>
<!-- src/utils/NumberRange.test.js -->
<g id="node5" class="node"><title>src/utils/NumberRange.test.js</title>
<g id="a_node5"><a xlink:href="src/utils/NumberRange.test.js" xlink:title="NumberRange.test.js">
<path fill="#ffffcc" stroke="black" d="M151.5,-290C151.5,-290 47.5,-290 47.5,-290 44.5,-290 41.5,-287 41.5,-284 41.5,-284 41.5,-278 41.5,-278 41.5,-275 44.5,-272 47.5,-272 47.5,-272 151.5,-272 151.5,-272 154.5,-272 157.5,-275 157.5,-278 157.5,-278 157.5,-284 157.5,-284 157.5,-287 154.5,-290 151.5,-290"/>
<text text-anchor="middle" x="99.5" y="-278.8" font-family="Helvetica,sans-Serif" font-size="9.00">NumberRange.test.js</text>
</a>
</g>
</g>
<!-- src/utils/NumberRange.test.js&#45;&gt;src/utils/NumberRange.js -->
<g id="edge2" class="edge"><title>src/utils/NumberRange.test.js&#45;&gt;src/utils/NumberRange.js</title>
<path fill="none" stroke="#000000" stroke-width="2" stroke-opacity="0.466667" d="M157.587,-281C169.853,-281 182.81,-281 195.052,-281"/>
<polygon fill="#000000" fill-opacity="0.466667" stroke="#000000" stroke-width="2" stroke-opacity="0.466667" points="195.137,-284.5 205.137,-281 195.137,-277.5 195.137,-284.5"/>
</g>
<!-- src/utils/NumberRangeRegistry.js -->
<g id="node6" class="node"><title>src/utils/NumberRangeRegistry.js</title>
<g id="a_node6"><a xlink:href="src/utils/NumberRangeRegistry.js" xlink:title="NumberRangeRegistry.js">
<path fill="#ffffcc" stroke="black" d="M311,-320C311,-320 194,-320 194,-320 191,-320 188,-317 188,-314 188,-314 188,-308 188,-308 188,-305 191,-302 194,-302 194,-302 311,-302 311,-302 314,-302 317,-305 317,-308 317,-308 317,-314 317,-314 317,-317 314,-320 311,-320"/>
<text text-anchor="middle" x="252.5" y="-308.8" font-family="Helvetica,sans-Serif" font-size="9.00">NumberRangeRegistry.js</text>
</a>
</g>
</g>
<!-- src/utils/NumberRangeRegistry.js&#45;&gt;node_modules/immutable/dist/immutable.js -->
<g id="edge4" class="edge"><title>src/utils/NumberRangeRegistry.js&#45;&gt;node_modules/immutable/dist/immutable.js</title>
<path fill="none" stroke="#000000" stroke-width="2" stroke-opacity="0.466667" d="M310.511,-301.835C312.89,-300.163 315.077,-298.231 317,-296 330.832,-279.953 318.419,-221.138 325,-201 335.362,-169.294 357.487,-137.165 372.048,-118.172"/>
<polygon fill="#000000" fill-opacity="0.466667" stroke="#000000" stroke-width="2" stroke-opacity="0.466667" points="374.894,-120.215 378.321,-110.19 369.39,-115.89 374.894,-120.215"/>
</g>
<!-- src/utils/general.js -->
<g id="node14" class="node"><title>src/utils/general.js</title>
<g id="a_node14"><a xlink:href="src/utils/general.js" xlink:title="general.js">
<path fill="#ffffcc" stroke="black" d="M412.5,-350C412.5,-350 361.5,-350 361.5,-350 358.5,-350 355.5,-347 355.5,-344 355.5,-344 355.5,-338 355.5,-338 355.5,-335 358.5,-332 361.5,-332 361.5,-332 412.5,-332 412.5,-332 415.5,-332 418.5,-335 418.5,-338 418.5,-338 418.5,-344 418.5,-344 418.5,-347 415.5,-350 412.5,-350"/>
<text text-anchor="middle" x="387" y="-338.8" font-family="Helvetica,sans-Serif" font-size="9.00">general.js</text>
</a>
</g>
</g>
<!-- src/utils/NumberRangeRegistry.js&#45;&gt;src/utils/general.js -->
<g id="edge3" class="edge"><title>src/utils/NumberRangeRegistry.js&#45;&gt;src/utils/general.js</title>
<path fill="none" stroke="#000000" stroke-width="2" stroke-opacity="0.466667" d="M293.254,-320.001C309.667,-323.717 328.678,-328.021 345.198,-331.762"/>
<polygon fill="#000000" fill-opacity="0.466667" stroke="#000000" stroke-width="2" stroke-opacity="0.466667" points="344.591,-335.213 355.118,-334.008 346.137,-328.386 344.591,-335.213"/>
</g>
<!-- src/utils/NumberRangeRegistry.test.js -->
<g id="node7" class="node"><title>src/utils/NumberRangeRegistry.test.js</title>
<g id="a_node7"><a xlink:href="src/utils/NumberRangeRegistry.test.js" xlink:title="NumberRangeRegistry.test.js">
<path fill="#ffffcc" stroke="black" d="M169,-350C169,-350 30,-350 30,-350 27,-350 24,-347 24,-344 24,-344 24,-338 24,-338 24,-335 27,-332 30,-332 30,-332 169,-332 169,-332 172,-332 175,-335 175,-338 175,-338 175,-344 175,-344 175,-347 172,-350 169,-350"/>
<text text-anchor="middle" x="99.5" y="-338.8" font-family="Helvetica,sans-Serif" font-size="9.00">NumberRangeRegistry.test.js</text>
</a>
</g>
</g>
<!-- src/utils/NumberRangeRegistry.test.js&#45;&gt;src/utils/NumberRange.js -->
<g id="edge5" class="edge"><title>src/utils/NumberRangeRegistry.test.js&#45;&gt;src/utils/NumberRange.js</title>
<path fill="none" stroke="#000000" stroke-width="2" stroke-opacity="0.466667" d="M166.041,-331.844C169.217,-330.176 172.231,-328.241 175,-326 186.297,-316.86 176.857,-305.327 188,-296 190.44,-293.957 193.11,-292.182 195.929,-290.641"/>
<polygon fill="#000000" fill-opacity="0.466667" stroke="#000000" stroke-width="2" stroke-opacity="0.466667" points="197.617,-293.721 205.343,-286.471 194.782,-287.321 197.617,-293.721"/>
</g>
<!-- src/utils/NumberRangeRegistry.test.js&#45;&gt;src/utils/NumberRangeRegistry.js -->
<g id="edge6" class="edge"><title>src/utils/NumberRangeRegistry.test.js&#45;&gt;src/utils/NumberRangeRegistry.js</title>
<path fill="none" stroke="#000000" stroke-width="2" stroke-opacity="0.466667" d="M145.805,-331.999C161.56,-328.869 179.415,-325.322 195.906,-322.045"/>
<polygon fill="#000000" fill-opacity="0.466667" stroke="#000000" stroke-width="2" stroke-opacity="0.466667" points="196.84,-325.428 205.966,-320.046 195.476,-318.562 196.84,-325.428"/>
</g>
<!-- src/utils/bytes.js -->
<g id="node8" class="node"><title>src/utils/bytes.js</title>
<g id="a_node8"><a xlink:href="src/utils/bytes.js" xlink:title="bytes.js">
<path fill="#ffffcc" stroke="black" d="M273.5,-230C273.5,-230 231.5,-230 231.5,-230 228.5,-230 225.5,-227 225.5,-224 225.5,-224 225.5,-218 225.5,-218 225.5,-215 228.5,-212 231.5,-212 231.5,-212 273.5,-212 273.5,-212 276.5,-212 279.5,-215 279.5,-218 279.5,-218 279.5,-224 279.5,-224 279.5,-227 276.5,-230 273.5,-230"/>
<text text-anchor="middle" x="252.5" y="-218.8" font-family="Helvetica,sans-Serif" font-size="9.00">bytes.js</text>
</a>
</g>
</g>
<!-- src/utils/bytes.test.js -->
<g id="node9" class="node"><title>src/utils/bytes.test.js</title>
<g id="a_node9"><a xlink:href="src/utils/bytes.test.js" xlink:title="bytes.test.js">
<path fill="#ffffcc" stroke="black" d="M130.5,-230C130.5,-230 68.5,-230 68.5,-230 65.5,-230 62.5,-227 62.5,-224 62.5,-224 62.5,-218 62.5,-218 62.5,-215 65.5,-212 68.5,-212 68.5,-212 130.5,-212 130.5,-212 133.5,-212 136.5,-215 136.5,-218 136.5,-218 136.5,-224 136.5,-224 136.5,-227 133.5,-230 130.5,-230"/>
<text text-anchor="middle" x="99.5" y="-218.8" font-family="Helvetica,sans-Serif" font-size="9.00">bytes.test.js</text>
</a>
</g>
</g>
<!-- src/utils/bytes.test.js&#45;&gt;src/utils/bytes.js -->
<g id="edge7" class="edge"><title>src/utils/bytes.test.js&#45;&gt;src/utils/bytes.js</title>
<path fill="none" stroke="#000000" stroke-width="2" stroke-opacity="0.466667" d="M136.668,-221C160.381,-221 191.276,-221 215.046,-221"/>
<polygon fill="#000000" fill-opacity="0.466667" stroke="#000000" stroke-width="2" stroke-opacity="0.466667" points="215.084,-224.5 225.084,-221 215.084,-217.5 215.084,-224.5"/>
</g>
<!-- src/utils/errors.js -->
<g id="node10" class="node"><title>src/utils/errors.js</title>
<g id="a_node10"><a xlink:href="src/utils/errors.js" xlink:title="errors.js">
<path fill="#ffffcc" stroke="black" d="M274.5,-260C274.5,-260 230.5,-260 230.5,-260 227.5,-260 224.5,-257 224.5,-254 224.5,-254 224.5,-248 224.5,-248 224.5,-245 227.5,-242 230.5,-242 230.5,-242 274.5,-242 274.5,-242 277.5,-242 280.5,-245 280.5,-248 280.5,-248 280.5,-254 280.5,-254 280.5,-257 277.5,-260 274.5,-260"/>
<text text-anchor="middle" x="252.5" y="-248.8" font-family="Helvetica,sans-Serif" font-size="9.00">errors.js</text>
</a>
</g>
</g>
<!-- src/utils/errors.test.js -->
<g id="node11" class="node"><title>src/utils/errors.test.js</title>
<g id="a_node11"><a xlink:href="src/utils/errors.test.js" xlink:title="errors.test.js">
<path fill="#ffffcc" stroke="black" d="M132,-260C132,-260 67,-260 67,-260 64,-260 61,-257 61,-254 61,-254 61,-248 61,-248 61,-245 64,-242 67,-242 67,-242 132,-242 132,-242 135,-242 138,-245 138,-248 138,-248 138,-254 138,-254 138,-257 135,-260 132,-260"/>
<text text-anchor="middle" x="99.5" y="-248.8" font-family="Helvetica,sans-Serif" font-size="9.00">errors.test.js</text>
</a>
</g>
</g>
<!-- src/utils/errors.test.js&#45;&gt;src/utils/errors.js -->
<g id="edge8" class="edge"><title>src/utils/errors.test.js&#45;&gt;src/utils/errors.js</title>
<path fill="none" stroke="#000000" stroke-width="2" stroke-opacity="0.466667" d="M138.214,-251C161.394,-251 190.977,-251 214.099,-251"/>
<polygon fill="#000000" fill-opacity="0.466667" stroke="#000000" stroke-width="2" stroke-opacity="0.466667" points="214.222,-254.5 224.222,-251 214.222,-247.5 214.222,-254.5"/>
</g>
<!-- src/utils/events.js -->
<g id="node12" class="node"><title>src/utils/events.js</title>
<g id="a_node12"><a xlink:href="src/utils/events.js" xlink:title="events.js">
<path fill="#ffffcc" stroke="black" d="M276,-394C276,-394 229,-394 229,-394 226,-394 223,-391 223,-388 223,-388 223,-382 223,-382 223,-379 226,-376 229,-376 229,-376 276,-376 276,-376 279,-376 282,-379 282,-382 282,-382 282,-388 282,-388 282,-391 279,-394 276,-394"/>
<text text-anchor="middle" x="252.5" y="-382.8" font-family="Helvetica,sans-Serif" font-size="9.00">events.js</text>
</a>
</g>
</g>
<!-- src/utils/events.test.js -->
<g id="node13" class="node"><title>src/utils/events.test.js</title>
<g id="a_node13"><a xlink:href="src/utils/events.test.js" xlink:title="events.test.js">
<path fill="#ffffcc" stroke="black" d="M133.5,-394C133.5,-394 65.5,-394 65.5,-394 62.5,-394 59.5,-391 59.5,-388 59.5,-388 59.5,-382 59.5,-382 59.5,-379 62.5,-376 65.5,-376 65.5,-376 133.5,-376 133.5,-376 136.5,-376 139.5,-379 139.5,-382 139.5,-382 139.5,-388 139.5,-388 139.5,-391 136.5,-394 133.5,-394"/>
<text text-anchor="middle" x="99.5" y="-382.8" font-family="Helvetica,sans-Serif" font-size="9.00">events.test.js</text>
</a>
</g>
</g>
<!-- src/utils/events.test.js&#45;&gt;src/testUtils.js -->
<g id="edge9" class="edge"><title>src/utils/events.test.js&#45;&gt;src/testUtils.js</title>
<path fill="none" stroke="#000000" stroke-width="2" stroke-opacity="0.466667" d="M139.599,-392.121C193.114,-401.868 288.794,-419.295 343.856,-429.324"/>
<polygon fill="#000000" fill-opacity="0.466667" stroke="#000000" stroke-width="2" stroke-opacity="0.466667" points="343.509,-432.818 353.974,-431.167 344.763,-425.932 343.509,-432.818"/>
</g>
<!-- src/utils/events.test.js&#45;&gt;src/utils/events.js -->
<g id="edge10" class="edge"><title>src/utils/events.test.js&#45;&gt;src/utils/events.js</title>
<path fill="none" stroke="#000000" stroke-width="2" stroke-opacity="0.466667" d="M139.779,-385C162.26,-385 190.354,-385 212.746,-385"/>
<polygon fill="#000000" fill-opacity="0.466667" stroke="#000000" stroke-width="2" stroke-opacity="0.466667" points="212.911,-388.5 222.911,-385 212.911,-381.5 212.911,-388.5"/>
</g>
<!-- src/utils/general.test.js -->
<g id="node15" class="node"><title>src/utils/general.test.js</title>
<g id="a_node15"><a xlink:href="src/utils/general.test.js" xlink:title="general.test.js">
<path fill="#ffffcc" stroke="black" d="M289,-350C289,-350 216,-350 216,-350 213,-350 210,-347 210,-344 210,-344 210,-338 210,-338 210,-335 213,-332 216,-332 216,-332 289,-332 289,-332 292,-332 295,-335 295,-338 295,-338 295,-344 295,-344 295,-347 292,-350 289,-350"/>
<text text-anchor="middle" x="252.5" y="-338.8" font-family="Helvetica,sans-Serif" font-size="9.00">general.test.js</text>
</a>
</g>
</g>
<!-- src/utils/general.test.js&#45;&gt;node_modules/immutable/dist/immutable.js -->
<g id="edge13" class="edge"><title>src/utils/general.test.js&#45;&gt;node_modules/immutable/dist/immutable.js</title>
<path fill="none" stroke="#000000" stroke-width="2" stroke-opacity="0.466667" d="M295.294,-338.936C303.592,-336.571 311.445,-332.577 317,-326 325.98,-315.368 320.81,-214.272 325,-201 335.043,-169.192 357.258,-137.092 371.925,-118.132"/>
<polygon fill="#000000" fill-opacity="0.466667" stroke="#000000" stroke-width="2" stroke-opacity="0.466667" points="374.772,-120.175 378.247,-110.166 369.289,-115.823 374.772,-120.175"/>
</g>
<!-- src/utils/general.test.js&#45;&gt;node_modules/lodash/lodash.js -->
<g id="edge14" class="edge"><title>src/utils/general.test.js&#45;&gt;node_modules/lodash/lodash.js</title>
<path fill="none" stroke="#000000" stroke-width="2" stroke-opacity="0.466667" d="M295.12,-339.156C303.531,-336.797 311.477,-332.751 317,-326 334.247,-304.92 312.704,-105.303 325,-81 332.196,-66.7763 345.766,-55.4489 358.283,-47.3781"/>
<polygon fill="#000000" fill-opacity="0.466667" stroke="#000000" stroke-width="2" stroke-opacity="0.466667" points="360.333,-50.2299 367.105,-42.082 356.73,-44.2283 360.333,-50.2299"/>
</g>
<!-- src/utils/general.test.js&#45;&gt;src/testUtils.js -->
<g id="edge11" class="edge"><title>src/utils/general.test.js&#45;&gt;src/testUtils.js</title>
<path fill="none" stroke="#000000" stroke-width="2" stroke-opacity="0.466667" d="M289.031,-350.075C299.536,-354.443 310.068,-360.807 317,-370 331.343,-389.021 308.805,-405.529 325,-423 330.078,-428.478 336.828,-432.024 343.986,-434.28"/>
<polygon fill="#000000" fill-opacity="0.466667" stroke="#000000" stroke-width="2" stroke-opacity="0.466667" points="343.344,-437.724 353.881,-436.617 344.953,-430.912 343.344,-437.724"/>
</g>
<!-- src/utils/general.test.js&#45;&gt;src/utils/general.js -->
<g id="edge12" class="edge"><title>src/utils/general.test.js&#45;&gt;src/utils/general.js</title>
<path fill="none" stroke="#000000" stroke-width="2" stroke-opacity="0.466667" d="M295.06,-341C310.998,-341 329.161,-341 345.042,-341"/>
<polygon fill="#000000" fill-opacity="0.466667" stroke="#000000" stroke-width="2" stroke-opacity="0.466667" points="345.102,-344.5 355.102,-341 345.102,-337.5 345.102,-344.5"/>
</g>
<!-- src/utils/index.js -->
<g id="node16" class="node"><title>src/utils/index.js</title>
<g id="a_node16"><a xlink:href="src/utils/index.js" xlink:title="index.js">
<path fill="#ffffcc" stroke="black" d="M120.5,-320C120.5,-320 78.5,-320 78.5,-320 75.5,-320 72.5,-317 72.5,-314 72.5,-314 72.5,-308 72.5,-308 72.5,-305 75.5,-302 78.5,-302 78.5,-302 120.5,-302 120.5,-302 123.5,-302 126.5,-305 126.5,-308 126.5,-308 126.5,-314 126.5,-314 126.5,-317 123.5,-320 120.5,-320"/>
<text text-anchor="middle" x="99.5" y="-308.8" font-family="Helvetica,sans-Serif" font-size="9.00">index.js</text>
</a>
</g>
</g>
<!-- src/utils/index.js&#45;&gt;src/utils/NumberRange.js -->
<g id="edge19" class="edge"><title>src/utils/index.js&#45;&gt;src/utils/NumberRange.js</title>
<path fill="none" stroke="#000000" stroke-width="2" stroke-opacity="0.466667" d="M126.802,-305.774C145.877,-301.985 172.374,-296.72 196.039,-292.019"/>
<polygon fill="#000000" fill-opacity="0.466667" stroke="#000000" stroke-width="2" stroke-opacity="0.466667" points="196.851,-295.426 205.977,-290.044 195.487,-288.56 196.851,-295.426"/>
</g>
<!-- src/utils/index.js&#45;&gt;src/utils/NumberRangeRegistry.js -->
<g id="edge20" class="edge"><title>src/utils/index.js&#45;&gt;src/utils/NumberRangeRegistry.js</title>
<path fill="none" stroke="#000000" stroke-width="2" stroke-opacity="0.466667" d="M126.802,-311C141.061,-311 159.467,-311 177.737,-311"/>
<polygon fill="#000000" fill-opacity="0.466667" stroke="#000000" stroke-width="2" stroke-opacity="0.466667" points="177.845,-314.5 187.845,-311 177.845,-307.5 177.845,-314.5"/>
</g>
<!-- src/utils/index.js&#45;&gt;src/utils/bytes.js -->
<g id="edge15" class="edge"><title>src/utils/index.js&#45;&gt;src/utils/bytes.js</title>
<path fill="none" stroke="#000000" stroke-width="2" stroke-opacity="0.466667" d="M126.553,-312.482C142.586,-311.937 162.407,-308.409 175,-296 194.435,-276.848 168.887,-255.472 188,-236 195.261,-228.603 205.443,-224.578 215.531,-222.458"/>
<polygon fill="#000000" fill-opacity="0.466667" stroke="#000000" stroke-width="2" stroke-opacity="0.466667" points="216.129,-225.908 225.476,-220.92 215.059,-218.99 216.129,-225.908"/>
</g>
<!-- src/utils/index.js&#45;&gt;src/utils/errors.js -->
<g id="edge16" class="edge"><title>src/utils/index.js&#45;&gt;src/utils/errors.js</title>
<path fill="none" stroke="#000000" stroke-width="2" stroke-opacity="0.466667" d="M126.83,-311.54C142.37,-310.545 161.564,-306.872 175,-296 186.297,-286.86 176.857,-275.327 188,-266 195.4,-259.806 204.906,-256.073 214.298,-253.85"/>
<polygon fill="#000000" fill-opacity="0.466667" stroke="#000000" stroke-width="2" stroke-opacity="0.466667" points="215.146,-257.252 224.339,-251.984 213.868,-250.37 215.146,-257.252"/>
</g>
<!-- src/utils/index.js&#45;&gt;src/utils/events.js -->
<g id="edge17" class="edge"><title>src/utils/index.js&#45;&gt;src/utils/events.js</title>
<path fill="none" stroke="#000000" stroke-width="2" stroke-opacity="0.466667" d="M126.523,-309.946C142.34,-310.691 161.938,-314.282 175,-326 189.229,-338.765 174.276,-353.693 188,-367 194.827,-373.619 203.9,-377.839 213.046,-380.518"/>
<polygon fill="#000000" fill-opacity="0.466667" stroke="#000000" stroke-width="2" stroke-opacity="0.466667" points="212.358,-383.952 222.896,-382.863 213.978,-377.142 212.358,-383.952"/>
</g>
<!-- src/utils/index.js&#45;&gt;src/utils/general.js -->
<g id="edge18" class="edge"><title>src/utils/index.js&#45;&gt;src/utils/general.js</title>
<path fill="none" stroke="#000000" stroke-width="2" stroke-opacity="0.466667" d="M126.83,-310.46C142.37,-311.455 161.564,-315.128 175,-326 186.297,-335.14 175.853,-348.025 188,-356 211.964,-371.733 288.548,-359.503 317,-356 320.638,-355.552 321.429,-354.827 325,-354 331.592,-352.474 338.599,-350.919 345.428,-349.439"/>
<polygon fill="#000000" fill-opacity="0.466667" stroke="#000000" stroke-width="2" stroke-opacity="0.466667" points="346.19,-352.855 355.234,-347.337 344.723,-346.011 346.19,-352.855"/>
</g>
</g>
</svg>
