<?xml version="1.0" encoding="UTF-8" standalone="no"?>
<!DOCTYPE svg PUBLIC "-//W3C//DTD SVG 1.1//EN"
 "http://www.w3.org/Graphics/SVG/1.1/DTD/svg11.dtd">
<!-- Generated by graphviz version 2.38.0 (20140413.2041)
 -->
<!-- Title: dependency&#45;cruiser output Pages: 1 -->
<svg width="352pt" height="534pt"
 viewBox="0.00 0.00 352.00 534.00" xmlns="http://www.w3.org/2000/svg" xmlns:xlink="http://www.w3.org/1999/xlink">
<g id="graph0" class="graph" transform="scale(1 1) rotate(0) translate(4 530)">
<title>dependency&#45;cruiser output</title>
<polygon fill="white" stroke="none" points="-4,4 -4,-530 348,-530 348,4 -4,4"/>
<g id="clust1" class="cluster"><title>cluster_node_modules</title>
<path fill="#ffffff" stroke="black" stroke-width="2" d="M204.5,-8C204.5,-8 304.5,-8 304.5,-8 310.5,-8 316.5,-14 316.5,-20 316.5,-20 316.5,-176 316.5,-176 316.5,-182 310.5,-188 304.5,-188 304.5,-188 204.5,-188 204.5,-188 198.5,-188 192.5,-182 192.5,-176 192.5,-176 192.5,-20 192.5,-20 192.5,-14 198.5,-8 204.5,-8"/>
<text text-anchor="middle" x="254.5" y="-176.8" font-family="Helvetica,sans-Serif" font-weight="bold" font-size="9.00">node_modules</text>
</g>
<g id="clust2" class="cluster"><title>cluster_node_modules/immutable</title>
<path fill="#ffffff" stroke="black" stroke-width="2" d="M212.5,-76C212.5,-76 296.5,-76 296.5,-76 302.5,-76 308.5,-82 308.5,-88 308.5,-88 308.5,-150 308.5,-150 308.5,-156 302.5,-162 296.5,-162 296.5,-162 212.5,-162 212.5,-162 206.5,-162 200.5,-156 200.5,-150 200.5,-150 200.5,-88 200.5,-88 200.5,-82 206.5,-76 212.5,-76"/>
<text text-anchor="middle" x="254.5" y="-150.8" font-family="Helvetica,sans-Serif" font-weight="bold" font-size="9.00">immutable</text>
</g>
<g id="clust3" class="cluster"><title>cluster_node_modules/immutable/dist</title>
<path fill="#ffffff" stroke="black" stroke-width="2" d="M220.5,-84C220.5,-84 288.5,-84 288.5,-84 294.5,-84 300.5,-90 300.5,-96 300.5,-96 300.5,-124 300.5,-124 300.5,-130 294.5,-136 288.5,-136 288.5,-136 220.5,-136 220.5,-136 214.5,-136 208.5,-130 208.5,-124 208.5,-124 208.5,-96 208.5,-96 208.5,-90 214.5,-84 220.5,-84"/>
<text text-anchor="middle" x="254.5" y="-124.8" font-family="Helvetica,sans-Serif" font-weight="bold" font-size="9.00">dist</text>
</g>
<g id="clust4" class="cluster"><title>cluster_node_modules/lodash</title>
<path fill="#ffffff" stroke="black" stroke-width="2" d="M229,-16C229,-16 280,-16 280,-16 286,-16 292,-22 292,-28 292,-28 292,-56 292,-56 292,-62 286,-68 280,-68 280,-68 229,-68 229,-68 223,-68 217,-62 217,-56 217,-56 217,-28 217,-28 217,-22 223,-16 229,-16"/>
<text text-anchor="middle" x="254.5" y="-56.8" font-family="Helvetica,sans-Serif" font-weight="bold" font-size="9.00">lodash</text>
</g>
<g id="clust5" class="cluster"><title>cluster_src</title>
<path fill="#ffffff" stroke="black" stroke-width="2" d="M20,-196C20,-196 324,-196 324,-196 330,-196 336,-202 336,-208 336,-208 336,-506 336,-506 336,-512 330,-518 324,-518 324,-518 20,-518 20,-518 14,-518 8,-512 8,-506 8,-506 8,-208 8,-208 8,-202 14,-196 20,-196"/>
<text text-anchor="middle" x="172" y="-506.8" font-family="Helvetica,sans-Serif" font-weight="bold" font-size="9.00">src</text>
</g>
<g id="clust6" class="cluster"><title>cluster_src/utils</title>
<path fill="#ffffff" stroke="black" stroke-width="2" d="M28,-204C28,-204 316,-204 316,-204 322,-204 328,-210 328,-216 328,-216 328,-454 328,-454 328,-460 322,-466 316,-466 316,-466 28,-466 28,-466 22,-466 16,-460 16,-454 16,-454 16,-216 16,-216 16,-210 22,-204 28,-204"/>
<text text-anchor="middle" x="172" y="-454.8" font-family="Helvetica,sans-Serif" font-weight="bold" font-size="9.00">utils</text>
</g>
<!-- node_modules/immutable/dist/immutable.js -->
<g id="node1" class="node"><title>node_modules/immutable/dist/immutable.js</title>
<g id="a_node1"><a xlink:href="node_modules/immutable/dist/immutable.js" xlink:title="immutable.js">
<polygon fill="#c40b0a" fill-opacity="0.101961" stroke="black" points="292.5,-110 291,-112 280.5,-112 279,-110 216.5,-110 216.5,-92 292.5,-92 292.5,-110"/>
<text text-anchor="middle" x="254.5" y="-98.8" font-family="Helvetica,sans-Serif" font-size="9.00" fill="#c40b0a">immutable.js</text>
</a>
</g>
</g>
<!-- node_modules/lodash/lodash.js -->
<g id="node2" class="node"><title>node_modules/lodash/lodash.js</title>
<g id="a_node2"><a xlink:href="node_modules/lodash/lodash.js" xlink:title="lodash.js">
<polygon fill="#c40b0a" fill-opacity="0.101961" stroke="black" points="284,-42 282.5,-44 272,-44 270.5,-42 225,-42 225,-24 284,-24 284,-42"/>
<text text-anchor="middle" x="254.5" y="-30.8" font-family="Helvetica,sans-Serif" font-size="9.00" fill="#c40b0a">lodash.js</text>
</a>
</g>
</g>
<!-- src/testUtils.ts -->
<g id="node3" class="node"><title>src/testUtils.ts</title>
<g id="a_node3"><a xlink:href="src/testUtils.ts" xlink:title="testUtils.ts">
<path fill="#ddfeff" stroke="black" d="M282.5,-492C282.5,-492 226.5,-492 226.5,-492 223.5,-492 220.5,-489 220.5,-486 220.5,-486 220.5,-480 220.5,-480 220.5,-477 223.5,-474 226.5,-474 226.5,-474 282.5,-474 282.5,-474 285.5,-474 288.5,-477 288.5,-480 288.5,-480 288.5,-486 288.5,-486 288.5,-489 285.5,-492 282.5,-492"/>
<text text-anchor="middle" x="254.5" y="-480.8" font-family="Helvetica,sans-Serif" font-size="9.00">testUtils.ts</text>
</a>
</g>
</g>
<!-- src/utils/NumberRange.test.ts -->
<g id="node4" class="node"><title>src/utils/NumberRange.test.ts</title>
<g id="a_node4"><a xlink:href="src/utils/NumberRange.test.ts" xlink:title="NumberRange.test.ts">
<path fill="#ddfeff" stroke="black" d="M152.5,-440C152.5,-440 47.5,-440 47.5,-440 44.5,-440 41.5,-437 41.5,-434 41.5,-434 41.5,-428 41.5,-428 41.5,-425 44.5,-422 47.5,-422 47.5,-422 152.5,-422 152.5,-422 155.5,-422 158.5,-425 158.5,-428 158.5,-428 158.5,-434 158.5,-434 158.5,-437 155.5,-440 152.5,-440"/>
<text text-anchor="middle" x="100" y="-428.8" font-family="Helvetica,sans-Serif" font-size="9.00">NumberRange.test.ts</text>
</a>
</g>
</g>
<!-- src/utils/NumberRange.ts -->
<g id="node5" class="node"><title>src/utils/NumberRange.ts</title>
<g id="a_node5"><a xlink:href="src/utils/NumberRange.ts" xlink:title="NumberRange.ts">
<path fill="#ddfeff" stroke="black" d="M296,-410C296,-410 213,-410 213,-410 210,-410 207,-407 207,-404 207,-404 207,-398 207,-398 207,-395 210,-392 213,-392 213,-392 296,-392 296,-392 299,-392 302,-395 302,-398 302,-398 302,-404 302,-404 302,-407 299,-410 296,-410"/>
<text text-anchor="middle" x="254.5" y="-398.8" font-family="Helvetica,sans-Serif" font-size="9.00">NumberRange.ts</text>
</a>
</g>
</g>
<!-- src/utils/NumberRange.test.ts&#45;&gt;src/utils/NumberRange.ts -->
<g id="edge1" class="edge"><title>src/utils/NumberRange.test.ts&#45;&gt;src/utils/NumberRange.ts</title>
<path fill="none" stroke="#000000" stroke-width="2" stroke-opacity="0.200000" d="M146.755,-421.999C162.666,-418.869 180.699,-415.322 197.353,-412.045"/>
<polygon fill="#000000" fill-opacity="0.200000" stroke="#000000" stroke-width="2" stroke-opacity="0.200000" points="198.378,-415.411 207.514,-410.046 197.026,-408.543 198.378,-415.411"/>
</g>
<!-- src/utils/NumberRangeRegistry.test.ts -->
<g id="node6" class="node"><title>src/utils/NumberRangeRegistry.test.ts</title>
<g id="a_node6"><a xlink:href="src/utils/NumberRangeRegistry.test.ts" xlink:title="NumberRangeRegistry.test.ts">
<path fill="#ddfeff" stroke="black" d="M170,-410C170,-410 30,-410 30,-410 27,-410 24,-407 24,-404 24,-404 24,-398 24,-398 24,-395 27,-392 30,-392 30,-392 170,-392 170,-392 173,-392 176,-395 176,-398 176,-398 176,-404 176,-404 176,-407 173,-410 170,-410"/>
<text text-anchor="middle" x="100" y="-398.8" font-family="Helvetica,sans-Serif" font-size="9.00">NumberRangeRegistry.test.ts</text>
</a>
</g>
</g>
<!-- src/utils/NumberRangeRegistry.test.ts&#45;&gt;src/utils/NumberRange.ts -->
<g id="edge2" class="edge"><title>src/utils/NumberRangeRegistry.test.ts&#45;&gt;src/utils/NumberRange.ts</title>
<path fill="none" stroke="#000000" stroke-width="2" stroke-opacity="0.200000" d="M176.356,-401C183.152,-401 189.958,-401 196.556,-401"/>
<polygon fill="#000000" fill-opacity="0.200000" stroke="#000000" stroke-width="2" stroke-opacity="0.200000" points="196.725,-404.5 206.725,-401 196.725,-397.5 196.725,-404.5"/>
</g>
<!-- src/utils/NumberRangeRegistry.ts -->
<g id="node7" class="node"><title>src/utils/NumberRangeRegistry.ts</title>
<g id="a_node7"><a xlink:href="src/utils/NumberRangeRegistry.ts" xlink:title="NumberRangeRegistry.ts">
<path fill="#ddfeff" stroke="black" d="M314,-380C314,-380 195,-380 195,-380 192,-380 189,-377 189,-374 189,-374 189,-368 189,-368 189,-365 192,-362 195,-362 195,-362 314,-362 314,-362 317,-362 320,-365 320,-368 320,-368 320,-374 320,-374 320,-377 317,-380 314,-380"/>
<text text-anchor="middle" x="254.5" y="-368.8" font-family="Helvetica,sans-Serif" font-size="9.00">NumberRangeRegistry.ts</text>
</a>
</g>
</g>
<!-- src/utils/NumberRangeRegistry.test.ts&#45;&gt;src/utils/NumberRangeRegistry.ts -->
<g id="edge3" class="edge"><title>src/utils/NumberRangeRegistry.test.ts&#45;&gt;src/utils/NumberRangeRegistry.ts</title>
<path fill="none" stroke="#000000" stroke-width="2" stroke-opacity="0.200000" d="M146.755,-391.999C162.666,-388.869 180.699,-385.322 197.353,-382.045"/>
<polygon fill="#000000" fill-opacity="0.200000" stroke="#000000" stroke-width="2" stroke-opacity="0.200000" points="198.378,-385.411 207.514,-380.046 197.026,-378.543 198.378,-385.411"/>
</g>
<!-- src/utils/bytes.test.ts -->
<g id="node8" class="node"><title>src/utils/bytes.test.ts</title>
<g id="a_node8"><a xlink:href="src/utils/bytes.test.ts" xlink:title="bytes.test.ts">
<path fill="#ddfeff" stroke="black" d="M132,-260C132,-260 68,-260 68,-260 65,-260 62,-257 62,-254 62,-254 62,-248 62,-248 62,-245 65,-242 68,-242 68,-242 132,-242 132,-242 135,-242 138,-245 138,-248 138,-248 138,-254 138,-254 138,-257 135,-260 132,-260"/>
<text text-anchor="middle" x="100" y="-248.8" font-family="Helvetica,sans-Serif" font-size="9.00">bytes.test.ts</text>
</a>
</g>
</g>
<!-- src/utils/bytes.ts -->
<g id="node9" class="node"><title>src/utils/bytes.ts</title>
<g id="a_node9"><a xlink:href="src/utils/bytes.ts" xlink:title="bytes.ts">
<path fill="#ddfeff" stroke="black" d="M275.5,-260C275.5,-260 233.5,-260 233.5,-260 230.5,-260 227.5,-257 227.5,-254 227.5,-254 227.5,-248 227.5,-248 227.5,-245 230.5,-242 233.5,-242 233.5,-242 275.5,-242 275.5,-242 278.5,-242 281.5,-245 281.5,-248 281.5,-248 281.5,-254 281.5,-254 281.5,-257 278.5,-260 275.5,-260"/>
<text text-anchor="middle" x="254.5" y="-248.8" font-family="Helvetica,sans-Serif" font-size="9.00">bytes.ts</text>
</a>
</g>
</g>
<!-- src/utils/bytes.test.ts&#45;&gt;src/utils/bytes.ts -->
<g id="edge4" class="edge"><title>src/utils/bytes.test.ts&#45;&gt;src/utils/bytes.ts</title>
<path fill="none" stroke="#000000" stroke-width="2" stroke-opacity="0.200000" d="M138.306,-251C162.271,-251 193.252,-251 217.048,-251"/>
<polygon fill="#000000" fill-opacity="0.200000" stroke="#000000" stroke-width="2" stroke-opacity="0.200000" points="217.094,-254.5 227.094,-251 217.094,-247.5 217.094,-254.5"/>
</g>
<!-- src/utils/errors.test.ts -->
<g id="node10" class="node"><title>src/utils/errors.test.ts</title>
<g id="a_node10"><a xlink:href="src/utils/errors.test.ts" xlink:title="errors.test.ts">
<path fill="#ddfeff" stroke="black" d="M133.5,-290C133.5,-290 66.5,-290 66.5,-290 63.5,-290 60.5,-287 60.5,-284 60.5,-284 60.5,-278 60.5,-278 60.5,-275 63.5,-272 66.5,-272 66.5,-272 133.5,-272 133.5,-272 136.5,-272 139.5,-275 139.5,-278 139.5,-278 139.5,-284 139.5,-284 139.5,-287 136.5,-290 133.5,-290"/>
<text text-anchor="middle" x="100" y="-278.8" font-family="Helvetica,sans-Serif" font-size="9.00">errors.test.ts</text>
</a>
</g>
</g>
<!-- src/utils/errors.ts -->
<g id="node11" class="node"><title>src/utils/errors.ts</title>
<g id="a_node11"><a xlink:href="src/utils/errors.ts" xlink:title="errors.ts">
<path fill="#ddfeff" stroke="black" d="M277,-290C277,-290 232,-290 232,-290 229,-290 226,-287 226,-284 226,-284 226,-278 226,-278 226,-275 229,-272 232,-272 232,-272 277,-272 277,-272 280,-272 283,-275 283,-278 283,-278 283,-284 283,-284 283,-287 280,-290 277,-290"/>
<text text-anchor="middle" x="254.5" y="-278.8" font-family="Helvetica,sans-Serif" font-size="9.00">errors.ts</text>
</a>
</g>
</g>
<!-- src/utils/errors.test.ts&#45;&gt;src/utils/errors.ts -->
<g id="edge5" class="edge"><title>src/utils/errors.test.ts&#45;&gt;src/utils/errors.ts</title>
<path fill="none" stroke="#000000" stroke-width="2" stroke-opacity="0.200000" d="M139.877,-281C163.141,-281 192.571,-281 215.65,-281"/>
<polygon fill="#000000" fill-opacity="0.200000" stroke="#000000" stroke-width="2" stroke-opacity="0.200000" points="215.762,-284.5 225.762,-281 215.762,-277.5 215.762,-284.5"/>
</g>
<!-- src/utils/events.test.ts -->
<g id="node12" class="node"><title>src/utils/events.test.ts</title>
<g id="a_node12"><a xlink:href="src/utils/events.test.ts" xlink:title="events.test.ts">
<path fill="#ddfeff" stroke="black" d="M135,-380C135,-380 65,-380 65,-380 62,-380 59,-377 59,-374 59,-374 59,-368 59,-368 59,-365 62,-362 65,-362 65,-362 135,-362 135,-362 138,-362 141,-365 141,-368 141,-368 141,-374 141,-374 141,-377 138,-380 135,-380"/>
<text text-anchor="middle" x="100" y="-368.8" font-family="Helvetica,sans-Serif" font-size="9.00">events.test.ts</text>
</a>
</g>
</g>
<!-- src/utils/events.test.ts&#45;&gt;src/testUtils.ts -->
<g id="edge6" class="edge"><title>src/utils/events.test.ts&#45;&gt;src/testUtils.ts</title>
<path fill="none" stroke="#000000" stroke-width="2" stroke-opacity="0.200000" d="M141.15,-370.354C153.892,-372.207 166.994,-376.607 176,-386 201.842,-412.951 163.379,-441.838 189,-469 194.702,-475.045 202.348,-478.788 210.381,-481.049"/>
<polygon fill="#000000" fill-opacity="0.200000" stroke="#000000" stroke-width="2" stroke-opacity="0.200000" points="209.759,-484.495 220.266,-483.127 211.199,-477.644 209.759,-484.495"/>
</g>
<!-- src/utils/events.ts -->
<g id="node13" class="node"><title>src/utils/events.ts</title>
<g id="a_node13"><a xlink:href="src/utils/events.ts" xlink:title="events.ts">
<path fill="#ddfeff" stroke="black" d="M278.5,-320C278.5,-320 230.5,-320 230.5,-320 227.5,-320 224.5,-317 224.5,-314 224.5,-314 224.5,-308 224.5,-308 224.5,-305 227.5,-302 230.5,-302 230.5,-302 278.5,-302 278.5,-302 281.5,-302 284.5,-305 284.5,-308 284.5,-308 284.5,-314 284.5,-314 284.5,-317 281.5,-320 278.5,-320"/>
<text text-anchor="middle" x="254.5" y="-308.8" font-family="Helvetica,sans-Serif" font-size="9.00">events.ts</text>
</a>
</g>
</g>
<!-- src/utils/events.test.ts&#45;&gt;src/utils/events.ts -->
<g id="edge7" class="edge"><title>src/utils/events.test.ts&#45;&gt;src/utils/events.ts</title>
<path fill="none" stroke="#000000" stroke-width="2" stroke-opacity="0.200000" d="M141.038,-370.072C153.33,-368.038 166.188,-363.929 176,-356 187.302,-346.867 177.841,-335.308 189,-326 196.12,-320.061 205.156,-316.375 214.193,-314.113"/>
<polygon fill="#000000" fill-opacity="0.200000" stroke="#000000" stroke-width="2" stroke-opacity="0.200000" points="215.162,-317.489 224.295,-312.118 213.806,-310.621 215.162,-317.489"/>
</g>
<!-- src/utils/mixins.ts -->
<g id="node18" class="node"><title>src/utils/mixins.ts</title>
<g id="a_node18"><a xlink:href="src/utils/mixins.ts" xlink:title="mixins.ts">
<path fill="#ddfeff" stroke="black" d="M277,-350C277,-350 232,-350 232,-350 229,-350 226,-347 226,-344 226,-344 226,-338 226,-338 226,-335 229,-332 232,-332 232,-332 277,-332 277,-332 280,-332 283,-335 283,-338 283,-338 283,-344 283,-344 283,-347 280,-350 277,-350"/>
<text text-anchor="middle" x="254.5" y="-338.8" font-family="Helvetica,sans-Serif" font-size="9.00">mixins.ts</text>
</a>
</g>
</g>
<!-- src/utils/events.test.ts&#45;&gt;src/utils/mixins.ts -->
<g id="edge8" class="edge"><title>src/utils/events.test.ts&#45;&gt;src/utils/mixins.ts</title>
<path fill="none" stroke="#000000" stroke-width="2" stroke-opacity="0.200000" d="M141.068,-363.118C164.179,-358.571 193.064,-352.889 215.769,-348.423"/>
<polygon fill="#000000" fill-opacity="0.200000" stroke="#000000" stroke-width="2" stroke-opacity="0.200000" points="216.587,-351.829 225.723,-346.464 215.236,-344.96 216.587,-351.829"/>
</g>
<!-- src/utils/general.test.ts -->
<g id="node14" class="node"><title>src/utils/general.test.ts</title>
<g id="a_node14"><a xlink:href="src/utils/general.test.ts" xlink:title="general.test.ts">
<path fill="#ddfeff" stroke="black" d="M137,-230C137,-230 63,-230 63,-230 60,-230 57,-227 57,-224 57,-224 57,-218 57,-218 57,-215 60,-212 63,-212 63,-212 137,-212 137,-212 140,-212 143,-215 143,-218 143,-218 143,-224 143,-224 143,-227 140,-230 137,-230"/>
<text text-anchor="middle" x="100" y="-218.8" font-family="Helvetica,sans-Serif" font-size="9.00">general.test.ts</text>
</a>
</g>
</g>
<!-- src/utils/general.test.ts&#45;&gt;node_modules/immutable/dist/immutable.js -->
<g id="edge11" class="edge"><title>src/utils/general.test.ts&#45;&gt;node_modules/immutable/dist/immutable.js</title>
<path fill="none" stroke="#000000" stroke-width="2" stroke-opacity="0.200000" d="M112.462,-211.98C138.295,-191.653 201.324,-142.057 233.656,-116.615"/>
<polygon fill="#000000" fill-opacity="0.200000" stroke="#000000" stroke-width="2" stroke-opacity="0.200000" points="236.21,-119.059 241.905,-110.124 231.882,-113.558 236.21,-119.059"/>
</g>
<!-- src/utils/general.test.ts&#45;&gt;node_modules/lodash/lodash.js -->
<g id="edge12" class="edge"><title>src/utils/general.test.ts&#45;&gt;node_modules/lodash/lodash.js</title>
<path fill="none" stroke="#000000" stroke-width="2" stroke-opacity="0.200000" d="M105.33,-211.691C116.653,-187.995 149.053,-124.218 189,-81 200.932,-68.091 216.734,-56.2666 229.71,-47.5838"/>
<polygon fill="#000000" fill-opacity="0.200000" stroke="#000000" stroke-width="2" stroke-opacity="0.200000" points="231.678,-50.4796 238.16,-42.0998 227.867,-44.6078 231.678,-50.4796"/>
</g>
<!-- src/utils/general.test.ts&#45;&gt;src/testUtils.ts -->
<g id="edge9" class="edge"><title>src/utils/general.test.ts&#45;&gt;src/testUtils.ts</title>
<path fill="none" stroke="#000000" stroke-width="2" stroke-opacity="0.200000" d="M143.264,-220.091C155.536,-222.045 167.821,-226.571 176,-236 209.982,-275.173 155.339,-429.551 189,-469 194.56,-475.516 202.372,-479.42 210.647,-481.682"/>
<polygon fill="#000000" fill-opacity="0.200000" stroke="#000000" stroke-width="2" stroke-opacity="0.200000" points="209.975,-485.117 220.467,-483.642 211.345,-478.253 209.975,-485.117"/>
</g>
<!-- src/utils/general.ts -->
<g id="node15" class="node"><title>src/utils/general.ts</title>
<g id="a_node15"><a xlink:href="src/utils/general.ts" xlink:title="general.ts">
<path fill="#ddfeff" stroke="black" d="M281,-230C281,-230 228,-230 228,-230 225,-230 222,-227 222,-224 222,-224 222,-218 222,-218 222,-215 225,-212 228,-212 228,-212 281,-212 281,-212 284,-212 287,-215 287,-218 287,-218 287,-224 287,-224 287,-227 284,-230 281,-230"/>
<text text-anchor="middle" x="254.5" y="-218.8" font-family="Helvetica,sans-Serif" font-size="9.00">general.ts</text>
</a>
</g>
</g>
<!-- src/utils/general.test.ts&#45;&gt;src/utils/general.ts -->
<g id="edge10" class="edge"><title>src/utils/general.test.ts&#45;&gt;src/utils/general.ts</title>
<path fill="none" stroke="#000000" stroke-width="2" stroke-opacity="0.200000" d="M143.075,-221C164.441,-221 190.32,-221 211.653,-221"/>
<polygon fill="#000000" fill-opacity="0.200000" stroke="#000000" stroke-width="2" stroke-opacity="0.200000" points="211.721,-224.5 221.721,-221 211.721,-217.5 211.721,-224.5"/>
</g>
<!-- src/utils/index.ts -->
<g id="node16" class="node"><title>src/utils/index.ts</title>
<g id="a_node16"><a xlink:href="src/utils/index.ts" xlink:title="index.ts">
<path fill="#ddfeff" stroke="black" d="M121,-320C121,-320 79,-320 79,-320 76,-320 73,-317 73,-314 73,-314 73,-308 73,-308 73,-305 76,-302 79,-302 79,-302 121,-302 121,-302 124,-302 127,-305 127,-308 127,-308 127,-314 127,-314 127,-317 124,-320 121,-320"/>
<text text-anchor="middle" x="100" y="-308.8" font-family="Helvetica,sans-Serif" font-size="9.00">index.ts</text>
</a>
</g>
</g>
<!-- src/utils/index.ts&#45;&gt;src/utils/NumberRange.ts -->
<g id="edge18" class="edge"><title>src/utils/index.ts&#45;&gt;src/utils/NumberRange.ts</title>
<path fill="none" stroke="#000000" stroke-width="2" stroke-opacity="0.200000" d="M127.225,-309.469C143.364,-309.994 163.318,-313.519 176,-326 195.447,-345.139 169.853,-366.561 189,-386 191.538,-388.576 194.425,-390.746 197.539,-392.57"/>
<polygon fill="#000000" fill-opacity="0.200000" stroke="#000000" stroke-width="2" stroke-opacity="0.200000" points="196.261,-395.835 206.808,-396.846 199.193,-389.479 196.261,-395.835"/>
</g>
<!-- src/utils/index.ts&#45;&gt;src/utils/NumberRangeRegistry.ts -->
<g id="edge19" class="edge"><title>src/utils/index.ts&#45;&gt;src/utils/NumberRangeRegistry.ts</title>
<path fill="none" stroke="#000000" stroke-width="2" stroke-opacity="0.200000" d="M127.147,-310.394C142.853,-311.34 162.367,-314.983 176,-326 187.302,-335.133 177.841,-346.692 189,-356 189.171,-356.143 189.343,-356.284 189.516,-356.424"/>
<polygon fill="#000000" fill-opacity="0.200000" stroke="#000000" stroke-width="2" stroke-opacity="0.200000" points="187.657,-359.39 197.951,-361.897 191.467,-353.518 187.657,-359.39"/>
</g>
<!-- src/utils/index.ts&#45;&gt;src/utils/bytes.ts -->
<g id="edge13" class="edge"><title>src/utils/index.ts&#45;&gt;src/utils/bytes.ts</title>
<path fill="none" stroke="#000000" stroke-width="2" stroke-opacity="0.200000" d="M127.147,-311.606C142.853,-310.66 162.367,-307.017 176,-296 187.302,-286.867 177.841,-275.308 189,-266 196.946,-259.372 207.277,-255.551 217.334,-253.382"/>
<polygon fill="#000000" fill-opacity="0.200000" stroke="#000000" stroke-width="2" stroke-opacity="0.200000" points="217.921,-256.832 227.201,-251.72 216.758,-249.929 217.921,-256.832"/>
</g>
<!-- src/utils/index.ts&#45;&gt;src/utils/errors.ts -->
<g id="edge14" class="edge"><title>src/utils/index.ts&#45;&gt;src/utils/errors.ts</title>
<path fill="none" stroke="#000000" stroke-width="2" stroke-opacity="0.200000" d="M127.216,-305.843C151.606,-301.045 188.226,-293.841 215.761,-288.424"/>
<polygon fill="#000000" fill-opacity="0.200000" stroke="#000000" stroke-width="2" stroke-opacity="0.200000" points="216.688,-291.809 225.825,-286.444 215.337,-284.94 216.688,-291.809"/>
</g>
<!-- src/utils/index.ts&#45;&gt;src/utils/events.ts -->
<g id="edge15" class="edge"><title>src/utils/index.ts&#45;&gt;src/utils/events.ts</title>
<path fill="none" stroke="#000000" stroke-width="2" stroke-opacity="0.200000" d="M127.216,-311C151.153,-311 186.87,-311 214.217,-311"/>
<polygon fill="#000000" fill-opacity="0.200000" stroke="#000000" stroke-width="2" stroke-opacity="0.200000" points="214.247,-314.5 224.247,-311 214.247,-307.5 214.247,-314.5"/>
</g>
<!-- src/utils/index.ts&#45;&gt;src/utils/general.ts -->
<g id="edge16" class="edge"><title>src/utils/index.ts&#45;&gt;src/utils/general.ts</title>
<path fill="none" stroke="#000000" stroke-width="2" stroke-opacity="0.200000" d="M127.225,-312.531C143.364,-312.006 163.318,-308.481 176,-296 195.447,-276.861 169.853,-255.439 189,-236 195.147,-229.76 203.347,-225.905 211.835,-223.569"/>
<polygon fill="#000000" fill-opacity="0.200000" stroke="#000000" stroke-width="2" stroke-opacity="0.200000" points="212.758,-226.952 221.825,-221.472 211.32,-220.101 212.758,-226.952"/>
</g>
<!-- src/utils/index.ts&#45;&gt;src/utils/mixins.ts -->
<g id="edge17" class="edge"><title>src/utils/index.ts&#45;&gt;src/utils/mixins.ts</title>
<path fill="none" stroke="#000000" stroke-width="2" stroke-opacity="0.200000" d="M127.216,-316.157C151.606,-320.955 188.226,-328.159 215.761,-333.576"/>
<polygon fill="#000000" fill-opacity="0.200000" stroke="#000000" stroke-width="2" stroke-opacity="0.200000" points="215.337,-337.06 225.825,-335.556 216.688,-330.191 215.337,-337.06"/>
</g>
<!-- src/utils/mixins.test.ts -->
<g id="node17" class="node"><title>src/utils/mixins.test.ts</title>
<g id="a_node17"><a xlink:href="src/utils/mixins.test.ts" xlink:title="mixins.test.ts">
<path fill="#ddfeff" stroke="black" d="M133.5,-350C133.5,-350 66.5,-350 66.5,-350 63.5,-350 60.5,-347 60.5,-344 60.5,-344 60.5,-338 60.5,-338 60.5,-335 63.5,-332 66.5,-332 66.5,-332 133.5,-332 133.5,-332 136.5,-332 139.5,-335 139.5,-338 139.5,-338 139.5,-344 139.5,-344 139.5,-347 136.5,-350 133.5,-350"/>
<text text-anchor="middle" x="100" y="-338.8" font-family="Helvetica,sans-Serif" font-size="9.00">mixins.test.ts</text>
</a>
</g>
</g>
<!-- src/utils/mixins.test.ts&#45;&gt;src/utils/mixins.ts -->
<g id="edge20" class="edge"><title>src/utils/mixins.test.ts&#45;&gt;src/utils/mixins.ts</title>
<path fill="none" stroke="#000000" stroke-width="2" stroke-opacity="0.200000" d="M139.877,-341C163.141,-341 192.571,-341 215.65,-341"/>
<polygon fill="#000000" fill-opacity="0.200000" stroke="#000000" stroke-width="2" stroke-opacity="0.200000" points="215.762,-344.5 225.762,-341 215.762,-337.5 215.762,-344.5"/>
</g>
</g>
</svg>
