<?xml version="1.0" encoding="UTF-8" standalone="no"?>
<!DOCTYPE svg PUBLIC "-//W3C//DTD SVG 1.1//EN"
 "http://www.w3.org/Graphics/SVG/1.1/DTD/svg11.dtd">
<!-- Generated by graphviz version 2.38.0 (20140413.2041)
 -->
<!-- Title: dependency&#45;cruiser output Pages: 1 -->
<svg width="465pt" height="428pt"
 viewBox="0.00 0.00 465.00 428.00" xmlns="http://www.w3.org/2000/svg" xmlns:xlink="http://www.w3.org/1999/xlink">
<g id="graph0" class="graph" transform="scale(1 1) rotate(0) translate(4 424)">
<title>dependency&#45;cruiser output</title>
<polygon fill="white" stroke="none" points="-4,4 -4,-424 461,-424 461,4 -4,4"/>
<g id="clust1" class="cluster"><title>cluster_node_modules</title>
<path fill="#ffffff" stroke="black" stroke-width="2" d="M337,-8C337,-8 437,-8 437,-8 443,-8 449,-14 449,-20 449,-20 449,-116 449,-116 449,-122 443,-128 437,-128 437,-128 337,-128 337,-128 331,-128 325,-122 325,-116 325,-116 325,-20 325,-20 325,-14 331,-8 337,-8"/>
<text text-anchor="middle" x="387" y="-116.8" font-family="Helvetica,sans-Serif" font-weight="bold" font-size="9.00">node_modules</text>
</g>
<g id="clust2" class="cluster"><title>cluster_node_modules/immutable</title>
<path fill="#ffffff" stroke="black" stroke-width="2" d="M345,-16C345,-16 429,-16 429,-16 435,-16 441,-22 441,-28 441,-28 441,-90 441,-90 441,-96 435,-102 429,-102 429,-102 345,-102 345,-102 339,-102 333,-96 333,-90 333,-90 333,-28 333,-28 333,-22 339,-16 345,-16"/>
<text text-anchor="middle" x="387" y="-90.8" font-family="Helvetica,sans-Serif" font-weight="bold" font-size="9.00">immutable</text>
</g>
<g id="clust3" class="cluster"><title>cluster_node_modules/immutable/dist</title>
<path fill="#ffffff" stroke="black" stroke-width="2" d="M353,-24C353,-24 421,-24 421,-24 427,-24 433,-30 433,-36 433,-36 433,-64 433,-64 433,-70 427,-76 421,-76 421,-76 353,-76 353,-76 347,-76 341,-70 341,-64 341,-64 341,-36 341,-36 341,-30 347,-24 353,-24"/>
<text text-anchor="middle" x="387" y="-64.8" font-family="Helvetica,sans-Serif" font-weight="bold" font-size="9.00">dist</text>
</g>
<g id="clust4" class="cluster"><title>cluster_src</title>
<path fill="#ffffff" stroke="black" stroke-width="2" d="M20,-136C20,-136 422.5,-136 422.5,-136 428.5,-136 434.5,-142 434.5,-148 434.5,-148 434.5,-400 434.5,-400 434.5,-406 428.5,-412 422.5,-412 422.5,-412 20,-412 20,-412 14,-412 8,-406 8,-400 8,-400 8,-148 8,-148 8,-142 14,-136 20,-136"/>
<text text-anchor="middle" x="221.25" y="-400.8" font-family="Helvetica,sans-Serif" font-weight="bold" font-size="9.00">src</text>
</g>
<g id="clust5" class="cluster"><title>cluster_src/utils</title>
<path fill="#ffffff" stroke="black" stroke-width="2" d="M28,-144C28,-144 414.5,-144 414.5,-144 420.5,-144 426.5,-150 426.5,-156 426.5,-156 426.5,-348 426.5,-348 426.5,-354 420.5,-360 414.5,-360 414.5,-360 28,-360 28,-360 22,-360 16,-354 16,-348 16,-348 16,-156 16,-156 16,-150 22,-144 28,-144"/>
<text text-anchor="middle" x="221.25" y="-348.8" font-family="Helvetica,sans-Serif" font-weight="bold" font-size="9.00">utils</text>
</g>
<!-- node_modules/immutable/dist/immutable.js -->
<g id="node1" class="node"><title>node_modules/immutable/dist/immutable.js</title>
<g id="a_node1"><a xlink:href="node_modules/immutable/dist/immutable.js" xlink:title="immutable.js">
<polygon fill="#c40b0a" fill-opacity="0.101961" stroke="black" points="425,-50 423.5,-52 413,-52 411.5,-50 349,-50 349,-32 425,-32 425,-50"/>
<text text-anchor="middle" x="387" y="-38.8" font-family="Helvetica,sans-Serif" font-size="9.00" fill="#c40b0a">immutable.js</text>
</a>
</g>
</g>
<!-- src/testUtils.js -->
<g id="node2" class="node"><title>src/testUtils.js</title>
<g id="a_node2"><a xlink:href="src/testUtils.js" xlink:title="testUtils.js">
<path fill="#ffffcc" stroke="black" d="M414,-386C414,-386 360,-386 360,-386 357,-386 354,-383 354,-380 354,-380 354,-374 354,-374 354,-371 357,-368 360,-368 360,-368 414,-368 414,-368 417,-368 420,-371 420,-374 420,-374 420,-380 420,-380 420,-383 417,-386 414,-386"/>
<text text-anchor="middle" x="387" y="-374.8" font-family="Helvetica,sans-Serif" font-size="9.00">testUtils.js</text>
</a>
</g>
</g>
<!-- src/utils/NumberRange.js -->
<g id="node3" class="node"><title>src/utils/NumberRange.js</title>
<g id="a_node3"><a xlink:href="src/utils/NumberRange.js" xlink:title="NumberRange.js">
<path fill="#ffffcc" stroke="black" d="M293.5,-230C293.5,-230 211.5,-230 211.5,-230 208.5,-230 205.5,-227 205.5,-224 205.5,-224 205.5,-218 205.5,-218 205.5,-215 208.5,-212 211.5,-212 211.5,-212 293.5,-212 293.5,-212 296.5,-212 299.5,-215 299.5,-218 299.5,-218 299.5,-224 299.5,-224 299.5,-227 296.5,-230 293.5,-230"/>
<text text-anchor="middle" x="252.5" y="-218.8" font-family="Helvetica,sans-Serif" font-size="9.00">NumberRange.js</text>
</a>
</g>
</g>
<!-- src/utils/NumberRange.js&#45;&gt;node_modules/immutable/dist/immutable.js -->
<g id="edge1" class="edge"><title>src/utils/NumberRange.js&#45;&gt;node_modules/immutable/dist/immutable.js</title>
<path fill="none" stroke="#000000" stroke-width="2" stroke-opacity="0.466667" d="M299.556,-217.225C306.172,-214.807 312.313,-211.23 317,-206 326.712,-195.161 320.214,-154.744 325,-141 335.97,-109.499 357.924,-77.3128 372.284,-58.251"/>
<polygon fill="#000000" fill-opacity="0.466667" stroke="#000000" stroke-width="2" stroke-opacity="0.466667" points="375.128,-60.2939 378.461,-50.2369 369.584,-56.0204 375.128,-60.2939"/>
</g>
<!-- src/utils/NumberRange.test.js -->
<g id="node4" class="node"><title>src/utils/NumberRange.test.js</title>
<g id="a_node4"><a xlink:href="src/utils/NumberRange.test.js" xlink:title="NumberRange.test.js">
<path fill="#ffffcc" stroke="black" d="M151.5,-230C151.5,-230 47.5,-230 47.5,-230 44.5,-230 41.5,-227 41.5,-224 41.5,-224 41.5,-218 41.5,-218 41.5,-215 44.5,-212 47.5,-212 47.5,-212 151.5,-212 151.5,-212 154.5,-212 157.5,-215 157.5,-218 157.5,-218 157.5,-224 157.5,-224 157.5,-227 154.5,-230 151.5,-230"/>
<text text-anchor="middle" x="99.5" y="-218.8" font-family="Helvetica,sans-Serif" font-size="9.00">NumberRange.test.js</text>
</a>
</g>
</g>
<!-- src/utils/NumberRange.test.js&#45;&gt;src/utils/NumberRange.js -->
<g id="edge2" class="edge"><title>src/utils/NumberRange.test.js&#45;&gt;src/utils/NumberRange.js</title>
<path fill="none" stroke="#000000" stroke-width="2" stroke-opacity="0.466667" d="M157.587,-221C169.853,-221 182.81,-221 195.052,-221"/>
<polygon fill="#000000" fill-opacity="0.466667" stroke="#000000" stroke-width="2" stroke-opacity="0.466667" points="195.137,-224.5 205.137,-221 195.137,-217.5 195.137,-224.5"/>
</g>
<!-- src/utils/NumberRangeRegistry.js -->
<g id="node5" class="node"><title>src/utils/NumberRangeRegistry.js</title>
<g id="a_node5"><a xlink:href="src/utils/NumberRangeRegistry.js" xlink:title="NumberRangeRegistry.js">
<path fill="#ffffcc" stroke="black" d="M311,-260C311,-260 194,-260 194,-260 191,-260 188,-257 188,-254 188,-254 188,-248 188,-248 188,-245 191,-242 194,-242 194,-242 311,-242 311,-242 314,-242 317,-245 317,-248 317,-248 317,-254 317,-254 317,-257 314,-260 311,-260"/>
<text text-anchor="middle" x="252.5" y="-248.8" font-family="Helvetica,sans-Serif" font-size="9.00">NumberRangeRegistry.js</text>
</a>
</g>
</g>
<!-- src/utils/NumberRangeRegistry.js&#45;&gt;node_modules/immutable/dist/immutable.js -->
<g id="edge4" class="edge"><title>src/utils/NumberRangeRegistry.js&#45;&gt;node_modules/immutable/dist/immutable.js</title>
<path fill="none" stroke="#000000" stroke-width="2" stroke-opacity="0.466667" d="M310.511,-241.835C312.89,-240.163 315.077,-238.231 317,-236 330.832,-219.953 318.419,-161.138 325,-141 335.362,-109.294 357.487,-77.1654 372.048,-58.1716"/>
<polygon fill="#000000" fill-opacity="0.466667" stroke="#000000" stroke-width="2" stroke-opacity="0.466667" points="374.894,-60.215 378.321,-50.1895 369.39,-55.89 374.894,-60.215"/>
</g>
<!-- src/utils/general.js -->
<g id="node13" class="node"><title>src/utils/general.js</title>
<g id="a_node13"><a xlink:href="src/utils/general.js" xlink:title="general.js">
<path fill="#ffffcc" stroke="black" d="M412.5,-290C412.5,-290 361.5,-290 361.5,-290 358.5,-290 355.5,-287 355.5,-284 355.5,-284 355.5,-278 355.5,-278 355.5,-275 358.5,-272 361.5,-272 361.5,-272 412.5,-272 412.5,-272 415.5,-272 418.5,-275 418.5,-278 418.5,-278 418.5,-284 418.5,-284 418.5,-287 415.5,-290 412.5,-290"/>
<text text-anchor="middle" x="387" y="-278.8" font-family="Helvetica,sans-Serif" font-size="9.00">general.js</text>
</a>
</g>
</g>
<!-- src/utils/NumberRangeRegistry.js&#45;&gt;src/utils/general.js -->
<g id="edge3" class="edge"><title>src/utils/NumberRangeRegistry.js&#45;&gt;src/utils/general.js</title>
<path fill="none" stroke="#000000" stroke-width="2" stroke-opacity="0.466667" d="M293.254,-260.001C309.667,-263.717 328.678,-268.021 345.198,-271.762"/>
<polygon fill="#000000" fill-opacity="0.466667" stroke="#000000" stroke-width="2" stroke-opacity="0.466667" points="344.591,-275.213 355.118,-274.008 346.137,-268.386 344.591,-275.213"/>
</g>
<!-- src/utils/NumberRangeRegistry.test.js -->
<g id="node6" class="node"><title>src/utils/NumberRangeRegistry.test.js</title>
<g id="a_node6"><a xlink:href="src/utils/NumberRangeRegistry.test.js" xlink:title="NumberRangeRegistry.test.js">
<path fill="#ffffcc" stroke="black" d="M169,-260C169,-260 30,-260 30,-260 27,-260 24,-257 24,-254 24,-254 24,-248 24,-248 24,-245 27,-242 30,-242 30,-242 169,-242 169,-242 172,-242 175,-245 175,-248 175,-248 175,-254 175,-254 175,-257 172,-260 169,-260"/>
<text text-anchor="middle" x="99.5" y="-248.8" font-family="Helvetica,sans-Serif" font-size="9.00">NumberRangeRegistry.test.js</text>
</a>
</g>
</g>
<!-- src/utils/NumberRangeRegistry.test.js&#45;&gt;src/utils/NumberRange.js -->
<g id="edge5" class="edge"><title>src/utils/NumberRangeRegistry.test.js&#45;&gt;src/utils/NumberRange.js</title>
<path fill="none" stroke="#000000" stroke-width="2" stroke-opacity="0.466667" d="M145.805,-241.999C161.56,-238.869 179.415,-235.322 195.906,-232.045"/>
<polygon fill="#000000" fill-opacity="0.466667" stroke="#000000" stroke-width="2" stroke-opacity="0.466667" points="196.84,-235.428 205.966,-230.046 195.476,-228.562 196.84,-235.428"/>
</g>
<!-- src/utils/NumberRangeRegistry.test.js&#45;&gt;src/utils/NumberRangeRegistry.js -->
<g id="edge6" class="edge"><title>src/utils/NumberRangeRegistry.test.js&#45;&gt;src/utils/NumberRangeRegistry.js</title>
<path fill="none" stroke="#000000" stroke-width="2" stroke-opacity="0.466667" d="M175.115,-251C176.058,-251 177.001,-251 177.943,-251"/>
<polygon fill="#000000" fill-opacity="0.466667" stroke="#000000" stroke-width="2" stroke-opacity="0.466667" points="177.999,-254.5 187.999,-251 177.999,-247.5 177.999,-254.5"/>
</g>
<!-- src/utils/bytes.js -->
<g id="node7" class="node"><title>src/utils/bytes.js</title>
<g id="a_node7"><a xlink:href="src/utils/bytes.js" xlink:title="bytes.js">
<path fill="#ffffcc" stroke="black" d="M273.5,-170C273.5,-170 231.5,-170 231.5,-170 228.5,-170 225.5,-167 225.5,-164 225.5,-164 225.5,-158 225.5,-158 225.5,-155 228.5,-152 231.5,-152 231.5,-152 273.5,-152 273.5,-152 276.5,-152 279.5,-155 279.5,-158 279.5,-158 279.5,-164 279.5,-164 279.5,-167 276.5,-170 273.5,-170"/>
<text text-anchor="middle" x="252.5" y="-158.8" font-family="Helvetica,sans-Serif" font-size="9.00">bytes.js</text>
</a>
</g>
</g>
<!-- src/utils/bytes.test.js -->
<g id="node8" class="node"><title>src/utils/bytes.test.js</title>
<g id="a_node8"><a xlink:href="src/utils/bytes.test.js" xlink:title="bytes.test.js">
<path fill="#ffffcc" stroke="black" d="M130.5,-170C130.5,-170 68.5,-170 68.5,-170 65.5,-170 62.5,-167 62.5,-164 62.5,-164 62.5,-158 62.5,-158 62.5,-155 65.5,-152 68.5,-152 68.5,-152 130.5,-152 130.5,-152 133.5,-152 136.5,-155 136.5,-158 136.5,-158 136.5,-164 136.5,-164 136.5,-167 133.5,-170 130.5,-170"/>
<text text-anchor="middle" x="99.5" y="-158.8" font-family="Helvetica,sans-Serif" font-size="9.00">bytes.test.js</text>
</a>
</g>
</g>
<!-- src/utils/bytes.test.js&#45;&gt;src/utils/bytes.js -->
<g id="edge7" class="edge"><title>src/utils/bytes.test.js&#45;&gt;src/utils/bytes.js</title>
<path fill="none" stroke="#000000" stroke-width="2" stroke-opacity="0.466667" d="M136.668,-161C160.381,-161 191.276,-161 215.046,-161"/>
<polygon fill="#000000" fill-opacity="0.466667" stroke="#000000" stroke-width="2" stroke-opacity="0.466667" points="215.084,-164.5 225.084,-161 215.084,-157.5 215.084,-164.5"/>
</g>
<!-- src/utils/errors.js -->
<g id="node9" class="node"><title>src/utils/errors.js</title>
<g id="a_node9"><a xlink:href="src/utils/errors.js" xlink:title="errors.js">
<path fill="#ffffcc" stroke="black" d="M274.5,-200C274.5,-200 230.5,-200 230.5,-200 227.5,-200 224.5,-197 224.5,-194 224.5,-194 224.5,-188 224.5,-188 224.5,-185 227.5,-182 230.5,-182 230.5,-182 274.5,-182 274.5,-182 277.5,-182 280.5,-185 280.5,-188 280.5,-188 280.5,-194 280.5,-194 280.5,-197 277.5,-200 274.5,-200"/>
<text text-anchor="middle" x="252.5" y="-188.8" font-family="Helvetica,sans-Serif" font-size="9.00">errors.js</text>
</a>
</g>
</g>
<!-- src/utils/errors.test.js -->
<g id="node10" class="node"><title>src/utils/errors.test.js</title>
<g id="a_node10"><a xlink:href="src/utils/errors.test.js" xlink:title="errors.test.js">
<path fill="#ffffcc" stroke="black" d="M132,-200C132,-200 67,-200 67,-200 64,-200 61,-197 61,-194 61,-194 61,-188 61,-188 61,-185 64,-182 67,-182 67,-182 132,-182 132,-182 135,-182 138,-185 138,-188 138,-188 138,-194 138,-194 138,-197 135,-200 132,-200"/>
<text text-anchor="middle" x="99.5" y="-188.8" font-family="Helvetica,sans-Serif" font-size="9.00">errors.test.js</text>
</a>
</g>
</g>
<!-- src/utils/errors.test.js&#45;&gt;src/utils/errors.js -->
<g id="edge8" class="edge"><title>src/utils/errors.test.js&#45;&gt;src/utils/errors.js</title>
<path fill="none" stroke="#000000" stroke-width="2" stroke-opacity="0.466667" d="M138.214,-191C161.394,-191 190.977,-191 214.099,-191"/>
<polygon fill="#000000" fill-opacity="0.466667" stroke="#000000" stroke-width="2" stroke-opacity="0.466667" points="214.222,-194.5 224.222,-191 214.222,-187.5 214.222,-194.5"/>
</g>
<!-- src/utils/events.js -->
<g id="node11" class="node"><title>src/utils/events.js</title>
<g id="a_node11"><a xlink:href="src/utils/events.js" xlink:title="events.js">
<path fill="#ffffcc" stroke="black" d="M276,-334C276,-334 229,-334 229,-334 226,-334 223,-331 223,-328 223,-328 223,-322 223,-322 223,-319 226,-316 229,-316 229,-316 276,-316 276,-316 279,-316 282,-319 282,-322 282,-322 282,-328 282,-328 282,-331 279,-334 276,-334"/>
<text text-anchor="middle" x="252.5" y="-322.8" font-family="Helvetica,sans-Serif" font-size="9.00">events.js</text>
</a>
</g>
</g>
<!-- src/utils/events.test.js -->
<g id="node12" class="node"><title>src/utils/events.test.js</title>
<g id="a_node12"><a xlink:href="src/utils/events.test.js" xlink:title="events.test.js">
<path fill="#ffffcc" stroke="black" d="M133.5,-334C133.5,-334 65.5,-334 65.5,-334 62.5,-334 59.5,-331 59.5,-328 59.5,-328 59.5,-322 59.5,-322 59.5,-319 62.5,-316 65.5,-316 65.5,-316 133.5,-316 133.5,-316 136.5,-316 139.5,-319 139.5,-322 139.5,-322 139.5,-328 139.5,-328 139.5,-331 136.5,-334 133.5,-334"/>
<text text-anchor="middle" x="99.5" y="-322.8" font-family="Helvetica,sans-Serif" font-size="9.00">events.test.js</text>
</a>
</g>
</g>
<!-- src/utils/events.test.js&#45;&gt;src/testUtils.js -->
<g id="edge9" class="edge"><title>src/utils/events.test.js&#45;&gt;src/testUtils.js</title>
<path fill="none" stroke="#000000" stroke-width="2" stroke-opacity="0.466667" d="M139.599,-332.121C193.114,-341.868 288.794,-359.295 343.856,-369.324"/>
<polygon fill="#000000" fill-opacity="0.466667" stroke="#000000" stroke-width="2" stroke-opacity="0.466667" points="343.509,-372.818 353.974,-371.167 344.763,-365.932 343.509,-372.818"/>
</g>
<!-- src/utils/events.test.js&#45;&gt;src/utils/events.js -->
<g id="edge10" class="edge"><title>src/utils/events.test.js&#45;&gt;src/utils/events.js</title>
<path fill="none" stroke="#000000" stroke-width="2" stroke-opacity="0.466667" d="M139.779,-325C162.26,-325 190.354,-325 212.746,-325"/>
<polygon fill="#000000" fill-opacity="0.466667" stroke="#000000" stroke-width="2" stroke-opacity="0.466667" points="212.911,-328.5 222.911,-325 212.911,-321.5 212.911,-328.5"/>
</g>
<!-- src/utils/general.test.js -->
<g id="node14" class="node"><title>src/utils/general.test.js</title>
<g id="a_node14"><a xlink:href="src/utils/general.test.js" xlink:title="general.test.js">
<path fill="#ffffcc" stroke="black" d="M289,-290C289,-290 216,-290 216,-290 213,-290 210,-287 210,-284 210,-284 210,-278 210,-278 210,-275 213,-272 216,-272 216,-272 289,-272 289,-272 292,-272 295,-275 295,-278 295,-278 295,-284 295,-284 295,-287 292,-290 289,-290"/>
<text text-anchor="middle" x="252.5" y="-278.8" font-family="Helvetica,sans-Serif" font-size="9.00">general.test.js</text>
</a>
</g>
</g>
<!-- src/utils/general.test.js&#45;&gt;node_modules/immutable/dist/immutable.js -->
<g id="edge13" class="edge"><title>src/utils/general.test.js&#45;&gt;node_modules/immutable/dist/immutable.js</title>
<path fill="none" stroke="#000000" stroke-width="2" stroke-opacity="0.466667" d="M295.294,-278.936C303.592,-276.571 311.445,-272.577 317,-266 325.98,-255.368 320.81,-154.272 325,-141 335.043,-109.192 357.258,-77.0918 371.925,-58.1319"/>
<polygon fill="#000000" fill-opacity="0.466667" stroke="#000000" stroke-width="2" stroke-opacity="0.466667" points="374.772,-60.1746 378.247,-50.1658 369.289,-55.8231 374.772,-60.1746"/>
</g>
<!-- src/utils/general.test.js&#45;&gt;src/testUtils.js -->
<g id="edge11" class="edge"><title>src/utils/general.test.js&#45;&gt;src/testUtils.js</title>
<path fill="none" stroke="#000000" stroke-width="2" stroke-opacity="0.466667" d="M289.031,-290.075C299.536,-294.443 310.068,-300.807 317,-310 331.343,-329.021 308.805,-345.529 325,-363 330.078,-368.478 336.828,-372.024 343.986,-374.28"/>
<polygon fill="#000000" fill-opacity="0.466667" stroke="#000000" stroke-width="2" stroke-opacity="0.466667" points="343.344,-377.724 353.881,-376.617 344.953,-370.912 343.344,-377.724"/>
</g>
<!-- src/utils/general.test.js&#45;&gt;src/utils/general.js -->
<g id="edge12" class="edge"><title>src/utils/general.test.js&#45;&gt;src/utils/general.js</title>
<path fill="none" stroke="#000000" stroke-width="2" stroke-opacity="0.466667" d="M295.06,-281C310.998,-281 329.161,-281 345.042,-281"/>
<polygon fill="#000000" fill-opacity="0.466667" stroke="#000000" stroke-width="2" stroke-opacity="0.466667" points="345.102,-284.5 355.102,-281 345.102,-277.5 345.102,-284.5"/>
</g>
<!-- src/utils/index.js -->
<g id="node15" class="node"><title>src/utils/index.js</title>
<g id="a_node15"><a xlink:href="src/utils/index.js" xlink:title="index.js">
<path fill="#ffffcc" stroke="black" d="M120.5,-290C120.5,-290 78.5,-290 78.5,-290 75.5,-290 72.5,-287 72.5,-284 72.5,-284 72.5,-278 72.5,-278 72.5,-275 75.5,-272 78.5,-272 78.5,-272 120.5,-272 120.5,-272 123.5,-272 126.5,-275 126.5,-278 126.5,-278 126.5,-284 126.5,-284 126.5,-287 123.5,-290 120.5,-290"/>
<text text-anchor="middle" x="99.5" y="-278.8" font-family="Helvetica,sans-Serif" font-size="9.00">index.js</text>
</a>
</g>
</g>
<!-- src/utils/index.js&#45;&gt;src/utils/NumberRange.js -->
<g id="edge18" class="edge"><title>src/utils/index.js&#45;&gt;src/utils/NumberRange.js</title>
<path fill="none" stroke="#000000" stroke-width="2" stroke-opacity="0.466667" d="M126.83,-281.54C142.37,-280.545 161.564,-276.872 175,-266 186.297,-256.86 176.857,-245.327 188,-236 190.44,-233.957 193.11,-232.182 195.929,-230.641"/>
<polygon fill="#000000" fill-opacity="0.466667" stroke="#000000" stroke-width="2" stroke-opacity="0.466667" points="197.617,-233.721 205.343,-226.471 194.782,-227.321 197.617,-233.721"/>
</g>
<!-- src/utils/index.js&#45;&gt;src/utils/NumberRangeRegistry.js -->
<g id="edge19" class="edge"><title>src/utils/index.js&#45;&gt;src/utils/NumberRangeRegistry.js</title>
<path fill="none" stroke="#000000" stroke-width="2" stroke-opacity="0.466667" d="M126.802,-275.774C145.877,-271.985 172.374,-266.72 196.039,-262.019"/>
<polygon fill="#000000" fill-opacity="0.466667" stroke="#000000" stroke-width="2" stroke-opacity="0.466667" points="196.851,-265.426 205.977,-260.044 195.487,-258.56 196.851,-265.426"/>
</g>
<!-- src/utils/index.js&#45;&gt;src/utils/bytes.js -->
<g id="edge14" class="edge"><title>src/utils/index.js&#45;&gt;src/utils/bytes.js</title>
<path fill="none" stroke="#000000" stroke-width="2" stroke-opacity="0.466667" d="M126.854,-282.776C143.006,-282.35 162.849,-278.842 175,-266 202.778,-236.644 160.715,-205.814 188,-176 194.998,-168.354 205.105,-164.257 215.206,-162.15"/>
<polygon fill="#000000" fill-opacity="0.466667" stroke="#000000" stroke-width="2" stroke-opacity="0.466667" points="215.821,-165.597 225.188,-160.647 214.779,-158.675 215.821,-165.597"/>
</g>
<!-- src/utils/index.js&#45;&gt;src/utils/errors.js -->
<g id="edge15" class="edge"><title>src/utils/index.js&#45;&gt;src/utils/errors.js</title>
<path fill="none" stroke="#000000" stroke-width="2" stroke-opacity="0.466667" d="M126.553,-282.482C142.586,-281.937 162.407,-278.409 175,-266 194.435,-246.848 168.887,-225.472 188,-206 194.949,-198.92 204.576,-194.929 214.234,-192.741"/>
<polygon fill="#000000" fill-opacity="0.466667" stroke="#000000" stroke-width="2" stroke-opacity="0.466667" points="214.921,-196.175 224.2,-191.061 213.757,-189.273 214.921,-196.175"/>
</g>
<!-- src/utils/index.js&#45;&gt;src/utils/events.js -->
<g id="edge16" class="edge"><title>src/utils/index.js&#45;&gt;src/utils/events.js</title>
<path fill="none" stroke="#000000" stroke-width="2" stroke-opacity="0.466667" d="M126.51,-288.822C143.901,-294.029 167.302,-300.992 188,-307 196.058,-309.339 204.702,-311.813 212.937,-314.153"/>
<polygon fill="#000000" fill-opacity="0.466667" stroke="#000000" stroke-width="2" stroke-opacity="0.466667" points="212.137,-317.564 222.712,-316.923 214.045,-310.829 212.137,-317.564"/>
</g>
<!-- src/utils/index.js&#45;&gt;src/utils/general.js -->
<g id="edge17" class="edge"><title>src/utils/index.js&#45;&gt;src/utils/general.js</title>
<path fill="none" stroke="#000000" stroke-width="2" stroke-opacity="0.466667" d="M126.77,-286.703C144.069,-290.161 167.268,-294.236 188,-296 245.127,-300.861 260.096,-303.005 317,-296 320.638,-295.552 321.429,-294.827 325,-294 331.592,-292.474 338.599,-290.919 345.428,-289.439"/>
<polygon fill="#000000" fill-opacity="0.466667" stroke="#000000" stroke-width="2" stroke-opacity="0.466667" points="346.19,-292.855 355.234,-287.337 344.723,-286.011 346.19,-292.855"/>
</g>
</g>
</svg>
