<?xml version="1.0" encoding="UTF-8" standalone="no"?>
<!DOCTYPE svg PUBLIC "-//W3C//DTD SVG 1.1//EN"
 "http://www.w3.org/Graphics/SVG/1.1/DTD/svg11.dtd">
<!-- Generated by graphviz version 2.38.0 (20140413.2041)
 -->
<!-- Title: dependency&#45;cruiser output Pages: 1 -->
<svg width="493pt" height="411pt"
 viewBox="0.00 0.00 493.00 410.61" xmlns="http://www.w3.org/2000/svg" xmlns:xlink="http://www.w3.org/1999/xlink">
<g id="graph0" class="graph" transform="scale(1 1) rotate(0) translate(4 406.611)">
<title>dependency&#45;cruiser output</title>
<polygon fill="white" stroke="none" points="-4,4 -4,-406.611 489,-406.611 489,4 -4,4"/>
<g id="clust1" class="cluster"><title>cluster_node_modules</title>
<path fill="#ffffff" stroke="black" stroke-width="2" d="M191,-8C191,-8 260,-8 260,-8 266,-8 272,-14 272,-20 272,-20 272,-82 272,-82 272,-88 266,-94 260,-94 260,-94 191,-94 191,-94 185,-94 179,-88 179,-82 179,-82 179,-20 179,-20 179,-14 185,-8 191,-8"/>
<text text-anchor="middle" x="225.5" y="-82.8" font-family="Helvetica,sans-Serif" font-weight="bold" font-size="9.00">node_modules</text>
</g>
<g id="clust2" class="cluster"><title>cluster_node_modules/lodash</title>
<path fill="#ffffff" stroke="black" stroke-width="2" d="M200,-16C200,-16 251,-16 251,-16 257,-16 263,-22 263,-28 263,-28 263,-56 263,-56 263,-62 257,-68 251,-68 251,-68 200,-68 200,-68 194,-68 188,-62 188,-56 188,-56 188,-28 188,-28 188,-22 194,-16 200,-16"/>
<text text-anchor="middle" x="225.5" y="-56.8" font-family="Helvetica,sans-Serif" font-weight="bold" font-size="9.00">lodash</text>
</g>
<g id="clust3" class="cluster"><title>cluster_src</title>
<path fill="#ffffff" stroke="black" stroke-width="2" d="M20,-102C20,-102 465,-102 465,-102 471,-102 477,-108 477,-114 477,-114 477,-380 477,-380 477,-386 471,-392 465,-392 465,-392 20,-392 20,-392 14,-392 8,-386 8,-380 8,-380 8,-114 8,-114 8,-108 14,-102 20,-102"/>
<text text-anchor="middle" x="242.5" y="-380.8" font-family="Helvetica,sans-Serif" font-weight="bold" font-size="9.00">src</text>
</g>
<g id="clust4" class="cluster"><title>cluster_src/SiDevice</title>
<path fill="#ffffff" stroke="black" stroke-width="2" d="M28,-110C28,-110 379,-110 379,-110 385,-110 391,-116 391,-122 391,-122 391,-314 391,-314 391,-320 385,-326 379,-326 379,-326 28,-326 28,-326 22,-326 16,-320 16,-314 16,-314 16,-122 16,-122 16,-116 22,-110 28,-110"/>
<text text-anchor="middle" x="203.5" y="-314.8" font-family="Helvetica,sans-Serif" font-weight="bold" font-size="9.00">SiDevice</text>
</g>
<g id="clust5" class="cluster"><title>cluster_src/SiDevice/drivers</title>
<path fill="#ffffff" stroke="black" stroke-width="2" d="M36,-158C36,-158 273.5,-158 273.5,-158 279.5,-158 285.5,-164 285.5,-170 285.5,-170 285.5,-228 285.5,-228 285.5,-234 279.5,-240 273.5,-240 273.5,-240 36,-240 36,-240 30,-240 24,-234 24,-228 24,-228 24,-170 24,-170 24,-164 30,-158 36,-158"/>
<text text-anchor="middle" x="154.75" y="-228.8" font-family="Helvetica,sans-Serif" font-weight="bold" font-size="9.00">drivers</text>
</g>
<g id="clust6" class="cluster"><title>cluster_src/SiDevice/testUtils</title>
<path fill="#ffffff" stroke="black" stroke-width="2" d="M43.5,-248C43.5,-248 265.5,-248 265.5,-248 271.5,-248 277.5,-254 277.5,-260 277.5,-260 277.5,-288 277.5,-288 277.5,-294 271.5,-300 265.5,-300 265.5,-300 43.5,-300 43.5,-300 37.5,-300 31.5,-294 31.5,-288 31.5,-288 31.5,-260 31.5,-260 31.5,-254 37.5,-248 43.5,-248"/>
<text text-anchor="middle" x="154.5" y="-288.8" font-family="Helvetica,sans-Serif" font-weight="bold" font-size="9.00">testUtils</text>
</g>
<g id="clust7" class="cluster"><title>cluster_src/utils</title>
<path fill="#ffffff" stroke="black" stroke-width="2" d="M411,-155C411,-155 457,-155 457,-155 463,-155 469,-161 469,-167 469,-167 469,-195 469,-195 469,-201 463,-207 457,-207 457,-207 411,-207 411,-207 405,-207 399,-201 399,-195 399,-195 399,-167 399,-167 399,-161 405,-155 411,-155"/>
<text text-anchor="middle" x="434" y="-195.8" font-family="Helvetica,sans-Serif" font-weight="bold" font-size="9.00">utils</text>
</g>
<!-- node_modules/lodash/lodash.js -->
<g id="node1" class="node"><title>node_modules/lodash/lodash.js</title>
<g id="a_node1"><a xlink:href="node_modules/lodash/lodash.js" xlink:title="lodash.js">
<polygon fill="#c40b0a" fill-opacity="0.101961" stroke="black" points="255,-42 253.5,-44 243,-44 241.5,-42 196,-42 196,-24 255,-24 255,-42"/>
<text text-anchor="middle" x="225.5" y="-30.8" font-family="Helvetica,sans-Serif" font-size="9.00" fill="#c40b0a">lodash.js</text>
</a>
</g>
</g>
<!-- src/SiDevice/BaseSiDevice.js -->
<g id="node2" class="node"><title>src/SiDevice/BaseSiDevice.js</title>
<g id="a_node2"><a xlink:href="src/SiDevice/BaseSiDevice.js" xlink:title="BaseSiDevice.js">
<path fill="#ffffcc" stroke="black" d="M377,-181C377,-181 300,-181 300,-181 297,-181 294,-178 294,-175 294,-175 294,-169 294,-169 294,-166 297,-163 300,-163 300,-163 377,-163 377,-163 380,-163 383,-166 383,-169 383,-169 383,-175 383,-175 383,-178 380,-181 377,-181"/>
<text text-anchor="middle" x="338.5" y="-169.8" font-family="Helvetica,sans-Serif" font-size="9.00">BaseSiDevice.js</text>
</a>
</g>
</g>
<!-- src/utils/index.js -->
<g id="node10" class="node"><title>src/utils/index.js</title>
<g id="a_node10"><a xlink:href="src/utils/index.js" xlink:title="index.js">
<path fill="#ffffcc" stroke="black" d="M455,-181C455,-181 413,-181 413,-181 410,-181 407,-178 407,-175 407,-175 407,-169 407,-169 407,-166 410,-163 413,-163 413,-163 455,-163 455,-163 458,-163 461,-166 461,-169 461,-169 461,-175 461,-175 461,-178 458,-181 455,-181"/>
<text text-anchor="middle" x="434" y="-169.8" font-family="Helvetica,sans-Serif" font-size="9.00">index.js</text>
</a>
</g>
</g>
<!-- src/SiDevice/BaseSiDevice.js&#45;&gt;src/utils/index.js -->
<g id="edge1" class="edge"><title>src/SiDevice/BaseSiDevice.js&#45;&gt;src/utils/index.js</title>
<path fill="none" stroke="#000000" stroke-width="2" stroke-opacity="0.466667" d="M383.239,-172C387.784,-172 392.367,-172 396.815,-172"/>
<polygon fill="#000000" fill-opacity="0.466667" stroke="#000000" stroke-width="2" stroke-opacity="0.466667" points="396.869,-175.5 406.869,-172 396.869,-168.5 396.869,-175.5"/>
</g>
<!-- src/SiDevice/BaseSiDevice.test.js -->
<g id="node3" class="node"><title>src/SiDevice/BaseSiDevice.test.js</title>
<g id="a_node3"><a xlink:href="src/SiDevice/BaseSiDevice.test.js" xlink:title="BaseSiDevice.test.js">
<path fill="#ffffcc" stroke="black" d="M275,-150C275,-150 176,-150 176,-150 173,-150 170,-147 170,-144 170,-144 170,-138 170,-138 170,-135 173,-132 176,-132 176,-132 275,-132 275,-132 278,-132 281,-135 281,-138 281,-138 281,-144 281,-144 281,-147 278,-150 275,-150"/>
<text text-anchor="middle" x="225.5" y="-138.8" font-family="Helvetica,sans-Serif" font-size="9.00">BaseSiDevice.test.js</text>
</a>
</g>
</g>
<!-- src/SiDevice/BaseSiDevice.test.js&#45;&gt;src/SiDevice/BaseSiDevice.js -->
<g id="edge4" class="edge"><title>src/SiDevice/BaseSiDevice.test.js&#45;&gt;src/SiDevice/BaseSiDevice.js</title>
<path fill="none" stroke="#000000" stroke-width="2" stroke-opacity="0.466667" d="M266.604,-150.043C272.949,-151.609 279.42,-153.288 285.5,-155 290.625,-156.443 296,-158.07 301.268,-159.73"/>
<polygon fill="#000000" fill-opacity="0.466667" stroke="#000000" stroke-width="2" stroke-opacity="0.466667" points="300.585,-163.187 311.176,-162.925 302.733,-156.524 300.585,-163.187"/>
</g>
<!-- src/testUtils.js -->
<g id="node9" class="node"><title>src/testUtils.js</title>
<g id="a_node9"><a xlink:href="src/testUtils.js" xlink:title="testUtils.js">
<path fill="#ffffcc" stroke="black" d="M365.5,-352C365.5,-352 311.5,-352 311.5,-352 308.5,-352 305.5,-349 305.5,-346 305.5,-346 305.5,-340 305.5,-340 305.5,-337 308.5,-334 311.5,-334 311.5,-334 365.5,-334 365.5,-334 368.5,-334 371.5,-337 371.5,-340 371.5,-340 371.5,-346 371.5,-346 371.5,-349 368.5,-352 365.5,-352"/>
<text text-anchor="middle" x="338.5" y="-340.8" font-family="Helvetica,sans-Serif" font-size="9.00">testUtils.js</text>
</a>
</g>
</g>
<!-- src/SiDevice/BaseSiDevice.test.js&#45;&gt;src/testUtils.js -->
<g id="edge2" class="edge"><title>src/SiDevice/BaseSiDevice.test.js&#45;&gt;src/testUtils.js</title>
<path fill="none" stroke="#000000" stroke-width="2" stroke-opacity="0.466667" d="M280.558,-150.243C282.358,-151.64 284.02,-153.219 285.5,-155 310.241,-184.775 270.445,-298.278 294,-329 294.815,-330.062 295.711,-331.046 296.674,-331.955"/>
<polygon fill="#000000" fill-opacity="0.466667" stroke="#000000" stroke-width="2" stroke-opacity="0.466667" points="294.878,-334.964 305.142,-337.59 298.755,-329.136 294.878,-334.964"/>
</g>
<!-- src/SiDevice/BaseSiDevice.test.js&#45;&gt;src/utils/index.js -->
<g id="edge3" class="edge"><title>src/SiDevice/BaseSiDevice.test.js&#45;&gt;src/utils/index.js</title>
<path fill="none" stroke="#000000" stroke-width="2" stroke-opacity="0.466667" d="M281.116,-142.942C313.389,-144.923 354.877,-148.923 391,-157 394.249,-157.727 397.592,-158.632 400.905,-159.636"/>
<polygon fill="#000000" fill-opacity="0.466667" stroke="#000000" stroke-width="2" stroke-opacity="0.466667" points="400.038,-163.036 410.632,-162.863 402.243,-156.393 400.038,-163.036"/>
</g>
<!-- src/SiDevice/drivers/WebUsbSiDevice.js -->
<g id="node4" class="node"><title>src/SiDevice/drivers/WebUsbSiDevice.js</title>
<g id="a_node4"><a xlink:href="src/SiDevice/drivers/WebUsbSiDevice.js" xlink:title="WebUsbSiDevice.js">
<path fill="#ffffcc" stroke="black" d="M271.5,-184C271.5,-184 179.5,-184 179.5,-184 176.5,-184 173.5,-181 173.5,-178 173.5,-178 173.5,-172 173.5,-172 173.5,-169 176.5,-166 179.5,-166 179.5,-166 271.5,-166 271.5,-166 274.5,-166 277.5,-169 277.5,-172 277.5,-172 277.5,-178 277.5,-178 277.5,-181 274.5,-184 271.5,-184"/>
<text text-anchor="middle" x="225.5" y="-172.8" font-family="Helvetica,sans-Serif" font-size="9.00">WebUsbSiDevice.js</text>
</a>
</g>
</g>
<!-- src/SiDevice/drivers/WebUsbSiDevice.js&#45;&gt;src/SiDevice/BaseSiDevice.js -->
<g id="edge5" class="edge"><title>src/SiDevice/drivers/WebUsbSiDevice.js&#45;&gt;src/SiDevice/BaseSiDevice.js</title>
<path fill="none" stroke="#000000" stroke-width="2" stroke-opacity="0.466667" d="M277.776,-173.614C279.695,-173.562 281.621,-173.51 283.544,-173.458"/>
<polygon fill="#000000" fill-opacity="0.466667" stroke="#000000" stroke-width="2" stroke-opacity="0.466667" points="283.851,-176.951 293.753,-173.182 283.662,-169.954 283.851,-176.951"/>
</g>
<!-- src/SiDevice/drivers/WebUsbSiDevice.test.js -->
<g id="node5" class="node"><title>src/SiDevice/drivers/WebUsbSiDevice.test.js</title>
<g id="a_node5"><a xlink:href="src/SiDevice/drivers/WebUsbSiDevice.test.js" xlink:title="WebUsbSiDevice.test.js">
<path fill="#ffffcc" stroke="black" d="M151,-214C151,-214 38,-214 38,-214 35,-214 32,-211 32,-208 32,-208 32,-202 32,-202 32,-199 35,-196 38,-196 38,-196 151,-196 151,-196 154,-196 157,-199 157,-202 157,-202 157,-208 157,-208 157,-211 154,-214 151,-214"/>
<text text-anchor="middle" x="94.5" y="-202.8" font-family="Helvetica,sans-Serif" font-size="9.00">WebUsbSiDevice.test.js</text>
</a>
</g>
</g>
<!-- src/SiDevice/drivers/WebUsbSiDevice.test.js&#45;&gt;src/SiDevice/BaseSiDevice.js -->
<g id="edge8" class="edge"><title>src/SiDevice/drivers/WebUsbSiDevice.test.js&#45;&gt;src/SiDevice/BaseSiDevice.js</title>
<path fill="none" stroke="#000000" stroke-width="2" stroke-opacity="0.466667" d="M149.599,-195.952C152.292,-194.266 154.791,-192.297 157,-190 177.122,-169.081 147.526,-144.368 170,-126 209.747,-93.5149 237.496,-107.815 285.5,-126 300.797,-131.795 314.49,-144.374 323.98,-154.916"/>
<polygon fill="#000000" fill-opacity="0.466667" stroke="#000000" stroke-width="2" stroke-opacity="0.466667" points="321.501,-157.404 330.64,-162.764 326.839,-152.875 321.501,-157.404"/>
</g>
<!-- src/SiDevice/drivers/WebUsbSiDevice.test.js&#45;&gt;src/SiDevice/drivers/WebUsbSiDevice.js -->
<g id="edge9" class="edge"><title>src/SiDevice/drivers/WebUsbSiDevice.test.js&#45;&gt;src/SiDevice/drivers/WebUsbSiDevice.js</title>
<path fill="none" stroke="#000000" stroke-width="2" stroke-opacity="0.466667" d="M134.204,-195.999C147.223,-192.971 161.921,-189.553 175.618,-186.368"/>
<polygon fill="#000000" fill-opacity="0.466667" stroke="#000000" stroke-width="2" stroke-opacity="0.466667" points="176.43,-189.773 185.377,-184.098 174.844,-182.955 176.43,-189.773"/>
</g>
<!-- src/SiDevice/drivers/WebUsbSiDevice.test.js&#45;&gt;src/testUtils.js -->
<g id="edge6" class="edge"><title>src/SiDevice/drivers/WebUsbSiDevice.test.js&#45;&gt;src/testUtils.js</title>
<path fill="none" stroke="#000000" stroke-width="2" stroke-opacity="0.466667" d="M117.453,-214.046C130.867,-220.682 147.26,-230.985 157,-245 172.075,-266.693 151.451,-284.191 170,-303 202.525,-335.981 257.033,-343.693 295.002,-344.641"/>
<polygon fill="#000000" fill-opacity="0.466667" stroke="#000000" stroke-width="2" stroke-opacity="0.466667" points="295.206,-348.143 305.24,-344.744 295.276,-341.143 295.206,-348.143"/>
</g>
<!-- src/SiDevice/drivers/WebUsbSiDevice.test.js&#45;&gt;src/utils/index.js -->
<g id="edge7" class="edge"><title>src/SiDevice/drivers/WebUsbSiDevice.test.js&#45;&gt;src/utils/index.js</title>
<path fill="none" stroke="#000000" stroke-width="2" stroke-opacity="0.466667" d="M118.512,-214.043C131.983,-220.575 148.054,-230.765 157,-245 181.082,-283.32 137.749,-314.247 170,-346 240.133,-415.049 314.194,-421.54 391,-360 417.234,-338.98 428.166,-235.037 431.651,-191.371"/>
<polygon fill="#000000" fill-opacity="0.466667" stroke="#000000" stroke-width="2" stroke-opacity="0.466667" points="435.155,-191.445 432.413,-181.211 428.175,-190.922 435.155,-191.445"/>
</g>
<!-- src/SiDevice/drivers/index.js -->
<g id="node6" class="node"><title>src/SiDevice/drivers/index.js</title>
<g id="a_node6"><a xlink:href="src/SiDevice/drivers/index.js" xlink:title="index.js">
<path fill="#ffffcc" stroke="black" d="M115.5,-184C115.5,-184 73.5,-184 73.5,-184 70.5,-184 67.5,-181 67.5,-178 67.5,-178 67.5,-172 67.5,-172 67.5,-169 70.5,-166 73.5,-166 73.5,-166 115.5,-166 115.5,-166 118.5,-166 121.5,-169 121.5,-172 121.5,-172 121.5,-178 121.5,-178 121.5,-181 118.5,-184 115.5,-184"/>
<text text-anchor="middle" x="94.5" y="-172.8" font-family="Helvetica,sans-Serif" font-size="9.00">index.js</text>
</a>
</g>
</g>
<!-- src/SiDevice/drivers/index.js&#45;&gt;src/SiDevice/drivers/WebUsbSiDevice.js -->
<g id="edge10" class="edge"><title>src/SiDevice/drivers/index.js&#45;&gt;src/SiDevice/drivers/WebUsbSiDevice.js</title>
<path fill="none" stroke="#000000" stroke-width="2" stroke-opacity="0.466667" d="M121.605,-175C133.688,-175 148.598,-175 163.28,-175"/>
<polygon fill="#000000" fill-opacity="0.466667" stroke="#000000" stroke-width="2" stroke-opacity="0.466667" points="163.371,-178.5 173.371,-175 163.371,-171.5 163.371,-178.5"/>
</g>
<!-- src/SiDevice/testUtils/FakeSiDevice.js -->
<g id="node7" class="node"><title>src/SiDevice/testUtils/FakeSiDevice.js</title>
<g id="a_node7"><a xlink:href="src/SiDevice/testUtils/FakeSiDevice.js" xlink:title="FakeSiDevice.js">
<path fill="#ffffcc" stroke="black" d="M263.5,-274C263.5,-274 187.5,-274 187.5,-274 184.5,-274 181.5,-271 181.5,-268 181.5,-268 181.5,-262 181.5,-262 181.5,-259 184.5,-256 187.5,-256 187.5,-256 263.5,-256 263.5,-256 266.5,-256 269.5,-259 269.5,-262 269.5,-262 269.5,-268 269.5,-268 269.5,-271 266.5,-274 263.5,-274"/>
<text text-anchor="middle" x="225.5" y="-262.8" font-family="Helvetica,sans-Serif" font-size="9.00">FakeSiDevice.js</text>
</a>
</g>
</g>
<!-- src/SiDevice/testUtils/FakeSiDevice.js&#45;&gt;src/SiDevice/BaseSiDevice.js -->
<g id="edge12" class="edge"><title>src/SiDevice/testUtils/FakeSiDevice.js&#45;&gt;src/SiDevice/BaseSiDevice.js</title>
<path fill="none" stroke="#000000" stroke-width="2" stroke-opacity="0.466667" d="M268.263,-255.906C274.847,-252.792 280.965,-248.612 285.5,-243 299.893,-225.191 282.388,-209.107 292.307,-189.481"/>
<polygon fill="#000000" fill-opacity="0.466667" stroke="#000000" stroke-width="2" stroke-opacity="0.466667" points="295.267,-191.355 298.124,-181.153 289.528,-187.347 295.267,-191.355"/>
</g>
<!-- src/SiDevice/testUtils/FakeSiDevice.js&#45;&gt;src/testUtils.js -->
<g id="edge11" class="edge"><title>src/SiDevice/testUtils/FakeSiDevice.js&#45;&gt;src/testUtils.js</title>
<path fill="none" stroke="#000000" stroke-width="2" stroke-opacity="0.466667" d="M269.676,-268.167C275.623,-270.298 281.167,-273.436 285.5,-278 301.323,-294.664 278.981,-311.608 294,-329 294.752,-329.871 295.558,-330.688 296.41,-331.454"/>
<polygon fill="#000000" fill-opacity="0.466667" stroke="#000000" stroke-width="2" stroke-opacity="0.466667" points="294.79,-334.575 305.084,-337.08 298.599,-328.702 294.79,-334.575"/>
</g>
<!-- src/SiDevice/testUtils/FakeSiDevice.test.js -->
<g id="node8" class="node"><title>src/SiDevice/testUtils/FakeSiDevice.test.js</title>
<g id="a_node8"><a xlink:href="src/SiDevice/testUtils/FakeSiDevice.test.js" xlink:title="FakeSiDevice.test.js">
<path fill="#ffffcc" stroke="black" d="M143.5,-274C143.5,-274 45.5,-274 45.5,-274 42.5,-274 39.5,-271 39.5,-268 39.5,-268 39.5,-262 39.5,-262 39.5,-259 42.5,-256 45.5,-256 45.5,-256 143.5,-256 143.5,-256 146.5,-256 149.5,-259 149.5,-262 149.5,-262 149.5,-268 149.5,-268 149.5,-271 146.5,-274 143.5,-274"/>
<text text-anchor="middle" x="94.5" y="-262.8" font-family="Helvetica,sans-Serif" font-size="9.00">FakeSiDevice.test.js</text>
</a>
</g>
</g>
<!-- src/SiDevice/testUtils/FakeSiDevice.test.js&#45;&gt;node_modules/lodash/lodash.js -->
<g id="edge15" class="edge"><title>src/SiDevice/testUtils/FakeSiDevice.test.js&#45;&gt;node_modules/lodash/lodash.js</title>
<path fill="none" stroke="#000000" stroke-width="2" stroke-opacity="0.466667" d="M140.179,-255.955C146.66,-252.834 152.613,-248.638 157,-243 175.645,-219.04 159.162,-135.359 170,-107 178.475,-84.8232 195.511,-63.4264 208.292,-49.395"/>
<polygon fill="#000000" fill-opacity="0.466667" stroke="#000000" stroke-width="2" stroke-opacity="0.466667" points="210.917,-51.7124 215.228,-42.0345 205.823,-46.9115 210.917,-51.7124"/>
</g>
<!-- src/SiDevice/testUtils/FakeSiDevice.test.js&#45;&gt;src/SiDevice/testUtils/FakeSiDevice.js -->
<g id="edge14" class="edge"><title>src/SiDevice/testUtils/FakeSiDevice.test.js&#45;&gt;src/SiDevice/testUtils/FakeSiDevice.js</title>
<path fill="none" stroke="#000000" stroke-width="2" stroke-opacity="0.466667" d="M149.834,-265C156.866,-265 164.063,-265 171.08,-265"/>
<polygon fill="#000000" fill-opacity="0.466667" stroke="#000000" stroke-width="2" stroke-opacity="0.466667" points="171.192,-268.5 181.192,-265 171.192,-261.5 171.192,-268.5"/>
</g>
<!-- src/SiDevice/testUtils/FakeSiDevice.test.js&#45;&gt;src/testUtils.js -->
<g id="edge13" class="edge"><title>src/SiDevice/testUtils/FakeSiDevice.test.js&#45;&gt;src/testUtils.js</title>
<path fill="none" stroke="#000000" stroke-width="2" stroke-opacity="0.466667" d="M103.082,-274.129C115.436,-288.274 141.418,-315.095 170,-327 210.079,-343.693 260.078,-346.396 294.97,-345.727"/>
<polygon fill="#000000" fill-opacity="0.466667" stroke="#000000" stroke-width="2" stroke-opacity="0.466667" points="295.393,-349.216 305.286,-345.423 295.187,-342.219 295.393,-349.216"/>
</g>
</g>
</svg>
