<?xml version="1.0" encoding="UTF-8" standalone="no"?>
<!DOCTYPE svg PUBLIC "-//W3C//DTD SVG 1.1//EN"
 "http://www.w3.org/Graphics/SVG/1.1/DTD/svg11.dtd">
<!-- Generated by graphviz version 2.38.0 (20140413.2041)
 -->
<!-- Title: dependency&#45;cruiser output Pages: 1 -->
<svg width="555pt" height="411pt"
 viewBox="0.00 0.00 555.00 410.52" xmlns="http://www.w3.org/2000/svg" xmlns:xlink="http://www.w3.org/1999/xlink">
<g id="graph0" class="graph" transform="scale(1 1) rotate(0) translate(4 406.52)">
<title>dependency&#45;cruiser output</title>
<polygon fill="white" stroke="none" points="-4,4 -4,-406.52 551,-406.52 551,4 -4,4"/>
<g id="clust1" class="cluster"><title>cluster_node_modules</title>
<path fill="#ffffff" stroke="black" stroke-width="2" d="M253,-8C253,-8 322,-8 322,-8 328,-8 334,-14 334,-20 334,-20 334,-82 334,-82 334,-88 328,-94 322,-94 322,-94 253,-94 253,-94 247,-94 241,-88 241,-82 241,-82 241,-20 241,-20 241,-14 247,-8 253,-8"/>
<text text-anchor="middle" x="287.5" y="-82.8" font-family="Helvetica,sans-Serif" font-weight="bold" font-size="9.00">node_modules</text>
</g>
<g id="clust2" class="cluster"><title>cluster_node_modules/lodash</title>
<path fill="#ffffff" stroke="black" stroke-width="2" d="M262,-16C262,-16 313,-16 313,-16 319,-16 325,-22 325,-28 325,-28 325,-56 325,-56 325,-62 319,-68 313,-68 313,-68 262,-68 262,-68 256,-68 250,-62 250,-56 250,-56 250,-28 250,-28 250,-22 256,-16 262,-16"/>
<text text-anchor="middle" x="287.5" y="-56.8" font-family="Helvetica,sans-Serif" font-weight="bold" font-size="9.00">lodash</text>
</g>
<g id="clust3" class="cluster"><title>cluster_src</title>
<path fill="#ffffff" stroke="black" stroke-width="2" d="M20,-102C20,-102 527,-102 527,-102 533,-102 539,-108 539,-114 539,-114 539,-380 539,-380 539,-386 533,-392 527,-392 527,-392 20,-392 20,-392 14,-392 8,-386 8,-380 8,-380 8,-114 8,-114 8,-108 14,-102 20,-102"/>
<text text-anchor="middle" x="273.5" y="-380.8" font-family="Helvetica,sans-Serif" font-weight="bold" font-size="9.00">src</text>
</g>
<g id="clust4" class="cluster"><title>cluster_src/SiDevice</title>
<path fill="#ffffff" stroke="black" stroke-width="2" d="M28,-110C28,-110 441,-110 441,-110 447,-110 453,-116 453,-122 453,-122 453,-314 453,-314 453,-320 447,-326 441,-326 441,-326 28,-326 28,-326 22,-326 16,-320 16,-314 16,-314 16,-122 16,-122 16,-116 22,-110 28,-110"/>
<text text-anchor="middle" x="234.5" y="-314.8" font-family="Helvetica,sans-Serif" font-weight="bold" font-size="9.00">SiDevice</text>
</g>
<g id="clust5" class="cluster"><title>cluster_src/SiDevice/drivers</title>
<path fill="#ffffff" stroke="black" stroke-width="2" d="M98,-158C98,-158 335.5,-158 335.5,-158 341.5,-158 347.5,-164 347.5,-170 347.5,-170 347.5,-228 347.5,-228 347.5,-234 341.5,-240 335.5,-240 335.5,-240 98,-240 98,-240 92,-240 86,-234 86,-228 86,-228 86,-170 86,-170 86,-164 92,-158 98,-158"/>
<text text-anchor="middle" x="216.75" y="-228.8" font-family="Helvetica,sans-Serif" font-weight="bold" font-size="9.00">drivers</text>
</g>
<g id="clust6" class="cluster"><title>cluster_src/SiDevice/testUtils</title>
<path fill="#ffffff" stroke="black" stroke-width="2" d="M105.5,-248C105.5,-248 327.5,-248 327.5,-248 333.5,-248 339.5,-254 339.5,-260 339.5,-260 339.5,-288 339.5,-288 339.5,-294 333.5,-300 327.5,-300 327.5,-300 105.5,-300 105.5,-300 99.5,-300 93.5,-294 93.5,-288 93.5,-288 93.5,-260 93.5,-260 93.5,-254 99.5,-248 105.5,-248"/>
<text text-anchor="middle" x="216.5" y="-288.8" font-family="Helvetica,sans-Serif" font-weight="bold" font-size="9.00">testUtils</text>
</g>
<g id="clust7" class="cluster"><title>cluster_src/utils</title>
<path fill="#ffffff" stroke="black" stroke-width="2" d="M473,-160C473,-160 519,-160 519,-160 525,-160 531,-166 531,-172 531,-172 531,-200 531,-200 531,-206 525,-212 519,-212 519,-212 473,-212 473,-212 467,-212 461,-206 461,-200 461,-200 461,-172 461,-172 461,-166 467,-160 473,-160"/>
<text text-anchor="middle" x="496" y="-200.8" font-family="Helvetica,sans-Serif" font-weight="bold" font-size="9.00">utils</text>
</g>
<!-- node_modules/lodash/lodash.js -->
<g id="node1" class="node"><title>node_modules/lodash/lodash.js</title>
<g id="a_node1"><a xlink:href="node_modules/lodash/lodash.js" xlink:title="lodash.js">
<polygon fill="#c40b0a" fill-opacity="0.101961" stroke="black" points="317,-42 315.5,-44 305,-44 303.5,-42 258,-42 258,-24 317,-24 317,-42"/>
<text text-anchor="middle" x="287.5" y="-30.8" font-family="Helvetica,sans-Serif" font-size="9.00" fill="#c40b0a">lodash.js</text>
</a>
</g>
</g>
<!-- src/SiDevice/BaseSiDevice.js -->
<g id="node2" class="node"><title>src/SiDevice/BaseSiDevice.js</title>
<g id="a_node2"><a xlink:href="src/SiDevice/BaseSiDevice.js" xlink:title="BaseSiDevice.js">
<path fill="#ffffcc" stroke="black" d="M439,-186C439,-186 362,-186 362,-186 359,-186 356,-183 356,-180 356,-180 356,-174 356,-174 356,-171 359,-168 362,-168 362,-168 439,-168 439,-168 442,-168 445,-171 445,-174 445,-174 445,-180 445,-180 445,-183 442,-186 439,-186"/>
<text text-anchor="middle" x="400.5" y="-174.8" font-family="Helvetica,sans-Serif" font-size="9.00">BaseSiDevice.js</text>
</a>
</g>
</g>
<!-- src/utils/index.js -->
<g id="node11" class="node"><title>src/utils/index.js</title>
<g id="a_node11"><a xlink:href="src/utils/index.js" xlink:title="index.js">
<path fill="#ffffcc" stroke="black" d="M517,-186C517,-186 475,-186 475,-186 472,-186 469,-183 469,-180 469,-180 469,-174 469,-174 469,-171 472,-168 475,-168 475,-168 517,-168 517,-168 520,-168 523,-171 523,-174 523,-174 523,-180 523,-180 523,-183 520,-186 517,-186"/>
<text text-anchor="middle" x="496" y="-174.8" font-family="Helvetica,sans-Serif" font-size="9.00">index.js</text>
</a>
</g>
</g>
<!-- src/SiDevice/BaseSiDevice.js&#45;&gt;src/utils/index.js -->
<g id="edge1" class="edge"><title>src/SiDevice/BaseSiDevice.js&#45;&gt;src/utils/index.js</title>
<path fill="none" stroke="#000000" stroke-width="2" stroke-opacity="0.466667" d="M445.239,-177C449.784,-177 454.367,-177 458.815,-177"/>
<polygon fill="#000000" fill-opacity="0.466667" stroke="#000000" stroke-width="2" stroke-opacity="0.466667" points="458.869,-180.5 468.869,-177 458.869,-173.5 458.869,-180.5"/>
</g>
<!-- src/SiDevice/BaseSiDevice.test.js -->
<g id="node3" class="node"><title>src/SiDevice/BaseSiDevice.test.js</title>
<g id="a_node3"><a xlink:href="src/SiDevice/BaseSiDevice.test.js" xlink:title="BaseSiDevice.test.js">
<path fill="#ffffcc" stroke="black" d="M337,-150C337,-150 238,-150 238,-150 235,-150 232,-147 232,-144 232,-144 232,-138 232,-138 232,-135 235,-132 238,-132 238,-132 337,-132 337,-132 340,-132 343,-135 343,-138 343,-138 343,-144 343,-144 343,-147 340,-150 337,-150"/>
<text text-anchor="middle" x="287.5" y="-138.8" font-family="Helvetica,sans-Serif" font-size="9.00">BaseSiDevice.test.js</text>
</a>
</g>
</g>
<!-- src/SiDevice/BaseSiDevice.test.js&#45;&gt;src/SiDevice/BaseSiDevice.js -->
<g id="edge4" class="edge"><title>src/SiDevice/BaseSiDevice.test.js&#45;&gt;src/SiDevice/BaseSiDevice.js</title>
<path fill="none" stroke="#000000" stroke-width="2" stroke-opacity="0.466667" d="M330.324,-150.005C336.136,-151.523 341.998,-153.197 347.5,-155 355.143,-157.504 363.228,-160.663 370.687,-163.799"/>
<polygon fill="#000000" fill-opacity="0.466667" stroke="#000000" stroke-width="2" stroke-opacity="0.466667" points="369.475,-167.088 380.042,-167.853 372.258,-160.666 369.475,-167.088"/>
</g>
<!-- src/testUtils.js -->
<g id="node10" class="node"><title>src/testUtils.js</title>
<g id="a_node10"><a xlink:href="src/testUtils.js" xlink:title="testUtils.js">
<path fill="#ffffcc" stroke="black" d="M427.5,-352C427.5,-352 373.5,-352 373.5,-352 370.5,-352 367.5,-349 367.5,-346 367.5,-346 367.5,-340 367.5,-340 367.5,-337 370.5,-334 373.5,-334 373.5,-334 427.5,-334 427.5,-334 430.5,-334 433.5,-337 433.5,-340 433.5,-340 433.5,-346 433.5,-346 433.5,-349 430.5,-352 427.5,-352"/>
<text text-anchor="middle" x="400.5" y="-340.8" font-family="Helvetica,sans-Serif" font-size="9.00">testUtils.js</text>
</a>
</g>
</g>
<!-- src/SiDevice/BaseSiDevice.test.js&#45;&gt;src/testUtils.js -->
<g id="edge2" class="edge"><title>src/SiDevice/BaseSiDevice.test.js&#45;&gt;src/testUtils.js</title>
<path fill="none" stroke="#000000" stroke-width="2" stroke-opacity="0.466667" d="M342.558,-150.243C344.358,-151.64 346.02,-153.219 347.5,-155 372.241,-184.775 332.445,-298.278 356,-329 356.815,-330.062 357.711,-331.046 358.674,-331.955"/>
<polygon fill="#000000" fill-opacity="0.466667" stroke="#000000" stroke-width="2" stroke-opacity="0.466667" points="356.878,-334.964 367.142,-337.59 360.755,-329.136 356.878,-334.964"/>
</g>
<!-- src/SiDevice/BaseSiDevice.test.js&#45;&gt;src/utils/index.js -->
<g id="edge3" class="edge"><title>src/SiDevice/BaseSiDevice.test.js&#45;&gt;src/utils/index.js</title>
<path fill="none" stroke="#000000" stroke-width="2" stroke-opacity="0.466667" d="M343.118,-144.992C375.393,-148.087 416.881,-153.352 453,-162 456.238,-162.775 459.573,-163.713 462.881,-164.737"/>
<polygon fill="#000000" fill-opacity="0.466667" stroke="#000000" stroke-width="2" stroke-opacity="0.466667" points="462.008,-168.136 472.602,-167.992 464.231,-161.498 462.008,-168.136"/>
</g>
<!-- src/SiDevice/drivers/WebUsbSiDevice.js -->
<g id="node4" class="node"><title>src/SiDevice/drivers/WebUsbSiDevice.js</title>
<g id="a_node4"><a xlink:href="src/SiDevice/drivers/WebUsbSiDevice.js" xlink:title="WebUsbSiDevice.js">
<path fill="#ffffcc" stroke="black" d="M333.5,-186C333.5,-186 241.5,-186 241.5,-186 238.5,-186 235.5,-183 235.5,-180 235.5,-180 235.5,-174 235.5,-174 235.5,-171 238.5,-168 241.5,-168 241.5,-168 333.5,-168 333.5,-168 336.5,-168 339.5,-171 339.5,-174 339.5,-174 339.5,-180 339.5,-180 339.5,-183 336.5,-186 333.5,-186"/>
<text text-anchor="middle" x="287.5" y="-174.8" font-family="Helvetica,sans-Serif" font-size="9.00">WebUsbSiDevice.js</text>
</a>
</g>
</g>
<!-- src/SiDevice/drivers/WebUsbSiDevice.js&#45;&gt;src/SiDevice/BaseSiDevice.js -->
<g id="edge5" class="edge"><title>src/SiDevice/drivers/WebUsbSiDevice.js&#45;&gt;src/SiDevice/BaseSiDevice.js</title>
<path fill="none" stroke="#000000" stroke-width="2" stroke-opacity="0.466667" d="M339.776,-177C341.695,-177 343.621,-177 345.544,-177"/>
<polygon fill="#000000" fill-opacity="0.466667" stroke="#000000" stroke-width="2" stroke-opacity="0.466667" points="345.753,-180.5 355.753,-177 345.753,-173.5 345.753,-180.5"/>
</g>
<!-- src/SiDevice/drivers/WebUsbSiDevice.test.js -->
<g id="node5" class="node"><title>src/SiDevice/drivers/WebUsbSiDevice.test.js</title>
<g id="a_node5"><a xlink:href="src/SiDevice/drivers/WebUsbSiDevice.test.js" xlink:title="WebUsbSiDevice.test.js">
<path fill="#ffffcc" stroke="black" d="M213,-214C213,-214 100,-214 100,-214 97,-214 94,-211 94,-208 94,-208 94,-202 94,-202 94,-199 97,-196 100,-196 100,-196 213,-196 213,-196 216,-196 219,-199 219,-202 219,-202 219,-208 219,-208 219,-211 216,-214 213,-214"/>
<text text-anchor="middle" x="156.5" y="-202.8" font-family="Helvetica,sans-Serif" font-size="9.00">WebUsbSiDevice.test.js</text>
</a>
</g>
</g>
<!-- src/SiDevice/drivers/WebUsbSiDevice.test.js&#45;&gt;src/SiDevice/BaseSiDevice.js -->
<g id="edge8" class="edge"><title>src/SiDevice/drivers/WebUsbSiDevice.test.js&#45;&gt;src/SiDevice/BaseSiDevice.js</title>
<path fill="none" stroke="#000000" stroke-width="2" stroke-opacity="0.466667" d="M219.081,-204.094C256.465,-202.726 305.008,-199.494 347.5,-192 349.094,-191.719 353.597,-190.502 359.328,-188.874"/>
<polygon fill="#000000" fill-opacity="0.466667" stroke="#000000" stroke-width="2" stroke-opacity="0.466667" points="360.466,-192.189 369.103,-186.053 358.524,-185.464 360.466,-192.189"/>
</g>
<!-- src/SiDevice/drivers/WebUsbSiDevice.test.js&#45;&gt;src/SiDevice/drivers/WebUsbSiDevice.js -->
<g id="edge9" class="edge"><title>src/SiDevice/drivers/WebUsbSiDevice.test.js&#45;&gt;src/SiDevice/drivers/WebUsbSiDevice.js</title>
<path fill="none" stroke="#000000" stroke-width="2" stroke-opacity="0.466667" d="M199.026,-195.986C210.42,-193.514 222.913,-190.802 234.802,-188.221"/>
<polygon fill="#000000" fill-opacity="0.466667" stroke="#000000" stroke-width="2" stroke-opacity="0.466667" points="235.579,-191.634 244.609,-186.093 234.094,-184.793 235.579,-191.634"/>
</g>
<!-- src/SiDevice/drivers/WebUsbSiDevice.test.js&#45;&gt;src/testUtils.js -->
<g id="edge6" class="edge"><title>src/SiDevice/drivers/WebUsbSiDevice.test.js&#45;&gt;src/testUtils.js</title>
<path fill="none" stroke="#000000" stroke-width="2" stroke-opacity="0.466667" d="M179.453,-214.046C192.867,-220.682 209.26,-230.985 219,-245 234.075,-266.693 213.451,-284.191 232,-303 264.525,-335.981 319.033,-343.693 357.002,-344.641"/>
<polygon fill="#000000" fill-opacity="0.466667" stroke="#000000" stroke-width="2" stroke-opacity="0.466667" points="357.206,-348.143 367.24,-344.744 357.276,-341.143 357.206,-348.143"/>
</g>
<!-- src/SiDevice/drivers/WebUsbSiDevice.test.js&#45;&gt;src/utils/index.js -->
<g id="edge7" class="edge"><title>src/SiDevice/drivers/WebUsbSiDevice.test.js&#45;&gt;src/utils/index.js</title>
<path fill="none" stroke="#000000" stroke-width="2" stroke-opacity="0.466667" d="M180.512,-214.043C193.983,-220.575 210.054,-230.765 219,-245 243.082,-283.32 199.749,-314.247 232,-346 302.133,-415.049 376.016,-421.317 453,-360 478.512,-339.68 489.803,-239.303 493.517,-196.449"/>
<polygon fill="#000000" fill-opacity="0.466667" stroke="#000000" stroke-width="2" stroke-opacity="0.466667" points="497.009,-196.688 494.336,-186.436 490.032,-196.118 497.009,-196.688"/>
</g>
<!-- src/SiDevice/drivers/index.js -->
<g id="node6" class="node"><title>src/SiDevice/drivers/index.js</title>
<g id="a_node6"><a xlink:href="src/SiDevice/drivers/index.js" xlink:title="index.js">
<path fill="#ffffcc" stroke="black" d="M177.5,-184C177.5,-184 135.5,-184 135.5,-184 132.5,-184 129.5,-181 129.5,-178 129.5,-178 129.5,-172 129.5,-172 129.5,-169 132.5,-166 135.5,-166 135.5,-166 177.5,-166 177.5,-166 180.5,-166 183.5,-169 183.5,-172 183.5,-172 183.5,-178 183.5,-178 183.5,-181 180.5,-184 177.5,-184"/>
<text text-anchor="middle" x="156.5" y="-172.8" font-family="Helvetica,sans-Serif" font-size="9.00">index.js</text>
</a>
</g>
</g>
<!-- src/SiDevice/drivers/index.js&#45;&gt;src/SiDevice/drivers/WebUsbSiDevice.js -->
<g id="edge10" class="edge"><title>src/SiDevice/drivers/index.js&#45;&gt;src/SiDevice/drivers/WebUsbSiDevice.js</title>
<path fill="none" stroke="#000000" stroke-width="2" stroke-opacity="0.466667" d="M183.605,-175.405C195.688,-175.592 210.598,-175.823 225.28,-176.051"/>
<polygon fill="#000000" fill-opacity="0.466667" stroke="#000000" stroke-width="2" stroke-opacity="0.466667" points="225.318,-179.552 235.371,-176.207 225.427,-172.553 225.318,-179.552"/>
</g>
<!-- src/SiDevice/index.js -->
<g id="node7" class="node"><title>src/SiDevice/index.js</title>
<g id="a_node7"><a xlink:href="src/SiDevice/index.js" xlink:title="index.js">
<path fill="#ffffcc" stroke="black" d="M72,-160C72,-160 30,-160 30,-160 27,-160 24,-157 24,-154 24,-154 24,-148 24,-148 24,-145 27,-142 30,-142 30,-142 72,-142 72,-142 75,-142 78,-145 78,-148 78,-148 78,-154 78,-154 78,-157 75,-160 72,-160"/>
<text text-anchor="middle" x="51" y="-148.8" font-family="Helvetica,sans-Serif" font-size="9.00">index.js</text>
</a>
</g>
</g>
<!-- src/SiDevice/index.js&#45;&gt;src/SiDevice/BaseSiDevice.js -->
<g id="edge11" class="edge"><title>src/SiDevice/index.js&#45;&gt;src/SiDevice/BaseSiDevice.js</title>
<path fill="none" stroke="#000000" stroke-width="2" stroke-opacity="0.466667" d="M75.7078,-141.933C127.337,-123.668 252.892,-87.3491 347.5,-126 363.917,-132.707 377.954,-147.372 387.29,-159.263"/>
<polygon fill="#000000" fill-opacity="0.466667" stroke="#000000" stroke-width="2" stroke-opacity="0.466667" points="384.719,-161.673 393.475,-167.637 390.349,-157.514 384.719,-161.673"/>
</g>
<!-- src/SiDevice/index.js&#45;&gt;src/SiDevice/drivers/index.js -->
<g id="edge12" class="edge"><title>src/SiDevice/index.js&#45;&gt;src/SiDevice/drivers/index.js</title>
<path fill="none" stroke="#000000" stroke-width="2" stroke-opacity="0.466667" d="M78.2607,-159.863C80.8627,-160.631 83.4746,-161.358 86,-162 96.7286,-164.727 108.523,-167.146 119.301,-169.135"/>
<polygon fill="#000000" fill-opacity="0.466667" stroke="#000000" stroke-width="2" stroke-opacity="0.466667" points="118.796,-172.601 129.255,-170.907 120.023,-165.709 118.796,-172.601"/>
</g>
<!-- src/SiDevice/testUtils/FakeSiDevice.js -->
<g id="node8" class="node"><title>src/SiDevice/testUtils/FakeSiDevice.js</title>
<g id="a_node8"><a xlink:href="src/SiDevice/testUtils/FakeSiDevice.js" xlink:title="FakeSiDevice.js">
<path fill="#ffffcc" stroke="black" d="M325.5,-274C325.5,-274 249.5,-274 249.5,-274 246.5,-274 243.5,-271 243.5,-268 243.5,-268 243.5,-262 243.5,-262 243.5,-259 246.5,-256 249.5,-256 249.5,-256 325.5,-256 325.5,-256 328.5,-256 331.5,-259 331.5,-262 331.5,-262 331.5,-268 331.5,-268 331.5,-271 328.5,-274 325.5,-274"/>
<text text-anchor="middle" x="287.5" y="-262.8" font-family="Helvetica,sans-Serif" font-size="9.00">FakeSiDevice.js</text>
</a>
</g>
</g>
<!-- src/SiDevice/testUtils/FakeSiDevice.js&#45;&gt;src/SiDevice/BaseSiDevice.js -->
<g id="edge14" class="edge"><title>src/SiDevice/testUtils/FakeSiDevice.js&#45;&gt;src/SiDevice/BaseSiDevice.js</title>
<path fill="none" stroke="#000000" stroke-width="2" stroke-opacity="0.466667" d="M329.901,-255.996C336.604,-252.872 342.858,-248.665 347.5,-243 360.612,-226.998 345.549,-212.384 354.277,-194.59"/>
<polygon fill="#000000" fill-opacity="0.466667" stroke="#000000" stroke-width="2" stroke-opacity="0.466667" points="357.297,-196.378 360.148,-186.174 351.556,-192.373 357.297,-196.378"/>
</g>
<!-- src/SiDevice/testUtils/FakeSiDevice.js&#45;&gt;src/testUtils.js -->
<g id="edge13" class="edge"><title>src/SiDevice/testUtils/FakeSiDevice.js&#45;&gt;src/testUtils.js</title>
<path fill="none" stroke="#000000" stroke-width="2" stroke-opacity="0.466667" d="M331.676,-268.167C337.623,-270.298 343.167,-273.436 347.5,-278 363.323,-294.664 340.981,-311.608 356,-329 356.752,-329.871 357.558,-330.688 358.41,-331.454"/>
<polygon fill="#000000" fill-opacity="0.466667" stroke="#000000" stroke-width="2" stroke-opacity="0.466667" points="356.79,-334.575 367.084,-337.08 360.599,-328.702 356.79,-334.575"/>
</g>
<!-- src/SiDevice/testUtils/FakeSiDevice.test.js -->
<g id="node9" class="node"><title>src/SiDevice/testUtils/FakeSiDevice.test.js</title>
<g id="a_node9"><a xlink:href="src/SiDevice/testUtils/FakeSiDevice.test.js" xlink:title="FakeSiDevice.test.js">
<path fill="#ffffcc" stroke="black" d="M205.5,-274C205.5,-274 107.5,-274 107.5,-274 104.5,-274 101.5,-271 101.5,-268 101.5,-268 101.5,-262 101.5,-262 101.5,-259 104.5,-256 107.5,-256 107.5,-256 205.5,-256 205.5,-256 208.5,-256 211.5,-259 211.5,-262 211.5,-262 211.5,-268 211.5,-268 211.5,-271 208.5,-274 205.5,-274"/>
<text text-anchor="middle" x="156.5" y="-262.8" font-family="Helvetica,sans-Serif" font-size="9.00">FakeSiDevice.test.js</text>
</a>
</g>
</g>
<!-- src/SiDevice/testUtils/FakeSiDevice.test.js&#45;&gt;node_modules/lodash/lodash.js -->
<g id="edge17" class="edge"><title>src/SiDevice/testUtils/FakeSiDevice.test.js&#45;&gt;node_modules/lodash/lodash.js</title>
<path fill="none" stroke="#000000" stroke-width="2" stroke-opacity="0.466667" d="M202.179,-255.955C208.66,-252.834 214.613,-248.638 219,-243 237.645,-219.04 221.162,-135.359 232,-107 240.475,-84.8232 257.511,-63.4264 270.292,-49.395"/>
<polygon fill="#000000" fill-opacity="0.466667" stroke="#000000" stroke-width="2" stroke-opacity="0.466667" points="272.917,-51.7124 277.228,-42.0345 267.823,-46.9115 272.917,-51.7124"/>
</g>
<!-- src/SiDevice/testUtils/FakeSiDevice.test.js&#45;&gt;src/SiDevice/testUtils/FakeSiDevice.js -->
<g id="edge16" class="edge"><title>src/SiDevice/testUtils/FakeSiDevice.test.js&#45;&gt;src/SiDevice/testUtils/FakeSiDevice.js</title>
<path fill="none" stroke="#000000" stroke-width="2" stroke-opacity="0.466667" d="M211.834,-265C218.866,-265 226.063,-265 233.08,-265"/>
<polygon fill="#000000" fill-opacity="0.466667" stroke="#000000" stroke-width="2" stroke-opacity="0.466667" points="233.192,-268.5 243.192,-265 233.192,-261.5 233.192,-268.5"/>
</g>
<!-- src/SiDevice/testUtils/FakeSiDevice.test.js&#45;&gt;src/testUtils.js -->
<g id="edge15" class="edge"><title>src/SiDevice/testUtils/FakeSiDevice.test.js&#45;&gt;src/testUtils.js</title>
<path fill="none" stroke="#000000" stroke-width="2" stroke-opacity="0.466667" d="M165.082,-274.129C177.436,-288.274 203.418,-315.095 232,-327 272.079,-343.693 322.078,-346.396 356.97,-345.727"/>
<polygon fill="#000000" fill-opacity="0.466667" stroke="#000000" stroke-width="2" stroke-opacity="0.466667" points="357.393,-349.216 367.286,-345.423 357.187,-342.219 357.393,-349.216"/>
</g>
</g>
</svg>
