<?xml version="1.0" encoding="UTF-8" standalone="no"?>
<!DOCTYPE svg PUBLIC "-//W3C//DTD SVG 1.1//EN"
 "http://www.w3.org/Graphics/SVG/1.1/DTD/svg11.dtd">
<!-- Generated by graphviz version 2.38.0 (20140413.2041)
 -->
<!-- Title: dependency&#45;cruiser output Pages: 1 -->
<svg width="601pt" height="918pt"
 viewBox="0.00 0.00 601.00 918.39" xmlns="http://www.w3.org/2000/svg" xmlns:xlink="http://www.w3.org/1999/xlink">
<g id="graph0" class="graph" transform="scale(1 1) rotate(0) translate(4 914.389)">
<title>dependency&#45;cruiser output</title>
<polygon fill="white" stroke="none" points="-4,4 -4,-914.389 597,-914.389 597,4 -4,4"/>
<g id="clust1" class="cluster"><title>cluster_node_modules</title>
<path fill="#ffffff" stroke="black" stroke-width="2" d="M378.5,-482.389C378.5,-482.389 478.5,-482.389 478.5,-482.389 484.5,-482.389 490.5,-488.389 490.5,-494.389 490.5,-494.389 490.5,-890.389 490.5,-890.389 490.5,-896.389 484.5,-902.389 478.5,-902.389 478.5,-902.389 378.5,-902.389 378.5,-902.389 372.5,-902.389 366.5,-896.389 366.5,-890.389 366.5,-890.389 366.5,-494.389 366.5,-494.389 366.5,-488.389 372.5,-482.389 378.5,-482.389"/>
<text text-anchor="middle" x="428.5" y="-891.189" font-family="Helvetica,sans-Serif" font-weight="bold" font-size="9.00">node_modules</text>
</g>
<g id="clust2" class="cluster"><title>cluster_node_modules/immutable</title>
<path fill="#ffffff" stroke="black" stroke-width="2" d="M386.5,-550.389C386.5,-550.389 470.5,-550.389 470.5,-550.389 476.5,-550.389 482.5,-556.389 482.5,-562.389 482.5,-562.389 482.5,-624.389 482.5,-624.389 482.5,-630.389 476.5,-636.389 470.5,-636.389 470.5,-636.389 386.5,-636.389 386.5,-636.389 380.5,-636.389 374.5,-630.389 374.5,-624.389 374.5,-624.389 374.5,-562.389 374.5,-562.389 374.5,-556.389 380.5,-550.389 386.5,-550.389"/>
<text text-anchor="middle" x="428.5" y="-625.189" font-family="Helvetica,sans-Serif" font-weight="bold" font-size="9.00">immutable</text>
</g>
<g id="clust3" class="cluster"><title>cluster_node_modules/immutable/dist</title>
<path fill="#ffffff" stroke="black" stroke-width="2" d="M394.5,-558.389C394.5,-558.389 462.5,-558.389 462.5,-558.389 468.5,-558.389 474.5,-564.389 474.5,-570.389 474.5,-570.389 474.5,-598.389 474.5,-598.389 474.5,-604.389 468.5,-610.389 462.5,-610.389 462.5,-610.389 394.5,-610.389 394.5,-610.389 388.5,-610.389 382.5,-604.389 382.5,-598.389 382.5,-598.389 382.5,-570.389 382.5,-570.389 382.5,-564.389 388.5,-558.389 394.5,-558.389"/>
<text text-anchor="middle" x="428.5" y="-599.189" font-family="Helvetica,sans-Serif" font-weight="bold" font-size="9.00">dist</text>
</g>
<g id="clust4" class="cluster"><title>cluster_node_modules/lodash</title>
<path fill="#ffffff" stroke="black" stroke-width="2" d="M403,-490.389C403,-490.389 454,-490.389 454,-490.389 460,-490.389 466,-496.389 466,-502.389 466,-502.389 466,-530.389 466,-530.389 466,-536.389 460,-542.389 454,-542.389 454,-542.389 403,-542.389 403,-542.389 397,-542.389 391,-536.389 391,-530.389 391,-530.389 391,-502.389 391,-502.389 391,-496.389 397,-490.389 403,-490.389"/>
<text text-anchor="middle" x="428.5" y="-531.189" font-family="Helvetica,sans-Serif" font-weight="bold" font-size="9.00">lodash</text>
</g>
<g id="clust5" class="cluster"><title>cluster_node_modules/prop&#45;types</title>
<path fill="#ffffff" stroke="black" stroke-width="2" d="M403.5,-704.389C403.5,-704.389 454.5,-704.389 454.5,-704.389 460.5,-704.389 466.5,-710.389 466.5,-716.389 466.5,-716.389 466.5,-744.389 466.5,-744.389 466.5,-750.389 460.5,-756.389 454.5,-756.389 454.5,-756.389 403.5,-756.389 403.5,-756.389 397.5,-756.389 391.5,-750.389 391.5,-744.389 391.5,-744.389 391.5,-716.389 391.5,-716.389 391.5,-710.389 397.5,-704.389 403.5,-704.389"/>
<text text-anchor="middle" x="429" y="-745.189" font-family="Helvetica,sans-Serif" font-weight="bold" font-size="9.00">prop&#45;types</text>
</g>
<g id="clust6" class="cluster"><title>cluster_node_modules/react&#45;dom</title>
<path fill="#ffffff" stroke="black" stroke-width="2" d="M405.5,-764.389C405.5,-764.389 452.5,-764.389 452.5,-764.389 458.5,-764.389 464.5,-770.389 464.5,-776.389 464.5,-776.389 464.5,-804.389 464.5,-804.389 464.5,-810.389 458.5,-816.389 452.5,-816.389 452.5,-816.389 405.5,-816.389 405.5,-816.389 399.5,-816.389 393.5,-810.389 393.5,-804.389 393.5,-804.389 393.5,-776.389 393.5,-776.389 393.5,-770.389 399.5,-764.389 405.5,-764.389"/>
<text text-anchor="middle" x="429" y="-805.189" font-family="Helvetica,sans-Serif" font-weight="bold" font-size="9.00">react&#45;dom</text>
</g>
<g id="clust7" class="cluster"><title>cluster_node_modules/react</title>
<path fill="#ffffff" stroke="black" stroke-width="2" d="M405.5,-644.389C405.5,-644.389 451.5,-644.389 451.5,-644.389 457.5,-644.389 463.5,-650.389 463.5,-656.389 463.5,-656.389 463.5,-684.389 463.5,-684.389 463.5,-690.389 457.5,-696.389 451.5,-696.389 451.5,-696.389 405.5,-696.389 405.5,-696.389 399.5,-696.389 393.5,-690.389 393.5,-684.389 393.5,-684.389 393.5,-656.389 393.5,-656.389 393.5,-650.389 399.5,-644.389 405.5,-644.389"/>
<text text-anchor="middle" x="428.5" y="-685.189" font-family="Helvetica,sans-Serif" font-weight="bold" font-size="9.00">react</text>
</g>
<g id="clust8" class="cluster"><title>cluster_node_modules/ws</title>
<path fill="#ffffff" stroke="black" stroke-width="2" d="M405.5,-824.389C405.5,-824.389 451.5,-824.389 451.5,-824.389 457.5,-824.389 463.5,-830.389 463.5,-836.389 463.5,-836.389 463.5,-864.389 463.5,-864.389 463.5,-870.389 457.5,-876.389 451.5,-876.389 451.5,-876.389 405.5,-876.389 405.5,-876.389 399.5,-876.389 393.5,-870.389 393.5,-864.389 393.5,-864.389 393.5,-836.389 393.5,-836.389 393.5,-830.389 399.5,-824.389 405.5,-824.389"/>
<text text-anchor="middle" x="428.5" y="-865.189" font-family="Helvetica,sans-Serif" font-weight="bold" font-size="9.00">ws</text>
</g>
<g id="clust9" class="cluster"><title>cluster_src</title>
<path fill="#ffffff" stroke="black" stroke-width="2" d="M527,-169.389C527,-169.389 573,-169.389 573,-169.389 579,-169.389 585,-175.389 585,-181.389 585,-181.389 585,-209.389 585,-209.389 585,-215.389 579,-221.389 573,-221.389 573,-221.389 527,-221.389 527,-221.389 521,-221.389 515,-215.389 515,-209.389 515,-209.389 515,-181.389 515,-181.389 515,-175.389 521,-169.389 527,-169.389"/>
<text text-anchor="middle" x="550" y="-210.189" font-family="Helvetica,sans-Serif" font-weight="bold" font-size="9.00">src</text>
</g>
<g id="clust10" class="cluster"><title>cluster_testbench</title>
<path fill="#ffffff" stroke="black" stroke-width="2" d="M20,-54.3892C20,-54.3892 495,-54.3892 495,-54.3892 501,-54.3892 507,-60.3892 507,-66.3892 507,-66.3892 507,-462.389 507,-462.389 507,-468.389 501,-474.389 495,-474.389 495,-474.389 20,-474.389 20,-474.389 14,-474.389 8,-468.389 8,-462.389 8,-462.389 8,-66.3892 8,-66.3892 8,-60.3892 14,-54.3892 20,-54.3892"/>
<text text-anchor="middle" x="257.5" y="-463.189" font-family="Helvetica,sans-Serif" font-weight="bold" font-size="9.00">testbench</text>
</g>
<g id="clust11" class="cluster"><title>cluster_testbench/client</title>
<path fill="#ffffff" stroke="black" stroke-width="2" d="M28,-62.3892C28,-62.3892 487,-62.3892 487,-62.3892 493,-62.3892 499,-68.3892 499,-74.3892 499,-74.3892 499,-376.389 499,-376.389 499,-382.389 493,-388.389 487,-388.389 487,-388.389 28,-388.389 28,-388.389 22,-388.389 16,-382.389 16,-376.389 16,-376.389 16,-74.3892 16,-74.3892 16,-68.3892 22,-62.3892 28,-62.3892"/>
<text text-anchor="middle" x="257.5" y="-377.189" font-family="Helvetica,sans-Serif" font-weight="bold" font-size="9.00">client</text>
</g>
<g id="clust12" class="cluster"><title>cluster_testbench/client/commands</title>
<path fill="#ffffff" stroke="black" stroke-width="2" d="M259,-70.3892C259,-70.3892 346,-70.3892 346,-70.3892 352,-70.3892 358,-76.3892 358,-82.3892 358,-82.3892 358,-350.389 358,-350.389 358,-356.389 352,-362.389 346,-362.389 346,-362.389 259,-362.389 259,-362.389 253,-362.389 247,-356.389 247,-350.389 247,-350.389 247,-82.3892 247,-82.3892 247,-76.3892 253,-70.3892 259,-70.3892"/>
<text text-anchor="middle" x="302.5" y="-351.189" font-family="Helvetica,sans-Serif" font-weight="bold" font-size="9.00">commands</text>
</g>
<g id="clust13" class="cluster"><title>cluster_testbench/server</title>
<path fill="#ffffff" stroke="black" stroke-width="2" d="M28,-396.389C28,-396.389 74,-396.389 74,-396.389 80,-396.389 86,-402.389 86,-408.389 86,-408.389 86,-436.389 86,-436.389 86,-442.389 80,-448.389 74,-448.389 74,-448.389 28,-448.389 28,-448.389 22,-448.389 16,-442.389 16,-436.389 16,-436.389 16,-408.389 16,-408.389 16,-402.389 22,-396.389 28,-396.389"/>
<text text-anchor="middle" x="51" y="-437.189" font-family="Helvetica,sans-Serif" font-weight="bold" font-size="9.00">server</text>
</g>
<!-- net -->
<g id="node1" class="node"><title>net</title>
<path fill="#ffffcc" stroke="grey" d="M187.5,-46.3892C187.5,-46.3892 145.5,-46.3892 145.5,-46.3892 142.5,-46.3892 139.5,-43.3892 139.5,-40.3892 139.5,-40.3892 139.5,-34.3892 139.5,-34.3892 139.5,-31.3892 142.5,-28.3892 145.5,-28.3892 145.5,-28.3892 187.5,-28.3892 187.5,-28.3892 190.5,-28.3892 193.5,-31.3892 193.5,-34.3892 193.5,-34.3892 193.5,-40.3892 193.5,-40.3892 193.5,-43.3892 190.5,-46.3892 187.5,-46.3892"/>
<text text-anchor="middle" x="166.5" y="-35.1892" font-family="Helvetica,sans-Serif" font-size="9.00" fill="grey">net</text>
</g>
<!-- node_modules/immutable/dist/immutable.js -->
<g id="node2" class="node"><title>node_modules/immutable/dist/immutable.js</title>
<g id="a_node2"><a xlink:href="node_modules/immutable/dist/immutable.js" xlink:title="immutable.js">
<polygon fill="#c40b0a" fill-opacity="0.101961" stroke="black" points="466.5,-584.389 465,-586.389 454.5,-586.389 453,-584.389 390.5,-584.389 390.5,-566.389 466.5,-566.389 466.5,-584.389"/>
<text text-anchor="middle" x="428.5" y="-573.189" font-family="Helvetica,sans-Serif" font-size="9.00" fill="#c40b0a">immutable.js</text>
</a>
</g>
</g>
<!-- node_modules/lodash/lodash.js -->
<g id="node3" class="node"><title>node_modules/lodash/lodash.js</title>
<g id="a_node3"><a xlink:href="node_modules/lodash/lodash.js" xlink:title="lodash.js">
<polygon fill="#c40b0a" fill-opacity="0.101961" stroke="black" points="458,-516.389 456.5,-518.389 446,-518.389 444.5,-516.389 399,-516.389 399,-498.389 458,-498.389 458,-516.389"/>
<text text-anchor="middle" x="428.5" y="-505.189" font-family="Helvetica,sans-Serif" font-size="9.00" fill="#c40b0a">lodash.js</text>
</a>
</g>
</g>
<!-- node_modules/prop&#45;types/index.js -->
<g id="node4" class="node"><title>node_modules/prop&#45;types/index.js</title>
<g id="a_node4"><a xlink:href="node_modules/prop-types/index.js" xlink:title="index.js">
<polygon fill="#c40b0a" fill-opacity="0.101961" stroke="black" points="455.5,-730.389 454,-732.389 443.5,-732.389 442,-730.389 401.5,-730.389 401.5,-712.389 455.5,-712.389 455.5,-730.389"/>
<text text-anchor="middle" x="428.5" y="-719.189" font-family="Helvetica,sans-Serif" font-size="9.00" fill="#c40b0a">index.js</text>
</a>
</g>
</g>
<!-- node_modules/react&#45;dom/index.js -->
<g id="node5" class="node"><title>node_modules/react&#45;dom/index.js</title>
<g id="a_node5"><a xlink:href="node_modules/react-dom/index.js" xlink:title="index.js">
<polygon fill="#c40b0a" fill-opacity="0.101961" stroke="black" points="455.5,-790.389 454,-792.389 443.5,-792.389 442,-790.389 401.5,-790.389 401.5,-772.389 455.5,-772.389 455.5,-790.389"/>
<text text-anchor="middle" x="428.5" y="-779.189" font-family="Helvetica,sans-Serif" font-size="9.00" fill="#c40b0a">index.js</text>
</a>
</g>
</g>
<!-- node_modules/react/index.js -->
<g id="node6" class="node"><title>node_modules/react/index.js</title>
<g id="a_node6"><a xlink:href="node_modules/react/index.js" xlink:title="index.js">
<polygon fill="#c40b0a" fill-opacity="0.101961" stroke="black" points="455.5,-670.389 454,-672.389 443.5,-672.389 442,-670.389 401.5,-670.389 401.5,-652.389 455.5,-652.389 455.5,-670.389"/>
<text text-anchor="middle" x="428.5" y="-659.189" font-family="Helvetica,sans-Serif" font-size="9.00" fill="#c40b0a">index.js</text>
</a>
</g>
</g>
<!-- node_modules/ws/index.js -->
<g id="node7" class="node"><title>node_modules/ws/index.js</title>
<g id="a_node7"><a xlink:href="node_modules/ws/index.js" xlink:title="index.js">
<polygon fill="#c40b0a" fill-opacity="0.101961" stroke="black" points="455.5,-850.389 454,-852.389 443.5,-852.389 442,-850.389 401.5,-850.389 401.5,-832.389 455.5,-832.389 455.5,-850.389"/>
<text text-anchor="middle" x="428.5" y="-839.189" font-family="Helvetica,sans-Serif" font-size="9.00" fill="#c40b0a">index.js</text>
</a>
</g>
</g>
<!-- src/index.js -->
<g id="node8" class="node"><title>src/index.js</title>
<g id="a_node8"><a xlink:href="src/index.js" xlink:title="index.js">
<path fill="#ffffcc" stroke="black" d="M571,-195.389C571,-195.389 529,-195.389 529,-195.389 526,-195.389 523,-192.389 523,-189.389 523,-189.389 523,-183.389 523,-183.389 523,-180.389 526,-177.389 529,-177.389 529,-177.389 571,-177.389 571,-177.389 574,-177.389 577,-180.389 577,-183.389 577,-183.389 577,-189.389 577,-189.389 577,-192.389 574,-195.389 571,-195.389"/>
<text text-anchor="middle" x="550" y="-184.189" font-family="Helvetica,sans-Serif" font-size="9.00">index.js</text>
</a>
</g>
</g>
<!-- testbench/client/MainStationList.js -->
<g id="node9" class="node"><title>testbench/client/MainStationList.js</title>
<g id="a_node9"><a xlink:href="testbench/client/MainStationList.js" xlink:title="MainStationList.js">
<path fill="#ffffcc" stroke="black" d="M209.5,-362.389C209.5,-362.389 123.5,-362.389 123.5,-362.389 120.5,-362.389 117.5,-359.389 117.5,-356.389 117.5,-356.389 117.5,-350.389 117.5,-350.389 117.5,-347.389 120.5,-344.389 123.5,-344.389 123.5,-344.389 209.5,-344.389 209.5,-344.389 212.5,-344.389 215.5,-347.389 215.5,-350.389 215.5,-350.389 215.5,-356.389 215.5,-356.389 215.5,-359.389 212.5,-362.389 209.5,-362.389"/>
<text text-anchor="middle" x="166.5" y="-351.189" font-family="Helvetica,sans-Serif" font-size="9.00">MainStationList.js</text>
</a>
</g>
</g>
<!-- testbench/client/MainStationList.js&#45;&gt;node_modules/prop&#45;types/index.js -->
<g id="edge1" class="edge"><title>testbench/client/MainStationList.js&#45;&gt;node_modules/prop&#45;types/index.js</title>
<path fill="none" stroke="#000000" stroke-width="2" stroke-opacity="0.466667" d="M168.137,-362.449C171.044,-398.068 185.692,-530.671 247,-615.389 282.349,-664.236 309.209,-657.963 358,-693.389 361.596,-696 362.086,-697.284 366,-699.389 374.054,-703.722 383.137,-707.508 391.801,-710.662"/>
<polygon fill="#000000" fill-opacity="0.466667" stroke="#000000" stroke-width="2" stroke-opacity="0.466667" points="390.734,-713.996 401.329,-713.95 393.018,-707.379 390.734,-713.996"/>
</g>
<!-- testbench/client/MainStationList.js&#45;&gt;node_modules/react/index.js -->
<g id="edge2" class="edge"><title>testbench/client/MainStationList.js&#45;&gt;node_modules/react/index.js</title>
<path fill="none" stroke="#000000" stroke-width="2" stroke-opacity="0.466667" d="M169.081,-362.744C174.637,-393.179 195.772,-490.895 247,-551.389 258.454,-564.915 355.415,-620.671 402.304,-647.216"/>
<polygon fill="#000000" fill-opacity="0.466667" stroke="#000000" stroke-width="2" stroke-opacity="0.466667" points="400.809,-650.392 411.237,-652.263 404.252,-644.297 400.809,-650.392"/>
</g>
<!-- testbench/client/SiExternalApplication.js -->
<g id="node10" class="node"><title>testbench/client/SiExternalApplication.js</title>
<g id="a_node10"><a xlink:href="testbench/client/SiExternalApplication.js" xlink:title="SiExternalApplication.js">
<path fill="#ffffcc" stroke="black" d="M485,-314.389C485,-314.389 372,-314.389 372,-314.389 369,-314.389 366,-311.389 366,-308.389 366,-308.389 366,-302.389 366,-302.389 366,-299.389 369,-296.389 372,-296.389 372,-296.389 485,-296.389 485,-296.389 488,-296.389 491,-299.389 491,-302.389 491,-302.389 491,-308.389 491,-308.389 491,-311.389 488,-314.389 485,-314.389"/>
<text text-anchor="middle" x="428.5" y="-303.189" font-family="Helvetica,sans-Serif" font-size="9.00">SiExternalApplication.js</text>
</a>
</g>
</g>
<!-- testbench/client/SiExternalApplication.js&#45;&gt;src/index.js -->
<g id="edge3" class="edge"><title>testbench/client/SiExternalApplication.js&#45;&gt;src/index.js</title>
<path fill="none" stroke="#000000" stroke-width="2" stroke-opacity="0.466667" d="M491.375,-296.881C497.027,-294.425 502.361,-291.316 507,-287.389 531.788,-266.406 542.201,-228.385 546.383,-205.454"/>
<polygon fill="#000000" fill-opacity="0.466667" stroke="#000000" stroke-width="2" stroke-opacity="0.466667" points="549.843,-205.978 547.971,-195.549 542.931,-204.869 549.843,-205.978"/>
</g>
<!-- testbench/client/Terminal.js -->
<g id="node11" class="node"><title>testbench/client/Terminal.js</title>
<g id="a_node11"><a xlink:href="testbench/client/Terminal.js" xlink:title="Terminal.js">
<path fill="#ffffcc" stroke="black" d="M193,-332.389C193,-332.389 140,-332.389 140,-332.389 137,-332.389 134,-329.389 134,-326.389 134,-326.389 134,-320.389 134,-320.389 134,-317.389 137,-314.389 140,-314.389 140,-314.389 193,-314.389 193,-314.389 196,-314.389 199,-317.389 199,-320.389 199,-320.389 199,-326.389 199,-326.389 199,-329.389 196,-332.389 193,-332.389"/>
<text text-anchor="middle" x="166.5" y="-321.189" font-family="Helvetica,sans-Serif" font-size="9.00">Terminal.js</text>
</a>
</g>
</g>
<!-- testbench/client/Terminal.js&#45;&gt;node_modules/prop&#45;types/index.js -->
<g id="edge5" class="edge"><title>testbench/client/Terminal.js&#45;&gt;node_modules/prop&#45;types/index.js</title>
<path fill="none" stroke="#000000" stroke-width="2" stroke-opacity="0.466667" d="M199.009,-321.802C213.393,-322.879 229.339,-326.959 239,-338.389 253.571,-355.629 236.02,-521.667 247,-541.389 275.961,-593.41 327.576,-565.21 358,-616.389 367.469,-632.317 354.615,-684.77 366,-699.389 372.323,-707.508 381.892,-712.636 391.61,-715.872"/>
<polygon fill="#000000" fill-opacity="0.466667" stroke="#000000" stroke-width="2" stroke-opacity="0.466667" points="390.694,-719.25 401.264,-718.519 392.545,-712.499 390.694,-719.25"/>
</g>
<!-- testbench/client/Terminal.js&#45;&gt;node_modules/react/index.js -->
<g id="edge6" class="edge"><title>testbench/client/Terminal.js&#45;&gt;node_modules/react/index.js</title>
<path fill="none" stroke="#000000" stroke-width="2" stroke-opacity="0.466667" d="M199.338,-321.861C213.618,-322.987 229.379,-327.091 239,-338.389 251.332,-352.871 235.887,-493.953 247,-509.389 277.911,-552.325 325.32,-510.783 358,-552.389 374.89,-573.892 352.432,-589.65 366,-613.389 374.004,-627.393 387.871,-638.756 400.413,-646.904"/>
<polygon fill="#000000" fill-opacity="0.466667" stroke="#000000" stroke-width="2" stroke-opacity="0.466667" points="398.848,-650.049 409.209,-652.261 402.489,-644.07 398.848,-650.049"/>
</g>
<!-- testbench/client/commands/index.js -->
<g id="node15" class="node"><title>testbench/client/commands/index.js</title>
<g id="a_node15"><a xlink:href="testbench/client/commands/index.js" xlink:title="index.js">
<path fill="#ffffcc" stroke="black" d="M323.5,-276.389C323.5,-276.389 281.5,-276.389 281.5,-276.389 278.5,-276.389 275.5,-273.389 275.5,-270.389 275.5,-270.389 275.5,-264.389 275.5,-264.389 275.5,-261.389 278.5,-258.389 281.5,-258.389 281.5,-258.389 323.5,-258.389 323.5,-258.389 326.5,-258.389 329.5,-261.389 329.5,-264.389 329.5,-264.389 329.5,-270.389 329.5,-270.389 329.5,-273.389 326.5,-276.389 323.5,-276.389"/>
<text text-anchor="middle" x="302.5" y="-265.189" font-family="Helvetica,sans-Serif" font-size="9.00">index.js</text>
</a>
</g>
</g>
<!-- testbench/client/Terminal.js&#45;&gt;testbench/client/commands/index.js -->
<g id="edge4" class="edge"><title>testbench/client/Terminal.js&#45;&gt;testbench/client/commands/index.js</title>
<path fill="none" stroke="#000000" stroke-width="2" stroke-opacity="0.466667" d="M199.232,-323.658C212.971,-322.174 228.318,-318.134 239,-308.389 247.932,-300.241 238.324,-290.809 247,-282.389 252.063,-277.476 258.58,-274.139 265.336,-271.881"/>
<polygon fill="#000000" fill-opacity="0.466667" stroke="#000000" stroke-width="2" stroke-opacity="0.466667" points="266.472,-275.201 275.262,-269.286 264.702,-268.429 266.472,-275.201"/>
</g>
<!-- testbench/client/WebUsbSiDevicesContext.js -->
<g id="node12" class="node"><title>testbench/client/WebUsbSiDevicesContext.js</title>
<g id="a_node12"><a xlink:href="testbench/client/WebUsbSiDevicesContext.js" xlink:title="WebUsbSiDevicesContext.js">
<path fill="#ffffcc" stroke="black" d="M233,-302.389C233,-302.389 100,-302.389 100,-302.389 97,-302.389 94,-299.389 94,-296.389 94,-296.389 94,-290.389 94,-290.389 94,-287.389 97,-284.389 100,-284.389 100,-284.389 233,-284.389 233,-284.389 236,-284.389 239,-287.389 239,-290.389 239,-290.389 239,-296.389 239,-296.389 239,-299.389 236,-302.389 233,-302.389"/>
<text text-anchor="middle" x="166.5" y="-291.189" font-family="Helvetica,sans-Serif" font-size="9.00">WebUsbSiDevicesContext.js</text>
</a>
</g>
</g>
<!-- testbench/client/WebUsbSiDevicesContext.js&#45;&gt;node_modules/immutable/dist/immutable.js -->
<g id="edge7" class="edge"><title>testbench/client/WebUsbSiDevicesContext.js&#45;&gt;node_modules/immutable/dist/immutable.js</title>
<path fill="none" stroke="#000000" stroke-width="2" stroke-opacity="0.466667" d="M232.111,-302.539C234.604,-304.227 236.921,-306.165 239,-308.389 256.47,-327.077 236.225,-342.188 247,-365.389 278.156,-432.474 326.762,-422.343 358,-489.389 368.618,-512.179 351.2,-525.066 366,-545.389 371.077,-552.36 378.22,-557.79 385.848,-561.993"/>
<polygon fill="#000000" fill-opacity="0.466667" stroke="#000000" stroke-width="2" stroke-opacity="0.466667" points="384.406,-565.183 394.933,-566.38 387.45,-558.879 384.406,-565.183"/>
</g>
<!-- testbench/client/WebUsbSiDevicesContext.js&#45;&gt;node_modules/react/index.js -->
<g id="edge8" class="edge"><title>testbench/client/WebUsbSiDevicesContext.js&#45;&gt;node_modules/react/index.js</title>
<path fill="none" stroke="#000000" stroke-width="2" stroke-opacity="0.466667" d="M232.63,-302.564C234.95,-304.251 237.092,-306.183 239,-308.389 257.786,-330.115 232.592,-412.543 247,-437.389 276.62,-488.468 327.983,-459.542 358,-510.389 369.671,-530.159 355.139,-593.163 366,-613.389 373.579,-627.504 387.285,-638.823 399.837,-646.917"/>
<polygon fill="#000000" fill-opacity="0.466667" stroke="#000000" stroke-width="2" stroke-opacity="0.466667" points="398.297,-650.075 408.669,-652.234 401.907,-644.077 398.297,-650.075"/>
</g>
<!-- testbench/client/commands/getInfo.js -->
<g id="node13" class="node"><title>testbench/client/commands/getInfo.js</title>
<g id="a_node13"><a xlink:href="testbench/client/commands/getInfo.js" xlink:title="getInfo.js">
<path fill="#ffffcc" stroke="black" d="M326.5,-336.389C326.5,-336.389 278.5,-336.389 278.5,-336.389 275.5,-336.389 272.5,-333.389 272.5,-330.389 272.5,-330.389 272.5,-324.389 272.5,-324.389 272.5,-321.389 275.5,-318.389 278.5,-318.389 278.5,-318.389 326.5,-318.389 326.5,-318.389 329.5,-318.389 332.5,-321.389 332.5,-324.389 332.5,-324.389 332.5,-330.389 332.5,-330.389 332.5,-333.389 329.5,-336.389 326.5,-336.389"/>
<text text-anchor="middle" x="302.5" y="-325.189" font-family="Helvetica,sans-Serif" font-size="9.00">getInfo.js</text>
</a>
</g>
</g>
<!-- testbench/client/commands/getInfo.js&#45;&gt;node_modules/lodash/lodash.js -->
<g id="edge10" class="edge"><title>testbench/client/commands/getInfo.js&#45;&gt;node_modules/lodash/lodash.js</title>
<path fill="none" stroke="#000000" stroke-width="2" stroke-opacity="0.466667" d="M309.82,-336.563C329.384,-364.962 389.195,-451.785 415.205,-489.542"/>
<polygon fill="#000000" fill-opacity="0.466667" stroke="#000000" stroke-width="2" stroke-opacity="0.466667" points="412.489,-491.769 421.044,-498.018 418.254,-487.797 412.489,-491.769"/>
</g>
<!-- testbench/client/commands/getInfo.js&#45;&gt;node_modules/react/index.js -->
<g id="edge11" class="edge"><title>testbench/client/commands/getInfo.js&#45;&gt;node_modules/react/index.js</title>
<path fill="none" stroke="#000000" stroke-width="2" stroke-opacity="0.466667" d="M307.573,-336.651C318.096,-361.063 346.187,-429.413 358,-489.389 363.336,-516.481 353.096,-588.977 366,-613.389 373.487,-627.553 387.186,-638.876 399.757,-646.959"/>
<polygon fill="#000000" fill-opacity="0.466667" stroke="#000000" stroke-width="2" stroke-opacity="0.466667" points="398.231,-650.125 408.607,-652.267 401.831,-644.122 398.231,-650.125"/>
</g>
<!-- testbench/client/commands/getInfo.js&#45;&gt;src/index.js -->
<g id="edge9" class="edge"><title>testbench/client/commands/getInfo.js&#45;&gt;src/index.js</title>
<path fill="none" stroke="#000000" stroke-width="2" stroke-opacity="0.466667" d="M332.744,-324.732C341.79,-322.601 351.164,-318.871 358,-312.389 366.159,-304.653 357.591,-295.853 366,-288.389 413.848,-245.918 455.145,-296.863 507,-259.389 525.276,-246.182 536.775,-222.395 543.029,-205.568"/>
<polygon fill="#000000" fill-opacity="0.466667" stroke="#000000" stroke-width="2" stroke-opacity="0.466667" points="546.48,-206.291 546.4,-195.697 539.856,-204.029 546.48,-206.291"/>
</g>
<!-- testbench/client/commands/getRemoteInfo.js -->
<g id="node14" class="node"><title>testbench/client/commands/getRemoteInfo.js</title>
<g id="a_node14"><a xlink:href="testbench/client/commands/getRemoteInfo.js" xlink:title="getRemoteInfo.js">
<path fill="#ffffcc" stroke="black" d="M344,-306.389C344,-306.389 261,-306.389 261,-306.389 258,-306.389 255,-303.389 255,-300.389 255,-300.389 255,-294.389 255,-294.389 255,-291.389 258,-288.389 261,-288.389 261,-288.389 344,-288.389 344,-288.389 347,-288.389 350,-291.389 350,-294.389 350,-294.389 350,-300.389 350,-300.389 350,-303.389 347,-306.389 344,-306.389"/>
<text text-anchor="middle" x="302.5" y="-295.189" font-family="Helvetica,sans-Serif" font-size="9.00">getRemoteInfo.js</text>
</a>
</g>
</g>
<!-- testbench/client/commands/getRemoteInfo.js&#45;&gt;node_modules/lodash/lodash.js -->
<g id="edge13" class="edge"><title>testbench/client/commands/getRemoteInfo.js&#45;&gt;node_modules/lodash/lodash.js</title>
<path fill="none" stroke="#000000" stroke-width="2" stroke-opacity="0.466667" d="M350.018,-305.604C353.003,-307.454 355.72,-309.691 358,-312.389 369.389,-325.867 360.883,-374.502 366,-391.389 377.285,-428.634 400.873,-467.796 415.333,-489.751"/>
<polygon fill="#000000" fill-opacity="0.466667" stroke="#000000" stroke-width="2" stroke-opacity="0.466667" points="412.6,-491.959 421.084,-498.306 418.409,-488.054 412.6,-491.959"/>
</g>
<!-- testbench/client/commands/getRemoteInfo.js&#45;&gt;node_modules/react/index.js -->
<g id="edge14" class="edge"><title>testbench/client/commands/getRemoteInfo.js&#45;&gt;node_modules/react/index.js</title>
<path fill="none" stroke="#000000" stroke-width="2" stroke-opacity="0.466667" d="M350.244,-305.42C353.178,-307.312 355.822,-309.608 358,-312.389 378.629,-338.729 350.928,-583.52 366,-613.389 373.217,-627.693 386.896,-639.026 399.523,-647.08"/>
<polygon fill="#000000" fill-opacity="0.466667" stroke="#000000" stroke-width="2" stroke-opacity="0.466667" points="398.038,-650.269 408.425,-652.361 401.61,-644.249 398.038,-650.269"/>
</g>
<!-- testbench/client/commands/getRemoteInfo.js&#45;&gt;src/index.js -->
<g id="edge12" class="edge"><title>testbench/client/commands/getRemoteInfo.js&#45;&gt;src/index.js</title>
<path fill="none" stroke="#000000" stroke-width="2" stroke-opacity="0.466667" d="M348.419,-288.35C351.84,-286.687 355.088,-284.719 358,-282.389 363.9,-277.669 360.072,-272.074 366,-267.389 416.833,-227.221 451.187,-263.289 507,-230.389 518.444,-223.643 528.783,-212.902 536.339,-203.722"/>
<polygon fill="#000000" fill-opacity="0.466667" stroke="#000000" stroke-width="2" stroke-opacity="0.466667" points="539.296,-205.621 542.676,-195.579 533.772,-201.321 539.296,-205.621"/>
</g>
<!-- testbench/client/commands/pipe.js -->
<g id="node16" class="node"><title>testbench/client/commands/pipe.js</title>
<g id="a_node16"><a xlink:href="testbench/client/commands/pipe.js" xlink:title="pipe.js">
<path fill="#ffffcc" stroke="black" d="M323.5,-246.389C323.5,-246.389 281.5,-246.389 281.5,-246.389 278.5,-246.389 275.5,-243.389 275.5,-240.389 275.5,-240.389 275.5,-234.389 275.5,-234.389 275.5,-231.389 278.5,-228.389 281.5,-228.389 281.5,-228.389 323.5,-228.389 323.5,-228.389 326.5,-228.389 329.5,-231.389 329.5,-234.389 329.5,-234.389 329.5,-240.389 329.5,-240.389 329.5,-243.389 326.5,-246.389 323.5,-246.389"/>
<text text-anchor="middle" x="302.5" y="-235.189" font-family="Helvetica,sans-Serif" font-size="9.00">pipe.js</text>
</a>
</g>
</g>
<!-- testbench/client/commands/pipe.js&#45;&gt;src/index.js -->
<g id="edge15" class="edge"><title>testbench/client/commands/pipe.js&#45;&gt;src/index.js</title>
<path fill="none" stroke="#000000" stroke-width="2" stroke-opacity="0.466667" d="M329.743,-235.853C369.039,-233.007 445.162,-225.369 507,-206.389 512.501,-204.701 518.193,-202.403 523.544,-199.966"/>
<polygon fill="#000000" fill-opacity="0.466667" stroke="#000000" stroke-width="2" stroke-opacity="0.466667" points="525.222,-203.042 532.693,-195.53 522.168,-196.744 525.222,-203.042"/>
</g>
<!-- testbench/client/commands/pipe.js&#45;&gt;testbench/client/SiExternalApplication.js -->
<g id="edge16" class="edge"><title>testbench/client/commands/pipe.js&#45;&gt;testbench/client/SiExternalApplication.js</title>
<path fill="none" stroke="#000000" stroke-width="2" stroke-opacity="0.466667" d="M329.753,-242.457C338.967,-244.79 349.207,-248.032 358,-252.389 377.592,-262.097 397.147,-277.668 410.5,-289.426"/>
<polygon fill="#000000" fill-opacity="0.466667" stroke="#000000" stroke-width="2" stroke-opacity="0.466667" points="408.193,-292.058 417.958,-296.168 412.887,-286.865 408.193,-292.058"/>
</g>
<!-- testbench/client/commands/send.js -->
<g id="node17" class="node"><title>testbench/client/commands/send.js</title>
<g id="a_node17"><a xlink:href="testbench/client/commands/send.js" xlink:title="send.js">
<path fill="#ffffcc" stroke="black" d="M323.5,-186.389C323.5,-186.389 281.5,-186.389 281.5,-186.389 278.5,-186.389 275.5,-183.389 275.5,-180.389 275.5,-180.389 275.5,-174.389 275.5,-174.389 275.5,-171.389 278.5,-168.389 281.5,-168.389 281.5,-168.389 323.5,-168.389 323.5,-168.389 326.5,-168.389 329.5,-171.389 329.5,-174.389 329.5,-174.389 329.5,-180.389 329.5,-180.389 329.5,-183.389 326.5,-186.389 323.5,-186.389"/>
<text text-anchor="middle" x="302.5" y="-175.189" font-family="Helvetica,sans-Serif" font-size="9.00">send.js</text>
</a>
</g>
</g>
<!-- testbench/client/commands/send.js&#45;&gt;src/index.js -->
<g id="edge17" class="edge"><title>testbench/client/commands/send.js&#45;&gt;src/index.js</title>
<path fill="none" stroke="#000000" stroke-width="2" stroke-opacity="0.466667" d="M329.773,-178.352C373.887,-179.97 462.91,-183.233 512.877,-185.065"/>
<polygon fill="#000000" fill-opacity="0.466667" stroke="#000000" stroke-width="2" stroke-opacity="0.466667" points="512.795,-188.564 522.916,-185.433 513.051,-181.569 512.795,-188.564"/>
</g>
<!-- testbench/client/commands/setInfo.js -->
<g id="node18" class="node"><title>testbench/client/commands/setInfo.js</title>
<g id="a_node18"><a xlink:href="testbench/client/commands/setInfo.js" xlink:title="setInfo.js">
<path fill="#ffffcc" stroke="black" d="M326,-156.389C326,-156.389 279,-156.389 279,-156.389 276,-156.389 273,-153.389 273,-150.389 273,-150.389 273,-144.389 273,-144.389 273,-141.389 276,-138.389 279,-138.389 279,-138.389 326,-138.389 326,-138.389 329,-138.389 332,-141.389 332,-144.389 332,-144.389 332,-150.389 332,-150.389 332,-153.389 329,-156.389 326,-156.389"/>
<text text-anchor="middle" x="302.5" y="-145.189" font-family="Helvetica,sans-Serif" font-size="9.00">setInfo.js</text>
</a>
</g>
</g>
<!-- testbench/client/commands/setInfo.js&#45;&gt;src/index.js -->
<g id="edge18" class="edge"><title>testbench/client/commands/setInfo.js&#45;&gt;src/index.js</title>
<path fill="none" stroke="#000000" stroke-width="2" stroke-opacity="0.466667" d="M332.241,-151.03C371.743,-156.169 444.973,-166.184 507,-177.389 508.926,-177.737 510.899,-178.108 512.889,-178.495"/>
<polygon fill="#000000" fill-opacity="0.466667" stroke="#000000" stroke-width="2" stroke-opacity="0.466667" points="512.343,-181.955 522.839,-180.51 513.732,-175.094 512.343,-181.955"/>
</g>
<!-- testbench/client/commands/setRemoteInfo.js -->
<g id="node19" class="node"><title>testbench/client/commands/setRemoteInfo.js</title>
<g id="a_node19"><a xlink:href="testbench/client/commands/setRemoteInfo.js" xlink:title="setRemoteInfo.js">
<path fill="#ffffcc" stroke="black" d="M344,-126.389C344,-126.389 261,-126.389 261,-126.389 258,-126.389 255,-123.389 255,-120.389 255,-120.389 255,-114.389 255,-114.389 255,-111.389 258,-108.389 261,-108.389 261,-108.389 344,-108.389 344,-108.389 347,-108.389 350,-111.389 350,-114.389 350,-114.389 350,-120.389 350,-120.389 350,-123.389 347,-126.389 344,-126.389"/>
<text text-anchor="middle" x="302.5" y="-115.189" font-family="Helvetica,sans-Serif" font-size="9.00">setRemoteInfo.js</text>
</a>
</g>
</g>
<!-- testbench/client/commands/setRemoteInfo.js&#45;&gt;src/index.js -->
<g id="edge19" class="edge"><title>testbench/client/commands/setRemoteInfo.js&#45;&gt;src/index.js</title>
<path fill="none" stroke="#000000" stroke-width="2" stroke-opacity="0.466667" d="M350.239,-119.207C392.753,-122.332 456.398,-130.759 507,-153.389 516.248,-157.525 525.252,-164.141 532.536,-170.367"/>
<polygon fill="#000000" fill-opacity="0.466667" stroke="#000000" stroke-width="2" stroke-opacity="0.466667" points="530.449,-173.199 540.208,-177.324 535.151,-168.014 530.449,-173.199"/>
</g>
<!-- testbench/client/commands/simulate.js -->
<g id="node20" class="node"><title>testbench/client/commands/simulate.js</title>
<g id="a_node20"><a xlink:href="testbench/client/commands/simulate.js" xlink:title="simulate.js">
<path fill="#ffffcc" stroke="black" d="M330,-216.389C330,-216.389 275,-216.389 275,-216.389 272,-216.389 269,-213.389 269,-210.389 269,-210.389 269,-204.389 269,-204.389 269,-201.389 272,-198.389 275,-198.389 275,-198.389 330,-198.389 330,-198.389 333,-198.389 336,-201.389 336,-204.389 336,-204.389 336,-210.389 336,-210.389 336,-213.389 333,-216.389 330,-216.389"/>
<text text-anchor="middle" x="302.5" y="-205.189" font-family="Helvetica,sans-Serif" font-size="9.00">simulate.js</text>
</a>
</g>
</g>
<!-- testbench/client/commands/simulate.js&#45;&gt;src/index.js -->
<g id="edge20" class="edge"><title>testbench/client/commands/simulate.js&#45;&gt;src/index.js</title>
<path fill="none" stroke="#000000" stroke-width="2" stroke-opacity="0.466667" d="M336.101,-204.601C381.816,-200.69 464.71,-193.599 512.458,-189.515"/>
<polygon fill="#000000" fill-opacity="0.466667" stroke="#000000" stroke-width="2" stroke-opacity="0.466667" points="512.992,-192.982 522.657,-188.643 512.395,-186.008 512.992,-192.982"/>
</g>
<!-- testbench/client/commands/simulate.js&#45;&gt;testbench/client/SiExternalApplication.js -->
<g id="edge21" class="edge"><title>testbench/client/commands/simulate.js&#45;&gt;testbench/client/SiExternalApplication.js</title>
<path fill="none" stroke="#000000" stroke-width="2" stroke-opacity="0.466667" d="M336.279,-212.975C343.791,-215.165 351.478,-218.198 358,-222.389 384.106,-239.164 405.447,-268.825 417.31,-287.773"/>
<polygon fill="#000000" fill-opacity="0.466667" stroke="#000000" stroke-width="2" stroke-opacity="0.466667" points="414.322,-289.596 422.489,-296.346 420.314,-285.977 414.322,-289.596"/>
</g>
<!-- testbench/client/commands/test.js -->
<g id="node21" class="node"><title>testbench/client/commands/test.js</title>
<g id="a_node21"><a xlink:href="testbench/client/commands/test.js" xlink:title="test.js">
<path fill="#ffffcc" stroke="black" d="M323.5,-96.3892C323.5,-96.3892 281.5,-96.3892 281.5,-96.3892 278.5,-96.3892 275.5,-93.3892 275.5,-90.3892 275.5,-90.3892 275.5,-84.3892 275.5,-84.3892 275.5,-81.3892 278.5,-78.3892 281.5,-78.3892 281.5,-78.3892 323.5,-78.3892 323.5,-78.3892 326.5,-78.3892 329.5,-81.3892 329.5,-84.3892 329.5,-84.3892 329.5,-90.3892 329.5,-90.3892 329.5,-93.3892 326.5,-96.3892 323.5,-96.3892"/>
<text text-anchor="middle" x="302.5" y="-85.1892" font-family="Helvetica,sans-Serif" font-size="9.00">test.js</text>
</a>
</g>
</g>
<!-- testbench/client/commands/test.js&#45;&gt;src/index.js -->
<g id="edge22" class="edge"><title>testbench/client/commands/test.js&#45;&gt;src/index.js</title>
<path fill="none" stroke="#000000" stroke-width="2" stroke-opacity="0.466667" d="M329.722,-84.7582C371.02,-81.9701 452.154,-82.1146 507,-118.389 524.491,-129.957 535.967,-151.565 542.435,-167.327"/>
<polygon fill="#000000" fill-opacity="0.466667" stroke="#000000" stroke-width="2" stroke-opacity="0.466667" points="539.321,-168.989 546.125,-177.11 545.871,-166.519 539.321,-168.989"/>
</g>
<!-- testbench/client/index.html -->
<g id="node22" class="node"><title>testbench/client/index.html</title>
<g id="a_node22"><a xlink:href="testbench/client/index.html" xlink:title="index.html">
<path fill="#ffffcc" stroke="black" d="M193,-242.389C193,-242.389 140,-242.389 140,-242.389 137,-242.389 134,-239.389 134,-236.389 134,-236.389 134,-230.389 134,-230.389 134,-227.389 137,-224.389 140,-224.389 140,-224.389 193,-224.389 193,-224.389 196,-224.389 199,-227.389 199,-230.389 199,-230.389 199,-236.389 199,-236.389 199,-239.389 196,-242.389 193,-242.389"/>
<text text-anchor="middle" x="166.5" y="-231.189" font-family="Helvetica,sans-Serif" font-size="9.00">index.html</text>
</a>
</g>
</g>
<!-- testbench/client/index.js -->
<g id="node23" class="node"><title>testbench/client/index.js</title>
<g id="a_node23"><a xlink:href="testbench/client/index.js" xlink:title="index.js">
<path fill="#ffffcc" stroke="black" d="M72,-332.389C72,-332.389 30,-332.389 30,-332.389 27,-332.389 24,-329.389 24,-326.389 24,-326.389 24,-320.389 24,-320.389 24,-317.389 27,-314.389 30,-314.389 30,-314.389 72,-314.389 72,-314.389 75,-314.389 78,-317.389 78,-320.389 78,-320.389 78,-326.389 78,-326.389 78,-329.389 75,-332.389 72,-332.389"/>
<text text-anchor="middle" x="51" y="-321.189" font-family="Helvetica,sans-Serif" font-size="9.00">index.js</text>
</a>
</g>
</g>
<!-- testbench/client/index.js&#45;&gt;node_modules/prop&#45;types/index.js -->
<g id="edge29" class="edge"><title>testbench/client/index.js&#45;&gt;node_modules/prop&#45;types/index.js</title>
<path fill="none" stroke="#000000" stroke-width="2" stroke-opacity="0.466667" d="M57.8167,-332.454C65.7793,-345.389 79.7918,-370.156 86,-393.389 92.5559,-417.924 82.2308,-484.885 94,-507.389 156.573,-627.036 319.228,-689.01 391.724,-711.416"/>
<polygon fill="#000000" fill-opacity="0.466667" stroke="#000000" stroke-width="2" stroke-opacity="0.466667" points="390.751,-714.778 401.335,-714.317 392.773,-708.077 390.751,-714.778"/>
</g>
<!-- testbench/client/index.js&#45;&gt;node_modules/react&#45;dom/index.js -->
<g id="edge31" class="edge"><title>testbench/client/index.js&#45;&gt;node_modules/react&#45;dom/index.js</title>
<path fill="none" stroke="#000000" stroke-width="2" stroke-opacity="0.466667" d="M57.9088,-332.43C65.9808,-345.337 80.1226,-370.07 86,-393.389 91.2183,-414.094 83.493,-566.801 94,-585.389 158.572,-699.623 318.854,-753.658 391.129,-772.842"/>
<polygon fill="#000000" fill-opacity="0.466667" stroke="#000000" stroke-width="2" stroke-opacity="0.466667" points="390.575,-776.313 401.132,-775.422 392.323,-769.535 390.575,-776.313"/>
</g>
<!-- testbench/client/index.js&#45;&gt;node_modules/react/index.js -->
<g id="edge30" class="edge"><title>testbench/client/index.js&#45;&gt;node_modules/react/index.js</title>
<path fill="none" stroke="#000000" stroke-width="2" stroke-opacity="0.466667" d="M56.0864,-332.636C73.3953,-370.777 144.519,-517.535 247,-595.389 290.657,-628.555 352.634,-646.336 391.427,-654.818"/>
<polygon fill="#000000" fill-opacity="0.466667" stroke="#000000" stroke-width="2" stroke-opacity="0.466667" points="390.737,-658.25 401.242,-656.874 392.172,-651.398 390.737,-658.25"/>
</g>
<!-- testbench/client/index.js&#45;&gt;src/index.js -->
<g id="edge23" class="edge"><title>testbench/client/index.js&#45;&gt;src/index.js</title>
<path fill="none" stroke="#000000" stroke-width="2" stroke-opacity="0.466667" d="M51.7556,-314.19C50.7412,-267.963 48.8227,-61.7004 94,-22.3892 168.47,42.4114 471.498,-51.2741 507,-81.3892 532.85,-103.317 542.936,-143.428 546.763,-167.221"/>
<polygon fill="#000000" fill-opacity="0.466667" stroke="#000000" stroke-width="2" stroke-opacity="0.466667" points="543.302,-167.739 548.149,-177.161 550.235,-166.773 543.302,-167.739"/>
</g>
<!-- testbench/client/index.js&#45;&gt;testbench/client/MainStationList.js -->
<g id="edge24" class="edge"><title>testbench/client/index.js&#45;&gt;testbench/client/MainStationList.js</title>
<path fill="none" stroke="#000000" stroke-width="2" stroke-opacity="0.466667" d="M75.8054,-332.526C81.7012,-334.612 88.0384,-336.708 94,-338.389 98.5662,-339.677 103.325,-340.909 108.122,-342.073"/>
<polygon fill="#000000" fill-opacity="0.466667" stroke="#000000" stroke-width="2" stroke-opacity="0.466667" points="107.44,-345.508 117.973,-344.366 109.026,-338.69 107.44,-345.508"/>
</g>
<!-- testbench/client/index.js&#45;&gt;testbench/client/Terminal.js -->
<g id="edge25" class="edge"><title>testbench/client/index.js&#45;&gt;testbench/client/Terminal.js</title>
<path fill="none" stroke="#000000" stroke-width="2" stroke-opacity="0.466667" d="M78.0392,-323.389C91.5459,-323.389 108.374,-323.389 123.651,-323.389"/>
<polygon fill="#000000" fill-opacity="0.466667" stroke="#000000" stroke-width="2" stroke-opacity="0.466667" points="123.92,-326.889 133.92,-323.389 123.92,-319.889 123.92,-326.889"/>
</g>
<!-- testbench/client/index.js&#45;&gt;testbench/client/WebUsbSiDevicesContext.js -->
<g id="edge26" class="edge"><title>testbench/client/index.js&#45;&gt;testbench/client/WebUsbSiDevicesContext.js</title>
<path fill="none" stroke="#000000" stroke-width="2" stroke-opacity="0.466667" d="M75.8054,-314.252C81.7012,-312.166 88.0384,-310.071 94,-308.389 98.5662,-307.101 103.325,-305.869 108.122,-304.705"/>
<polygon fill="#000000" fill-opacity="0.466667" stroke="#000000" stroke-width="2" stroke-opacity="0.466667" points="109.026,-308.088 117.973,-302.412 107.44,-301.27 109.026,-308.088"/>
</g>
<!-- testbench/client/index.js&#45;&gt;testbench/client/index.html -->
<g id="edge27" class="edge"><title>testbench/client/index.js&#45;&gt;testbench/client/index.html</title>
<path fill="none" stroke="#000000" stroke-width="2" stroke-opacity="0.466667" d="M54.3787,-314.352C59.0816,-298.358 71.1481,-265.175 94,-248.389 102.676,-242.016 113.458,-238.22 123.997,-235.993"/>
<polygon fill="#000000" fill-opacity="0.466667" stroke="#000000" stroke-width="2" stroke-opacity="0.466667" points="124.675,-239.428 133.949,-234.305 123.505,-232.527 124.675,-239.428"/>
</g>
<!-- testbench/client/styles.css -->
<g id="node24" class="node"><title>testbench/client/styles.css</title>
<g id="a_node24"><a xlink:href="testbench/client/styles.css" xlink:title="styles.css">
<path fill="#ffffcc" stroke="black" d="M191.5,-272.389C191.5,-272.389 141.5,-272.389 141.5,-272.389 138.5,-272.389 135.5,-269.389 135.5,-266.389 135.5,-266.389 135.5,-260.389 135.5,-260.389 135.5,-257.389 138.5,-254.389 141.5,-254.389 141.5,-254.389 191.5,-254.389 191.5,-254.389 194.5,-254.389 197.5,-257.389 197.5,-260.389 197.5,-260.389 197.5,-266.389 197.5,-266.389 197.5,-269.389 194.5,-272.389 191.5,-272.389"/>
<text text-anchor="middle" x="166.5" y="-261.189" font-family="Helvetica,sans-Serif" font-size="9.00">styles.css</text>
</a>
</g>
</g>
<!-- testbench/client/index.js&#45;&gt;testbench/client/styles.css -->
<g id="edge28" class="edge"><title>testbench/client/index.js&#45;&gt;testbench/client/styles.css</title>
<path fill="none" stroke="#000000" stroke-width="2" stroke-opacity="0.466667" d="M57.9326,-314.218C65.1599,-303.83 78.3604,-287.206 94,-278.389 103.461,-273.055 114.593,-269.612 125.22,-267.39"/>
<polygon fill="#000000" fill-opacity="0.466667" stroke="#000000" stroke-width="2" stroke-opacity="0.466667" points="125.952,-270.815 135.182,-265.613 124.722,-263.924 125.952,-270.815"/>
</g>
<!-- testbench/server/index.js -->
<g id="node25" class="node"><title>testbench/server/index.js</title>
<g id="a_node25"><a xlink:href="testbench/server/index.js" xlink:title="index.js">
<path fill="#ffffcc" stroke="black" d="M72,-422.389C72,-422.389 30,-422.389 30,-422.389 27,-422.389 24,-419.389 24,-416.389 24,-416.389 24,-410.389 24,-410.389 24,-407.389 27,-404.389 30,-404.389 30,-404.389 72,-404.389 72,-404.389 75,-404.389 78,-407.389 78,-410.389 78,-410.389 78,-416.389 78,-416.389 78,-419.389 75,-422.389 72,-422.389"/>
<text text-anchor="middle" x="51" y="-411.189" font-family="Helvetica,sans-Serif" font-size="9.00">index.js</text>
</a>
</g>
</g>
<!-- testbench/server/index.js&#45;&gt;net -->
<g id="edge32" class="edge"><title>testbench/server/index.js&#45;&gt;net</title>
<path fill="none" stroke="grey" d="M72.805,-404.376C78.0161,-401.075 82.9781,-396.788 86,-391.389 95.0115,-375.29 82.861,-74.0969 94,-59.3892 102.373,-48.3338 116.201,-42.6734 129.476,-39.8309"/>
<polygon fill="grey" stroke="grey" points="130.137,-43.2691 139.421,-38.1638 128.98,-36.3654 130.137,-43.2691"/>
</g>
<!-- testbench/server/index.js&#45;&gt;node_modules/ws/index.js -->
<g id="edge33" class="edge"><title>testbench/server/index.js&#45;&gt;node_modules/ws/index.js</title>
<path fill="none" stroke="#000000" stroke-width="2" stroke-opacity="0.466667" d="M51.7629,-422.421C50.6567,-471.769 47.8467,-708.451 94,-760.389 170.608,-846.6 322.03,-848.749 391.334,-844.669"/>
<polygon fill="#000000" fill-opacity="0.466667" stroke="#000000" stroke-width="2" stroke-opacity="0.466667" points="391.592,-848.16 401.337,-844.002 391.126,-841.175 391.592,-848.16"/>
</g>
</g>
</svg>
