<?xml version="1.0" encoding="UTF-8" standalone="no"?>
<!DOCTYPE svg PUBLIC "-//W3C//DTD SVG 1.1//EN"
 "http://www.w3.org/Graphics/SVG/1.1/DTD/svg11.dtd">
<!-- Generated by graphviz version 2.43.0 (0)
 -->
<!-- Title: dependency&#45;cruiser output Pages: 1 -->
<svg width="579pt" height="670pt"
 viewBox="0.00 0.00 579.00 670.00" xmlns="http://www.w3.org/2000/svg" xmlns:xlink="http://www.w3.org/1999/xlink">
<g id="graph0" class="graph" transform="scale(1 1) rotate(0) translate(4 666)">
<title>dependency&#45;cruiser output</title>
<polygon fill="white" stroke="transparent" points="-4,4 -4,-666 575,-666 575,4 -4,4"/>
<g id="clust1" class="cluster">
<title>cluster_node_modules</title>
<path fill="#ffffff" stroke="black" stroke-width="2" d="M262.5,-8C262.5,-8 361.5,-8 361.5,-8 367.5,-8 373.5,-14 373.5,-20 373.5,-20 373.5,-236 373.5,-236 373.5,-242 367.5,-248 361.5,-248 361.5,-248 262.5,-248 262.5,-248 256.5,-248 250.5,-242 250.5,-236 250.5,-236 250.5,-20 250.5,-20 250.5,-14 256.5,-8 262.5,-8"/>
<text text-anchor="middle" x="312" y="-236.8" font-family="Helvetica,sans-Serif" font-weight="bold" font-size="9.00">node_modules</text>
</g>
<g id="clust2" class="cluster">
<title>cluster_node_modules/immutable</title>
<path fill="#ffffff" stroke="black" stroke-width="2" d="M270.5,-136C270.5,-136 353.5,-136 353.5,-136 359.5,-136 365.5,-142 365.5,-148 365.5,-148 365.5,-210 365.5,-210 365.5,-216 359.5,-222 353.5,-222 353.5,-222 270.5,-222 270.5,-222 264.5,-222 258.5,-216 258.5,-210 258.5,-210 258.5,-148 258.5,-148 258.5,-142 264.5,-136 270.5,-136"/>
<text text-anchor="middle" x="312" y="-210.8" font-family="Helvetica,sans-Serif" font-weight="bold" font-size="9.00">immutable</text>
</g>
<g id="clust3" class="cluster">
<title>cluster_node_modules/immutable/dist</title>
<path fill="#ffffff" stroke="black" stroke-width="2" d="M278.5,-144C278.5,-144 345.5,-144 345.5,-144 351.5,-144 357.5,-150 357.5,-156 357.5,-156 357.5,-184 357.5,-184 357.5,-190 351.5,-196 345.5,-196 345.5,-196 278.5,-196 278.5,-196 272.5,-196 266.5,-190 266.5,-184 266.5,-184 266.5,-156 266.5,-156 266.5,-150 272.5,-144 278.5,-144"/>
<text text-anchor="middle" x="312" y="-184.8" font-family="Helvetica,sans-Serif" font-weight="bold" font-size="9.00">dist</text>
</g>
<g id="clust4" class="cluster">
<title>cluster_node_modules/react&#45;dom</title>
<path fill="#ffffff" stroke="black" stroke-width="2" d="M289,-16C289,-16 335,-16 335,-16 341,-16 347,-22 347,-28 347,-28 347,-56 347,-56 347,-62 341,-68 335,-68 335,-68 289,-68 289,-68 283,-68 277,-62 277,-56 277,-56 277,-28 277,-28 277,-22 283,-16 289,-16"/>
<text text-anchor="middle" x="312" y="-56.8" font-family="Helvetica,sans-Serif" font-weight="bold" font-size="9.00">react&#45;dom</text>
</g>
<g id="clust5" class="cluster">
<title>cluster_node_modules/react</title>
<path fill="#ffffff" stroke="black" stroke-width="2" d="M289,-76C289,-76 335,-76 335,-76 341,-76 347,-82 347,-88 347,-88 347,-116 347,-116 347,-122 341,-128 335,-128 335,-128 289,-128 289,-128 283,-128 277,-122 277,-116 277,-116 277,-88 277,-88 277,-82 283,-76 289,-76"/>
<text text-anchor="middle" x="312" y="-116.8" font-family="Helvetica,sans-Serif" font-weight="bold" font-size="9.00">react</text>
</g>
<g id="clust6" class="cluster">
<title>cluster_packages</title>
<path fill="#ffffff" stroke="black" stroke-width="2" d="M20,-256C20,-256 551,-256 551,-256 557,-256 563,-262 563,-268 563,-268 563,-642 563,-642 563,-648 557,-654 551,-654 551,-654 20,-654 20,-654 14,-654 8,-648 8,-642 8,-642 8,-268 8,-268 8,-262 14,-256 20,-256"/>
<text text-anchor="middle" x="285.5" y="-642.8" font-family="Helvetica,sans-Serif" font-weight="bold" font-size="9.00">packages</text>
</g>
<g id="clust7" class="cluster">
<title>cluster_packages/sportident&#45;react</title>
<path fill="#ffffff" stroke="black" stroke-width="2" d="M131.5,-448C131.5,-448 208.5,-448 208.5,-448 214.5,-448 220.5,-454 220.5,-460 220.5,-460 220.5,-522 220.5,-522 220.5,-528 214.5,-534 208.5,-534 208.5,-534 131.5,-534 131.5,-534 125.5,-534 119.5,-528 119.5,-522 119.5,-522 119.5,-460 119.5,-460 119.5,-454 125.5,-448 131.5,-448"/>
<text text-anchor="middle" x="170" y="-522.8" font-family="Helvetica,sans-Serif" font-weight="bold" font-size="9.00">sportident&#45;react</text>
</g>
<g id="clust8" class="cluster">
<title>cluster_packages/sportident&#45;react/lib</title>
<path fill="#ffffff" stroke="black" stroke-width="2" d="M146.5,-456C146.5,-456 192.5,-456 192.5,-456 198.5,-456 204.5,-462 204.5,-468 204.5,-468 204.5,-496 204.5,-496 204.5,-502 198.5,-508 192.5,-508 192.5,-508 146.5,-508 146.5,-508 140.5,-508 134.5,-502 134.5,-496 134.5,-496 134.5,-468 134.5,-468 134.5,-462 140.5,-456 146.5,-456"/>
<text text-anchor="middle" x="169.5" y="-496.8" font-family="Helvetica,sans-Serif" font-weight="bold" font-size="9.00">lib</text>
</g>
<g id="clust9" class="cluster">
<title>cluster_packages/sportident&#45;testbench&#45;client</title>
<path fill="#ffffff" stroke="black" stroke-width="2" d="M28,-264C28,-264 378,-264 378,-264 384,-264 390,-270 390,-276 390,-276 390,-428 390,-428 390,-434 384,-440 378,-440 378,-440 28,-440 28,-440 22,-440 16,-434 16,-428 16,-428 16,-276 16,-276 16,-270 22,-264 28,-264"/>
<text text-anchor="middle" x="203" y="-428.8" font-family="Helvetica,sans-Serif" font-weight="bold" font-size="9.00">sportident&#45;testbench&#45;client</text>
</g>
<g id="clust10" class="cluster">
<title>cluster_packages/sportident&#45;testbench&#45;client/src</title>
<path fill="#ffffff" stroke="black" stroke-width="2" d="M36,-272C36,-272 370,-272 370,-272 376,-272 382,-278 382,-284 382,-284 382,-402 382,-402 382,-408 376,-414 370,-414 370,-414 36,-414 36,-414 30,-414 24,-408 24,-402 24,-402 24,-284 24,-284 24,-278 30,-272 36,-272"/>
<text text-anchor="middle" x="203" y="-402.8" font-family="Helvetica,sans-Serif" font-weight="bold" font-size="9.00">src</text>
</g>
<g id="clust11" class="cluster">
<title>cluster_packages/sportident&#45;testbench&#45;shell</title>
<path fill="#ffffff" stroke="black" stroke-width="2" d="M410,-392C410,-392 543,-392 543,-392 549,-392 555,-398 555,-404 555,-404 555,-496 555,-496 555,-502 549,-508 543,-508 543,-508 410,-508 410,-508 404,-508 398,-502 398,-496 398,-496 398,-404 398,-404 398,-398 404,-392 410,-392"/>
<text text-anchor="middle" x="476.5" y="-496.8" font-family="Helvetica,sans-Serif" font-weight="bold" font-size="9.00">sportident&#45;testbench&#45;shell</text>
</g>
<g id="clust12" class="cluster">
<title>cluster_packages/sportident&#45;testbench&#45;shell/lib</title>
<path fill="#ffffff" stroke="black" stroke-width="2" d="M418,-400C418,-400 535,-400 535,-400 541,-400 547,-406 547,-412 547,-412 547,-470 547,-470 547,-476 541,-482 535,-482 535,-482 418,-482 418,-482 412,-482 406,-476 406,-470 406,-470 406,-412 406,-412 406,-406 412,-400 418,-400"/>
<text text-anchor="middle" x="476.5" y="-470.8" font-family="Helvetica,sans-Serif" font-weight="bold" font-size="9.00">lib</text>
</g>
<g id="clust13" class="cluster">
<title>cluster_packages/sportident&#45;webusb</title>
<path fill="#ffffff" stroke="black" stroke-width="2" d="M124.5,-542C124.5,-542 214.5,-542 214.5,-542 220.5,-542 226.5,-548 226.5,-554 226.5,-554 226.5,-616 226.5,-616 226.5,-622 220.5,-628 214.5,-628 214.5,-628 124.5,-628 124.5,-628 118.5,-628 112.5,-622 112.5,-616 112.5,-616 112.5,-554 112.5,-554 112.5,-548 118.5,-542 124.5,-542"/>
<text text-anchor="middle" x="169.5" y="-616.8" font-family="Helvetica,sans-Serif" font-weight="bold" font-size="9.00">sportident&#45;webusb</text>
</g>
<g id="clust14" class="cluster">
<title>cluster_packages/sportident&#45;webusb/lib</title>
<path fill="#ffffff" stroke="black" stroke-width="2" d="M146.5,-550C146.5,-550 192.5,-550 192.5,-550 198.5,-550 204.5,-556 204.5,-562 204.5,-562 204.5,-590 204.5,-590 204.5,-596 198.5,-602 192.5,-602 192.5,-602 146.5,-602 146.5,-602 140.5,-602 134.5,-596 134.5,-590 134.5,-590 134.5,-562 134.5,-562 134.5,-556 140.5,-550 146.5,-550"/>
<text text-anchor="middle" x="169.5" y="-590.8" font-family="Helvetica,sans-Serif" font-weight="bold" font-size="9.00">lib</text>
</g>
<g id="clust15" class="cluster">
<title>cluster_packages/sportident</title>
<path fill="#ffffff" stroke="black" stroke-width="2" d="M437.5,-264C437.5,-264 515.5,-264 515.5,-264 521.5,-264 527.5,-270 527.5,-276 527.5,-276 527.5,-372 527.5,-372 527.5,-378 521.5,-384 515.5,-384 515.5,-384 437.5,-384 437.5,-384 431.5,-384 425.5,-378 425.5,-372 425.5,-372 425.5,-276 425.5,-276 425.5,-270 431.5,-264 437.5,-264"/>
<text text-anchor="middle" x="476.5" y="-372.8" font-family="Helvetica,sans-Serif" font-weight="bold" font-size="9.00">sportident</text>
</g>
<g id="clust16" class="cluster">
<title>cluster_packages/sportident/lib</title>
<path fill="#ffffff" stroke="black" stroke-width="2" d="M445.5,-272C445.5,-272 507.5,-272 507.5,-272 513.5,-272 519.5,-278 519.5,-284 519.5,-284 519.5,-346 519.5,-346 519.5,-352 513.5,-358 507.5,-358 507.5,-358 445.5,-358 445.5,-358 439.5,-358 433.5,-352 433.5,-346 433.5,-346 433.5,-284 433.5,-284 433.5,-278 439.5,-272 445.5,-272"/>
<text text-anchor="middle" x="476.5" y="-346.8" font-family="Helvetica,sans-Serif" font-weight="bold" font-size="9.00">lib</text>
</g>
<g id="clust17" class="cluster">
<title>cluster_packages/sportident/lib/utils</title>
<path fill="#ffffff" stroke="black" stroke-width="2" d="M453.5,-280C453.5,-280 499.5,-280 499.5,-280 505.5,-280 511.5,-286 511.5,-292 511.5,-292 511.5,-320 511.5,-320 511.5,-326 505.5,-332 499.5,-332 499.5,-332 453.5,-332 453.5,-332 447.5,-332 441.5,-326 441.5,-320 441.5,-320 441.5,-292 441.5,-292 441.5,-286 447.5,-280 453.5,-280"/>
<text text-anchor="middle" x="476.5" y="-320.8" font-family="Helvetica,sans-Serif" font-weight="bold" font-size="9.00">utils</text>
</g>
<!-- node_modules/immutable/dist/immutable.js -->
<g id="node1" class="node">
<title>node_modules/immutable/dist/immutable.js</title>
<g id="a_node1"><a xlink:href="https://www.npmjs.com/package/immutable" xlink:title="immutable.js">
<polygon fill="#c40b0a" fill-opacity="0.101961" stroke="black" points="349.5,-170 348,-172 337.5,-172 336,-170 274.5,-170 274.5,-152 349.5,-152 349.5,-170"/>
<text text-anchor="start" x="282.5" y="-158.8" font-family="Helvetica,sans-Serif" font-size="9.00" fill="#c40b0a">immutable.js</text>
</a>
</g>
</g>
<!-- node_modules/react&#45;dom/client.js -->
<g id="node2" class="node">
<title>node_modules/react&#45;dom/client.js</title>
<g id="a_node2"><a xlink:href="https://www.npmjs.com/package/react-dom" xlink:title="client.js">
<polygon fill="#c40b0a" fill-opacity="0.101961" stroke="black" points="339,-42 337.5,-44 327,-44 325.5,-42 285,-42 285,-24 339,-24 339,-42"/>
<text text-anchor="start" x="294.5" y="-30.8" font-family="Helvetica,sans-Serif" font-size="9.00" fill="#c40b0a">client.js</text>
</a>
</g>
</g>
<!-- node_modules/react/index.js -->
<g id="node3" class="node">
<title>node_modules/react/index.js</title>
<g id="a_node3"><a xlink:href="https://www.npmjs.com/package/react" xlink:title="index.js">
<polygon fill="#c40b0a" fill-opacity="0.101961" stroke="black" points="339,-102 337.5,-104 327,-104 325.5,-102 285,-102 285,-84 339,-84 339,-102"/>
<text text-anchor="start" x="294.5" y="-90.8" font-family="Helvetica,sans-Serif" font-size="9.00" fill="#c40b0a">index.js</text>
</a>
</g>
</g>
<!-- packages/sportident&#45;react/lib/index.js -->
<g id="node4" class="node">
<title>packages/sportident&#45;react/lib/index.js</title>
<g id="a_node4"><a xlink:href="packages/sportident-react/lib/index.js" xlink:title="index.js">
<path fill="#ffffcc" stroke="black" d="M190.5,-482C190.5,-482 148.5,-482 148.5,-482 145.5,-482 142.5,-479 142.5,-476 142.5,-476 142.5,-470 142.5,-470 142.5,-467 145.5,-464 148.5,-464 148.5,-464 190.5,-464 190.5,-464 193.5,-464 196.5,-467 196.5,-470 196.5,-470 196.5,-476 196.5,-476 196.5,-479 193.5,-482 190.5,-482"/>
<text text-anchor="start" x="152" y="-470.8" font-family="Helvetica,sans-Serif" font-size="9.00">index.js</text>
</a>
</g>
</g>
<!-- packages/sportident&#45;testbench&#45;client/src/MainStationList.tsx -->
<g id="node5" class="node">
<title>packages/sportident&#45;testbench&#45;client/src/MainStationList.tsx</title>
<g id="a_node5"><a xlink:href="packages/sportident-testbench-client/src/MainStationList.tsx" xlink:title="MainStationList.tsx">
<path fill="#bbfeff" stroke="black" d="M214.5,-298C214.5,-298 124.5,-298 124.5,-298 121.5,-298 118.5,-295 118.5,-292 118.5,-292 118.5,-286 118.5,-286 118.5,-283 121.5,-280 124.5,-280 124.5,-280 214.5,-280 214.5,-280 217.5,-280 220.5,-283 220.5,-286 220.5,-286 220.5,-292 220.5,-292 220.5,-295 217.5,-298 214.5,-298"/>
<text text-anchor="start" x="126.5" y="-286.8" font-family="Helvetica,sans-Serif" font-size="9.00">MainStationList.tsx</text>
</a>
</g>
</g>
<!-- packages/sportident&#45;testbench&#45;client/src/MainStationList.tsx&#45;&gt;node_modules/react/index.js -->
<g id="edge1" class="edge">
<title>packages/sportident&#45;testbench&#45;client/src/MainStationList.tsx&#45;&gt;node_modules/react/index.js</title>
<path fill="none" stroke="#000000" stroke-opacity="0.200000" d="M175.69,-279.77C185.69,-261.93 208.25,-221.45 226.5,-187 237.25,-166.71 235.42,-158.73 250,-141 261.53,-126.97 277.83,-114.42 290.67,-105.66"/>
<polygon fill="#000000" fill-opacity="0.200000" stroke="#000000" stroke-opacity="0.200000" points="292.11,-107.23 295.94,-102.15 289.78,-103.73 292.11,-107.23"/>
</g>
<!-- packages/sportident&#45;testbench&#45;client/src/SiDevicesContext.tsx -->
<g id="node6" class="node">
<title>packages/sportident&#45;testbench&#45;client/src/SiDevicesContext.tsx</title>
<g id="a_node6"><a xlink:href="packages/sportident-testbench-client/src/SiDevicesContext.tsx" xlink:title="SiDevicesContext.tsx">
<path fill="#bbfeff" stroke="black" d="M219,-328C219,-328 120,-328 120,-328 117,-328 114,-325 114,-322 114,-322 114,-316 114,-316 114,-313 117,-310 120,-310 120,-310 219,-310 219,-310 222,-310 225,-313 225,-316 225,-316 225,-322 225,-322 225,-325 222,-328 219,-328"/>
<text text-anchor="start" x="122" y="-316.8" font-family="Helvetica,sans-Serif" font-size="9.00">SiDevicesContext.tsx</text>
</a>
</g>
</g>
<!-- packages/sportident&#45;testbench&#45;client/src/SiDevicesContext.tsx&#45;&gt;node_modules/immutable/dist/immutable.js -->
<g id="edge2" class="edge">
<title>packages/sportident&#45;testbench&#45;client/src/SiDevicesContext.tsx&#45;&gt;node_modules/immutable/dist/immutable.js</title>
<path fill="none" stroke="#000000" stroke-opacity="0.200000" d="M216.54,-309.92C220.08,-308.27 223.45,-306.31 226.5,-304 232.36,-299.55 282.63,-211.23 302.74,-175.65"/>
<polygon fill="#000000" fill-opacity="0.200000" stroke="#000000" stroke-opacity="0.200000" points="304.79,-176.29 305.91,-170.04 301.13,-174.23 304.79,-176.29"/>
</g>
<!-- packages/sportident&#45;testbench&#45;client/src/SiDevicesContext.tsx&#45;&gt;node_modules/react/index.js -->
<g id="edge3" class="edge">
<title>packages/sportident&#45;testbench&#45;client/src/SiDevicesContext.tsx&#45;&gt;node_modules/react/index.js</title>
<path fill="none" stroke="#000000" stroke-opacity="0.200000" d="M219.69,-309.85C222.19,-308.19 224.5,-306.26 226.5,-304 275.1,-249.27 213.4,-204.39 250,-141 258.86,-125.65 274.72,-113.4 288.05,-105.12"/>
<polygon fill="#000000" fill-opacity="0.200000" stroke="#000000" stroke-opacity="0.200000" points="289.13,-106.92 293.2,-102.03 286.97,-103.32 289.13,-106.92"/>
</g>
<!-- packages/sportident&#45;testbench&#45;client/src/SiExternalApplication.ts -->
<g id="node7" class="node">
<title>packages/sportident&#45;testbench&#45;client/src/SiExternalApplication.ts</title>
<g id="a_node7"><a xlink:href="packages/sportident-testbench-client/src/SiExternalApplication.ts" xlink:title="SiExternalApplication.ts">
<path fill="#ddfeff" stroke="black" d="M368,-358C368,-358 256,-358 256,-358 253,-358 250,-355 250,-352 250,-352 250,-346 250,-346 250,-343 253,-340 256,-340 256,-340 368,-340 368,-340 371,-340 374,-343 374,-346 374,-346 374,-352 374,-352 374,-355 371,-358 368,-358"/>
<text text-anchor="start" x="258" y="-346.8" font-family="Helvetica,sans-Serif" font-size="9.00">SiExternalApplication.ts</text>
</a>
</g>
</g>
<!-- packages/sportident&#45;testbench&#45;shell/lib/ISiExternalApplication.js -->
<g id="node8" class="node">
<title>packages/sportident&#45;testbench&#45;shell/lib/ISiExternalApplication.js</title>
<g id="a_node8"><a xlink:href="packages/sportident-testbench-shell/lib/ISiExternalApplication.js" xlink:title="ISiExternalApplication.js">
<path fill="#ffffcc" stroke="black" d="M533,-426C533,-426 420,-426 420,-426 417,-426 414,-423 414,-420 414,-420 414,-414 414,-414 414,-411 417,-408 420,-408 420,-408 533,-408 533,-408 536,-408 539,-411 539,-414 539,-414 539,-420 539,-420 539,-423 536,-426 533,-426"/>
<text text-anchor="start" x="422" y="-414.8" font-family="Helvetica,sans-Serif" font-size="9.00">ISiExternalApplication.js</text>
</a>
</g>
</g>
<!-- packages/sportident&#45;testbench&#45;client/src/SiExternalApplication.ts&#45;&gt;packages/sportident&#45;testbench&#45;shell/lib/ISiExternalApplication.js -->
<g id="edge4" class="edge">
<title>packages/sportident&#45;testbench&#45;client/src/SiExternalApplication.ts&#45;&gt;packages/sportident&#45;testbench&#45;shell/lib/ISiExternalApplication.js</title>
<path fill="none" stroke="#000000" stroke-width="2" stroke-opacity="0.200000" d="M334.58,-358.03C363.84,-370.27 416.11,-392.15 448.1,-405.54"/>
<polygon fill="#000000" fill-opacity="0.200000" stroke="#000000" stroke-width="2" stroke-opacity="0.200000" points="447.49,-407.55 453.83,-407.93 449.11,-403.68 447.49,-407.55"/>
</g>
<!-- packages/sportident/lib/utils/index.js -->
<g id="node9" class="node">
<title>packages/sportident/lib/utils/index.js</title>
<g id="a_node9"><a xlink:href="packages/sportident/lib/utils/index.js" xlink:title="index.js">
<path fill="#ffffcc" stroke="black" d="M497.5,-306C497.5,-306 455.5,-306 455.5,-306 452.5,-306 449.5,-303 449.5,-300 449.5,-300 449.5,-294 449.5,-294 449.5,-291 452.5,-288 455.5,-288 455.5,-288 497.5,-288 497.5,-288 500.5,-288 503.5,-291 503.5,-294 503.5,-294 503.5,-300 503.5,-300 503.5,-303 500.5,-306 497.5,-306"/>
<text text-anchor="start" x="459" y="-294.8" font-family="Helvetica,sans-Serif" font-size="9.00">index.js</text>
</a>
</g>
</g>
<!-- packages/sportident&#45;testbench&#45;client/src/SiExternalApplication.ts&#45;&gt;packages/sportident/lib/utils/index.js -->
<g id="edge5" class="edge">
<title>packages/sportident&#45;testbench&#45;client/src/SiExternalApplication.ts&#45;&gt;packages/sportident/lib/utils/index.js</title>
<path fill="none" stroke="#000000" stroke-width="2" stroke-opacity="0.200000" d="M341.31,-339.94C369.86,-330.8 413.88,-316.72 443.64,-307.19"/>
<polygon fill="#000000" fill-opacity="0.200000" stroke="#000000" stroke-width="2" stroke-opacity="0.200000" points="444.32,-309.18 449.4,-305.35 443.04,-305.18 444.32,-309.18"/>
</g>
<!-- packages/sportident&#45;testbench&#45;client/src/Terminal.tsx -->
<g id="node10" class="node">
<title>packages/sportident&#45;testbench&#45;client/src/Terminal.tsx</title>
<g id="a_node10"><a xlink:href="packages/sportident-testbench-client/src/Terminal.tsx" xlink:title="Terminal.tsx">
<path fill="#bbfeff" stroke="black" d="M199,-358C199,-358 140,-358 140,-358 137,-358 134,-355 134,-352 134,-352 134,-346 134,-346 134,-343 137,-340 140,-340 140,-340 199,-340 199,-340 202,-340 205,-343 205,-346 205,-346 205,-352 205,-352 205,-355 202,-358 199,-358"/>
<text text-anchor="start" x="142" y="-346.8" font-family="Helvetica,sans-Serif" font-size="9.00">Terminal.tsx</text>
</a>
</g>
</g>
<!-- packages/sportident&#45;testbench&#45;client/src/Terminal.tsx&#45;&gt;node_modules/react/index.js -->
<g id="edge7" class="edge">
<title>packages/sportident&#45;testbench&#45;client/src/Terminal.tsx&#45;&gt;node_modules/react/index.js</title>
<path fill="none" stroke="#000000" stroke-opacity="0.200000" d="M205.15,-346.35C213.21,-344.1 221.02,-340.31 226.5,-334 283.16,-268.76 207.62,-216.3 250,-141 258.64,-125.66 274.35,-113.47 287.66,-105.22"/>
<polygon fill="#000000" fill-opacity="0.200000" stroke="#000000" stroke-opacity="0.200000" points="288.74,-107.02 292.81,-102.14 286.59,-103.41 288.74,-107.02"/>
</g>
<!-- packages/sportident&#45;testbench&#45;client/src/Terminal.tsx&#45;&gt;packages/sportident&#45;testbench&#45;client/src/SiExternalApplication.ts -->
<g id="edge6" class="edge">
<title>packages/sportident&#45;testbench&#45;client/src/Terminal.tsx&#45;&gt;packages/sportident&#45;testbench&#45;client/src/SiExternalApplication.ts</title>
<path fill="none" stroke="#000000" stroke-width="2" stroke-opacity="0.200000" d="M205.23,-349C216.93,-349 230.41,-349 243.75,-349"/>
<polygon fill="#000000" fill-opacity="0.200000" stroke="#000000" stroke-width="2" stroke-opacity="0.200000" points="243.86,-351.1 249.86,-349 243.86,-346.9 243.86,-351.1"/>
</g>
<!-- packages/sportident&#45;testbench&#45;shell/lib/index.js -->
<g id="node11" class="node">
<title>packages/sportident&#45;testbench&#45;shell/lib/index.js</title>
<g id="a_node11"><a xlink:href="packages/sportident-testbench-shell/lib/index.js" xlink:title="index.js">
<path fill="#ffffcc" stroke="black" d="M497.5,-456C497.5,-456 455.5,-456 455.5,-456 452.5,-456 449.5,-453 449.5,-450 449.5,-450 449.5,-444 449.5,-444 449.5,-441 452.5,-438 455.5,-438 455.5,-438 497.5,-438 497.5,-438 500.5,-438 503.5,-441 503.5,-444 503.5,-444 503.5,-450 503.5,-450 503.5,-453 500.5,-456 497.5,-456"/>
<text text-anchor="start" x="459" y="-444.8" font-family="Helvetica,sans-Serif" font-size="9.00">index.js</text>
</a>
</g>
</g>
<!-- packages/sportident&#45;testbench&#45;client/src/Terminal.tsx&#45;&gt;packages/sportident&#45;testbench&#45;shell/lib/index.js -->
<g id="edge8" class="edge">
<title>packages/sportident&#45;testbench&#45;client/src/Terminal.tsx&#45;&gt;packages/sportident&#45;testbench&#45;shell/lib/index.js</title>
<path fill="none" stroke="#000000" stroke-width="2" stroke-opacity="0.200000" d="M205.04,-357.58C212.18,-359.54 219.62,-361.72 226.5,-364 304.34,-389.76 319.3,-409 398,-432 412.6,-436.27 429.11,-439.65 443.13,-442.12"/>
<polygon fill="#000000" fill-opacity="0.200000" stroke="#000000" stroke-width="2" stroke-opacity="0.200000" points="443.11,-444.25 449.38,-443.19 443.82,-440.11 443.11,-444.25"/>
</g>
<!-- packages/sportident&#45;testbench&#45;client/src/index.tsx -->
<g id="node12" class="node">
<title>packages/sportident&#45;testbench&#45;client/src/index.tsx</title>
<g id="a_node12"><a xlink:href="packages/sportident-testbench-client/src/index.tsx" xlink:title="index.tsx">
<path fill="#bbfeff" stroke="black" d="M84,-343C84,-343 38,-343 38,-343 35,-343 32,-340 32,-337 32,-337 32,-331 32,-331 32,-328 35,-325 38,-325 38,-325 84,-325 84,-325 87,-325 90,-328 90,-331 90,-331 90,-337 90,-337 90,-340 87,-343 84,-343"/>
<text text-anchor="start" x="40" y="-331.8" font-family="Helvetica,sans-Serif" font-size="9.00">index.tsx</text>
</a>
</g>
</g>
<!-- packages/sportident&#45;testbench&#45;client/src/index.tsx&#45;&gt;node_modules/react&#45;dom/client.js -->
<g id="edge14" class="edge">
<title>packages/sportident&#45;testbench&#45;client/src/index.tsx&#45;&gt;node_modules/react&#45;dom/client.js</title>
<path fill="none" stroke="#000000" stroke-opacity="0.200000" d="M62.42,-324.63C64.13,-296.66 72.49,-212.39 112.5,-159 156.42,-100.38 236.3,-62.03 280.15,-44.34"/>
<polygon fill="#000000" fill-opacity="0.200000" stroke="#000000" stroke-opacity="0.200000" points="281.03,-46.25 285.83,-42.08 279.48,-42.35 281.03,-46.25"/>
</g>
<!-- packages/sportident&#45;testbench&#45;client/src/index.tsx&#45;&gt;node_modules/react/index.js -->
<g id="edge13" class="edge">
<title>packages/sportident&#45;testbench&#45;client/src/index.tsx&#45;&gt;node_modules/react/index.js</title>
<path fill="none" stroke="#000000" stroke-opacity="0.200000" d="M69.25,-324.81C78.82,-312.81 96.34,-291.32 112.5,-274 170.51,-211.84 185.95,-196.92 250,-141 264.21,-128.59 281.12,-115.4 293.53,-105.99"/>
<polygon fill="#000000" fill-opacity="0.200000" stroke="#000000" stroke-opacity="0.200000" points="295.03,-107.49 298.55,-102.21 292.5,-104.14 295.03,-107.49"/>
</g>
<!-- packages/sportident&#45;testbench&#45;client/src/index.tsx&#45;&gt;packages/sportident&#45;react/lib/index.js -->
<g id="edge15" class="edge">
<title>packages/sportident&#45;testbench&#45;client/src/index.tsx&#45;&gt;packages/sportident&#45;react/lib/index.js</title>
<path fill="none" stroke="#000000" stroke-width="2" stroke-opacity="0.200000" d="M66.65,-343.18C74.86,-358.99 92.91,-392.07 112.5,-417 124.95,-432.84 141.5,-448.9 153.37,-459.73"/>
<polygon fill="#000000" fill-opacity="0.200000" stroke="#000000" stroke-width="2" stroke-opacity="0.200000" points="151.97,-461.3 157.83,-463.76 154.78,-458.18 151.97,-461.3"/>
</g>
<!-- packages/sportident&#45;testbench&#45;client/src/index.tsx&#45;&gt;packages/sportident&#45;testbench&#45;client/src/MainStationList.tsx -->
<g id="edge9" class="edge">
<title>packages/sportident&#45;testbench&#45;client/src/index.tsx&#45;&gt;packages/sportident&#45;testbench&#45;client/src/MainStationList.tsx</title>
<path fill="none" stroke="#000000" stroke-width="2" stroke-opacity="0.200000" d="M75.19,-324.8C85.08,-318.24 99.16,-309.62 112.5,-304 115.97,-302.54 119.62,-301.18 123.33,-299.93"/>
<polygon fill="#000000" fill-opacity="0.200000" stroke="#000000" stroke-width="2" stroke-opacity="0.200000" points="124.1,-301.89 129.18,-298.06 122.82,-297.89 124.1,-301.89"/>
</g>
<!-- packages/sportident&#45;testbench&#45;client/src/index.tsx&#45;&gt;packages/sportident&#45;testbench&#45;client/src/SiDevicesContext.tsx -->
<g id="edge10" class="edge">
<title>packages/sportident&#45;testbench&#45;client/src/index.tsx&#45;&gt;packages/sportident&#45;testbench&#45;client/src/SiDevicesContext.tsx</title>
<path fill="none" stroke="#000000" stroke-width="2" stroke-opacity="0.200000" d="M90.26,-330.02C95.71,-329.25 101.62,-328.42 107.66,-327.57"/>
<polygon fill="#000000" fill-opacity="0.200000" stroke="#000000" stroke-width="2" stroke-opacity="0.200000" points="108.08,-329.63 113.73,-326.71 107.5,-325.47 108.08,-329.63"/>
</g>
<!-- packages/sportident&#45;testbench&#45;client/src/index.tsx&#45;&gt;packages/sportident&#45;testbench&#45;client/src/Terminal.tsx -->
<g id="edge12" class="edge">
<title>packages/sportident&#45;testbench&#45;client/src/index.tsx&#45;&gt;packages/sportident&#45;testbench&#45;client/src/Terminal.tsx</title>
<path fill="none" stroke="#000000" stroke-width="2" stroke-opacity="0.200000" d="M90.26,-337.98C101.7,-339.59 115.13,-341.48 127.6,-343.24"/>
<polygon fill="#000000" fill-opacity="0.200000" stroke="#000000" stroke-width="2" stroke-opacity="0.200000" points="127.4,-345.33 133.63,-344.09 127.98,-341.17 127.4,-345.33"/>
</g>
<!-- packages/sportident&#45;testbench&#45;client/src/styles.css -->
<g id="node13" class="node">
<title>packages/sportident&#45;testbench&#45;client/src/styles.css</title>
<g id="a_node13"><a xlink:href="packages/sportident-testbench-client/src/styles.css" xlink:title="styles.css">
<path fill="#ffffcc" stroke="black" d="M193,-388C193,-388 146,-388 146,-388 143,-388 140,-385 140,-382 140,-382 140,-376 140,-376 140,-373 143,-370 146,-370 146,-370 193,-370 193,-370 196,-370 199,-373 199,-376 199,-376 199,-382 199,-382 199,-385 196,-388 193,-388"/>
<text text-anchor="start" x="148" y="-376.8" font-family="Helvetica,sans-Serif" font-size="9.00">styles.css</text>
</a>
</g>
</g>
<!-- packages/sportident&#45;testbench&#45;client/src/index.tsx&#45;&gt;packages/sportident&#45;testbench&#45;client/src/styles.css -->
<g id="edge11" class="edge">
<title>packages/sportident&#45;testbench&#45;client/src/index.tsx&#45;&gt;packages/sportident&#45;testbench&#45;client/src/styles.css</title>
<path fill="none" stroke="#000000" stroke-width="2" stroke-opacity="0.200000" d="M75.19,-343.2C85.08,-349.76 99.16,-358.38 112.5,-364 119.24,-366.84 126.66,-369.28 133.84,-371.31"/>
<polygon fill="#000000" fill-opacity="0.200000" stroke="#000000" stroke-width="2" stroke-opacity="0.200000" points="133.45,-373.38 139.79,-372.92 134.55,-369.33 133.45,-373.38"/>
</g>
<!-- packages/sportident&#45;webusb/lib/index.js -->
<g id="node14" class="node">
<title>packages/sportident&#45;webusb/lib/index.js</title>
<g id="a_node14"><a xlink:href="packages/sportident-webusb/lib/index.js" xlink:title="index.js">
<path fill="#ffffcc" stroke="black" d="M190.5,-576C190.5,-576 148.5,-576 148.5,-576 145.5,-576 142.5,-573 142.5,-570 142.5,-570 142.5,-564 142.5,-564 142.5,-561 145.5,-558 148.5,-558 148.5,-558 190.5,-558 190.5,-558 193.5,-558 196.5,-561 196.5,-564 196.5,-564 196.5,-570 196.5,-570 196.5,-573 193.5,-576 190.5,-576"/>
<text text-anchor="start" x="152" y="-564.8" font-family="Helvetica,sans-Serif" font-size="9.00">index.js</text>
</a>
</g>
</g>
<!-- packages/sportident&#45;testbench&#45;client/src/index.tsx&#45;&gt;packages/sportident&#45;webusb/lib/index.js -->
<g id="edge16" class="edge">
<title>packages/sportident&#45;testbench&#45;client/src/index.tsx&#45;&gt;packages/sportident&#45;webusb/lib/index.js</title>
<path fill="none" stroke="#000000" stroke-width="2" stroke-opacity="0.200000" d="M62.96,-343.1C66.18,-370.33 78.32,-452.88 112.5,-511 122.47,-527.95 138.78,-543.44 151.23,-553.81"/>
<polygon fill="#000000" fill-opacity="0.200000" stroke="#000000" stroke-width="2" stroke-opacity="0.200000" points="149.98,-555.5 155.96,-557.66 152.63,-552.24 149.98,-555.5"/>
</g>
</g>
</svg>
