<?xml version="1.0" encoding="UTF-8" standalone="no"?>
<!DOCTYPE svg PUBLIC "-//W3C//DTD SVG 1.1//EN"
 "http://www.w3.org/Graphics/SVG/1.1/DTD/svg11.dtd">
<!-- Generated by graphviz version 2.38.0 (20140413.2041)
 -->
<!-- Title: dependency&#45;cruiser output Pages: 1 -->
<svg width="665pt" height="744pt"
 viewBox="0.00 0.00 665.00 744.00" xmlns="http://www.w3.org/2000/svg" xmlns:xlink="http://www.w3.org/1999/xlink">
<g id="graph0" class="graph" transform="scale(1 1) rotate(0) translate(4 740)">
<title>dependency&#45;cruiser output</title>
<polygon fill="white" stroke="none" points="-4,4 -4,-740 661,-740 661,4 -4,4"/>
<g id="clust1" class="cluster"><title>cluster_node_modules</title>
<path fill="#ffffff" stroke="black" stroke-width="2" d="M526,-8C526,-8 626,-8 626,-8 632,-8 638,-14 638,-20 638,-20 638,-176 638,-176 638,-182 632,-188 626,-188 626,-188 526,-188 526,-188 520,-188 514,-182 514,-176 514,-176 514,-20 514,-20 514,-14 520,-8 526,-8"/>
<text text-anchor="middle" x="576" y="-176.8" font-family="Helvetica,sans-Serif" font-weight="bold" font-size="9.00">node_modules</text>
</g>
<g id="clust2" class="cluster"><title>cluster_node_modules/immutable</title>
<path fill="#ffffff" stroke="black" stroke-width="2" d="M534,-76C534,-76 618,-76 618,-76 624,-76 630,-82 630,-88 630,-88 630,-150 630,-150 630,-156 624,-162 618,-162 618,-162 534,-162 534,-162 528,-162 522,-156 522,-150 522,-150 522,-88 522,-88 522,-82 528,-76 534,-76"/>
<text text-anchor="middle" x="576" y="-150.8" font-family="Helvetica,sans-Serif" font-weight="bold" font-size="9.00">immutable</text>
</g>
<g id="clust3" class="cluster"><title>cluster_node_modules/immutable/dist</title>
<path fill="#ffffff" stroke="black" stroke-width="2" d="M542,-84C542,-84 610,-84 610,-84 616,-84 622,-90 622,-96 622,-96 622,-124 622,-124 622,-130 616,-136 610,-136 610,-136 542,-136 542,-136 536,-136 530,-130 530,-124 530,-124 530,-96 530,-96 530,-90 536,-84 542,-84"/>
<text text-anchor="middle" x="576" y="-124.8" font-family="Helvetica,sans-Serif" font-weight="bold" font-size="9.00">dist</text>
</g>
<g id="clust4" class="cluster"><title>cluster_node_modules/lodash</title>
<path fill="#ffffff" stroke="black" stroke-width="2" d="M550.5,-16C550.5,-16 601.5,-16 601.5,-16 607.5,-16 613.5,-22 613.5,-28 613.5,-28 613.5,-56 613.5,-56 613.5,-62 607.5,-68 601.5,-68 601.5,-68 550.5,-68 550.5,-68 544.5,-68 538.5,-62 538.5,-56 538.5,-56 538.5,-28 538.5,-28 538.5,-22 544.5,-16 550.5,-16"/>
<text text-anchor="middle" x="576" y="-56.8" font-family="Helvetica,sans-Serif" font-weight="bold" font-size="9.00">lodash</text>
</g>
<g id="clust5" class="cluster"><title>cluster_src</title>
<path fill="#ffffff" stroke="black" stroke-width="2" d="M20,-196C20,-196 637,-196 637,-196 643,-196 649,-202 649,-208 649,-208 649,-716 649,-716 649,-722 643,-728 637,-728 637,-728 20,-728 20,-728 14,-728 8,-722 8,-716 8,-716 8,-208 8,-208 8,-202 14,-196 20,-196"/>
<text text-anchor="middle" x="328.5" y="-716.8" font-family="Helvetica,sans-Serif" font-weight="bold" font-size="9.00">src</text>
</g>
<g id="clust6" class="cluster"><title>cluster_src/SiCard</title>
<path fill="#ffffff" stroke="black" stroke-width="2" d="M379.5,-536C379.5,-536 450.5,-536 450.5,-536 456.5,-536 462.5,-542 462.5,-548 462.5,-548 462.5,-666 462.5,-666 462.5,-672 456.5,-678 450.5,-678 450.5,-678 379.5,-678 379.5,-678 373.5,-678 367.5,-672 367.5,-666 367.5,-666 367.5,-548 367.5,-548 367.5,-542 373.5,-536 379.5,-536"/>
<text text-anchor="middle" x="415" y="-666.8" font-family="Helvetica,sans-Serif" font-weight="bold" font-size="9.00">SiCard</text>
</g>
<g id="clust7" class="cluster"><title>cluster_src/SiCard/types</title>
<path fill="#ffffff" stroke="black" stroke-width="2" d="M387.5,-570C387.5,-570 442.5,-570 442.5,-570 448.5,-570 454.5,-576 454.5,-582 454.5,-582 454.5,-640 454.5,-640 454.5,-646 448.5,-652 442.5,-652 442.5,-652 387.5,-652 387.5,-652 381.5,-652 375.5,-646 375.5,-640 375.5,-640 375.5,-582 375.5,-582 375.5,-576 381.5,-570 387.5,-570"/>
<text text-anchor="middle" x="415" y="-640.8" font-family="Helvetica,sans-Serif" font-weight="bold" font-size="9.00">types</text>
</g>
<g id="clust8" class="cluster"><title>cluster_src/SiDevice</title>
<path fill="#ffffff" stroke="black" stroke-width="2" d="M528,-520C528,-520 624,-520 624,-520 630,-520 636,-526 636,-532 636,-532 636,-594 636,-594 636,-600 630,-606 624,-606 624,-606 528,-606 528,-606 522,-606 516,-600 516,-594 516,-594 516,-532 516,-532 516,-526 522,-520 528,-520"/>
<text text-anchor="middle" x="576" y="-594.8" font-family="Helvetica,sans-Serif" font-weight="bold" font-size="9.00">SiDevice</text>
</g>
<g id="clust9" class="cluster"><title>cluster_src/SiDevice/testUtils</title>
<path fill="#ffffff" stroke="black" stroke-width="2" d="M536,-528C536,-528 616,-528 616,-528 622,-528 628,-534 628,-540 628,-540 628,-568 628,-568 628,-574 622,-580 616,-580 616,-580 536,-580 536,-580 530,-580 524,-574 524,-568 524,-568 524,-540 524,-540 524,-534 530,-528 536,-528"/>
<text text-anchor="middle" x="576" y="-568.8" font-family="Helvetica,sans-Serif" font-weight="bold" font-size="9.00">testUtils</text>
</g>
<g id="clust10" class="cluster"><title>cluster_src/SiStation</title>
<path fill="#ffffff" stroke="black" stroke-width="2" d="M28,-316C28,-316 629,-316 629,-316 635,-316 641,-322 641,-328 641,-328 641,-500 641,-500 641,-506 635,-512 629,-512 629,-512 28,-512 28,-512 22,-512 16,-506 16,-500 16,-500 16,-328 16,-328 16,-322 22,-316 28,-316"/>
<text text-anchor="middle" x="328.5" y="-500.8" font-family="Helvetica,sans-Serif" font-weight="bold" font-size="9.00">SiStation</text>
</g>
<g id="clust11" class="cluster"><title>cluster_src/simulation</title>
<path fill="#ffffff" stroke="black" stroke-width="2" d="M173,-542C173,-542 304,-542 304,-542 310,-542 316,-548 316,-554 316,-554 316,-680 316,-680 316,-686 310,-692 304,-692 304,-692 173,-692 173,-692 167,-692 161,-686 161,-680 161,-680 161,-554 161,-554 161,-548 167,-542 173,-542"/>
<text text-anchor="middle" x="238.5" y="-680.8" font-family="Helvetica,sans-Serif" font-weight="bold" font-size="9.00">simulation</text>
</g>
<g id="clust12" class="cluster"><title>cluster_src/simulation/SiCardSimulator</title>
<path fill="#ffffff" stroke="black" stroke-width="2" d="M181,-550C181,-550 296,-550 296,-550 302,-550 308,-556 308,-562 308,-562 308,-654 308,-654 308,-660 302,-666 296,-666 296,-666 181,-666 181,-666 175,-666 169,-660 169,-654 169,-654 169,-562 169,-562 169,-556 175,-550 181,-550"/>
<text text-anchor="middle" x="238.5" y="-654.8" font-family="Helvetica,sans-Serif" font-weight="bold" font-size="9.00">SiCardSimulator</text>
</g>
<g id="clust13" class="cluster"><title>cluster_src/simulation/SiCardSimulator/types</title>
<path fill="#ffffff" stroke="black" stroke-width="2" d="M189,-558C189,-558 288,-558 288,-558 294,-558 300,-564 300,-570 300,-570 300,-628 300,-628 300,-634 294,-640 288,-640 288,-640 189,-640 189,-640 183,-640 177,-634 177,-628 177,-628 177,-570 177,-570 177,-564 183,-558 189,-558"/>
<text text-anchor="middle" x="238.5" y="-628.8" font-family="Helvetica,sans-Serif" font-weight="bold" font-size="9.00">types</text>
</g>
<g id="clust14" class="cluster"><title>cluster_src/utils</title>
<path fill="#ffffff" stroke="black" stroke-width="2" d="M553,-230C553,-230 599,-230 599,-230 605,-230 611,-236 611,-242 611,-242 611,-270 611,-270 611,-276 605,-282 599,-282 599,-282 553,-282 553,-282 547,-282 541,-276 541,-270 541,-270 541,-242 541,-242 541,-236 547,-230 553,-230"/>
<text text-anchor="middle" x="576" y="-270.8" font-family="Helvetica,sans-Serif" font-weight="bold" font-size="9.00">utils</text>
</g>
<!-- node_modules/immutable/dist/immutable.js -->
<g id="node1" class="node"><title>node_modules/immutable/dist/immutable.js</title>
<g id="a_node1"><a xlink:href="node_modules/immutable/dist/immutable.js" xlink:title="immutable.js">
<polygon fill="#c40b0a" fill-opacity="0.101961" stroke="black" points="614,-110 612.5,-112 602,-112 600.5,-110 538,-110 538,-92 614,-92 614,-110"/>
<text text-anchor="middle" x="576" y="-98.8" font-family="Helvetica,sans-Serif" font-size="9.00" fill="#c40b0a">immutable.js</text>
</a>
</g>
</g>
<!-- node_modules/lodash/lodash.js -->
<g id="node2" class="node"><title>node_modules/lodash/lodash.js</title>
<g id="a_node2"><a xlink:href="node_modules/lodash/lodash.js" xlink:title="lodash.js">
<polygon fill="#c40b0a" fill-opacity="0.101961" stroke="black" points="605.5,-42 604,-44 593.5,-44 592,-42 546.5,-42 546.5,-24 605.5,-24 605.5,-42"/>
<text text-anchor="middle" x="576" y="-30.8" font-family="Helvetica,sans-Serif" font-size="9.00" fill="#c40b0a">lodash.js</text>
</a>
</g>
</g>
<!-- src/SiCard/index.js -->
<g id="node3" class="node"><title>src/SiCard/index.js</title>
<g id="a_node3"><a xlink:href="src/SiCard/index.js" xlink:title="index.js">
<path fill="#ffffcc" stroke="black" d="M436,-562C436,-562 394,-562 394,-562 391,-562 388,-559 388,-556 388,-556 388,-550 388,-550 388,-547 391,-544 394,-544 394,-544 436,-544 436,-544 439,-544 442,-547 442,-550 442,-550 442,-556 442,-556 442,-559 439,-562 436,-562"/>
<text text-anchor="middle" x="415" y="-550.8" font-family="Helvetica,sans-Serif" font-size="9.00">index.js</text>
</a>
</g>
</g>
<!-- src/SiCard/types/SiCard5.js -->
<g id="node4" class="node"><title>src/SiCard/types/SiCard5.js</title>
<g id="a_node4"><a xlink:href="src/SiCard/types/SiCard5.js" xlink:title="SiCard5.js">
<path fill="#ffffcc" stroke="black" d="M440.5,-626C440.5,-626 389.5,-626 389.5,-626 386.5,-626 383.5,-623 383.5,-620 383.5,-620 383.5,-614 383.5,-614 383.5,-611 386.5,-608 389.5,-608 389.5,-608 440.5,-608 440.5,-608 443.5,-608 446.5,-611 446.5,-614 446.5,-614 446.5,-620 446.5,-620 446.5,-623 443.5,-626 440.5,-626"/>
<text text-anchor="middle" x="415" y="-614.8" font-family="Helvetica,sans-Serif" font-size="9.00">SiCard5.js</text>
</a>
</g>
</g>
<!-- src/SiCard/types/SiCard6.js -->
<g id="node5" class="node"><title>src/SiCard/types/SiCard6.js</title>
<g id="a_node5"><a xlink:href="src/SiCard/types/SiCard6.js" xlink:title="SiCard6.js">
<path fill="#ffffcc" stroke="black" d="M440.5,-596C440.5,-596 389.5,-596 389.5,-596 386.5,-596 383.5,-593 383.5,-590 383.5,-590 383.5,-584 383.5,-584 383.5,-581 386.5,-578 389.5,-578 389.5,-578 440.5,-578 440.5,-578 443.5,-578 446.5,-581 446.5,-584 446.5,-584 446.5,-590 446.5,-590 446.5,-593 443.5,-596 440.5,-596"/>
<text text-anchor="middle" x="415" y="-584.8" font-family="Helvetica,sans-Serif" font-size="9.00">SiCard6.js</text>
</a>
</g>
</g>
<!-- src/SiDevice/testUtils/FakeSiDevice.js -->
<g id="node6" class="node"><title>src/SiDevice/testUtils/FakeSiDevice.js</title>
<g id="a_node6"><a xlink:href="src/SiDevice/testUtils/FakeSiDevice.js" xlink:title="FakeSiDevice.js">
<path fill="#ffffcc" stroke="black" d="M614,-554C614,-554 538,-554 538,-554 535,-554 532,-551 532,-548 532,-548 532,-542 532,-542 532,-539 535,-536 538,-536 538,-536 614,-536 614,-536 617,-536 620,-539 620,-542 620,-542 620,-548 620,-548 620,-551 617,-554 614,-554"/>
<text text-anchor="middle" x="576" y="-542.8" font-family="Helvetica,sans-Serif" font-size="9.00">FakeSiDevice.js</text>
</a>
</g>
</g>
<!-- src/SiStation/BaseSiStation.js -->
<g id="node7" class="node"><title>src/SiStation/BaseSiStation.js</title>
<g id="a_node7"><a xlink:href="src/SiStation/BaseSiStation.js" xlink:title="BaseSiStation.js">
<path fill="#ffffcc" stroke="black" d="M455,-342C455,-342 375,-342 375,-342 372,-342 369,-339 369,-336 369,-336 369,-330 369,-330 369,-327 372,-324 375,-324 375,-324 455,-324 455,-324 458,-324 461,-327 461,-330 461,-330 461,-336 461,-336 461,-339 458,-342 455,-342"/>
<text text-anchor="middle" x="415" y="-330.8" font-family="Helvetica,sans-Serif" font-size="9.00">BaseSiStation.js</text>
</a>
</g>
</g>
<!-- src/SiStation/BaseSiStation.js&#45;&gt;node_modules/immutable/dist/immutable.js -->
<g id="edge5" class="edge"><title>src/SiStation/BaseSiStation.js&#45;&gt;node_modules/immutable/dist/immutable.js</title>
<path fill="none" stroke="#000000" stroke-width="2" stroke-opacity="0.466667" d="M422.233,-323.905C446.029,-289.184 531.399,-164.619 563.067,-118.411"/>
<polygon fill="#000000" fill-opacity="0.466667" stroke="#000000" stroke-width="2" stroke-opacity="0.466667" points="566.044,-120.259 568.81,-110.032 560.27,-116.302 566.044,-120.259"/>
</g>
<!-- src/SiStation/SiTargetMultiplexer.js -->
<g id="node13" class="node"><title>src/SiStation/SiTargetMultiplexer.js</title>
<g id="a_node13"><a xlink:href="src/SiStation/SiTargetMultiplexer.js" xlink:title="SiTargetMultiplexer.js">
<path fill="#ffffcc" stroke="black" d="M627,-414C627,-414 525,-414 525,-414 522,-414 519,-411 519,-408 519,-408 519,-402 519,-402 519,-399 522,-396 525,-396 525,-396 627,-396 627,-396 630,-396 633,-399 633,-402 633,-402 633,-408 633,-408 633,-411 630,-414 627,-414"/>
<text text-anchor="middle" x="576" y="-402.8" font-family="Helvetica,sans-Serif" font-size="9.00">SiTargetMultiplexer.js</text>
</a>
</g>
</g>
<!-- src/SiStation/BaseSiStation.js&#45;&gt;src/SiStation/SiTargetMultiplexer.js -->
<g id="edge4" class="edge"><title>src/SiStation/BaseSiStation.js&#45;&gt;src/SiStation/SiTargetMultiplexer.js</title>
<path fill="none" stroke="#000000" stroke-width="2" stroke-opacity="0.466667" d="M461.144,-332.079C477.264,-334.081 494.309,-339.254 506,-351 516.948,-362 506.089,-374.007 512.712,-387.818"/>
<polygon fill="#000000" fill-opacity="0.466667" stroke="#000000" stroke-width="2" stroke-opacity="0.466667" points="510.148,-390.235 518.929,-396.163 515.762,-386.053 510.148,-390.235"/>
</g>
<!-- src/constants.js -->
<g id="node17" class="node"><title>src/constants.js</title>
<g id="a_node17"><a xlink:href="src/constants.js" xlink:title="constants.js">
<path fill="#ffffcc" stroke="black" d="M607,-222C607,-222 545,-222 545,-222 542,-222 539,-219 539,-216 539,-216 539,-210 539,-210 539,-207 542,-204 545,-204 545,-204 607,-204 607,-204 610,-204 613,-207 613,-210 613,-210 613,-216 613,-216 613,-219 610,-222 607,-222"/>
<text text-anchor="middle" x="576" y="-210.8" font-family="Helvetica,sans-Serif" font-size="9.00">constants.js</text>
</a>
</g>
</g>
<!-- src/SiStation/BaseSiStation.js&#45;&gt;src/constants.js -->
<g id="edge1" class="edge"><title>src/SiStation/BaseSiStation.js&#45;&gt;src/constants.js</title>
<path fill="none" stroke="#000000" stroke-width="2" stroke-opacity="0.466667" d="M461.122,-337.349C477.436,-336.407 494.621,-332.054 506,-320 520.239,-304.916 500.393,-242.656 514,-227 518.018,-222.377 523.225,-219.111 528.902,-216.828"/>
<polygon fill="#000000" fill-opacity="0.466667" stroke="#000000" stroke-width="2" stroke-opacity="0.466667" points="530.21,-220.09 538.773,-213.85 528.188,-213.388 530.21,-220.09"/>
</g>
<!-- src/siProtocol.js -->
<g id="node18" class="node"><title>src/siProtocol.js</title>
<g id="a_node18"><a xlink:href="src/siProtocol.js" xlink:title="siProtocol.js">
<path fill="#ffffcc" stroke="black" d="M607,-308C607,-308 545,-308 545,-308 542,-308 539,-305 539,-302 539,-302 539,-296 539,-296 539,-293 542,-290 545,-290 545,-290 607,-290 607,-290 610,-290 613,-293 613,-296 613,-296 613,-302 613,-302 613,-305 610,-308 607,-308"/>
<text text-anchor="middle" x="576" y="-296.8" font-family="Helvetica,sans-Serif" font-size="9.00">siProtocol.js</text>
</a>
</g>
</g>
<!-- src/SiStation/BaseSiStation.js&#45;&gt;src/siProtocol.js -->
<g id="edge2" class="edge"><title>src/SiStation/BaseSiStation.js&#45;&gt;src/siProtocol.js</title>
<path fill="none" stroke="#000000" stroke-width="2" stroke-opacity="0.466667" d="M461.388,-331.536C476.133,-329.745 492.231,-326.334 506,-320 510.292,-318.026 509.793,-315.149 514,-313 518.658,-310.621 523.722,-308.641 528.873,-306.995"/>
<polygon fill="#000000" fill-opacity="0.466667" stroke="#000000" stroke-width="2" stroke-opacity="0.466667" points="530.114,-310.283 538.805,-304.224 528.232,-303.541 530.114,-310.283"/>
</g>
<!-- src/utils/index.js -->
<g id="node22" class="node"><title>src/utils/index.js</title>
<g id="a_node22"><a xlink:href="src/utils/index.js" xlink:title="index.js">
<path fill="#ffffcc" stroke="black" d="M597,-256C597,-256 555,-256 555,-256 552,-256 549,-253 549,-250 549,-250 549,-244 549,-244 549,-241 552,-238 555,-238 555,-238 597,-238 597,-238 600,-238 603,-241 603,-244 603,-244 603,-250 603,-250 603,-253 600,-256 597,-256"/>
<text text-anchor="middle" x="576" y="-244.8" font-family="Helvetica,sans-Serif" font-size="9.00">index.js</text>
</a>
</g>
</g>
<!-- src/SiStation/BaseSiStation.js&#45;&gt;src/utils/index.js -->
<g id="edge3" class="edge"><title>src/SiStation/BaseSiStation.js&#45;&gt;src/utils/index.js</title>
<path fill="none" stroke="#000000" stroke-width="2" stroke-opacity="0.466667" d="M461.296,-337.039C477.435,-336.007 494.454,-331.673 506,-320 524.919,-300.874 495.727,-279.745 514,-260 520.427,-253.055 529.575,-249.337 538.837,-247.451"/>
<polygon fill="#000000" fill-opacity="0.466667" stroke="#000000" stroke-width="2" stroke-opacity="0.466667" points="539.388,-250.908 548.808,-246.059 538.42,-243.976 539.388,-250.908"/>
</g>
<!-- src/SiStation/BaseSiStation.test.js -->
<g id="node8" class="node"><title>src/SiStation/BaseSiStation.test.js</title>
<g id="a_node8"><a xlink:href="src/SiStation/BaseSiStation.test.js" xlink:title="BaseSiStation.test.js">
<path fill="#ffffcc" stroke="black" d="M289.5,-416C289.5,-416 187.5,-416 187.5,-416 184.5,-416 181.5,-413 181.5,-410 181.5,-410 181.5,-404 181.5,-404 181.5,-401 184.5,-398 187.5,-398 187.5,-398 289.5,-398 289.5,-398 292.5,-398 295.5,-401 295.5,-404 295.5,-404 295.5,-410 295.5,-410 295.5,-413 292.5,-416 289.5,-416"/>
<text text-anchor="middle" x="238.5" y="-404.8" font-family="Helvetica,sans-Serif" font-size="9.00">BaseSiStation.test.js</text>
</a>
</g>
</g>
<!-- src/SiStation/BaseSiStation.test.js&#45;&gt;node_modules/lodash/lodash.js -->
<g id="edge11" class="edge"><title>src/SiStation/BaseSiStation.test.js&#45;&gt;node_modules/lodash/lodash.js</title>
<path fill="none" stroke="#000000" stroke-width="2" stroke-opacity="0.466667" d="M295.687,-405.06C303.471,-402.401 310.627,-398.268 316,-392 330.402,-375.199 312.971,-212.185 324,-193 371.111,-111.05 479.044,-64.5233 536.83,-44.6375"/>
<polygon fill="#000000" fill-opacity="0.466667" stroke="#000000" stroke-width="2" stroke-opacity="0.466667" points="537.965,-47.9487 546.334,-41.452 535.74,-41.3115 537.965,-47.9487"/>
</g>
<!-- src/SiStation/BaseSiStation.test.js&#45;&gt;src/SiDevice/testUtils/FakeSiDevice.js -->
<g id="edge6" class="edge"><title>src/SiStation/BaseSiStation.test.js&#45;&gt;src/SiDevice/testUtils/FakeSiDevice.js</title>
<path fill="none" stroke="#000000" stroke-width="2" stroke-opacity="0.466667" d="M295.637,-408.853C303.142,-411.189 310.226,-414.736 316,-420 326.197,-429.297 314.379,-440.108 324,-450 382.826,-510.486 437.096,-455.305 506,-504 510.937,-507.489 509.375,-511.108 514,-515 521.841,-521.598 531.382,-527.172 540.566,-531.657"/>
<polygon fill="#000000" fill-opacity="0.466667" stroke="#000000" stroke-width="2" stroke-opacity="0.466667" points="539.372,-534.96 549.922,-535.934 542.283,-528.593 539.372,-534.96"/>
</g>
<!-- src/SiStation/BaseSiStation.test.js&#45;&gt;src/SiStation/BaseSiStation.js -->
<g id="edge9" class="edge"><title>src/SiStation/BaseSiStation.test.js&#45;&gt;src/SiStation/BaseSiStation.js</title>
<path fill="none" stroke="#000000" stroke-width="2" stroke-opacity="0.466667" d="M295.612,-401.625C302.864,-399.354 309.883,-396.242 316,-392 321.575,-388.134 319.017,-383.604 324,-379 339.552,-364.633 360.436,-353.59 378.172,-345.93"/>
<polygon fill="#000000" fill-opacity="0.466667" stroke="#000000" stroke-width="2" stroke-opacity="0.466667" points="379.737,-349.071 387.648,-342.023 377.068,-342.599 379.737,-349.071"/>
</g>
<!-- src/SiStation/BaseSiStation.test.js&#45;&gt;src/SiStation/SiTargetMultiplexer.js -->
<g id="edge10" class="edge"><title>src/SiStation/BaseSiStation.test.js&#45;&gt;src/SiStation/SiTargetMultiplexer.js</title>
<path fill="none" stroke="#000000" stroke-width="2" stroke-opacity="0.466667" d="M287.733,-397.934C297.126,-396.058 306.885,-394.032 316,-392 319.577,-391.203 320.362,-390.448 324,-390 404.283,-380.117 425.717,-380.117 506,-390 509.638,-390.448 510.429,-391.173 514,-392 516.492,-392.577 519.044,-393.158 521.623,-393.738"/>
<polygon fill="#000000" fill-opacity="0.466667" stroke="#000000" stroke-width="2" stroke-opacity="0.466667" points="521.118,-397.211 531.638,-395.954 522.63,-390.376 521.118,-397.211"/>
</g>
<!-- src/SiStation/BaseSiStation.test.js&#45;&gt;src/constants.js -->
<g id="edge7" class="edge"><title>src/SiStation/BaseSiStation.test.js&#45;&gt;src/constants.js</title>
<path fill="none" stroke="#000000" stroke-width="2" stroke-opacity="0.466667" d="M295.708,-404.608C303.391,-401.986 310.51,-397.983 316,-392 338.365,-367.625 303.957,-344.317 324,-318 376.706,-248.797 443.823,-306.836 506,-246 512.549,-239.592 506.986,-232.895 514,-227 518.367,-223.33 523.508,-220.576 528.923,-218.517"/>
<polygon fill="#000000" fill-opacity="0.466667" stroke="#000000" stroke-width="2" stroke-opacity="0.466667" points="530.296,-221.759 538.855,-215.514 528.27,-215.058 530.296,-221.759"/>
</g>
<!-- src/testUtils.js -->
<g id="node21" class="node"><title>src/testUtils.js</title>
<g id="a_node21"><a xlink:href="src/testUtils.js" xlink:title="testUtils.js">
<path fill="#ffffcc" stroke="black" d="M603,-632C603,-632 549,-632 549,-632 546,-632 543,-629 543,-626 543,-626 543,-620 543,-620 543,-617 546,-614 549,-614 549,-614 603,-614 603,-614 606,-614 609,-617 609,-620 609,-620 609,-626 609,-626 609,-629 606,-632 603,-632"/>
<text text-anchor="middle" x="576" y="-620.8" font-family="Helvetica,sans-Serif" font-size="9.00">testUtils.js</text>
</a>
</g>
</g>
<!-- src/SiStation/BaseSiStation.test.js&#45;&gt;src/testUtils.js -->
<g id="edge8" class="edge"><title>src/SiStation/BaseSiStation.test.js&#45;&gt;src/testUtils.js</title>
<path fill="none" stroke="#000000" stroke-width="2" stroke-opacity="0.466667" d="M295.504,-407.953C303.213,-410.37 310.394,-414.177 316,-420 334.965,-439.698 306.147,-460.29 324,-481 378.928,-544.718 450.177,-470.064 506,-533 520.933,-549.836 501.77,-564.108 514,-583 521.151,-594.046 532.546,-602.715 543.562,-609.117"/>
<polygon fill="#000000" fill-opacity="0.466667" stroke="#000000" stroke-width="2" stroke-opacity="0.466667" points="542.156,-612.334 552.625,-613.963 545.458,-606.161 542.156,-612.334"/>
</g>
<!-- src/SiStation/CoupledSiStation.js -->
<g id="node9" class="node"><title>src/SiStation/CoupledSiStation.js</title>
<g id="a_node9"><a xlink:href="src/SiStation/CoupledSiStation.js" xlink:title="CoupledSiStation.js">
<path fill="#ffffcc" stroke="black" d="M286,-386C286,-386 191,-386 191,-386 188,-386 185,-383 185,-380 185,-380 185,-374 185,-374 185,-371 188,-368 191,-368 191,-368 286,-368 286,-368 289,-368 292,-371 292,-374 292,-374 292,-380 292,-380 292,-383 289,-386 286,-386"/>
<text text-anchor="middle" x="238.5" y="-374.8" font-family="Helvetica,sans-Serif" font-size="9.00">CoupledSiStation.js</text>
</a>
</g>
</g>
<!-- src/SiStation/CoupledSiStation.js&#45;&gt;src/SiStation/BaseSiStation.js -->
<g id="edge12" class="edge"><title>src/SiStation/CoupledSiStation.js&#45;&gt;src/SiStation/BaseSiStation.js</title>
<path fill="none" stroke="#000000" stroke-width="2" stroke-opacity="0.466667" d="M289.032,-367.995C298.038,-366.157 307.325,-364.129 316,-362 336.064,-357.076 358.15,-350.632 376.268,-345.069"/>
<polygon fill="#000000" fill-opacity="0.466667" stroke="#000000" stroke-width="2" stroke-opacity="0.466667" points="377.374,-348.391 385.888,-342.084 375.3,-341.705 377.374,-348.391"/>
</g>
<!-- src/SiStation/CoupledSiStation.js&#45;&gt;src/SiStation/SiTargetMultiplexer.js -->
<g id="edge13" class="edge"><title>src/SiStation/CoupledSiStation.js&#45;&gt;src/SiStation/SiTargetMultiplexer.js</title>
<path fill="none" stroke="#000000" stroke-width="2" stroke-opacity="0.466667" d="M292.256,-371.889C359.262,-366.366 470.463,-360.723 506,-380 509.786,-382.053 509.702,-385.139 512.911,-389.224"/>
<polygon fill="#000000" fill-opacity="0.466667" stroke="#000000" stroke-width="2" stroke-opacity="0.466667" points="510.915,-392.119 520.806,-395.918 515.442,-386.781 510.915,-392.119"/>
</g>
<!-- src/SiStation/CoupledSiStation.test.js -->
<g id="node10" class="node"><title>src/SiStation/CoupledSiStation.test.js</title>
<g id="a_node10"><a xlink:href="src/SiStation/CoupledSiStation.test.js" xlink:title="CoupledSiStation.test.js">
<path fill="#ffffcc" stroke="black" d="M147,-456C147,-456 30,-456 30,-456 27,-456 24,-453 24,-450 24,-450 24,-444 24,-444 24,-441 27,-438 30,-438 30,-438 147,-438 147,-438 150,-438 153,-441 153,-444 153,-444 153,-450 153,-450 153,-453 150,-456 147,-456"/>
<text text-anchor="middle" x="88.5" y="-444.8" font-family="Helvetica,sans-Serif" font-size="9.00">CoupledSiStation.test.js</text>
</a>
</g>
</g>
<!-- src/SiStation/CoupledSiStation.test.js&#45;&gt;src/SiStation/CoupledSiStation.js -->
<g id="edge15" class="edge"><title>src/SiStation/CoupledSiStation.test.js&#45;&gt;src/SiStation/CoupledSiStation.js</title>
<path fill="none" stroke="#000000" stroke-width="2" stroke-opacity="0.466667" d="M98.2941,-437.992C110.954,-425.589 135.6,-403.485 161,-392 165.393,-390.013 170.045,-388.289 174.799,-386.793"/>
<polygon fill="#000000" fill-opacity="0.466667" stroke="#000000" stroke-width="2" stroke-opacity="0.466667" points="175.965,-390.101 184.649,-384.031 174.075,-383.361 175.965,-390.101"/>
</g>
<!-- src/SiStation/CoupledSiStation.test.js&#45;&gt;src/SiStation/SiTargetMultiplexer.js -->
<g id="edge16" class="edge"><title>src/SiStation/CoupledSiStation.test.js&#45;&gt;src/SiStation/SiTargetMultiplexer.js</title>
<path fill="none" stroke="#000000" stroke-width="2" stroke-opacity="0.466667" d="M153.286,-454.796C253.505,-466.099 442.927,-483.374 506,-461 527.674,-453.312 547.502,-435.59 560.285,-422.126"/>
<polygon fill="#000000" fill-opacity="0.466667" stroke="#000000" stroke-width="2" stroke-opacity="0.466667" points="563.152,-424.176 567.287,-414.421 557.971,-419.468 563.152,-424.176"/>
</g>
<!-- src/SiStation/CoupledSiStation.test.js&#45;&gt;src/testUtils.js -->
<g id="edge14" class="edge"><title>src/SiStation/CoupledSiStation.test.js&#45;&gt;src/testUtils.js</title>
<path fill="none" stroke="#000000" stroke-width="2" stroke-opacity="0.466667" d="M135.848,-456.074C141.716,-457.766 147.564,-459.732 153,-462 156.87,-463.615 157.398,-464.853 161,-467 229.048,-507.557 273.443,-488.185 316,-555 327.976,-573.803 307.62,-639.878 324,-655 387.243,-713.386 500.714,-663.651 550.477,-637.1"/>
<polygon fill="#000000" fill-opacity="0.466667" stroke="#000000" stroke-width="2" stroke-opacity="0.466667" points="552.454,-640.008 559.547,-632.137 549.094,-633.867 552.454,-640.008"/>
</g>
<!-- src/SiStation/SiMainStation.js -->
<g id="node11" class="node"><title>src/SiStation/SiMainStation.js</title>
<g id="a_node11"><a xlink:href="src/SiStation/SiMainStation.js" xlink:title="SiMainStation.js">
<path fill="#ffffcc" stroke="black" d="M278,-356C278,-356 199,-356 199,-356 196,-356 193,-353 193,-350 193,-350 193,-344 193,-344 193,-341 196,-338 199,-338 199,-338 278,-338 278,-338 281,-338 284,-341 284,-344 284,-344 284,-350 284,-350 284,-353 281,-356 278,-356"/>
<text text-anchor="middle" x="238.5" y="-344.8" font-family="Helvetica,sans-Serif" font-size="9.00">SiMainStation.js</text>
</a>
</g>
</g>
<!-- src/SiStation/SiMainStation.js&#45;&gt;src/SiCard/index.js -->
<g id="edge17" class="edge"><title>src/SiStation/SiMainStation.js&#45;&gt;src/SiCard/index.js</title>
<path fill="none" stroke="#000000" stroke-width="2" stroke-opacity="0.466667" d="M284.213,-346.137C296.192,-348.215 308.017,-352.8 316,-362 338.314,-387.715 304.447,-487.128 324,-515 336.359,-532.617 358.576,-542.106 377.843,-547.196"/>
<polygon fill="#000000" fill-opacity="0.466667" stroke="#000000" stroke-width="2" stroke-opacity="0.466667" points="377.047,-550.604 387.581,-549.476 378.643,-543.788 377.047,-550.604"/>
</g>
<!-- src/SiStation/SiMainStation.js&#45;&gt;src/SiStation/BaseSiStation.js -->
<g id="edge21" class="edge"><title>src/SiStation/SiMainStation.js&#45;&gt;src/SiStation/BaseSiStation.js</title>
<path fill="none" stroke="#000000" stroke-width="2" stroke-opacity="0.466667" d="M284.438,-343.395C307.147,-341.573 334.901,-339.346 358.887,-337.422"/>
<polygon fill="#000000" fill-opacity="0.466667" stroke="#000000" stroke-width="2" stroke-opacity="0.466667" points="359.223,-340.906 368.911,-336.617 358.663,-333.928 359.223,-340.906"/>
</g>
<!-- src/SiStation/SiMainStation.js&#45;&gt;src/SiStation/SiTargetMultiplexer.js -->
<g id="edge22" class="edge"><title>src/SiStation/SiMainStation.js&#45;&gt;src/SiStation/SiTargetMultiplexer.js</title>
<path fill="none" stroke="#000000" stroke-width="2" stroke-opacity="0.466667" d="M284.125,-348.515C357.767,-351.201 497.515,-357.165 506,-364 513.953,-370.406 508.447,-378.636 512.92,-388.125"/>
<polygon fill="#000000" fill-opacity="0.466667" stroke="#000000" stroke-width="2" stroke-opacity="0.466667" points="510.168,-390.287 519.094,-395.994 515.675,-385.966 510.168,-390.287"/>
</g>
<!-- src/SiStation/SiMainStation.js&#45;&gt;src/constants.js -->
<g id="edge18" class="edge"><title>src/SiStation/SiMainStation.js&#45;&gt;src/constants.js</title>
<path fill="none" stroke="#000000" stroke-width="2" stroke-opacity="0.466667" d="M284.223,-348.79C296.057,-346.985 307.801,-342.748 316,-334 339.528,-308.896 300.41,-282.046 324,-257 352.104,-227.161 465.685,-234.41 506,-227 513.439,-225.633 521.314,-224.108 528.979,-222.583"/>
<polygon fill="#000000" fill-opacity="0.466667" stroke="#000000" stroke-width="2" stroke-opacity="0.466667" points="529.767,-225.994 538.88,-220.59 528.386,-219.132 529.767,-225.994"/>
</g>
<!-- src/SiStation/SiMainStation.js&#45;&gt;src/siProtocol.js -->
<g id="edge19" class="edge"><title>src/SiStation/SiMainStation.js&#45;&gt;src/siProtocol.js</title>
<path fill="none" stroke="#000000" stroke-width="2" stroke-opacity="0.466667" d="M284.383,-346.405C295.546,-344.453 306.908,-340.737 316,-334 322.388,-329.266 317.4,-322.432 324,-318 385.18,-276.917 474.67,-281.714 528.628,-289.773"/>
<polygon fill="#000000" fill-opacity="0.466667" stroke="#000000" stroke-width="2" stroke-opacity="0.466667" points="528.174,-293.245 538.6,-291.361 529.275,-286.332 528.174,-293.245"/>
</g>
<!-- src/SiStation/SiMainStation.js&#45;&gt;src/utils/index.js -->
<g id="edge20" class="edge"><title>src/SiStation/SiMainStation.js&#45;&gt;src/utils/index.js</title>
<path fill="none" stroke="#000000" stroke-width="2" stroke-opacity="0.466667" d="M284.107,-348.68C295.938,-346.873 307.71,-342.662 316,-334 335.819,-313.29 303.039,-289.554 324,-270 338.81,-256.185 485.894,-262.436 506,-260 516.71,-258.703 528.261,-256.749 538.792,-254.747"/>
<polygon fill="#000000" fill-opacity="0.466667" stroke="#000000" stroke-width="2" stroke-opacity="0.466667" points="539.779,-258.12 548.914,-252.752 538.426,-251.252 539.779,-258.12"/>
</g>
<!-- src/SiStation/SiMainStation.test.js -->
<g id="node12" class="node"><title>src/SiStation/SiMainStation.test.js</title>
<g id="a_node12"><a xlink:href="src/SiStation/SiMainStation.test.js" xlink:title="SiMainStation.test.js">
<path fill="#ffffcc" stroke="black" d="M139,-486C139,-486 38,-486 38,-486 35,-486 32,-483 32,-480 32,-480 32,-474 32,-474 32,-471 35,-468 38,-468 38,-468 139,-468 139,-468 142,-468 145,-471 145,-474 145,-474 145,-480 145,-480 145,-483 142,-486 139,-486"/>
<text text-anchor="middle" x="88.5" y="-474.8" font-family="Helvetica,sans-Serif" font-size="9.00">SiMainStation.test.js</text>
</a>
</g>
</g>
<!-- src/SiStation/SiMainStation.test.js&#45;&gt;src/SiCard/types/SiCard5.js -->
<g id="edge23" class="edge"><title>src/SiStation/SiMainStation.test.js&#45;&gt;src/SiCard/types/SiCard5.js</title>
<path fill="none" stroke="#000000" stroke-width="2" stroke-opacity="0.466667" d="M100.899,-486.247C114.424,-496.745 138.043,-513.627 161,-523 226.123,-549.59 267.139,-504.398 316,-555 330.719,-570.243 308.991,-587.043 324,-602 336.637,-614.593 355.574,-619.009 372.822,-620.005"/>
<polygon fill="#000000" fill-opacity="0.466667" stroke="#000000" stroke-width="2" stroke-opacity="0.466667" points="373.2,-623.514 383.272,-620.226 373.348,-616.516 373.2,-623.514"/>
</g>
<!-- src/SiStation/SiMainStation.test.js&#45;&gt;src/SiCard/types/SiCard6.js -->
<g id="edge24" class="edge"><title>src/SiStation/SiMainStation.test.js&#45;&gt;src/SiCard/types/SiCard6.js</title>
<path fill="none" stroke="#000000" stroke-width="2" stroke-opacity="0.466667" d="M106.025,-486.071C120.192,-493.433 141.365,-503.469 161,-509 194.429,-518.416 290.865,-505.034 316,-529 330.702,-543.018 309.405,-559.871 324,-574 336.775,-586.367 355.729,-590.368 372.952,-590.972"/>
<polygon fill="#000000" fill-opacity="0.466667" stroke="#000000" stroke-width="2" stroke-opacity="0.466667" points="373.389,-594.471 383.382,-590.952 373.376,-587.471 373.389,-594.471"/>
</g>
<!-- src/SiStation/SiMainStation.test.js&#45;&gt;src/SiDevice/testUtils/FakeSiDevice.js -->
<g id="edge25" class="edge"><title>src/SiStation/SiMainStation.test.js&#45;&gt;src/SiDevice/testUtils/FakeSiDevice.js</title>
<path fill="none" stroke="#000000" stroke-width="2" stroke-opacity="0.466667" d="M145.178,-483.793C225.149,-493.708 377.106,-513.134 506,-533 511.126,-533.79 516.46,-534.65 521.789,-535.535"/>
<polygon fill="#000000" fill-opacity="0.466667" stroke="#000000" stroke-width="2" stroke-opacity="0.466667" points="521.534,-539.041 531.978,-537.254 522.7,-532.139 521.534,-539.041"/>
</g>
<!-- src/SiStation/SiMainStation.test.js&#45;&gt;src/SiStation/SiMainStation.js -->
<g id="edge30" class="edge"><title>src/SiStation/SiMainStation.test.js&#45;&gt;src/SiStation/SiMainStation.js</title>
<path fill="none" stroke="#000000" stroke-width="2" stroke-opacity="0.466667" d="M145.132,-468.782C148.048,-466.904 150.713,-464.665 153,-462 167.52,-445.084 146.158,-378.635 161,-362 166.829,-355.467 174.596,-351.278 182.951,-348.666"/>
<polygon fill="#000000" fill-opacity="0.466667" stroke="#000000" stroke-width="2" stroke-opacity="0.466667" points="184.034,-352.005 192.946,-346.277 182.407,-345.197 184.034,-352.005"/>
</g>
<!-- src/SiStation/SiMainStation.test.js&#45;&gt;src/SiStation/SiTargetMultiplexer.js -->
<g id="edge31" class="edge"><title>src/SiStation/SiMainStation.test.js&#45;&gt;src/SiStation/SiTargetMultiplexer.js</title>
<path fill="none" stroke="#000000" stroke-width="2" stroke-opacity="0.466667" d="M145.245,-478.454C251.092,-480.886 473.544,-484.295 506,-471 530.074,-461.138 550.563,-438.564 562.814,-422.57"/>
<polygon fill="#000000" fill-opacity="0.466667" stroke="#000000" stroke-width="2" stroke-opacity="0.466667" points="565.653,-424.618 568.744,-414.484 560.008,-420.478 565.653,-424.618"/>
</g>
<!-- src/SiStation/SiMainStation.test.js&#45;&gt;src/constants.js -->
<g id="edge26" class="edge"><title>src/SiStation/SiMainStation.test.js&#45;&gt;src/constants.js</title>
<path fill="none" stroke="#000000" stroke-width="2" stroke-opacity="0.466667" d="M145.189,-468.83C148.092,-466.941 150.737,-464.685 153,-462 171.649,-439.865 146.314,-356.941 161,-332 204.603,-257.95 242.262,-254.526 324,-228 392.563,-205.749 477.105,-205.962 528.487,-208.917"/>
<polygon fill="#000000" fill-opacity="0.466667" stroke="#000000" stroke-width="2" stroke-opacity="0.466667" points="528.417,-212.419 538.619,-209.56 528.861,-205.434 528.417,-212.419"/>
</g>
<!-- src/simulation/SiCardSimulator/types/SiCard5Simulator.js -->
<g id="node19" class="node"><title>src/simulation/SiCardSimulator/types/SiCard5Simulator.js</title>
<g id="a_node19"><a xlink:href="src/simulation/SiCardSimulator/types/SiCard5Simulator.js" xlink:title="SiCard5Simulator.js">
<path fill="#ffffcc" stroke="black" d="M286,-614C286,-614 191,-614 191,-614 188,-614 185,-611 185,-608 185,-608 185,-602 185,-602 185,-599 188,-596 191,-596 191,-596 286,-596 286,-596 289,-596 292,-599 292,-602 292,-602 292,-608 292,-608 292,-611 289,-614 286,-614"/>
<text text-anchor="middle" x="238.5" y="-602.8" font-family="Helvetica,sans-Serif" font-size="9.00">SiCard5Simulator.js</text>
</a>
</g>
</g>
<!-- src/SiStation/SiMainStation.test.js&#45;&gt;src/simulation/SiCardSimulator/types/SiCard5Simulator.js -->
<g id="edge27" class="edge"><title>src/SiStation/SiMainStation.test.js&#45;&gt;src/simulation/SiCardSimulator/types/SiCard5Simulator.js</title>
<path fill="none" stroke="#000000" stroke-width="2" stroke-opacity="0.466667" d="M92.4239,-486.102C99.937,-507.925 122.108,-563.385 161,-590 165.288,-592.934 170.01,-595.326 174.94,-597.272"/>
<polygon fill="#000000" fill-opacity="0.466667" stroke="#000000" stroke-width="2" stroke-opacity="0.466667" points="174.023,-600.655 184.617,-600.489 176.232,-594.013 174.023,-600.655"/>
</g>
<!-- src/simulation/SiCardSimulator/types/SiCard6Simulator.js -->
<g id="node20" class="node"><title>src/simulation/SiCardSimulator/types/SiCard6Simulator.js</title>
<g id="a_node20"><a xlink:href="src/simulation/SiCardSimulator/types/SiCard6Simulator.js" xlink:title="SiCard6Simulator.js">
<path fill="#ffffcc" stroke="black" d="M286,-584C286,-584 191,-584 191,-584 188,-584 185,-581 185,-578 185,-578 185,-572 185,-572 185,-569 188,-566 191,-566 191,-566 286,-566 286,-566 289,-566 292,-569 292,-572 292,-572 292,-578 292,-578 292,-581 289,-584 286,-584"/>
<text text-anchor="middle" x="238.5" y="-572.8" font-family="Helvetica,sans-Serif" font-size="9.00">SiCard6Simulator.js</text>
</a>
</g>
</g>
<!-- src/SiStation/SiMainStation.test.js&#45;&gt;src/simulation/SiCardSimulator/types/SiCard6Simulator.js -->
<g id="edge28" class="edge"><title>src/SiStation/SiMainStation.test.js&#45;&gt;src/simulation/SiCardSimulator/types/SiCard6Simulator.js</title>
<path fill="none" stroke="#000000" stroke-width="2" stroke-opacity="0.466667" d="M99.0923,-486.34C112.291,-498.878 137.137,-521.38 161,-537 175.315,-546.371 192.266,-555.013 206.568,-561.681"/>
<polygon fill="#000000" fill-opacity="0.466667" stroke="#000000" stroke-width="2" stroke-opacity="0.466667" points="205.43,-565.009 215.982,-565.966 208.331,-558.637 205.43,-565.009"/>
</g>
<!-- src/SiStation/SiMainStation.test.js&#45;&gt;src/testUtils.js -->
<g id="edge29" class="edge"><title>src/SiStation/SiMainStation.test.js&#45;&gt;src/testUtils.js</title>
<path fill="none" stroke="#000000" stroke-width="2" stroke-opacity="0.466667" d="M90.6986,-486.115C94.8532,-513.99 111.217,-598.874 161,-643 276.851,-745.688 362.759,-749.721 506,-691 530.685,-680.88 551.271,-657.194 563.36,-640.638"/>
<polygon fill="#000000" fill-opacity="0.466667" stroke="#000000" stroke-width="2" stroke-opacity="0.466667" points="566.322,-642.51 569.174,-632.306 560.581,-638.504 566.322,-642.51"/>
</g>
<!-- src/SiStation/SiTargetMultiplexer.targeting.test.js -->
<g id="node14" class="node"><title>src/SiStation/SiTargetMultiplexer.targeting.test.js</title>
<g id="a_node14"><a xlink:href="src/SiStation/SiTargetMultiplexer.targeting.test.js" xlink:title="SiTargetMultiplexer.targeting.test.js">
<path fill="#ffffcc" stroke="black" d="M500,-444C500,-444 330,-444 330,-444 327,-444 324,-441 324,-438 324,-438 324,-432 324,-432 324,-429 327,-426 330,-426 330,-426 500,-426 500,-426 503,-426 506,-429 506,-432 506,-432 506,-438 506,-438 506,-441 503,-444 500,-444"/>
<text text-anchor="middle" x="415" y="-432.8" font-family="Helvetica,sans-Serif" font-size="9.00">SiTargetMultiplexer.targeting.test.js</text>
</a>
</g>
</g>
<!-- src/SiStation/SiTargetMultiplexer.targeting.test.js&#45;&gt;src/SiDevice/testUtils/FakeSiDevice.js -->
<g id="edge32" class="edge"><title>src/SiStation/SiTargetMultiplexer.targeting.test.js&#45;&gt;src/SiDevice/testUtils/FakeSiDevice.js</title>
<path fill="none" stroke="#000000" stroke-width="2" stroke-opacity="0.466667" d="M436.49,-444.141C456.645,-454.064 487.069,-471.668 506,-495 512.032,-502.434 507.494,-507.976 514,-515 520.361,-521.867 528.635,-527.359 537.027,-531.668"/>
<polygon fill="#000000" fill-opacity="0.466667" stroke="#000000" stroke-width="2" stroke-opacity="0.466667" points="535.551,-534.842 546.094,-535.889 538.506,-528.496 535.551,-534.842"/>
</g>
<!-- src/SiStation/SiTargetMultiplexer.targeting.test.js&#45;&gt;src/SiStation/SiTargetMultiplexer.js -->
<g id="edge36" class="edge"><title>src/SiStation/SiTargetMultiplexer.targeting.test.js&#45;&gt;src/SiStation/SiTargetMultiplexer.js</title>
<path fill="none" stroke="#000000" stroke-width="2" stroke-opacity="0.466667" d="M472.727,-425.979C483.78,-424.099 495.266,-422.06 506,-420 512.163,-418.817 518.619,-417.508 525.006,-416.17"/>
<polygon fill="#000000" fill-opacity="0.466667" stroke="#000000" stroke-width="2" stroke-opacity="0.466667" points="525.881,-419.562 534.933,-414.057 524.424,-412.715 525.881,-419.562"/>
</g>
<!-- src/SiStation/SiTargetMultiplexer.targeting.test.js&#45;&gt;src/constants.js -->
<g id="edge33" class="edge"><title>src/SiStation/SiTargetMultiplexer.targeting.test.js&#45;&gt;src/constants.js</title>
<path fill="none" stroke="#000000" stroke-width="2" stroke-opacity="0.466667" d="M499.833,-425.753C502.045,-424.048 504.112,-422.137 506,-420 520.209,-403.914 500.283,-243.508 514,-227 517.959,-222.235 523.181,-218.898 528.906,-216.59"/>
<polygon fill="#000000" fill-opacity="0.466667" stroke="#000000" stroke-width="2" stroke-opacity="0.466667" points="530.305,-219.824 538.882,-213.605 528.298,-213.118 530.305,-219.824"/>
</g>
<!-- src/SiStation/SiTargetMultiplexer.targeting.test.js&#45;&gt;src/siProtocol.js -->
<g id="edge34" class="edge"><title>src/SiStation/SiTargetMultiplexer.targeting.test.js&#45;&gt;src/siProtocol.js</title>
<path fill="none" stroke="#000000" stroke-width="2" stroke-opacity="0.466667" d="M499.367,-425.95C501.746,-424.197 503.97,-422.222 506,-420 522.08,-402.394 498.459,-331.084 514,-313 517.992,-308.354 523.185,-305.076 528.855,-302.788"/>
<polygon fill="#000000" fill-opacity="0.466667" stroke="#000000" stroke-width="2" stroke-opacity="0.466667" points="530.161,-306.049 538.72,-299.805 528.135,-299.349 530.161,-306.049"/>
</g>
<!-- src/SiStation/SiTargetMultiplexer.targeting.test.js&#45;&gt;src/testUtils.js -->
<g id="edge35" class="edge"><title>src/SiStation/SiTargetMultiplexer.targeting.test.js&#45;&gt;src/testUtils.js</title>
<path fill="none" stroke="#000000" stroke-width="2" stroke-opacity="0.466667" d="M501.931,-444.116C503.358,-445.313 504.718,-446.605 506,-448 526.337,-470.127 498.943,-556.992 514,-583 520.494,-594.217 531.545,-602.858 542.471,-609.19"/>
<polygon fill="#000000" fill-opacity="0.466667" stroke="#000000" stroke-width="2" stroke-opacity="0.466667" points="541.041,-612.393 551.517,-613.972 544.312,-606.205 541.041,-612.393"/>
</g>
<!-- src/SiStation/SiTargetMultiplexer.test.js -->
<g id="node15" class="node"><title>src/SiStation/SiTargetMultiplexer.test.js</title>
<g id="a_node15"><a xlink:href="src/SiStation/SiTargetMultiplexer.test.js" xlink:title="SiTargetMultiplexer.test.js">
<path fill="#ffffcc" stroke="black" d="M477,-414C477,-414 353,-414 353,-414 350,-414 347,-411 347,-408 347,-408 347,-402 347,-402 347,-399 350,-396 353,-396 353,-396 477,-396 477,-396 480,-396 483,-399 483,-402 483,-402 483,-408 483,-408 483,-411 480,-414 477,-414"/>
<text text-anchor="middle" x="415" y="-402.8" font-family="Helvetica,sans-Serif" font-size="9.00">SiTargetMultiplexer.test.js</text>
</a>
</g>
</g>
<!-- src/SiStation/SiTargetMultiplexer.test.js&#45;&gt;src/SiDevice/testUtils/FakeSiDevice.js -->
<g id="edge37" class="edge"><title>src/SiStation/SiTargetMultiplexer.test.js&#45;&gt;src/SiDevice/testUtils/FakeSiDevice.js</title>
<path fill="none" stroke="#000000" stroke-width="2" stroke-opacity="0.466667" d="M483.058,-405.917C491.747,-408.781 499.772,-413.245 506,-420 520.361,-435.576 502.057,-497.501 514,-515 518.631,-521.785 525.254,-527.099 532.442,-531.239"/>
<polygon fill="#000000" fill-opacity="0.466667" stroke="#000000" stroke-width="2" stroke-opacity="0.466667" points="531.233,-534.547 541.744,-535.879 534.357,-528.283 531.233,-534.547"/>
</g>
<!-- src/SiStation/SiTargetMultiplexer.test.js&#45;&gt;src/SiStation/SiTargetMultiplexer.js -->
<g id="edge41" class="edge"><title>src/SiStation/SiTargetMultiplexer.test.js&#45;&gt;src/SiStation/SiTargetMultiplexer.js</title>
<path fill="none" stroke="#000000" stroke-width="2" stroke-opacity="0.466667" d="M483.43,-405C491.855,-405 500.464,-405 508.868,-405"/>
<polygon fill="#000000" fill-opacity="0.466667" stroke="#000000" stroke-width="2" stroke-opacity="0.466667" points="508.992,-408.5 518.991,-405 508.991,-401.5 508.992,-408.5"/>
</g>
<!-- src/SiStation/SiTargetMultiplexer.test.js&#45;&gt;src/constants.js -->
<g id="edge38" class="edge"><title>src/SiStation/SiTargetMultiplexer.test.js&#45;&gt;src/constants.js</title>
<path fill="none" stroke="#000000" stroke-width="2" stroke-opacity="0.466667" d="M442.648,-395.867C463.744,-387.114 491.923,-371.691 506,-348 519.765,-324.833 496.525,-247.513 514,-227 518.017,-222.284 523.271,-218.975 529.011,-216.679"/>
<polygon fill="#000000" fill-opacity="0.466667" stroke="#000000" stroke-width="2" stroke-opacity="0.466667" points="530.414,-219.913 538.998,-213.702 528.415,-213.204 530.414,-219.913"/>
</g>
<!-- src/SiStation/SiTargetMultiplexer.test.js&#45;&gt;src/siProtocol.js -->
<g id="edge39" class="edge"><title>src/SiStation/SiTargetMultiplexer.test.js&#45;&gt;src/siProtocol.js</title>
<path fill="none" stroke="#000000" stroke-width="2" stroke-opacity="0.466667" d="M440.05,-395.964C460.706,-386.952 489.663,-371.105 506,-348 515.212,-334.971 502.722,-324.288 514,-313 518.231,-308.765 523.466,-305.705 529.077,-303.509"/>
<polygon fill="#000000" fill-opacity="0.466667" stroke="#000000" stroke-width="2" stroke-opacity="0.466667" points="530.208,-306.824 538.764,-300.576 528.179,-300.124 530.208,-306.824"/>
</g>
<!-- src/SiStation/SiTargetMultiplexer.test.js&#45;&gt;src/testUtils.js -->
<g id="edge40" class="edge"><title>src/SiStation/SiTargetMultiplexer.test.js&#45;&gt;src/testUtils.js</title>
<path fill="none" stroke="#000000" stroke-width="2" stroke-opacity="0.466667" d="M483.271,-405.723C491.931,-408.615 499.891,-413.137 506,-420 518.056,-433.544 504.995,-567.261 514,-583 520.388,-594.164 531.308,-602.765 542.159,-609.08"/>
<polygon fill="#000000" fill-opacity="0.466667" stroke="#000000" stroke-width="2" stroke-opacity="0.466667" points="540.683,-612.259 551.157,-613.854 543.963,-606.075 540.683,-612.259"/>
</g>
<!-- src/SiStation/index.js -->
<g id="node16" class="node"><title>src/SiStation/index.js</title>
<g id="a_node16"><a xlink:href="src/SiStation/index.js" xlink:title="index.js">
<path fill="#ffffcc" stroke="black" d="M109.5,-371C109.5,-371 67.5,-371 67.5,-371 64.5,-371 61.5,-368 61.5,-365 61.5,-365 61.5,-359 61.5,-359 61.5,-356 64.5,-353 67.5,-353 67.5,-353 109.5,-353 109.5,-353 112.5,-353 115.5,-356 115.5,-359 115.5,-359 115.5,-365 115.5,-365 115.5,-368 112.5,-371 109.5,-371"/>
<text text-anchor="middle" x="88.5" y="-359.8" font-family="Helvetica,sans-Serif" font-size="9.00">index.js</text>
</a>
</g>
</g>
<!-- src/SiStation/index.js&#45;&gt;src/SiStation/BaseSiStation.js -->
<g id="edge42" class="edge"><title>src/SiStation/index.js&#45;&gt;src/SiStation/BaseSiStation.js</title>
<path fill="none" stroke="#000000" stroke-width="2" stroke-opacity="0.466667" d="M105.942,-352.879C120.059,-345.599 141.205,-335.985 161,-332 228.013,-318.511 307.047,-321.792 358.722,-326.438"/>
<polygon fill="#000000" fill-opacity="0.466667" stroke="#000000" stroke-width="2" stroke-opacity="0.466667" points="358.396,-329.923 368.681,-327.381 359.056,-322.954 358.396,-329.923"/>
</g>
<!-- src/SiStation/index.js&#45;&gt;src/SiStation/CoupledSiStation.js -->
<g id="edge43" class="edge"><title>src/SiStation/index.js&#45;&gt;src/SiStation/CoupledSiStation.js</title>
<path fill="none" stroke="#000000" stroke-width="2" stroke-opacity="0.466667" d="M115.619,-364.647C132.092,-366.317 154.114,-368.549 174.905,-370.656"/>
<polygon fill="#000000" fill-opacity="0.466667" stroke="#000000" stroke-width="2" stroke-opacity="0.466667" points="174.681,-374.151 184.983,-371.677 175.387,-367.187 174.681,-374.151"/>
</g>
<!-- src/SiStation/index.js&#45;&gt;src/SiStation/SiMainStation.js -->
<g id="edge44" class="edge"><title>src/SiStation/index.js&#45;&gt;src/SiStation/SiMainStation.js</title>
<path fill="none" stroke="#000000" stroke-width="2" stroke-opacity="0.466667" d="M115.619,-359.353C134.196,-357.47 159.83,-354.872 182.797,-352.544"/>
<polygon fill="#000000" fill-opacity="0.466667" stroke="#000000" stroke-width="2" stroke-opacity="0.466667" points="183.191,-356.022 192.787,-351.532 182.485,-349.058 183.191,-356.022"/>
</g>
<!-- src/SiStation/index.js&#45;&gt;src/SiStation/SiTargetMultiplexer.js -->
<g id="edge45" class="edge"><title>src/SiStation/index.js&#45;&gt;src/SiStation/SiTargetMultiplexer.js</title>
<path fill="none" stroke="#000000" stroke-width="2" stroke-opacity="0.466667" d="M97.262,-371.032C109.393,-384.502 134.243,-409.594 161,-422 227.686,-452.919 250.76,-443.755 324,-450 404.596,-456.872 428.464,-473.049 506,-450 525.342,-444.25 544.323,-431.169 557.466,-420.584"/>
<polygon fill="#000000" fill-opacity="0.466667" stroke="#000000" stroke-width="2" stroke-opacity="0.466667" points="559.793,-423.2 565.204,-414.091 555.294,-417.838 559.793,-423.2"/>
</g>
</g>
</svg>
