<?xml version="1.0" encoding="UTF-8" standalone="no"?>
<!DOCTYPE svg PUBLIC "-//W3C//DTD SVG 1.1//EN"
 "http://www.w3.org/Graphics/SVG/1.1/DTD/svg11.dtd">
<!-- Generated by graphviz version 2.38.0 (20140413.2041)
 -->
<!-- Title: dependency&#45;cruiser output Pages: 1 -->
<svg width="487pt" height="948pt"
 viewBox="0.00 0.00 487.00 948.35" xmlns="http://www.w3.org/2000/svg" xmlns:xlink="http://www.w3.org/1999/xlink">
<g id="graph0" class="graph" transform="scale(1 1) rotate(0) translate(4 944.346)">
<title>dependency&#45;cruiser output</title>
<polygon fill="white" stroke="none" points="-4,4 -4,-944.346 483,-944.346 483,4 -4,4"/>
<g id="clust1" class="cluster"><title>cluster_node_modules</title>
<path fill="#ffffff" stroke="black" stroke-width="2" d="M391,-120.923C391,-120.923 460,-120.923 460,-120.923 466,-120.923 472,-126.923 472,-132.923 472,-132.923 472,-194.923 472,-194.923 472,-200.923 466,-206.923 460,-206.923 460,-206.923 391,-206.923 391,-206.923 385,-206.923 379,-200.923 379,-194.923 379,-194.923 379,-132.923 379,-132.923 379,-126.923 385,-120.923 391,-120.923"/>
<text text-anchor="middle" x="425.5" y="-195.723" font-family="Helvetica,sans-Serif" font-weight="bold" font-size="9.00">node_modules</text>
</g>
<g id="clust2" class="cluster"><title>cluster_node_modules/lodash</title>
<path fill="#ffffff" stroke="black" stroke-width="2" d="M400,-128.923C400,-128.923 451,-128.923 451,-128.923 457,-128.923 463,-134.923 463,-140.923 463,-140.923 463,-168.923 463,-168.923 463,-174.923 457,-180.923 451,-180.923 451,-180.923 400,-180.923 400,-180.923 394,-180.923 388,-174.923 388,-168.923 388,-168.923 388,-140.923 388,-140.923 388,-134.923 394,-128.923 400,-128.923"/>
<text text-anchor="middle" x="425.5" y="-169.723" font-family="Helvetica,sans-Serif" font-weight="bold" font-size="9.00">lodash</text>
</g>
<g id="clust3" class="cluster"><title>cluster_src</title>
<path fill="#ffffff" stroke="black" stroke-width="2" d="M20,-224.923C20,-224.923 458.5,-224.923 458.5,-224.923 464.5,-224.923 470.5,-230.923 470.5,-236.923 470.5,-236.923 470.5,-918.923 470.5,-918.923 470.5,-924.923 464.5,-930.923 458.5,-930.923 458.5,-930.923 20,-930.923 20,-930.923 14,-930.923 8,-924.923 8,-918.923 8,-918.923 8,-236.923 8,-236.923 8,-230.923 14,-224.923 20,-224.923"/>
<text text-anchor="middle" x="239.25" y="-919.723" font-family="Helvetica,sans-Serif" font-weight="bold" font-size="9.00">src</text>
</g>
<g id="clust4" class="cluster"><title>cluster_src/SiCard</title>
<path fill="#ffffff" stroke="black" stroke-width="2" d="M28,-246.923C28,-246.923 359,-246.923 359,-246.923 365,-246.923 371,-252.923 371,-258.923 371,-258.923 371,-820.923 371,-820.923 371,-826.923 365,-832.923 359,-832.923 359,-832.923 28,-832.923 28,-832.923 22,-832.923 16,-826.923 16,-820.923 16,-820.923 16,-258.923 16,-258.923 16,-252.923 22,-246.923 28,-246.923"/>
<text text-anchor="middle" x="193.5" y="-821.723" font-family="Helvetica,sans-Serif" font-weight="bold" font-size="9.00">SiCard</text>
</g>
<g id="clust5" class="cluster"><title>cluster_src/SiCard/types</title>
<path fill="#ffffff" stroke="black" stroke-width="2" d="M36,-384.923C36,-384.923 351,-384.923 351,-384.923 357,-384.923 363,-390.923 363,-396.923 363,-396.923 363,-754.923 363,-754.923 363,-760.923 357,-766.923 351,-766.923 351,-766.923 36,-766.923 36,-766.923 30,-766.923 24,-760.923 24,-754.923 24,-754.923 24,-396.923 24,-396.923 24,-390.923 30,-384.923 36,-384.923"/>
<text text-anchor="middle" x="193.5" y="-755.723" font-family="Helvetica,sans-Serif" font-weight="bold" font-size="9.00">types</text>
</g>
<g id="clust6" class="cluster"><title>cluster_src/storage</title>
<path fill="#ffffff" stroke="black" stroke-width="2" d="M402.5,-316.923C402.5,-316.923 448.5,-316.923 448.5,-316.923 454.5,-316.923 460.5,-322.923 460.5,-328.923 460.5,-328.923 460.5,-356.923 460.5,-356.923 460.5,-362.923 454.5,-368.923 448.5,-368.923 448.5,-368.923 402.5,-368.923 402.5,-368.923 396.5,-368.923 390.5,-362.923 390.5,-356.923 390.5,-356.923 390.5,-328.923 390.5,-328.923 390.5,-322.923 396.5,-316.923 402.5,-316.923"/>
<text text-anchor="middle" x="425.5" y="-357.723" font-family="Helvetica,sans-Serif" font-weight="bold" font-size="9.00">storage</text>
</g>
<g id="clust7" class="cluster"><title>cluster_src/utils</title>
<path fill="#ffffff" stroke="black" stroke-width="2" d="M402.5,-256.923C402.5,-256.923 448.5,-256.923 448.5,-256.923 454.5,-256.923 460.5,-262.923 460.5,-268.923 460.5,-268.923 460.5,-296.923 460.5,-296.923 460.5,-302.923 454.5,-308.923 448.5,-308.923 448.5,-308.923 402.5,-308.923 402.5,-308.923 396.5,-308.923 390.5,-302.923 390.5,-296.923 390.5,-296.923 390.5,-268.923 390.5,-268.923 390.5,-262.923 396.5,-256.923 402.5,-256.923"/>
<text text-anchor="middle" x="425.5" y="-297.723" font-family="Helvetica,sans-Serif" font-weight="bold" font-size="9.00">utils</text>
</g>
<!-- node_modules/lodash/lodash.js -->
<g id="node1" class="node"><title>node_modules/lodash/lodash.js</title>
<g id="a_node1"><a xlink:href="node_modules/lodash/lodash.js" xlink:title="lodash.js">
<polygon fill="#c40b0a" fill-opacity="0.101961" stroke="black" points="455,-154.923 453.5,-156.923 443,-156.923 441.5,-154.923 396,-154.923 396,-136.923 455,-136.923 455,-154.923"/>
<text text-anchor="middle" x="425.5" y="-143.723" font-family="Helvetica,sans-Serif" font-size="9.00" fill="#c40b0a">lodash.js</text>
</a>
</g>
</g>
<!-- src/SiCard/BaseSiCard.js -->
<g id="node2" class="node"><title>src/SiCard/BaseSiCard.js</title>
<g id="a_node2"><a xlink:href="src/SiCard/BaseSiCard.js" xlink:title="BaseSiCard.js">
<path fill="#ffffcc" stroke="black" d="M343,-376.923C343,-376.923 275,-376.923 275,-376.923 272,-376.923 269,-373.923 269,-370.923 269,-370.923 269,-364.923 269,-364.923 269,-361.923 272,-358.923 275,-358.923 275,-358.923 343,-358.923 343,-358.923 346,-358.923 349,-361.923 349,-364.923 349,-364.923 349,-370.923 349,-370.923 349,-373.923 346,-376.923 343,-376.923"/>
<text text-anchor="middle" x="309" y="-365.723" font-family="Helvetica,sans-Serif" font-size="9.00">BaseSiCard.js</text>
</a>
</g>
</g>
<!-- src/SiCard/BaseSiCard.js&#45;&gt;node_modules/lodash/lodash.js -->
<g id="edge4" class="edge"><title>src/SiCard/BaseSiCard.js&#45;&gt;node_modules/lodash/lodash.js</title>
<path fill="none" stroke="#000000" stroke-width="2" stroke-opacity="0.466667" d="M314.774,-358.667C332.087,-325.099 391.776,-209.37 415.077,-164.193"/>
<polygon fill="#000000" fill-opacity="0.466667" stroke="#000000" stroke-width="2" stroke-opacity="0.466667" points="418.232,-165.711 419.705,-155.219 412.011,-162.502 418.232,-165.711"/>
</g>
<!-- src/constants.js -->
<g id="node29" class="node"><title>src/constants.js</title>
<g id="a_node29"><a xlink:href="src/constants.js" xlink:title="constants.js">
<path fill="#ffffcc" stroke="black" d="M456.5,-812.923C456.5,-812.923 394.5,-812.923 394.5,-812.923 391.5,-812.923 388.5,-809.923 388.5,-806.923 388.5,-806.923 388.5,-800.923 388.5,-800.923 388.5,-797.923 391.5,-794.923 394.5,-794.923 394.5,-794.923 456.5,-794.923 456.5,-794.923 459.5,-794.923 462.5,-797.923 462.5,-800.923 462.5,-800.923 462.5,-806.923 462.5,-806.923 462.5,-809.923 459.5,-812.923 456.5,-812.923"/>
<text text-anchor="middle" x="425.5" y="-801.723" font-family="Helvetica,sans-Serif" font-size="9.00">constants.js</text>
</a>
</g>
</g>
<!-- src/SiCard/BaseSiCard.js&#45;&gt;src/constants.js -->
<g id="edge1" class="edge"><title>src/SiCard/BaseSiCard.js&#45;&gt;src/constants.js</title>
<path fill="none" stroke="#000000" stroke-width="2" stroke-opacity="0.466667" d="M349.167,-369.382C357.486,-371.561 365.428,-375.394 371,-381.923 379.53,-391.919 377.582,-486.859 379,-499.923 390.73,-607.979 412.595,-736.52 421.044,-784.555"/>
<polygon fill="#000000" fill-opacity="0.466667" stroke="#000000" stroke-width="2" stroke-opacity="0.466667" points="417.616,-785.267 422.805,-794.503 424.509,-784.046 417.616,-785.267"/>
</g>
<!-- src/siProtocol.js -->
<g id="node30" class="node"><title>src/siProtocol.js</title>
<g id="a_node30"><a xlink:href="src/siProtocol.js" xlink:title="siProtocol.js">
<path fill="#ffffcc" stroke="black" d="M456.5,-493.923C456.5,-493.923 394.5,-493.923 394.5,-493.923 391.5,-493.923 388.5,-490.923 388.5,-487.923 388.5,-487.923 388.5,-481.923 388.5,-481.923 388.5,-478.923 391.5,-475.923 394.5,-475.923 394.5,-475.923 456.5,-475.923 456.5,-475.923 459.5,-475.923 462.5,-478.923 462.5,-481.923 462.5,-481.923 462.5,-487.923 462.5,-487.923 462.5,-490.923 459.5,-493.923 456.5,-493.923"/>
<text text-anchor="middle" x="425.5" y="-482.723" font-family="Helvetica,sans-Serif" font-size="9.00">siProtocol.js</text>
</a>
</g>
</g>
<!-- src/SiCard/BaseSiCard.js&#45;&gt;src/siProtocol.js -->
<g id="edge2" class="edge"><title>src/SiCard/BaseSiCard.js&#45;&gt;src/siProtocol.js</title>
<path fill="none" stroke="#000000" stroke-width="2" stroke-opacity="0.466667" d="M349.014,-371.628C356.862,-373.756 364.641,-377.002 371,-381.923 398.513,-403.217 413.25,-442.64 419.929,-466.051"/>
<polygon fill="#000000" fill-opacity="0.466667" stroke="#000000" stroke-width="2" stroke-opacity="0.466667" points="416.576,-467.061 422.515,-475.834 423.343,-465.272 416.576,-467.061"/>
</g>
<!-- src/utils/index.js -->
<g id="node33" class="node"><title>src/utils/index.js</title>
<g id="a_node33"><a xlink:href="src/utils/index.js" xlink:title="index.js">
<path fill="#ffffcc" stroke="black" d="M446.5,-282.923C446.5,-282.923 404.5,-282.923 404.5,-282.923 401.5,-282.923 398.5,-279.923 398.5,-276.923 398.5,-276.923 398.5,-270.923 398.5,-270.923 398.5,-267.923 401.5,-264.923 404.5,-264.923 404.5,-264.923 446.5,-264.923 446.5,-264.923 449.5,-264.923 452.5,-267.923 452.5,-270.923 452.5,-270.923 452.5,-276.923 452.5,-276.923 452.5,-279.923 449.5,-282.923 446.5,-282.923"/>
<text text-anchor="middle" x="425.5" y="-271.723" font-family="Helvetica,sans-Serif" font-size="9.00">index.js</text>
</a>
</g>
</g>
<!-- src/SiCard/BaseSiCard.js&#45;&gt;src/utils/index.js -->
<g id="edge3" class="edge"><title>src/SiCard/BaseSiCard.js&#45;&gt;src/utils/index.js</title>
<path fill="none" stroke="#000000" stroke-width="2" stroke-opacity="0.466667" d="M320.979,-358.91C340.506,-342.879 381.485,-309.237 405.616,-289.426"/>
<polygon fill="#000000" fill-opacity="0.466667" stroke="#000000" stroke-width="2" stroke-opacity="0.466667" points="407.878,-292.098 413.386,-283.047 403.436,-286.687 407.878,-292.098"/>
</g>
<!-- src/SiCard/BaseSiCard.test.js -->
<g id="node3" class="node"><title>src/SiCard/BaseSiCard.test.js</title>
<g id="a_node3"><a xlink:href="src/SiCard/BaseSiCard.test.js" xlink:title="BaseSiCard.test.js">
<path fill="#ffffcc" stroke="black" d="M238,-806.923C238,-806.923 148,-806.923 148,-806.923 145,-806.923 142,-803.923 142,-800.923 142,-800.923 142,-794.923 142,-794.923 142,-791.923 145,-788.923 148,-788.923 148,-788.923 238,-788.923 238,-788.923 241,-788.923 244,-791.923 244,-794.923 244,-794.923 244,-800.923 244,-800.923 244,-803.923 241,-806.923 238,-806.923"/>
<text text-anchor="middle" x="193" y="-795.723" font-family="Helvetica,sans-Serif" font-size="9.00">BaseSiCard.test.js</text>
</a>
</g>
</g>
<!-- src/SiCard/BaseSiCard.test.js&#45;&gt;src/SiCard/BaseSiCard.js -->
<g id="edge9" class="edge"><title>src/SiCard/BaseSiCard.test.js&#45;&gt;src/SiCard/BaseSiCard.js</title>
<path fill="none" stroke="#000000" stroke-width="2" stroke-opacity="0.466667" d="M239.778,-788.873C243.708,-786.527 247.233,-783.592 250,-779.923 275.187,-746.531 240.415,-452.066 264.229,-385.437"/>
<polygon fill="#000000" fill-opacity="0.466667" stroke="#000000" stroke-width="2" stroke-opacity="0.466667" points="267.492,-386.746 268.973,-376.255 261.273,-383.533 267.492,-386.746"/>
</g>
<!-- src/SiCard/BaseSiCard.test.js&#45;&gt;src/constants.js -->
<g id="edge5" class="edge"><title>src/SiCard/BaseSiCard.test.js&#45;&gt;src/constants.js</title>
<path fill="none" stroke="#000000" stroke-width="2" stroke-opacity="0.466667" d="M244.015,-799.225C283.882,-800.263 339.277,-801.705 378.149,-802.717"/>
<polygon fill="#000000" fill-opacity="0.466667" stroke="#000000" stroke-width="2" stroke-opacity="0.466667" points="378.064,-806.215 388.151,-802.977 378.246,-799.218 378.064,-806.215"/>
</g>
<!-- src/SiCard/BaseSiCard.test.js&#45;&gt;src/siProtocol.js -->
<g id="edge6" class="edge"><title>src/SiCard/BaseSiCard.test.js&#45;&gt;src/siProtocol.js</title>
<path fill="none" stroke="#000000" stroke-width="2" stroke-opacity="0.466667" d="M244.207,-796.285C290.082,-793.703 353.373,-787.051 371,-769.923 409.169,-732.833 420.783,-562.602 423.671,-504.456"/>
<polygon fill="#000000" fill-opacity="0.466667" stroke="#000000" stroke-width="2" stroke-opacity="0.466667" points="427.183,-504.265 424.149,-494.114 420.191,-503.942 427.183,-504.265"/>
</g>
<!-- src/storage/index.js -->
<g id="node31" class="node"><title>src/storage/index.js</title>
<g id="a_node31"><a xlink:href="src/storage/index.js" xlink:title="index.js">
<path fill="#ffffcc" stroke="black" d="M446.5,-342.923C446.5,-342.923 404.5,-342.923 404.5,-342.923 401.5,-342.923 398.5,-339.923 398.5,-336.923 398.5,-336.923 398.5,-330.923 398.5,-330.923 398.5,-327.923 401.5,-324.923 404.5,-324.923 404.5,-324.923 446.5,-324.923 446.5,-324.923 449.5,-324.923 452.5,-327.923 452.5,-330.923 452.5,-330.923 452.5,-336.923 452.5,-336.923 452.5,-339.923 449.5,-342.923 446.5,-342.923"/>
<text text-anchor="middle" x="425.5" y="-331.723" font-family="Helvetica,sans-Serif" font-size="9.00">index.js</text>
</a>
</g>
</g>
<!-- src/SiCard/BaseSiCard.test.js&#45;&gt;src/storage/index.js -->
<g id="edge7" class="edge"><title>src/SiCard/BaseSiCard.test.js&#45;&gt;src/storage/index.js</title>
<path fill="none" stroke="#000000" stroke-width="2" stroke-opacity="0.466667" d="M226.279,-788.816C235.481,-784.591 244.494,-778.53 250,-769.923 274.982,-730.875 231.66,-387.08 263,-352.923 267.203,-348.342 342.108,-341.068 388.412,-336.977"/>
<polygon fill="#000000" fill-opacity="0.466667" stroke="#000000" stroke-width="2" stroke-opacity="0.466667" points="388.726,-340.463 398.384,-336.106 388.117,-333.489 388.726,-340.463"/>
</g>
<!-- src/testUtils.js -->
<g id="node32" class="node"><title>src/testUtils.js</title>
<g id="a_node32"><a xlink:href="src/testUtils.js" xlink:title="testUtils.js">
<path fill="#ffffcc" stroke="black" d="M336,-862.923C336,-862.923 282,-862.923 282,-862.923 279,-862.923 276,-859.923 276,-856.923 276,-856.923 276,-850.923 276,-850.923 276,-847.923 279,-844.923 282,-844.923 282,-844.923 336,-844.923 336,-844.923 339,-844.923 342,-847.923 342,-850.923 342,-850.923 342,-856.923 342,-856.923 342,-859.923 339,-862.923 336,-862.923"/>
<text text-anchor="middle" x="309" y="-851.723" font-family="Helvetica,sans-Serif" font-size="9.00">testUtils.js</text>
</a>
</g>
</g>
<!-- src/SiCard/BaseSiCard.test.js&#45;&gt;src/testUtils.js -->
<g id="edge8" class="edge"><title>src/SiCard/BaseSiCard.test.js&#45;&gt;src/testUtils.js</title>
<path fill="none" stroke="#000000" stroke-width="2" stroke-opacity="0.466667" d="M243.952,-806.985C246.077,-808.148 248.107,-809.455 250,-810.923 259.896,-818.598 253.717,-827.517 263,-835.923 264.497,-837.279 266.109,-838.538 267.8,-839.708"/>
<polygon fill="#000000" fill-opacity="0.466667" stroke="#000000" stroke-width="2" stroke-opacity="0.466667" points="266.349,-842.91 276.767,-844.836 269.824,-836.833 266.349,-842.91"/>
</g>
<!-- src/SiCard/index.js -->
<g id="node4" class="node"><title>src/SiCard/index.js</title>
<g id="a_node4"><a xlink:href="src/SiCard/index.js" xlink:title="index.js">
<path fill="#ffffcc" stroke="black" d="M98.5,-792.923C98.5,-792.923 56.5,-792.923 56.5,-792.923 53.5,-792.923 50.5,-789.923 50.5,-786.923 50.5,-786.923 50.5,-780.923 50.5,-780.923 50.5,-777.923 53.5,-774.923 56.5,-774.923 56.5,-774.923 98.5,-774.923 98.5,-774.923 101.5,-774.923 104.5,-777.923 104.5,-780.923 104.5,-780.923 104.5,-786.923 104.5,-786.923 104.5,-789.923 101.5,-792.923 98.5,-792.923"/>
<text text-anchor="middle" x="77.5" y="-781.723" font-family="Helvetica,sans-Serif" font-size="9.00">index.js</text>
</a>
</g>
</g>
<!-- src/SiCard/index.js&#45;&gt;src/SiCard/BaseSiCard.js -->
<g id="edge10" class="edge"><title>src/SiCard/index.js&#45;&gt;src/SiCard/BaseSiCard.js</title>
<path fill="none" stroke="#000000" stroke-width="2" stroke-opacity="0.466667" d="M104.735,-782.691C151.547,-780.366 245.066,-775.099 250,-769.923 278.134,-740.407 241.325,-450.627 264.354,-385.255"/>
<polygon fill="#000000" fill-opacity="0.466667" stroke="#000000" stroke-width="2" stroke-opacity="0.466667" points="267.52,-386.751 268.975,-376.257 261.293,-383.553 267.52,-386.751"/>
</g>
<!-- src/SiCard/types/index.js -->
<g id="node27" class="node"><title>src/SiCard/types/index.js</title>
<g id="a_node27"><a xlink:href="src/SiCard/types/index.js" xlink:title="index.js">
<path fill="#ffffcc" stroke="black" d="M214,-710.923C214,-710.923 172,-710.923 172,-710.923 169,-710.923 166,-707.923 166,-704.923 166,-704.923 166,-698.923 166,-698.923 166,-695.923 169,-692.923 172,-692.923 172,-692.923 214,-692.923 214,-692.923 217,-692.923 220,-695.923 220,-698.923 220,-698.923 220,-704.923 220,-704.923 220,-707.923 217,-710.923 214,-710.923"/>
<text text-anchor="middle" x="193" y="-699.723" font-family="Helvetica,sans-Serif" font-size="9.00">index.js</text>
</a>
</g>
</g>
<!-- src/SiCard/index.js&#45;&gt;src/SiCard/types/index.js -->
<g id="edge11" class="edge"><title>src/SiCard/index.js&#45;&gt;src/SiCard/types/index.js</title>
<path fill="none" stroke="#000000" stroke-width="2" stroke-opacity="0.466667" d="M104.542,-780.466C111.343,-778.401 118.125,-775.122 123,-769.923 139.59,-752.231 119.033,-734.254 136,-716.923 141.434,-711.372 148.682,-707.805 156.156,-705.53"/>
<polygon fill="#000000" fill-opacity="0.466667" stroke="#000000" stroke-width="2" stroke-opacity="0.466667" points="157.041,-708.917 165.977,-703.225 155.442,-702.103 157.041,-708.917"/>
</g>
<!-- src/SiCard/types/FCard.js -->
<g id="node5" class="node"><title>src/SiCard/types/FCard.js</title>
<g id="a_node5"><a xlink:href="src/SiCard/types/FCard.js" xlink:title="FCard.js">
<path fill="#ffffcc" stroke="black" d="M214,-590.923C214,-590.923 172,-590.923 172,-590.923 169,-590.923 166,-587.923 166,-584.923 166,-584.923 166,-578.923 166,-578.923 166,-575.923 169,-572.923 172,-572.923 172,-572.923 214,-572.923 214,-572.923 217,-572.923 220,-575.923 220,-578.923 220,-578.923 220,-584.923 220,-584.923 220,-587.923 217,-590.923 214,-590.923"/>
<text text-anchor="middle" x="193" y="-579.723" font-family="Helvetica,sans-Serif" font-size="9.00">FCard.js</text>
</a>
</g>
</g>
<!-- src/SiCard/types/FCard.js&#45;&gt;src/SiCard/BaseSiCard.js -->
<g id="edge12" class="edge"><title>src/SiCard/types/FCard.js&#45;&gt;src/SiCard/BaseSiCard.js</title>
<path fill="none" stroke="#000000" stroke-width="2" stroke-opacity="0.466667" d="M220.126,-581.324C231.005,-579.648 242.764,-575.698 250,-566.923 274.48,-537.24 242.285,-429.898 263.328,-385.154"/>
<polygon fill="#000000" fill-opacity="0.466667" stroke="#000000" stroke-width="2" stroke-opacity="0.466667" points="266.338,-386.943 268.666,-376.607 260.401,-383.235 266.338,-386.943"/>
</g>
<!-- src/SiCard/types/FCard.test.js -->
<g id="node6" class="node"><title>src/SiCard/types/FCard.test.js</title>
<g id="a_node6"><a xlink:href="src/SiCard/types/FCard.test.js" xlink:title="FCard.test.js">
<path fill="#ffffcc" stroke="black" d="M109.5,-530.923C109.5,-530.923 45.5,-530.923 45.5,-530.923 42.5,-530.923 39.5,-527.923 39.5,-524.923 39.5,-524.923 39.5,-518.923 39.5,-518.923 39.5,-515.923 42.5,-512.923 45.5,-512.923 45.5,-512.923 109.5,-512.923 109.5,-512.923 112.5,-512.923 115.5,-515.923 115.5,-518.923 115.5,-518.923 115.5,-524.923 115.5,-524.923 115.5,-527.923 112.5,-530.923 109.5,-530.923"/>
<text text-anchor="middle" x="77.5" y="-519.723" font-family="Helvetica,sans-Serif" font-size="9.00">FCard.test.js</text>
</a>
</g>
</g>
<!-- src/SiCard/types/FCard.test.js&#45;&gt;src/SiCard/BaseSiCard.js -->
<g id="edge13" class="edge"><title>src/SiCard/types/FCard.test.js&#45;&gt;src/SiCard/BaseSiCard.js</title>
<path fill="none" stroke="#000000" stroke-width="2" stroke-opacity="0.466667" d="M115.821,-513.418C118.549,-511.644 121.006,-509.504 123,-506.923 148.2,-474.313 105.854,-350.025 136,-321.923 154.531,-304.649 226.077,-313.588 250,-321.923 266.798,-327.776 282.385,-340.746 293.162,-351.426"/>
<polygon fill="#000000" fill-opacity="0.466667" stroke="#000000" stroke-width="2" stroke-opacity="0.466667" points="290.658,-353.872 300.107,-358.665 295.709,-349.026 290.658,-353.872"/>
</g>
<!-- src/SiCard/types/FCard.test.js&#45;&gt;src/SiCard/types/FCard.js -->
<g id="edge14" class="edge"><title>src/SiCard/types/FCard.test.js&#45;&gt;src/SiCard/types/FCard.js</title>
<path fill="none" stroke="#000000" stroke-width="2" stroke-opacity="0.466667" d="M114.516,-530.986C117.588,-532.644 120.479,-534.605 123,-536.923 133.697,-546.759 124.997,-557.431 136,-566.923 141.659,-571.805 148.746,-575.116 155.957,-577.358"/>
<polygon fill="#000000" fill-opacity="0.466667" stroke="#000000" stroke-width="2" stroke-opacity="0.466667" points="155.194,-580.775 165.744,-579.799 156.888,-573.983 155.194,-580.775"/>
</g>
<!-- src/SiCard/types/ModernSiCard.js -->
<g id="node7" class="node"><title>src/SiCard/types/ModernSiCard.js</title>
<g id="a_node7"><a xlink:href="src/SiCard/types/ModernSiCard.js" xlink:title="ModernSiCard.js">
<path fill="#ffffcc" stroke="black" d="M349,-457.923C349,-457.923 269,-457.923 269,-457.923 266,-457.923 263,-454.923 263,-451.923 263,-451.923 263,-445.923 263,-445.923 263,-442.923 266,-439.923 269,-439.923 269,-439.923 349,-439.923 349,-439.923 352,-439.923 355,-442.923 355,-445.923 355,-445.923 355,-451.923 355,-451.923 355,-454.923 352,-457.923 349,-457.923"/>
<text text-anchor="middle" x="309" y="-446.723" font-family="Helvetica,sans-Serif" font-size="9.00">ModernSiCard.js</text>
</a>
</g>
</g>
<!-- src/SiCard/types/ModernSiCard.js&#45;&gt;node_modules/lodash/lodash.js -->
<g id="edge20" class="edge"><title>src/SiCard/types/ModernSiCard.js&#45;&gt;node_modules/lodash/lodash.js</title>
<path fill="none" stroke="#000000" stroke-width="2" stroke-opacity="0.466667" d="M355.137,-446.452C361.222,-444.231 366.803,-440.882 371,-435.923 384.077,-420.472 374.556,-273.671 379,-253.923 386.446,-220.83 403.491,-185.035 414.475,-164.093"/>
<polygon fill="#000000" fill-opacity="0.466667" stroke="#000000" stroke-width="2" stroke-opacity="0.466667" points="417.666,-165.549 419.311,-155.083 411.498,-162.239 417.666,-165.549"/>
</g>
<!-- src/SiCard/types/ModernSiCard.js&#45;&gt;src/SiCard/BaseSiCard.js -->
<g id="edge19" class="edge"><title>src/SiCard/types/ModernSiCard.js&#45;&gt;src/SiCard/BaseSiCard.js</title>
<path fill="none" stroke="#000000" stroke-width="2" stroke-opacity="0.466667" d="M309,-439.665C309,-422.231 309,-404.797 309,-387.364"/>
<polygon fill="#000000" fill-opacity="0.466667" stroke="#000000" stroke-width="2" stroke-opacity="0.466667" points="312.5,-387.099 309,-377.099 305.5,-387.099 312.5,-387.099"/>
</g>
<!-- src/SiCard/types/ModernSiCard.js&#45;&gt;src/constants.js -->
<g id="edge15" class="edge"><title>src/SiCard/types/ModernSiCard.js&#45;&gt;src/constants.js</title>
<path fill="none" stroke="#000000" stroke-width="2" stroke-opacity="0.466667" d="M355.277,-452.039C361.19,-454.201 366.682,-457.362 371,-461.923 373.825,-464.908 410.908,-712.66 421.621,-784.564"/>
<polygon fill="#000000" fill-opacity="0.466667" stroke="#000000" stroke-width="2" stroke-opacity="0.466667" points="418.22,-785.49 423.154,-794.866 425.144,-784.459 418.22,-785.49"/>
</g>
<!-- src/SiCard/types/ModernSiCard.js&#45;&gt;src/siProtocol.js -->
<g id="edge16" class="edge"><title>src/SiCard/types/ModernSiCard.js&#45;&gt;src/siProtocol.js</title>
<path fill="none" stroke="#000000" stroke-width="2" stroke-opacity="0.466667" d="M355.234,-457.522C360.589,-458.846 365.944,-460.315 371,-461.923 379.587,-464.655 388.679,-468.272 396.884,-471.827"/>
<polygon fill="#000000" fill-opacity="0.466667" stroke="#000000" stroke-width="2" stroke-opacity="0.466667" points="395.468,-475.028 406.025,-475.916 398.326,-468.638 395.468,-475.028"/>
</g>
<!-- src/SiCard/types/ModernSiCard.js&#45;&gt;src/storage/index.js -->
<g id="edge17" class="edge"><title>src/SiCard/types/ModernSiCard.js&#45;&gt;src/storage/index.js</title>
<path fill="none" stroke="#000000" stroke-width="2" stroke-opacity="0.466667" d="M355.245,-446.17C361.238,-443.972 366.762,-440.704 371,-435.923 384.172,-421.063 366.344,-362.225 379,-346.923 381.634,-343.738 384.991,-341.303 388.684,-339.446"/>
<polygon fill="#000000" fill-opacity="0.466667" stroke="#000000" stroke-width="2" stroke-opacity="0.466667" points="390.143,-342.639 398.336,-335.922 387.743,-336.063 390.143,-342.639"/>
</g>
<!-- src/SiCard/types/ModernSiCard.js&#45;&gt;src/utils/index.js -->
<g id="edge18" class="edge"><title>src/SiCard/types/ModernSiCard.js&#45;&gt;src/utils/index.js</title>
<path fill="none" stroke="#000000" stroke-width="2" stroke-opacity="0.466667" d="M355.044,-446.372C361.141,-444.161 366.75,-440.837 371,-435.923 388.775,-415.375 366.998,-338.298 379,-313.923 383.879,-304.015 392.41,-295.506 400.776,-288.915"/>
<polygon fill="#000000" fill-opacity="0.466667" stroke="#000000" stroke-width="2" stroke-opacity="0.466667" points="402.911,-291.69 408.947,-282.982 398.798,-286.025 402.911,-291.69"/>
</g>
<!-- src/SiCard/types/ModernSiCard.test.js -->
<g id="node8" class="node"><title>src/SiCard/types/ModernSiCard.test.js</title>
<g id="a_node8"><a xlink:href="src/SiCard/types/ModernSiCard.test.js" xlink:title="ModernSiCard.test.js">
<path fill="#ffffcc" stroke="black" d="M244,-740.923C244,-740.923 142,-740.923 142,-740.923 139,-740.923 136,-737.923 136,-734.923 136,-734.923 136,-728.923 136,-728.923 136,-725.923 139,-722.923 142,-722.923 142,-722.923 244,-722.923 244,-722.923 247,-722.923 250,-725.923 250,-728.923 250,-728.923 250,-734.923 250,-734.923 250,-737.923 247,-740.923 244,-740.923"/>
<text text-anchor="middle" x="193" y="-729.723" font-family="Helvetica,sans-Serif" font-size="9.00">ModernSiCard.test.js</text>
</a>
</g>
</g>
<!-- src/SiCard/types/ModernSiCard.test.js&#45;&gt;node_modules/lodash/lodash.js -->
<g id="edge24" class="edge"><title>src/SiCard/types/ModernSiCard.test.js&#45;&gt;node_modules/lodash/lodash.js</title>
<path fill="none" stroke="#000000" stroke-width="2" stroke-opacity="0.466667" d="M243.981,-722.686C246.22,-721.043 248.254,-719.135 250,-716.923 282.578,-675.657 233.067,-287.146 263,-243.923 292.509,-201.313 327.887,-228.693 371,-199.923 386.37,-189.666 400.931,-174.476 410.97,-162.816"/>
<polygon fill="#000000" fill-opacity="0.466667" stroke="#000000" stroke-width="2" stroke-opacity="0.466667" points="413.712,-164.993 417.428,-155.072 408.336,-160.51 413.712,-164.993"/>
</g>
<!-- src/SiCard/types/ModernSiCard.test.js&#45;&gt;src/SiCard/types/ModernSiCard.js -->
<g id="edge23" class="edge"><title>src/SiCard/types/ModernSiCard.test.js&#45;&gt;src/SiCard/types/ModernSiCard.js</title>
<path fill="none" stroke="#000000" stroke-width="2" stroke-opacity="0.466667" d="M243.92,-722.637C246.174,-721.006 248.228,-719.114 250,-716.923 283.797,-675.13 233.603,-523.6 261.34,-466.721"/>
<polygon fill="#000000" fill-opacity="0.466667" stroke="#000000" stroke-width="2" stroke-opacity="0.466667" points="264.376,-468.469 266.725,-458.137 258.446,-464.749 264.376,-468.469"/>
</g>
<!-- src/SiCard/types/ModernSiCard.test.js&#45;&gt;src/constants.js -->
<g id="edge21" class="edge"><title>src/SiCard/types/ModernSiCard.test.js&#45;&gt;src/constants.js</title>
<path fill="none" stroke="#000000" stroke-width="2" stroke-opacity="0.466667" d="M235.101,-740.977C240.139,-742.23 245.2,-743.558 250,-744.923 299.414,-758.976 355.525,-778.625 390.471,-791.313"/>
<polygon fill="#000000" fill-opacity="0.466667" stroke="#000000" stroke-width="2" stroke-opacity="0.466667" points="389.58,-794.713 400.174,-794.854 391.98,-788.138 389.58,-794.713"/>
</g>
<!-- src/SiCard/types/ModernSiCard.test.js&#45;&gt;src/testUtils.js -->
<g id="edge22" class="edge"><title>src/SiCard/types/ModernSiCard.test.js&#45;&gt;src/testUtils.js</title>
<path fill="none" stroke="#000000" stroke-width="2" stroke-opacity="0.466667" d="M245.374,-741.155C247.015,-742.282 248.567,-743.534 250,-744.923 266.179,-760.604 253.171,-773.649 263,-793.923 270.695,-809.795 282.847,-825.671 292.584,-837.101"/>
<polygon fill="#000000" fill-opacity="0.466667" stroke="#000000" stroke-width="2" stroke-opacity="0.466667" points="290.213,-839.705 299.446,-844.902 295.47,-835.082 290.213,-839.705"/>
</g>
<!-- src/SiCard/types/PCard.js -->
<g id="node9" class="node"><title>src/SiCard/types/PCard.js</title>
<g id="a_node9"><a xlink:href="src/SiCard/types/PCard.js" xlink:title="PCard.js">
<path fill="#ffffcc" stroke="black" d="M214.5,-530.923C214.5,-530.923 171.5,-530.923 171.5,-530.923 168.5,-530.923 165.5,-527.923 165.5,-524.923 165.5,-524.923 165.5,-518.923 165.5,-518.923 165.5,-515.923 168.5,-512.923 171.5,-512.923 171.5,-512.923 214.5,-512.923 214.5,-512.923 217.5,-512.923 220.5,-515.923 220.5,-518.923 220.5,-518.923 220.5,-524.923 220.5,-524.923 220.5,-527.923 217.5,-530.923 214.5,-530.923"/>
<text text-anchor="middle" x="193" y="-519.723" font-family="Helvetica,sans-Serif" font-size="9.00">PCard.js</text>
</a>
</g>
</g>
<!-- src/SiCard/types/PCard.js&#45;&gt;src/SiCard/BaseSiCard.js -->
<g id="edge25" class="edge"><title>src/SiCard/types/PCard.js&#45;&gt;src/SiCard/BaseSiCard.js</title>
<path fill="none" stroke="#000000" stroke-width="2" stroke-opacity="0.466667" d="M220.566,-521.118C231.257,-519.371 242.749,-515.422 250,-506.923 284.2,-466.839 233.941,-429.591 262.679,-384.818"/>
<polygon fill="#000000" fill-opacity="0.466667" stroke="#000000" stroke-width="2" stroke-opacity="0.466667" points="265.581,-386.781 268.745,-376.67 259.966,-382.601 265.581,-386.781"/>
</g>
<!-- src/SiCard/types/PCard.test.js -->
<g id="node10" class="node"><title>src/SiCard/types/PCard.test.js</title>
<g id="a_node10"><a xlink:href="src/SiCard/types/PCard.test.js" xlink:title="PCard.test.js">
<path fill="#ffffcc" stroke="black" d="M110,-500.923C110,-500.923 45,-500.923 45,-500.923 42,-500.923 39,-497.923 39,-494.923 39,-494.923 39,-488.923 39,-488.923 39,-485.923 42,-482.923 45,-482.923 45,-482.923 110,-482.923 110,-482.923 113,-482.923 116,-485.923 116,-488.923 116,-488.923 116,-494.923 116,-494.923 116,-497.923 113,-500.923 110,-500.923"/>
<text text-anchor="middle" x="77.5" y="-489.723" font-family="Helvetica,sans-Serif" font-size="9.00">PCard.test.js</text>
</a>
</g>
</g>
<!-- src/SiCard/types/PCard.test.js&#45;&gt;src/SiCard/BaseSiCard.js -->
<g id="edge26" class="edge"><title>src/SiCard/types/PCard.test.js&#45;&gt;src/SiCard/BaseSiCard.js</title>
<path fill="none" stroke="#000000" stroke-width="2" stroke-opacity="0.466667" d="M116.211,-483.136C118.779,-481.418 121.098,-479.368 123,-476.923 146.13,-447.195 108.363,-333.516 136,-307.923 154.588,-290.71 226.678,-298.031 250,-307.923 270.132,-316.462 286.686,-335.79 296.884,-350.216"/>
<polygon fill="#000000" fill-opacity="0.466667" stroke="#000000" stroke-width="2" stroke-opacity="0.466667" points="294.173,-352.458 302.641,-358.825 299.992,-348.567 294.173,-352.458"/>
</g>
<!-- src/SiCard/types/PCard.test.js&#45;&gt;src/SiCard/types/PCard.js -->
<g id="edge27" class="edge"><title>src/SiCard/types/PCard.test.js&#45;&gt;src/SiCard/types/PCard.js</title>
<path fill="none" stroke="#000000" stroke-width="2" stroke-opacity="0.466667" d="M112.554,-500.924C125.978,-504.473 141.432,-508.557 155.12,-512.175"/>
<polygon fill="#000000" fill-opacity="0.466667" stroke="#000000" stroke-width="2" stroke-opacity="0.466667" points="154.618,-515.663 165.181,-514.834 156.407,-508.895 154.618,-515.663"/>
</g>
<!-- src/SiCard/types/SIAC.js -->
<g id="node11" class="node"><title>src/SiCard/types/SIAC.js</title>
<g id="a_node11"><a xlink:href="src/SiCard/types/SIAC.js" xlink:title="SIAC.js">
<path fill="#ffffcc" stroke="black" d="M214,-620.923C214,-620.923 172,-620.923 172,-620.923 169,-620.923 166,-617.923 166,-614.923 166,-614.923 166,-608.923 166,-608.923 166,-605.923 169,-602.923 172,-602.923 172,-602.923 214,-602.923 214,-602.923 217,-602.923 220,-605.923 220,-608.923 220,-608.923 220,-614.923 220,-614.923 220,-617.923 217,-620.923 214,-620.923"/>
<text text-anchor="middle" x="193" y="-609.723" font-family="Helvetica,sans-Serif" font-size="9.00">SIAC.js</text>
</a>
</g>
</g>
<!-- src/SiCard/types/SIAC.js&#45;&gt;src/SiCard/BaseSiCard.js -->
<g id="edge28" class="edge"><title>src/SiCard/types/SIAC.js&#45;&gt;src/SiCard/BaseSiCard.js</title>
<path fill="none" stroke="#000000" stroke-width="2" stroke-opacity="0.466667" d="M220.166,-611.357C231.053,-609.688 242.807,-605.733 250,-596.923 278.499,-562.02 238.692,-435.677 263.273,-385.11"/>
<polygon fill="#000000" fill-opacity="0.466667" stroke="#000000" stroke-width="2" stroke-opacity="0.466667" points="266.273,-386.915 268.643,-376.589 260.351,-383.183 266.273,-386.915"/>
</g>
<!-- src/SiCard/types/SIAC.js&#45;&gt;src/SiCard/types/ModernSiCard.js -->
<g id="edge29" class="edge"><title>src/SiCard/types/SIAC.js&#45;&gt;src/SiCard/types/ModernSiCard.js</title>
<path fill="none" stroke="#000000" stroke-width="2" stroke-opacity="0.466667" d="M220.02,-611.236C230.879,-609.543 242.651,-605.603 250,-596.923 267.725,-575.988 248.008,-500.54 261.703,-466.861"/>
<polygon fill="#000000" fill-opacity="0.466667" stroke="#000000" stroke-width="2" stroke-opacity="0.466667" points="264.745,-468.594 266.804,-458.201 258.713,-465.041 264.745,-468.594"/>
</g>
<!-- src/SiCard/types/SIAC.test.js -->
<g id="node12" class="node"><title>src/SiCard/types/SIAC.test.js</title>
<g id="a_node12"><a xlink:href="src/SiCard/types/SIAC.test.js" xlink:title="SIAC.test.js">
<path fill="#ffffcc" stroke="black" d="M106,-560.923C106,-560.923 49,-560.923 49,-560.923 46,-560.923 43,-557.923 43,-554.923 43,-554.923 43,-548.923 43,-548.923 43,-545.923 46,-542.923 49,-542.923 49,-542.923 106,-542.923 106,-542.923 109,-542.923 112,-545.923 112,-548.923 112,-548.923 112,-554.923 112,-554.923 112,-557.923 109,-560.923 106,-560.923"/>
<text text-anchor="middle" x="77.5" y="-549.723" font-family="Helvetica,sans-Serif" font-size="9.00">SIAC.test.js</text>
</a>
</g>
</g>
<!-- src/SiCard/types/SIAC.test.js&#45;&gt;node_modules/lodash/lodash.js -->
<g id="edge33" class="edge"><title>src/SiCard/types/SIAC.test.js&#45;&gt;node_modules/lodash/lodash.js</title>
<path fill="none" stroke="#000000" stroke-width="2" stroke-opacity="0.466667" d="M112.141,-545.71C116.37,-543.577 120.191,-540.727 123,-536.923 139.145,-515.063 116.53,-66.8826 136,-47.9232 210.828,24.9423 281.179,5.37597 371,-47.9232 399.782,-65.0022 414.076,-103.621 420.333,-126.956"/>
<polygon fill="#000000" fill-opacity="0.466667" stroke="#000000" stroke-width="2" stroke-opacity="0.466667" points="416.951,-127.864 422.726,-136.746 423.751,-126.201 416.951,-127.864"/>
</g>
<!-- src/SiCard/types/SIAC.test.js&#45;&gt;src/SiCard/BaseSiCard.js -->
<g id="edge31" class="edge"><title>src/SiCard/types/SIAC.test.js&#45;&gt;src/SiCard/BaseSiCard.js</title>
<path fill="none" stroke="#000000" stroke-width="2" stroke-opacity="0.466667" d="M112.012,-545.613C116.259,-543.493 120.119,-540.673 123,-536.923 150.271,-501.43 103.344,-366.535 136,-335.923 154.482,-318.598 225.467,-329.604 250,-335.923 263.265,-339.34 276.742,-346.504 287.362,-353.19"/>
<polygon fill="#000000" fill-opacity="0.466667" stroke="#000000" stroke-width="2" stroke-opacity="0.466667" points="285.613,-356.229 295.883,-358.835 289.48,-350.394 285.613,-356.229"/>
</g>
<!-- src/SiCard/types/SIAC.test.js&#45;&gt;src/SiCard/types/SIAC.js -->
<g id="edge32" class="edge"><title>src/SiCard/types/SIAC.test.js&#45;&gt;src/SiCard/types/SIAC.js</title>
<path fill="none" stroke="#000000" stroke-width="2" stroke-opacity="0.466667" d="M112.293,-559.851C116.19,-561.731 119.879,-564.054 123,-566.923 133.697,-576.759 124.997,-587.431 136,-596.923 141.659,-601.805 148.746,-605.116 155.957,-607.358"/>
<polygon fill="#000000" fill-opacity="0.466667" stroke="#000000" stroke-width="2" stroke-opacity="0.466667" points="155.194,-610.775 165.744,-609.799 156.888,-603.983 155.194,-610.775"/>
</g>
<!-- src/SiCard/types/SIAC.test.js&#45;&gt;src/constants.js -->
<g id="edge30" class="edge"><title>src/SiCard/types/SIAC.test.js&#45;&gt;src/constants.js</title>
<path fill="none" stroke="#000000" stroke-width="2" stroke-opacity="0.466667" d="M112.053,-558.202C116.295,-560.326 120.142,-563.156 123,-566.923 139.678,-588.906 115.984,-795.929 136,-814.923 139.708,-818.442 368.479,-813.155 371,-812.923 373.374,-812.705 375.802,-812.442 378.249,-812.145"/>
<polygon fill="#000000" fill-opacity="0.466667" stroke="#000000" stroke-width="2" stroke-opacity="0.466667" points="378.903,-815.589 388.335,-810.763 377.952,-808.653 378.903,-815.589"/>
</g>
<!-- src/SiCard/types/SiCard10.js -->
<g id="node13" class="node"><title>src/SiCard/types/SiCard10.js</title>
<g id="a_node13"><a xlink:href="src/SiCard/types/SiCard10.js" xlink:title="SiCard10.js">
<path fill="#ffffcc" stroke="black" d="M221.5,-680.923C221.5,-680.923 164.5,-680.923 164.5,-680.923 161.5,-680.923 158.5,-677.923 158.5,-674.923 158.5,-674.923 158.5,-668.923 158.5,-668.923 158.5,-665.923 161.5,-662.923 164.5,-662.923 164.5,-662.923 221.5,-662.923 221.5,-662.923 224.5,-662.923 227.5,-665.923 227.5,-668.923 227.5,-668.923 227.5,-674.923 227.5,-674.923 227.5,-677.923 224.5,-680.923 221.5,-680.923"/>
<text text-anchor="middle" x="193" y="-669.723" font-family="Helvetica,sans-Serif" font-size="9.00">SiCard10.js</text>
</a>
</g>
</g>
<!-- src/SiCard/types/SiCard10.js&#45;&gt;src/SiCard/BaseSiCard.js -->
<g id="edge34" class="edge"><title>src/SiCard/types/SiCard10.js&#45;&gt;src/SiCard/BaseSiCard.js</title>
<path fill="none" stroke="#000000" stroke-width="2" stroke-opacity="0.466667" d="M227.519,-669.933C236.09,-667.748 244.443,-663.82 250,-656.923 286.507,-611.607 231.469,-447.485 263.041,-385.304"/>
<polygon fill="#000000" fill-opacity="0.466667" stroke="#000000" stroke-width="2" stroke-opacity="0.466667" points="266.189,-386.878 268.612,-376.564 260.286,-383.116 266.189,-386.878"/>
</g>
<!-- src/SiCard/types/SiCard10.js&#45;&gt;src/SiCard/types/ModernSiCard.js -->
<g id="edge35" class="edge"><title>src/SiCard/types/SiCard10.js&#45;&gt;src/SiCard/types/ModernSiCard.js</title>
<path fill="none" stroke="#000000" stroke-width="2" stroke-opacity="0.466667" d="M227.725,-669.788C236.193,-667.588 244.441,-663.689 250,-656.923 275.741,-625.597 241.005,-512.281 261.499,-466.784"/>
<polygon fill="#000000" fill-opacity="0.466667" stroke="#000000" stroke-width="2" stroke-opacity="0.466667" points="264.54,-468.521 266.753,-458.159 258.562,-464.879 264.54,-468.521"/>
</g>
<!-- src/SiCard/types/SiCard10.test.js -->
<g id="node14" class="node"><title>src/SiCard/types/SiCard10.test.js</title>
<g id="a_node14"><a xlink:href="src/SiCard/types/SiCard10.test.js" xlink:title="SiCard10.test.js">
<path fill="#ffffcc" stroke="black" d="M117,-650.923C117,-650.923 38,-650.923 38,-650.923 35,-650.923 32,-647.923 32,-644.923 32,-644.923 32,-638.923 32,-638.923 32,-635.923 35,-632.923 38,-632.923 38,-632.923 117,-632.923 117,-632.923 120,-632.923 123,-635.923 123,-638.923 123,-638.923 123,-644.923 123,-644.923 123,-647.923 120,-650.923 117,-650.923"/>
<text text-anchor="middle" x="77.5" y="-639.723" font-family="Helvetica,sans-Serif" font-size="9.00">SiCard10.test.js</text>
</a>
</g>
</g>
<!-- src/SiCard/types/SiCard10.test.js&#45;&gt;node_modules/lodash/lodash.js -->
<g id="edge39" class="edge"><title>src/SiCard/types/SiCard10.test.js&#45;&gt;node_modules/lodash/lodash.js</title>
<path fill="none" stroke="#000000" stroke-width="2" stroke-opacity="0.466667" d="M117.12,-632.663C119.345,-631.044 121.345,-629.147 123,-626.923 148.422,-592.765 119.711,-283.264 136,-243.923 167.638,-167.513 187.146,-140.874 263,-107.923 307.026,-88.7986 325.27,-93.3354 371,-107.923 384.6,-112.261 397.703,-121.456 407.538,-129.714"/>
<polygon fill="#000000" fill-opacity="0.466667" stroke="#000000" stroke-width="2" stroke-opacity="0.466667" points="405.469,-132.558 415.27,-136.584 410.119,-127.325 405.469,-132.558"/>
</g>
<!-- src/SiCard/types/SiCard10.test.js&#45;&gt;src/SiCard/BaseSiCard.js -->
<g id="edge37" class="edge"><title>src/SiCard/types/SiCard10.test.js&#45;&gt;src/SiCard/BaseSiCard.js</title>
<path fill="none" stroke="#000000" stroke-width="2" stroke-opacity="0.466667" d="M116.678,-632.911C119.071,-631.239 121.226,-629.262 123,-626.923 139.742,-604.85 116.468,-397.571 136,-377.923 144.522,-369.351 210.854,-367.617 258.595,-367.504"/>
<polygon fill="#000000" fill-opacity="0.466667" stroke="#000000" stroke-width="2" stroke-opacity="0.466667" points="258.774,-371.004 268.774,-367.503 258.774,-364.004 258.774,-371.004"/>
</g>
<!-- src/SiCard/types/SiCard10.test.js&#45;&gt;src/SiCard/types/SiCard10.js -->
<g id="edge38" class="edge"><title>src/SiCard/types/SiCard10.test.js&#45;&gt;src/SiCard/types/SiCard10.js</title>
<path fill="none" stroke="#000000" stroke-width="2" stroke-opacity="0.466667" d="M112.554,-650.924C123.879,-653.918 136.647,-657.293 148.582,-660.447"/>
<polygon fill="#000000" fill-opacity="0.466667" stroke="#000000" stroke-width="2" stroke-opacity="0.466667" points="147.799,-663.86 158.361,-663.032 149.588,-657.093 147.799,-663.86"/>
</g>
<!-- src/SiCard/types/SiCard10.test.js&#45;&gt;src/constants.js -->
<g id="edge36" class="edge"><title>src/SiCard/types/SiCard10.test.js&#45;&gt;src/constants.js</title>
<path fill="none" stroke="#000000" stroke-width="2" stroke-opacity="0.466667" d="M116.627,-650.974C119.032,-652.637 121.204,-654.602 123,-656.923 147.683,-688.813 109.974,-807.12 136,-837.923 169.996,-878.159 323.367,-891.41 371,-868.923 391.358,-859.312 406.586,-837.735 415.487,-822.071"/>
<polygon fill="#000000" fill-opacity="0.466667" stroke="#000000" stroke-width="2" stroke-opacity="0.466667" points="418.579,-823.712 420.201,-813.242 412.404,-820.415 418.579,-823.712"/>
</g>
<!-- src/SiCard/types/SiCard11.js -->
<g id="node15" class="node"><title>src/SiCard/types/SiCard11.js</title>
<g id="a_node15"><a xlink:href="src/SiCard/types/SiCard11.js" xlink:title="SiCard11.js">
<path fill="#ffffcc" stroke="black" d="M221.5,-650.923C221.5,-650.923 164.5,-650.923 164.5,-650.923 161.5,-650.923 158.5,-647.923 158.5,-644.923 158.5,-644.923 158.5,-638.923 158.5,-638.923 158.5,-635.923 161.5,-632.923 164.5,-632.923 164.5,-632.923 221.5,-632.923 221.5,-632.923 224.5,-632.923 227.5,-635.923 227.5,-638.923 227.5,-638.923 227.5,-644.923 227.5,-644.923 227.5,-647.923 224.5,-650.923 221.5,-650.923"/>
<text text-anchor="middle" x="193" y="-639.723" font-family="Helvetica,sans-Serif" font-size="9.00">SiCard11.js</text>
</a>
</g>
</g>
<!-- src/SiCard/types/SiCard11.js&#45;&gt;src/SiCard/BaseSiCard.js -->
<g id="edge40" class="edge"><title>src/SiCard/types/SiCard11.js&#45;&gt;src/SiCard/BaseSiCard.js</title>
<path fill="none" stroke="#000000" stroke-width="2" stroke-opacity="0.466667" d="M227.785,-639.837C236.253,-637.638 244.487,-633.726 250,-626.923 282.517,-586.799 235.057,-441.465 263.197,-385.124"/>
<polygon fill="#000000" fill-opacity="0.466667" stroke="#000000" stroke-width="2" stroke-opacity="0.466667" points="266.219,-386.893 268.626,-376.575 260.31,-383.14 266.219,-386.893"/>
</g>
<!-- src/SiCard/types/SiCard11.js&#45;&gt;src/SiCard/types/ModernSiCard.js -->
<g id="edge41" class="edge"><title>src/SiCard/types/SiCard11.js&#45;&gt;src/SiCard/types/ModernSiCard.js</title>
<path fill="none" stroke="#000000" stroke-width="2" stroke-opacity="0.466667" d="M227.672,-639.744C236.139,-637.544 244.4,-633.655 250,-626.923 271.684,-600.856 244.682,-506.849 261.498,-467.052"/>
<polygon fill="#000000" fill-opacity="0.466667" stroke="#000000" stroke-width="2" stroke-opacity="0.466667" points="264.673,-468.561 266.774,-458.176 258.656,-464.984 264.673,-468.561"/>
</g>
<!-- src/SiCard/types/SiCard11.test.js -->
<g id="node16" class="node"><title>src/SiCard/types/SiCard11.test.js</title>
<g id="a_node16"><a xlink:href="src/SiCard/types/SiCard11.test.js" xlink:title="SiCard11.test.js">
<path fill="#ffffcc" stroke="black" d="M117,-620.923C117,-620.923 38,-620.923 38,-620.923 35,-620.923 32,-617.923 32,-614.923 32,-614.923 32,-608.923 32,-608.923 32,-605.923 35,-602.923 38,-602.923 38,-602.923 117,-602.923 117,-602.923 120,-602.923 123,-605.923 123,-608.923 123,-608.923 123,-614.923 123,-614.923 123,-617.923 120,-620.923 117,-620.923"/>
<text text-anchor="middle" x="77.5" y="-609.723" font-family="Helvetica,sans-Serif" font-size="9.00">SiCard11.test.js</text>
</a>
</g>
</g>
<!-- src/SiCard/types/SiCard11.test.js&#45;&gt;node_modules/lodash/lodash.js -->
<g id="edge45" class="edge"><title>src/SiCard/types/SiCard11.test.js&#45;&gt;node_modules/lodash/lodash.js</title>
<path fill="none" stroke="#000000" stroke-width="2" stroke-opacity="0.466667" d="M117.143,-602.68C119.362,-601.057 121.355,-599.154 123,-596.923 140.247,-573.529 115.194,-94.2179 136,-73.9232 173.383,-37.4581 324.343,-50.4646 371,-73.9232 393.098,-85.034 408.37,-110.073 416.779,-127.48"/>
<polygon fill="#000000" fill-opacity="0.466667" stroke="#000000" stroke-width="2" stroke-opacity="0.466667" points="413.63,-129.012 420.937,-136.684 420.01,-126.13 413.63,-129.012"/>
</g>
<!-- src/SiCard/types/SiCard11.test.js&#45;&gt;src/SiCard/BaseSiCard.js -->
<g id="edge43" class="edge"><title>src/SiCard/types/SiCard11.test.js&#45;&gt;src/SiCard/BaseSiCard.js</title>
<path fill="none" stroke="#000000" stroke-width="2" stroke-opacity="0.466667" d="M116.668,-602.904C119.064,-601.233 121.222,-599.258 123,-596.923 138.707,-576.292 117.162,-381.74 136,-363.923 153.063,-347.786 214.062,-352.983 258.583,-359.393"/>
<polygon fill="#000000" fill-opacity="0.466667" stroke="#000000" stroke-width="2" stroke-opacity="0.466667" points="258.25,-362.883 268.658,-360.904 259.288,-355.96 258.25,-362.883"/>
</g>
<!-- src/SiCard/types/SiCard11.test.js&#45;&gt;src/SiCard/types/SiCard11.js -->
<g id="edge44" class="edge"><title>src/SiCard/types/SiCard11.test.js&#45;&gt;src/SiCard/types/SiCard11.js</title>
<path fill="none" stroke="#000000" stroke-width="2" stroke-opacity="0.466667" d="M112.554,-620.924C123.879,-623.918 136.647,-627.293 148.582,-630.447"/>
<polygon fill="#000000" fill-opacity="0.466667" stroke="#000000" stroke-width="2" stroke-opacity="0.466667" points="147.799,-633.86 158.361,-633.032 149.588,-627.093 147.799,-633.86"/>
</g>
<!-- src/SiCard/types/SiCard11.test.js&#45;&gt;src/constants.js -->
<g id="edge42" class="edge"><title>src/SiCard/types/SiCard11.test.js&#45;&gt;src/constants.js</title>
<path fill="none" stroke="#000000" stroke-width="2" stroke-opacity="0.466667" d="M116.642,-620.963C119.044,-622.628 121.21,-624.597 123,-626.923 149.753,-661.696 103.972,-793.939 136,-823.923 139.923,-827.596 368.707,-822.318 371,-821.923 378.202,-820.683 385.749,-818.638 392.828,-816.362"/>
<polygon fill="#000000" fill-opacity="0.466667" stroke="#000000" stroke-width="2" stroke-opacity="0.466667" points="394.46,-819.501 402.77,-812.929 392.175,-812.884 394.46,-819.501"/>
</g>
<!-- src/SiCard/types/SiCard5.js -->
<g id="node17" class="node"><title>src/SiCard/types/SiCard5.js</title>
<g id="a_node17"><a xlink:href="src/SiCard/types/SiCard5.js" xlink:title="SiCard5.js">
<path fill="#ffffcc" stroke="black" d="M218.5,-500.923C218.5,-500.923 167.5,-500.923 167.5,-500.923 164.5,-500.923 161.5,-497.923 161.5,-494.923 161.5,-494.923 161.5,-488.923 161.5,-488.923 161.5,-485.923 164.5,-482.923 167.5,-482.923 167.5,-482.923 218.5,-482.923 218.5,-482.923 221.5,-482.923 224.5,-485.923 224.5,-488.923 224.5,-488.923 224.5,-494.923 224.5,-494.923 224.5,-497.923 221.5,-500.923 218.5,-500.923"/>
<text text-anchor="middle" x="193" y="-489.723" font-family="Helvetica,sans-Serif" font-size="9.00">SiCard5.js</text>
</a>
</g>
</g>
<!-- src/SiCard/types/SiCard5.js&#45;&gt;node_modules/lodash/lodash.js -->
<g id="edge51" class="edge"><title>src/SiCard/types/SiCard5.js&#45;&gt;node_modules/lodash/lodash.js</title>
<path fill="none" stroke="#000000" stroke-width="2" stroke-opacity="0.466667" d="M224.609,-490.626C234.173,-488.617 243.826,-484.616 250,-476.923 270.813,-450.988 241.341,-203.156 263,-177.923 270.966,-168.642 340.479,-157.466 385.674,-151.079"/>
<polygon fill="#000000" fill-opacity="0.466667" stroke="#000000" stroke-width="2" stroke-opacity="0.466667" points="386.33,-154.521 395.752,-149.676 385.366,-147.588 386.33,-154.521"/>
</g>
<!-- src/SiCard/types/SiCard5.js&#45;&gt;src/SiCard/BaseSiCard.js -->
<g id="edge50" class="edge"><title>src/SiCard/types/SiCard5.js&#45;&gt;src/SiCard/BaseSiCard.js</title>
<path fill="none" stroke="#000000" stroke-width="2" stroke-opacity="0.466667" d="M224.501,-490.227C233.94,-488.174 243.544,-484.247 250,-476.923 276.09,-447.328 241.413,-418.983 262.589,-385.014"/>
<polygon fill="#000000" fill-opacity="0.466667" stroke="#000000" stroke-width="2" stroke-opacity="0.466667" points="265.605,-386.827 268.82,-376.732 260.011,-382.619 265.605,-386.827"/>
</g>
<!-- src/SiCard/types/SiCard5.js&#45;&gt;src/constants.js -->
<g id="edge46" class="edge"><title>src/SiCard/types/SiCard5.js&#45;&gt;src/constants.js</title>
<path fill="none" stroke="#000000" stroke-width="2" stroke-opacity="0.466667" d="M224.597,-497.874C265.036,-507.451 335.314,-530.362 371,-578.923 418.16,-643.1 424.358,-742.902 424.757,-784.596"/>
<polygon fill="#000000" fill-opacity="0.466667" stroke="#000000" stroke-width="2" stroke-opacity="0.466667" points="421.257,-784.733 424.746,-794.737 428.257,-784.741 421.257,-784.733"/>
</g>
<!-- src/SiCard/types/SiCard5.js&#45;&gt;src/siProtocol.js -->
<g id="edge47" class="edge"><title>src/SiCard/types/SiCard5.js&#45;&gt;src/siProtocol.js</title>
<path fill="none" stroke="#000000" stroke-width="2" stroke-opacity="0.466667" d="M224.714,-491.939C260.028,-491.833 319.729,-491.272 371,-488.923 373.355,-488.815 375.768,-488.69 378.203,-488.551"/>
<polygon fill="#000000" fill-opacity="0.466667" stroke="#000000" stroke-width="2" stroke-opacity="0.466667" points="378.496,-492.039 388.256,-487.917 378.056,-485.053 378.496,-492.039"/>
</g>
<!-- src/SiCard/types/SiCard5.js&#45;&gt;src/storage/index.js -->
<g id="edge48" class="edge"><title>src/SiCard/types/SiCard5.js&#45;&gt;src/storage/index.js</title>
<path fill="none" stroke="#000000" stroke-width="2" stroke-opacity="0.466667" d="M224.711,-490.407C234.165,-488.367 243.725,-484.403 250,-476.923 271.362,-451.461 238.498,-350.381 263,-327.923 280.627,-311.767 346.375,-319.784 388.35,-326.947"/>
<polygon fill="#000000" fill-opacity="0.466667" stroke="#000000" stroke-width="2" stroke-opacity="0.466667" points="387.752,-330.396 398.208,-328.688 388.969,-323.502 387.752,-330.396"/>
</g>
<!-- src/SiCard/types/SiCard5.js&#45;&gt;src/utils/index.js -->
<g id="edge49" class="edge"><title>src/SiCard/types/SiCard5.js&#45;&gt;src/utils/index.js</title>
<path fill="none" stroke="#000000" stroke-width="2" stroke-opacity="0.466667" d="M224.771,-490.457C234.229,-488.421 243.776,-484.445 250,-476.923 275.141,-446.536 236.341,-328.988 263,-299.923 294.321,-265.776 351.32,-264.594 388.543,-268.228"/>
<polygon fill="#000000" fill-opacity="0.466667" stroke="#000000" stroke-width="2" stroke-opacity="0.466667" points="388.148,-271.706 398.479,-269.358 388.938,-264.751 388.148,-271.706"/>
</g>
<!-- src/SiCard/types/SiCard5.test.js -->
<g id="node18" class="node"><title>src/SiCard/types/SiCard5.test.js</title>
<g id="a_node18"><a xlink:href="src/SiCard/types/SiCard5.test.js" xlink:title="SiCard5.test.js">
<path fill="#ffffcc" stroke="black" d="M114,-710.923C114,-710.923 41,-710.923 41,-710.923 38,-710.923 35,-707.923 35,-704.923 35,-704.923 35,-698.923 35,-698.923 35,-695.923 38,-692.923 41,-692.923 41,-692.923 114,-692.923 114,-692.923 117,-692.923 120,-695.923 120,-698.923 120,-698.923 120,-704.923 120,-704.923 120,-707.923 117,-710.923 114,-710.923"/>
<text text-anchor="middle" x="77.5" y="-699.723" font-family="Helvetica,sans-Serif" font-size="9.00">SiCard5.test.js</text>
</a>
</g>
</g>
<!-- src/SiCard/types/SiCard5.test.js&#45;&gt;src/SiCard/BaseSiCard.js -->
<g id="edge54" class="edge"><title>src/SiCard/types/SiCard5.test.js&#45;&gt;src/SiCard/BaseSiCard.js</title>
<path fill="none" stroke="#000000" stroke-width="2" stroke-opacity="0.466667" d="M116.693,-692.922C119.083,-691.248 121.233,-689.267 123,-686.923 141.815,-661.965 115.052,-429.12 136,-405.923 153.167,-386.914 225.695,-397.004 250,-388.923 256.227,-386.853 256.95,-384.465 263,-381.923 264.188,-381.424 265.4,-380.933 266.629,-380.452"/>
<polygon fill="#000000" fill-opacity="0.466667" stroke="#000000" stroke-width="2" stroke-opacity="0.466667" points="268.048,-383.66 276.252,-376.957 265.658,-377.081 268.048,-383.66"/>
</g>
<!-- src/SiCard/types/SiCard5.test.js&#45;&gt;src/SiCard/types/SiCard5.js -->
<g id="edge55" class="edge"><title>src/SiCard/types/SiCard5.test.js&#45;&gt;src/SiCard/types/SiCard5.js</title>
<path fill="none" stroke="#000000" stroke-width="2" stroke-opacity="0.466667" d="M116.626,-692.871C119.032,-691.208 121.203,-689.244 123,-686.923 147.553,-655.214 110.454,-537.838 136,-506.923 140.081,-501.984 145.595,-498.574 151.577,-496.238"/>
<polygon fill="#000000" fill-opacity="0.466667" stroke="#000000" stroke-width="2" stroke-opacity="0.466667" points="152.627,-499.577 161.224,-493.385 150.642,-492.864 152.627,-499.577"/>
</g>
<!-- src/SiCard/types/SiCard5.test.js&#45;&gt;src/constants.js -->
<g id="edge52" class="edge"><title>src/SiCard/types/SiCard5.test.js&#45;&gt;src/constants.js</title>
<path fill="none" stroke="#000000" stroke-width="2" stroke-opacity="0.466667" d="M116.607,-710.99C119.017,-712.65 121.194,-714.609 123,-716.923 145.354,-745.571 109.304,-855.271 136,-879.923 155.183,-897.637 347.824,-891.951 371,-879.923 394.094,-867.938 409.321,-840.898 417.429,-822.524"/>
<polygon fill="#000000" fill-opacity="0.466667" stroke="#000000" stroke-width="2" stroke-opacity="0.466667" points="420.729,-823.702 421.297,-813.122 414.256,-821.039 420.729,-823.702"/>
</g>
<!-- src/SiCard/types/SiCard5.test.js&#45;&gt;src/testUtils.js -->
<g id="edge53" class="edge"><title>src/SiCard/types/SiCard5.test.js&#45;&gt;src/testUtils.js</title>
<path fill="none" stroke="#000000" stroke-width="2" stroke-opacity="0.466667" d="M116.537,-711.045C118.962,-712.692 121.163,-714.634 123,-716.923 139.928,-738.013 116.741,-818.937 136,-837.923 145.053,-846.848 217.569,-850.969 265.508,-852.735"/>
<polygon fill="#000000" fill-opacity="0.466667" stroke="#000000" stroke-width="2" stroke-opacity="0.466667" points="265.514,-856.237 275.629,-853.087 265.757,-849.242 265.514,-856.237"/>
</g>
<!-- src/SiCard/types/SiCard6.js -->
<g id="node19" class="node"><title>src/SiCard/types/SiCard6.js</title>
<g id="a_node19"><a xlink:href="src/SiCard/types/SiCard6.js" xlink:title="SiCard6.js">
<path fill="#ffffcc" stroke="black" d="M218.5,-560.923C218.5,-560.923 167.5,-560.923 167.5,-560.923 164.5,-560.923 161.5,-557.923 161.5,-554.923 161.5,-554.923 161.5,-548.923 161.5,-548.923 161.5,-545.923 164.5,-542.923 167.5,-542.923 167.5,-542.923 218.5,-542.923 218.5,-542.923 221.5,-542.923 224.5,-545.923 224.5,-548.923 224.5,-548.923 224.5,-554.923 224.5,-554.923 224.5,-557.923 221.5,-560.923 218.5,-560.923"/>
<text text-anchor="middle" x="193" y="-549.723" font-family="Helvetica,sans-Serif" font-size="9.00">SiCard6.js</text>
</a>
</g>
</g>
<!-- src/SiCard/types/SiCard6.js&#45;&gt;node_modules/lodash/lodash.js -->
<g id="edge61" class="edge"><title>src/SiCard/types/SiCard6.js&#45;&gt;node_modules/lodash/lodash.js</title>
<path fill="none" stroke="#000000" stroke-width="2" stroke-opacity="0.466667" d="M224.628,-550.641C234.194,-548.634 243.844,-544.63 250,-536.923 273.111,-507.993 239.773,-232.76 263,-203.923 294.105,-165.306 324.994,-194.425 371,-175.923 381.522,-171.692 392.549,-165.789 401.839,-160.338"/>
<polygon fill="#000000" fill-opacity="0.466667" stroke="#000000" stroke-width="2" stroke-opacity="0.466667" points="403.724,-163.288 410.467,-155.116 400.1,-157.299 403.724,-163.288"/>
</g>
<!-- src/SiCard/types/SiCard6.js&#45;&gt;src/SiCard/BaseSiCard.js -->
<g id="edge60" class="edge"><title>src/SiCard/types/SiCard6.js&#45;&gt;src/SiCard/BaseSiCard.js</title>
<path fill="none" stroke="#000000" stroke-width="2" stroke-opacity="0.466667" d="M224.726,-550.42C234.181,-548.381 243.738,-544.413 250,-536.923 270.44,-512.477 245.852,-424.284 263.303,-385.389"/>
<polygon fill="#000000" fill-opacity="0.466667" stroke="#000000" stroke-width="2" stroke-opacity="0.466667" points="266.433,-386.982 268.698,-376.632 260.473,-383.31 266.433,-386.982"/>
</g>
<!-- src/SiCard/types/SiCard6.js&#45;&gt;src/constants.js -->
<g id="edge56" class="edge"><title>src/SiCard/types/SiCard6.js&#45;&gt;src/constants.js</title>
<path fill="none" stroke="#000000" stroke-width="2" stroke-opacity="0.466667" d="M224.665,-556.223C233.376,-558.446 242.518,-561.816 250,-566.923 335.744,-625.448 395.3,-740.357 416.229,-785.289"/>
<polygon fill="#000000" fill-opacity="0.466667" stroke="#000000" stroke-width="2" stroke-opacity="0.466667" points="413.075,-786.81 420.41,-794.455 419.444,-783.905 413.075,-786.81"/>
</g>
<!-- src/SiCard/types/SiCard6.js&#45;&gt;src/siProtocol.js -->
<g id="edge57" class="edge"><title>src/SiCard/types/SiCard6.js&#45;&gt;src/siProtocol.js</title>
<path fill="none" stroke="#000000" stroke-width="2" stroke-opacity="0.466667" d="M224.559,-543.903C232.829,-541.688 241.768,-539.252 250,-536.923 296.511,-523.767 349.715,-507.775 385.023,-497.029"/>
<polygon fill="#000000" fill-opacity="0.466667" stroke="#000000" stroke-width="2" stroke-opacity="0.466667" points="386.388,-500.272 394.933,-494.008 384.346,-493.577 386.388,-500.272"/>
</g>
<!-- src/SiCard/types/SiCard6.js&#45;&gt;src/storage/index.js -->
<g id="edge58" class="edge"><title>src/SiCard/types/SiCard6.js&#45;&gt;src/storage/index.js</title>
<path fill="none" stroke="#000000" stroke-width="2" stroke-opacity="0.466667" d="M224.515,-550.55C234.072,-548.535 243.744,-544.549 250,-536.923 278.247,-502.488 230.786,-367.678 263,-336.923 271.826,-328.497 343.3,-330.142 388.157,-332.058"/>
<polygon fill="#000000" fill-opacity="0.466667" stroke="#000000" stroke-width="2" stroke-opacity="0.466667" points="388.239,-335.565 398.387,-332.519 388.555,-328.572 388.239,-335.565"/>
</g>
<!-- src/SiCard/types/SiCard6.js&#45;&gt;src/utils/index.js -->
<g id="edge59" class="edge"><title>src/SiCard/types/SiCard6.js&#45;&gt;src/utils/index.js</title>
<path fill="none" stroke="#000000" stroke-width="2" stroke-opacity="0.466667" d="M224.527,-550.56C234.085,-548.546 243.755,-544.558 250,-536.923 279.463,-500.904 234.649,-364.824 263,-327.923 270.87,-317.679 343.274,-296.252 388.424,-283.687"/>
<polygon fill="#000000" fill-opacity="0.466667" stroke="#000000" stroke-width="2" stroke-opacity="0.466667" points="389.454,-287.034 398.161,-280.997 387.59,-280.287 389.454,-287.034"/>
</g>
<!-- src/SiCard/types/SiCard6.test.js -->
<g id="node20" class="node"><title>src/SiCard/types/SiCard6.test.js</title>
<g id="a_node20"><a xlink:href="src/SiCard/types/SiCard6.test.js" xlink:title="SiCard6.test.js">
<path fill="#ffffcc" stroke="black" d="M114,-740.923C114,-740.923 41,-740.923 41,-740.923 38,-740.923 35,-737.923 35,-734.923 35,-734.923 35,-728.923 35,-728.923 35,-725.923 38,-722.923 41,-722.923 41,-722.923 114,-722.923 114,-722.923 117,-722.923 120,-725.923 120,-728.923 120,-728.923 120,-734.923 120,-734.923 120,-737.923 117,-740.923 114,-740.923"/>
<text text-anchor="middle" x="77.5" y="-729.723" font-family="Helvetica,sans-Serif" font-size="9.00">SiCard6.test.js</text>
</a>
</g>
</g>
<!-- src/SiCard/types/SiCard6.test.js&#45;&gt;src/SiCard/BaseSiCard.js -->
<g id="edge64" class="edge"><title>src/SiCard/types/SiCard6.test.js&#45;&gt;src/SiCard/BaseSiCard.js</title>
<path fill="none" stroke="#000000" stroke-width="2" stroke-opacity="0.466667" d="M117.097,-722.646C119.327,-721.031 121.335,-719.139 123,-716.923 143.045,-690.251 113.462,-441.525 136,-416.923 170.52,-379.241 206.774,-429.182 250,-401.923 257.146,-397.417 255.791,-391.456 263.308,-383.494"/>
<polygon fill="#000000" fill-opacity="0.466667" stroke="#000000" stroke-width="2" stroke-opacity="0.466667" points="265.643,-386.104 271.073,-377.007 261.155,-380.732 265.643,-386.104"/>
</g>
<!-- src/SiCard/types/SiCard6.test.js&#45;&gt;src/SiCard/types/SiCard6.js -->
<g id="edge65" class="edge"><title>src/SiCard/types/SiCard6.test.js&#45;&gt;src/SiCard/types/SiCard6.js</title>
<path fill="none" stroke="#000000" stroke-width="2" stroke-opacity="0.466667" d="M116.589,-722.842C119.003,-721.186 121.186,-719.231 123,-716.923 143.674,-690.616 114.503,-592.562 136,-566.923 140.117,-562.014 145.648,-558.618 151.637,-556.287"/>
<polygon fill="#000000" fill-opacity="0.466667" stroke="#000000" stroke-width="2" stroke-opacity="0.466667" points="152.688,-559.627 161.286,-553.437 150.704,-552.914 152.688,-559.627"/>
</g>
<!-- src/SiCard/types/SiCard6.test.js&#45;&gt;src/constants.js -->
<g id="edge62" class="edge"><title>src/SiCard/types/SiCard6.test.js&#45;&gt;src/constants.js</title>
<path fill="none" stroke="#000000" stroke-width="2" stroke-opacity="0.466667" d="M119.256,-741.22C120.619,-742.324 121.877,-743.554 123,-744.923 144.074,-770.625 111.498,-871.466 136,-893.923 212.996,-964.494 280.218,-945.569 371,-893.923 397.762,-878.699 412.531,-844.22 419.462,-822.632"/>
<polygon fill="#000000" fill-opacity="0.466667" stroke="#000000" stroke-width="2" stroke-opacity="0.466667" points="422.846,-823.53 422.323,-812.949 416.133,-821.547 422.846,-823.53"/>
</g>
<!-- src/SiCard/types/SiCard6.test.js&#45;&gt;src/testUtils.js -->
<g id="edge63" class="edge"><title>src/SiCard/types/SiCard6.test.js&#45;&gt;src/testUtils.js</title>
<path fill="none" stroke="#000000" stroke-width="2" stroke-opacity="0.466667" d="M118.82,-740.973C120.343,-742.14 121.75,-743.45 123,-744.923 153.998,-781.448 100.327,-819.949 136,-851.923 172.745,-884.857 233.712,-876.11 272.324,-865.767"/>
<polygon fill="#000000" fill-opacity="0.466667" stroke="#000000" stroke-width="2" stroke-opacity="0.466667" points="273.446,-869.087 282.107,-862.985 271.531,-862.354 273.446,-869.087"/>
</g>
<!-- src/SiCard/types/SiCard8.js -->
<g id="node21" class="node"><title>src/SiCard/types/SiCard8.js</title>
<g id="a_node21"><a xlink:href="src/SiCard/types/SiCard8.js" xlink:title="SiCard8.js">
<path fill="#ffffcc" stroke="black" d="M218.5,-440.923C218.5,-440.923 167.5,-440.923 167.5,-440.923 164.5,-440.923 161.5,-437.923 161.5,-434.923 161.5,-434.923 161.5,-428.923 161.5,-428.923 161.5,-425.923 164.5,-422.923 167.5,-422.923 167.5,-422.923 218.5,-422.923 218.5,-422.923 221.5,-422.923 224.5,-425.923 224.5,-428.923 224.5,-428.923 224.5,-434.923 224.5,-434.923 224.5,-437.923 221.5,-440.923 218.5,-440.923"/>
<text text-anchor="middle" x="193" y="-429.723" font-family="Helvetica,sans-Serif" font-size="9.00">SiCard8.js</text>
</a>
</g>
</g>
<!-- src/SiCard/types/SiCard8.js&#45;&gt;node_modules/lodash/lodash.js -->
<g id="edge71" class="edge"><title>src/SiCard/types/SiCard8.js&#45;&gt;node_modules/lodash/lodash.js</title>
<path fill="none" stroke="#000000" stroke-width="2" stroke-opacity="0.466667" d="M194.576,-422.828C197.736,-376.197 214.619,-164.61 263,-125.923 301.927,-94.7967 363.897,-116.067 398.666,-132.301"/>
<polygon fill="#000000" fill-opacity="0.466667" stroke="#000000" stroke-width="2" stroke-opacity="0.466667" points="397.185,-135.473 407.709,-136.699 400.246,-129.178 397.185,-135.473"/>
</g>
<!-- src/SiCard/types/SiCard8.js&#45;&gt;src/SiCard/BaseSiCard.js -->
<g id="edge69" class="edge"><title>src/SiCard/types/SiCard8.js&#45;&gt;src/SiCard/BaseSiCard.js</title>
<path fill="none" stroke="#000000" stroke-width="2" stroke-opacity="0.466667" d="M224.79,-430.356C233.805,-428.526 243.086,-425.117 250,-418.923 260.954,-409.11 253.746,-398.13 262.524,-384.801"/>
<polygon fill="#000000" fill-opacity="0.466667" stroke="#000000" stroke-width="2" stroke-opacity="0.466667" points="265.281,-386.966 269.262,-377.147 260.027,-382.34 265.281,-386.966"/>
</g>
<!-- src/SiCard/types/SiCard8.js&#45;&gt;src/SiCard/types/ModernSiCard.js -->
<g id="edge70" class="edge"><title>src/SiCard/types/SiCard8.js&#45;&gt;src/SiCard/types/ModernSiCard.js</title>
<path fill="none" stroke="#000000" stroke-width="2" stroke-opacity="0.466667" d="M224.55,-436.479C233.263,-437.778 243.036,-439.235 252.741,-440.683"/>
<polygon fill="#000000" fill-opacity="0.466667" stroke="#000000" stroke-width="2" stroke-opacity="0.466667" points="252.376,-444.167 262.783,-442.18 253.409,-437.244 252.376,-444.167"/>
</g>
<!-- src/SiCard/types/SiCard8.js&#45;&gt;src/siProtocol.js -->
<g id="edge66" class="edge"><title>src/SiCard/types/SiCard8.js&#45;&gt;src/siProtocol.js</title>
<path fill="none" stroke="#000000" stroke-width="2" stroke-opacity="0.466667" d="M224.607,-436.309C233.316,-438.535 242.472,-441.885 250,-446.923 257.904,-452.214 254.719,-459.244 263,-463.923 284.024,-475.802 347.084,-472.586 371,-475.923 373.361,-476.253 375.779,-476.605 378.218,-476.972"/>
<polygon fill="#000000" fill-opacity="0.466667" stroke="#000000" stroke-width="2" stroke-opacity="0.466667" points="377.86,-480.459 388.281,-478.548 378.943,-473.543 377.86,-480.459"/>
</g>
<!-- src/SiCard/types/SiCard8.js&#45;&gt;src/storage/index.js -->
<g id="edge67" class="edge"><title>src/SiCard/types/SiCard8.js&#45;&gt;src/storage/index.js</title>
<path fill="none" stroke="#000000" stroke-width="2" stroke-opacity="0.466667" d="M195.014,-422.91C198.557,-396.235 213.028,-317.578 263,-285.923 303.549,-260.237 332.389,-257.406 371,-285.923 380.725,-293.106 371.124,-302.75 379,-311.923 381.974,-315.387 385.619,-318.352 389.538,-320.877"/>
<polygon fill="#000000" fill-opacity="0.466667" stroke="#000000" stroke-width="2" stroke-opacity="0.466667" points="387.953,-323.999 398.406,-325.726 391.312,-317.857 387.953,-323.999"/>
</g>
<!-- src/SiCard/types/SiCard8.js&#45;&gt;src/utils/index.js -->
<g id="edge68" class="edge"><title>src/SiCard/types/SiCard8.js&#45;&gt;src/utils/index.js</title>
<path fill="none" stroke="#000000" stroke-width="2" stroke-opacity="0.466667" d="M194.017,-422.737C194.636,-391.198 201.425,-286.915 263,-243.923 302.356,-216.444 324.559,-231.791 371,-243.923 382.712,-246.983 394.571,-253.24 404.138,-259.252"/>
<polygon fill="#000000" fill-opacity="0.466667" stroke="#000000" stroke-width="2" stroke-opacity="0.466667" points="402.262,-262.208 412.528,-264.829 406.137,-256.378 402.262,-262.208"/>
</g>
<!-- src/SiCard/types/SiCard8.test.js -->
<g id="node22" class="node"><title>src/SiCard/types/SiCard8.test.js</title>
<g id="a_node22"><a xlink:href="src/SiCard/types/SiCard8.test.js" xlink:title="SiCard8.test.js">
<path fill="#ffffcc" stroke="black" d="M114,-440.923C114,-440.923 41,-440.923 41,-440.923 38,-440.923 35,-437.923 35,-434.923 35,-434.923 35,-428.923 35,-428.923 35,-425.923 38,-422.923 41,-422.923 41,-422.923 114,-422.923 114,-422.923 117,-422.923 120,-425.923 120,-428.923 120,-428.923 120,-434.923 120,-434.923 120,-437.923 117,-440.923 114,-440.923"/>
<text text-anchor="middle" x="77.5" y="-429.723" font-family="Helvetica,sans-Serif" font-size="9.00">SiCard8.test.js</text>
</a>
</g>
</g>
<!-- src/SiCard/types/SiCard8.test.js&#45;&gt;src/SiCard/BaseSiCard.js -->
<g id="edge72" class="edge"><title>src/SiCard/types/SiCard8.test.js&#45;&gt;src/SiCard/BaseSiCard.js</title>
<path fill="none" stroke="#000000" stroke-width="2" stroke-opacity="0.466667" d="M116.569,-422.826C118.987,-421.173 121.177,-419.223 123,-416.923 141.994,-392.956 113.377,-300.501 136,-279.923 154.74,-262.877 227.696,-267.911 250,-279.923 277.149,-294.545 293.689,-328.052 301.822,-349.243"/>
<polygon fill="#000000" fill-opacity="0.466667" stroke="#000000" stroke-width="2" stroke-opacity="0.466667" points="298.57,-350.543 305.235,-358.779 305.16,-348.184 298.57,-350.543"/>
</g>
<!-- src/SiCard/types/SiCard8.test.js&#45;&gt;src/SiCard/types/SiCard8.js -->
<g id="edge73" class="edge"><title>src/SiCard/types/SiCard8.test.js&#45;&gt;src/SiCard/types/SiCard8.js</title>
<path fill="none" stroke="#000000" stroke-width="2" stroke-opacity="0.466667" d="M120.119,-431.923C130.261,-431.923 141.099,-431.923 151.203,-431.923"/>
<polygon fill="#000000" fill-opacity="0.466667" stroke="#000000" stroke-width="2" stroke-opacity="0.466667" points="151.407,-435.423 161.407,-431.923 151.407,-428.423 151.407,-435.423"/>
</g>
<!-- src/SiCard/types/SiCard9.js -->
<g id="node23" class="node"><title>src/SiCard/types/SiCard9.js</title>
<g id="a_node23"><a xlink:href="src/SiCard/types/SiCard9.js" xlink:title="SiCard9.js">
<path fill="#ffffcc" stroke="black" d="M218.5,-470.923C218.5,-470.923 167.5,-470.923 167.5,-470.923 164.5,-470.923 161.5,-467.923 161.5,-464.923 161.5,-464.923 161.5,-458.923 161.5,-458.923 161.5,-455.923 164.5,-452.923 167.5,-452.923 167.5,-452.923 218.5,-452.923 218.5,-452.923 221.5,-452.923 224.5,-455.923 224.5,-458.923 224.5,-458.923 224.5,-464.923 224.5,-464.923 224.5,-467.923 221.5,-470.923 218.5,-470.923"/>
<text text-anchor="middle" x="193" y="-459.723" font-family="Helvetica,sans-Serif" font-size="9.00">SiCard9.js</text>
</a>
</g>
</g>
<!-- src/SiCard/types/SiCard9.js&#45;&gt;node_modules/lodash/lodash.js -->
<g id="edge79" class="edge"><title>src/SiCard/types/SiCard9.js&#45;&gt;node_modules/lodash/lodash.js</title>
<path fill="none" stroke="#000000" stroke-width="2" stroke-opacity="0.466667" d="M224.606,-460.624C234.17,-458.615 243.824,-454.614 250,-446.923 270.543,-421.341 239.72,-175.043 263,-151.923 294.754,-120.388 349.634,-125.82 386.495,-134.396"/>
<polygon fill="#000000" fill-opacity="0.466667" stroke="#000000" stroke-width="2" stroke-opacity="0.466667" points="385.829,-137.837 396.38,-136.87 387.529,-131.047 385.829,-137.837"/>
</g>
<!-- src/SiCard/types/SiCard9.js&#45;&gt;src/SiCard/BaseSiCard.js -->
<g id="edge77" class="edge"><title>src/SiCard/types/SiCard9.js&#45;&gt;src/SiCard/BaseSiCard.js</title>
<path fill="none" stroke="#000000" stroke-width="2" stroke-opacity="0.466667" d="M224.536,-459.929C233.864,-457.843 243.391,-453.972 250,-446.923 268.105,-427.615 248.254,-408.202 262.657,-384.908"/>
<polygon fill="#000000" fill-opacity="0.466667" stroke="#000000" stroke-width="2" stroke-opacity="0.466667" points="265.553,-386.886 268.959,-376.854 260.04,-382.573 265.553,-386.886"/>
</g>
<!-- src/SiCard/types/SiCard9.js&#45;&gt;src/SiCard/types/ModernSiCard.js -->
<g id="edge78" class="edge"><title>src/SiCard/types/SiCard9.js&#45;&gt;src/SiCard/types/ModernSiCard.js</title>
<path fill="none" stroke="#000000" stroke-width="2" stroke-opacity="0.466667" d="M224.55,-458.439C233.263,-457.446 243.036,-456.331 252.741,-455.225"/>
<polygon fill="#000000" fill-opacity="0.466667" stroke="#000000" stroke-width="2" stroke-opacity="0.466667" points="253.244,-458.69 262.783,-454.079 252.451,-451.735 253.244,-458.69"/>
</g>
<!-- src/SiCard/types/SiCard9.js&#45;&gt;src/siProtocol.js -->
<g id="edge74" class="edge"><title>src/SiCard/types/SiCard9.js&#45;&gt;src/siProtocol.js</title>
<path fill="none" stroke="#000000" stroke-width="2" stroke-opacity="0.466667" d="M224.784,-468.571C236.673,-470.915 250.42,-473.355 263,-474.923 301.737,-479.753 346.006,-482.285 378.387,-483.592"/>
<polygon fill="#000000" fill-opacity="0.466667" stroke="#000000" stroke-width="2" stroke-opacity="0.466667" points="378.335,-487.093 388.46,-483.975 378.601,-480.098 378.335,-487.093"/>
</g>
<!-- src/SiCard/types/SiCard9.js&#45;&gt;src/storage/index.js -->
<g id="edge75" class="edge"><title>src/SiCard/types/SiCard9.js&#45;&gt;src/storage/index.js</title>
<path fill="none" stroke="#000000" stroke-width="2" stroke-opacity="0.466667" d="M224.666,-460.37C234.117,-458.327 243.686,-454.37 250,-446.923 269.205,-424.273 241.004,-333.874 263,-313.923 298.554,-281.675 323.766,-305.383 371,-313.923 379.233,-315.412 387.851,-318.092 395.705,-321.016"/>
<polygon fill="#000000" fill-opacity="0.466667" stroke="#000000" stroke-width="2" stroke-opacity="0.466667" points="394.574,-324.333 405.16,-324.779 397.163,-317.829 394.574,-324.333"/>
</g>
<!-- src/SiCard/types/SiCard9.js&#45;&gt;src/utils/index.js -->
<g id="edge76" class="edge"><title>src/SiCard/types/SiCard9.js&#45;&gt;src/utils/index.js</title>
<path fill="none" stroke="#000000" stroke-width="2" stroke-opacity="0.466667" d="M224.767,-460.454C234.225,-458.417 243.773,-454.443 250,-446.923 274.871,-416.888 234.423,-298.456 263,-271.923 297.279,-240.096 355.459,-250.597 391.836,-261.776"/>
<polygon fill="#000000" fill-opacity="0.466667" stroke="#000000" stroke-width="2" stroke-opacity="0.466667" points="390.888,-265.148 401.48,-264.913 393.053,-258.491 390.888,-265.148"/>
</g>
<!-- src/SiCard/types/SiCard9.test.js -->
<g id="node24" class="node"><title>src/SiCard/types/SiCard9.test.js</title>
<g id="a_node24"><a xlink:href="src/SiCard/types/SiCard9.test.js" xlink:title="SiCard9.test.js">
<path fill="#ffffcc" stroke="black" d="M114,-470.923C114,-470.923 41,-470.923 41,-470.923 38,-470.923 35,-467.923 35,-464.923 35,-464.923 35,-458.923 35,-458.923 35,-455.923 38,-452.923 41,-452.923 41,-452.923 114,-452.923 114,-452.923 117,-452.923 120,-455.923 120,-458.923 120,-458.923 120,-464.923 120,-464.923 120,-467.923 117,-470.923 114,-470.923"/>
<text text-anchor="middle" x="77.5" y="-459.723" font-family="Helvetica,sans-Serif" font-size="9.00">SiCard9.test.js</text>
</a>
</g>
</g>
<!-- src/SiCard/types/SiCard9.test.js&#45;&gt;src/SiCard/BaseSiCard.js -->
<g id="edge80" class="edge"><title>src/SiCard/types/SiCard9.test.js&#45;&gt;src/SiCard/BaseSiCard.js</title>
<path fill="none" stroke="#000000" stroke-width="2" stroke-opacity="0.466667" d="M116.594,-452.846C119.006,-451.189 121.188,-449.232 123,-446.923 144.062,-420.076 110.871,-317.007 136,-293.923 154.656,-276.785 227.222,-282.835 250,-293.923 273.543,-305.383 290.354,-331.536 299.626,-349.469"/>
<polygon fill="#000000" fill-opacity="0.466667" stroke="#000000" stroke-width="2" stroke-opacity="0.466667" points="296.582,-351.211 304.103,-358.673 302.876,-348.149 296.582,-351.211"/>
</g>
<!-- src/SiCard/types/SiCard9.test.js&#45;&gt;src/SiCard/types/SiCard9.js -->
<g id="edge81" class="edge"><title>src/SiCard/types/SiCard9.test.js&#45;&gt;src/SiCard/types/SiCard9.js</title>
<path fill="none" stroke="#000000" stroke-width="2" stroke-opacity="0.466667" d="M120.119,-461.923C130.261,-461.923 141.099,-461.923 151.203,-461.923"/>
<polygon fill="#000000" fill-opacity="0.466667" stroke="#000000" stroke-width="2" stroke-opacity="0.466667" points="151.407,-465.423 161.407,-461.923 151.407,-458.423 151.407,-465.423"/>
</g>
<!-- src/SiCard/types/TCard.js -->
<g id="node25" class="node"><title>src/SiCard/types/TCard.js</title>
<g id="a_node25"><a xlink:href="src/SiCard/types/TCard.js" xlink:title="TCard.js">
<path fill="#ffffcc" stroke="black" d="M98.5,-410.923C98.5,-410.923 56.5,-410.923 56.5,-410.923 53.5,-410.923 50.5,-407.923 50.5,-404.923 50.5,-404.923 50.5,-398.923 50.5,-398.923 50.5,-395.923 53.5,-392.923 56.5,-392.923 56.5,-392.923 98.5,-392.923 98.5,-392.923 101.5,-392.923 104.5,-395.923 104.5,-398.923 104.5,-398.923 104.5,-404.923 104.5,-404.923 104.5,-407.923 101.5,-410.923 98.5,-410.923"/>
<text text-anchor="middle" x="77.5" y="-399.723" font-family="Helvetica,sans-Serif" font-size="9.00">TCard.js</text>
</a>
</g>
</g>
<!-- src/SiCard/types/TCard.js&#45;&gt;src/SiCard/BaseSiCard.js -->
<g id="edge82" class="edge"><title>src/SiCard/types/TCard.js&#45;&gt;src/SiCard/BaseSiCard.js</title>
<path fill="none" stroke="#000000" stroke-width="2" stroke-opacity="0.466667" d="M79.0872,-392.847C81.2782,-367.439 91.3444,-295.526 136,-265.923 178.23,-237.928 206.205,-240.446 250,-265.923 280.692,-283.778 296.478,-324.605 303.427,-348.845"/>
<polygon fill="#000000" fill-opacity="0.466667" stroke="#000000" stroke-width="2" stroke-opacity="0.466667" points="300.084,-349.897 306.02,-358.673 306.853,-348.111 300.084,-349.897"/>
</g>
<!-- src/SiCard/types/TCard.test.js -->
<g id="node26" class="node"><title>src/SiCard/types/TCard.test.js</title>
<g id="a_node26"><a xlink:href="src/SiCard/types/TCard.test.js" xlink:title="TCard.test.js">
<path fill="#ffffcc" stroke="black" d="M109,-590.923C109,-590.923 46,-590.923 46,-590.923 43,-590.923 40,-587.923 40,-584.923 40,-584.923 40,-578.923 40,-578.923 40,-575.923 43,-572.923 46,-572.923 46,-572.923 109,-572.923 109,-572.923 112,-572.923 115,-575.923 115,-578.923 115,-578.923 115,-584.923 115,-584.923 115,-587.923 112,-590.923 109,-590.923"/>
<text text-anchor="middle" x="77.5" y="-579.723" font-family="Helvetica,sans-Serif" font-size="9.00">TCard.test.js</text>
</a>
</g>
</g>
<!-- src/SiCard/types/TCard.test.js&#45;&gt;src/SiCard/BaseSiCard.js -->
<g id="edge83" class="edge"><title>src/SiCard/types/TCard.test.js&#45;&gt;src/SiCard/BaseSiCard.js</title>
<path fill="none" stroke="#000000" stroke-width="2" stroke-opacity="0.466667" d="M115.026,-573.963C118.077,-572.086 120.821,-569.773 123,-566.923 152.342,-528.546 100.834,-383.045 136,-349.923 154.441,-332.554 224.953,-346.126 250,-349.923 258.136,-351.157 266.702,-353.311 274.679,-355.71"/>
<polygon fill="#000000" fill-opacity="0.466667" stroke="#000000" stroke-width="2" stroke-opacity="0.466667" points="273.802,-359.104 284.393,-358.829 275.942,-352.439 273.802,-359.104"/>
</g>
<!-- src/SiCard/types/TCard.test.js&#45;&gt;src/SiCard/types/SIAC.js -->
<g id="edge84" class="edge"><title>src/SiCard/types/TCard.test.js&#45;&gt;src/SiCard/types/SIAC.js</title>
<path fill="none" stroke="#000000" stroke-width="2" stroke-opacity="0.466667" d="M112.554,-590.924C126.32,-594.563 142.22,-598.765 156.162,-602.451"/>
<polygon fill="#000000" fill-opacity="0.466667" stroke="#000000" stroke-width="2" stroke-opacity="0.466667" points="155.347,-605.855 165.91,-605.027 157.136,-599.088 155.347,-605.855"/>
</g>
<!-- src/SiCard/types/index.test.js -->
<g id="node28" class="node"><title>src/SiCard/types/index.test.js</title>
<g id="a_node28"><a xlink:href="src/SiCard/types/index.test.js" xlink:title="index.test.js">
<path fill="#ffffcc" stroke="black" d="M108.5,-680.923C108.5,-680.923 46.5,-680.923 46.5,-680.923 43.5,-680.923 40.5,-677.923 40.5,-674.923 40.5,-674.923 40.5,-668.923 40.5,-668.923 40.5,-665.923 43.5,-662.923 46.5,-662.923 46.5,-662.923 108.5,-662.923 108.5,-662.923 111.5,-662.923 114.5,-665.923 114.5,-668.923 114.5,-668.923 114.5,-674.923 114.5,-674.923 114.5,-677.923 111.5,-680.923 108.5,-680.923"/>
<text text-anchor="middle" x="77.5" y="-669.723" font-family="Helvetica,sans-Serif" font-size="9.00">index.test.js</text>
</a>
</g>
</g>
<!-- src/SiCard/types/index.test.js&#45;&gt;src/SiCard/BaseSiCard.js -->
<g id="edge85" class="edge"><title>src/SiCard/types/index.test.js&#45;&gt;src/SiCard/BaseSiCard.js</title>
<path fill="none" stroke="#000000" stroke-width="2" stroke-opacity="0.466667" d="M114.64,-664.241C117.853,-662.315 120.738,-659.915 123,-656.923 140.779,-633.407 116.024,-413.604 136,-391.923 153.314,-373.132 224.707,-380.549 250,-376.923 252.837,-376.516 255.751,-376.091 258.69,-375.654"/>
<polygon fill="#000000" fill-opacity="0.466667" stroke="#000000" stroke-width="2" stroke-opacity="0.466667" points="259.34,-379.096 268.708,-374.146 258.298,-372.174 259.34,-379.096"/>
</g>
<!-- src/SiCard/types/index.test.js&#45;&gt;src/SiCard/types/index.js -->
<g id="edge86" class="edge"><title>src/SiCard/types/index.test.js&#45;&gt;src/SiCard/types/index.js</title>
<path fill="none" stroke="#000000" stroke-width="2" stroke-opacity="0.466667" d="M112.554,-680.924C126.32,-684.563 142.22,-688.765 156.162,-692.451"/>
<polygon fill="#000000" fill-opacity="0.466667" stroke="#000000" stroke-width="2" stroke-opacity="0.466667" points="155.347,-695.855 165.91,-695.027 157.136,-689.088 155.347,-695.855"/>
</g>
</g>
</svg>
