<?xml version="1.0" encoding="UTF-8" standalone="no"?>
<!DOCTYPE svg PUBLIC "-//W3C//DTD SVG 1.1//EN"
 "http://www.w3.org/Graphics/SVG/1.1/DTD/svg11.dtd">
<!-- Generated by graphviz version 2.43.0 (0)
 -->
<!-- Title: dependency&#45;cruiser output Pages: 1 -->
<svg width="544pt" height="468pt"
 viewBox="0.00 0.00 544.00 468.00" xmlns="http://www.w3.org/2000/svg" xmlns:xlink="http://www.w3.org/1999/xlink">
<g id="graph0" class="graph" transform="scale(1 1) rotate(0) translate(4 464)">
<title>dependency&#45;cruiser output</title>
<polygon fill="white" stroke="transparent" points="-4,4 -4,-464 540,-464 540,4 -4,4"/>
<g id="clust1" class="cluster">
<title>cluster_packages</title>
<path fill="#ffffff" stroke="black" stroke-width="2" d="M20,-8C20,-8 516,-8 516,-8 522,-8 528,-14 528,-20 528,-20 528,-440 528,-440 528,-446 522,-452 516,-452 516,-452 20,-452 20,-452 14,-452 8,-446 8,-440 8,-440 8,-20 8,-20 8,-14 14,-8 20,-8"/>
<text text-anchor="middle" x="268" y="-440.8" font-family="Helvetica,sans-Serif" font-weight="bold" font-size="9.00">packages</text>
</g>
<g id="clust2" class="cluster">
<title>cluster_packages/sportident</title>
<path fill="#ffffff" stroke="black" stroke-width="2" d="M28,-16C28,-16 508,-16 508,-16 514,-16 520,-22 520,-28 520,-28 520,-414 520,-414 520,-420 514,-426 508,-426 508,-426 28,-426 28,-426 22,-426 16,-420 16,-414 16,-414 16,-28 16,-28 16,-22 22,-16 28,-16"/>
<text text-anchor="middle" x="268" y="-414.8" font-family="Helvetica,sans-Serif" font-weight="bold" font-size="9.00">sportident</text>
</g>
<g id="clust3" class="cluster">
<title>cluster_packages/sportident/src</title>
<path fill="#ffffff" stroke="black" stroke-width="2" d="M36,-24C36,-24 500,-24 500,-24 506,-24 512,-30 512,-36 512,-36 512,-388 512,-388 512,-394 506,-400 500,-400 500,-400 36,-400 36,-400 30,-400 24,-394 24,-388 24,-388 24,-36 24,-36 24,-30 30,-24 36,-24"/>
<text text-anchor="middle" x="268" y="-388.8" font-family="Helvetica,sans-Serif" font-weight="bold" font-size="9.00">src</text>
</g>
<g id="clust4" class="cluster">
<title>cluster_packages/sportident/src/SiCard</title>
<path fill="#ffffff" stroke="black" stroke-width="2" d="M287.5,-296C287.5,-296 333.5,-296 333.5,-296 339.5,-296 345.5,-302 345.5,-308 345.5,-308 345.5,-336 345.5,-336 345.5,-342 339.5,-348 333.5,-348 333.5,-348 287.5,-348 287.5,-348 281.5,-348 275.5,-342 275.5,-336 275.5,-336 275.5,-308 275.5,-308 275.5,-302 281.5,-296 287.5,-296"/>
<text text-anchor="middle" x="310.5" y="-336.8" font-family="Helvetica,sans-Serif" font-weight="bold" font-size="9.00">SiCard</text>
</g>
<g id="clust5" class="cluster">
<title>cluster_packages/sportident/src/SiStation</title>
<path fill="#ffffff" stroke="black" stroke-width="2" d="M44,-118C44,-118 492,-118 492,-118 498,-118 504,-124 504,-130 504,-130 504,-276 504,-276 504,-282 498,-288 492,-288 492,-288 44,-288 44,-288 38,-288 32,-282 32,-276 32,-276 32,-130 32,-130 32,-124 38,-118 44,-118"/>
<text text-anchor="middle" x="268" y="-276.8" font-family="Helvetica,sans-Serif" font-weight="bold" font-size="9.00">SiStation</text>
</g>
<g id="clust6" class="cluster">
<title>cluster_packages/sportident/src/storage</title>
<path fill="#ffffff" stroke="black" stroke-width="2" d="M415,-296C415,-296 461,-296 461,-296 467,-296 473,-302 473,-308 473,-308 473,-336 473,-336 473,-342 467,-348 461,-348 461,-348 415,-348 415,-348 409,-348 403,-342 403,-336 403,-336 403,-308 403,-308 403,-302 409,-296 415,-296"/>
<text text-anchor="middle" x="438" y="-336.8" font-family="Helvetica,sans-Serif" font-weight="bold" font-size="9.00">storage</text>
</g>
<g id="clust7" class="cluster">
<title>cluster_packages/sportident/src/utils</title>
<path fill="#ffffff" stroke="black" stroke-width="2" d="M415,-58C415,-58 461,-58 461,-58 467,-58 473,-64 473,-70 473,-70 473,-98 473,-98 473,-104 467,-110 461,-110 461,-110 415,-110 415,-110 409,-110 403,-104 403,-98 403,-98 403,-70 403,-70 403,-64 409,-58 415,-58"/>
<text text-anchor="middle" x="438" y="-98.8" font-family="Helvetica,sans-Serif" font-weight="bold" font-size="9.00">utils</text>
</g>
<!-- packages/sportident/src/SiCard/index.ts -->
<g id="node1" class="node">
<title>packages/sportident/src/SiCard/index.ts</title>
<g id="a_node1"><a xlink:href="packages/sportident/src/SiCard/index.ts" xlink:title="index.ts">
<path fill="#ddfeff" stroke="black" d="M331.5,-322C331.5,-322 289.5,-322 289.5,-322 286.5,-322 283.5,-319 283.5,-316 283.5,-316 283.5,-310 283.5,-310 283.5,-307 286.5,-304 289.5,-304 289.5,-304 331.5,-304 331.5,-304 334.5,-304 337.5,-307 337.5,-310 337.5,-310 337.5,-316 337.5,-316 337.5,-319 334.5,-322 331.5,-322"/>
<text text-anchor="start" x="292" y="-310.8" font-family="Helvetica,sans-Serif" font-size="9.00">index.ts</text>
</a>
</g>
</g>
<!-- packages/sportident/src/SiStation/BaseSiStation.ts -->
<g id="node2" class="node">
<title>packages/sportident/src/SiStation/BaseSiStation.ts</title>
<g id="a_node2"><a xlink:href="packages/sportident/src/SiStation/BaseSiStation.ts" xlink:title="BaseSiStation.ts">
<path fill="#ddfeff" stroke="black" d="M349,-240C349,-240 272,-240 272,-240 269,-240 266,-237 266,-234 266,-234 266,-228 266,-228 266,-225 269,-222 272,-222 272,-222 349,-222 349,-222 352,-222 355,-225 355,-228 355,-228 355,-234 355,-234 355,-237 352,-240 349,-240"/>
<text text-anchor="start" x="274" y="-228.8" font-family="Helvetica,sans-Serif" font-size="9.00">BaseSiStation.ts</text>
</a>
</g>
</g>
<!-- packages/sportident/src/constants.ts -->
<g id="node3" class="node">
<title>packages/sportident/src/constants.ts</title>
<g id="a_node3"><a xlink:href="packages/sportident/src/constants.ts" xlink:title="constants.ts">
<path fill="#ddfeff" stroke="black" d="M468,-50C468,-50 408,-50 408,-50 405,-50 402,-47 402,-44 402,-44 402,-38 402,-38 402,-35 405,-32 408,-32 408,-32 468,-32 468,-32 471,-32 474,-35 474,-38 474,-38 474,-44 474,-44 474,-47 471,-50 468,-50"/>
<text text-anchor="start" x="410" y="-38.8" font-family="Helvetica,sans-Serif" font-size="9.00">constants.ts</text>
</a>
</g>
</g>
<!-- packages/sportident/src/SiStation/BaseSiStation.ts&#45;&gt;packages/sportident/src/constants.ts -->
<g id="edge1" class="edge">
<title>packages/sportident/src/SiStation/BaseSiStation.ts&#45;&gt;packages/sportident/src/constants.ts</title>
<path fill="none" stroke="#000000" stroke-width="2" stroke-opacity="0.200000" d="M341.48,-221.89C351.17,-217.44 360.96,-211.04 367,-202 385.21,-174.73 358.65,-79.89 380,-55 384.27,-50.03 389.99,-46.67 396.16,-44.43"/>
<polygon fill="#000000" fill-opacity="0.200000" stroke="#000000" stroke-width="2" stroke-opacity="0.200000" points="396.8,-46.43 401.93,-42.67 395.58,-42.41 396.8,-46.43"/>
</g>
<!-- packages/sportident/src/siProtocol.ts -->
<g id="node4" class="node">
<title>packages/sportident/src/siProtocol.ts</title>
<g id="a_node4"><a xlink:href="packages/sportident/src/siProtocol.ts" xlink:title="siProtocol.ts">
<path fill="#ddfeff" stroke="black" d="M467.5,-374C467.5,-374 408.5,-374 408.5,-374 405.5,-374 402.5,-371 402.5,-368 402.5,-368 402.5,-362 402.5,-362 402.5,-359 405.5,-356 408.5,-356 408.5,-356 467.5,-356 467.5,-356 470.5,-356 473.5,-359 473.5,-362 473.5,-362 473.5,-368 473.5,-368 473.5,-371 470.5,-374 467.5,-374"/>
<text text-anchor="start" x="410.5" y="-362.8" font-family="Helvetica,sans-Serif" font-size="9.00">siProtocol.ts</text>
</a>
</g>
</g>
<!-- packages/sportident/src/SiStation/BaseSiStation.ts&#45;&gt;packages/sportident/src/siProtocol.ts -->
<g id="edge2" class="edge">
<title>packages/sportident/src/SiStation/BaseSiStation.ts&#45;&gt;packages/sportident/src/siProtocol.ts</title>
<path fill="none" stroke="#000000" stroke-width="2" stroke-opacity="0.200000" d="M355.06,-235.55C359.57,-237.57 363.7,-240.32 367,-244 398.98,-279.67 348.22,-315.16 380,-351 384.4,-355.96 390.25,-359.31 396.52,-361.53"/>
<polygon fill="#000000" fill-opacity="0.200000" stroke="#000000" stroke-width="2" stroke-opacity="0.200000" points="396.02,-363.58 402.37,-363.28 397.22,-359.55 396.02,-363.58"/>
</g>
<!-- packages/sportident/src/storage/index.ts -->
<g id="node5" class="node">
<title>packages/sportident/src/storage/index.ts</title>
<g id="a_node5"><a xlink:href="packages/sportident/src/storage/index.ts" xlink:title="index.ts">
<path fill="#ddfeff" stroke="black" d="M459,-322C459,-322 417,-322 417,-322 414,-322 411,-319 411,-316 411,-316 411,-310 411,-310 411,-307 414,-304 417,-304 417,-304 459,-304 459,-304 462,-304 465,-307 465,-310 465,-310 465,-316 465,-316 465,-319 462,-322 459,-322"/>
<text text-anchor="start" x="419.5" y="-310.8" font-family="Helvetica,sans-Serif" font-size="9.00">index.ts</text>
</a>
</g>
</g>
<!-- packages/sportident/src/SiStation/BaseSiStation.ts&#45;&gt;packages/sportident/src/storage/index.ts -->
<g id="edge3" class="edge">
<title>packages/sportident/src/SiStation/BaseSiStation.ts&#45;&gt;packages/sportident/src/storage/index.ts</title>
<path fill="none" stroke="#000000" stroke-width="2" stroke-opacity="0.200000" d="M355.1,-236.28C359.48,-238.19 363.58,-240.71 367,-244 382.63,-259.02 365.45,-274.94 380,-291 386.54,-298.22 395.73,-303.09 404.82,-306.37"/>
<polygon fill="#000000" fill-opacity="0.200000" stroke="#000000" stroke-width="2" stroke-opacity="0.200000" points="404.4,-308.44 410.76,-308.31 405.7,-304.45 404.4,-308.44"/>
</g>
<!-- packages/sportident/src/SiStation/ISiStation.ts -->
<g id="node6" class="node">
<title>packages/sportident/src/SiStation/ISiStation.ts</title>
<g id="a_node6"><a xlink:href="packages/sportident/src/SiStation/ISiStation.ts" xlink:title="ISiStation.ts">
<path fill="#ddfeff" stroke="black" d="M467.5,-244C467.5,-244 408.5,-244 408.5,-244 405.5,-244 402.5,-241 402.5,-238 402.5,-238 402.5,-232 402.5,-232 402.5,-229 405.5,-226 408.5,-226 408.5,-226 467.5,-226 467.5,-226 470.5,-226 473.5,-229 473.5,-232 473.5,-232 473.5,-238 473.5,-238 473.5,-241 470.5,-244 467.5,-244"/>
<text text-anchor="start" x="410.5" y="-232.8" font-family="Helvetica,sans-Serif" font-size="9.00">ISiStation.ts</text>
</a>
</g>
</g>
<!-- packages/sportident/src/SiStation/BaseSiStation.ts&#45;&gt;packages/sportident/src/SiStation/ISiStation.ts -->
<g id="edge4" class="edge">
<title>packages/sportident/src/SiStation/BaseSiStation.ts&#45;&gt;packages/sportident/src/SiStation/ISiStation.ts</title>
<path fill="none" stroke="#000000" stroke-width="2" stroke-opacity="0.200000" d="M355.04,-232.39C368.3,-232.81 382.83,-233.27 395.93,-233.69"/>
<polygon fill="#000000" fill-opacity="0.200000" stroke="#000000" stroke-width="2" stroke-opacity="0.200000" points="396.17,-235.8 402.23,-233.89 396.3,-231.6 396.17,-235.8"/>
</g>
<!-- packages/sportident/src/SiStation/ISiTargetMultiplexer.ts -->
<g id="node7" class="node">
<title>packages/sportident/src/SiStation/ISiTargetMultiplexer.ts</title>
<g id="a_node7"><a xlink:href="packages/sportident/src/SiStation/ISiTargetMultiplexer.ts" xlink:title="ISiTargetMultiplexer.ts">
<path fill="#ddfeff" stroke="black" d="M490,-214C490,-214 386,-214 386,-214 383,-214 380,-211 380,-208 380,-208 380,-202 380,-202 380,-199 383,-196 386,-196 386,-196 490,-196 490,-196 493,-196 496,-199 496,-202 496,-202 496,-208 496,-208 496,-211 493,-214 490,-214"/>
<text text-anchor="start" x="388" y="-202.8" font-family="Helvetica,sans-Serif" font-size="9.00">ISiTargetMultiplexer.ts</text>
</a>
</g>
</g>
<!-- packages/sportident/src/SiStation/BaseSiStation.ts&#45;&gt;packages/sportident/src/SiStation/ISiTargetMultiplexer.ts -->
<g id="edge5" class="edge">
<title>packages/sportident/src/SiStation/BaseSiStation.ts&#45;&gt;packages/sportident/src/SiStation/ISiTargetMultiplexer.ts</title>
<path fill="none" stroke="#000000" stroke-width="2" stroke-opacity="0.200000" d="M355.04,-221.98C365.55,-219.8 376.86,-217.46 387.62,-215.23"/>
<polygon fill="#000000" fill-opacity="0.200000" stroke="#000000" stroke-width="2" stroke-opacity="0.200000" points="388.09,-217.28 393.54,-214 387.23,-213.17 388.09,-217.28"/>
</g>
<!-- packages/sportident/src/SiStation/CoupledSiStation.ts -->
<g id="node8" class="node">
<title>packages/sportident/src/SiStation/CoupledSiStation.ts</title>
<g id="a_node8"><a xlink:href="packages/sportident/src/SiStation/CoupledSiStation.ts" xlink:title="CoupledSiStation.ts">
<path fill="#ddfeff" stroke="black" d="M232.5,-218C232.5,-218 139.5,-218 139.5,-218 136.5,-218 133.5,-215 133.5,-212 133.5,-212 133.5,-206 133.5,-206 133.5,-203 136.5,-200 139.5,-200 139.5,-200 232.5,-200 232.5,-200 235.5,-200 238.5,-203 238.5,-206 238.5,-206 238.5,-212 238.5,-212 238.5,-215 235.5,-218 232.5,-218"/>
<text text-anchor="start" x="141.5" y="-206.8" font-family="Helvetica,sans-Serif" font-size="9.00">CoupledSiStation.ts</text>
</a>
</g>
</g>
<!-- packages/sportident/src/SiStation/CoupledSiStation.ts&#45;&gt;packages/sportident/src/SiStation/BaseSiStation.ts -->
<g id="edge6" class="edge">
<title>packages/sportident/src/SiStation/CoupledSiStation.ts&#45;&gt;packages/sportident/src/SiStation/BaseSiStation.ts</title>
<path fill="none" stroke="#000000" stroke-width="2" stroke-opacity="0.200000" d="M237.18,-218.01C244.61,-219.35 252.27,-220.72 259.7,-222.06"/>
<polygon fill="#000000" fill-opacity="0.200000" stroke="#000000" stroke-width="2" stroke-opacity="0.200000" points="259.59,-224.17 265.87,-223.16 260.33,-220.04 259.59,-224.17"/>
</g>
<!-- packages/sportident/src/SiStation/CoupledSiStation.ts&#45;&gt;packages/sportident/src/SiStation/ISiTargetMultiplexer.ts -->
<g id="edge7" class="edge">
<title>packages/sportident/src/SiStation/CoupledSiStation.ts&#45;&gt;packages/sportident/src/SiStation/ISiTargetMultiplexer.ts</title>
<path fill="none" stroke="#000000" stroke-width="2" stroke-opacity="0.200000" d="M238.8,-208.17C277.92,-207.55 331.82,-206.68 373.53,-206.02"/>
<polygon fill="#000000" fill-opacity="0.200000" stroke="#000000" stroke-width="2" stroke-opacity="0.200000" points="373.63,-208.11 379.59,-205.92 373.56,-203.91 373.63,-208.11"/>
</g>
<!-- packages/sportident/src/SiStation/SiTargetMultiplexer.ts -->
<g id="node9" class="node">
<title>packages/sportident/src/SiStation/SiTargetMultiplexer.ts</title>
<g id="a_node9"><a xlink:href="packages/sportident/src/SiStation/SiTargetMultiplexer.ts" xlink:title="SiTargetMultiplexer.ts">
<path fill="#ddfeff" stroke="black" d="M361,-196C361,-196 260,-196 260,-196 257,-196 254,-193 254,-190 254,-190 254,-184 254,-184 254,-181 257,-178 260,-178 260,-178 361,-178 361,-178 364,-178 367,-181 367,-184 367,-184 367,-190 367,-190 367,-193 364,-196 361,-196"/>
<text text-anchor="start" x="262" y="-184.8" font-family="Helvetica,sans-Serif" font-size="9.00">SiTargetMultiplexer.ts</text>
</a>
</g>
</g>
<!-- packages/sportident/src/SiStation/CoupledSiStation.ts&#45;&gt;packages/sportident/src/SiStation/SiTargetMultiplexer.ts -->
<g id="edge8" class="edge">
<title>packages/sportident/src/SiStation/CoupledSiStation.ts&#45;&gt;packages/sportident/src/SiStation/SiTargetMultiplexer.ts</title>
<path fill="none" stroke="#000000" stroke-width="2" stroke-opacity="0.200000" d="M237.18,-199.99C242.4,-199.05 247.74,-198.09 253.03,-197.14"/>
<polygon fill="#000000" fill-opacity="0.200000" stroke="#000000" stroke-width="2" stroke-opacity="0.200000" points="253.67,-199.16 259.2,-196.03 252.92,-195.03 253.67,-199.16"/>
</g>
<!-- packages/sportident/src/SiStation/ISiMainStation.ts -->
<g id="node10" class="node">
<title>packages/sportident/src/SiStation/ISiMainStation.ts</title>
<g id="a_node10"><a xlink:href="packages/sportident/src/SiStation/ISiMainStation.ts" xlink:title="ISiMainStation.ts">
<path fill="#ddfeff" stroke="black" d="M350.5,-148C350.5,-148 270.5,-148 270.5,-148 267.5,-148 264.5,-145 264.5,-142 264.5,-142 264.5,-136 264.5,-136 264.5,-133 267.5,-130 270.5,-130 270.5,-130 350.5,-130 350.5,-130 353.5,-130 356.5,-133 356.5,-136 356.5,-136 356.5,-142 356.5,-142 356.5,-145 353.5,-148 350.5,-148"/>
<text text-anchor="start" x="272.5" y="-136.8" font-family="Helvetica,sans-Serif" font-size="9.00">ISiMainStation.ts</text>
</a>
</g>
</g>
<!-- packages/sportident/src/utils/index.ts -->
<g id="node11" class="node">
<title>packages/sportident/src/utils/index.ts</title>
<g id="a_node11"><a xlink:href="packages/sportident/src/utils/index.ts" xlink:title="index.ts">
<path fill="#ddfeff" stroke="black" d="M459,-84C459,-84 417,-84 417,-84 414,-84 411,-81 411,-78 411,-78 411,-72 411,-72 411,-69 414,-66 417,-66 417,-66 459,-66 459,-66 462,-66 465,-69 465,-72 465,-72 465,-78 465,-78 465,-81 462,-84 459,-84"/>
<text text-anchor="start" x="419.5" y="-72.8" font-family="Helvetica,sans-Serif" font-size="9.00">index.ts</text>
</a>
</g>
</g>
<!-- packages/sportident/src/SiStation/ISiMainStation.ts&#45;&gt;packages/sportident/src/utils/index.ts -->
<g id="edge9" class="edge">
<title>packages/sportident/src/SiStation/ISiMainStation.ts&#45;&gt;packages/sportident/src/utils/index.ts</title>
<path fill="none" stroke="#000000" stroke-width="2" stroke-opacity="0.200000" d="M329.21,-129.97C351.23,-118.74 388.89,-99.54 413.35,-87.06"/>
<polygon fill="#000000" fill-opacity="0.200000" stroke="#000000" stroke-width="2" stroke-opacity="0.200000" points="414.58,-88.79 418.97,-84.2 412.67,-85.05 414.58,-88.79"/>
</g>
<!-- packages/sportident/src/SiStation/ISiSendTask.ts -->
<g id="node12" class="node">
<title>packages/sportident/src/SiStation/ISiSendTask.ts</title>
<g id="a_node12"><a xlink:href="packages/sportident/src/SiStation/ISiSendTask.ts" xlink:title="ISiSendTask.ts">
<path fill="#ddfeff" stroke="black" d="M220.5,-262C220.5,-262 151.5,-262 151.5,-262 148.5,-262 145.5,-259 145.5,-256 145.5,-256 145.5,-250 145.5,-250 145.5,-247 148.5,-244 151.5,-244 151.5,-244 220.5,-244 220.5,-244 223.5,-244 226.5,-247 226.5,-250 226.5,-250 226.5,-256 226.5,-256 226.5,-259 223.5,-262 220.5,-262"/>
<text text-anchor="start" x="153.5" y="-250.8" font-family="Helvetica,sans-Serif" font-size="9.00">ISiSendTask.ts</text>
</a>
</g>
</g>
<!-- packages/sportident/src/SiStation/SiMainStation.ts -->
<g id="node13" class="node">
<title>packages/sportident/src/SiStation/SiMainStation.ts</title>
<g id="a_node13"><a xlink:href="packages/sportident/src/SiStation/SiMainStation.ts" xlink:title="SiMainStation.ts">
<path fill="#ddfeff" stroke="black" d="M224.5,-174C224.5,-174 147.5,-174 147.5,-174 144.5,-174 141.5,-171 141.5,-168 141.5,-168 141.5,-162 141.5,-162 141.5,-159 144.5,-156 147.5,-156 147.5,-156 224.5,-156 224.5,-156 227.5,-156 230.5,-159 230.5,-162 230.5,-162 230.5,-168 230.5,-168 230.5,-171 227.5,-174 224.5,-174"/>
<text text-anchor="start" x="149.5" y="-162.8" font-family="Helvetica,sans-Serif" font-size="9.00">SiMainStation.ts</text>
</a>
</g>
</g>
<!-- packages/sportident/src/SiStation/SiMainStation.ts&#45;&gt;packages/sportident/src/SiCard/index.ts -->
<g id="edge11" class="edge">
<title>packages/sportident/src/SiStation/SiMainStation.ts&#45;&gt;packages/sportident/src/SiCard/index.ts</title>
<path fill="none" stroke="#000000" stroke-width="2" stroke-opacity="0.200000" d="M215.12,-174.04C224.8,-178.53 234.76,-184.99 241,-194 265.76,-229.76 227.22,-256.73 254,-291 259.86,-298.5 268.67,-303.45 277.54,-306.72"/>
<polygon fill="#000000" fill-opacity="0.200000" stroke="#000000" stroke-width="2" stroke-opacity="0.200000" points="277,-308.75 283.36,-308.63 278.31,-304.76 277,-308.75"/>
</g>
<!-- packages/sportident/src/SiStation/SiMainStation.ts&#45;&gt;packages/sportident/src/SiStation/BaseSiStation.ts -->
<g id="edge14" class="edge">
<title>packages/sportident/src/SiStation/SiMainStation.ts&#45;&gt;packages/sportident/src/SiStation/BaseSiStation.ts</title>
<path fill="none" stroke="#000000" stroke-width="2" stroke-opacity="0.200000" d="M204.65,-174.15C215.27,-179.73 229.01,-187.1 241,-194 246.88,-197.38 248.1,-198.65 254,-202 264.27,-207.84 275.82,-213.94 285.72,-219.04"/>
<polygon fill="#000000" fill-opacity="0.200000" stroke="#000000" stroke-width="2" stroke-opacity="0.200000" points="285.03,-221.05 291.33,-221.91 286.95,-217.31 285.03,-221.05"/>
</g>
<!-- packages/sportident/src/SiStation/SiMainStation.ts&#45;&gt;packages/sportident/src/constants.ts -->
<g id="edge10" class="edge">
<title>packages/sportident/src/SiStation/SiMainStation.ts&#45;&gt;packages/sportident/src/constants.ts</title>
<path fill="none" stroke="#000000" stroke-width="2" stroke-opacity="0.200000" d="M230.72,-157.58C234.54,-155.6 238.06,-153.11 241,-150 259.73,-130.16 235.27,-109.84 254,-90 290.51,-51.33 353.91,-41.96 395.66,-40.31"/>
<polygon fill="#000000" fill-opacity="0.200000" stroke="#000000" stroke-width="2" stroke-opacity="0.200000" points="395.98,-42.4 401.91,-40.11 395.85,-38.2 395.98,-42.4"/>
</g>
<!-- packages/sportident/src/SiStation/SiMainStation.ts&#45;&gt;packages/sportident/src/siProtocol.ts -->
<g id="edge12" class="edge">
<title>packages/sportident/src/SiStation/SiMainStation.ts&#45;&gt;packages/sportident/src/siProtocol.ts</title>
<path fill="none" stroke="#000000" stroke-width="2" stroke-opacity="0.200000" d="M213.76,-174.03C223.62,-178.6 234.07,-185.1 241,-194 255.63,-212.8 238.46,-227.95 254,-246 289.49,-287.22 332.02,-251.35 367,-293 383.99,-313.23 361.51,-332.13 380,-351 384.59,-355.68 390.47,-358.89 396.7,-361.08"/>
<polygon fill="#000000" fill-opacity="0.200000" stroke="#000000" stroke-width="2" stroke-opacity="0.200000" points="396.15,-363.11 402.5,-362.81 397.35,-359.08 396.15,-363.11"/>
</g>
<!-- packages/sportident/src/SiStation/SiMainStation.ts&#45;&gt;packages/sportident/src/SiStation/ISiTargetMultiplexer.ts -->
<g id="edge16" class="edge">
<title>packages/sportident/src/SiStation/SiMainStation.ts&#45;&gt;packages/sportident/src/SiStation/ISiTargetMultiplexer.ts</title>
<path fill="none" stroke="#000000" stroke-width="2" stroke-opacity="0.200000" d="M230.59,-161.88C267.46,-160.37 321.43,-160.86 367,-172 384.7,-176.33 403.29,-185.33 416.86,-192.84"/>
<polygon fill="#000000" fill-opacity="0.200000" stroke="#000000" stroke-width="2" stroke-opacity="0.200000" points="416.1,-194.82 422.36,-195.95 418.17,-191.17 416.1,-194.82"/>
</g>
<!-- packages/sportident/src/SiStation/SiMainStation.ts&#45;&gt;packages/sportident/src/SiStation/SiTargetMultiplexer.ts -->
<g id="edge17" class="edge">
<title>packages/sportident/src/SiStation/SiMainStation.ts&#45;&gt;packages/sportident/src/SiStation/SiTargetMultiplexer.ts</title>
<path fill="none" stroke="#000000" stroke-width="2" stroke-opacity="0.200000" d="M230.53,-172.82C237.73,-174.11 245.29,-175.47 252.76,-176.81"/>
<polygon fill="#000000" fill-opacity="0.200000" stroke="#000000" stroke-width="2" stroke-opacity="0.200000" points="252.72,-178.94 259,-177.93 253.46,-174.8 252.72,-178.94"/>
</g>
<!-- packages/sportident/src/SiStation/SiMainStation.ts&#45;&gt;packages/sportident/src/SiStation/ISiMainStation.ts -->
<g id="edge15" class="edge">
<title>packages/sportident/src/SiStation/SiMainStation.ts&#45;&gt;packages/sportident/src/SiStation/ISiMainStation.ts</title>
<path fill="none" stroke="#000000" stroke-width="2" stroke-opacity="0.200000" d="M229.5,-155.98C239.67,-153.82 250.6,-151.5 261.01,-149.29"/>
<polygon fill="#000000" fill-opacity="0.200000" stroke="#000000" stroke-width="2" stroke-opacity="0.200000" points="261.64,-151.3 267.07,-148 260.77,-147.2 261.64,-151.3"/>
</g>
<!-- packages/sportident/src/SiStation/SiMainStation.ts&#45;&gt;packages/sportident/src/utils/index.ts -->
<g id="edge13" class="edge">
<title>packages/sportident/src/SiStation/SiMainStation.ts&#45;&gt;packages/sportident/src/utils/index.ts</title>
<path fill="none" stroke="#000000" stroke-width="2" stroke-opacity="0.200000" d="M230.5,-156.53C234.27,-154.75 237.85,-152.6 241,-150 250.97,-141.79 243.99,-132.17 254,-124 259.92,-119.17 353.79,-95.5 404.72,-82.91"/>
<polygon fill="#000000" fill-opacity="0.200000" stroke="#000000" stroke-width="2" stroke-opacity="0.200000" points="405.38,-84.91 410.71,-81.44 404.38,-80.84 405.38,-84.91"/>
</g>
<!-- packages/sportident/src/SiStation/SiSendTask.ts -->
<g id="node14" class="node">
<title>packages/sportident/src/SiStation/SiSendTask.ts</title>
<g id="a_node14"><a xlink:href="packages/sportident/src/SiStation/SiSendTask.ts" xlink:title="SiSendTask.ts">
<path fill="#ddfeff" stroke="black" d="M112,-262C112,-262 46,-262 46,-262 43,-262 40,-259 40,-256 40,-256 40,-250 40,-250 40,-247 43,-244 46,-244 46,-244 112,-244 112,-244 115,-244 118,-247 118,-250 118,-250 118,-256 118,-256 118,-259 115,-262 112,-262"/>
<text text-anchor="start" x="48" y="-250.8" font-family="Helvetica,sans-Serif" font-size="9.00">SiSendTask.ts</text>
</a>
</g>
</g>
<!-- packages/sportident/src/SiStation/SiSendTask.ts&#45;&gt;packages/sportident/src/siProtocol.ts -->
<g id="edge18" class="edge">
<title>packages/sportident/src/SiStation/SiSendTask.ts&#45;&gt;packages/sportident/src/siProtocol.ts</title>
<path fill="none" stroke="#000000" stroke-width="2" stroke-opacity="0.200000" d="M91.81,-262.13C118.77,-282.38 187.65,-330.86 254,-351 301.27,-365.35 358.4,-367.45 396.11,-366.88"/>
<polygon fill="#000000" fill-opacity="0.200000" stroke="#000000" stroke-width="2" stroke-opacity="0.200000" points="396.5,-368.97 402.46,-366.75 396.42,-364.77 396.5,-368.97"/>
</g>
<!-- packages/sportident/src/SiStation/SiSendTask.ts&#45;&gt;packages/sportident/src/SiStation/ISiSendTask.ts -->
<g id="edge19" class="edge">
<title>packages/sportident/src/SiStation/SiSendTask.ts&#45;&gt;packages/sportident/src/SiStation/ISiSendTask.ts</title>
<path fill="none" stroke="#000000" stroke-width="2" stroke-opacity="0.200000" d="M118.2,-253C124.94,-253 132.01,-253 138.93,-253"/>
<polygon fill="#000000" fill-opacity="0.200000" stroke="#000000" stroke-width="2" stroke-opacity="0.200000" points="139.24,-255.1 145.24,-253 139.23,-250.9 139.24,-255.1"/>
</g>
<!-- packages/sportident/src/SiStation/index.ts -->
<g id="node15" class="node">
<title>packages/sportident/src/SiStation/index.ts</title>
<g id="a_node15"><a xlink:href="packages/sportident/src/SiStation/index.ts" xlink:title="index.ts">
<path fill="#ddfeff" stroke="black" d="M100,-196C100,-196 58,-196 58,-196 55,-196 52,-193 52,-190 52,-190 52,-184 52,-184 52,-181 55,-178 58,-178 58,-178 100,-178 100,-178 103,-178 106,-181 106,-184 106,-184 106,-190 106,-190 106,-193 103,-196 100,-196"/>
<text text-anchor="start" x="60.5" y="-184.8" font-family="Helvetica,sans-Serif" font-size="9.00">index.ts</text>
</a>
</g>
</g>
<!-- packages/sportident/src/SiStation/index.ts&#45;&gt;packages/sportident/src/SiStation/BaseSiStation.ts -->
<g id="edge20" class="edge">
<title>packages/sportident/src/SiStation/index.ts&#45;&gt;packages/sportident/src/SiStation/BaseSiStation.ts</title>
<path fill="none" stroke="#000000" stroke-width="2" stroke-opacity="0.200000" d="M89.16,-196.29C98.67,-205.25 114.46,-218.27 131,-224 172.55,-238.39 222.84,-238.99 259.43,-236.66"/>
<polygon fill="#000000" fill-opacity="0.200000" stroke="#000000" stroke-width="2" stroke-opacity="0.200000" points="265.79,-238.32 259.66,-236.64 265.5,-234.13 265.79,-238.32"/>
</g>
<!-- packages/sportident/src/SiStation/index.ts&#45;&gt;packages/sportident/src/SiStation/CoupledSiStation.ts -->
<g id="edge21" class="edge">
<title>packages/sportident/src/SiStation/index.ts&#45;&gt;packages/sportident/src/SiStation/CoupledSiStation.ts</title>
<path fill="none" stroke="#000000" stroke-width="2" stroke-opacity="0.200000" d="M106.23,-192.49C115.26,-194.39 125.7,-196.58 135.96,-198.73"/>
<polygon fill="#000000" fill-opacity="0.200000" stroke="#000000" stroke-width="2" stroke-opacity="0.200000" points="141.54,-202.04 136.1,-198.75 142.4,-197.93 141.54,-202.04"/>
</g>
<!-- packages/sportident/src/SiStation/index.ts&#45;&gt;packages/sportident/src/SiStation/SiTargetMultiplexer.ts -->
<g id="edge24" class="edge">
<title>packages/sportident/src/SiStation/index.ts&#45;&gt;packages/sportident/src/SiStation/SiTargetMultiplexer.ts</title>
<path fill="none" stroke="#000000" stroke-width="2" stroke-opacity="0.200000" d="M106.33,-187C140.58,-187 201.51,-187 247.74,-187"/>
<polygon fill="#000000" fill-opacity="0.200000" stroke="#000000" stroke-width="2" stroke-opacity="0.200000" points="253.87,-189.1 247.87,-187 253.87,-184.9 253.87,-189.1"/>
</g>
<!-- packages/sportident/src/SiStation/index.ts&#45;&gt;packages/sportident/src/SiStation/SiMainStation.ts -->
<g id="edge22" class="edge">
<title>packages/sportident/src/SiStation/index.ts&#45;&gt;packages/sportident/src/SiStation/SiMainStation.ts</title>
<path fill="none" stroke="#000000" stroke-width="2" stroke-opacity="0.200000" d="M106.23,-181.51C115.26,-179.61 125.7,-177.42 135.96,-175.27"/>
<polygon fill="#000000" fill-opacity="0.200000" stroke="#000000" stroke-width="2" stroke-opacity="0.200000" points="142.4,-176.07 136.1,-175.25 141.54,-171.96 142.4,-176.07"/>
</g>
<!-- packages/sportident/src/SiStation/siStationExamples.ts -->
<g id="node16" class="node">
<title>packages/sportident/src/SiStation/siStationExamples.ts</title>
<g id="a_node16"><a xlink:href="packages/sportident/src/SiStation/siStationExamples.ts" xlink:title="siStationExamples.ts">
<path fill="#ddfeff" stroke="black" d="M235,-144C235,-144 137,-144 137,-144 134,-144 131,-141 131,-138 131,-138 131,-132 131,-132 131,-129 134,-126 137,-126 137,-126 235,-126 235,-126 238,-126 241,-129 241,-132 241,-132 241,-138 241,-138 241,-141 238,-144 235,-144"/>
<text text-anchor="start" x="139" y="-132.8" font-family="Helvetica,sans-Serif" font-size="9.00">siStationExamples.ts</text>
</a>
</g>
</g>
<!-- packages/sportident/src/SiStation/index.ts&#45;&gt;packages/sportident/src/SiStation/siStationExamples.ts -->
<g id="edge23" class="edge">
<title>packages/sportident/src/SiStation/index.ts&#45;&gt;packages/sportident/src/SiStation/siStationExamples.ts</title>
<path fill="none" stroke="#000000" stroke-width="2" stroke-opacity="0.200000" d="M90.23,-177.87C100.05,-169.53 115.63,-157.41 131,-150 133.96,-148.57 137.07,-147.26 140.26,-146.06"/>
<polygon fill="#000000" fill-opacity="0.200000" stroke="#000000" stroke-width="2" stroke-opacity="0.200000" points="146.74,-146 140.38,-146.02 145.33,-142.04 146.74,-146"/>
</g>
</g>
</svg>
