<?xml version="1.0" encoding="UTF-8" standalone="no"?>
<!DOCTYPE svg PUBLIC "-//W3C//DTD SVG 1.1//EN"
 "http://www.w3.org/Graphics/SVG/1.1/DTD/svg11.dtd">
<!-- Generated by graphviz version 2.38.0 (20140413.2041)
 -->
<!-- Title: dependency&#45;cruiser output Pages: 1 -->
<svg width="457pt" height="692pt"
 viewBox="0.00 0.00 457.00 692.00" xmlns="http://www.w3.org/2000/svg" xmlns:xlink="http://www.w3.org/1999/xlink">
<g id="graph0" class="graph" transform="scale(1 1) rotate(0) translate(4 688)">
<title>dependency&#45;cruiser output</title>
<polygon fill="white" stroke="none" points="-4,4 -4,-688 453,-688 453,4 -4,4"/>
<g id="clust1" class="cluster"><title>cluster_node_modules</title>
<path fill="#ffffff" stroke="black" stroke-width="2" d="M333.5,-8C333.5,-8 402.5,-8 402.5,-8 408.5,-8 414.5,-14 414.5,-20 414.5,-20 414.5,-82 414.5,-82 414.5,-88 408.5,-94 402.5,-94 402.5,-94 333.5,-94 333.5,-94 327.5,-94 321.5,-88 321.5,-82 321.5,-82 321.5,-20 321.5,-20 321.5,-14 327.5,-8 333.5,-8"/>
<text text-anchor="middle" x="368" y="-82.8" font-family="Helvetica,sans-Serif" font-weight="bold" font-size="9.00">node_modules</text>
</g>
<g id="clust2" class="cluster"><title>cluster_node_modules/lodash</title>
<path fill="#ffffff" stroke="black" stroke-width="2" d="M342.5,-16C342.5,-16 393.5,-16 393.5,-16 399.5,-16 405.5,-22 405.5,-28 405.5,-28 405.5,-56 405.5,-56 405.5,-62 399.5,-68 393.5,-68 393.5,-68 342.5,-68 342.5,-68 336.5,-68 330.5,-62 330.5,-56 330.5,-56 330.5,-28 330.5,-28 330.5,-22 336.5,-16 342.5,-16"/>
<text text-anchor="middle" x="368" y="-56.8" font-family="Helvetica,sans-Serif" font-weight="bold" font-size="9.00">lodash</text>
</g>
<g id="clust3" class="cluster"><title>cluster_src</title>
<path fill="#ffffff" stroke="black" stroke-width="2" d="M20,-102C20,-102 429,-102 429,-102 435,-102 441,-108 441,-114 441,-114 441,-664 441,-664 441,-670 435,-676 429,-676 429,-676 20,-676 20,-676 14,-676 8,-670 8,-664 8,-664 8,-114 8,-114 8,-108 14,-102 20,-102"/>
<text text-anchor="middle" x="224.5" y="-664.8" font-family="Helvetica,sans-Serif" font-weight="bold" font-size="9.00">src</text>
</g>
<g id="clust4" class="cluster"><title>cluster_src/SiCard</title>
<path fill="#ffffff" stroke="black" stroke-width="2" d="M332.5,-414C332.5,-414 403.5,-414 403.5,-414 409.5,-414 415.5,-420 415.5,-426 415.5,-426 415.5,-544 415.5,-544 415.5,-550 409.5,-556 403.5,-556 403.5,-556 332.5,-556 332.5,-556 326.5,-556 320.5,-550 320.5,-544 320.5,-544 320.5,-426 320.5,-426 320.5,-420 326.5,-414 332.5,-414"/>
<text text-anchor="middle" x="368" y="-544.8" font-family="Helvetica,sans-Serif" font-weight="bold" font-size="9.00">SiCard</text>
</g>
<g id="clust5" class="cluster"><title>cluster_src/SiCard/types</title>
<path fill="#ffffff" stroke="black" stroke-width="2" d="M340.5,-448C340.5,-448 395.5,-448 395.5,-448 401.5,-448 407.5,-454 407.5,-460 407.5,-460 407.5,-518 407.5,-518 407.5,-524 401.5,-530 395.5,-530 395.5,-530 340.5,-530 340.5,-530 334.5,-530 328.5,-524 328.5,-518 328.5,-518 328.5,-460 328.5,-460 328.5,-454 334.5,-448 340.5,-448"/>
<text text-anchor="middle" x="368" y="-518.8" font-family="Helvetica,sans-Serif" font-weight="bold" font-size="9.00">types</text>
</g>
<g id="clust6" class="cluster"><title>cluster_src/SiDevice</title>
<path fill="#ffffff" stroke="black" stroke-width="2" d="M320,-564C320,-564 416,-564 416,-564 422,-564 428,-570 428,-576 428,-576 428,-638 428,-638 428,-644 422,-650 416,-650 416,-650 320,-650 320,-650 314,-650 308,-644 308,-638 308,-638 308,-576 308,-576 308,-570 314,-564 320,-564"/>
<text text-anchor="middle" x="368" y="-638.8" font-family="Helvetica,sans-Serif" font-weight="bold" font-size="9.00">SiDevice</text>
</g>
<g id="clust7" class="cluster"><title>cluster_src/SiDevice/testUtils</title>
<path fill="#ffffff" stroke="black" stroke-width="2" d="M328,-572C328,-572 408,-572 408,-572 414,-572 420,-578 420,-584 420,-584 420,-612 420,-612 420,-618 414,-624 408,-624 408,-624 328,-624 328,-624 322,-624 316,-618 316,-612 316,-612 316,-584 316,-584 316,-578 322,-572 328,-572"/>
<text text-anchor="middle" x="368" y="-612.8" font-family="Helvetica,sans-Serif" font-weight="bold" font-size="9.00">testUtils</text>
</g>
<g id="clust8" class="cluster"><title>cluster_src/SiStation</title>
<path fill="#ffffff" stroke="black" stroke-width="2" d="M28,-196C28,-196 421,-196 421,-196 427,-196 433,-202 433,-208 433,-208 433,-338 433,-338 433,-344 427,-350 421,-350 421,-350 28,-350 28,-350 22,-350 16,-344 16,-338 16,-338 16,-208 16,-208 16,-202 22,-196 28,-196"/>
<text text-anchor="middle" x="224.5" y="-338.8" font-family="Helvetica,sans-Serif" font-weight="bold" font-size="9.00">SiStation</text>
</g>
<g id="clust9" class="cluster"><title>cluster_src/simulation</title>
<path fill="#ffffff" stroke="black" stroke-width="2" d="M157,-388C157,-388 288,-388 288,-388 294,-388 300,-394 300,-400 300,-400 300,-526 300,-526 300,-532 294,-538 288,-538 288,-538 157,-538 157,-538 151,-538 145,-532 145,-526 145,-526 145,-400 145,-400 145,-394 151,-388 157,-388"/>
<text text-anchor="middle" x="222.5" y="-526.8" font-family="Helvetica,sans-Serif" font-weight="bold" font-size="9.00">simulation</text>
</g>
<g id="clust10" class="cluster"><title>cluster_src/simulation/SiCardSimulator</title>
<path fill="#ffffff" stroke="black" stroke-width="2" d="M165,-396C165,-396 280,-396 280,-396 286,-396 292,-402 292,-408 292,-408 292,-500 292,-500 292,-506 286,-512 280,-512 280,-512 165,-512 165,-512 159,-512 153,-506 153,-500 153,-500 153,-408 153,-408 153,-402 159,-396 165,-396"/>
<text text-anchor="middle" x="222.5" y="-500.8" font-family="Helvetica,sans-Serif" font-weight="bold" font-size="9.00">SiCardSimulator</text>
</g>
<g id="clust11" class="cluster"><title>cluster_src/simulation/SiCardSimulator/types</title>
<path fill="#ffffff" stroke="black" stroke-width="2" d="M173,-404C173,-404 272,-404 272,-404 278,-404 284,-410 284,-416 284,-416 284,-474 284,-474 284,-480 278,-486 272,-486 272,-486 173,-486 173,-486 167,-486 161,-480 161,-474 161,-474 161,-416 161,-416 161,-410 167,-404 173,-404"/>
<text text-anchor="middle" x="222.5" y="-474.8" font-family="Helvetica,sans-Serif" font-weight="bold" font-size="9.00">types</text>
</g>
<g id="clust12" class="cluster"><title>cluster_src/utils</title>
<path fill="#ffffff" stroke="black" stroke-width="2" d="M345,-136C345,-136 391,-136 391,-136 397,-136 403,-142 403,-148 403,-148 403,-176 403,-176 403,-182 397,-188 391,-188 391,-188 345,-188 345,-188 339,-188 333,-182 333,-176 333,-176 333,-148 333,-148 333,-142 339,-136 345,-136"/>
<text text-anchor="middle" x="368" y="-176.8" font-family="Helvetica,sans-Serif" font-weight="bold" font-size="9.00">utils</text>
</g>
<!-- node_modules/lodash/lodash.js -->
<g id="node1" class="node"><title>node_modules/lodash/lodash.js</title>
<g id="a_node1"><a xlink:href="node_modules/lodash/lodash.js" xlink:title="lodash.js">
<polygon fill="#c40b0a" fill-opacity="0.101961" stroke="black" points="397.5,-42 396,-44 385.5,-44 384,-42 338.5,-42 338.5,-24 397.5,-24 397.5,-42"/>
<text text-anchor="middle" x="368" y="-30.8" font-family="Helvetica,sans-Serif" font-size="9.00" fill="#c40b0a">lodash.js</text>
</a>
</g>
</g>
<!-- src/SiCard/index.js -->
<g id="node2" class="node"><title>src/SiCard/index.js</title>
<g id="a_node2"><a xlink:href="src/SiCard/index.js" xlink:title="index.js">
<path fill="#ffffcc" stroke="black" d="M389,-440C389,-440 347,-440 347,-440 344,-440 341,-437 341,-434 341,-434 341,-428 341,-428 341,-425 344,-422 347,-422 347,-422 389,-422 389,-422 392,-422 395,-425 395,-428 395,-428 395,-434 395,-434 395,-437 392,-440 389,-440"/>
<text text-anchor="middle" x="368" y="-428.8" font-family="Helvetica,sans-Serif" font-size="9.00">index.js</text>
</a>
</g>
</g>
<!-- src/SiCard/types/SiCard5.js -->
<g id="node3" class="node"><title>src/SiCard/types/SiCard5.js</title>
<g id="a_node3"><a xlink:href="src/SiCard/types/SiCard5.js" xlink:title="SiCard5.js">
<path fill="#ffffcc" stroke="black" d="M393.5,-504C393.5,-504 342.5,-504 342.5,-504 339.5,-504 336.5,-501 336.5,-498 336.5,-498 336.5,-492 336.5,-492 336.5,-489 339.5,-486 342.5,-486 342.5,-486 393.5,-486 393.5,-486 396.5,-486 399.5,-489 399.5,-492 399.5,-492 399.5,-498 399.5,-498 399.5,-501 396.5,-504 393.5,-504"/>
<text text-anchor="middle" x="368" y="-492.8" font-family="Helvetica,sans-Serif" font-size="9.00">SiCard5.js</text>
</a>
</g>
</g>
<!-- src/SiCard/types/SiCard6.js -->
<g id="node4" class="node"><title>src/SiCard/types/SiCard6.js</title>
<g id="a_node4"><a xlink:href="src/SiCard/types/SiCard6.js" xlink:title="SiCard6.js">
<path fill="#ffffcc" stroke="black" d="M393.5,-474C393.5,-474 342.5,-474 342.5,-474 339.5,-474 336.5,-471 336.5,-468 336.5,-468 336.5,-462 336.5,-462 336.5,-459 339.5,-456 342.5,-456 342.5,-456 393.5,-456 393.5,-456 396.5,-456 399.5,-459 399.5,-462 399.5,-462 399.5,-468 399.5,-468 399.5,-471 396.5,-474 393.5,-474"/>
<text text-anchor="middle" x="368" y="-462.8" font-family="Helvetica,sans-Serif" font-size="9.00">SiCard6.js</text>
</a>
</g>
</g>
<!-- src/SiDevice/testUtils/FakeSiDevice.js -->
<g id="node5" class="node"><title>src/SiDevice/testUtils/FakeSiDevice.js</title>
<g id="a_node5"><a xlink:href="src/SiDevice/testUtils/FakeSiDevice.js" xlink:title="FakeSiDevice.js">
<path fill="#ffffcc" stroke="black" d="M406,-598C406,-598 330,-598 330,-598 327,-598 324,-595 324,-592 324,-592 324,-586 324,-586 324,-583 327,-580 330,-580 330,-580 406,-580 406,-580 409,-580 412,-583 412,-586 412,-586 412,-592 412,-592 412,-595 409,-598 406,-598"/>
<text text-anchor="middle" x="368" y="-586.8" font-family="Helvetica,sans-Serif" font-size="9.00">FakeSiDevice.js</text>
</a>
</g>
</g>
<!-- src/SiStation/SiMainStation.js -->
<g id="node6" class="node"><title>src/SiStation/SiMainStation.js</title>
<g id="a_node6"><a xlink:href="src/SiStation/SiMainStation.js" xlink:title="SiMainStation.js">
<path fill="#ffffcc" stroke="black" d="M262,-250C262,-250 183,-250 183,-250 180,-250 177,-247 177,-244 177,-244 177,-238 177,-238 177,-235 180,-232 183,-232 183,-232 262,-232 262,-232 265,-232 268,-235 268,-238 268,-238 268,-244 268,-244 268,-247 265,-250 262,-250"/>
<text text-anchor="middle" x="222.5" y="-238.8" font-family="Helvetica,sans-Serif" font-size="9.00">SiMainStation.js</text>
</a>
</g>
</g>
<!-- src/SiStation/SiMainStation.js&#45;&gt;src/SiCard/index.js -->
<g id="edge1" class="edge"><title>src/SiStation/SiMainStation.js&#45;&gt;src/SiCard/index.js</title>
<path fill="none" stroke="#000000" stroke-width="2" stroke-opacity="0.466667" d="M268.229,-240.122C280.209,-242.2 292.03,-246.789 300,-256 323.584,-283.258 284.735,-390.47 308,-418 313.693,-424.737 322.013,-428.451 330.618,-430.4"/>
<polygon fill="#000000" fill-opacity="0.466667" stroke="#000000" stroke-width="2" stroke-opacity="0.466667" points="330.296,-433.892 340.712,-431.954 331.361,-426.973 330.296,-433.892"/>
</g>
<!-- src/SiStation/SiStation.js -->
<g id="node8" class="node"><title>src/SiStation/SiStation.js</title>
<g id="a_node8"><a xlink:href="src/SiStation/SiStation.js" xlink:title="SiStation.js">
<path fill="#ffffcc" stroke="black" d="M396.5,-250C396.5,-250 339.5,-250 339.5,-250 336.5,-250 333.5,-247 333.5,-244 333.5,-244 333.5,-238 333.5,-238 333.5,-235 336.5,-232 339.5,-232 339.5,-232 396.5,-232 396.5,-232 399.5,-232 402.5,-235 402.5,-238 402.5,-238 402.5,-244 402.5,-244 402.5,-247 399.5,-250 396.5,-250"/>
<text text-anchor="middle" x="368" y="-238.8" font-family="Helvetica,sans-Serif" font-size="9.00">SiStation.js</text>
</a>
</g>
</g>
<!-- src/SiStation/SiMainStation.js&#45;&gt;src/SiStation/SiStation.js -->
<g id="edge5" class="edge"><title>src/SiStation/SiMainStation.js&#45;&gt;src/SiStation/SiStation.js</title>
<path fill="none" stroke="#000000" stroke-width="2" stroke-opacity="0.466667" d="M268.118,-241C285.56,-241 305.511,-241 322.903,-241"/>
<polygon fill="#000000" fill-opacity="0.466667" stroke="#000000" stroke-width="2" stroke-opacity="0.466667" points="323.356,-244.5 333.356,-241 323.356,-237.5 323.356,-244.5"/>
</g>
<!-- src/SiStation/SiTargetMultiplexer.js -->
<g id="node10" class="node"><title>src/SiStation/SiTargetMultiplexer.js</title>
<g id="a_node10"><a xlink:href="src/SiStation/SiTargetMultiplexer.js" xlink:title="SiTargetMultiplexer.js">
<path fill="#ffffcc" stroke="black" d="M419,-291C419,-291 317,-291 317,-291 314,-291 311,-288 311,-285 311,-285 311,-279 311,-279 311,-276 314,-273 317,-273 317,-273 419,-273 419,-273 422,-273 425,-276 425,-279 425,-279 425,-285 425,-285 425,-288 422,-291 419,-291"/>
<text text-anchor="middle" x="368" y="-279.8" font-family="Helvetica,sans-Serif" font-size="9.00">SiTargetMultiplexer.js</text>
</a>
</g>
</g>
<!-- src/SiStation/SiMainStation.js&#45;&gt;src/SiStation/SiTargetMultiplexer.js -->
<g id="edge6" class="edge"><title>src/SiStation/SiMainStation.js&#45;&gt;src/SiStation/SiTargetMultiplexer.js</title>
<path fill="none" stroke="#000000" stroke-width="2" stroke-opacity="0.466667" d="M268.315,-248.412C278.797,-250.524 289.86,-253.063 300,-256 312.328,-259.57 325.567,-264.469 336.994,-269.053"/>
<polygon fill="#000000" fill-opacity="0.466667" stroke="#000000" stroke-width="2" stroke-opacity="0.466667" points="335.921,-272.396 346.501,-272.958 338.581,-265.921 335.921,-272.396"/>
</g>
<!-- src/constants.js -->
<g id="node13" class="node"><title>src/constants.js</title>
<g id="a_node13"><a xlink:href="src/constants.js" xlink:title="constants.js">
<path fill="#ffffcc" stroke="black" d="M399,-376C399,-376 337,-376 337,-376 334,-376 331,-373 331,-370 331,-370 331,-364 331,-364 331,-361 334,-358 337,-358 337,-358 399,-358 399,-358 402,-358 405,-361 405,-364 405,-364 405,-370 405,-370 405,-373 402,-376 399,-376"/>
<text text-anchor="middle" x="368" y="-364.8" font-family="Helvetica,sans-Serif" font-size="9.00">constants.js</text>
</a>
</g>
</g>
<!-- src/SiStation/SiMainStation.js&#45;&gt;src/constants.js -->
<g id="edge2" class="edge"><title>src/SiStation/SiMainStation.js&#45;&gt;src/constants.js</title>
<path fill="none" stroke="#000000" stroke-width="2" stroke-opacity="0.466667" d="M268.039,-240.289C280.014,-242.372 291.879,-246.921 300,-256 314.419,-272.121 293.901,-336.598 308,-353 311.513,-357.086 315.98,-360.098 320.879,-362.302"/>
<polygon fill="#000000" fill-opacity="0.466667" stroke="#000000" stroke-width="2" stroke-opacity="0.466667" points="320.101,-365.734 330.695,-365.614 322.339,-359.101 320.101,-365.734"/>
</g>
<!-- src/siProtocol.js -->
<g id="node14" class="node"><title>src/siProtocol.js</title>
<g id="a_node14"><a xlink:href="src/siProtocol.js" xlink:title="siProtocol.js">
<path fill="#ffffcc" stroke="black" d="M399,-128C399,-128 337,-128 337,-128 334,-128 331,-125 331,-122 331,-122 331,-116 331,-116 331,-113 334,-110 337,-110 337,-110 399,-110 399,-110 402,-110 405,-113 405,-116 405,-116 405,-122 405,-122 405,-125 402,-128 399,-128"/>
<text text-anchor="middle" x="368" y="-116.8" font-family="Helvetica,sans-Serif" font-size="9.00">siProtocol.js</text>
</a>
</g>
</g>
<!-- src/SiStation/SiMainStation.js&#45;&gt;src/siProtocol.js -->
<g id="edge3" class="edge"><title>src/SiStation/SiMainStation.js&#45;&gt;src/siProtocol.js</title>
<path fill="none" stroke="#000000" stroke-width="2" stroke-opacity="0.466667" d="M227.946,-231.762C238.597,-210.673 267.711,-158.82 308,-133 312.052,-130.403 316.539,-128.287 321.176,-126.563"/>
<polygon fill="#000000" fill-opacity="0.466667" stroke="#000000" stroke-width="2" stroke-opacity="0.466667" points="322.314,-129.874 330.812,-123.547 320.223,-123.194 322.314,-129.874"/>
</g>
<!-- src/utils/index.js -->
<g id="node18" class="node"><title>src/utils/index.js</title>
<g id="a_node18"><a xlink:href="src/utils/index.js" xlink:title="index.js">
<path fill="#ffffcc" stroke="black" d="M389,-162C389,-162 347,-162 347,-162 344,-162 341,-159 341,-156 341,-156 341,-150 341,-150 341,-147 344,-144 347,-144 347,-144 389,-144 389,-144 392,-144 395,-147 395,-150 395,-150 395,-156 395,-156 395,-159 392,-162 389,-162"/>
<text text-anchor="middle" x="368" y="-150.8" font-family="Helvetica,sans-Serif" font-size="9.00">index.js</text>
</a>
</g>
</g>
<!-- src/SiStation/SiMainStation.js&#45;&gt;src/utils/index.js -->
<g id="edge4" class="edge"><title>src/SiStation/SiMainStation.js&#45;&gt;src/utils/index.js</title>
<path fill="none" stroke="#000000" stroke-width="2" stroke-opacity="0.466667" d="M238.317,-231.914C263.237,-216.632 313.73,-185.668 343.52,-167.399"/>
<polygon fill="#000000" fill-opacity="0.466667" stroke="#000000" stroke-width="2" stroke-opacity="0.466667" points="345.354,-170.38 352.049,-162.169 341.695,-164.413 345.354,-170.38"/>
</g>
<!-- src/SiStation/SiMainStation.test.js -->
<g id="node7" class="node"><title>src/SiStation/SiMainStation.test.js</title>
<g id="a_node7"><a xlink:href="src/SiStation/SiMainStation.test.js" xlink:title="SiMainStation.test.js">
<path fill="#ffffcc" stroke="black" d="M131,-324C131,-324 30,-324 30,-324 27,-324 24,-321 24,-318 24,-318 24,-312 24,-312 24,-309 27,-306 30,-306 30,-306 131,-306 131,-306 134,-306 137,-309 137,-312 137,-312 137,-318 137,-318 137,-321 134,-324 131,-324"/>
<text text-anchor="middle" x="80.5" y="-312.8" font-family="Helvetica,sans-Serif" font-size="9.00">SiMainStation.test.js</text>
</a>
</g>
</g>
<!-- src/SiStation/SiMainStation.test.js&#45;&gt;src/SiCard/types/SiCard5.js -->
<g id="edge7" class="edge"><title>src/SiStation/SiMainStation.test.js&#45;&gt;src/SiCard/types/SiCard5.js</title>
<path fill="none" stroke="#000000" stroke-width="2" stroke-opacity="0.466667" d="M89.0064,-324.401C99.8892,-337.335 121.351,-360.335 145,-372 207.854,-403.003 252.568,-349.405 300,-401 311.942,-413.99 296.48,-466.634 308,-480 312.839,-485.614 319.454,-489.278 326.509,-491.639"/>
<polygon fill="#000000" fill-opacity="0.466667" stroke="#000000" stroke-width="2" stroke-opacity="0.466667" points="325.723,-495.05 336.276,-494.111 327.441,-488.264 325.723,-495.05"/>
</g>
<!-- src/SiStation/SiMainStation.test.js&#45;&gt;src/SiCard/types/SiCard6.js -->
<g id="edge8" class="edge"><title>src/SiStation/SiMainStation.test.js&#45;&gt;src/SiCard/types/SiCard6.js</title>
<path fill="none" stroke="#000000" stroke-width="2" stroke-opacity="0.466667" d="M90.896,-324.109C102.535,-334.77 123.474,-351.984 145,-360 177.43,-372.077 275.444,-350.617 300,-375 312.207,-387.122 296.544,-439.166 308,-452 312.787,-457.362 319.239,-460.786 326.121,-462.923"/>
<polygon fill="#000000" fill-opacity="0.466667" stroke="#000000" stroke-width="2" stroke-opacity="0.466667" points="325.847,-466.448 336.37,-465.212 327.373,-459.616 325.847,-466.448"/>
</g>
<!-- src/SiStation/SiMainStation.test.js&#45;&gt;src/SiDevice/testUtils/FakeSiDevice.js -->
<g id="edge9" class="edge"><title>src/SiStation/SiMainStation.test.js&#45;&gt;src/SiDevice/testUtils/FakeSiDevice.js</title>
<path fill="none" stroke="#000000" stroke-width="2" stroke-opacity="0.466667" d="M82.37,-324.228C85.4999,-352.506 98.5932,-439.06 145,-489 190.361,-537.814 264.036,-564.429 313.955,-577.675"/>
<polygon fill="#000000" fill-opacity="0.466667" stroke="#000000" stroke-width="2" stroke-opacity="0.466667" points="313.361,-581.136 323.917,-580.225 315.097,-574.355 313.361,-581.136"/>
</g>
<!-- src/SiStation/SiMainStation.test.js&#45;&gt;src/SiStation/SiMainStation.js -->
<g id="edge14" class="edge"><title>src/SiStation/SiMainStation.test.js&#45;&gt;src/SiStation/SiMainStation.js</title>
<path fill="none" stroke="#000000" stroke-width="2" stroke-opacity="0.466667" d="M88.5851,-305.739C99.2759,-292.469 120.864,-268.295 145,-256 151.792,-252.54 159.298,-249.877 166.875,-247.826"/>
<polygon fill="#000000" fill-opacity="0.466667" stroke="#000000" stroke-width="2" stroke-opacity="0.466667" points="167.9,-251.181 176.824,-245.469 166.286,-244.369 167.9,-251.181"/>
</g>
<!-- src/SiStation/SiMainStation.test.js&#45;&gt;src/SiStation/SiTargetMultiplexer.js -->
<g id="edge15" class="edge"><title>src/SiStation/SiMainStation.test.js&#45;&gt;src/SiStation/SiTargetMultiplexer.js</title>
<path fill="none" stroke="#000000" stroke-width="2" stroke-opacity="0.466667" d="M115.586,-305.949C125.053,-303.709 135.377,-301.518 145,-300 173.931,-295.437 246.358,-289.971 300.674,-286.269"/>
<polygon fill="#000000" fill-opacity="0.466667" stroke="#000000" stroke-width="2" stroke-opacity="0.466667" points="301.193,-289.742 310.934,-285.576 300.721,-282.758 301.193,-289.742"/>
</g>
<!-- src/SiStation/SiMainStation.test.js&#45;&gt;src/constants.js -->
<g id="edge10" class="edge"><title>src/SiStation/SiMainStation.test.js&#45;&gt;src/constants.js</title>
<path fill="none" stroke="#000000" stroke-width="2" stroke-opacity="0.466667" d="M116.277,-324.027C125.563,-326.214 135.623,-328.385 145,-330 213.296,-341.766 235.549,-321.528 300,-347 304.133,-348.634 303.976,-351.114 308,-353 312.133,-354.937 316.559,-356.619 321.059,-358.078"/>
<polygon fill="#000000" fill-opacity="0.466667" stroke="#000000" stroke-width="2" stroke-opacity="0.466667" points="320.369,-361.521 330.947,-360.925 322.306,-354.795 320.369,-361.521"/>
</g>
<!-- src/simulation/SiCardSimulator/types/SiCard5Simulator.js -->
<g id="node15" class="node"><title>src/simulation/SiCardSimulator/types/SiCard5Simulator.js</title>
<g id="a_node15"><a xlink:href="src/simulation/SiCardSimulator/types/SiCard5Simulator.js" xlink:title="SiCard5Simulator.js">
<path fill="#ffffcc" stroke="black" d="M270,-460C270,-460 175,-460 175,-460 172,-460 169,-457 169,-454 169,-454 169,-448 169,-448 169,-445 172,-442 175,-442 175,-442 270,-442 270,-442 273,-442 276,-445 276,-448 276,-448 276,-454 276,-454 276,-457 273,-460 270,-460"/>
<text text-anchor="middle" x="222.5" y="-448.8" font-family="Helvetica,sans-Serif" font-size="9.00">SiCard5Simulator.js</text>
</a>
</g>
</g>
<!-- src/SiStation/SiMainStation.test.js&#45;&gt;src/simulation/SiCardSimulator/types/SiCard5Simulator.js -->
<g id="edge11" class="edge"><title>src/SiStation/SiMainStation.test.js&#45;&gt;src/simulation/SiCardSimulator/types/SiCard5Simulator.js</title>
<path fill="none" stroke="#000000" stroke-width="2" stroke-opacity="0.466667" d="M83.4138,-324.033C88.7444,-346.828 106.007,-406.934 145,-436 149.232,-439.155 153.95,-441.696 158.908,-443.738"/>
<polygon fill="#000000" fill-opacity="0.466667" stroke="#000000" stroke-width="2" stroke-opacity="0.466667" points="158.078,-447.153 168.672,-447.08 160.344,-440.53 158.078,-447.153"/>
</g>
<!-- src/simulation/SiCardSimulator/types/SiCard6Simulator.js -->
<g id="node16" class="node"><title>src/simulation/SiCardSimulator/types/SiCard6Simulator.js</title>
<g id="a_node16"><a xlink:href="src/simulation/SiCardSimulator/types/SiCard6Simulator.js" xlink:title="SiCard6Simulator.js">
<path fill="#ffffcc" stroke="black" d="M270,-430C270,-430 175,-430 175,-430 172,-430 169,-427 169,-424 169,-424 169,-418 169,-418 169,-415 172,-412 175,-412 175,-412 270,-412 270,-412 273,-412 276,-415 276,-418 276,-418 276,-424 276,-424 276,-427 273,-430 270,-430"/>
<text text-anchor="middle" x="222.5" y="-418.8" font-family="Helvetica,sans-Serif" font-size="9.00">SiCard6Simulator.js</text>
</a>
</g>
</g>
<!-- src/SiStation/SiMainStation.test.js&#45;&gt;src/simulation/SiCardSimulator/types/SiCard6Simulator.js -->
<g id="edge12" class="edge"><title>src/SiStation/SiMainStation.test.js&#45;&gt;src/simulation/SiCardSimulator/types/SiCard6Simulator.js</title>
<path fill="none" stroke="#000000" stroke-width="2" stroke-opacity="0.466667" d="M88.4408,-324.358C99.2762,-338.477 121.426,-365.436 145,-383 158.237,-392.862 174.426,-401.332 188.498,-407.756"/>
<polygon fill="#000000" fill-opacity="0.466667" stroke="#000000" stroke-width="2" stroke-opacity="0.466667" points="187.276,-411.043 197.839,-411.869 190.097,-404.636 187.276,-411.043"/>
</g>
<!-- src/testUtils.js -->
<g id="node17" class="node"><title>src/testUtils.js</title>
<g id="a_node17"><a xlink:href="src/testUtils.js" xlink:title="testUtils.js">
<path fill="#ffffcc" stroke="black" d="M395,-406C395,-406 341,-406 341,-406 338,-406 335,-403 335,-400 335,-400 335,-394 335,-394 335,-391 338,-388 341,-388 341,-388 395,-388 395,-388 398,-388 401,-391 401,-394 401,-394 401,-400 401,-400 401,-403 398,-406 395,-406"/>
<text text-anchor="middle" x="368" y="-394.8" font-family="Helvetica,sans-Serif" font-size="9.00">testUtils.js</text>
</a>
</g>
</g>
<!-- src/SiStation/SiMainStation.test.js&#45;&gt;src/testUtils.js -->
<g id="edge13" class="edge"><title>src/SiStation/SiMainStation.test.js&#45;&gt;src/testUtils.js</title>
<path fill="none" stroke="#000000" stroke-width="2" stroke-opacity="0.466667" d="M98.2401,-324.042C110.759,-330.387 128.49,-338.512 145,-343 178.461,-352.097 272.632,-339.706 300,-361 307.883,-367.133 300.543,-375.355 308,-382 312.867,-386.338 318.815,-389.456 325.039,-391.69"/>
<polygon fill="#000000" fill-opacity="0.466667" stroke="#000000" stroke-width="2" stroke-opacity="0.466667" points="324.356,-395.135 334.933,-394.522 326.283,-388.405 324.356,-395.135"/>
</g>
<!-- src/SiStation/SiStation.test.js -->
<g id="node9" class="node"><title>src/SiStation/SiStation.test.js</title>
<g id="a_node9"><a xlink:href="src/SiStation/SiStation.test.js" xlink:title="SiStation.test.js">
<path fill="#ffffcc" stroke="black" d="M262,-280C262,-280 183,-280 183,-280 180,-280 177,-277 177,-274 177,-274 177,-268 177,-268 177,-265 180,-262 183,-262 183,-262 262,-262 262,-262 265,-262 268,-265 268,-268 268,-268 268,-274 268,-274 268,-277 265,-280 262,-280"/>
<text text-anchor="middle" x="222.5" y="-268.8" font-family="Helvetica,sans-Serif" font-size="9.00">SiStation.test.js</text>
</a>
</g>
</g>
<!-- src/SiStation/SiStation.test.js&#45;&gt;node_modules/lodash/lodash.js -->
<g id="edge19" class="edge"><title>src/SiStation/SiStation.test.js&#45;&gt;node_modules/lodash/lodash.js</title>
<path fill="none" stroke="#000000" stroke-width="2" stroke-opacity="0.466667" d="M268.22,-271.87C280.2,-269.792 292.023,-265.205 300,-256 311.439,-242.8 301.356,-115.154 308,-99 316.23,-78.9892 333.251,-61.0277 346.905,-48.9132"/>
<polygon fill="#000000" fill-opacity="0.466667" stroke="#000000" stroke-width="2" stroke-opacity="0.466667" points="349.503,-51.2988 354.863,-42.1597 344.974,-45.9617 349.503,-51.2988"/>
</g>
<!-- src/SiStation/SiStation.test.js&#45;&gt;src/SiStation/SiStation.js -->
<g id="edge18" class="edge"><title>src/SiStation/SiStation.test.js&#45;&gt;src/SiStation/SiStation.js</title>
<path fill="none" stroke="#000000" stroke-width="2" stroke-opacity="0.466667" d="M268.038,-262.475C278.531,-260.409 289.669,-258.169 300,-256 307.543,-254.416 315.551,-252.676 323.307,-250.958"/>
<polygon fill="#000000" fill-opacity="0.466667" stroke="#000000" stroke-width="2" stroke-opacity="0.466667" points="324.299,-254.323 333.297,-248.729 322.775,-247.491 324.299,-254.323"/>
</g>
<!-- src/SiStation/SiStation.test.js&#45;&gt;src/constants.js -->
<g id="edge16" class="edge"><title>src/SiStation/SiStation.test.js&#45;&gt;src/constants.js</title>
<path fill="none" stroke="#000000" stroke-width="2" stroke-opacity="0.466667" d="M268.154,-279.22C280.132,-283.516 291.971,-290.053 300,-300 314.963,-318.537 291.87,-335.469 308,-353 311.649,-356.966 316.197,-359.905 321.14,-362.07"/>
<polygon fill="#000000" fill-opacity="0.466667" stroke="#000000" stroke-width="2" stroke-opacity="0.466667" points="320.403,-365.514 330.997,-365.346 322.611,-358.871 320.403,-365.514"/>
</g>
<!-- src/SiStation/SiStation.test.js&#45;&gt;src/testUtils.js -->
<g id="edge17" class="edge"><title>src/SiStation/SiStation.test.js&#45;&gt;src/testUtils.js</title>
<path fill="none" stroke="#000000" stroke-width="2" stroke-opacity="0.466667" d="M268.088,-278.816C280.213,-283.101 292.149,-289.733 300,-300 311.122,-314.544 296.072,-368.11 308,-382 312.487,-387.226 318.514,-390.763 325.005,-393.132"/>
<polygon fill="#000000" fill-opacity="0.466667" stroke="#000000" stroke-width="2" stroke-opacity="0.466667" points="324.15,-396.527 334.722,-395.83 326.022,-389.782 324.15,-396.527"/>
</g>
<!-- src/SiStation/SiTargetMultiplexer.test.js -->
<g id="node11" class="node"><title>src/SiStation/SiTargetMultiplexer.test.js</title>
<g id="a_node11"><a xlink:href="src/SiStation/SiTargetMultiplexer.test.js" xlink:title="SiTargetMultiplexer.test.js">
<path fill="#ffffcc" stroke="black" d="M284.5,-324C284.5,-324 160.5,-324 160.5,-324 157.5,-324 154.5,-321 154.5,-318 154.5,-318 154.5,-312 154.5,-312 154.5,-309 157.5,-306 160.5,-306 160.5,-306 284.5,-306 284.5,-306 287.5,-306 290.5,-309 290.5,-312 290.5,-312 290.5,-318 290.5,-318 290.5,-321 287.5,-324 284.5,-324"/>
<text text-anchor="middle" x="222.5" y="-312.8" font-family="Helvetica,sans-Serif" font-size="9.00">SiTargetMultiplexer.test.js</text>
</a>
</g>
</g>
<!-- src/SiStation/SiTargetMultiplexer.test.js&#45;&gt;src/SiDevice/testUtils/FakeSiDevice.js -->
<g id="edge20" class="edge"><title>src/SiStation/SiTargetMultiplexer.test.js&#45;&gt;src/SiDevice/testUtils/FakeSiDevice.js</title>
<path fill="none" stroke="#000000" stroke-width="2" stroke-opacity="0.466667" d="M235.778,-324.219C253.627,-338.438 286.123,-367.599 300,-401 311.275,-428.138 295.589,-506.362 308,-533 315.828,-549.802 331.138,-564.095 344.2,-574.036"/>
<polygon fill="#000000" fill-opacity="0.466667" stroke="#000000" stroke-width="2" stroke-opacity="0.466667" points="342.201,-576.909 352.358,-579.922 346.297,-571.232 342.201,-576.909"/>
</g>
<!-- src/SiStation/SiTargetMultiplexer.test.js&#45;&gt;src/SiStation/SiTargetMultiplexer.js -->
<g id="edge24" class="edge"><title>src/SiStation/SiTargetMultiplexer.test.js&#45;&gt;src/SiStation/SiTargetMultiplexer.js</title>
<path fill="none" stroke="#000000" stroke-width="2" stroke-opacity="0.466667" d="M262.442,-305.947C274.491,-303.117 287.802,-299.96 300,-297 303.562,-296.136 304.432,-295.839 308,-295 310.457,-294.422 312.973,-293.838 315.516,-293.255"/>
<polygon fill="#000000" fill-opacity="0.466667" stroke="#000000" stroke-width="2" stroke-opacity="0.466667" points="316.407,-296.641 325.385,-291.016 314.859,-289.815 316.407,-296.641"/>
</g>
<!-- src/SiStation/SiTargetMultiplexer.test.js&#45;&gt;src/constants.js -->
<g id="edge21" class="edge"><title>src/SiStation/SiTargetMultiplexer.test.js&#45;&gt;src/constants.js</title>
<path fill="none" stroke="#000000" stroke-width="2" stroke-opacity="0.466667" d="M290.675,-321.685C294.01,-323.441 297.151,-325.528 300,-328 308.811,-335.646 299.44,-345.073 308,-353 311.813,-356.531 316.348,-359.22 321.187,-361.262"/>
<polygon fill="#000000" fill-opacity="0.466667" stroke="#000000" stroke-width="2" stroke-opacity="0.466667" points="320.16,-364.609 330.753,-364.44 322.367,-357.966 320.16,-364.609"/>
</g>
<!-- src/SiStation/SiTargetMultiplexer.test.js&#45;&gt;src/siProtocol.js -->
<g id="edge22" class="edge"><title>src/SiStation/SiTargetMultiplexer.test.js&#45;&gt;src/siProtocol.js</title>
<path fill="none" stroke="#000000" stroke-width="2" stroke-opacity="0.466667" d="M272.364,-305.902C283.07,-301.61 293.219,-295.294 300,-286 320.068,-258.496 286.196,-159.149 308,-133 311.582,-128.705 316.218,-125.589 321.316,-123.349"/>
<polygon fill="#000000" fill-opacity="0.466667" stroke="#000000" stroke-width="2" stroke-opacity="0.466667" points="322.467,-126.655 330.865,-120.195 320.271,-120.008 322.467,-126.655"/>
</g>
<!-- src/SiStation/SiTargetMultiplexer.test.js&#45;&gt;src/testUtils.js -->
<g id="edge23" class="edge"><title>src/SiStation/SiTargetMultiplexer.test.js&#45;&gt;src/testUtils.js</title>
<path fill="none" stroke="#000000" stroke-width="2" stroke-opacity="0.466667" d="M290.831,-320.952C294.171,-322.882 297.267,-325.208 300,-328 316.973,-345.337 291.74,-363.993 308,-382 312.616,-387.112 318.706,-390.594 325.219,-392.943"/>
<polygon fill="#000000" fill-opacity="0.466667" stroke="#000000" stroke-width="2" stroke-opacity="0.466667" points="324.373,-396.34 334.944,-395.634 326.24,-389.594 324.373,-396.34"/>
</g>
<!-- src/SiStation/index.js -->
<g id="node12" class="node"><title>src/SiStation/index.js</title>
<g id="a_node12"><a xlink:href="src/SiStation/index.js" xlink:title="index.js">
<path fill="#ffffcc" stroke="black" d="M101.5,-228C101.5,-228 59.5,-228 59.5,-228 56.5,-228 53.5,-225 53.5,-222 53.5,-222 53.5,-216 53.5,-216 53.5,-213 56.5,-210 59.5,-210 59.5,-210 101.5,-210 101.5,-210 104.5,-210 107.5,-213 107.5,-216 107.5,-216 107.5,-222 107.5,-222 107.5,-225 104.5,-228 101.5,-228"/>
<text text-anchor="middle" x="80.5" y="-216.8" font-family="Helvetica,sans-Serif" font-size="9.00">index.js</text>
</a>
</g>
</g>
<!-- src/SiStation/index.js&#45;&gt;src/SiStation/SiMainStation.js -->
<g id="edge25" class="edge"><title>src/SiStation/index.js&#45;&gt;src/SiStation/SiMainStation.js</title>
<path fill="none" stroke="#000000" stroke-width="2" stroke-opacity="0.466667" d="M107.505,-223.086C124.146,-225.702 146.366,-229.193 166.767,-232.399"/>
<polygon fill="#000000" fill-opacity="0.466667" stroke="#000000" stroke-width="2" stroke-opacity="0.466667" points="166.494,-235.899 176.916,-233.994 167.581,-228.984 166.494,-235.899"/>
</g>
<!-- src/SiStation/index.js&#45;&gt;src/SiStation/SiStation.js -->
<g id="edge26" class="edge"><title>src/SiStation/index.js&#45;&gt;src/SiStation/SiStation.js</title>
<path fill="none" stroke="#000000" stroke-width="2" stroke-opacity="0.466667" d="M107.682,-215.136C148.975,-209.798 231.568,-202.188 300,-215 313.51,-217.529 327.798,-222.696 339.694,-227.762"/>
<polygon fill="#000000" fill-opacity="0.466667" stroke="#000000" stroke-width="2" stroke-opacity="0.466667" points="338.496,-231.06 349.055,-231.934 341.345,-224.666 338.496,-231.06"/>
</g>
<!-- src/SiStation/index.js&#45;&gt;src/SiStation/SiTargetMultiplexer.js -->
<g id="edge27" class="edge"><title>src/SiStation/index.js&#45;&gt;src/SiStation/SiTargetMultiplexer.js</title>
<path fill="none" stroke="#000000" stroke-width="2" stroke-opacity="0.466667" d="M107.799,-218.116C162.625,-216.519 285.287,-214.317 300,-226 310.807,-234.581 299.024,-245.519 308,-256 312.252,-260.966 317.635,-265.019 323.412,-268.318"/>
<polygon fill="#000000" fill-opacity="0.466667" stroke="#000000" stroke-width="2" stroke-opacity="0.466667" points="322.191,-271.618 332.707,-272.903 325.287,-265.34 322.191,-271.618"/>
</g>
</g>
</svg>
