<?xml version="1.0" encoding="UTF-8" standalone="no"?>
<!DOCTYPE svg PUBLIC "-//W3C//DTD SVG 1.1//EN"
 "http://www.w3.org/Graphics/SVG/1.1/DTD/svg11.dtd">
<!-- Generated by graphviz version 2.38.0 (20140413.2041)
 -->
<!-- Title: dependency&#45;cruiser output Pages: 1 -->
<svg width="640pt" height="564pt"
 viewBox="0.00 0.00 640.00 564.00" xmlns="http://www.w3.org/2000/svg" xmlns:xlink="http://www.w3.org/1999/xlink">
<g id="graph0" class="graph" transform="scale(1 1) rotate(0) translate(4 560)">
<title>dependency&#45;cruiser output</title>
<polygon fill="white" stroke="none" points="-4,4 -4,-560 636,-560 636,4 -4,4"/>
<g id="clust1" class="cluster"><title>cluster_node_modules</title>
<path fill="#ffffff" stroke="black" stroke-width="2" d="M248,-8C248,-8 348,-8 348,-8 354,-8 360,-14 360,-20 360,-20 360,-296 360,-296 360,-302 354,-308 348,-308 348,-308 248,-308 248,-308 242,-308 236,-302 236,-296 236,-296 236,-20 236,-20 236,-14 242,-8 248,-8"/>
<text text-anchor="middle" x="298" y="-296.8" font-family="Helvetica,sans-Serif" font-weight="bold" font-size="9.00">node_modules</text>
</g>
<g id="clust2" class="cluster"><title>cluster_node_modules/immutable</title>
<path fill="#ffffff" stroke="black" stroke-width="2" d="M256,-196C256,-196 340,-196 340,-196 346,-196 352,-202 352,-208 352,-208 352,-270 352,-270 352,-276 346,-282 340,-282 340,-282 256,-282 256,-282 250,-282 244,-276 244,-270 244,-270 244,-208 244,-208 244,-202 250,-196 256,-196"/>
<text text-anchor="middle" x="298" y="-270.8" font-family="Helvetica,sans-Serif" font-weight="bold" font-size="9.00">immutable</text>
</g>
<g id="clust3" class="cluster"><title>cluster_node_modules/immutable/dist</title>
<path fill="#ffffff" stroke="black" stroke-width="2" d="M264,-204C264,-204 332,-204 332,-204 338,-204 344,-210 344,-216 344,-216 344,-244 344,-244 344,-250 338,-256 332,-256 332,-256 264,-256 264,-256 258,-256 252,-250 252,-244 252,-244 252,-216 252,-216 252,-210 258,-204 264,-204"/>
<text text-anchor="middle" x="298" y="-244.8" font-family="Helvetica,sans-Serif" font-weight="bold" font-size="9.00">dist</text>
</g>
<g id="clust4" class="cluster"><title>cluster_node_modules/prop&#45;types</title>
<path fill="#ffffff" stroke="black" stroke-width="2" d="M273,-136C273,-136 324,-136 324,-136 330,-136 336,-142 336,-148 336,-148 336,-176 336,-176 336,-182 330,-188 324,-188 324,-188 273,-188 273,-188 267,-188 261,-182 261,-176 261,-176 261,-148 261,-148 261,-142 267,-136 273,-136"/>
<text text-anchor="middle" x="298.5" y="-176.8" font-family="Helvetica,sans-Serif" font-weight="bold" font-size="9.00">prop&#45;types</text>
</g>
<g id="clust5" class="cluster"><title>cluster_node_modules/react&#45;dom</title>
<path fill="#ffffff" stroke="black" stroke-width="2" d="M275,-16C275,-16 322,-16 322,-16 328,-16 334,-22 334,-28 334,-28 334,-56 334,-56 334,-62 328,-68 322,-68 322,-68 275,-68 275,-68 269,-68 263,-62 263,-56 263,-56 263,-28 263,-28 263,-22 269,-16 275,-16"/>
<text text-anchor="middle" x="298.5" y="-56.8" font-family="Helvetica,sans-Serif" font-weight="bold" font-size="9.00">react&#45;dom</text>
</g>
<g id="clust6" class="cluster"><title>cluster_node_modules/react</title>
<path fill="#ffffff" stroke="black" stroke-width="2" d="M275,-76C275,-76 321,-76 321,-76 327,-76 333,-82 333,-88 333,-88 333,-116 333,-116 333,-122 327,-128 321,-128 321,-128 275,-128 275,-128 269,-128 263,-122 263,-116 263,-116 263,-88 263,-88 263,-82 269,-76 275,-76"/>
<text text-anchor="middle" x="298" y="-116.8" font-family="Helvetica,sans-Serif" font-weight="bold" font-size="9.00">react</text>
</g>
<g id="clust7" class="cluster"><title>cluster_src</title>
<path fill="#ffffff" stroke="black" stroke-width="2" d="M542.5,-256C542.5,-256 588.5,-256 588.5,-256 594.5,-256 600.5,-262 600.5,-268 600.5,-268 600.5,-296 600.5,-296 600.5,-302 594.5,-308 588.5,-308 588.5,-308 542.5,-308 542.5,-308 536.5,-308 530.5,-302 530.5,-296 530.5,-296 530.5,-268 530.5,-268 530.5,-262 536.5,-256 542.5,-256"/>
<text text-anchor="middle" x="565.5" y="-296.8" font-family="Helvetica,sans-Serif" font-weight="bold" font-size="9.00">src</text>
</g>
<g id="clust8" class="cluster"><title>cluster_testbench</title>
<path fill="#ffffff" stroke="black" stroke-width="2" d="M20,-316C20,-316 612,-316 612,-316 618,-316 624,-322 624,-328 624,-328 624,-536 624,-536 624,-542 618,-548 612,-548 612,-548 20,-548 20,-548 14,-548 8,-542 8,-536 8,-536 8,-328 8,-328 8,-322 14,-316 20,-316"/>
<text text-anchor="middle" x="316" y="-536.8" font-family="Helvetica,sans-Serif" font-weight="bold" font-size="9.00">testbench</text>
</g>
<g id="clust9" class="cluster"><title>cluster_testbench/commands</title>
<path fill="#ffffff" stroke="black" stroke-width="2" d="M268.5,-338C268.5,-338 327.5,-338 327.5,-338 333.5,-338 339.5,-344 339.5,-350 339.5,-350 339.5,-498 339.5,-498 339.5,-504 333.5,-510 327.5,-510 327.5,-510 268.5,-510 268.5,-510 262.5,-510 256.5,-504 256.5,-498 256.5,-498 256.5,-350 256.5,-350 256.5,-344 262.5,-338 268.5,-338"/>
<text text-anchor="middle" x="298" y="-498.8" font-family="Helvetica,sans-Serif" font-weight="bold" font-size="9.00">commands</text>
</g>
<!-- node_modules/immutable/dist/immutable.js -->
<g id="node1" class="node"><title>node_modules/immutable/dist/immutable.js</title>
<g id="a_node1"><a xlink:href="node_modules/immutable/dist/immutable.js" xlink:title="immutable.js">
<polygon fill="#c40b0a" fill-opacity="0.101961" stroke="black" points="336,-230 334.5,-232 324,-232 322.5,-230 260,-230 260,-212 336,-212 336,-230"/>
<text text-anchor="middle" x="298" y="-218.8" font-family="Helvetica,sans-Serif" font-size="9.00" fill="#c40b0a">immutable.js</text>
</a>
</g>
</g>
<!-- node_modules/prop&#45;types/index.js -->
<g id="node2" class="node"><title>node_modules/prop&#45;types/index.js</title>
<g id="a_node2"><a xlink:href="node_modules/prop-types/index.js" xlink:title="index.js">
<polygon fill="#c40b0a" fill-opacity="0.101961" stroke="black" points="325,-162 323.5,-164 313,-164 311.5,-162 271,-162 271,-144 325,-144 325,-162"/>
<text text-anchor="middle" x="298" y="-150.8" font-family="Helvetica,sans-Serif" font-size="9.00" fill="#c40b0a">index.js</text>
</a>
</g>
</g>
<!-- node_modules/react&#45;dom/index.js -->
<g id="node3" class="node"><title>node_modules/react&#45;dom/index.js</title>
<g id="a_node3"><a xlink:href="node_modules/react-dom/index.js" xlink:title="index.js">
<polygon fill="#c40b0a" fill-opacity="0.101961" stroke="black" points="325,-42 323.5,-44 313,-44 311.5,-42 271,-42 271,-24 325,-24 325,-42"/>
<text text-anchor="middle" x="298" y="-30.8" font-family="Helvetica,sans-Serif" font-size="9.00" fill="#c40b0a">index.js</text>
</a>
</g>
</g>
<!-- node_modules/react/index.js -->
<g id="node4" class="node"><title>node_modules/react/index.js</title>
<g id="a_node4"><a xlink:href="node_modules/react/index.js" xlink:title="index.js">
<polygon fill="#c40b0a" fill-opacity="0.101961" stroke="black" points="325,-102 323.5,-104 313,-104 311.5,-102 271,-102 271,-84 325,-84 325,-102"/>
<text text-anchor="middle" x="298" y="-90.8" font-family="Helvetica,sans-Serif" font-size="9.00" fill="#c40b0a">index.js</text>
</a>
</g>
</g>
<!-- src/index.js -->
<g id="node5" class="node"><title>src/index.js</title>
<g id="a_node5"><a xlink:href="src/index.js" xlink:title="index.js">
<path fill="#ffffcc" stroke="black" d="M586.5,-282C586.5,-282 544.5,-282 544.5,-282 541.5,-282 538.5,-279 538.5,-276 538.5,-276 538.5,-270 538.5,-270 538.5,-267 541.5,-264 544.5,-264 544.5,-264 586.5,-264 586.5,-264 589.5,-264 592.5,-267 592.5,-270 592.5,-270 592.5,-276 592.5,-276 592.5,-279 589.5,-282 586.5,-282"/>
<text text-anchor="middle" x="565.5" y="-270.8" font-family="Helvetica,sans-Serif" font-size="9.00">index.js</text>
</a>
</g>
</g>
<!-- testbench/MainStationList.js -->
<g id="node6" class="node"><title>testbench/MainStationList.js</title>
<g id="a_node6"><a xlink:href="testbench/MainStationList.js" xlink:title="MainStationList.js">
<path fill="#ffffcc" stroke="black" d="M198.5,-402C198.5,-402 112.5,-402 112.5,-402 109.5,-402 106.5,-399 106.5,-396 106.5,-396 106.5,-390 106.5,-390 106.5,-387 109.5,-384 112.5,-384 112.5,-384 198.5,-384 198.5,-384 201.5,-384 204.5,-387 204.5,-390 204.5,-390 204.5,-396 204.5,-396 204.5,-399 201.5,-402 198.5,-402"/>
<text text-anchor="middle" x="155.5" y="-390.8" font-family="Helvetica,sans-Serif" font-size="9.00">MainStationList.js</text>
</a>
</g>
</g>
<!-- testbench/MainStationList.js&#45;&gt;node_modules/prop&#45;types/index.js -->
<g id="edge1" class="edge"><title>testbench/MainStationList.js&#45;&gt;node_modules/prop&#45;types/index.js</title>
<path fill="none" stroke="#000000" stroke-width="2" stroke-opacity="0.466667" d="M204.68,-391.778C213.612,-389.305 222.003,-385.054 228,-378 240.751,-363.001 227.003,-218.511 236,-201 243.285,-186.822 256.862,-175.498 269.36,-167.417"/>
<polygon fill="#000000" fill-opacity="0.466667" stroke="#000000" stroke-width="2" stroke-opacity="0.466667" points="271.406,-170.271 278.165,-162.113 267.793,-164.275 271.406,-170.271"/>
</g>
<!-- testbench/MainStationList.js&#45;&gt;node_modules/react/index.js -->
<g id="edge2" class="edge"><title>testbench/MainStationList.js&#45;&gt;node_modules/react/index.js</title>
<path fill="none" stroke="#000000" stroke-width="2" stroke-opacity="0.466667" d="M204.748,-391.835C213.675,-389.358 222.047,-385.092 228,-378 245.511,-357.139 222.668,-156.75 236,-133 242.296,-121.784 253.197,-113.172 264.059,-106.863"/>
<polygon fill="#000000" fill-opacity="0.466667" stroke="#000000" stroke-width="2" stroke-opacity="0.466667" points="265.867,-109.866 273.072,-102.098 262.595,-103.678 265.867,-109.866"/>
</g>
<!-- testbench/SiCard10Simulator.js -->
<g id="node7" class="node"><title>testbench/SiCard10Simulator.js</title>
<g id="a_node7"><a xlink:href="testbench/SiCard10Simulator.js" xlink:title="SiCard10Simulator.js">
<path fill="#ffffcc" stroke="black" d="M485.5,-462C485.5,-462 384.5,-462 384.5,-462 381.5,-462 378.5,-459 378.5,-456 378.5,-456 378.5,-450 378.5,-450 378.5,-447 381.5,-444 384.5,-444 384.5,-444 485.5,-444 485.5,-444 488.5,-444 491.5,-447 491.5,-450 491.5,-450 491.5,-456 491.5,-456 491.5,-459 488.5,-462 485.5,-462"/>
<text text-anchor="middle" x="435" y="-450.8" font-family="Helvetica,sans-Serif" font-size="9.00">SiCard10Simulator.js</text>
</a>
</g>
</g>
<!-- testbench/SiCard10Simulator.js&#45;&gt;src/index.js -->
<g id="edge3" class="edge"><title>testbench/SiCard10Simulator.js&#45;&gt;src/index.js</title>
<path fill="none" stroke="#000000" stroke-width="2" stroke-opacity="0.466667" d="M491.624,-446.161C495.5,-444.02 499.037,-441.341 502,-438 520.53,-417.105 501.675,-337.544 515,-313 520.513,-302.845 529.782,-294.312 538.819,-287.77"/>
<polygon fill="#000000" fill-opacity="0.466667" stroke="#000000" stroke-width="2" stroke-opacity="0.466667" points="540.908,-290.584 547.282,-282.12 537.021,-284.762 540.908,-290.584"/>
</g>
<!-- testbench/SiCardSimulator.js -->
<g id="node12" class="node"><title>testbench/SiCardSimulator.js</title>
<g id="a_node12"><a xlink:href="testbench/SiCardSimulator.js" xlink:title="SiCardSimulator.js">
<path fill="#ffffcc" stroke="black" d="M610,-462C610,-462 521,-462 521,-462 518,-462 515,-459 515,-456 515,-456 515,-450 515,-450 515,-447 518,-444 521,-444 521,-444 610,-444 610,-444 613,-444 616,-447 616,-450 616,-450 616,-456 616,-456 616,-459 613,-462 610,-462"/>
<text text-anchor="middle" x="565.5" y="-450.8" font-family="Helvetica,sans-Serif" font-size="9.00">SiCardSimulator.js</text>
</a>
</g>
</g>
<!-- testbench/SiCard10Simulator.js&#45;&gt;testbench/SiCardSimulator.js -->
<g id="edge4" class="edge"><title>testbench/SiCard10Simulator.js&#45;&gt;testbench/SiCardSimulator.js</title>
<path fill="none" stroke="#000000" stroke-width="2" stroke-opacity="0.466667" d="M491.615,-453C495.964,-453 500.367,-453 504.743,-453"/>
<polygon fill="#000000" fill-opacity="0.466667" stroke="#000000" stroke-width="2" stroke-opacity="0.466667" points="504.863,-456.5 514.863,-453 504.863,-449.5 504.863,-456.5"/>
</g>
<!-- testbench/SiCard5Simulator.js -->
<g id="node8" class="node"><title>testbench/SiCard5Simulator.js</title>
<g id="a_node8"><a xlink:href="testbench/SiCard5Simulator.js" xlink:title="SiCard5Simulator.js">
<path fill="#ffffcc" stroke="black" d="M482.5,-492C482.5,-492 387.5,-492 387.5,-492 384.5,-492 381.5,-489 381.5,-486 381.5,-486 381.5,-480 381.5,-480 381.5,-477 384.5,-474 387.5,-474 387.5,-474 482.5,-474 482.5,-474 485.5,-474 488.5,-477 488.5,-480 488.5,-480 488.5,-486 488.5,-486 488.5,-489 485.5,-492 482.5,-492"/>
<text text-anchor="middle" x="435" y="-480.8" font-family="Helvetica,sans-Serif" font-size="9.00">SiCard5Simulator.js</text>
</a>
</g>
</g>
<!-- testbench/SiCard5Simulator.js&#45;&gt;src/index.js -->
<g id="edge5" class="edge"><title>testbench/SiCard5Simulator.js&#45;&gt;src/index.js</title>
<path fill="none" stroke="#000000" stroke-width="2" stroke-opacity="0.466667" d="M488.582,-477.815C493.667,-475.445 498.3,-472.257 502,-468 524.675,-441.911 498.812,-343.54 515,-313 520.412,-302.791 529.662,-294.248 538.712,-287.713"/>
<polygon fill="#000000" fill-opacity="0.466667" stroke="#000000" stroke-width="2" stroke-opacity="0.466667" points="540.805,-290.524 547.196,-282.074 536.93,-284.695 540.805,-290.524"/>
</g>
<!-- testbench/SiCard5Simulator.js&#45;&gt;testbench/SiCardSimulator.js -->
<g id="edge6" class="edge"><title>testbench/SiCard5Simulator.js&#45;&gt;testbench/SiCardSimulator.js</title>
<path fill="none" stroke="#000000" stroke-width="2" stroke-opacity="0.466667" d="M476.155,-473.955C484.691,-472.01 493.647,-469.951 502,-468 506.966,-466.84 512.151,-465.616 517.319,-464.388"/>
<polygon fill="#000000" fill-opacity="0.466667" stroke="#000000" stroke-width="2" stroke-opacity="0.466667" points="518.257,-467.762 527.172,-462.037 516.633,-460.953 518.257,-467.762"/>
</g>
<!-- testbench/SiCard6Simulator.js -->
<g id="node9" class="node"><title>testbench/SiCard6Simulator.js</title>
<g id="a_node9"><a xlink:href="testbench/SiCard6Simulator.js" xlink:title="SiCard6Simulator.js">
<path fill="#ffffcc" stroke="black" d="M482.5,-522C482.5,-522 387.5,-522 387.5,-522 384.5,-522 381.5,-519 381.5,-516 381.5,-516 381.5,-510 381.5,-510 381.5,-507 384.5,-504 387.5,-504 387.5,-504 482.5,-504 482.5,-504 485.5,-504 488.5,-507 488.5,-510 488.5,-510 488.5,-516 488.5,-516 488.5,-519 485.5,-522 482.5,-522"/>
<text text-anchor="middle" x="435" y="-510.8" font-family="Helvetica,sans-Serif" font-size="9.00">SiCard6Simulator.js</text>
</a>
</g>
</g>
<!-- testbench/SiCard6Simulator.js&#45;&gt;src/index.js -->
<g id="edge7" class="edge"><title>testbench/SiCard6Simulator.js&#45;&gt;src/index.js</title>
<path fill="none" stroke="#000000" stroke-width="2" stroke-opacity="0.466667" d="M488.639,-507.865C493.714,-505.486 498.329,-502.282 502,-498 528.824,-466.712 495.945,-349.543 515,-313 520.342,-302.755 529.58,-294.205 538.64,-287.675"/>
<polygon fill="#000000" fill-opacity="0.466667" stroke="#000000" stroke-width="2" stroke-opacity="0.466667" points="540.735,-290.485 547.138,-282.044 536.869,-284.65 540.735,-290.485"/>
</g>
<!-- testbench/SiCard6Simulator.js&#45;&gt;testbench/SiCardSimulator.js -->
<g id="edge8" class="edge"><title>testbench/SiCard6Simulator.js&#45;&gt;testbench/SiCardSimulator.js</title>
<path fill="none" stroke="#000000" stroke-width="2" stroke-opacity="0.466667" d="M485.727,-503.977C491.325,-502.296 496.859,-500.319 502,-498 518.477,-490.568 534.98,-478.436 546.888,-468.641"/>
<polygon fill="#000000" fill-opacity="0.466667" stroke="#000000" stroke-width="2" stroke-opacity="0.466667" points="549.324,-471.164 554.68,-462.022 544.793,-465.829 549.324,-471.164"/>
</g>
<!-- testbench/SiCard8Simulator.js -->
<g id="node10" class="node"><title>testbench/SiCard8Simulator.js</title>
<g id="a_node10"><a xlink:href="testbench/SiCard8Simulator.js" xlink:title="SiCard8Simulator.js">
<path fill="#ffffcc" stroke="black" d="M482.5,-402C482.5,-402 387.5,-402 387.5,-402 384.5,-402 381.5,-399 381.5,-396 381.5,-396 381.5,-390 381.5,-390 381.5,-387 384.5,-384 387.5,-384 387.5,-384 482.5,-384 482.5,-384 485.5,-384 488.5,-387 488.5,-390 488.5,-390 488.5,-396 488.5,-396 488.5,-399 485.5,-402 482.5,-402"/>
<text text-anchor="middle" x="435" y="-390.8" font-family="Helvetica,sans-Serif" font-size="9.00">SiCard8Simulator.js</text>
</a>
</g>
</g>
<!-- testbench/SiCard8Simulator.js&#45;&gt;src/index.js -->
<g id="edge9" class="edge"><title>testbench/SiCard8Simulator.js&#45;&gt;src/index.js</title>
<path fill="none" stroke="#000000" stroke-width="2" stroke-opacity="0.466667" d="M488.758,-387.095C493.681,-384.836 498.228,-381.872 502,-378 522.559,-356.898 499.745,-338.204 515,-313 521.07,-302.972 530.61,-294.385 539.702,-287.768"/>
<polygon fill="#000000" fill-opacity="0.466667" stroke="#000000" stroke-width="2" stroke-opacity="0.466667" points="541.836,-290.55 548.154,-282.044 537.911,-284.754 541.836,-290.55"/>
</g>
<!-- testbench/SiCard8Simulator.js&#45;&gt;testbench/SiCardSimulator.js -->
<g id="edge10" class="edge"><title>testbench/SiCard8Simulator.js&#45;&gt;testbench/SiCardSimulator.js</title>
<path fill="none" stroke="#000000" stroke-width="2" stroke-opacity="0.466667" d="M485.727,-402.023C491.325,-403.704 496.859,-405.681 502,-408 518.477,-415.432 534.98,-427.564 546.888,-437.359"/>
<polygon fill="#000000" fill-opacity="0.466667" stroke="#000000" stroke-width="2" stroke-opacity="0.466667" points="544.793,-440.171 554.68,-443.978 549.324,-434.836 544.793,-440.171"/>
</g>
<!-- testbench/SiCard9Simulator.js -->
<g id="node11" class="node"><title>testbench/SiCard9Simulator.js</title>
<g id="a_node11"><a xlink:href="testbench/SiCard9Simulator.js" xlink:title="SiCard9Simulator.js">
<path fill="#ffffcc" stroke="black" d="M482.5,-432C482.5,-432 387.5,-432 387.5,-432 384.5,-432 381.5,-429 381.5,-426 381.5,-426 381.5,-420 381.5,-420 381.5,-417 384.5,-414 387.5,-414 387.5,-414 482.5,-414 482.5,-414 485.5,-414 488.5,-417 488.5,-420 488.5,-420 488.5,-426 488.5,-426 488.5,-429 485.5,-432 482.5,-432"/>
<text text-anchor="middle" x="435" y="-420.8" font-family="Helvetica,sans-Serif" font-size="9.00">SiCard9Simulator.js</text>
</a>
</g>
</g>
<!-- testbench/SiCard9Simulator.js&#45;&gt;src/index.js -->
<g id="edge11" class="edge"><title>testbench/SiCard9Simulator.js&#45;&gt;src/index.js</title>
<path fill="none" stroke="#000000" stroke-width="2" stroke-opacity="0.466667" d="M488.683,-417.474C493.684,-415.155 498.269,-412.072 502,-408 530.787,-376.577 494.063,-350.118 515,-313 520.677,-302.936 529.976,-294.419 538.991,-287.865"/>
<polygon fill="#000000" fill-opacity="0.466667" stroke="#000000" stroke-width="2" stroke-opacity="0.466667" points="541.075,-290.681 547.419,-282.196 537.168,-284.873 541.075,-290.681"/>
</g>
<!-- testbench/SiCard9Simulator.js&#45;&gt;testbench/SiCardSimulator.js -->
<g id="edge12" class="edge"><title>testbench/SiCard9Simulator.js&#45;&gt;testbench/SiCardSimulator.js</title>
<path fill="none" stroke="#000000" stroke-width="2" stroke-opacity="0.466667" d="M476.155,-432.045C484.691,-433.99 493.647,-436.049 502,-438 506.966,-439.16 512.151,-440.384 517.319,-441.612"/>
<polygon fill="#000000" fill-opacity="0.466667" stroke="#000000" stroke-width="2" stroke-opacity="0.466667" points="516.633,-445.047 527.172,-443.963 518.257,-438.238 516.633,-445.047"/>
</g>
<!-- testbench/SiExternalApplication.js -->
<g id="node13" class="node"><title>testbench/SiExternalApplication.js</title>
<g id="a_node13"><a xlink:href="testbench/SiExternalApplication.js" xlink:title="SiExternalApplication.js">
<path fill="#ffffcc" stroke="black" d="M491.5,-342C491.5,-342 378.5,-342 378.5,-342 375.5,-342 372.5,-339 372.5,-336 372.5,-336 372.5,-330 372.5,-330 372.5,-327 375.5,-324 378.5,-324 378.5,-324 491.5,-324 491.5,-324 494.5,-324 497.5,-327 497.5,-330 497.5,-330 497.5,-336 497.5,-336 497.5,-339 494.5,-342 491.5,-342"/>
<text text-anchor="middle" x="435" y="-330.8" font-family="Helvetica,sans-Serif" font-size="9.00">SiExternalApplication.js</text>
</a>
</g>
</g>
<!-- testbench/SiExternalApplication.js&#45;&gt;src/index.js -->
<g id="edge13" class="edge"><title>testbench/SiExternalApplication.js&#45;&gt;src/index.js</title>
<path fill="none" stroke="#000000" stroke-width="2" stroke-opacity="0.466667" d="M477.222,-323.983C485.601,-321.537 494.223,-318.557 502,-315 517.347,-307.98 533.109,-297.36 544.965,-288.556"/>
<polygon fill="#000000" fill-opacity="0.466667" stroke="#000000" stroke-width="2" stroke-opacity="0.466667" points="547.376,-291.118 553.198,-282.267 543.127,-285.556 547.376,-291.118"/>
</g>
<!-- testbench/SiMainStationSimulator.js -->
<g id="node14" class="node"><title>testbench/SiMainStationSimulator.js</title>
<g id="a_node14"><a xlink:href="testbench/SiMainStationSimulator.js" xlink:title="SiMainStationSimulator.js">
<path fill="#ffffcc" stroke="black" d="M496,-372C496,-372 374,-372 374,-372 371,-372 368,-369 368,-366 368,-366 368,-360 368,-360 368,-357 371,-354 374,-354 374,-354 496,-354 496,-354 499,-354 502,-357 502,-360 502,-360 502,-366 502,-366 502,-369 499,-372 496,-372"/>
<text text-anchor="middle" x="435" y="-360.8" font-family="Helvetica,sans-Serif" font-size="9.00">SiMainStationSimulator.js</text>
</a>
</g>
</g>
<!-- testbench/SiMainStationSimulator.js&#45;&gt;src/index.js -->
<g id="edge14" class="edge"><title>testbench/SiMainStationSimulator.js&#45;&gt;src/index.js</title>
<path fill="none" stroke="#000000" stroke-width="2" stroke-opacity="0.466667" d="M493.604,-353.83C496.607,-352.174 499.437,-350.245 502,-348 514.483,-337.067 505.313,-326.473 515,-313 521.941,-303.347 531.793,-294.741 540.882,-288.008"/>
<polygon fill="#000000" fill-opacity="0.466667" stroke="#000000" stroke-width="2" stroke-opacity="0.466667" points="543.06,-290.757 549.243,-282.154 539.044,-285.023 543.06,-290.757"/>
</g>
<!-- testbench/Terminal.js -->
<g id="node15" class="node"><title>testbench/Terminal.js</title>
<g id="a_node15"><a xlink:href="testbench/Terminal.js" xlink:title="Terminal.js">
<path fill="#ffffcc" stroke="black" d="M182,-462C182,-462 129,-462 129,-462 126,-462 123,-459 123,-456 123,-456 123,-450 123,-450 123,-447 126,-444 129,-444 129,-444 182,-444 182,-444 185,-444 188,-447 188,-450 188,-450 188,-456 188,-456 188,-459 185,-462 182,-462"/>
<text text-anchor="middle" x="155.5" y="-450.8" font-family="Helvetica,sans-Serif" font-size="9.00">Terminal.js</text>
</a>
</g>
</g>
<!-- testbench/Terminal.js&#45;&gt;node_modules/prop&#45;types/index.js -->
<g id="edge17" class="edge"><title>testbench/Terminal.js&#45;&gt;node_modules/prop&#45;types/index.js</title>
<path fill="none" stroke="#000000" stroke-width="2" stroke-opacity="0.466667" d="M188.037,-454.611C202.428,-453.54 218.371,-449.458 228,-438 244.951,-417.829 224.093,-224.504 236,-201 243.204,-186.78 256.774,-175.453 269.29,-167.382"/>
<polygon fill="#000000" fill-opacity="0.466667" stroke="#000000" stroke-width="2" stroke-opacity="0.466667" points="271.339,-170.233 278.11,-162.085 267.735,-164.232 271.339,-170.233"/>
</g>
<!-- testbench/Terminal.js&#45;&gt;node_modules/react/index.js -->
<g id="edge18" class="edge"><title>testbench/Terminal.js&#45;&gt;node_modules/react/index.js</title>
<path fill="none" stroke="#000000" stroke-width="2" stroke-opacity="0.466667" d="M188.075,-454.643C202.474,-453.579 218.414,-449.494 228,-438 238.856,-424.983 227.75,-147.807 236,-133 242.26,-121.764 253.154,-113.148 264.02,-106.841"/>
<polygon fill="#000000" fill-opacity="0.466667" stroke="#000000" stroke-width="2" stroke-opacity="0.466667" points="265.829,-109.843 273.038,-102.079 262.561,-103.653 265.829,-109.843"/>
</g>
<!-- testbench/Terminal.js&#45;&gt;src/index.js -->
<g id="edge15" class="edge"><title>testbench/Terminal.js&#45;&gt;src/index.js</title>
<path fill="none" stroke="#000000" stroke-width="2" stroke-opacity="0.466667" d="M188.185,-454.396C202.43,-453.24 218.207,-449.149 228,-438 243.151,-420.752 224.015,-354.581 236,-335 269.743,-279.868 322.884,-311.921 360,-259 370.16,-244.514 354.289,-231.184 368,-220 414.15,-182.356 446.089,-199.485 502,-220 521.502,-227.156 539.09,-243.391 550.603,-256.02"/>
<polygon fill="#000000" fill-opacity="0.466667" stroke="#000000" stroke-width="2" stroke-opacity="0.466667" points="548.048,-258.416 557.25,-263.667 553.331,-253.824 548.048,-258.416"/>
</g>
<!-- testbench/commands/index.js -->
<g id="node17" class="node"><title>testbench/commands/index.js</title>
<g id="a_node17"><a xlink:href="testbench/commands/index.js" xlink:title="index.js">
<path fill="#ffffcc" stroke="black" d="M319,-484C319,-484 277,-484 277,-484 274,-484 271,-481 271,-478 271,-478 271,-472 271,-472 271,-469 274,-466 277,-466 277,-466 319,-466 319,-466 322,-466 325,-469 325,-472 325,-472 325,-478 325,-478 325,-481 322,-484 319,-484"/>
<text text-anchor="middle" x="298" y="-472.8" font-family="Helvetica,sans-Serif" font-size="9.00">index.js</text>
</a>
</g>
</g>
<!-- testbench/Terminal.js&#45;&gt;testbench/commands/index.js -->
<g id="edge16" class="edge"><title>testbench/Terminal.js&#45;&gt;testbench/commands/index.js</title>
<path fill="none" stroke="#000000" stroke-width="2" stroke-opacity="0.466667" d="M188.031,-457.937C209.543,-461.306 238.1,-465.777 260.583,-469.298"/>
<polygon fill="#000000" fill-opacity="0.466667" stroke="#000000" stroke-width="2" stroke-opacity="0.466667" points="260.335,-472.801 270.756,-470.891 261.418,-465.886 260.335,-472.801"/>
</g>
<!-- testbench/WebUsbSiDevicesContext.js -->
<g id="node16" class="node"><title>testbench/WebUsbSiDevicesContext.js</title>
<g id="a_node16"><a xlink:href="testbench/WebUsbSiDevicesContext.js" xlink:title="WebUsbSiDevicesContext.js">
<path fill="#ffffcc" stroke="black" d="M222,-432C222,-432 89,-432 89,-432 86,-432 83,-429 83,-426 83,-426 83,-420 83,-420 83,-417 86,-414 89,-414 89,-414 222,-414 222,-414 225,-414 228,-417 228,-420 228,-420 228,-426 228,-426 228,-429 225,-432 222,-432"/>
<text text-anchor="middle" x="155.5" y="-420.8" font-family="Helvetica,sans-Serif" font-size="9.00">WebUsbSiDevicesContext.js</text>
</a>
</g>
</g>
<!-- testbench/WebUsbSiDevicesContext.js&#45;&gt;node_modules/immutable/dist/immutable.js -->
<g id="edge19" class="edge"><title>testbench/WebUsbSiDevicesContext.js&#45;&gt;node_modules/immutable/dist/immutable.js</title>
<path fill="none" stroke="#000000" stroke-width="2" stroke-opacity="0.466667" d="M221.265,-413.99C223.717,-412.265 225.984,-410.28 228,-408 242.033,-392.128 229.04,-333.01 236,-313 246.118,-283.912 267.571,-255.09 282.141,-237.662"/>
<polygon fill="#000000" fill-opacity="0.466667" stroke="#000000" stroke-width="2" stroke-opacity="0.466667" points="284.8,-239.938 288.66,-230.071 279.49,-235.377 284.8,-239.938"/>
</g>
<!-- testbench/WebUsbSiDevicesContext.js&#45;&gt;node_modules/react/index.js -->
<g id="edge20" class="edge"><title>testbench/WebUsbSiDevicesContext.js&#45;&gt;node_modules/react/index.js</title>
<path fill="none" stroke="#000000" stroke-width="2" stroke-opacity="0.466667" d="M221.721,-413.902C224.016,-412.194 226.128,-410.238 228,-408 247.612,-384.552 221.084,-159.682 236,-133 242.276,-121.773 253.173,-113.159 264.037,-106.851"/>
<polygon fill="#000000" fill-opacity="0.466667" stroke="#000000" stroke-width="2" stroke-opacity="0.466667" points="265.846,-109.854 273.053,-102.088 262.576,-103.664 265.846,-109.854"/>
</g>
<!-- testbench/commands/pipe.js -->
<g id="node18" class="node"><title>testbench/commands/pipe.js</title>
<g id="a_node18"><a xlink:href="testbench/commands/pipe.js" xlink:title="pipe.js">
<path fill="#ffffcc" stroke="black" d="M319,-424C319,-424 277,-424 277,-424 274,-424 271,-421 271,-418 271,-418 271,-412 271,-412 271,-409 274,-406 277,-406 277,-406 319,-406 319,-406 322,-406 325,-409 325,-412 325,-412 325,-418 325,-418 325,-421 322,-424 319,-424"/>
<text text-anchor="middle" x="298" y="-412.8" font-family="Helvetica,sans-Serif" font-size="9.00">pipe.js</text>
</a>
</g>
</g>
<!-- testbench/commands/pipe.js&#45;&gt;src/index.js -->
<g id="edge21" class="edge"><title>testbench/commands/pipe.js&#45;&gt;src/index.js</title>
<path fill="none" stroke="#000000" stroke-width="2" stroke-opacity="0.466667" d="M325.193,-415.252C337.609,-413.905 351.541,-409.985 360,-400 375.126,-382.145 351.749,-311.838 368,-295 389.422,-272.805 477.608,-270.93 528.261,-271.784"/>
<polygon fill="#000000" fill-opacity="0.466667" stroke="#000000" stroke-width="2" stroke-opacity="0.466667" points="528.391,-275.287 538.463,-272.001 528.54,-268.289 528.391,-275.287"/>
</g>
<!-- testbench/commands/pipe.js&#45;&gt;testbench/SiExternalApplication.js -->
<g id="edge22" class="edge"><title>testbench/commands/pipe.js&#45;&gt;testbench/SiExternalApplication.js</title>
<path fill="none" stroke="#000000" stroke-width="2" stroke-opacity="0.466667" d="M325.183,-414.936C337.441,-413.488 351.238,-409.574 360,-400 373.937,-384.772 357.08,-369.239 368.683,-350.013"/>
<polygon fill="#000000" fill-opacity="0.466667" stroke="#000000" stroke-width="2" stroke-opacity="0.466667" points="371.451,-352.156 374.947,-342.154 365.977,-347.793 371.451,-352.156"/>
</g>
<!-- testbench/commands/send.js -->
<g id="node19" class="node"><title>testbench/commands/send.js</title>
<g id="a_node19"><a xlink:href="testbench/commands/send.js" xlink:title="send.js">
<path fill="#ffffcc" stroke="black" d="M319,-394C319,-394 277,-394 277,-394 274,-394 271,-391 271,-388 271,-388 271,-382 271,-382 271,-379 274,-376 277,-376 277,-376 319,-376 319,-376 322,-376 325,-379 325,-382 325,-382 325,-388 325,-388 325,-391 322,-394 319,-394"/>
<text text-anchor="middle" x="298" y="-382.8" font-family="Helvetica,sans-Serif" font-size="9.00">send.js</text>
</a>
</g>
</g>
<!-- testbench/commands/send.js&#45;&gt;src/index.js -->
<g id="edge23" class="edge"><title>testbench/commands/send.js&#45;&gt;src/index.js</title>
<path fill="none" stroke="#000000" stroke-width="2" stroke-opacity="0.466667" d="M325.181,-385.241C337.593,-383.892 351.526,-379.973 360,-370 374.579,-352.843 351.463,-284.279 368,-269 412.526,-227.862 489.889,-245.749 533.068,-260.549"/>
<polygon fill="#000000" fill-opacity="0.466667" stroke="#000000" stroke-width="2" stroke-opacity="0.466667" points="531.909,-263.851 542.504,-263.921 534.266,-257.26 531.909,-263.851"/>
</g>
<!-- testbench/commands/simulate.js -->
<g id="node20" class="node"><title>testbench/commands/simulate.js</title>
<g id="a_node20"><a xlink:href="testbench/commands/simulate.js" xlink:title="simulate.js">
<path fill="#ffffcc" stroke="black" d="M325.5,-454C325.5,-454 270.5,-454 270.5,-454 267.5,-454 264.5,-451 264.5,-448 264.5,-448 264.5,-442 264.5,-442 264.5,-439 267.5,-436 270.5,-436 270.5,-436 325.5,-436 325.5,-436 328.5,-436 331.5,-439 331.5,-442 331.5,-442 331.5,-448 331.5,-448 331.5,-451 328.5,-454 325.5,-454"/>
<text text-anchor="middle" x="298" y="-442.8" font-family="Helvetica,sans-Serif" font-size="9.00">simulate.js</text>
</a>
</g>
</g>
<!-- testbench/commands/simulate.js&#45;&gt;src/index.js -->
<g id="edge24" class="edge"><title>testbench/commands/simulate.js&#45;&gt;src/index.js</title>
<path fill="none" stroke="#000000" stroke-width="2" stroke-opacity="0.466667" d="M331.523,-444.372C342.131,-442.456 352.975,-438.342 360,-430 376.358,-410.574 350.894,-334.77 368,-316 388.327,-293.697 472.713,-301.274 502,-294 511.464,-291.65 521.55,-288.538 530.796,-285.432"/>
<polygon fill="#000000" fill-opacity="0.466667" stroke="#000000" stroke-width="2" stroke-opacity="0.466667" points="532.124,-288.677 540.431,-282.101 529.836,-282.061 532.124,-288.677"/>
</g>
<!-- testbench/commands/simulate.js&#45;&gt;testbench/SiCard10Simulator.js -->
<g id="edge25" class="edge"><title>testbench/commands/simulate.js&#45;&gt;testbench/SiCard10Simulator.js</title>
<path fill="none" stroke="#000000" stroke-width="2" stroke-opacity="0.466667" d="M331.68,-446.937C342.763,-447.593 355.571,-448.352 368.294,-449.106"/>
<polygon fill="#000000" fill-opacity="0.466667" stroke="#000000" stroke-width="2" stroke-opacity="0.466667" points="368.255,-452.61 378.445,-449.708 368.67,-445.622 368.255,-452.61"/>
</g>
<!-- testbench/commands/simulate.js&#45;&gt;testbench/SiCard5Simulator.js -->
<g id="edge26" class="edge"><title>testbench/commands/simulate.js&#45;&gt;testbench/SiCard5Simulator.js</title>
<path fill="none" stroke="#000000" stroke-width="2" stroke-opacity="0.466667" d="M331.582,-449.588C341.148,-451.823 351.355,-455.127 360,-460 364.38,-462.469 363.598,-465.57 368,-468 369.318,-468.728 370.669,-469.42 372.048,-470.079"/>
<polygon fill="#000000" fill-opacity="0.466667" stroke="#000000" stroke-width="2" stroke-opacity="0.466667" points="370.882,-473.384 381.461,-473.958 373.549,-466.912 370.882,-473.384"/>
</g>
<!-- testbench/commands/simulate.js&#45;&gt;testbench/SiCard6Simulator.js -->
<g id="edge27" class="edge"><title>testbench/commands/simulate.js&#45;&gt;testbench/SiCard6Simulator.js</title>
<path fill="none" stroke="#000000" stroke-width="2" stroke-opacity="0.466667" d="M331.537,-446.308C341.89,-448.318 352.571,-452.317 360,-460 371.997,-472.407 355.894,-485.699 368,-498 369.422,-499.445 370.952,-500.763 372.569,-501.965"/>
<polygon fill="#000000" fill-opacity="0.466667" stroke="#000000" stroke-width="2" stroke-opacity="0.466667" points="370.881,-505.033 381.281,-507.056 374.413,-498.989 370.881,-505.033"/>
</g>
<!-- testbench/commands/simulate.js&#45;&gt;testbench/SiCard8Simulator.js -->
<g id="edge28" class="edge"><title>testbench/commands/simulate.js&#45;&gt;testbench/SiCard8Simulator.js</title>
<path fill="none" stroke="#000000" stroke-width="2" stroke-opacity="0.466667" d="M331.57,-442.942C341.684,-440.852 352.209,-436.994 360,-430 367.742,-423.05 360.197,-414.882 368,-408 369.363,-406.798 370.803,-405.686 372.304,-404.658"/>
<polygon fill="#000000" fill-opacity="0.466667" stroke="#000000" stroke-width="2" stroke-opacity="0.466667" points="374.385,-407.51 381.483,-399.644 371.029,-401.366 374.385,-407.51"/>
</g>
<!-- testbench/commands/simulate.js&#45;&gt;testbench/SiCard9Simulator.js -->
<g id="edge29" class="edge"><title>testbench/commands/simulate.js&#45;&gt;testbench/SiCard9Simulator.js</title>
<path fill="none" stroke="#000000" stroke-width="2" stroke-opacity="0.466667" d="M331.68,-439.674C343.673,-437.72 357.686,-435.436 371.426,-433.197"/>
<polygon fill="#000000" fill-opacity="0.466667" stroke="#000000" stroke-width="2" stroke-opacity="0.466667" points="372.043,-436.643 381.349,-431.58 370.917,-429.734 372.043,-436.643"/>
</g>
<!-- testbench/commands/simulate.js&#45;&gt;testbench/SiExternalApplication.js -->
<g id="edge30" class="edge"><title>testbench/commands/simulate.js&#45;&gt;testbench/SiExternalApplication.js</title>
<path fill="none" stroke="#000000" stroke-width="2" stroke-opacity="0.466667" d="M331.715,-444.206C342.21,-442.256 352.934,-438.163 360,-430 370.531,-417.833 359.38,-374.322 369.356,-350.573"/>
<polygon fill="#000000" fill-opacity="0.466667" stroke="#000000" stroke-width="2" stroke-opacity="0.466667" points="372.385,-352.333 374.795,-342.016 366.477,-348.579 372.385,-352.333"/>
</g>
<!-- testbench/commands/simulate.js&#45;&gt;testbench/SiMainStationSimulator.js -->
<g id="edge31" class="edge"><title>testbench/commands/simulate.js&#45;&gt;testbench/SiMainStationSimulator.js</title>
<path fill="none" stroke="#000000" stroke-width="2" stroke-opacity="0.466667" d="M331.78,-443.921C342.154,-441.93 352.784,-437.884 360,-430 373.937,-414.772 357.08,-399.239 368.683,-380.013"/>
<polygon fill="#000000" fill-opacity="0.466667" stroke="#000000" stroke-width="2" stroke-opacity="0.466667" points="371.451,-382.156 374.947,-372.154 365.977,-377.793 371.451,-382.156"/>
</g>
<!-- testbench/commands/test.js -->
<g id="node21" class="node"><title>testbench/commands/test.js</title>
<g id="a_node21"><a xlink:href="testbench/commands/test.js" xlink:title="test.js">
<path fill="#ffffcc" stroke="black" d="M319,-364C319,-364 277,-364 277,-364 274,-364 271,-361 271,-358 271,-358 271,-352 271,-352 271,-349 274,-346 277,-346 277,-346 319,-346 319,-346 322,-346 325,-349 325,-352 325,-352 325,-358 325,-358 325,-361 322,-364 319,-364"/>
<text text-anchor="middle" x="298" y="-352.8" font-family="Helvetica,sans-Serif" font-size="9.00">test.js</text>
</a>
</g>
</g>
<!-- testbench/commands/test.js&#45;&gt;src/index.js -->
<g id="edge32" class="edge"><title>testbench/commands/test.js&#45;&gt;src/index.js</title>
<path fill="none" stroke="#000000" stroke-width="2" stroke-opacity="0.466667" d="M325.095,-356.157C337.486,-355.229 351.425,-351.763 360,-342 374.566,-325.417 351.777,-257.965 368,-243 416.007,-198.716 500.428,-236.306 541.185,-258.916"/>
<polygon fill="#000000" fill-opacity="0.466667" stroke="#000000" stroke-width="2" stroke-opacity="0.466667" points="539.457,-261.96 549.876,-263.881 542.929,-255.882 539.457,-261.96"/>
</g>
<!-- testbench/index.html -->
<g id="node22" class="node"><title>testbench/index.html</title>
<g id="a_node22"><a xlink:href="testbench/index.html" xlink:title="index.html">
<path fill="#ffffcc" stroke="black" d="M182,-342C182,-342 129,-342 129,-342 126,-342 123,-339 123,-336 123,-336 123,-330 123,-330 123,-327 126,-324 129,-324 129,-324 182,-324 182,-324 185,-324 188,-327 188,-330 188,-330 188,-336 188,-336 188,-339 185,-342 182,-342"/>
<text text-anchor="middle" x="155.5" y="-330.8" font-family="Helvetica,sans-Serif" font-size="9.00">index.html</text>
</a>
</g>
</g>
<!-- testbench/index.js -->
<g id="node23" class="node"><title>testbench/index.js</title>
<g id="a_node23"><a xlink:href="testbench/index.js" xlink:title="index.js">
<path fill="#ffffcc" stroke="black" d="M64,-342C64,-342 22,-342 22,-342 19,-342 16,-339 16,-336 16,-336 16,-330 16,-330 16,-327 19,-324 22,-324 22,-324 64,-324 64,-324 67,-324 70,-327 70,-330 70,-330 70,-336 70,-336 70,-339 67,-342 64,-342"/>
<text text-anchor="middle" x="43" y="-330.8" font-family="Helvetica,sans-Serif" font-size="9.00">index.js</text>
</a>
</g>
</g>
<!-- testbench/index.js&#45;&gt;node_modules/prop&#45;types/index.js -->
<g id="edge39" class="edge"><title>testbench/index.js&#45;&gt;node_modules/prop&#45;types/index.js</title>
<path fill="none" stroke="#000000" stroke-width="2" stroke-opacity="0.466667" d="M56.8941,-323.826C97.836,-294.698 225.169,-204.105 275.864,-168.037"/>
<polygon fill="#000000" fill-opacity="0.466667" stroke="#000000" stroke-width="2" stroke-opacity="0.466667" points="278.013,-170.804 284.132,-162.155 273.955,-165.101 278.013,-170.804"/>
</g>
<!-- testbench/index.js&#45;&gt;node_modules/react&#45;dom/index.js -->
<g id="edge41" class="edge"><title>testbench/index.js&#45;&gt;node_modules/react&#45;dom/index.js</title>
<path fill="none" stroke="#000000" stroke-width="2" stroke-opacity="0.466667" d="M44.4172,-323.801C46.2998,-286.148 55.1606,-144.214 83,-111 127.846,-57.4959 212.614,-40.6919 260.913,-35.415"/>
<polygon fill="#000000" fill-opacity="0.466667" stroke="#000000" stroke-width="2" stroke-opacity="0.466667" points="261.317,-38.8923 270.926,-34.4296 260.631,-31.9259 261.317,-38.8923"/>
</g>
<!-- testbench/index.js&#45;&gt;node_modules/react/index.js -->
<g id="edge40" class="edge"><title>testbench/index.js&#45;&gt;node_modules/react/index.js</title>
<path fill="none" stroke="#000000" stroke-width="2" stroke-opacity="0.466667" d="M44.3996,-323.74C45.848,-300.834 52.5098,-240.722 83,-204 129.953,-147.451 213.192,-116.252 260.839,-102.233"/>
<polygon fill="#000000" fill-opacity="0.466667" stroke="#000000" stroke-width="2" stroke-opacity="0.466667" points="262.062,-105.524 270.723,-99.4219 260.147,-98.7912 262.062,-105.524"/>
</g>
<!-- testbench/index.js&#45;&gt;src/index.js -->
<g id="edge33" class="edge"><title>testbench/index.js&#45;&gt;src/index.js</title>
<path fill="none" stroke="#000000" stroke-width="2" stroke-opacity="0.466667" d="M43.8116,-323.824C43.0825,-278.608 42.2663,-79.9966 83,-38 130.972,11.4589 167.324,-18.5738 236,-13 290.93,-8.54178 310.427,11.0785 360,-13 467.546,-65.2372 535.419,-204.467 557.02,-254.649"/>
<polygon fill="#000000" fill-opacity="0.466667" stroke="#000000" stroke-width="2" stroke-opacity="0.466667" points="553.824,-256.078 560.924,-263.942 560.277,-253.367 553.824,-256.078"/>
</g>
<!-- testbench/index.js&#45;&gt;testbench/MainStationList.js -->
<g id="edge34" class="edge"><title>testbench/index.js&#45;&gt;testbench/MainStationList.js</title>
<path fill="none" stroke="#000000" stroke-width="2" stroke-opacity="0.466667" d="M49.3501,-342.175C55.9122,-352.566 68.0299,-369.194 83,-378 87.2191,-380.482 91.7911,-382.557 96.5138,-384.29"/>
<polygon fill="#000000" fill-opacity="0.466667" stroke="#000000" stroke-width="2" stroke-opacity="0.466667" points="95.7647,-387.724 106.354,-387.391 97.8684,-381.047 95.7647,-387.724"/>
</g>
<!-- testbench/index.js&#45;&gt;testbench/Terminal.js -->
<g id="edge35" class="edge"><title>testbench/index.js&#45;&gt;testbench/Terminal.js</title>
<path fill="none" stroke="#000000" stroke-width="2" stroke-opacity="0.466667" d="M44.5517,-342.232C46.3034,-362.809 53.5306,-412.62 83,-438 91.2298,-445.088 101.954,-449.112 112.583,-451.329"/>
<polygon fill="#000000" fill-opacity="0.466667" stroke="#000000" stroke-width="2" stroke-opacity="0.466667" points="112.233,-454.818 122.66,-452.943 113.339,-447.906 112.233,-454.818"/>
</g>
<!-- testbench/index.js&#45;&gt;testbench/WebUsbSiDevicesContext.js -->
<g id="edge36" class="edge"><title>testbench/index.js&#45;&gt;testbench/WebUsbSiDevicesContext.js</title>
<path fill="none" stroke="#000000" stroke-width="2" stroke-opacity="0.466667" d="M46.0104,-342.024C50.0627,-357.997 60.7853,-391.146 83,-408 83.3789,-408.287 83.7621,-408.57 84.1493,-408.847"/>
<polygon fill="#000000" fill-opacity="0.466667" stroke="#000000" stroke-width="2" stroke-opacity="0.466667" points="82.4108,-411.885 92.8031,-413.947 85.9649,-405.854 82.4108,-411.885"/>
</g>
<!-- testbench/index.js&#45;&gt;testbench/index.html -->
<g id="edge37" class="edge"><title>testbench/index.js&#45;&gt;testbench/index.html</title>
<path fill="none" stroke="#000000" stroke-width="2" stroke-opacity="0.466667" d="M70.187,-333C82.9232,-333 98.54,-333 112.857,-333"/>
<polygon fill="#000000" fill-opacity="0.466667" stroke="#000000" stroke-width="2" stroke-opacity="0.466667" points="112.992,-336.5 122.992,-333 112.992,-329.5 112.992,-336.5"/>
</g>
<!-- testbench/styles.css -->
<g id="node24" class="node"><title>testbench/styles.css</title>
<g id="a_node24"><a xlink:href="testbench/styles.css" xlink:title="styles.css">
<path fill="#ffffcc" stroke="black" d="M180.5,-372C180.5,-372 130.5,-372 130.5,-372 127.5,-372 124.5,-369 124.5,-366 124.5,-366 124.5,-360 124.5,-360 124.5,-357 127.5,-354 130.5,-354 130.5,-354 180.5,-354 180.5,-354 183.5,-354 186.5,-357 186.5,-360 186.5,-360 186.5,-366 186.5,-366 186.5,-369 183.5,-372 180.5,-372"/>
<text text-anchor="middle" x="155.5" y="-360.8" font-family="Helvetica,sans-Serif" font-size="9.00">styles.css</text>
</a>
</g>
</g>
<!-- testbench/index.js&#45;&gt;testbench/styles.css -->
<g id="edge38" class="edge"><title>testbench/index.js&#45;&gt;testbench/styles.css</title>
<path fill="none" stroke="#000000" stroke-width="2" stroke-opacity="0.466667" d="M65.6521,-342.035C71.243,-344.172 77.2947,-346.316 83,-348 93.0359,-350.962 104.029,-353.573 114.32,-355.751"/>
<polygon fill="#000000" fill-opacity="0.466667" stroke="#000000" stroke-width="2" stroke-opacity="0.466667" points="113.819,-359.22 124.316,-357.782 115.213,-352.361 113.819,-359.22"/>
</g>
</g>
</svg>
